<?xml version="1.0" encoding="utf-8" standalone="no"?>
<!DOCTYPE svg PUBLIC "-//W3C//DTD SVG 1.1//EN"
  "http://www.w3.org/Graphics/SVG/1.1/DTD/svg11.dtd">
<svg xmlns:xlink="http://www.w3.org/1999/xlink" width="1000.318125pt" height="388.844525pt" viewBox="0 0 1000.318125 388.844525" xmlns="http://www.w3.org/2000/svg" version="1.1">
 <metadata>
  <rdf:RDF xmlns:dc="http://purl.org/dc/elements/1.1/" xmlns:cc="http://creativecommons.org/ns#" xmlns:rdf="http://www.w3.org/1999/02/22-rdf-syntax-ns#">
   <cc:Work>
    <dc:type rdf:resource="http://purl.org/dc/dcmitype/StillImage"/>
    <dc:date>2024-01-15T17:08:52.805176</dc:date>
    <dc:format>image/svg+xml</dc:format>
    <dc:creator>
     <cc:Agent>
      <dc:title>Matplotlib v3.6.2, https://matplotlib.org/</dc:title>
     </cc:Agent>
    </dc:creator>
   </cc:Work>
  </rdf:RDF>
 </metadata>
 <defs>
  <style type="text/css">*{stroke-linejoin: round; stroke-linecap: butt}</style>
 </defs>
 <g id="figure_1">
  <g id="axes_1">
   <g id="patch_1">
    <path d="M 38.058125 353.2239 
L 993.118125 353.2239 
L 993.118125 35.2559 
L 38.058125 35.2559 
z
" style="fill: #ffffff"/>
   </g>
   <g id="patch_2">
    <path d="M 38.058125 86.908056 
L 958.476371 86.908056 
L 958.476371 -597.904116 
L 38.058125 -597.904116 
z
" clip-path="url(#p8cfe1b8029)" style="fill: #c3e6c3"/>
   </g>
   <g id="patch_3">
    <path d="M 38.058125 162.998297 
L 958.476371 162.998297 
L 958.476371 86.908056 
L 38.058125 86.908056 
z
" clip-path="url(#p8cfe1b8029)" style="fill: #e6dcc3"/>
   </g>
   <g id="patch_4">
    <path d="M 38.058125 353.2239 
L 958.476371 353.2239 
L 958.476371 162.998297 
L 38.058125 162.998297 
z
" clip-path="url(#p8cfe1b8029)" style="fill: #e6c3c3"/>
   </g>
   <g id="matplotlib.axis_1">
    <g id="xtick_1">
     <g id="text_1">
      <!-- 0 -->
      <g transform="translate(70.154879 366.30265) scale(0.08 -0.08)">
       <defs>
        <path id="DejaVuSans-30" d="M 2034 4250 
Q 1547 4250 1301 3770 
Q 1056 3291 1056 2328 
Q 1056 1369 1301 889 
Q 1547 409 2034 409 
Q 2525 409 2770 889 
Q 3016 1369 3016 2328 
Q 3016 3291 2770 3770 
Q 2525 4250 2034 4250 
z
M 2034 4750 
Q 2819 4750 3233 4129 
Q 3647 3509 3647 2328 
Q 3647 1150 3233 529 
Q 2819 -91 2034 -91 
Q 1250 -91 836 529 
Q 422 1150 422 2328 
Q 422 3509 836 4129 
Q 1250 4750 2034 4750 
z
" transform="scale(0.015625)"/>
       </defs>
       <use xlink:href="#DejaVuSans-30"/>
      </g>
     </g>
    </g>
    <g id="xtick_2">
     <g id="text_2">
      <!-- 20 -->
      <g transform="translate(243.011164 366.30265) scale(0.08 -0.08)">
       <defs>
        <path id="DejaVuSans-32" d="M 1228 531 
L 3431 531 
L 3431 0 
L 469 0 
L 469 531 
Q 828 903 1448 1529 
Q 2069 2156 2228 2338 
Q 2531 2678 2651 2914 
Q 2772 3150 2772 3378 
Q 2772 3750 2511 3984 
Q 2250 4219 1831 4219 
Q 1534 4219 1204 4116 
Q 875 4013 500 3803 
L 500 4441 
Q 881 4594 1212 4672 
Q 1544 4750 1819 4750 
Q 2544 4750 2975 4387 
Q 3406 4025 3406 3419 
Q 3406 3131 3298 2873 
Q 3191 2616 2906 2266 
Q 2828 2175 2409 1742 
Q 1991 1309 1228 531 
z
" transform="scale(0.015625)"/>
       </defs>
       <use xlink:href="#DejaVuSans-32"/>
       <use xlink:href="#DejaVuSans-30" x="63.623047"/>
      </g>
     </g>
    </g>
    <g id="xtick_3">
     <g id="text_3">
      <!-- 40 -->
      <g transform="translate(418.41245 366.30265) scale(0.08 -0.08)">
       <defs>
        <path id="DejaVuSans-34" d="M 2419 4116 
L 825 1625 
L 2419 1625 
L 2419 4116 
z
M 2253 4666 
L 3047 4666 
L 3047 1625 
L 3713 1625 
L 3713 1100 
L 3047 1100 
L 3047 0 
L 2419 0 
L 2419 1100 
L 313 1100 
L 313 1709 
L 2253 4666 
z
" transform="scale(0.015625)"/>
       </defs>
       <use xlink:href="#DejaVuSans-34"/>
       <use xlink:href="#DejaVuSans-30" x="63.623047"/>
      </g>
     </g>
    </g>
    <g id="xtick_4">
     <g id="text_4">
      <!-- 60 -->
      <g transform="translate(593.813736 366.30265) scale(0.08 -0.08)">
       <defs>
        <path id="DejaVuSans-36" d="M 2113 2584 
Q 1688 2584 1439 2293 
Q 1191 2003 1191 1497 
Q 1191 994 1439 701 
Q 1688 409 2113 409 
Q 2538 409 2786 701 
Q 3034 994 3034 1497 
Q 3034 2003 2786 2293 
Q 2538 2584 2113 2584 
z
M 3366 4563 
L 3366 3988 
Q 3128 4100 2886 4159 
Q 2644 4219 2406 4219 
Q 1781 4219 1451 3797 
Q 1122 3375 1075 2522 
Q 1259 2794 1537 2939 
Q 1816 3084 2150 3084 
Q 2853 3084 3261 2657 
Q 3669 2231 3669 1497 
Q 3669 778 3244 343 
Q 2819 -91 2113 -91 
Q 1303 -91 875 529 
Q 447 1150 447 2328 
Q 447 3434 972 4092 
Q 1497 4750 2381 4750 
Q 2619 4750 2861 4703 
Q 3103 4656 3366 4563 
z
" transform="scale(0.015625)"/>
       </defs>
       <use xlink:href="#DejaVuSans-36"/>
       <use xlink:href="#DejaVuSans-30" x="63.623047"/>
      </g>
     </g>
    </g>
    <g id="xtick_5">
     <g id="text_5">
      <!-- 80 -->
      <g transform="translate(769.215021 366.30265) scale(0.08 -0.08)">
       <defs>
        <path id="DejaVuSans-38" d="M 2034 2216 
Q 1584 2216 1326 1975 
Q 1069 1734 1069 1313 
Q 1069 891 1326 650 
Q 1584 409 2034 409 
Q 2484 409 2743 651 
Q 3003 894 3003 1313 
Q 3003 1734 2745 1975 
Q 2488 2216 2034 2216 
z
M 1403 2484 
Q 997 2584 770 2862 
Q 544 3141 544 3541 
Q 544 4100 942 4425 
Q 1341 4750 2034 4750 
Q 2731 4750 3128 4425 
Q 3525 4100 3525 3541 
Q 3525 3141 3298 2862 
Q 3072 2584 2669 2484 
Q 3125 2378 3379 2068 
Q 3634 1759 3634 1313 
Q 3634 634 3220 271 
Q 2806 -91 2034 -91 
Q 1263 -91 848 271 
Q 434 634 434 1313 
Q 434 1759 690 2068 
Q 947 2378 1403 2484 
z
M 1172 3481 
Q 1172 3119 1398 2916 
Q 1625 2713 2034 2713 
Q 2441 2713 2670 2916 
Q 2900 3119 2900 3481 
Q 2900 3844 2670 4047 
Q 2441 4250 2034 4250 
Q 1625 4250 1398 4047 
Q 1172 3844 1172 3481 
z
" transform="scale(0.015625)"/>
       </defs>
       <use xlink:href="#DejaVuSans-38"/>
       <use xlink:href="#DejaVuSans-30" x="63.623047"/>
      </g>
     </g>
    </g>
    <g id="xtick_6">
     <g id="text_6">
      <!-- 100 -->
      <g transform="translate(942.071307 366.30265) scale(0.08 -0.08)">
       <defs>
        <path id="DejaVuSans-31" d="M 794 531 
L 1825 531 
L 1825 4091 
L 703 3866 
L 703 4441 
L 1819 4666 
L 2450 4666 
L 2450 531 
L 3481 531 
L 3481 0 
L 794 0 
L 794 531 
z
" transform="scale(0.015625)"/>
       </defs>
       <use xlink:href="#DejaVuSans-31"/>
       <use xlink:href="#DejaVuSans-30" x="63.623047"/>
       <use xlink:href="#DejaVuSans-30" x="127.246094"/>
      </g>
     </g>
    </g>
    <g id="text_7">
     <!-- Position (bp) -->
     <g transform="translate(484.285 379.564837) scale(0.1 -0.1)">
      <defs>
       <path id="DejaVuSans-50" d="M 1259 4147 
L 1259 2394 
L 2053 2394 
Q 2494 2394 2734 2622 
Q 2975 2850 2975 3272 
Q 2975 3691 2734 3919 
Q 2494 4147 2053 4147 
L 1259 4147 
z
M 628 4666 
L 2053 4666 
Q 2838 4666 3239 4311 
Q 3641 3956 3641 3272 
Q 3641 2581 3239 2228 
Q 2838 1875 2053 1875 
L 1259 1875 
L 1259 0 
L 628 0 
L 628 4666 
z
" transform="scale(0.015625)"/>
       <path id="DejaVuSans-6f" d="M 1959 3097 
Q 1497 3097 1228 2736 
Q 959 2375 959 1747 
Q 959 1119 1226 758 
Q 1494 397 1959 397 
Q 2419 397 2687 759 
Q 2956 1122 2956 1747 
Q 2956 2369 2687 2733 
Q 2419 3097 1959 3097 
z
M 1959 3584 
Q 2709 3584 3137 3096 
Q 3566 2609 3566 1747 
Q 3566 888 3137 398 
Q 2709 -91 1959 -91 
Q 1206 -91 779 398 
Q 353 888 353 1747 
Q 353 2609 779 3096 
Q 1206 3584 1959 3584 
z
" transform="scale(0.015625)"/>
       <path id="DejaVuSans-73" d="M 2834 3397 
L 2834 2853 
Q 2591 2978 2328 3040 
Q 2066 3103 1784 3103 
Q 1356 3103 1142 2972 
Q 928 2841 928 2578 
Q 928 2378 1081 2264 
Q 1234 2150 1697 2047 
L 1894 2003 
Q 2506 1872 2764 1633 
Q 3022 1394 3022 966 
Q 3022 478 2636 193 
Q 2250 -91 1575 -91 
Q 1294 -91 989 -36 
Q 684 19 347 128 
L 347 722 
Q 666 556 975 473 
Q 1284 391 1588 391 
Q 1994 391 2212 530 
Q 2431 669 2431 922 
Q 2431 1156 2273 1281 
Q 2116 1406 1581 1522 
L 1381 1569 
Q 847 1681 609 1914 
Q 372 2147 372 2553 
Q 372 3047 722 3315 
Q 1072 3584 1716 3584 
Q 2034 3584 2315 3537 
Q 2597 3491 2834 3397 
z
" transform="scale(0.015625)"/>
       <path id="DejaVuSans-69" d="M 603 3500 
L 1178 3500 
L 1178 0 
L 603 0 
L 603 3500 
z
M 603 4863 
L 1178 4863 
L 1178 4134 
L 603 4134 
L 603 4863 
z
" transform="scale(0.015625)"/>
       <path id="DejaVuSans-74" d="M 1172 4494 
L 1172 3500 
L 2356 3500 
L 2356 3053 
L 1172 3053 
L 1172 1153 
Q 1172 725 1289 603 
Q 1406 481 1766 481 
L 2356 481 
L 2356 0 
L 1766 0 
Q 1100 0 847 248 
Q 594 497 594 1153 
L 594 3053 
L 172 3053 
L 172 3500 
L 594 3500 
L 594 4494 
L 1172 4494 
z
" transform="scale(0.015625)"/>
       <path id="DejaVuSans-6e" d="M 3513 2113 
L 3513 0 
L 2938 0 
L 2938 2094 
Q 2938 2591 2744 2837 
Q 2550 3084 2163 3084 
Q 1697 3084 1428 2787 
Q 1159 2491 1159 1978 
L 1159 0 
L 581 0 
L 581 3500 
L 1159 3500 
L 1159 2956 
Q 1366 3272 1645 3428 
Q 1925 3584 2291 3584 
Q 2894 3584 3203 3211 
Q 3513 2838 3513 2113 
z
" transform="scale(0.015625)"/>
       <path id="DejaVuSans-20" transform="scale(0.015625)"/>
       <path id="DejaVuSans-28" d="M 1984 4856 
Q 1566 4138 1362 3434 
Q 1159 2731 1159 2009 
Q 1159 1288 1364 580 
Q 1569 -128 1984 -844 
L 1484 -844 
Q 1016 -109 783 600 
Q 550 1309 550 2009 
Q 550 2706 781 3412 
Q 1013 4119 1484 4856 
L 1984 4856 
z
" transform="scale(0.015625)"/>
       <path id="DejaVuSans-62" d="M 3116 1747 
Q 3116 2381 2855 2742 
Q 2594 3103 2138 3103 
Q 1681 3103 1420 2742 
Q 1159 2381 1159 1747 
Q 1159 1113 1420 752 
Q 1681 391 2138 391 
Q 2594 391 2855 752 
Q 3116 1113 3116 1747 
z
M 1159 2969 
Q 1341 3281 1617 3432 
Q 1894 3584 2278 3584 
Q 2916 3584 3314 3078 
Q 3713 2572 3713 1747 
Q 3713 922 3314 415 
Q 2916 -91 2278 -91 
Q 1894 -91 1617 61 
Q 1341 213 1159 525 
L 1159 0 
L 581 0 
L 581 4863 
L 1159 4863 
L 1159 2969 
z
" transform="scale(0.015625)"/>
       <path id="DejaVuSans-70" d="M 1159 525 
L 1159 -1331 
L 581 -1331 
L 581 3500 
L 1159 3500 
L 1159 2969 
Q 1341 3281 1617 3432 
Q 1894 3584 2278 3584 
Q 2916 3584 3314 3078 
Q 3713 2572 3713 1747 
Q 3713 922 3314 415 
Q 2916 -91 2278 -91 
Q 1894 -91 1617 61 
Q 1341 213 1159 525 
z
M 3116 1747 
Q 3116 2381 2855 2742 
Q 2594 3103 2138 3103 
Q 1681 3103 1420 2742 
Q 1159 2381 1159 1747 
Q 1159 1113 1420 752 
Q 1681 391 2138 391 
Q 2594 391 2855 752 
Q 3116 1113 3116 1747 
z
" transform="scale(0.015625)"/>
       <path id="DejaVuSans-29" d="M 513 4856 
L 1013 4856 
Q 1481 4119 1714 3412 
Q 1947 2706 1947 2009 
Q 1947 1309 1714 600 
Q 1481 -109 1013 -844 
L 513 -844 
Q 928 -128 1133 580 
Q 1338 1288 1338 2009 
Q 1338 2731 1133 3434 
Q 928 4138 513 4856 
z
" transform="scale(0.015625)"/>
      </defs>
      <use xlink:href="#DejaVuSans-50"/>
      <use xlink:href="#DejaVuSans-6f" x="56.677734"/>
      <use xlink:href="#DejaVuSans-73" x="117.859375"/>
      <use xlink:href="#DejaVuSans-69" x="169.958984"/>
      <use xlink:href="#DejaVuSans-74" x="197.742188"/>
      <use xlink:href="#DejaVuSans-69" x="236.951172"/>
      <use xlink:href="#DejaVuSans-6f" x="264.734375"/>
      <use xlink:href="#DejaVuSans-6e" x="325.916016"/>
      <use xlink:href="#DejaVuSans-20" x="389.294922"/>
      <use xlink:href="#DejaVuSans-28" x="421.082031"/>
      <use xlink:href="#DejaVuSans-62" x="460.095703"/>
      <use xlink:href="#DejaVuSans-70" x="523.572266"/>
      <use xlink:href="#DejaVuSans-29" x="587.048828"/>
     </g>
    </g>
   </g>
   <g id="matplotlib.axis_2">
    <g id="ytick_1">
     <g id="line2d_1">
      <path d="M 38.058125 353.2239 
L 993.118125 353.2239 
" clip-path="url(#p8cfe1b8029)" style="fill: none; stroke: #dedede; stroke-linecap: square"/>
     </g>
     <g id="text_8">
      <!-- 0 -->
      <g transform="translate(25.968125 356.263275) scale(0.08 -0.08)">
       <use xlink:href="#DejaVuSans-30"/>
      </g>
     </g>
    </g>
    <g id="ytick_2">
     <g id="line2d_2">
      <path d="M 38.058125 305.667499 
L 993.118125 305.667499 
" clip-path="url(#p8cfe1b8029)" style="fill: none; stroke: #dedede; stroke-linecap: square"/>
     </g>
     <g id="text_9">
      <!-- 5 -->
      <g transform="translate(25.968125 308.706874) scale(0.08 -0.08)">
       <defs>
        <path id="DejaVuSans-35" d="M 691 4666 
L 3169 4666 
L 3169 4134 
L 1269 4134 
L 1269 2991 
Q 1406 3038 1543 3061 
Q 1681 3084 1819 3084 
Q 2600 3084 3056 2656 
Q 3513 2228 3513 1497 
Q 3513 744 3044 326 
Q 2575 -91 1722 -91 
Q 1428 -91 1123 -41 
Q 819 9 494 109 
L 494 744 
Q 775 591 1075 516 
Q 1375 441 1709 441 
Q 2250 441 2565 725 
Q 2881 1009 2881 1497 
Q 2881 1984 2565 2268 
Q 2250 2553 1709 2553 
Q 1456 2553 1204 2497 
Q 953 2441 691 2322 
L 691 4666 
z
" transform="scale(0.015625)"/>
       </defs>
       <use xlink:href="#DejaVuSans-35"/>
      </g>
     </g>
    </g>
    <g id="ytick_3">
     <g id="line2d_3">
      <path d="M 38.058125 258.111098 
L 993.118125 258.111098 
" clip-path="url(#p8cfe1b8029)" style="fill: none; stroke: #dedede; stroke-linecap: square"/>
     </g>
     <g id="text_10">
      <!-- 10 -->
      <g transform="translate(20.878125 261.150473) scale(0.08 -0.08)">
       <use xlink:href="#DejaVuSans-31"/>
       <use xlink:href="#DejaVuSans-30" x="63.623047"/>
      </g>
     </g>
    </g>
    <g id="ytick_4">
     <g id="line2d_4">
      <path d="M 38.058125 210.554698 
L 993.118125 210.554698 
" clip-path="url(#p8cfe1b8029)" style="fill: none; stroke: #dedede; stroke-linecap: square"/>
     </g>
     <g id="text_11">
      <!-- 15 -->
      <g transform="translate(20.878125 213.594073) scale(0.08 -0.08)">
       <use xlink:href="#DejaVuSans-31"/>
       <use xlink:href="#DejaVuSans-35" x="63.623047"/>
      </g>
     </g>
    </g>
    <g id="ytick_5">
     <g id="line2d_5">
      <path d="M 38.058125 162.998297 
L 993.118125 162.998297 
" clip-path="url(#p8cfe1b8029)" style="fill: none; stroke: #dedede; stroke-linecap: square"/>
     </g>
     <g id="text_12">
      <!-- 20 -->
      <g transform="translate(20.878125 166.037672) scale(0.08 -0.08)">
       <use xlink:href="#DejaVuSans-32"/>
       <use xlink:href="#DejaVuSans-30" x="63.623047"/>
      </g>
     </g>
    </g>
    <g id="ytick_6">
     <g id="line2d_6">
      <path d="M 38.058125 115.441896 
L 993.118125 115.441896 
" clip-path="url(#p8cfe1b8029)" style="fill: none; stroke: #dedede; stroke-linecap: square"/>
     </g>
     <g id="text_13">
      <!-- 25 -->
      <g transform="translate(20.878125 118.481271) scale(0.08 -0.08)">
       <use xlink:href="#DejaVuSans-32"/>
       <use xlink:href="#DejaVuSans-35" x="63.623047"/>
      </g>
     </g>
    </g>
    <g id="ytick_7">
     <g id="line2d_7">
      <path d="M 38.058125 67.885495 
L 993.118125 67.885495 
" clip-path="url(#p8cfe1b8029)" style="fill: none; stroke: #dedede; stroke-linecap: square"/>
     </g>
     <g id="text_14">
      <!-- 30 -->
      <g transform="translate(20.878125 70.92487) scale(0.08 -0.08)">
       <defs>
        <path id="DejaVuSans-33" d="M 2597 2516 
Q 3050 2419 3304 2112 
Q 3559 1806 3559 1356 
Q 3559 666 3084 287 
Q 2609 -91 1734 -91 
Q 1441 -91 1130 -33 
Q 819 25 488 141 
L 488 750 
Q 750 597 1062 519 
Q 1375 441 1716 441 
Q 2309 441 2620 675 
Q 2931 909 2931 1356 
Q 2931 1769 2642 2001 
Q 2353 2234 1838 2234 
L 1294 2234 
L 1294 2753 
L 1863 2753 
Q 2328 2753 2575 2939 
Q 2822 3125 2822 3475 
Q 2822 3834 2567 4026 
Q 2313 4219 1838 4219 
Q 1578 4219 1281 4162 
Q 984 4106 628 3988 
L 628 4550 
Q 988 4650 1302 4700 
Q 1616 4750 1894 4750 
Q 2613 4750 3031 4423 
Q 3450 4097 3450 3541 
Q 3450 3153 3228 2886 
Q 3006 2619 2597 2516 
z
" transform="scale(0.015625)"/>
       </defs>
       <use xlink:href="#DejaVuSans-33"/>
       <use xlink:href="#DejaVuSans-30" x="63.623047"/>
      </g>
     </g>
    </g>
    <g id="text_15">
     <!-- Phred Score -->
     <g transform="translate(14.798438 224.20865) rotate(-90) scale(0.1 -0.1)">
      <defs>
       <path id="DejaVuSans-68" d="M 3513 2113 
L 3513 0 
L 2938 0 
L 2938 2094 
Q 2938 2591 2744 2837 
Q 2550 3084 2163 3084 
Q 1697 3084 1428 2787 
Q 1159 2491 1159 1978 
L 1159 0 
L 581 0 
L 581 4863 
L 1159 4863 
L 1159 2956 
Q 1366 3272 1645 3428 
Q 1925 3584 2291 3584 
Q 2894 3584 3203 3211 
Q 3513 2838 3513 2113 
z
" transform="scale(0.015625)"/>
       <path id="DejaVuSans-72" d="M 2631 2963 
Q 2534 3019 2420 3045 
Q 2306 3072 2169 3072 
Q 1681 3072 1420 2755 
Q 1159 2438 1159 1844 
L 1159 0 
L 581 0 
L 581 3500 
L 1159 3500 
L 1159 2956 
Q 1341 3275 1631 3429 
Q 1922 3584 2338 3584 
Q 2397 3584 2469 3576 
Q 2541 3569 2628 3553 
L 2631 2963 
z
" transform="scale(0.015625)"/>
       <path id="DejaVuSans-65" d="M 3597 1894 
L 3597 1613 
L 953 1613 
Q 991 1019 1311 708 
Q 1631 397 2203 397 
Q 2534 397 2845 478 
Q 3156 559 3463 722 
L 3463 178 
Q 3153 47 2828 -22 
Q 2503 -91 2169 -91 
Q 1331 -91 842 396 
Q 353 884 353 1716 
Q 353 2575 817 3079 
Q 1281 3584 2069 3584 
Q 2775 3584 3186 3129 
Q 3597 2675 3597 1894 
z
M 3022 2063 
Q 3016 2534 2758 2815 
Q 2500 3097 2075 3097 
Q 1594 3097 1305 2825 
Q 1016 2553 972 2059 
L 3022 2063 
z
" transform="scale(0.015625)"/>
       <path id="DejaVuSans-64" d="M 2906 2969 
L 2906 4863 
L 3481 4863 
L 3481 0 
L 2906 0 
L 2906 525 
Q 2725 213 2448 61 
Q 2172 -91 1784 -91 
Q 1150 -91 751 415 
Q 353 922 353 1747 
Q 353 2572 751 3078 
Q 1150 3584 1784 3584 
Q 2172 3584 2448 3432 
Q 2725 3281 2906 2969 
z
M 947 1747 
Q 947 1113 1208 752 
Q 1469 391 1925 391 
Q 2381 391 2643 752 
Q 2906 1113 2906 1747 
Q 2906 2381 2643 2742 
Q 2381 3103 1925 3103 
Q 1469 3103 1208 2742 
Q 947 2381 947 1747 
z
" transform="scale(0.015625)"/>
       <path id="DejaVuSans-53" d="M 3425 4513 
L 3425 3897 
Q 3066 4069 2747 4153 
Q 2428 4238 2131 4238 
Q 1616 4238 1336 4038 
Q 1056 3838 1056 3469 
Q 1056 3159 1242 3001 
Q 1428 2844 1947 2747 
L 2328 2669 
Q 3034 2534 3370 2195 
Q 3706 1856 3706 1288 
Q 3706 609 3251 259 
Q 2797 -91 1919 -91 
Q 1588 -91 1214 -16 
Q 841 59 441 206 
L 441 856 
Q 825 641 1194 531 
Q 1563 422 1919 422 
Q 2459 422 2753 634 
Q 3047 847 3047 1241 
Q 3047 1584 2836 1778 
Q 2625 1972 2144 2069 
L 1759 2144 
Q 1053 2284 737 2584 
Q 422 2884 422 3419 
Q 422 4038 858 4394 
Q 1294 4750 2059 4750 
Q 2388 4750 2728 4690 
Q 3069 4631 3425 4513 
z
" transform="scale(0.015625)"/>
       <path id="DejaVuSans-63" d="M 3122 3366 
L 3122 2828 
Q 2878 2963 2633 3030 
Q 2388 3097 2138 3097 
Q 1578 3097 1268 2742 
Q 959 2388 959 1747 
Q 959 1106 1268 751 
Q 1578 397 2138 397 
Q 2388 397 2633 464 
Q 2878 531 3122 666 
L 3122 134 
Q 2881 22 2623 -34 
Q 2366 -91 2075 -91 
Q 1284 -91 818 406 
Q 353 903 353 1747 
Q 353 2603 823 3093 
Q 1294 3584 2113 3584 
Q 2378 3584 2631 3529 
Q 2884 3475 3122 3366 
z
" transform="scale(0.015625)"/>
      </defs>
      <use xlink:href="#DejaVuSans-50"/>
      <use xlink:href="#DejaVuSans-68" x="60.302734"/>
      <use xlink:href="#DejaVuSans-72" x="123.681641"/>
      <use xlink:href="#DejaVuSans-65" x="162.544922"/>
      <use xlink:href="#DejaVuSans-64" x="224.068359"/>
      <use xlink:href="#DejaVuSans-20" x="287.544922"/>
      <use xlink:href="#DejaVuSans-53" x="319.332031"/>
      <use xlink:href="#DejaVuSans-63" x="382.808594"/>
      <use xlink:href="#DejaVuSans-6f" x="437.789062"/>
      <use xlink:href="#DejaVuSans-72" x="498.970703"/>
      <use xlink:href="#DejaVuSans-65" x="537.833984"/>
     </g>
    </g>
   </g>
   <g id="line2d_8">
    <path d="M 81.469943 44.66652 
L 90.240007 47.768519 
L 99.010072 45.657109 
L 107.780136 45.738318 
L 116.5502 45.718338 
L 125.320265 45.707479 
L 134.090329 45.902409 
L 142.860393 45.761066 
L 151.630457 45.685407 
L 160.400522 45.579448 
L 177.94065 45.419197 
L 195.480779 45.0358 
L 213.020907 44.404016 
L 230.561036 45.197585 
L 248.101164 49.21442 
L 265.641293 83.375858 
L 283.181422 128.403 
L 300.72155 148.084307 
L 318.261679 150.253337 
L 335.801807 150.523834 
L 353.341936 137.930159 
L 370.882064 134.217498 
L 388.422193 147.519331 
L 405.962322 148.025196 
L 423.50245 149.41697 
L 441.042579 146.498493 
L 458.582707 133.83504 
L 476.122836 106.304532 
L 493.662964 95.188239 
L 511.203093 135.269753 
L 528.743221 138.298698 
L 546.28335 139.055536 
L 563.823479 162.99523 
L 581.363607 147.24746 
L 598.903736 151.987766 
L 616.443864 134.098582 
L 633.983993 140.20657 
L 651.524121 143.181978 
L 669.06425 139.898113 
L 686.604378 144.520107 
L 704.144507 133.499689 
L 721.684636 97.207915 
L 739.224764 74.363236 
L 756.764893 106.180949 
L 774.305021 124.645524 
L 791.84515 132.247475 
L 809.385278 135.204766 
L 826.925407 124.775664 
L 844.465535 130.136295 
L 862.005664 127.476344 
L 879.545793 127.19235 
L 897.085921 128.775738 
L 914.62605 118.355131 
L 932.166178 96.906387 
L 949.706307 48.357911 
" clip-path="url(#p8cfe1b8029)" style="fill: none; stroke: #d9534f; stroke-linecap: square"/>
   </g>
   <g id="line2d_9">
    <path d="M 81.469943 42.739118 
L 90.240007 46.140694 
L 99.010072 43.888736 
L 107.780136 44.089689 
L 116.5502 44.052257 
L 125.320265 44.12813 
L 134.090329 44.318613 
L 142.860393 44.112962 
L 151.630457 44.07887 
L 160.400522 44.021293 
L 177.94065 43.880201 
L 195.480779 43.464822 
L 213.020907 42.852795 
L 230.561036 43.326302 
L 248.101164 46.331343 
L 265.641293 79.150452 
L 283.181422 124.701354 
L 300.72155 143.241711 
L 318.261679 145.47342 
L 335.801807 145.900306 
L 353.341936 132.894955 
L 370.882064 129.795821 
L 388.422193 142.48552 
L 405.962322 141.979974 
L 423.50245 145.132813 
L 441.042579 140.294684 
L 458.582707 128.344132 
L 476.122836 103.962124 
L 493.662964 91.048623 
L 511.203093 130.701963 
L 528.743221 132.551728 
L 546.28335 134.86259 
L 563.823479 158.091514 
L 581.363607 144.929412 
L 598.903736 148.218894 
L 616.443864 129.369968 
L 633.983993 133.863391 
L 651.524121 136.218519 
L 669.06425 131.940561 
L 686.604378 139.302676 
L 704.144507 135.837286 
L 721.684636 100.474617 
L 739.224764 69.81295 
L 756.764893 98.286305 
L 774.305021 113.910781 
L 791.84515 124.985912 
L 809.385278 126.233171 
L 826.925407 121.987407 
L 844.465535 126.836715 
L 862.005664 125.343743 
L 879.545793 127.055505 
L 897.085921 124.209894 
L 914.62605 120.868835 
L 932.166178 95.374937 
L 949.706307 50.551328 
" clip-path="url(#p8cfe1b8029)" style="fill: none; stroke: #d9534f; stroke-linecap: square"/>
   </g>
   <g id="line2d_10">
    <path d="M 81.469943 43.836485 
L 90.240007 47.044089 
L 99.010072 44.755509 
L 107.780136 44.944125 
L 116.5502 44.917029 
L 125.320265 44.904955 
L 134.090329 45.124593 
L 142.860393 44.986007 
L 151.630457 44.947232 
L 160.400522 44.839852 
L 177.94065 44.702158 
L 195.480779 44.230342 
L 213.020907 43.631497 
L 230.561036 44.166605 
L 248.101164 47.307659 
L 265.641293 80.621875 
L 283.181422 125.213631 
L 300.72155 144.513059 
L 318.261679 147.348541 
L 335.801807 147.457913 
L 353.341936 133.762455 
L 370.882064 130.451732 
L 388.422193 143.172064 
L 405.962322 143.18765 
L 423.50245 146.382678 
L 441.042579 141.016839 
L 458.582707 128.957566 
L 476.122836 104.490629 
L 493.662964 91.581977 
L 511.203093 131.189884 
L 528.743221 132.850982 
L 546.28335 135.389229 
L 563.823479 158.139939 
L 581.363607 145.152198 
L 598.903736 149.464343 
L 616.443864 130.374258 
L 633.983993 133.970141 
L 651.524121 136.154963 
L 669.06425 133.290635 
L 686.604378 139.746319 
L 704.144507 138.452699 
L 721.684636 104.349402 
L 739.224764 72.27337 
L 756.764893 101.622032 
L 774.305021 122.524048 
L 791.84515 135.337918 
L 809.385278 133.820347 
L 826.925407 122.366946 
L 844.465535 126.360488 
L 862.005664 134.00388 
L 879.545793 129.297915 
L 897.085921 136.184255 
L 914.62605 128.390383 
L 932.166178 106.283576 
L 949.706307 51.849949 
" clip-path="url(#p8cfe1b8029)" style="fill: none; stroke: #d9534f; stroke-linecap: square"/>
   </g>
   <g id="line2d_11">
    <path d="M 81.469943 43.519363 
L 90.240007 46.655312 
L 99.010072 44.567537 
L 107.780136 44.643229 
L 116.5502 44.64528 
L 125.320265 44.68477 
L 134.090329 44.86017 
L 142.860393 44.609304 
L 151.630457 44.662998 
L 160.400522 44.586905 
L 177.94065 44.490419 
L 195.480779 44.044329 
L 213.020907 43.419464 
L 230.561036 43.923557 
L 248.101164 46.871454 
L 265.641293 79.978443 
L 283.181422 124.578775 
L 300.72155 143.362358 
L 318.261679 146.233165 
L 335.801807 146.425283 
L 353.341936 132.497698 
L 370.882064 128.786753 
L 388.422193 141.69701 
L 405.962322 141.441008 
L 423.50245 144.863967 
L 441.042579 138.744375 
L 458.582707 126.401267 
L 476.122836 103.16172 
L 493.662964 90.696941 
L 511.203093 129.494713 
L 528.743221 131.986231 
L 546.28335 134.838981 
L 563.823479 157.002682 
L 581.363607 144.00678 
L 598.903736 146.995769 
L 616.443864 129.726788 
L 633.983993 133.344017 
L 651.524121 136.335434 
L 669.06425 132.752538 
L 686.604378 137.862768 
L 704.144507 134.843216 
L 721.684636 101.00026 
L 739.224764 69.20205 
L 756.764893 101.817562 
L 774.305021 114.227509 
L 791.84515 129.561347 
L 809.385278 134.907228 
L 826.925407 127.719571 
L 844.465535 123.41965 
L 862.005664 130.806394 
L 879.545793 125.860302 
L 897.085921 133.336276 
L 914.62605 122.245774 
L 932.166178 108.524907 
L 949.706307 53.524092 
" clip-path="url(#p8cfe1b8029)" style="fill: none; stroke: #d9534f; stroke-linecap: square"/>
   </g>
   <g id="line2d_12">
    <path d="M 81.469943 41.828987 
L 90.240007 45.612697 
L 99.010072 43.348129 
L 107.780136 43.373074 
L 116.5502 43.457169 
L 125.320265 43.461025 
L 134.090329 43.58569 
L 142.860393 43.392917 
L 151.630457 43.468525 
L 160.400522 43.404865 
L 177.94065 43.304948 
L 195.480779 42.86532 
L 213.020907 42.148802 
L 230.561036 42.556798 
L 248.101164 45.230366 
L 265.641293 77.276209 
L 283.181422 121.249411 
L 300.72155 139.276415 
L 318.261679 141.550691 
L 335.801807 141.400494 
L 353.341936 131.026207 
L 370.882064 127.952069 
L 388.422193 138.639364 
L 405.962322 138.060713 
L 423.50245 140.848341 
L 441.042579 135.874398 
L 458.582707 124.928777 
L 476.122836 101.718856 
L 493.662964 89.315454 
L 511.203093 128.304159 
L 528.743221 128.496341 
L 546.28335 129.846883 
L 563.823479 152.513396 
L 581.363607 139.673163 
L 598.903736 143.543444 
L 616.443864 125.978001 
L 633.983993 130.08298 
L 651.524121 133.18022 
L 669.06425 131.121896 
L 686.604378 137.074696 
L 704.144507 129.969538 
L 721.684636 92.967445 
L 739.224764 62.465631 
L 756.764893 87.223743 
L 774.305021 105.452883 
L 791.84515 122.389181 
L 809.385278 123.866096 
L 826.925407 117.625239 
L 844.465535 121.506286 
L 862.005664 118.947271 
L 879.545793 126.954972 
L 897.085921 126.998742 
L 914.62605 121.449391 
L 932.166178 105.004175 
L 949.706307 50.18133 
" clip-path="url(#p8cfe1b8029)" style="fill: none; stroke: #d9534f; stroke-linecap: square"/>
   </g>
   <g id="line2d_13">
    <path d="M 81.469943 43.285463 
L 90.240007 46.431212 
L 99.010072 44.309032 
L 107.780136 44.405449 
L 116.5502 44.458962 
L 125.320265 44.488257 
L 134.090329 44.69037 
L 142.860393 44.426358 
L 151.630457 44.516523 
L 160.400522 44.414589 
L 177.94065 44.341886 
L 195.480779 43.928889 
L 213.020907 43.349331 
L 230.561036 43.780139 
L 248.101164 46.67502 
L 265.641293 80.018832 
L 283.181422 124.882993 
L 300.72155 143.969991 
L 318.261679 146.200149 
L 335.801807 146.479473 
L 353.341936 132.150583 
L 370.882064 129.019388 
L 388.422193 141.677269 
L 405.962322 141.101527 
L 423.50245 145.011561 
L 441.042579 138.373601 
L 458.582707 126.241603 
L 476.122836 103.292721 
L 493.662964 90.614566 
L 511.203093 129.07674 
L 528.743221 131.834173 
L 546.28335 135.764142 
L 563.823479 158.615945 
L 581.363607 145.351393 
L 598.903736 147.92717 
L 616.443864 129.251118 
L 633.983993 134.072544 
L 651.524121 138.23693 
L 669.06425 135.78004 
L 686.604378 138.712492 
L 704.144507 134.047984 
L 721.684636 102.896563 
L 739.224764 72.558728 
L 756.764893 101.879417 
L 774.305021 120.936333 
L 791.84515 128.765421 
L 809.385278 132.607535 
L 826.925407 128.133606 
L 844.465535 123.710297 
L 862.005664 123.364798 
L 879.545793 126.007707 
L 897.085921 135.676889 
L 914.62605 122.779865 
L 932.166178 105.711212 
L 949.706307 54.83352 
" clip-path="url(#p8cfe1b8029)" style="fill: none; stroke: #d9534f; stroke-linecap: square"/>
   </g>
   <g id="line2d_14">
    <path d="M 81.469943 43.286204 
L 90.240007 46.565675 
L 99.010072 44.370166 
L 107.780136 44.575606 
L 116.5502 44.519261 
L 125.320265 44.577565 
L 134.090329 44.803346 
L 142.860393 44.637275 
L 151.630457 44.583982 
L 160.400522 44.491047 
L 177.94065 44.359533 
L 195.480779 43.977464 
L 213.020907 43.300539 
L 230.561036 43.878325 
L 248.101164 46.921188 
L 265.641293 80.140454 
L 283.181422 125.475576 
L 300.72155 144.965802 
L 318.261679 146.750019 
L 335.801807 147.520001 
L 353.341936 133.248705 
L 370.882064 129.62553 
L 388.422193 142.415754 
L 405.962322 142.669269 
L 423.50245 146.146485 
L 441.042579 139.869733 
L 458.582707 127.822085 
L 476.122836 103.978463 
L 493.662964 91.509689 
L 511.203093 130.488351 
L 528.743221 132.954465 
L 546.28335 136.099447 
L 563.823479 158.525119 
L 581.363607 145.000947 
L 598.903736 148.824561 
L 616.443864 130.342913 
L 633.983993 135.262827 
L 651.524121 138.667063 
L 669.06425 136.92705 
L 686.604378 139.836641 
L 704.144507 133.210185 
L 721.684636 100.698819 
L 739.224764 69.740908 
L 756.764893 100.722557 
L 774.305021 115.447554 
L 791.84515 128.842469 
L 809.385278 131.510188 
L 826.925407 126.498287 
L 844.465535 125.430277 
L 862.005664 122.365061 
L 879.545793 133.263147 
L 897.085921 127.534627 
L 914.62605 119.682617 
L 932.166178 99.712855 
L 949.706307 57.772235 
" clip-path="url(#p8cfe1b8029)" style="fill: none; stroke: #d9534f; stroke-linecap: square"/>
   </g>
   <g id="line2d_15">
    <path d="M 81.469943 42.73464 
L 90.240007 45.914813 
L 99.010072 43.771242 
L 107.780136 43.900704 
L 116.5502 43.942362 
L 125.320265 43.968352 
L 134.090329 44.197103 
L 142.860393 43.9986 
L 151.630457 44.00902 
L 160.400522 43.915526 
L 177.94065 43.803255 
L 195.480779 43.434771 
L 213.020907 42.849044 
L 230.561036 43.2891 
L 248.101164 46.230434 
L 265.641293 80.046022 
L 283.181422 125.60997 
L 300.72155 144.135749 
L 318.261679 146.564636 
L 335.801807 145.689685 
L 353.341936 132.240135 
L 370.882064 129.650661 
L 388.422193 140.421642 
L 405.962322 140.574959 
L 423.50245 144.589627 
L 441.042579 138.535088 
L 458.582707 126.984514 
L 476.122836 103.001117 
L 493.662964 90.0614 
L 511.203093 130.922685 
L 528.743221 135.368867 
L 546.28335 137.894486 
L 563.823479 158.363912 
L 581.363607 144.491588 
L 598.903736 148.656006 
L 616.443864 129.676148 
L 633.983993 133.640614 
L 651.524121 135.719311 
L 669.06425 132.434842 
L 686.604378 137.703911 
L 704.144507 133.554769 
L 721.684636 100.995413 
L 739.224764 74.08797 
L 756.764893 108.383002 
L 774.305021 127.367049 
L 791.84515 132.323998 
L 809.385278 139.875272 
L 826.925407 128.756513 
L 844.465535 129.640014 
L 862.005664 127.130981 
L 879.545793 128.144116 
L 897.085921 134.227804 
L 914.62605 129.33632 
L 932.166178 103.353768 
L 949.706307 52.667447 
" clip-path="url(#p8cfe1b8029)" style="fill: none; stroke: #d9534f; stroke-linecap: square"/>
   </g>
   <g id="line2d_16">
    <path d="M 81.469943 43.139104 
L 90.240007 46.337107 
L 99.010072 44.182225 
L 107.780136 44.336121 
L 116.5502 44.303663 
L 125.320265 44.347891 
L 134.090329 44.557321 
L 142.860393 44.340943 
L 151.630457 44.311268 
L 160.400522 44.242629 
L 177.94065 44.108021 
L 195.480779 43.723478 
L 213.020907 43.102747 
L 230.561036 43.624043 
L 248.101164 46.687206 
L 265.641293 80.053025 
L 283.181422 125.820278 
L 300.72155 145.483593 
L 318.261679 147.922923 
L 335.801807 147.621405 
L 353.341936 133.082975 
L 370.882064 129.480883 
L 388.422193 142.940947 
L 405.962322 142.96292 
L 423.50245 146.556995 
L 441.042579 140.325754 
L 458.582707 127.72897 
L 476.122836 103.625426 
L 493.662964 91.509346 
L 511.203093 131.263942 
L 528.743221 134.066504 
L 546.28335 136.117346 
L 563.823479 158.837749 
L 581.363607 145.528858 
L 598.903736 149.29878 
L 616.443864 130.944113 
L 633.983993 134.781667 
L 651.524121 137.875535 
L 669.06425 134.419139 
L 686.604378 139.835125 
L 704.144507 136.228252 
L 721.684636 102.470257 
L 739.224764 75.70237 
L 756.764893 110.841356 
L 774.305021 120.614656 
L 791.84515 134.649005 
L 809.385278 132.686108 
L 826.925407 126.616594 
L 844.465535 131.28404 
L 862.005664 133.714411 
L 879.545793 127.070607 
L 897.085921 129.320166 
L 914.62605 127.845379 
L 932.166178 102.67585 
L 949.706307 55.498712 
" clip-path="url(#p8cfe1b8029)" style="fill: none; stroke: #d9534f; stroke-linecap: square"/>
   </g>
   <g id="line2d_17">
    <path d="M 81.469943 43.563679 
L 90.240007 46.729736 
L 99.010072 44.551588 
L 107.780136 44.708727 
L 116.5502 44.726786 
L 125.320265 44.755618 
L 134.090329 44.892157 
L 142.860393 44.664607 
L 151.630457 44.678392 
L 160.400522 44.59282 
L 177.94065 44.421447 
L 195.480779 44.04821 
L 213.020907 43.503741 
L 230.561036 43.96335 
L 248.101164 47.014408 
L 265.641293 79.78195 
L 283.181422 124.190518 
L 300.72155 142.910873 
L 318.261679 145.78166 
L 335.801807 146.08474 
L 353.341936 132.506499 
L 370.882064 129.214368 
L 388.422193 142.014073 
L 405.962322 141.699548 
L 423.50245 145.071949 
L 441.042579 139.032427 
L 458.582707 127.163456 
L 476.122836 103.828326 
L 493.662964 90.670504 
L 511.203093 129.656346 
L 528.743221 131.728969 
L 546.28335 133.691364 
L 563.823479 156.647604 
L 581.363607 143.508539 
L 598.903736 147.583391 
L 616.443864 129.34119 
L 633.983993 132.975225 
L 651.524121 134.790493 
L 669.06425 131.925848 
L 686.604378 138.262214 
L 704.144507 137.002897 
L 721.684636 103.561851 
L 739.224764 74.40444 
L 756.764893 105.025181 
L 774.305021 121.101538 
L 791.84515 132.641687 
L 809.385278 133.352254 
L 826.925407 126.51341 
L 844.465535 129.229301 
L 862.005664 123.384727 
L 879.545793 128.361842 
L 897.085921 129.33043 
L 914.62605 124.947675 
L 932.166178 100.917883 
L 949.706307 55.203788 
" clip-path="url(#p8cfe1b8029)" style="fill: none; stroke: #d9534f; stroke-linecap: square"/>
   </g>
   <g id="line2d_18">
    <path d="M 81.469943 43.423001 
L 90.240007 46.506176 
L 99.010072 44.306437 
L 107.780136 44.458354 
L 116.5502 44.555113 
L 125.320265 44.587571 
L 134.090329 44.746378 
L 142.860393 44.580057 
L 151.630457 44.573528 
L 160.400522 44.485462 
L 177.94065 44.377069 
L 195.480779 44.018084 
L 213.020907 43.426664 
L 230.561036 43.920402 
L 248.101164 47.143213 
L 265.641293 80.348201 
L 283.181422 125.564908 
L 300.72155 144.024425 
L 318.261679 146.532284 
L 335.801807 146.450462 
L 353.341936 133.228105 
L 370.882064 130.070587 
L 388.422193 140.910587 
L 405.962322 141.230405 
L 423.50245 144.706628 
L 441.042579 138.798904 
L 458.582707 127.751185 
L 476.122836 103.148617 
L 493.662964 91.175419 
L 511.203093 130.217245 
L 528.743221 132.650203 
L 546.28335 135.670684 
L 563.823479 157.995553 
L 581.363607 145.536685 
L 598.903736 149.527907 
L 616.443864 130.884264 
L 633.983993 134.77774 
L 651.524121 136.876836 
L 669.06425 133.406618 
L 686.604378 136.614325 
L 704.144507 131.854 
L 721.684636 100.277836 
L 739.224764 73.810333 
L 756.764893 104.254901 
L 774.305021 119.257473 
L 791.84515 130.922941 
L 809.385278 136.67422 
L 826.925407 124.188343 
L 844.465535 130.323664 
L 862.005664 129.241418 
L 879.545793 125.604035 
L 897.085921 131.4591 
L 914.62605 123.26416 
L 932.166178 108.076475 
L 949.706307 51.745141 
" clip-path="url(#p8cfe1b8029)" style="fill: none; stroke: #d9534f; stroke-linecap: square"/>
   </g>
   <g id="line2d_19">
    <path d="M 81.469943 42.944098 
L 90.240007 46.025751 
L 99.010072 43.914474 
L 107.780136 44.138644 
L 116.5502 44.100554 
L 125.320265 44.135699 
L 134.090329 44.288882 
L 142.860393 44.106305 
L 151.630457 44.159238 
L 160.400522 44.069023 
L 177.94065 43.916133 
L 195.480779 43.624877 
L 213.020907 43.099761 
L 230.561036 43.52984 
L 248.101164 46.440134 
L 265.641293 79.385401 
L 283.181422 124.769409 
L 300.72155 144.029919 
L 318.261679 146.290816 
L 335.801807 146.098722 
L 353.341936 131.057386 
L 370.882064 128.254899 
L 388.422193 140.502321 
L 405.962322 140.086523 
L 423.50245 144.641821 
L 441.042579 137.684132 
L 458.582707 125.158128 
L 476.122836 102.104342 
L 493.662964 89.690591 
L 511.203093 130.140494 
L 528.743221 132.01426 
L 546.28335 135.377301 
L 563.823479 156.979509 
L 581.363607 144.898168 
L 598.903736 145.61116 
L 616.443864 126.431233 
L 633.983993 130.063047 
L 651.524121 134.812498 
L 669.06425 132.668412 
L 686.604378 139.776289 
L 704.144507 133.487182 
L 721.684636 96.430654 
L 739.224764 73.227528 
L 756.764893 109.312258 
L 774.305021 116.582603 
L 791.84515 127.560383 
L 809.385278 131.256018 
L 826.925407 122.394543 
L 844.465535 126.643407 
L 862.005664 130.612778 
L 879.545793 130.598707 
L 897.085921 132.270357 
L 914.62605 128.76018 
L 932.166178 98.315281 
L 949.706307 52.798637 
" clip-path="url(#p8cfe1b8029)" style="fill: none; stroke: #d9534f; stroke-linecap: square"/>
   </g>
   <g id="line2d_20">
    <path d="M 81.469943 42.439516 
L 90.240007 45.603331 
L 99.010072 43.434967 
L 107.780136 43.589131 
L 116.5502 43.567074 
L 125.320265 43.669057 
L 134.090329 43.838327 
L 142.860393 43.676465 
L 151.630457 43.628912 
L 160.400522 43.566389 
L 177.94065 43.5203 
L 195.480779 43.095659 
L 213.020907 42.433236 
L 230.561036 42.937733 
L 248.101164 45.759105 
L 265.641293 78.513469 
L 283.181422 124.487501 
L 300.72155 143.524661 
L 318.261679 145.888974 
L 335.801807 145.381839 
L 353.341936 132.414069 
L 370.882064 129.63411 
L 388.422193 140.695213 
L 405.962322 140.365037 
L 423.50245 143.515032 
L 441.042579 138.110181 
L 458.582707 126.187274 
L 476.122836 102.53088 
L 493.662964 89.744975 
L 511.203093 130.523201 
L 528.743221 134.090443 
L 546.28335 137.304465 
L 563.823479 158.498801 
L 581.363607 143.747315 
L 598.903736 147.202552 
L 616.443864 129.076393 
L 633.983993 134.334703 
L 651.524121 135.372063 
L 669.06425 132.508025 
L 686.604378 136.915951 
L 704.144507 133.579664 
L 721.684636 100.624942 
L 739.224764 70.7187 
L 756.764893 110.637428 
L 774.305021 121.557339 
L 791.84515 127.555323 
L 809.385278 143.559786 
L 826.925407 126.871089 
L 844.465535 127.480309 
L 862.005664 120.108872 
L 879.545793 127.244651 
L 897.085921 130.074314 
L 914.62605 123.682084 
L 932.166178 101.080149 
L 949.706307 61.325992 
" clip-path="url(#p8cfe1b8029)" style="fill: none; stroke: #d9534f; stroke-linecap: square"/>
   </g>
   <g id="line2d_21">
    <path d="M 81.469943 43.657979 
L 90.240007 46.815781 
L 99.010072 44.710181 
L 107.780136 44.871486 
L 116.5502 44.84802 
L 125.320265 44.809667 
L 134.090329 45.0308 
L 142.860393 44.887531 
L 151.630457 44.74924 
L 160.400522 44.729639 
L 177.94065 44.580148 
L 195.480779 44.192173 
L 213.020907 43.592023 
L 230.561036 44.151832 
L 248.101164 47.452401 
L 265.641293 80.94558 
L 283.181422 125.673431 
L 300.72155 144.966317 
L 318.261679 147.381912 
L 335.801807 147.603493 
L 353.341936 134.162505 
L 370.882064 130.622021 
L 388.422193 143.284045 
L 405.962322 143.538243 
L 423.50245 146.032112 
L 441.042579 141.512347 
L 458.582707 129.908734 
L 476.122836 105.069088 
L 493.662964 92.064978 
L 511.203093 131.479944 
L 528.743221 134.044049 
L 546.28335 136.189546 
L 563.823479 159.207883 
L 581.363607 144.71423 
L 598.903736 148.975447 
L 616.443864 130.602612 
L 633.983993 135.297774 
L 651.524121 137.786171 
L 669.06425 134.766024 
L 686.604378 139.549988 
L 704.144507 135.268039 
L 721.684636 100.714961 
L 739.224764 74.809479 
L 756.764893 110.32207 
L 774.305021 122.0059 
L 791.84515 130.853117 
L 809.385278 130.892917 
L 826.925407 125.207158 
L 844.465535 126.548908 
L 862.005664 127.320992 
L 879.545793 121.232075 
L 897.085921 134.240312 
L 914.62605 125.293195 
L 932.166178 105.80431 
L 949.706307 53.368278 
" clip-path="url(#p8cfe1b8029)" style="fill: none; stroke: #d9534f; stroke-linecap: square"/>
   </g>
   <g id="line2d_22">
    <path d="M 81.469943 41.637363 
L 90.240007 45.381678 
L 99.010072 43.032274 
L 107.780136 43.198674 
L 116.5502 43.167704 
L 125.320265 43.205562 
L 134.090329 43.454459 
L 142.860393 43.317079 
L 151.630457 43.252308 
L 160.400522 43.192817 
L 177.94065 43.084472 
L 195.480779 42.620978 
L 213.020907 41.944174 
L 230.561036 42.473268 
L 248.101164 45.32666 
L 265.641293 78.022529 
L 283.181422 123.481697 
L 300.72155 141.971261 
L 318.261679 143.901937 
L 335.801807 144.508871 
L 353.341936 133.439539 
L 370.882064 130.726254 
L 388.422193 140.892294 
L 405.962322 140.669686 
L 423.50245 143.49411 
L 441.042579 139.890482 
L 458.582707 128.6447 
L 476.122836 104.283461 
L 493.662964 91.430624 
L 511.203093 130.883903 
L 528.743221 131.828358 
L 546.28335 133.579301 
L 563.823479 156.319765 
L 581.363607 142.193529 
L 598.903736 145.976653 
L 616.443864 128.868121 
L 633.983993 132.877621 
L 651.524121 136.760196 
L 669.06425 134.211341 
L 686.604378 140.572891 
L 704.144507 132.253574 
L 721.684636 92.803456 
L 739.224764 67.645438 
L 756.764893 99.913221 
L 774.305021 112.745221 
L 791.84515 129.298577 
L 809.385278 134.259596 
L 826.925407 125.489338 
L 844.465535 126.285703 
L 862.005664 128.788292 
L 879.545793 124.347762 
L 897.085921 129.716791 
L 914.62605 121.961343 
L 932.166178 100.945987 
L 949.706307 56.226507 
" clip-path="url(#p8cfe1b8029)" style="fill: none; stroke: #d9534f; stroke-linecap: square"/>
   </g>
   <g id="line2d_23">
    <path d="M 81.469943 43.589572 
L 90.240007 46.644032 
L 99.010072 44.528677 
L 107.780136 44.748532 
L 116.5502 44.618371 
L 125.320265 44.699898 
L 134.090329 44.904411 
L 142.860393 44.744708 
L 151.630457 44.752967 
L 160.400522 44.695056 
L 177.94065 44.581379 
L 195.480779 44.120875 
L 213.020907 43.499575 
L 230.561036 44.111492 
L 248.101164 47.401055 
L 265.641293 80.957711 
L 283.181422 127.331865 
L 300.72155 146.445045 
L 318.261679 148.821864 
L 335.801807 148.813928 
L 353.341936 134.212666 
L 370.882064 130.884113 
L 388.422193 144.560491 
L 405.962322 144.070134 
L 423.50245 147.183354 
L 441.042579 142.233006 
L 458.582707 129.575154 
L 476.122836 104.883075 
L 493.662964 92.683691 
L 511.203093 131.724178 
L 528.743221 135.147854 
L 546.28335 138.183892 
L 563.823479 161.818724 
L 581.363607 147.410147 
L 598.903736 150.539803 
L 616.443864 131.348138 
L 633.983993 136.576937 
L 651.524121 140.42949 
L 669.06425 137.883259 
L 686.604378 141.168134 
L 704.144507 136.238859 
L 721.684636 102.90103 
L 739.224764 75.856041 
L 756.764893 112.617389 
L 774.305021 122.424686 
L 791.84515 134.633334 
L 809.385278 135.42935 
L 826.925407 125.755788 
L 844.465535 128.542312 
L 862.005664 130.489924 
L 879.545793 127.737851 
L 897.085921 129.522741 
L 914.62605 125.986385 
L 932.166178 104.931227 
L 949.706307 52.309976 
" clip-path="url(#p8cfe1b8029)" style="fill: none; stroke: #d9534f; stroke-linecap: square"/>
   </g>
   <g id="line2d_24">
    <path d="M 81.469943 43.872373 
L 90.240007 46.854145 
L 99.010072 44.681473 
L 107.780136 44.90706 
L 116.5502 44.890346 
L 125.320265 44.986845 
L 134.090329 45.196325 
L 142.860393 44.946122 
L 151.630457 44.917929 
L 160.400522 44.796544 
L 177.94065 44.732577 
L 195.480779 44.435478 
L 213.020907 43.894297 
L 230.561036 44.472724 
L 248.101164 47.69703 
L 265.641293 80.997046 
L 283.181422 126.449405 
L 300.72155 145.526169 
L 318.261679 148.057129 
L 335.801807 147.644286 
L 353.341936 132.789997 
L 370.882064 129.578854 
L 388.422193 142.364023 
L 405.962322 142.464147 
L 423.50245 146.637689 
L 441.042579 139.948108 
L 458.582707 127.026005 
L 476.122836 103.861042 
L 493.662964 91.729873 
L 511.203093 130.359559 
L 528.743221 133.872494 
L 546.28335 137.241619 
L 563.823479 159.624089 
L 581.363607 146.718674 
L 598.903736 149.91262 
L 616.443864 130.895449 
L 633.983993 135.181614 
L 651.524121 137.610789 
L 669.06425 135.756246 
L 686.604378 138.643689 
L 704.144507 133.821658 
L 721.684636 103.012891 
L 739.224764 74.366893 
L 756.764893 108.532416 
L 774.305021 127.328077 
L 791.84515 133.158453 
L 809.385278 138.070827 
L 826.925407 128.260574 
L 844.465535 132.323461 
L 862.005664 128.861537 
L 879.545793 127.961983 
L 897.085921 132.308529 
L 914.62605 126.754813 
L 932.166178 101.286213 
L 949.706307 50.727892 
" clip-path="url(#p8cfe1b8029)" style="fill: none; stroke: #d9534f; stroke-linecap: square"/>
   </g>
   <g id="line2d_25">
    <path d="M 81.469943 43.978752 
L 90.240007 46.858449 
L 99.010072 44.692017 
L 107.780136 44.84162 
L 116.5502 44.910022 
L 125.320265 44.931164 
L 134.090329 45.121976 
L 142.860393 44.931301 
L 151.630457 44.854664 
L 160.400522 44.777481 
L 177.94065 44.68205 
L 195.480779 44.352806 
L 213.020907 43.82252 
L 230.561036 44.342183 
L 248.101164 47.497757 
L 265.641293 80.665674 
L 283.181422 125.812932 
L 300.72155 144.601111 
L 318.261679 147.888553 
L 335.801807 147.068722 
L 353.341936 132.024163 
L 370.882064 128.955616 
L 388.422193 141.822901 
L 405.962322 141.960031 
L 423.50245 146.015053 
L 441.042579 138.780549 
L 458.582707 126.007895 
L 476.122836 103.160159 
L 493.662964 91.196362 
L 511.203093 130.476956 
L 528.743221 133.731838 
L 546.28335 136.800243 
L 563.823479 158.365957 
L 581.363607 146.297731 
L 598.903736 149.890891 
L 616.443864 130.793874 
L 633.983993 134.282325 
L 651.524121 137.620027 
L 669.06425 134.667488 
L 686.604378 138.483709 
L 704.144507 135.157992 
L 721.684636 103.755632 
L 739.224764 72.85808 
L 756.764893 107.308585 
L 774.305021 120.574571 
L 791.84515 137.052124 
L 809.385278 136.990052 
L 826.925407 128.639564 
L 844.465535 122.760505 
L 862.005664 131.895451 
L 879.545793 132.02622 
L 897.085921 129.659934 
L 914.62605 132.154603 
L 932.166178 104.396158 
L 949.706307 51.456921 
" clip-path="url(#p8cfe1b8029)" style="fill: none; stroke: #d9534f; stroke-linecap: square"/>
   </g>
   <g id="line2d_26">
    <path d="M 81.469943 43.050956 
L 90.240007 46.090607 
L 99.010072 43.861055 
L 107.780136 43.993283 
L 116.5502 44.050879 
L 125.320265 44.075188 
L 134.090329 44.248891 
L 142.860393 44.077138 
L 151.630457 43.992022 
L 160.400522 43.911849 
L 177.94065 43.771016 
L 195.480779 43.468701 
L 213.020907 42.877554 
L 230.561036 43.408425 
L 248.101164 46.387836 
L 265.641293 78.917613 
L 283.181422 125.288424 
L 300.72155 143.273614 
L 318.261679 146.208408 
L 335.801807 145.870598 
L 353.341936 131.748534 
L 370.882064 128.645967 
L 388.422193 141.869293 
L 405.962322 141.29601 
L 423.50245 144.907818 
L 441.042579 138.449695 
L 458.582707 125.714222 
L 476.122836 103.050929 
L 493.662964 91.844688 
L 511.203093 130.462294 
L 528.743221 132.454647 
L 546.28335 136.137448 
L 563.823479 158.095479 
L 581.363607 144.606166 
L 598.903736 147.972138 
L 616.443864 130.613885 
L 633.983993 134.407928 
L 651.524121 138.556606 
L 669.06425 136.094387 
L 686.604378 139.810161 
L 704.144507 132.925664 
L 721.684636 100.094837 
L 739.224764 72.395342 
L 756.764893 105.83228 
L 774.305021 116.572207 
L 791.84515 131.362476 
L 809.385278 131.461324 
L 826.925407 129.453082 
L 844.465535 134.086155 
L 862.005664 127.829808 
L 879.545793 132.143504 
L 897.085921 133.239796 
L 914.62605 126.823179 
L 932.166178 102.361904 
L 949.706307 56.91543 
" clip-path="url(#p8cfe1b8029)" style="fill: none; stroke: #d9534f; stroke-linecap: square"/>
   </g>
   <g id="line2d_27">
    <path d="M 81.469943 43.076265 
L 90.240007 45.997159 
L 99.010072 43.764384 
L 107.780136 43.957871 
L 116.5502 43.951714 
L 125.320265 44.030823 
L 134.090329 44.23549 
L 142.860393 44.002292 
L 151.630457 43.945726 
L 160.400522 43.891934 
L 177.94065 43.808192 
L 195.480779 43.488857 
L 213.020907 42.845701 
L 230.561036 43.296247 
L 248.101164 46.151961 
L 265.641293 78.679109 
L 283.181422 124.483046 
L 300.72155 143.043059 
L 318.261679 144.811296 
L 335.801807 143.832923 
L 353.341936 130.934084 
L 370.882064 128.675532 
L 388.422193 139.80083 
L 405.962322 139.092633 
L 423.50245 142.681033 
L 441.042579 136.790197 
L 458.582707 124.949587 
L 476.122836 101.520286 
L 493.662964 89.917585 
L 511.203093 129.865308 
L 528.743221 134.061983 
L 546.28335 136.265782 
L 563.823479 157.235206 
L 581.363607 142.931767 
L 598.903736 146.848681 
L 616.443864 128.318157 
L 633.983993 132.846805 
L 651.524121 135.854412 
L 669.06425 131.849713 
L 686.604378 136.806781 
L 704.144507 133.148887 
L 721.684636 100.919348 
L 739.224764 67.968839 
L 756.764893 101.944588 
L 774.305021 113.719433 
L 791.84515 118.791109 
L 809.385278 127.592144 
L 826.925407 125.483453 
L 844.465535 119.585914 
L 862.005664 121.88121 
L 879.545793 127.679997 
L 897.085921 127.461273 
L 914.62605 124.743616 
L 932.166178 98.956594 
L 949.706307 55.462599 
" clip-path="url(#p8cfe1b8029)" style="fill: none; stroke: #d9534f; stroke-linecap: square"/>
   </g>
   <g id="line2d_28">
    <path d="M 81.469943 43.671564 
L 90.240007 46.632958 
L 99.010072 44.389812 
L 107.780136 44.527013 
L 116.5502 44.529686 
L 125.320265 44.643449 
L 134.090329 44.839348 
L 142.860393 44.662888 
L 151.630457 44.612659 
L 160.400522 44.561567 
L 177.94065 44.500438 
L 195.480779 44.051234 
L 213.020907 43.439718 
L 230.561036 44.013003 
L 248.101164 47.215281 
L 265.641293 80.772125 
L 283.181422 126.709207 
L 300.72155 145.551252 
L 318.261679 147.755746 
L 335.801807 147.643429 
L 353.341936 134.085961 
L 370.882064 131.50805 
L 388.422193 142.368338 
L 405.962322 142.108827 
L 423.50245 146.098325 
L 441.042579 140.500428 
L 458.582707 128.632879 
L 476.122836 103.64318 
L 493.662964 91.94774 
L 511.203093 131.659476 
L 528.743221 134.655837 
L 546.28335 137.641727 
L 563.823479 159.658991 
L 581.363607 147.350106 
L 598.903736 151.690101 
L 616.443864 132.306342 
L 633.983993 135.811536 
L 651.524121 137.939983 
L 669.06425 134.073027 
L 686.604378 138.399336 
L 704.144507 133.964565 
L 721.684636 100.60052 
L 739.224764 68.44226 
L 756.764893 99.980633 
L 774.305021 108.980414 
L 791.84515 131.093124 
L 809.385278 127.561452 
L 826.925407 125.628462 
L 844.465535 126.759116 
L 862.005664 125.659716 
L 879.545793 124.327513 
L 897.085921 123.750755 
L 914.62605 119.259409 
L 932.166178 100.296757 
L 949.706307 52.749265 
" clip-path="url(#p8cfe1b8029)" style="fill: none; stroke: #d9534f; stroke-linecap: square"/>
   </g>
   <g id="line2d_29">
    <path d="M 81.469943 43.191731 
L 90.240007 46.251456 
L 99.010072 44.104339 
L 107.780136 44.26277 
L 116.5502 44.244833 
L 125.320265 44.309486 
L 134.090329 44.494744 
L 142.860393 44.339838 
L 151.630457 44.328533 
L 160.400522 44.232717 
L 177.94065 44.122534 
L 195.480779 43.799345 
L 213.020907 43.241042 
L 230.561036 43.750598 
L 248.101164 46.840451 
L 265.641293 80.586339 
L 283.181422 126.845832 
L 300.72155 146.207736 
L 318.261679 148.19494 
L 335.801807 147.979325 
L 353.341936 132.790764 
L 370.882064 130.194843 
L 388.422193 142.581126 
L 405.962322 142.381085 
L 423.50245 146.726313 
L 441.042579 139.900991 
L 458.582707 126.859463 
L 476.122836 103.14083 
L 493.662964 91.004695 
L 511.203093 131.69849 
L 528.743221 134.330629 
L 546.28335 136.738903 
L 563.823479 159.992598 
L 581.363607 147.080546 
L 598.903736 148.991554 
L 616.443864 128.758263 
L 633.983993 132.068129 
L 651.524121 135.957989 
L 669.06425 134.374237 
L 686.604378 142.504626 
L 704.144507 136.876786 
L 721.684636 97.536813 
L 739.224764 68.640241 
L 756.764893 96.652161 
L 774.305021 115.120125 
L 791.84515 126.856406 
L 809.385278 122.721771 
L 826.925407 124.68568 
L 844.465535 125.42251 
L 862.005664 128.873849 
L 879.545793 126.290971 
L 897.085921 124.786726 
L 914.62605 120.108884 
L 932.166178 98.506647 
L 949.706307 52.729309 
" clip-path="url(#p8cfe1b8029)" style="fill: none; stroke: #d9534f; stroke-linecap: square"/>
   </g>
   <g id="line2d_30">
    <path d="M 81.469943 44.061018 
L 90.240007 47.059782 
L 99.010072 44.901821 
L 107.780136 45.095229 
L 116.5502 45.086428 
L 125.320265 45.125382 
L 134.090329 45.373749 
L 142.860393 45.20457 
L 151.630457 45.200593 
L 160.400522 45.084578 
L 177.94065 45.008913 
L 195.480779 44.612047 
L 213.020907 44.001235 
L 230.561036 44.64363 
L 248.101164 47.980115 
L 265.641293 81.522898 
L 283.181422 126.630918 
L 300.72155 145.257402 
L 318.261679 148.185257 
L 335.801807 147.915924 
L 353.341936 132.930741 
L 370.882064 129.71155 
L 388.422193 142.233117 
L 405.962322 142.704124 
L 423.50245 146.621762 
L 441.042579 140.164524 
L 458.582707 127.889801 
L 476.122836 103.962445 
L 493.662964 91.387123 
L 511.203093 130.526037 
L 528.743221 134.498706 
L 546.28335 137.352835 
L 563.823479 160.011221 
L 581.363607 146.581246 
L 598.903736 149.797037 
L 616.443864 130.487317 
L 633.983993 135.098319 
L 651.524121 137.15301 
L 669.06425 134.706077 
L 686.604378 138.331983 
L 704.144507 133.747035 
L 721.684636 101.818695 
L 739.224764 67.700192 
L 756.764893 100.81702 
L 774.305021 121.363964 
L 791.84515 128.050294 
L 809.385278 130.96207 
L 826.925407 124.122167 
L 844.465535 129.045996 
L 862.005664 130.661944 
L 879.545793 131.541274 
L 897.085921 127.038972 
L 914.62605 121.851909 
L 932.166178 99.350726 
L 949.706307 53.868872 
" clip-path="url(#p8cfe1b8029)" style="fill: none; stroke: #d9534f; stroke-linecap: square"/>
   </g>
   <g id="line2d_31">
    <path d="M 81.469943 43.913715 
L 90.240007 46.876285 
L 99.010072 44.807876 
L 107.780136 44.991984 
L 116.5502 44.968945 
L 125.320265 45.055425 
L 134.090329 45.232998 
L 142.860393 45.086689 
L 151.630457 44.994085 
L 160.400522 44.933387 
L 177.94065 44.832837 
L 195.480779 44.448083 
L 213.020907 43.869661 
L 230.561036 44.429718 
L 248.101164 47.631808 
L 265.641293 81.124932 
L 283.181422 126.960103 
L 300.72155 145.738557 
L 318.261679 148.446205 
L 335.801807 147.745811 
L 353.341936 132.92279 
L 370.882064 129.507551 
L 388.422193 142.345458 
L 405.962322 142.58903 
L 423.50245 146.817373 
L 441.042579 139.843309 
L 458.582707 127.12961 
L 476.122836 103.833957 
L 493.662964 91.131669 
L 511.203093 130.729488 
L 528.743221 134.105539 
L 546.28335 137.070908 
L 563.823479 159.285759 
L 581.363607 146.589676 
L 598.903736 150.022592 
L 616.443864 130.830273 
L 633.983993 135.220525 
L 651.524121 138.950289 
L 669.06425 135.252612 
L 686.604378 139.302105 
L 704.144507 135.549359 
L 721.684636 103.541692 
L 739.224764 68.783381 
L 756.764893 102.947697 
L 774.305021 120.578303 
L 791.84515 130.255984 
L 809.385278 137.149482 
L 826.925407 122.134954 
L 844.465535 130.475723 
L 862.005664 130.830704 
L 879.545793 129.421342 
L 897.085921 118.586614 
L 914.62605 126.966821 
L 932.166178 100.888654 
L 949.706307 49.406437 
" clip-path="url(#p8cfe1b8029)" style="fill: none; stroke: #d9534f; stroke-linecap: square"/>
   </g>
   <g id="line2d_32">
    <path d="M 81.469943 41.338725 
L 90.240007 45.030146 
L 99.010072 42.683201 
L 107.780136 42.855503 
L 116.5502 42.856862 
L 125.320265 42.947767 
L 134.090329 43.164077 
L 142.860393 42.938053 
L 151.630457 42.940397 
L 160.400522 42.849154 
L 177.94065 42.759792 
L 195.480779 42.387629 
L 213.020907 41.677255 
L 230.561036 42.091591 
L 248.101164 44.776299 
L 265.641293 76.948051 
L 283.181422 123.073501 
L 300.72155 140.816779 
L 318.261679 141.948559 
L 335.801807 142.616607 
L 353.341936 130.490361 
L 370.882064 128.175523 
L 388.422193 139.131555 
L 405.962322 137.983172 
L 423.50245 141.949911 
L 441.042579 136.881072 
L 458.582707 125.2573 
L 476.122836 102.712495 
L 493.662964 90.714444 
L 511.203093 129.980301 
L 528.743221 130.019745 
L 546.28335 132.022651 
L 563.823479 153.899384 
L 581.363607 141.048931 
L 598.903736 144.718186 
L 616.443864 127.546641 
L 633.983993 131.207499 
L 651.524121 134.833482 
L 669.06425 132.774109 
L 686.604378 139.19697 
L 704.144507 130.669375 
L 721.684636 93.170698 
L 739.224764 66.93819 
L 756.764893 94.925335 
L 774.305021 115.184588 
L 791.84515 129.171615 
L 809.385278 130.660892 
L 826.925407 128.219625 
L 844.465535 128.684063 
L 862.005664 127.485039 
L 879.545793 133.180958 
L 897.085921 123.202455 
L 914.62605 124.159805 
L 932.166178 98.549557 
L 949.706307 55.960905 
" clip-path="url(#p8cfe1b8029)" style="fill: none; stroke: #d9534f; stroke-linecap: square"/>
   </g>
   <g id="line2d_33">
    <path d="M 81.469943 43.187734 
L 90.240007 46.123772 
L 99.010072 43.95299 
L 107.780136 44.102227 
L 116.5502 44.111672 
L 125.320265 44.204669 
L 134.090329 44.384084 
L 142.860393 44.184638 
L 151.630457 44.148396 
L 160.400522 44.064465 
L 177.94065 43.982585 
L 195.480779 43.637999 
L 213.020907 43.06112 
L 230.561036 43.565063 
L 248.101164 46.597695 
L 265.641293 80.027733 
L 283.181422 127.017978 
L 300.72155 145.795943 
L 318.261679 147.320882 
L 335.801807 147.370709 
L 353.341936 132.218955 
L 370.882064 129.216756 
L 388.422193 142.912748 
L 405.962322 142.036739 
L 423.50245 145.984107 
L 441.042579 139.344336 
L 458.582707 126.759366 
L 476.122836 103.984415 
L 493.662964 91.946429 
L 511.203093 130.523311 
L 528.743221 133.502518 
L 546.28335 137.26877 
L 563.823479 160.056354 
L 581.363607 147.155165 
L 598.903736 148.902006 
L 616.443864 130.848442 
L 633.983993 135.186738 
L 651.524121 140.013371 
L 669.06425 137.437689 
L 686.604378 140.648459 
L 704.144507 135.205325 
L 721.684636 103.593316 
L 739.224764 73.581653 
L 756.764893 110.682799 
L 774.305021 127.167849 
L 791.84515 134.667526 
L 809.385278 140.162076 
L 826.925407 127.623137 
L 844.465535 128.666625 
L 862.005664 133.109144 
L 879.545793 135.521573 
L 897.085921 130.339435 
L 914.62605 128.998767 
L 932.166178 102.803903 
L 949.706307 49.690003 
" clip-path="url(#p8cfe1b8029)" style="fill: none; stroke: #d9534f; stroke-linecap: square"/>
   </g>
   <g id="line2d_34">
    <path d="M 81.469943 43.764596 
L 90.240007 46.759826 
L 99.010072 44.605317 
L 107.780136 44.755001 
L 116.5502 44.717747 
L 125.320265 44.760842 
L 134.090329 44.912223 
L 142.860393 44.729527 
L 151.630457 44.6958 
L 160.400522 44.584991 
L 177.94065 44.465417 
L 195.480779 44.11605 
L 213.020907 43.52596 
L 230.561036 44.116492 
L 248.101164 47.415549 
L 265.641293 80.837564 
L 283.181422 126.337874 
L 300.72155 144.710206 
L 318.261679 146.744702 
L 335.801807 146.748036 
L 353.341936 132.813657 
L 370.882064 129.46418 
L 388.422193 143.061225 
L 405.962322 143.029465 
L 423.50245 146.163463 
L 441.042579 140.523337 
L 458.582707 128.178799 
L 476.122836 104.267194 
L 493.662964 92.574112 
L 511.203093 131.755958 
L 528.743221 133.912704 
L 546.28335 136.008118 
L 563.823479 158.898603 
L 581.363607 145.368717 
L 598.903736 150.104456 
L 616.443864 130.686307 
L 633.983993 135.384902 
L 651.524121 138.619714 
L 669.06425 136.101543 
L 686.604378 140.115997 
L 704.144507 133.610064 
L 721.684636 99.820477 
L 739.224764 74.989439 
L 756.764893 110.306081 
L 774.305021 126.349123 
L 791.84515 138.916207 
L 809.385278 138.977456 
L 826.925407 131.223227 
L 844.465535 128.800119 
L 862.005664 129.550122 
L 879.545793 128.190954 
L 897.085921 128.321676 
L 914.62605 128.529722 
L 932.166178 99.045701 
L 949.706307 46.960679 
" clip-path="url(#p8cfe1b8029)" style="fill: none; stroke: #d9534f; stroke-linecap: square"/>
   </g>
   <g id="line2d_35">
    <path d="M 81.469943 42.425512 
L 90.240007 45.689693 
L 99.010072 43.480346 
L 107.780136 43.567679 
L 116.5502 43.657217 
L 125.320265 43.73188 
L 134.090329 43.849649 
L 142.860393 43.694878 
L 151.630457 43.566861 
L 160.400522 43.497418 
L 177.94065 43.42458 
L 195.480779 43.10036 
L 213.020907 42.540747 
L 230.561036 42.939641 
L 248.101164 45.764232 
L 265.641293 78.427743 
L 283.181422 124.493761 
L 300.72155 142.660197 
L 318.261679 144.241024 
L 335.801807 144.708447 
L 353.341936 130.411558 
L 370.882064 128.550485 
L 388.422193 140.832666 
L 405.962322 139.960775 
L 423.50245 143.862121 
L 441.042579 137.596284 
L 458.582707 125.60107 
L 476.122836 103.517782 
L 493.662964 90.9135 
L 511.203093 129.457038 
L 528.743221 131.346785 
L 546.28335 133.843165 
L 563.823479 156.174461 
L 581.363607 143.848215 
L 598.903736 146.64177 
L 616.443864 128.621016 
L 633.983993 132.510079 
L 651.524121 134.535188 
L 669.06425 131.202975 
L 686.604378 136.998159 
L 704.144507 134.702236 
L 721.684636 100.252816 
L 739.224764 73.345794 
L 756.764893 110.294983 
L 774.305021 128.636822 
L 791.84515 136.631208 
L 809.385278 131.014588 
L 826.925407 131.647024 
L 844.465535 130.987937 
L 862.005664 126.248248 
L 879.545793 130.599429 
L 897.085921 133.258971 
L 914.62605 128.371592 
L 932.166178 108.483486 
L 949.706307 55.752187 
" clip-path="url(#p8cfe1b8029)" style="fill: none; stroke: #d9534f; stroke-linecap: square"/>
   </g>
   <g id="line2d_36">
    <path d="M 38.058125 353.2239 
L 993.118125 353.2239 
" clip-path="url(#p8cfe1b8029)" style="fill: none; stroke: #dedede; stroke-width: 2; stroke-linecap: square"/>
   </g>
   <g id="text_16">
    <!-- FastQC: Mean Quality Scores -->
    <g transform="translate(400.349375 19.3575) scale(0.16 -0.16)">
     <defs>
      <path id="DejaVuSans-46" d="M 628 4666 
L 3309 4666 
L 3309 4134 
L 1259 4134 
L 1259 2759 
L 3109 2759 
L 3109 2228 
L 1259 2228 
L 1259 0 
L 628 0 
L 628 4666 
z
" transform="scale(0.015625)"/>
      <path id="DejaVuSans-61" d="M 2194 1759 
Q 1497 1759 1228 1600 
Q 959 1441 959 1056 
Q 959 750 1161 570 
Q 1363 391 1709 391 
Q 2188 391 2477 730 
Q 2766 1069 2766 1631 
L 2766 1759 
L 2194 1759 
z
M 3341 1997 
L 3341 0 
L 2766 0 
L 2766 531 
Q 2569 213 2275 61 
Q 1981 -91 1556 -91 
Q 1019 -91 701 211 
Q 384 513 384 1019 
Q 384 1609 779 1909 
Q 1175 2209 1959 2209 
L 2766 2209 
L 2766 2266 
Q 2766 2663 2505 2880 
Q 2244 3097 1772 3097 
Q 1472 3097 1187 3025 
Q 903 2953 641 2809 
L 641 3341 
Q 956 3463 1253 3523 
Q 1550 3584 1831 3584 
Q 2591 3584 2966 3190 
Q 3341 2797 3341 1997 
z
" transform="scale(0.015625)"/>
      <path id="DejaVuSans-51" d="M 2522 4238 
Q 1834 4238 1429 3725 
Q 1025 3213 1025 2328 
Q 1025 1447 1429 934 
Q 1834 422 2522 422 
Q 3209 422 3611 934 
Q 4013 1447 4013 2328 
Q 4013 3213 3611 3725 
Q 3209 4238 2522 4238 
z
M 3406 84 
L 4238 -825 
L 3475 -825 
L 2784 -78 
Q 2681 -84 2626 -87 
Q 2572 -91 2522 -91 
Q 1538 -91 948 567 
Q 359 1225 359 2328 
Q 359 3434 948 4092 
Q 1538 4750 2522 4750 
Q 3503 4750 4090 4092 
Q 4678 3434 4678 2328 
Q 4678 1516 4351 937 
Q 4025 359 3406 84 
z
" transform="scale(0.015625)"/>
      <path id="DejaVuSans-43" d="M 4122 4306 
L 4122 3641 
Q 3803 3938 3442 4084 
Q 3081 4231 2675 4231 
Q 1875 4231 1450 3742 
Q 1025 3253 1025 2328 
Q 1025 1406 1450 917 
Q 1875 428 2675 428 
Q 3081 428 3442 575 
Q 3803 722 4122 1019 
L 4122 359 
Q 3791 134 3420 21 
Q 3050 -91 2638 -91 
Q 1578 -91 968 557 
Q 359 1206 359 2328 
Q 359 3453 968 4101 
Q 1578 4750 2638 4750 
Q 3056 4750 3426 4639 
Q 3797 4528 4122 4306 
z
" transform="scale(0.015625)"/>
      <path id="DejaVuSans-3a" d="M 750 794 
L 1409 794 
L 1409 0 
L 750 0 
L 750 794 
z
M 750 3309 
L 1409 3309 
L 1409 2516 
L 750 2516 
L 750 3309 
z
" transform="scale(0.015625)"/>
      <path id="DejaVuSans-4d" d="M 628 4666 
L 1569 4666 
L 2759 1491 
L 3956 4666 
L 4897 4666 
L 4897 0 
L 4281 0 
L 4281 4097 
L 3078 897 
L 2444 897 
L 1241 4097 
L 1241 0 
L 628 0 
L 628 4666 
z
" transform="scale(0.015625)"/>
      <path id="DejaVuSans-75" d="M 544 1381 
L 544 3500 
L 1119 3500 
L 1119 1403 
Q 1119 906 1312 657 
Q 1506 409 1894 409 
Q 2359 409 2629 706 
Q 2900 1003 2900 1516 
L 2900 3500 
L 3475 3500 
L 3475 0 
L 2900 0 
L 2900 538 
Q 2691 219 2414 64 
Q 2138 -91 1772 -91 
Q 1169 -91 856 284 
Q 544 659 544 1381 
z
M 1991 3584 
L 1991 3584 
z
" transform="scale(0.015625)"/>
      <path id="DejaVuSans-6c" d="M 603 4863 
L 1178 4863 
L 1178 0 
L 603 0 
L 603 4863 
z
" transform="scale(0.015625)"/>
      <path id="DejaVuSans-79" d="M 2059 -325 
Q 1816 -950 1584 -1140 
Q 1353 -1331 966 -1331 
L 506 -1331 
L 506 -850 
L 844 -850 
Q 1081 -850 1212 -737 
Q 1344 -625 1503 -206 
L 1606 56 
L 191 3500 
L 800 3500 
L 1894 763 
L 2988 3500 
L 3597 3500 
L 2059 -325 
z
" transform="scale(0.015625)"/>
     </defs>
     <use xlink:href="#DejaVuSans-46"/>
     <use xlink:href="#DejaVuSans-61" x="48.394531"/>
     <use xlink:href="#DejaVuSans-73" x="109.673828"/>
     <use xlink:href="#DejaVuSans-74" x="161.773438"/>
     <use xlink:href="#DejaVuSans-51" x="200.982422"/>
     <use xlink:href="#DejaVuSans-43" x="279.693359"/>
     <use xlink:href="#DejaVuSans-3a" x="349.517578"/>
     <use xlink:href="#DejaVuSans-20" x="383.208984"/>
     <use xlink:href="#DejaVuSans-4d" x="414.996094"/>
     <use xlink:href="#DejaVuSans-65" x="501.275391"/>
     <use xlink:href="#DejaVuSans-61" x="562.798828"/>
     <use xlink:href="#DejaVuSans-6e" x="624.078125"/>
     <use xlink:href="#DejaVuSans-20" x="687.457031"/>
     <use xlink:href="#DejaVuSans-51" x="719.244141"/>
     <use xlink:href="#DejaVuSans-75" x="797.955078"/>
     <use xlink:href="#DejaVuSans-61" x="861.333984"/>
     <use xlink:href="#DejaVuSans-6c" x="922.613281"/>
     <use xlink:href="#DejaVuSans-69" x="950.396484"/>
     <use xlink:href="#DejaVuSans-74" x="978.179688"/>
     <use xlink:href="#DejaVuSans-79" x="1017.388672"/>
     <use xlink:href="#DejaVuSans-20" x="1076.568359"/>
     <use xlink:href="#DejaVuSans-53" x="1108.355469"/>
     <use xlink:href="#DejaVuSans-63" x="1171.832031"/>
     <use xlink:href="#DejaVuSans-6f" x="1226.8125"/>
     <use xlink:href="#DejaVuSans-72" x="1287.994141"/>
     <use xlink:href="#DejaVuSans-65" x="1326.857422"/>
     <use xlink:href="#DejaVuSans-73" x="1388.380859"/>
    </g>
   </g>
  </g>
 </g>
 <defs>
  <clipPath id="p8cfe1b8029">
   <rect x="38.058125" y="35.2559" width="955.06" height="317.968"/>
  </clipPath>
 </defs>
</svg>
