<?xml version="1.0" encoding="utf-8" standalone="no"?>
<!DOCTYPE svg PUBLIC "-//W3C//DTD SVG 1.1//EN"
  "http://www.w3.org/Graphics/SVG/1.1/DTD/svg11.dtd">
<svg xmlns:xlink="http://www.w3.org/1999/xlink" width="1000.340625pt" height="388.844525pt" viewBox="0 0 1000.340625 388.844525" xmlns="http://www.w3.org/2000/svg" version="1.1">
 <metadata>
  <rdf:RDF xmlns:dc="http://purl.org/dc/elements/1.1/" xmlns:cc="http://creativecommons.org/ns#" xmlns:rdf="http://www.w3.org/1999/02/22-rdf-syntax-ns#">
   <cc:Work>
    <dc:type rdf:resource="http://purl.org/dc/dcmitype/StillImage"/>
    <dc:date>2024-01-15T17:08:57.338616</dc:date>
    <dc:format>image/svg+xml</dc:format>
    <dc:creator>
     <cc:Agent>
      <dc:title>Matplotlib v3.6.2, https://matplotlib.org/</dc:title>
     </cc:Agent>
    </dc:creator>
   </cc:Work>
  </rdf:RDF>
 </metadata>
 <defs>
  <style type="text/css">*{stroke-linejoin: round; stroke-linecap: butt}</style>
 </defs>
 <g id="figure_1">
  <g id="axes_1">
   <g id="patch_1">
    <path d="M 40.600625 353.2239 
L 993.140625 353.2239 
L 993.140625 35.2559 
L 40.600625 35.2559 
z
" style="fill: #ffffff"/>
   </g>
   <g id="matplotlib.axis_1">
    <g id="xtick_1">
     <g id="text_1">
      <!-- 0 -->
      <g transform="translate(81.352898 366.30265) scale(0.08 -0.08)">
       <defs>
        <path id="DejaVuSans-30" d="M 2034 4250 
Q 1547 4250 1301 3770 
Q 1056 3291 1056 2328 
Q 1056 1369 1301 889 
Q 1547 409 2034 409 
Q 2525 409 2770 889 
Q 3016 1369 3016 2328 
Q 3016 3291 2770 3770 
Q 2525 4250 2034 4250 
z
M 2034 4750 
Q 2819 4750 3233 4129 
Q 3647 3509 3647 2328 
Q 3647 1150 3233 529 
Q 2819 -91 2034 -91 
Q 1250 -91 836 529 
Q 422 1150 422 2328 
Q 422 3509 836 4129 
Q 1250 4750 2034 4750 
z
" transform="scale(0.015625)"/>
       </defs>
       <use xlink:href="#DejaVuSans-30"/>
      </g>
     </g>
    </g>
    <g id="xtick_2">
     <g id="text_2">
      <!-- 20 -->
      <g transform="translate(251.996989 366.30265) scale(0.08 -0.08)">
       <defs>
        <path id="DejaVuSans-32" d="M 1228 531 
L 3431 531 
L 3431 0 
L 469 0 
L 469 531 
Q 828 903 1448 1529 
Q 2069 2156 2228 2338 
Q 2531 2678 2651 2914 
Q 2772 3150 2772 3378 
Q 2772 3750 2511 3984 
Q 2250 4219 1831 4219 
Q 1534 4219 1204 4116 
Q 875 4013 500 3803 
L 500 4441 
Q 881 4594 1212 4672 
Q 1544 4750 1819 4750 
Q 2544 4750 2975 4387 
Q 3406 4025 3406 3419 
Q 3406 3131 3298 2873 
Q 3191 2616 2906 2266 
Q 2828 2175 2409 1742 
Q 1991 1309 1228 531 
z
" transform="scale(0.015625)"/>
       </defs>
       <use xlink:href="#DejaVuSans-32"/>
       <use xlink:href="#DejaVuSans-30" x="63.623047"/>
      </g>
     </g>
    </g>
    <g id="xtick_3">
     <g id="text_3">
      <!-- 40 -->
      <g transform="translate(425.18608 366.30265) scale(0.08 -0.08)">
       <defs>
        <path id="DejaVuSans-34" d="M 2419 4116 
L 825 1625 
L 2419 1625 
L 2419 4116 
z
M 2253 4666 
L 3047 4666 
L 3047 1625 
L 3713 1625 
L 3713 1100 
L 3047 1100 
L 3047 0 
L 2419 0 
L 2419 1100 
L 313 1100 
L 313 1709 
L 2253 4666 
z
" transform="scale(0.015625)"/>
       </defs>
       <use xlink:href="#DejaVuSans-34"/>
       <use xlink:href="#DejaVuSans-30" x="63.623047"/>
      </g>
     </g>
    </g>
    <g id="xtick_4">
     <g id="text_4">
      <!-- 60 -->
      <g transform="translate(598.37517 366.30265) scale(0.08 -0.08)">
       <defs>
        <path id="DejaVuSans-36" d="M 2113 2584 
Q 1688 2584 1439 2293 
Q 1191 2003 1191 1497 
Q 1191 994 1439 701 
Q 1688 409 2113 409 
Q 2538 409 2786 701 
Q 3034 994 3034 1497 
Q 3034 2003 2786 2293 
Q 2538 2584 2113 2584 
z
M 3366 4563 
L 3366 3988 
Q 3128 4100 2886 4159 
Q 2644 4219 2406 4219 
Q 1781 4219 1451 3797 
Q 1122 3375 1075 2522 
Q 1259 2794 1537 2939 
Q 1816 3084 2150 3084 
Q 2853 3084 3261 2657 
Q 3669 2231 3669 1497 
Q 3669 778 3244 343 
Q 2819 -91 2113 -91 
Q 1303 -91 875 529 
Q 447 1150 447 2328 
Q 447 3434 972 4092 
Q 1497 4750 2381 4750 
Q 2619 4750 2861 4703 
Q 3103 4656 3366 4563 
z
" transform="scale(0.015625)"/>
       </defs>
       <use xlink:href="#DejaVuSans-36"/>
       <use xlink:href="#DejaVuSans-30" x="63.623047"/>
      </g>
     </g>
    </g>
    <g id="xtick_5">
     <g id="text_5">
      <!-- 80 -->
      <g transform="translate(771.564261 366.30265) scale(0.08 -0.08)">
       <defs>
        <path id="DejaVuSans-38" d="M 2034 2216 
Q 1584 2216 1326 1975 
Q 1069 1734 1069 1313 
Q 1069 891 1326 650 
Q 1584 409 2034 409 
Q 2484 409 2743 651 
Q 3003 894 3003 1313 
Q 3003 1734 2745 1975 
Q 2488 2216 2034 2216 
z
M 1403 2484 
Q 997 2584 770 2862 
Q 544 3141 544 3541 
Q 544 4100 942 4425 
Q 1341 4750 2034 4750 
Q 2731 4750 3128 4425 
Q 3525 4100 3525 3541 
Q 3525 3141 3298 2862 
Q 3072 2584 2669 2484 
Q 3125 2378 3379 2068 
Q 3634 1759 3634 1313 
Q 3634 634 3220 271 
Q 2806 -91 2034 -91 
Q 1263 -91 848 271 
Q 434 634 434 1313 
Q 434 1759 690 2068 
Q 947 2378 1403 2484 
z
M 1172 3481 
Q 1172 3119 1398 2916 
Q 1625 2713 2034 2713 
Q 2441 2713 2670 2916 
Q 2900 3119 2900 3481 
Q 2900 3844 2670 4047 
Q 2441 4250 2034 4250 
Q 1625 4250 1398 4047 
Q 1172 3844 1172 3481 
z
" transform="scale(0.015625)"/>
       </defs>
       <use xlink:href="#DejaVuSans-38"/>
       <use xlink:href="#DejaVuSans-30" x="63.623047"/>
      </g>
     </g>
    </g>
    <g id="xtick_6">
     <g id="text_6">
      <!-- 100 -->
      <g transform="translate(942.208352 366.30265) scale(0.08 -0.08)">
       <defs>
        <path id="DejaVuSans-31" d="M 794 531 
L 1825 531 
L 1825 4091 
L 703 3866 
L 703 4441 
L 1819 4666 
L 2450 4666 
L 2450 531 
L 3481 531 
L 3481 0 
L 794 0 
L 794 531 
z
" transform="scale(0.015625)"/>
       </defs>
       <use xlink:href="#DejaVuSans-31"/>
       <use xlink:href="#DejaVuSans-30" x="63.623047"/>
       <use xlink:href="#DejaVuSans-30" x="127.246094"/>
      </g>
     </g>
    </g>
    <g id="text_7">
     <!-- Sequence Length (bp) -->
     <g transform="translate(461.530781 379.564837) scale(0.1 -0.1)">
      <defs>
       <path id="DejaVuSans-53" d="M 3425 4513 
L 3425 3897 
Q 3066 4069 2747 4153 
Q 2428 4238 2131 4238 
Q 1616 4238 1336 4038 
Q 1056 3838 1056 3469 
Q 1056 3159 1242 3001 
Q 1428 2844 1947 2747 
L 2328 2669 
Q 3034 2534 3370 2195 
Q 3706 1856 3706 1288 
Q 3706 609 3251 259 
Q 2797 -91 1919 -91 
Q 1588 -91 1214 -16 
Q 841 59 441 206 
L 441 856 
Q 825 641 1194 531 
Q 1563 422 1919 422 
Q 2459 422 2753 634 
Q 3047 847 3047 1241 
Q 3047 1584 2836 1778 
Q 2625 1972 2144 2069 
L 1759 2144 
Q 1053 2284 737 2584 
Q 422 2884 422 3419 
Q 422 4038 858 4394 
Q 1294 4750 2059 4750 
Q 2388 4750 2728 4690 
Q 3069 4631 3425 4513 
z
" transform="scale(0.015625)"/>
       <path id="DejaVuSans-65" d="M 3597 1894 
L 3597 1613 
L 953 1613 
Q 991 1019 1311 708 
Q 1631 397 2203 397 
Q 2534 397 2845 478 
Q 3156 559 3463 722 
L 3463 178 
Q 3153 47 2828 -22 
Q 2503 -91 2169 -91 
Q 1331 -91 842 396 
Q 353 884 353 1716 
Q 353 2575 817 3079 
Q 1281 3584 2069 3584 
Q 2775 3584 3186 3129 
Q 3597 2675 3597 1894 
z
M 3022 2063 
Q 3016 2534 2758 2815 
Q 2500 3097 2075 3097 
Q 1594 3097 1305 2825 
Q 1016 2553 972 2059 
L 3022 2063 
z
" transform="scale(0.015625)"/>
       <path id="DejaVuSans-71" d="M 947 1747 
Q 947 1113 1208 752 
Q 1469 391 1925 391 
Q 2381 391 2643 752 
Q 2906 1113 2906 1747 
Q 2906 2381 2643 2742 
Q 2381 3103 1925 3103 
Q 1469 3103 1208 2742 
Q 947 2381 947 1747 
z
M 2906 525 
Q 2725 213 2448 61 
Q 2172 -91 1784 -91 
Q 1150 -91 751 415 
Q 353 922 353 1747 
Q 353 2572 751 3078 
Q 1150 3584 1784 3584 
Q 2172 3584 2448 3432 
Q 2725 3281 2906 2969 
L 2906 3500 
L 3481 3500 
L 3481 -1331 
L 2906 -1331 
L 2906 525 
z
" transform="scale(0.015625)"/>
       <path id="DejaVuSans-75" d="M 544 1381 
L 544 3500 
L 1119 3500 
L 1119 1403 
Q 1119 906 1312 657 
Q 1506 409 1894 409 
Q 2359 409 2629 706 
Q 2900 1003 2900 1516 
L 2900 3500 
L 3475 3500 
L 3475 0 
L 2900 0 
L 2900 538 
Q 2691 219 2414 64 
Q 2138 -91 1772 -91 
Q 1169 -91 856 284 
Q 544 659 544 1381 
z
M 1991 3584 
L 1991 3584 
z
" transform="scale(0.015625)"/>
       <path id="DejaVuSans-6e" d="M 3513 2113 
L 3513 0 
L 2938 0 
L 2938 2094 
Q 2938 2591 2744 2837 
Q 2550 3084 2163 3084 
Q 1697 3084 1428 2787 
Q 1159 2491 1159 1978 
L 1159 0 
L 581 0 
L 581 3500 
L 1159 3500 
L 1159 2956 
Q 1366 3272 1645 3428 
Q 1925 3584 2291 3584 
Q 2894 3584 3203 3211 
Q 3513 2838 3513 2113 
z
" transform="scale(0.015625)"/>
       <path id="DejaVuSans-63" d="M 3122 3366 
L 3122 2828 
Q 2878 2963 2633 3030 
Q 2388 3097 2138 3097 
Q 1578 3097 1268 2742 
Q 959 2388 959 1747 
Q 959 1106 1268 751 
Q 1578 397 2138 397 
Q 2388 397 2633 464 
Q 2878 531 3122 666 
L 3122 134 
Q 2881 22 2623 -34 
Q 2366 -91 2075 -91 
Q 1284 -91 818 406 
Q 353 903 353 1747 
Q 353 2603 823 3093 
Q 1294 3584 2113 3584 
Q 2378 3584 2631 3529 
Q 2884 3475 3122 3366 
z
" transform="scale(0.015625)"/>
       <path id="DejaVuSans-20" transform="scale(0.015625)"/>
       <path id="DejaVuSans-4c" d="M 628 4666 
L 1259 4666 
L 1259 531 
L 3531 531 
L 3531 0 
L 628 0 
L 628 4666 
z
" transform="scale(0.015625)"/>
       <path id="DejaVuSans-67" d="M 2906 1791 
Q 2906 2416 2648 2759 
Q 2391 3103 1925 3103 
Q 1463 3103 1205 2759 
Q 947 2416 947 1791 
Q 947 1169 1205 825 
Q 1463 481 1925 481 
Q 2391 481 2648 825 
Q 2906 1169 2906 1791 
z
M 3481 434 
Q 3481 -459 3084 -895 
Q 2688 -1331 1869 -1331 
Q 1566 -1331 1297 -1286 
Q 1028 -1241 775 -1147 
L 775 -588 
Q 1028 -725 1275 -790 
Q 1522 -856 1778 -856 
Q 2344 -856 2625 -561 
Q 2906 -266 2906 331 
L 2906 616 
Q 2728 306 2450 153 
Q 2172 0 1784 0 
Q 1141 0 747 490 
Q 353 981 353 1791 
Q 353 2603 747 3093 
Q 1141 3584 1784 3584 
Q 2172 3584 2450 3431 
Q 2728 3278 2906 2969 
L 2906 3500 
L 3481 3500 
L 3481 434 
z
" transform="scale(0.015625)"/>
       <path id="DejaVuSans-74" d="M 1172 4494 
L 1172 3500 
L 2356 3500 
L 2356 3053 
L 1172 3053 
L 1172 1153 
Q 1172 725 1289 603 
Q 1406 481 1766 481 
L 2356 481 
L 2356 0 
L 1766 0 
Q 1100 0 847 248 
Q 594 497 594 1153 
L 594 3053 
L 172 3053 
L 172 3500 
L 594 3500 
L 594 4494 
L 1172 4494 
z
" transform="scale(0.015625)"/>
       <path id="DejaVuSans-68" d="M 3513 2113 
L 3513 0 
L 2938 0 
L 2938 2094 
Q 2938 2591 2744 2837 
Q 2550 3084 2163 3084 
Q 1697 3084 1428 2787 
Q 1159 2491 1159 1978 
L 1159 0 
L 581 0 
L 581 4863 
L 1159 4863 
L 1159 2956 
Q 1366 3272 1645 3428 
Q 1925 3584 2291 3584 
Q 2894 3584 3203 3211 
Q 3513 2838 3513 2113 
z
" transform="scale(0.015625)"/>
       <path id="DejaVuSans-28" d="M 1984 4856 
Q 1566 4138 1362 3434 
Q 1159 2731 1159 2009 
Q 1159 1288 1364 580 
Q 1569 -128 1984 -844 
L 1484 -844 
Q 1016 -109 783 600 
Q 550 1309 550 2009 
Q 550 2706 781 3412 
Q 1013 4119 1484 4856 
L 1984 4856 
z
" transform="scale(0.015625)"/>
       <path id="DejaVuSans-62" d="M 3116 1747 
Q 3116 2381 2855 2742 
Q 2594 3103 2138 3103 
Q 1681 3103 1420 2742 
Q 1159 2381 1159 1747 
Q 1159 1113 1420 752 
Q 1681 391 2138 391 
Q 2594 391 2855 752 
Q 3116 1113 3116 1747 
z
M 1159 2969 
Q 1341 3281 1617 3432 
Q 1894 3584 2278 3584 
Q 2916 3584 3314 3078 
Q 3713 2572 3713 1747 
Q 3713 922 3314 415 
Q 2916 -91 2278 -91 
Q 1894 -91 1617 61 
Q 1341 213 1159 525 
L 1159 0 
L 581 0 
L 581 4863 
L 1159 4863 
L 1159 2969 
z
" transform="scale(0.015625)"/>
       <path id="DejaVuSans-70" d="M 1159 525 
L 1159 -1331 
L 581 -1331 
L 581 3500 
L 1159 3500 
L 1159 2969 
Q 1341 3281 1617 3432 
Q 1894 3584 2278 3584 
Q 2916 3584 3314 3078 
Q 3713 2572 3713 1747 
Q 3713 922 3314 415 
Q 2916 -91 2278 -91 
Q 1894 -91 1617 61 
Q 1341 213 1159 525 
z
M 3116 1747 
Q 3116 2381 2855 2742 
Q 2594 3103 2138 3103 
Q 1681 3103 1420 2742 
Q 1159 2381 1159 1747 
Q 1159 1113 1420 752 
Q 1681 391 2138 391 
Q 2594 391 2855 752 
Q 3116 1113 3116 1747 
z
" transform="scale(0.015625)"/>
       <path id="DejaVuSans-29" d="M 513 4856 
L 1013 4856 
Q 1481 4119 1714 3412 
Q 1947 2706 1947 2009 
Q 1947 1309 1714 600 
Q 1481 -109 1013 -844 
L 513 -844 
Q 928 -128 1133 580 
Q 1338 1288 1338 2009 
Q 1338 2731 1133 3434 
Q 928 4138 513 4856 
z
" transform="scale(0.015625)"/>
      </defs>
      <use xlink:href="#DejaVuSans-53"/>
      <use xlink:href="#DejaVuSans-65" x="63.476562"/>
      <use xlink:href="#DejaVuSans-71" x="125"/>
      <use xlink:href="#DejaVuSans-75" x="188.476562"/>
      <use xlink:href="#DejaVuSans-65" x="251.855469"/>
      <use xlink:href="#DejaVuSans-6e" x="313.378906"/>
      <use xlink:href="#DejaVuSans-63" x="376.757812"/>
      <use xlink:href="#DejaVuSans-65" x="431.738281"/>
      <use xlink:href="#DejaVuSans-20" x="493.261719"/>
      <use xlink:href="#DejaVuSans-4c" x="525.048828"/>
      <use xlink:href="#DejaVuSans-65" x="579.011719"/>
      <use xlink:href="#DejaVuSans-6e" x="640.535156"/>
      <use xlink:href="#DejaVuSans-67" x="703.914062"/>
      <use xlink:href="#DejaVuSans-74" x="767.390625"/>
      <use xlink:href="#DejaVuSans-68" x="806.599609"/>
      <use xlink:href="#DejaVuSans-20" x="869.978516"/>
      <use xlink:href="#DejaVuSans-28" x="901.765625"/>
      <use xlink:href="#DejaVuSans-62" x="940.779297"/>
      <use xlink:href="#DejaVuSans-70" x="1004.255859"/>
      <use xlink:href="#DejaVuSans-29" x="1067.732422"/>
     </g>
    </g>
   </g>
   <g id="matplotlib.axis_2">
    <g id="ytick_1">
     <g id="line2d_1">
      <path d="M 40.600625 353.2239 
L 993.140625 353.2239 
" clip-path="url(#p89e999493a)" style="fill: none; stroke: #dedede; stroke-linecap: square"/>
     </g>
     <g id="text_8">
      <!-- 0.0 -->
      <g transform="translate(20.878125 356.263275) scale(0.08 -0.08)">
       <defs>
        <path id="DejaVuSans-2e" d="M 684 794 
L 1344 794 
L 1344 0 
L 684 0 
L 684 794 
z
" transform="scale(0.015625)"/>
       </defs>
       <use xlink:href="#DejaVuSans-30"/>
       <use xlink:href="#DejaVuSans-2e" x="63.623047"/>
       <use xlink:href="#DejaVuSans-30" x="95.410156"/>
      </g>
     </g>
    </g>
    <g id="ytick_2">
     <g id="line2d_2">
      <path d="M 40.600625 312.309559 
L 993.140625 312.309559 
" clip-path="url(#p89e999493a)" style="fill: none; stroke: #dedede; stroke-linecap: square"/>
     </g>
     <g id="text_9">
      <!-- 0.2 -->
      <g transform="translate(20.878125 315.348934) scale(0.08 -0.08)">
       <use xlink:href="#DejaVuSans-30"/>
       <use xlink:href="#DejaVuSans-2e" x="63.623047"/>
       <use xlink:href="#DejaVuSans-32" x="95.410156"/>
      </g>
     </g>
    </g>
    <g id="ytick_3">
     <g id="line2d_3">
      <path d="M 40.600625 271.395218 
L 993.140625 271.395218 
" clip-path="url(#p89e999493a)" style="fill: none; stroke: #dedede; stroke-linecap: square"/>
     </g>
     <g id="text_10">
      <!-- 0.4 -->
      <g transform="translate(20.878125 274.434593) scale(0.08 -0.08)">
       <use xlink:href="#DejaVuSans-30"/>
       <use xlink:href="#DejaVuSans-2e" x="63.623047"/>
       <use xlink:href="#DejaVuSans-34" x="95.410156"/>
      </g>
     </g>
    </g>
    <g id="ytick_4">
     <g id="line2d_4">
      <path d="M 40.600625 230.480877 
L 993.140625 230.480877 
" clip-path="url(#p89e999493a)" style="fill: none; stroke: #dedede; stroke-linecap: square"/>
     </g>
     <g id="text_11">
      <!-- 0.6 -->
      <g transform="translate(20.878125 233.520252) scale(0.08 -0.08)">
       <use xlink:href="#DejaVuSans-30"/>
       <use xlink:href="#DejaVuSans-2e" x="63.623047"/>
       <use xlink:href="#DejaVuSans-36" x="95.410156"/>
      </g>
     </g>
    </g>
    <g id="ytick_5">
     <g id="line2d_5">
      <path d="M 40.600625 189.566536 
L 993.140625 189.566536 
" clip-path="url(#p89e999493a)" style="fill: none; stroke: #dedede; stroke-linecap: square"/>
     </g>
     <g id="text_12">
      <!-- 0.8 -->
      <g transform="translate(20.878125 192.605911) scale(0.08 -0.08)">
       <use xlink:href="#DejaVuSans-30"/>
       <use xlink:href="#DejaVuSans-2e" x="63.623047"/>
       <use xlink:href="#DejaVuSans-38" x="95.410156"/>
      </g>
     </g>
    </g>
    <g id="ytick_6">
     <g id="line2d_6">
      <path d="M 40.600625 148.652195 
L 993.140625 148.652195 
" clip-path="url(#p89e999493a)" style="fill: none; stroke: #dedede; stroke-linecap: square"/>
     </g>
     <g id="text_13">
      <!-- 1.0 -->
      <g transform="translate(20.878125 151.69157) scale(0.08 -0.08)">
       <use xlink:href="#DejaVuSans-31"/>
       <use xlink:href="#DejaVuSans-2e" x="63.623047"/>
       <use xlink:href="#DejaVuSans-30" x="95.410156"/>
      </g>
     </g>
    </g>
    <g id="ytick_7">
     <g id="line2d_7">
      <path d="M 40.600625 107.737854 
L 993.140625 107.737854 
" clip-path="url(#p89e999493a)" style="fill: none; stroke: #dedede; stroke-linecap: square"/>
     </g>
     <g id="text_14">
      <!-- 1.2 -->
      <g transform="translate(20.878125 110.777229) scale(0.08 -0.08)">
       <use xlink:href="#DejaVuSans-31"/>
       <use xlink:href="#DejaVuSans-2e" x="63.623047"/>
       <use xlink:href="#DejaVuSans-32" x="95.410156"/>
      </g>
     </g>
    </g>
    <g id="ytick_8">
     <g id="line2d_8">
      <path d="M 40.600625 66.823513 
L 993.140625 66.823513 
" clip-path="url(#p89e999493a)" style="fill: none; stroke: #dedede; stroke-linecap: square"/>
     </g>
     <g id="text_15">
      <!-- 1.4 -->
      <g transform="translate(20.878125 69.862888) scale(0.08 -0.08)">
       <use xlink:href="#DejaVuSans-31"/>
       <use xlink:href="#DejaVuSans-2e" x="63.623047"/>
       <use xlink:href="#DejaVuSans-34" x="95.410156"/>
      </g>
     </g>
    </g>
    <g id="text_16">
     <!-- Read Count -->
     <g transform="translate(14.798438 223.241463) rotate(-90) scale(0.1 -0.1)">
      <defs>
       <path id="DejaVuSans-52" d="M 2841 2188 
Q 3044 2119 3236 1894 
Q 3428 1669 3622 1275 
L 4263 0 
L 3584 0 
L 2988 1197 
Q 2756 1666 2539 1819 
Q 2322 1972 1947 1972 
L 1259 1972 
L 1259 0 
L 628 0 
L 628 4666 
L 2053 4666 
Q 2853 4666 3247 4331 
Q 3641 3997 3641 3322 
Q 3641 2881 3436 2590 
Q 3231 2300 2841 2188 
z
M 1259 4147 
L 1259 2491 
L 2053 2491 
Q 2509 2491 2742 2702 
Q 2975 2913 2975 3322 
Q 2975 3731 2742 3939 
Q 2509 4147 2053 4147 
L 1259 4147 
z
" transform="scale(0.015625)"/>
       <path id="DejaVuSans-61" d="M 2194 1759 
Q 1497 1759 1228 1600 
Q 959 1441 959 1056 
Q 959 750 1161 570 
Q 1363 391 1709 391 
Q 2188 391 2477 730 
Q 2766 1069 2766 1631 
L 2766 1759 
L 2194 1759 
z
M 3341 1997 
L 3341 0 
L 2766 0 
L 2766 531 
Q 2569 213 2275 61 
Q 1981 -91 1556 -91 
Q 1019 -91 701 211 
Q 384 513 384 1019 
Q 384 1609 779 1909 
Q 1175 2209 1959 2209 
L 2766 2209 
L 2766 2266 
Q 2766 2663 2505 2880 
Q 2244 3097 1772 3097 
Q 1472 3097 1187 3025 
Q 903 2953 641 2809 
L 641 3341 
Q 956 3463 1253 3523 
Q 1550 3584 1831 3584 
Q 2591 3584 2966 3190 
Q 3341 2797 3341 1997 
z
" transform="scale(0.015625)"/>
       <path id="DejaVuSans-64" d="M 2906 2969 
L 2906 4863 
L 3481 4863 
L 3481 0 
L 2906 0 
L 2906 525 
Q 2725 213 2448 61 
Q 2172 -91 1784 -91 
Q 1150 -91 751 415 
Q 353 922 353 1747 
Q 353 2572 751 3078 
Q 1150 3584 1784 3584 
Q 2172 3584 2448 3432 
Q 2725 3281 2906 2969 
z
M 947 1747 
Q 947 1113 1208 752 
Q 1469 391 1925 391 
Q 2381 391 2643 752 
Q 2906 1113 2906 1747 
Q 2906 2381 2643 2742 
Q 2381 3103 1925 3103 
Q 1469 3103 1208 2742 
Q 947 2381 947 1747 
z
" transform="scale(0.015625)"/>
       <path id="DejaVuSans-43" d="M 4122 4306 
L 4122 3641 
Q 3803 3938 3442 4084 
Q 3081 4231 2675 4231 
Q 1875 4231 1450 3742 
Q 1025 3253 1025 2328 
Q 1025 1406 1450 917 
Q 1875 428 2675 428 
Q 3081 428 3442 575 
Q 3803 722 4122 1019 
L 4122 359 
Q 3791 134 3420 21 
Q 3050 -91 2638 -91 
Q 1578 -91 968 557 
Q 359 1206 359 2328 
Q 359 3453 968 4101 
Q 1578 4750 2638 4750 
Q 3056 4750 3426 4639 
Q 3797 4528 4122 4306 
z
" transform="scale(0.015625)"/>
       <path id="DejaVuSans-6f" d="M 1959 3097 
Q 1497 3097 1228 2736 
Q 959 2375 959 1747 
Q 959 1119 1226 758 
Q 1494 397 1959 397 
Q 2419 397 2687 759 
Q 2956 1122 2956 1747 
Q 2956 2369 2687 2733 
Q 2419 3097 1959 3097 
z
M 1959 3584 
Q 2709 3584 3137 3096 
Q 3566 2609 3566 1747 
Q 3566 888 3137 398 
Q 2709 -91 1959 -91 
Q 1206 -91 779 398 
Q 353 888 353 1747 
Q 353 2609 779 3096 
Q 1206 3584 1959 3584 
z
" transform="scale(0.015625)"/>
      </defs>
      <use xlink:href="#DejaVuSans-52"/>
      <use xlink:href="#DejaVuSans-65" x="64.982422"/>
      <use xlink:href="#DejaVuSans-61" x="126.505859"/>
      <use xlink:href="#DejaVuSans-64" x="187.785156"/>
      <use xlink:href="#DejaVuSans-20" x="251.261719"/>
      <use xlink:href="#DejaVuSans-43" x="283.048828"/>
      <use xlink:href="#DejaVuSans-6f" x="352.873047"/>
      <use xlink:href="#DejaVuSans-75" x="414.054688"/>
      <use xlink:href="#DejaVuSans-6e" x="477.433594"/>
      <use xlink:href="#DejaVuSans-74" x="540.8125"/>
     </g>
    </g>
    <g id="text_17">
     <!-- 1e6 -->
     <g transform="translate(40.600625 32.2559) scale(0.1 -0.1)">
      <use xlink:href="#DejaVuSans-31"/>
      <use xlink:href="#DejaVuSans-65" x="63.623047"/>
      <use xlink:href="#DejaVuSans-36" x="125.146484"/>
     </g>
    </g>
   </g>
   <g id="line2d_9">
    <path d="M 83.897898 353.198124 
L 101.216807 353.211012 
L 118.535716 353.205284 
L 135.854625 353.191373 
L 153.173534 353.178894 
L 170.492443 353.074358 
L 187.811352 352.616322 
L 205.130261 345.785468 
L 222.44917 184.564144 
L 239.76808 98.903834 
L 257.086989 98.872126 
L 274.405898 248.400745 
L 291.724807 353.157005 
L 309.043716 353.184009 
L 326.362625 353.214285 
L 343.681534 353.192805 
L 361.000443 353.218377 
L 378.319352 353.211421 
L 395.638261 353.198942 
L 412.95717 353.208557 
L 430.27608 353.20242 
L 447.594989 353.201193 
L 464.913898 353.169075 
L 482.232807 352.980869 
L 499.551716 352.106325 
L 516.870625 351.234031 
L 534.189534 350.173327 
L 551.508443 350.339848 
L 568.827352 351.699432 
L 586.146261 353.164165 
L 603.46517 353.13307 
L 620.78408 353.021169 
L 638.102989 352.937704 
L 655.421898 352.924202 
L 672.740807 352.396407 
L 690.059716 352.271414 
L 707.378625 350.614383 
L 724.697534 342.196871 
L 742.016443 348.590351 
L 759.335352 353.118955 
L 776.654261 353.182781 
L 793.97317 353.219195 
L 811.29208 353.220422 
L 828.610989 353.221854 
L 845.929898 353.222877 
L 863.248807 353.220218 
L 880.567716 353.219604 
L 897.886625 353.216535 
L 915.205534 353.202215 
L 932.524443 353.139616 
L 949.843352 353.177667 
" clip-path="url(#p89e999493a)" style="fill: none; stroke: #d9534f; stroke-linecap: square"/>
   </g>
   <g id="line2d_10">
    <path d="M 83.897898 353.213058 
L 101.216807 353.212649 
L 118.535716 353.210807 
L 135.854625 353.191782 
L 153.173534 353.190964 
L 170.492443 353.092156 
L 187.811352 352.708175 
L 205.130261 346.954186 
L 222.44917 207.272626 
L 239.76808 132.864578 
L 257.086989 131.769915 
L 274.405898 260.811701 
L 291.724807 353.168256 
L 309.043716 353.192805 
L 326.362625 353.211626 
L 343.681534 353.203238 
L 361.000443 353.220218 
L 378.319352 353.215922 
L 395.638261 353.206511 
L 412.95717 353.212444 
L 430.27608 353.201602 
L 447.594989 353.201806 
L 464.913898 353.179917 
L 482.232807 353.025875 
L 499.551716 352.317238 
L 516.870625 351.66445 
L 534.189534 350.958678 
L 551.508443 350.959905 
L 568.827352 352.071343 
L 586.146261 353.185645 
L 603.46517 353.158437 
L 620.78408 353.093588 
L 638.102989 353.021783 
L 655.421898 353.012987 
L 672.740807 352.747862 
L 690.059716 352.672579 
L 707.378625 351.724389 
L 724.697534 347.947791 
L 742.016443 350.773949 
L 759.335352 353.134298 
L 776.654261 353.186259 
L 793.97317 353.216535 
L 811.29208 353.220422 
L 828.610989 353.222468 
L 845.929898 353.222673 
L 863.248807 353.223491 
L 880.567716 353.219809 
L 897.886625 353.218377 
L 915.205534 353.213467 
L 932.524443 353.163551 
L 949.843352 353.189327 
" clip-path="url(#p89e999493a)" style="fill: none; stroke: #d9534f; stroke-linecap: square"/>
   </g>
   <g id="line2d_11">
    <path d="M 83.897898 353.204261 
L 101.216807 353.214899 
L 118.535716 353.209989 
L 135.854625 353.20017 
L 153.173534 353.187895 
L 170.492443 353.10709 
L 187.811352 352.666238 
L 205.130261 346.620735 
L 222.44917 201.432104 
L 239.76808 121.756949 
L 257.086989 117.567115 
L 274.405898 254.609701 
L 291.724807 353.170098 
L 309.043716 353.193419 
L 326.362625 353.212035 
L 343.681534 353.206716 
L 361.000443 353.218377 
L 378.319352 353.216331 
L 395.638261 353.203852 
L 412.95717 353.210807 
L 430.27608 353.201397 
L 447.594989 353.197715 
L 464.913898 353.173371 
L 482.232807 352.98046 
L 499.551716 352.182425 
L 516.870625 351.428374 
L 534.189534 350.550352 
L 551.508443 350.61336 
L 568.827352 351.799876 
L 586.146261 353.174189 
L 603.46517 353.167029 
L 620.78408 353.076404 
L 638.102989 353.013805 
L 655.421898 352.987824 
L 672.740807 352.599547 
L 690.059716 352.511581 
L 707.378625 351.576279 
L 724.697534 347.097387 
L 742.016443 350.354577 
L 759.335352 353.145344 
L 776.654261 353.189327 
L 793.97317 353.220218 
L 811.29208 353.220627 
L 828.610989 353.221241 
L 845.929898 353.221854 
L 863.248807 353.222673 
L 880.567716 353.220422 
L 897.886625 353.21899 
L 915.205534 353.212444 
L 932.524443 353.181758 
L 949.843352 353.199147 
" clip-path="url(#p89e999493a)" style="fill: none; stroke: #d9534f; stroke-linecap: square"/>
   </g>
   <g id="line2d_12">
    <path d="M 83.897898 353.204875 
L 101.216807 353.213467 
L 118.535716 353.208557 
L 135.854625 353.196283 
L 153.173534 353.179303 
L 170.492443 353.110976 
L 187.811352 352.564975 
L 205.130261 345.428081 
L 222.44917 177.923542 
L 239.76808 87.542535 
L 257.086989 82.457087 
L 274.405898 235.949079 
L 291.724807 353.166824 
L 309.043716 353.194237 
L 326.362625 353.213058 
L 343.681534 353.186873 
L 361.000443 353.217354 
L 378.319352 353.211012 
L 395.638261 353.199556 
L 412.95717 353.20467 
L 430.27608 353.20242 
L 447.594989 353.190555 
L 464.913898 353.169484 
L 482.232807 352.952229 
L 499.551716 352.023882 
L 516.870625 351.181661 
L 534.189534 350.324505 
L 551.508443 350.35826 
L 568.827352 351.681225 
L 586.146261 353.172348 
L 603.46517 353.168461 
L 620.78408 353.093997 
L 638.102989 353.042445 
L 655.421898 353.005213 
L 672.740807 352.650895 
L 690.059716 352.511581 
L 707.378625 351.463151 
L 724.697534 346.432324 
L 742.016443 349.90186 
L 759.335352 353.144322 
L 776.654261 353.187486 
L 793.97317 353.217558 
L 811.29208 353.219399 
L 828.610989 353.221036 
L 845.929898 353.222059 
L 863.248807 353.221854 
L 880.567716 353.219809 
L 897.886625 353.218377 
L 915.205534 353.211421 
L 932.524443 353.178485 
L 949.843352 353.19301 
" clip-path="url(#p89e999493a)" style="fill: none; stroke: #d9534f; stroke-linecap: square"/>
   </g>
   <g id="line2d_13">
    <path d="M 83.897898 353.209989 
L 101.216807 353.215922 
L 118.535716 353.212035 
L 135.854625 353.197101 
L 153.173534 353.188509 
L 170.492443 353.133275 
L 187.811352 352.667874 
L 205.130261 346.349882 
L 222.44917 198.982972 
L 239.76808 120.759457 
L 257.086989 113.678412 
L 274.405898 250.562249 
L 291.724807 353.184622 
L 309.043716 353.200988 
L 326.362625 353.210398 
L 343.681534 353.161915 
L 361.000443 353.220831 
L 378.319352 353.217558 
L 395.638261 353.206921 
L 412.95717 353.209171 
L 430.27608 353.204057 
L 447.594989 353.20733 
L 464.913898 353.17869 
L 482.232807 353.008895 
L 499.551716 352.328285 
L 516.870625 351.715593 
L 534.189534 351.020049 
L 551.508443 351.082443 
L 568.827352 352.059887 
L 586.146261 353.184213 
L 603.46517 353.178485 
L 620.78408 353.098293 
L 638.102989 353.056356 
L 655.421898 353.039172 
L 672.740807 352.867536 
L 690.059716 352.817825 
L 707.378625 351.925074 
L 724.697534 348.223145 
L 742.016443 350.763925 
L 759.335352 353.13798 
L 776.654261 353.189532 
L 793.97317 353.219809 
L 811.29208 353.219195 
L 828.610989 353.223491 
L 845.929898 353.223286 
L 863.248807 353.222673 
L 880.567716 353.221241 
L 897.886625 353.220218 
L 915.205534 353.218786 
L 932.524443 353.192601 
L 949.843352 353.203238 
" clip-path="url(#p89e999493a)" style="fill: none; stroke: #d9534f; stroke-linecap: square"/>
   </g>
   <g id="line2d_14">
    <path d="M 83.897898 353.20467 
L 101.216807 353.214285 
L 118.535716 353.209171 
L 135.854625 353.194237 
L 153.173534 353.176439 
L 170.492443 353.125501 
L 187.811352 352.595251 
L 205.130261 345.70098 
L 222.44917 185.064322 
L 239.76808 99.51489 
L 257.086989 94.852087 
L 274.405898 241.675859 
L 291.724807 353.178485 
L 309.043716 353.19301 
L 326.362625 353.212035 
L 343.681534 353.201397 
L 361.000443 353.217967 
L 378.319352 353.208353 
L 395.638261 353.196487 
L 412.95717 353.207125 
L 430.27608 353.200783 
L 447.594989 353.196487 
L 464.913898 353.167643 
L 482.232807 352.970436 
L 499.551716 352.094869 
L 516.870625 351.256943 
L 534.189534 350.458295 
L 551.508443 350.570196 
L 568.827352 351.789648 
L 586.146261 353.183395 
L 603.46517 353.176849 
L 620.78408 353.116909 
L 638.102989 353.059629 
L 655.421898 353.019124 
L 672.740807 352.638416 
L 690.059716 352.510968 
L 707.378625 351.624558 
L 724.697534 346.989168 
L 742.016443 350.120547 
L 759.335352 353.139616 
L 776.654261 353.187077 
L 793.97317 353.219399 
L 811.29208 353.219604 
L 828.610989 353.222673 
L 845.929898 353.222059 
L 863.248807 353.222059 
L 880.567716 353.219399 
L 897.886625 353.219604 
L 915.205534 353.214285 
L 932.524443 353.183599 
L 949.843352 353.195874 
" clip-path="url(#p89e999493a)" style="fill: none; stroke: #d9534f; stroke-linecap: square"/>
   </g>
   <g id="line2d_15">
    <path d="M 83.897898 353.212444 
L 101.216807 353.216331 
L 118.535716 353.212649 
L 135.854625 353.204875 
L 153.173534 353.196078 
L 170.492443 353.119978 
L 187.811352 352.80596 
L 205.130261 348.065829 
L 222.44917 237.38599 
L 239.76808 178.108679 
L 257.086989 176.312745 
L 274.405898 278.395253 
L 291.724807 353.195055 
L 309.043716 353.207739 
L 326.362625 353.217354 
L 343.681534 353.208353 
L 361.000443 353.220422 
L 378.319352 353.216535 
L 395.638261 353.205898 
L 412.95717 353.215103 
L 430.27608 353.210603 
L 447.594989 353.203034 
L 464.913898 353.18585 
L 482.232807 353.058401 
L 499.551716 352.488669 
L 516.870625 351.876795 
L 534.189534 351.36823 
L 551.508443 351.43267 
L 568.827352 352.225999 
L 586.146261 353.198533 
L 603.46517 353.181554 
L 620.78408 353.137162 
L 638.102989 353.093792 
L 655.421898 353.07579 
L 672.740807 352.837669 
L 690.059716 352.753181 
L 707.378625 352.005062 
L 724.697534 348.462903 
L 742.016443 350.9239 
L 759.335352 353.174189 
L 776.654261 353.197715 
L 793.97317 353.220422 
L 811.29208 353.221241 
L 828.610989 353.222877 
L 845.929898 353.223082 
L 863.248807 353.223491 
L 880.567716 353.220627 
L 897.886625 353.220627 
L 915.205534 353.215717 
L 932.524443 353.189737 
L 949.843352 353.207739 
" clip-path="url(#p89e999493a)" style="fill: none; stroke: #d9534f; stroke-linecap: square"/>
   </g>
   <g id="line2d_16">
    <path d="M 83.897898 353.209375 
L 101.216807 353.212649 
L 118.535716 353.212035 
L 135.854625 353.192805 
L 153.173534 353.189532 
L 170.492443 353.104839 
L 187.811352 352.727814 
L 205.130261 347.292139 
L 222.44917 222.897813 
L 239.76808 157.069093 
L 257.086989 155.60661 
L 274.405898 270.432504 
L 291.724807 353.179917 
L 309.043716 353.192805 
L 326.362625 353.212239 
L 343.681534 353.203443 
L 361.000443 353.221445 
L 378.319352 353.217354 
L 395.638261 353.203647 
L 412.95717 353.205489 
L 430.27608 353.211421 
L 447.594989 353.201193 
L 464.913898 353.186463 
L 482.232807 353.041627 
L 499.551716 352.418706 
L 516.870625 351.743824 
L 534.189534 351.237509 
L 551.508443 351.358206 
L 568.827352 352.26405 
L 586.146261 353.187895 
L 603.46517 353.169484 
L 620.78408 353.116704 
L 638.102989 353.056356 
L 655.421898 353.03774 
L 672.740807 352.764841 
L 690.059716 352.723722 
L 707.378625 351.937349 
L 724.697534 348.613263 
L 742.016443 350.910194 
L 759.335352 353.15721 
L 776.654261 353.196487 
L 793.97317 353.219195 
L 811.29208 353.222877 
L 828.610989 353.222468 
L 845.929898 353.22165 
L 863.248807 353.222673 
L 880.567716 353.220218 
L 897.886625 353.219399 
L 915.205534 353.214285 
L 932.524443 353.174394 
L 949.843352 353.19526 
" clip-path="url(#p89e999493a)" style="fill: none; stroke: #d9534f; stroke-linecap: square"/>
   </g>
   <g id="line2d_17">
    <path d="M 83.897898 353.205284 
L 101.216807 353.211217 
L 118.535716 353.205079 
L 135.854625 353.194033 
L 153.173534 353.190964 
L 170.492443 353.084587 
L 187.811352 352.591569 
L 205.130261 345.566167 
L 222.44917 184.248695 
L 239.76808 100.498062 
L 257.086989 100.038798 
L 274.405898 246.911667 
L 291.724807 353.177667 
L 309.043716 353.189532 
L 326.362625 353.213262 
L 343.681534 353.205079 
L 361.000443 353.219604 
L 378.319352 353.21449 
L 395.638261 353.201193 
L 412.95717 353.210603 
L 430.27608 353.201806 
L 447.594989 353.200374 
L 464.913898 353.170302 
L 482.232807 352.988847 
L 499.551716 352.147035 
L 516.870625 351.401575 
L 534.189534 350.55608 
L 551.508443 350.655502 
L 568.827352 351.866362 
L 586.146261 353.176644 
L 603.46517 353.174598 
L 620.78408 353.100748 
L 638.102989 353.04715 
L 655.421898 353.015851 
L 672.740807 352.685058 
L 690.059716 352.546768 
L 707.378625 351.527387 
L 724.697534 346.743273 
L 742.016443 350.137322 
L 759.335352 353.150868 
L 776.654261 353.181758 
L 793.97317 353.219809 
L 811.29208 353.221854 
L 828.610989 353.221854 
L 845.929898 353.221854 
L 863.248807 353.222263 
L 880.567716 353.219195 
L 897.886625 353.21674 
L 915.205534 353.205489 
L 932.524443 353.148208 
L 949.843352 353.188714 
" clip-path="url(#p89e999493a)" style="fill: none; stroke: #d9534f; stroke-linecap: square"/>
   </g>
   <g id="line2d_18">
    <path d="M 83.897898 353.209375 
L 101.216807 353.215717 
L 118.535716 353.207534 
L 135.854625 353.199351 
L 153.173534 353.187282 
L 170.492443 353.120387 
L 187.811352 352.670534 
L 205.130261 346.636487 
L 222.44917 207.998447 
L 239.76808 134.339745 
L 257.086989 129.879059 
L 274.405898 257.970609 
L 291.724807 353.175417 
L 309.043716 353.195669 
L 326.362625 353.212444 
L 343.681534 353.195465 
L 361.000443 353.220627 
L 378.319352 353.215922 
L 395.638261 353.205693 
L 412.95717 353.21183 
L 430.27608 353.199965 
L 447.594989 353.205489 
L 464.913898 353.176849 
L 482.232807 352.998053 
L 499.551716 352.253207 
L 516.870625 351.475426 
L 534.189534 350.766585 
L 551.508443 350.748582 
L 568.827352 351.907481 
L 586.146261 353.177258 
L 603.46517 353.173166 
L 620.78408 353.09952 
L 638.102989 353.051651 
L 655.421898 353.014828 
L 672.740807 352.669511 
L 690.059716 352.583386 
L 707.378625 351.688794 
L 724.697534 347.713147 
L 742.016443 350.503301 
L 759.335352 353.144117 
L 776.654261 353.190146 
L 793.97317 353.216126 
L 811.29208 353.220422 
L 828.610989 353.222263 
L 845.929898 353.222263 
L 863.248807 353.221854 
L 880.567716 353.220627 
L 897.886625 353.216945 
L 915.205534 353.21449 
L 932.524443 353.164779 
L 949.843352 353.188918 
" clip-path="url(#p89e999493a)" style="fill: none; stroke: #d9534f; stroke-linecap: square"/>
   </g>
   <g id="line2d_19">
    <path d="M 83.897898 353.207943 
L 101.216807 353.215922 
L 118.535716 353.209785 
L 135.854625 353.209375 
L 153.173534 353.202011 
L 170.492443 353.148822 
L 187.811352 352.776093 
L 205.130261 347.695759 
L 222.44917 233.900702 
L 239.76808 173.618535 
L 257.086989 170.732028 
L 274.405898 276.602182 
L 291.724807 353.182167 
L 309.043716 353.202215 
L 326.362625 353.215922 
L 343.681534 353.199556 
L 361.000443 353.220218 
L 378.319352 353.217354 
L 395.638261 353.203647 
L 412.95717 353.212444 
L 430.27608 353.211217 
L 447.594989 353.206102 
L 464.913898 353.186873 
L 482.232807 353.041422 
L 499.551716 352.456961 
L 516.870625 351.858998 
L 534.189534 351.264717 
L 551.508443 351.334271 
L 568.827352 352.22334 
L 586.146261 353.193419 
L 603.46517 353.180735 
L 620.78408 353.132047 
L 638.102989 353.081109 
L 655.421898 353.075176 
L 672.740807 352.814757 
L 690.059716 352.738451 
L 707.378625 351.897866 
L 724.697534 348.432422 
L 742.016443 350.795634 
L 759.335352 353.158642 
L 776.654261 353.19526 
L 793.97317 353.219809 
L 811.29208 353.219399 
L 828.610989 353.223286 
L 845.929898 353.222059 
L 863.248807 353.222263 
L 880.567716 353.221241 
L 897.886625 353.219809 
L 915.205534 353.213671 
L 932.524443 353.170916 
L 949.843352 353.196897 
" clip-path="url(#p89e999493a)" style="fill: none; stroke: #d9534f; stroke-linecap: square"/>
   </g>
   <g id="line2d_20">
    <path d="M 83.897898 353.205693 
L 101.216807 353.213262 
L 118.535716 353.209785 
L 135.854625 353.200579 
L 153.173534 353.192191 
L 170.492443 353.148413 
L 187.811352 352.73886 
L 205.130261 347.340009 
L 222.44917 224.514748 
L 239.76808 159.502883 
L 257.086989 157.606094 
L 274.405898 269.79915 
L 291.724807 353.175621 
L 309.043716 353.20017 
L 326.362625 353.215513 
L 343.681534 353.203647 
L 361.000443 353.220218 
L 378.319352 353.218581 
L 395.638261 353.205079 
L 412.95717 353.212239 
L 430.27608 353.20467 
L 447.594989 353.206102 
L 464.913898 353.179917 
L 482.232807 353.028739 
L 499.551716 352.351811 
L 516.870625 351.721116 
L 534.189534 351.165704 
L 551.508443 351.174705 
L 568.827352 352.140897 
L 586.146261 353.184622 
L 603.46517 353.172962 
L 620.78408 353.088064 
L 638.102989 353.033648 
L 655.421898 352.997848 
L 672.740807 352.852193 
L 690.059716 352.830713 
L 707.378625 351.999947 
L 724.697534 348.867546 
L 742.016443 351.13195 
L 759.335352 353.162119 
L 776.654261 353.195055 
L 793.97317 353.220627 
L 811.29208 353.221036 
L 828.610989 353.222059 
L 845.929898 353.222468 
L 863.248807 353.222673 
L 880.567716 353.219399 
L 897.886625 353.219399 
L 915.205534 353.211626 
L 932.524443 353.179508 
L 949.843352 353.20017 
" clip-path="url(#p89e999493a)" style="fill: none; stroke: #d9534f; stroke-linecap: square"/>
   </g>
   <g id="line2d_21">
    <path d="M 83.897898 353.208557 
L 101.216807 353.217558 
L 118.535716 353.214081 
L 135.854625 353.203443 
L 153.173534 353.199556 
L 170.492443 353.143708 
L 187.811352 352.837259 
L 205.130261 348.620423 
L 222.44917 249.366937 
L 239.76808 197.720355 
L 257.086989 195.918897 
L 274.405898 286.931416 
L 291.724807 353.186873 
L 309.043716 353.206102 
L 326.362625 353.217149 
L 343.681534 353.211012 
L 361.000443 353.221036 
L 378.319352 353.217558 
L 395.638261 353.212649 
L 412.95717 353.215103 
L 430.27608 353.20958 
L 447.594989 353.206921 
L 464.913898 353.188918 
L 482.232807 353.081927 
L 499.551716 352.593001 
L 516.870625 352.111848 
L 534.189534 351.680611 
L 551.508443 351.765917 
L 568.827352 352.498489 
L 586.146261 353.195465 
L 603.46517 353.191987 
L 620.78408 353.146776 
L 638.102989 353.106885 
L 655.421898 353.09277 
L 672.740807 352.917247 
L 690.059716 352.865286 
L 707.378625 352.2708 
L 724.697534 349.890404 
L 742.016443 351.547026 
L 759.335352 353.180531 
L 776.654261 353.201193 
L 793.97317 353.221036 
L 811.29208 353.222673 
L 828.610989 353.223491 
L 845.929898 353.223695 
L 863.248807 353.222468 
L 880.567716 353.222468 
L 897.886625 353.222059 
L 915.205534 353.216945 
L 932.524443 353.198329 
L 949.843352 353.212035 
" clip-path="url(#p89e999493a)" style="fill: none; stroke: #d9534f; stroke-linecap: square"/>
   </g>
   <g id="line2d_22">
    <path d="M 83.897898 353.212239 
L 101.216807 353.214285 
L 118.535716 353.215513 
L 135.854625 353.202829 
L 153.173534 353.19751 
L 170.492443 353.134707 
L 187.811352 352.800437 
L 205.130261 348.036371 
L 222.44917 234.158872 
L 239.76808 173.216961 
L 257.086989 169.980227 
L 274.405898 275.942438 
L 291.724807 353.191373 
L 309.043716 353.204057 
L 326.362625 353.215717 
L 343.681534 353.208353 
L 361.000443 353.220422 
L 378.319352 353.21449 
L 395.638261 353.206511 
L 412.95717 353.215103 
L 430.27608 353.211626 
L 447.594989 353.203238 
L 464.913898 353.186463 
L 482.232807 353.053287 
L 499.551716 352.456756 
L 516.870625 351.878636 
L 534.189534 351.244464 
L 551.508443 351.266558 
L 568.827352 352.173833 
L 586.146261 353.1881 
L 603.46517 353.183599 
L 620.78408 353.124683 
L 638.102989 353.074767 
L 655.421898 353.052673 
L 672.740807 352.779979 
L 690.059716 352.648235 
L 707.378625 351.791898 
L 724.697534 347.601042 
L 742.016443 350.592494 
L 759.335352 353.166415 
L 776.654261 353.195669 
L 793.97317 353.21899 
L 811.29208 353.222673 
L 828.610989 353.222468 
L 845.929898 353.22165 
L 863.248807 353.222059 
L 880.567716 353.215308 
L 897.886625 353.218172 
L 915.205534 353.213467 
L 932.524443 353.169688 
L 949.843352 353.192805 
" clip-path="url(#p89e999493a)" style="fill: none; stroke: #d9534f; stroke-linecap: square"/>
   </g>
   <g id="line2d_23">
    <path d="M 83.897898 353.204057 
L 101.216807 353.215103 
L 118.535716 353.210194 
L 135.854625 353.201602 
L 153.173534 353.189327 
L 170.492443 353.095838 
L 187.811352 352.64844 
L 205.130261 346.606619 
L 222.44917 197.554243 
L 239.76808 117.614985 
L 257.086989 113.015395 
L 274.405898 251.836936 
L 291.724807 353.181963 
L 309.043716 353.190555 
L 326.362625 353.21449 
L 343.681534 353.199351 
L 361.000443 353.221241 
L 378.319352 353.216945 
L 395.638261 353.20733 
L 412.95717 353.21183 
L 430.27608 353.208353 
L 447.594989 353.199351 
L 464.913898 353.179917 
L 482.232807 353.029761 
L 499.551716 352.395589 
L 516.870625 351.780647 
L 534.189534 351.092672 
L 551.508443 351.179206 
L 568.827352 352.091186 
L 586.146261 353.178485 
L 603.46517 353.165392 
L 620.78408 353.079063 
L 638.102989 353.02342 
L 655.421898 353.011145 
L 672.740807 352.821507 
L 690.059716 352.752771 
L 707.378625 351.667723 
L 724.697534 347.061587 
L 742.016443 350.472411 
L 759.335352 353.142071 
L 776.654261 353.189327 
L 793.97317 353.217354 
L 811.29208 353.221241 
L 828.610989 353.222263 
L 845.929898 353.222877 
L 863.248807 353.22165 
L 880.567716 353.221445 
L 897.886625 353.21899 
L 915.205534 353.211217 
L 932.524443 353.171734 
L 949.843352 353.198533 
" clip-path="url(#p89e999493a)" style="fill: none; stroke: #d9534f; stroke-linecap: square"/>
   </g>
   <g id="line2d_24">
    <path d="M 83.897898 353.210194 
L 101.216807 353.215922 
L 118.535716 353.213262 
L 135.854625 353.206716 
L 153.173534 353.198738 
L 170.492443 353.125706 
L 187.811352 352.811483 
L 205.130261 348.213121 
L 222.44917 237.510575 
L 239.76808 181.099109 
L 257.086989 180.676668 
L 274.405898 281.572047 
L 291.724807 353.186463 
L 309.043716 353.200988 
L 326.362625 353.216535 
L 343.681534 353.209375 
L 361.000443 353.220627 
L 378.319352 353.210398 
L 395.638261 353.20958 
L 412.95717 353.213467 
L 430.27608 353.207125 
L 447.594989 353.208557 
L 464.913898 353.193623 
L 482.232807 353.059424 
L 499.551716 352.463302 
L 516.870625 351.934689 
L 534.189534 351.331407 
L 551.508443 351.406485 
L 568.827352 352.257708 
L 586.146261 353.199556 
L 603.46517 353.190759 
L 620.78408 353.14289 
L 638.102989 353.096043 
L 655.421898 353.067607 
L 672.740807 352.764227 
L 690.059716 352.643735 
L 707.378625 351.967216 
L 724.697534 348.145203 
L 742.016443 350.907944 
L 759.335352 353.16662 
L 776.654261 353.192601 
L 793.97317 353.219809 
L 811.29208 353.22165 
L 828.610989 353.221241 
L 845.929898 353.222059 
L 863.248807 353.222059 
L 880.567716 353.219399 
L 897.886625 353.21899 
L 915.205534 353.210194 
L 932.524443 353.163142 
L 949.843352 353.193419 
" clip-path="url(#p89e999493a)" style="fill: none; stroke: #d9534f; stroke-linecap: square"/>
   </g>
   <g id="line2d_25">
    <path d="M 83.897898 353.199351 
L 101.216807 353.211626 
L 118.535716 353.207943 
L 135.854625 353.196487 
L 153.173534 353.192805 
L 170.492443 353.135525 
L 187.811352 352.601797 
L 205.130261 345.412329 
L 222.44917 191.672806 
L 239.76808 116.16048 
L 257.086989 117.697428 
L 274.405898 255.372958 
L 291.724807 353.172962 
L 309.043716 353.191578 
L 326.362625 353.208966 
L 343.681534 353.19526 
L 361.000443 353.217763 
L 378.319352 353.207739 
L 395.638261 353.192191 
L 412.95717 353.207534 
L 430.27608 353.20242 
L 447.594989 353.195874 
L 464.913898 353.179099 
L 482.232807 352.952842 
L 499.551716 352.050477 
L 516.870625 351.187389 
L 534.189534 350.45134 
L 551.508443 350.625021 
L 568.827352 351.870044 
L 586.146261 353.173166 
L 603.46517 353.166824 
L 620.78408 353.10443 
L 638.102989 353.034467 
L 655.421898 353.023624 
L 672.740807 352.615504 
L 690.059716 352.488465 
L 707.378625 351.442285 
L 724.697534 346.757184 
L 742.016443 350.020307 
L 759.335352 353.142685 
L 776.654261 353.192396 
L 793.97317 353.218581 
L 811.29208 353.221036 
L 828.610989 353.222468 
L 845.929898 353.222468 
L 863.248807 353.221445 
L 880.567716 353.221445 
L 897.886625 353.218581 
L 915.205534 353.209171 
L 932.524443 353.155164 
L 949.843352 353.192601 
" clip-path="url(#p89e999493a)" style="fill: none; stroke: #d9534f; stroke-linecap: square"/>
   </g>
   <g id="line2d_26">
    <path d="M 83.897898 353.204057 
L 101.216807 353.212239 
L 118.535716 353.203852 
L 135.854625 353.197306 
L 153.173534 353.190964 
L 170.492443 353.145958 
L 187.811352 352.64128 
L 205.130261 345.82986 
L 222.44917 202.827079 
L 239.76808 132.199107 
L 257.086989 133.425923 
L 274.405898 261.910865 
L 291.724807 353.177667 
L 309.043716 353.196078 
L 326.362625 353.214285 
L 343.681534 353.198738 
L 361.000443 353.218172 
L 378.319352 353.211626 
L 395.638261 353.195465 
L 412.95717 353.207943 
L 430.27608 353.203647 
L 447.594989 353.191169 
L 464.913898 353.169484 
L 482.232807 352.977391 
L 499.551716 352.130464 
L 516.870625 351.328543 
L 534.189534 350.581243 
L 551.508443 350.745105 
L 568.827352 351.917914 
L 586.146261 353.183804 
L 603.46517 353.176439 
L 620.78408 353.109544 
L 638.102989 353.059015 
L 655.421898 353.033035 
L 672.740807 352.683831 
L 690.059716 352.556178 
L 707.378625 351.674065 
L 724.697534 347.63091 
L 742.016443 350.389764 
L 759.335352 353.151277 
L 776.654261 353.188305 
L 793.97317 353.217967 
L 811.29208 353.221241 
L 828.610989 353.222263 
L 845.929898 353.222468 
L 863.248807 353.222059 
L 880.567716 353.220627 
L 897.886625 353.218377 
L 915.205534 353.211012 
L 932.524443 353.167029 
L 949.843352 353.187895 
" clip-path="url(#p89e999493a)" style="fill: none; stroke: #d9534f; stroke-linecap: square"/>
   </g>
   <g id="line2d_27">
    <path d="M 83.897898 353.208353 
L 101.216807 353.214285 
L 118.535716 353.208557 
L 135.854625 353.201602 
L 153.173534 353.195055 
L 170.492443 353.141253 
L 187.811352 352.625732 
L 205.130261 345.682569 
L 222.44917 197.611523 
L 239.76808 123.959368 
L 257.086989 126.133146 
L 274.405898 258.230006 
L 291.724807 353.188509 
L 309.043716 353.199351 
L 326.362625 353.212239 
L 343.681534 353.198329 
L 361.000443 353.218172 
L 378.319352 353.21449 
L 395.638261 353.201602 
L 412.95717 353.208148 
L 430.27608 353.200374 
L 447.594989 353.196487 
L 464.913898 353.171734 
L 482.232807 352.996212 
L 499.551716 352.230091 
L 516.870625 351.523909 
L 534.189534 350.897101 
L 551.508443 350.996319 
L 568.827352 352.012631 
L 586.146261 353.181758 
L 603.46517 353.176439 
L 620.78408 353.120591 
L 638.102989 353.064948 
L 655.421898 353.045104 
L 672.740807 352.745611 
L 690.059716 352.668079 
L 707.378625 351.783511 
L 724.697534 347.557059 
L 742.016443 350.502892 
L 759.335352 353.145754 
L 776.654261 353.189737 
L 793.97317 353.220013 
L 811.29208 353.22165 
L 828.610989 353.222673 
L 845.929898 353.222059 
L 863.248807 353.222263 
L 880.567716 353.221445 
L 897.886625 353.220627 
L 915.205534 353.207943 
L 932.524443 353.165188 
L 949.843352 353.190555 
" clip-path="url(#p89e999493a)" style="fill: none; stroke: #d9534f; stroke-linecap: square"/>
   </g>
   <g id="line2d_28">
    <path d="M 83.897898 353.202215 
L 101.216807 353.213671 
L 118.535716 353.207943 
L 135.854625 353.195874 
L 153.173534 353.185441 
L 170.492443 353.146367 
L 187.811352 352.668897 
L 205.130261 346.047729 
L 222.44917 206.978248 
L 239.76808 139.103197 
L 257.086989 140.353539 
L 274.405898 264.328493 
L 291.724807 353.177871 
L 309.043716 353.198533 
L 326.362625 353.214899 
L 343.681534 353.187895 
L 361.000443 353.218581 
L 378.319352 353.216945 
L 395.638261 353.198124 
L 412.95717 353.202829 
L 430.27608 353.201193 
L 447.594989 353.200579 
L 464.913898 353.177053 
L 482.232807 352.993757 
L 499.551716 352.25648 
L 516.870625 351.503657 
L 534.189534 350.998774 
L 551.508443 351.13911 
L 568.827352 352.197155 
L 586.146261 353.187077 
L 603.46517 353.168461 
L 620.78408 353.111386 
L 638.102989 353.056765 
L 655.421898 353.031807 
L 672.740807 352.791435 
L 690.059716 352.720654 
L 707.378625 351.944713 
L 724.697534 348.633925 
L 742.016443 350.911421 
L 759.335352 353.1568 
L 776.654261 353.195055 
L 793.97317 353.218786 
L 811.29208 353.222263 
L 828.610989 353.221854 
L 845.929898 353.222673 
L 863.248807 353.222877 
L 880.567716 353.221445 
L 897.886625 353.220218 
L 915.205534 353.215717 
L 932.524443 353.193419 
L 949.843352 353.203852 
" clip-path="url(#p89e999493a)" style="fill: none; stroke: #d9534f; stroke-linecap: square"/>
   </g>
   <g id="line2d_29">
    <path d="M 83.897898 353.205898 
L 101.216807 353.210807 
L 118.535716 353.209785 
L 135.854625 353.197715 
L 153.173534 353.189941 
L 170.492443 353.122432 
L 187.811352 352.631256 
L 205.130261 346.325947 
L 222.44917 204.669451 
L 239.76808 132.884217 
L 257.086989 133.042965 
L 274.405898 261.150267 
L 291.724807 353.180326 
L 309.043716 353.198738 
L 326.362625 353.212444 
L 343.681534 353.195669 
L 361.000443 353.218786 
L 378.319352 353.213876 
L 395.638261 353.202625 
L 412.95717 353.209171 
L 430.27608 353.202215 
L 447.594989 353.19751 
L 464.913898 353.180326 
L 482.232807 353.003372 
L 499.551716 352.250139 
L 516.870625 351.537615 
L 534.189534 350.834502 
L 551.508443 350.970543 
L 568.827352 352.02511 
L 586.146261 353.184418 
L 603.46517 353.170098 
L 620.78408 353.105453 
L 638.102989 353.042854 
L 655.421898 353.021988 
L 672.740807 352.684854 
L 690.059716 352.600161 
L 707.378625 351.606556 
L 724.697534 347.23895 
L 742.016443 350.35785 
L 759.335352 353.160074 
L 776.654261 353.191782 
L 793.97317 353.218786 
L 811.29208 353.220218 
L 828.610989 353.222468 
L 845.929898 353.222673 
L 863.248807 353.223286 
L 880.567716 353.220422 
L 897.886625 353.219604 
L 915.205534 353.211421 
L 932.524443 353.184213 
L 949.843352 353.204875 
" clip-path="url(#p89e999493a)" style="fill: none; stroke: #d9534f; stroke-linecap: square"/>
   </g>
   <g id="line2d_30">
    <path d="M 83.897898 353.198738 
L 101.216807 353.208148 
L 118.535716 353.200783 
L 135.854625 353.18585 
L 153.173534 353.186668 
L 170.492443 353.085405 
L 187.811352 352.469849 
L 205.130261 343.868427 
L 222.44917 148.854721 
L 239.76808 50.397224 
L 257.086989 51.659431 
L 274.405898 227.691951 
L 291.724807 353.150459 
L 309.043716 353.187282 
L 326.362625 353.213262 
L 343.681534 353.199761 
L 361.000443 353.216945 
L 378.319352 353.215922 
L 395.638261 353.194646 
L 412.95717 353.206921 
L 430.27608 353.199965 
L 447.594989 353.189123 
L 464.913898 353.166415 
L 482.232807 352.91602 
L 499.551716 351.866362 
L 516.870625 350.843913 
L 534.189534 349.940524 
L 551.508443 350.028695 
L 568.827352 351.531683 
L 586.146261 353.156391 
L 603.46517 353.146572 
L 620.78408 352.98762 
L 638.102989 352.905382 
L 655.421898 352.867741 
L 672.740807 352.608753 
L 690.059716 352.562929 
L 707.378625 351.222575 
L 724.697534 346.00436 
L 742.016443 349.99985 
L 759.335352 353.127138 
L 776.654261 353.182167 
L 793.97317 353.217763 
L 811.29208 353.221036 
L 828.610989 353.22165 
L 845.929898 353.221445 
L 863.248807 353.221854 
L 880.567716 353.21899 
L 897.886625 353.219195 
L 915.205534 353.212035 
L 932.524443 353.168461 
L 949.843352 353.198738 
" clip-path="url(#p89e999493a)" style="fill: none; stroke: #d9534f; stroke-linecap: square"/>
   </g>
   <g id="line2d_31">
    <path d="M 83.897898 353.19751 
L 101.216807 353.208762 
L 118.535716 353.202011 
L 135.854625 353.194442 
L 153.173534 353.186463 
L 170.492443 353.09993 
L 187.811352 352.577863 
L 205.130261 345.146591 
L 222.44917 176.561504 
L 239.76808 90.419427 
L 257.086989 87.587337 
L 274.405898 241.48929 
L 291.724807 353.170711 
L 309.043716 353.183804 
L 326.362625 353.210603 
L 343.681534 353.190555 
L 361.000443 353.216331 
L 378.319352 353.205693 
L 395.638261 353.194851 
L 412.95717 353.203647 
L 430.27608 353.194646 
L 447.594989 353.195874 
L 464.913898 353.162733 
L 482.232807 352.951206 
L 499.551716 351.967625 
L 516.870625 350.976271 
L 534.189534 350.115228 
L 551.508443 350.194193 
L 568.827352 351.626604 
L 586.146261 353.169688 
L 603.46517 353.157823 
L 620.78408 353.075995 
L 638.102989 353.001735 
L 655.421898 352.977596 
L 672.740807 352.486214 
L 690.059716 352.34281 
L 707.378625 351.148315 
L 724.697534 345.502136 
L 742.016443 349.406592 
L 759.335352 353.128774 
L 776.654261 353.186054 
L 793.97317 353.220422 
L 811.29208 353.221036 
L 828.610989 353.223082 
L 845.929898 353.221241 
L 863.248807 353.222673 
L 880.567716 353.221854 
L 897.886625 353.217763 
L 915.205534 353.213262 
L 932.524443 353.171939 
L 949.843352 353.192805 
" clip-path="url(#p89e999493a)" style="fill: none; stroke: #d9534f; stroke-linecap: square"/>
   </g>
   <g id="line2d_32">
    <path d="M 83.897898 353.199761 
L 101.216807 353.209375 
L 118.535716 353.209171 
L 135.854625 353.198124 
L 153.173534 353.187486 
L 170.492443 353.114454 
L 187.811352 352.633301 
L 205.130261 346.057549 
L 222.44917 199.656626 
L 239.76808 124.648774 
L 257.086989 124.296093 
L 274.405898 257.68339 
L 291.724807 353.181145 
L 309.043716 353.194851 
L 326.362625 353.214899 
L 343.681534 353.193623 
L 361.000443 353.217149 
L 378.319352 353.208353 
L 395.638261 353.198329 
L 412.95717 353.207534 
L 430.27608 353.20467 
L 447.594989 353.19526 
L 464.913898 353.175007 
L 482.232807 352.983528 
L 499.551716 352.105302 
L 516.870625 351.292743 
L 534.189534 350.537464 
L 551.508443 350.680255 
L 568.827352 351.849587 
L 586.146261 353.179713 
L 603.46517 353.169484 
L 620.78408 353.112613 
L 638.102989 353.056969 
L 655.421898 353.015237 
L 672.740807 352.642098 
L 690.059716 352.542063 
L 707.378625 351.570961 
L 724.697534 347.168168 
L 742.016443 350.295251 
L 759.335352 353.153118 
L 776.654261 353.189941 
L 793.97317 353.220831 
L 811.29208 353.220831 
L 828.610989 353.223082 
L 845.929898 353.222468 
L 863.248807 353.222468 
L 880.567716 353.221445 
L 897.886625 353.219809 
L 915.205534 353.214899 
L 932.524443 353.181963 
L 949.843352 353.20242 
" clip-path="url(#p89e999493a)" style="fill: none; stroke: #d9534f; stroke-linecap: square"/>
   </g>
   <g id="line2d_33">
    <path d="M 83.897898 353.211421 
L 101.216807 353.212649 
L 118.535716 353.205898 
L 135.854625 353.196692 
L 153.173534 353.183599 
L 170.492443 353.121 
L 187.811352 352.606912 
L 205.130261 345.186687 
L 222.44917 185.913295 
L 239.76808 106.95189 
L 257.086989 108.06926 
L 274.405898 250.786665 
L 291.724807 353.181758 
L 309.043716 353.196283 
L 326.362625 353.211421 
L 343.681534 353.195874 
L 361.000443 353.219604 
L 378.319352 353.218172 
L 395.638261 353.205693 
L 412.95717 353.211217 
L 430.27608 353.200374 
L 447.594989 353.200579 
L 464.913898 353.170098 
L 482.232807 352.991097 
L 499.551716 352.293712 
L 516.870625 351.716207 
L 534.189534 351.060145 
L 551.508443 351.224212 
L 568.827352 352.157672 
L 586.146261 353.178076 
L 603.46517 353.172348 
L 620.78408 353.09502 
L 638.102989 353.048991 
L 655.421898 353.02567 
L 672.740807 352.857103 
L 690.059716 352.799823 
L 707.378625 351.837927 
L 724.697534 347.91956 
L 742.016443 350.766585 
L 759.335352 353.132661 
L 776.654261 353.186259 
L 793.97317 353.217763 
L 811.29208 353.220013 
L 828.610989 353.222059 
L 845.929898 353.222059 
L 863.248807 353.221241 
L 880.567716 353.220422 
L 897.886625 353.217763 
L 915.205534 353.211421 
L 932.524443 353.169484 
L 949.843352 353.196487 
" clip-path="url(#p89e999493a)" style="fill: none; stroke: #d9534f; stroke-linecap: square"/>
   </g>
   <g id="line2d_34">
    <path d="M 83.897898 353.205284 
L 101.216807 353.213058 
L 118.535716 353.20958 
L 135.854625 353.196487 
L 153.173534 353.187282 
L 170.492443 353.129183 
L 187.811352 352.600161 
L 205.130261 345.296746 
L 222.44917 188.704676 
L 239.76808 110.416721 
L 257.086989 111.958987 
L 274.405898 252.75444 
L 291.724807 353.177258 
L 309.043716 353.196283 
L 326.362625 353.211626 
L 343.681534 353.199556 
L 361.000443 353.218377 
L 378.319352 353.213671 
L 395.638261 353.198738 
L 412.95717 353.210194 
L 430.27608 353.200374 
L 447.594989 353.193623 
L 464.913898 353.169279 
L 482.232807 352.97555 
L 499.551716 352.139261 
L 516.870625 351.416509 
L 534.189534 350.681074 
L 551.508443 350.817932 
L 568.827352 351.968239 
L 586.146261 353.184827 
L 603.46517 353.176439 
L 620.78408 353.114659 
L 638.102989 353.070676 
L 655.421898 353.036308 
L 672.740807 352.647622 
L 690.059716 352.533675 
L 707.378625 351.661586 
L 724.697534 347.166941 
L 742.016443 350.335961 
L 759.335352 353.136139 
L 776.654261 353.185645 
L 793.97317 353.218786 
L 811.29208 353.221445 
L 828.610989 353.222059 
L 845.929898 353.222673 
L 863.248807 353.223286 
L 880.567716 353.219604 
L 897.886625 353.218377 
L 915.205534 353.209785 
L 932.524443 353.153527 
L 949.843352 353.186259 
" clip-path="url(#p89e999493a)" style="fill: none; stroke: #d9534f; stroke-linecap: square"/>
   </g>
   <g id="line2d_35">
    <path d="M 83.897898 353.199351 
L 101.216807 353.211012 
L 118.535716 353.200579 
L 135.854625 353.191373 
L 153.173534 353.186259 
L 170.492443 353.123251 
L 187.811352 352.559451 
L 205.130261 344.926267 
L 222.44917 178.556078 
L 239.76808 95.767955 
L 257.086989 97.159247 
L 274.405898 246.039783 
L 291.724807 353.164983 
L 309.043716 353.191578 
L 326.362625 353.210194 
L 343.681534 353.183804 
L 361.000443 353.216535 
L 378.319352 353.209989 
L 395.638261 353.196897 
L 412.95717 353.20958 
L 430.27608 353.194851 
L 447.594989 353.187691 
L 464.913898 353.170098 
L 482.232807 352.95407 
L 499.551716 352.040862 
L 516.870625 351.193321 
L 534.189534 350.344349 
L 551.508443 350.548307 
L 568.827352 351.805195 
L 586.146261 353.173575 
L 603.46517 353.158846 
L 620.78408 353.069039 
L 638.102989 352.997235 
L 655.421898 352.989256 
L 672.740807 352.539199 
L 690.059716 352.504012 
L 707.378625 351.264103 
L 724.697534 345.531186 
L 742.016443 349.520129 
L 759.335352 353.145344 
L 776.654261 353.185031 
L 793.97317 353.218581 
L 811.29208 353.221445 
L 828.610989 353.221241 
L 845.929898 353.222877 
L 863.248807 353.222468 
L 880.567716 353.219195 
L 897.886625 353.21674 
L 915.205534 353.209375 
L 932.524443 353.142276 
L 949.843352 353.182986 
" clip-path="url(#p89e999493a)" style="fill: none; stroke: #d9534f; stroke-linecap: square"/>
   </g>
   <g id="line2d_36">
    <path d="M 83.897898 353.206921 
L 101.216807 353.207739 
L 118.535716 353.208762 
L 135.854625 353.198124 
L 153.173534 353.190964 
L 170.492443 353.137366 
L 187.811352 352.661328 
L 205.130261 346.084143 
L 222.44917 205.357017 
L 239.76808 134.733341 
L 257.086989 134.758299 
L 274.405898 261.963235 
L 291.724807 353.178076 
L 309.043716 353.201806 
L 326.362625 353.213876 
L 343.681534 353.201602 
L 361.000443 353.219809 
L 378.319352 353.217149 
L 395.638261 353.205079 
L 412.95717 353.212649 
L 430.27608 353.207943 
L 447.594989 353.204466 
L 464.913898 353.175007 
L 482.232807 353.017896 
L 499.551716 352.302304 
L 516.870625 351.674883 
L 534.189534 351.064237 
L 551.508443 351.186161 
L 568.827352 352.171174 
L 586.146261 353.18585 
L 603.46517 353.165802 
L 620.78408 353.096656 
L 638.102989 353.041627 
L 655.421898 353.039581 
L 672.740807 352.79164 
L 690.059716 352.709607 
L 707.378625 351.865339 
L 724.697534 348.502999 
L 742.016443 350.92881 
L 759.335352 353.148618 
L 776.654261 353.19035 
L 793.97317 353.219399 
L 811.29208 353.220218 
L 828.610989 353.221854 
L 845.929898 353.222059 
L 863.248807 353.221036 
L 880.567716 353.218786 
L 897.886625 353.21899 
L 915.205534 353.208557 
L 932.524443 353.156391 
L 949.843352 353.186054 
" clip-path="url(#p89e999493a)" style="fill: none; stroke: #d9534f; stroke-linecap: square"/>
   </g>
   <g id="line2d_37">
    <path d="M 40.600625 353.2239 
L 993.140625 353.2239 
" clip-path="url(#p89e999493a)" style="fill: none; stroke: #dedede; stroke-width: 2; stroke-linecap: square"/>
   </g>
   <g id="text_18">
    <!-- FastQC: Sequence Length Distribution -->
    <g transform="translate(364.858125 19.3575) scale(0.16 -0.16)">
     <defs>
      <path id="DejaVuSans-46" d="M 628 4666 
L 3309 4666 
L 3309 4134 
L 1259 4134 
L 1259 2759 
L 3109 2759 
L 3109 2228 
L 1259 2228 
L 1259 0 
L 628 0 
L 628 4666 
z
" transform="scale(0.015625)"/>
      <path id="DejaVuSans-73" d="M 2834 3397 
L 2834 2853 
Q 2591 2978 2328 3040 
Q 2066 3103 1784 3103 
Q 1356 3103 1142 2972 
Q 928 2841 928 2578 
Q 928 2378 1081 2264 
Q 1234 2150 1697 2047 
L 1894 2003 
Q 2506 1872 2764 1633 
Q 3022 1394 3022 966 
Q 3022 478 2636 193 
Q 2250 -91 1575 -91 
Q 1294 -91 989 -36 
Q 684 19 347 128 
L 347 722 
Q 666 556 975 473 
Q 1284 391 1588 391 
Q 1994 391 2212 530 
Q 2431 669 2431 922 
Q 2431 1156 2273 1281 
Q 2116 1406 1581 1522 
L 1381 1569 
Q 847 1681 609 1914 
Q 372 2147 372 2553 
Q 372 3047 722 3315 
Q 1072 3584 1716 3584 
Q 2034 3584 2315 3537 
Q 2597 3491 2834 3397 
z
" transform="scale(0.015625)"/>
      <path id="DejaVuSans-51" d="M 2522 4238 
Q 1834 4238 1429 3725 
Q 1025 3213 1025 2328 
Q 1025 1447 1429 934 
Q 1834 422 2522 422 
Q 3209 422 3611 934 
Q 4013 1447 4013 2328 
Q 4013 3213 3611 3725 
Q 3209 4238 2522 4238 
z
M 3406 84 
L 4238 -825 
L 3475 -825 
L 2784 -78 
Q 2681 -84 2626 -87 
Q 2572 -91 2522 -91 
Q 1538 -91 948 567 
Q 359 1225 359 2328 
Q 359 3434 948 4092 
Q 1538 4750 2522 4750 
Q 3503 4750 4090 4092 
Q 4678 3434 4678 2328 
Q 4678 1516 4351 937 
Q 4025 359 3406 84 
z
" transform="scale(0.015625)"/>
      <path id="DejaVuSans-3a" d="M 750 794 
L 1409 794 
L 1409 0 
L 750 0 
L 750 794 
z
M 750 3309 
L 1409 3309 
L 1409 2516 
L 750 2516 
L 750 3309 
z
" transform="scale(0.015625)"/>
      <path id="DejaVuSans-44" d="M 1259 4147 
L 1259 519 
L 2022 519 
Q 2988 519 3436 956 
Q 3884 1394 3884 2338 
Q 3884 3275 3436 3711 
Q 2988 4147 2022 4147 
L 1259 4147 
z
M 628 4666 
L 1925 4666 
Q 3281 4666 3915 4102 
Q 4550 3538 4550 2338 
Q 4550 1131 3912 565 
Q 3275 0 1925 0 
L 628 0 
L 628 4666 
z
" transform="scale(0.015625)"/>
      <path id="DejaVuSans-69" d="M 603 3500 
L 1178 3500 
L 1178 0 
L 603 0 
L 603 3500 
z
M 603 4863 
L 1178 4863 
L 1178 4134 
L 603 4134 
L 603 4863 
z
" transform="scale(0.015625)"/>
      <path id="DejaVuSans-72" d="M 2631 2963 
Q 2534 3019 2420 3045 
Q 2306 3072 2169 3072 
Q 1681 3072 1420 2755 
Q 1159 2438 1159 1844 
L 1159 0 
L 581 0 
L 581 3500 
L 1159 3500 
L 1159 2956 
Q 1341 3275 1631 3429 
Q 1922 3584 2338 3584 
Q 2397 3584 2469 3576 
Q 2541 3569 2628 3553 
L 2631 2963 
z
" transform="scale(0.015625)"/>
     </defs>
     <use xlink:href="#DejaVuSans-46"/>
     <use xlink:href="#DejaVuSans-61" x="48.394531"/>
     <use xlink:href="#DejaVuSans-73" x="109.673828"/>
     <use xlink:href="#DejaVuSans-74" x="161.773438"/>
     <use xlink:href="#DejaVuSans-51" x="200.982422"/>
     <use xlink:href="#DejaVuSans-43" x="279.693359"/>
     <use xlink:href="#DejaVuSans-3a" x="349.517578"/>
     <use xlink:href="#DejaVuSans-20" x="383.208984"/>
     <use xlink:href="#DejaVuSans-53" x="414.996094"/>
     <use xlink:href="#DejaVuSans-65" x="478.472656"/>
     <use xlink:href="#DejaVuSans-71" x="539.996094"/>
     <use xlink:href="#DejaVuSans-75" x="603.472656"/>
     <use xlink:href="#DejaVuSans-65" x="666.851562"/>
     <use xlink:href="#DejaVuSans-6e" x="728.375"/>
     <use xlink:href="#DejaVuSans-63" x="791.753906"/>
     <use xlink:href="#DejaVuSans-65" x="846.734375"/>
     <use xlink:href="#DejaVuSans-20" x="908.257812"/>
     <use xlink:href="#DejaVuSans-4c" x="940.044922"/>
     <use xlink:href="#DejaVuSans-65" x="994.007812"/>
     <use xlink:href="#DejaVuSans-6e" x="1055.53125"/>
     <use xlink:href="#DejaVuSans-67" x="1118.910156"/>
     <use xlink:href="#DejaVuSans-74" x="1182.386719"/>
     <use xlink:href="#DejaVuSans-68" x="1221.595703"/>
     <use xlink:href="#DejaVuSans-20" x="1284.974609"/>
     <use xlink:href="#DejaVuSans-44" x="1316.761719"/>
     <use xlink:href="#DejaVuSans-69" x="1393.763672"/>
     <use xlink:href="#DejaVuSans-73" x="1421.546875"/>
     <use xlink:href="#DejaVuSans-74" x="1473.646484"/>
     <use xlink:href="#DejaVuSans-72" x="1512.855469"/>
     <use xlink:href="#DejaVuSans-69" x="1553.96875"/>
     <use xlink:href="#DejaVuSans-62" x="1581.751953"/>
     <use xlink:href="#DejaVuSans-75" x="1645.228516"/>
     <use xlink:href="#DejaVuSans-74" x="1708.607422"/>
     <use xlink:href="#DejaVuSans-69" x="1747.816406"/>
     <use xlink:href="#DejaVuSans-6f" x="1775.599609"/>
     <use xlink:href="#DejaVuSans-6e" x="1836.78125"/>
    </g>
   </g>
  </g>
 </g>
 <defs>
  <clipPath id="p89e999493a">
   <rect x="40.600625" y="35.2559" width="952.54" height="317.968"/>
  </clipPath>
 </defs>
</svg>
