<?xml version="1.0" encoding="utf-8" standalone="no"?>
<!DOCTYPE svg PUBLIC "-//W3C//DTD SVG 1.1//EN"
  "http://www.w3.org/Graphics/SVG/1.1/DTD/svg11.dtd">
<svg xmlns:xlink="http://www.w3.org/1999/xlink" width="1000.280625pt" height="388.844525pt" viewBox="0 0 1000.280625 388.844525" xmlns="http://www.w3.org/2000/svg" version="1.1">
 <metadata>
  <rdf:RDF xmlns:dc="http://purl.org/dc/elements/1.1/" xmlns:cc="http://creativecommons.org/ns#" xmlns:rdf="http://www.w3.org/1999/02/22-rdf-syntax-ns#">
   <cc:Work>
    <dc:type rdf:resource="http://purl.org/dc/dcmitype/StillImage"/>
    <dc:date>2024-01-15T17:08:54.738851</dc:date>
    <dc:format>image/svg+xml</dc:format>
    <dc:creator>
     <cc:Agent>
      <dc:title>Matplotlib v3.6.2, https://matplotlib.org/</dc:title>
     </cc:Agent>
    </dc:creator>
   </cc:Work>
  </rdf:RDF>
 </metadata>
 <defs>
  <style type="text/css">*{stroke-linejoin: round; stroke-linecap: butt}</style>
 </defs>
 <g id="figure_1">
  <g id="axes_1">
   <g id="patch_1">
    <path d="M 40.600625 353.2239 
L 985.445625 353.2239 
L 985.445625 35.2559 
L 40.600625 35.2559 
z
" style="fill: #ffffff"/>
   </g>
   <g id="matplotlib.axis_1">
    <g id="xtick_1">
     <g id="text_1">
      <!-- 0 -->
      <g transform="translate(38.055625 366.30265) scale(0.08 -0.08)">
       <defs>
        <path id="DejaVuSans-30" d="M 2034 4250 
Q 1547 4250 1301 3770 
Q 1056 3291 1056 2328 
Q 1056 1369 1301 889 
Q 1547 409 2034 409 
Q 2525 409 2770 889 
Q 3016 1369 3016 2328 
Q 3016 3291 2770 3770 
Q 2525 4250 2034 4250 
z
M 2034 4750 
Q 2819 4750 3233 4129 
Q 3647 3509 3647 2328 
Q 3647 1150 3233 529 
Q 2819 -91 2034 -91 
Q 1250 -91 836 529 
Q 422 1150 422 2328 
Q 422 3509 836 4129 
Q 1250 4750 2034 4750 
z
" transform="scale(0.015625)"/>
       </defs>
       <use xlink:href="#DejaVuSans-30"/>
      </g>
     </g>
    </g>
    <g id="xtick_2">
     <g id="text_2">
      <!-- 20 -->
      <g transform="translate(224.479625 366.30265) scale(0.08 -0.08)">
       <defs>
        <path id="DejaVuSans-32" d="M 1228 531 
L 3431 531 
L 3431 0 
L 469 0 
L 469 531 
Q 828 903 1448 1529 
Q 2069 2156 2228 2338 
Q 2531 2678 2651 2914 
Q 2772 3150 2772 3378 
Q 2772 3750 2511 3984 
Q 2250 4219 1831 4219 
Q 1534 4219 1204 4116 
Q 875 4013 500 3803 
L 500 4441 
Q 881 4594 1212 4672 
Q 1544 4750 1819 4750 
Q 2544 4750 2975 4387 
Q 3406 4025 3406 3419 
Q 3406 3131 3298 2873 
Q 3191 2616 2906 2266 
Q 2828 2175 2409 1742 
Q 1991 1309 1228 531 
z
" transform="scale(0.015625)"/>
       </defs>
       <use xlink:href="#DejaVuSans-32"/>
       <use xlink:href="#DejaVuSans-30" x="63.623047"/>
      </g>
     </g>
    </g>
    <g id="xtick_3">
     <g id="text_3">
      <!-- 40 -->
      <g transform="translate(413.448625 366.30265) scale(0.08 -0.08)">
       <defs>
        <path id="DejaVuSans-34" d="M 2419 4116 
L 825 1625 
L 2419 1625 
L 2419 4116 
z
M 2253 4666 
L 3047 4666 
L 3047 1625 
L 3713 1625 
L 3713 1100 
L 3047 1100 
L 3047 0 
L 2419 0 
L 2419 1100 
L 313 1100 
L 313 1709 
L 2253 4666 
z
" transform="scale(0.015625)"/>
       </defs>
       <use xlink:href="#DejaVuSans-34"/>
       <use xlink:href="#DejaVuSans-30" x="63.623047"/>
      </g>
     </g>
    </g>
    <g id="xtick_4">
     <g id="text_4">
      <!-- 60 -->
      <g transform="translate(602.417625 366.30265) scale(0.08 -0.08)">
       <defs>
        <path id="DejaVuSans-36" d="M 2113 2584 
Q 1688 2584 1439 2293 
Q 1191 2003 1191 1497 
Q 1191 994 1439 701 
Q 1688 409 2113 409 
Q 2538 409 2786 701 
Q 3034 994 3034 1497 
Q 3034 2003 2786 2293 
Q 2538 2584 2113 2584 
z
M 3366 4563 
L 3366 3988 
Q 3128 4100 2886 4159 
Q 2644 4219 2406 4219 
Q 1781 4219 1451 3797 
Q 1122 3375 1075 2522 
Q 1259 2794 1537 2939 
Q 1816 3084 2150 3084 
Q 2853 3084 3261 2657 
Q 3669 2231 3669 1497 
Q 3669 778 3244 343 
Q 2819 -91 2113 -91 
Q 1303 -91 875 529 
Q 447 1150 447 2328 
Q 447 3434 972 4092 
Q 1497 4750 2381 4750 
Q 2619 4750 2861 4703 
Q 3103 4656 3366 4563 
z
" transform="scale(0.015625)"/>
       </defs>
       <use xlink:href="#DejaVuSans-36"/>
       <use xlink:href="#DejaVuSans-30" x="63.623047"/>
      </g>
     </g>
    </g>
    <g id="xtick_5">
     <g id="text_5">
      <!-- 80 -->
      <g transform="translate(791.386625 366.30265) scale(0.08 -0.08)">
       <defs>
        <path id="DejaVuSans-38" d="M 2034 2216 
Q 1584 2216 1326 1975 
Q 1069 1734 1069 1313 
Q 1069 891 1326 650 
Q 1584 409 2034 409 
Q 2484 409 2743 651 
Q 3003 894 3003 1313 
Q 3003 1734 2745 1975 
Q 2488 2216 2034 2216 
z
M 1403 2484 
Q 997 2584 770 2862 
Q 544 3141 544 3541 
Q 544 4100 942 4425 
Q 1341 4750 2034 4750 
Q 2731 4750 3128 4425 
Q 3525 4100 3525 3541 
Q 3525 3141 3298 2862 
Q 3072 2584 2669 2484 
Q 3125 2378 3379 2068 
Q 3634 1759 3634 1313 
Q 3634 634 3220 271 
Q 2806 -91 2034 -91 
Q 1263 -91 848 271 
Q 434 634 434 1313 
Q 434 1759 690 2068 
Q 947 2378 1403 2484 
z
M 1172 3481 
Q 1172 3119 1398 2916 
Q 1625 2713 2034 2713 
Q 2441 2713 2670 2916 
Q 2900 3119 2900 3481 
Q 2900 3844 2670 4047 
Q 2441 4250 2034 4250 
Q 1625 4250 1398 4047 
Q 1172 3844 1172 3481 
z
" transform="scale(0.015625)"/>
       </defs>
       <use xlink:href="#DejaVuSans-38"/>
       <use xlink:href="#DejaVuSans-30" x="63.623047"/>
      </g>
     </g>
    </g>
    <g id="xtick_6">
     <g id="text_6">
      <!-- 100 -->
      <g transform="translate(977.810625 366.30265) scale(0.08 -0.08)">
       <defs>
        <path id="DejaVuSans-31" d="M 794 531 
L 1825 531 
L 1825 4091 
L 703 3866 
L 703 4441 
L 1819 4666 
L 2450 4666 
L 2450 531 
L 3481 531 
L 3481 0 
L 794 0 
L 794 531 
z
" transform="scale(0.015625)"/>
       </defs>
       <use xlink:href="#DejaVuSans-31"/>
       <use xlink:href="#DejaVuSans-30" x="63.623047"/>
       <use xlink:href="#DejaVuSans-30" x="127.246094"/>
      </g>
     </g>
    </g>
    <g id="text_7">
     <!-- % GC -->
     <g transform="translate(499.317656 379.564837) scale(0.1 -0.1)">
      <defs>
       <path id="DejaVuSans-25" d="M 4653 2053 
Q 4381 2053 4226 1822 
Q 4072 1591 4072 1178 
Q 4072 772 4226 539 
Q 4381 306 4653 306 
Q 4919 306 5073 539 
Q 5228 772 5228 1178 
Q 5228 1588 5073 1820 
Q 4919 2053 4653 2053 
z
M 4653 2450 
Q 5147 2450 5437 2106 
Q 5728 1763 5728 1178 
Q 5728 594 5436 251 
Q 5144 -91 4653 -91 
Q 4153 -91 3862 251 
Q 3572 594 3572 1178 
Q 3572 1766 3864 2108 
Q 4156 2450 4653 2450 
z
M 1428 4353 
Q 1159 4353 1004 4120 
Q 850 3888 850 3481 
Q 850 3069 1003 2837 
Q 1156 2606 1428 2606 
Q 1700 2606 1854 2837 
Q 2009 3069 2009 3481 
Q 2009 3884 1853 4118 
Q 1697 4353 1428 4353 
z
M 4250 4750 
L 4750 4750 
L 1831 -91 
L 1331 -91 
L 4250 4750 
z
M 1428 4750 
Q 1922 4750 2215 4408 
Q 2509 4066 2509 3481 
Q 2509 2891 2217 2550 
Q 1925 2209 1428 2209 
Q 931 2209 642 2551 
Q 353 2894 353 3481 
Q 353 4063 643 4406 
Q 934 4750 1428 4750 
z
" transform="scale(0.015625)"/>
       <path id="DejaVuSans-20" transform="scale(0.015625)"/>
       <path id="DejaVuSans-47" d="M 3809 666 
L 3809 1919 
L 2778 1919 
L 2778 2438 
L 4434 2438 
L 4434 434 
Q 4069 175 3628 42 
Q 3188 -91 2688 -91 
Q 1594 -91 976 548 
Q 359 1188 359 2328 
Q 359 3472 976 4111 
Q 1594 4750 2688 4750 
Q 3144 4750 3555 4637 
Q 3966 4525 4313 4306 
L 4313 3634 
Q 3963 3931 3569 4081 
Q 3175 4231 2741 4231 
Q 1884 4231 1454 3753 
Q 1025 3275 1025 2328 
Q 1025 1384 1454 906 
Q 1884 428 2741 428 
Q 3075 428 3337 486 
Q 3600 544 3809 666 
z
" transform="scale(0.015625)"/>
       <path id="DejaVuSans-43" d="M 4122 4306 
L 4122 3641 
Q 3803 3938 3442 4084 
Q 3081 4231 2675 4231 
Q 1875 4231 1450 3742 
Q 1025 3253 1025 2328 
Q 1025 1406 1450 917 
Q 1875 428 2675 428 
Q 3081 428 3442 575 
Q 3803 722 4122 1019 
L 4122 359 
Q 3791 134 3420 21 
Q 3050 -91 2638 -91 
Q 1578 -91 968 557 
Q 359 1206 359 2328 
Q 359 3453 968 4101 
Q 1578 4750 2638 4750 
Q 3056 4750 3426 4639 
Q 3797 4528 4122 4306 
z
" transform="scale(0.015625)"/>
      </defs>
      <use xlink:href="#DejaVuSans-25"/>
      <use xlink:href="#DejaVuSans-20" x="95.019531"/>
      <use xlink:href="#DejaVuSans-47" x="126.806641"/>
      <use xlink:href="#DejaVuSans-43" x="204.296875"/>
     </g>
    </g>
   </g>
   <g id="matplotlib.axis_2">
    <g id="ytick_1">
     <g id="line2d_1">
      <path d="M 40.600625 353.2239 
L 985.445625 353.2239 
" clip-path="url(#p862ff60de0)" style="fill: none; stroke: #dedede; stroke-linecap: square"/>
     </g>
     <g id="text_8">
      <!-- 0.0 -->
      <g transform="translate(20.878125 356.263275) scale(0.08 -0.08)">
       <defs>
        <path id="DejaVuSans-2e" d="M 684 794 
L 1344 794 
L 1344 0 
L 684 0 
L 684 794 
z
" transform="scale(0.015625)"/>
       </defs>
       <use xlink:href="#DejaVuSans-30"/>
       <use xlink:href="#DejaVuSans-2e" x="63.623047"/>
       <use xlink:href="#DejaVuSans-30" x="95.410156"/>
      </g>
     </g>
    </g>
    <g id="ytick_2">
     <g id="line2d_2">
      <path d="M 40.600625 312.060051 
L 985.445625 312.060051 
" clip-path="url(#p862ff60de0)" style="fill: none; stroke: #dedede; stroke-linecap: square"/>
     </g>
     <g id="text_9">
      <!-- 0.5 -->
      <g transform="translate(20.878125 315.099426) scale(0.08 -0.08)">
       <defs>
        <path id="DejaVuSans-35" d="M 691 4666 
L 3169 4666 
L 3169 4134 
L 1269 4134 
L 1269 2991 
Q 1406 3038 1543 3061 
Q 1681 3084 1819 3084 
Q 2600 3084 3056 2656 
Q 3513 2228 3513 1497 
Q 3513 744 3044 326 
Q 2575 -91 1722 -91 
Q 1428 -91 1123 -41 
Q 819 9 494 109 
L 494 744 
Q 775 591 1075 516 
Q 1375 441 1709 441 
Q 2250 441 2565 725 
Q 2881 1009 2881 1497 
Q 2881 1984 2565 2268 
Q 2250 2553 1709 2553 
Q 1456 2553 1204 2497 
Q 953 2441 691 2322 
L 691 4666 
z
" transform="scale(0.015625)"/>
       </defs>
       <use xlink:href="#DejaVuSans-30"/>
       <use xlink:href="#DejaVuSans-2e" x="63.623047"/>
       <use xlink:href="#DejaVuSans-35" x="95.410156"/>
      </g>
     </g>
    </g>
    <g id="ytick_3">
     <g id="line2d_3">
      <path d="M 40.600625 270.896202 
L 985.445625 270.896202 
" clip-path="url(#p862ff60de0)" style="fill: none; stroke: #dedede; stroke-linecap: square"/>
     </g>
     <g id="text_10">
      <!-- 1.0 -->
      <g transform="translate(20.878125 273.935577) scale(0.08 -0.08)">
       <use xlink:href="#DejaVuSans-31"/>
       <use xlink:href="#DejaVuSans-2e" x="63.623047"/>
       <use xlink:href="#DejaVuSans-30" x="95.410156"/>
      </g>
     </g>
    </g>
    <g id="ytick_4">
     <g id="line2d_4">
      <path d="M 40.600625 229.732353 
L 985.445625 229.732353 
" clip-path="url(#p862ff60de0)" style="fill: none; stroke: #dedede; stroke-linecap: square"/>
     </g>
     <g id="text_11">
      <!-- 1.5 -->
      <g transform="translate(20.878125 232.771728) scale(0.08 -0.08)">
       <use xlink:href="#DejaVuSans-31"/>
       <use xlink:href="#DejaVuSans-2e" x="63.623047"/>
       <use xlink:href="#DejaVuSans-35" x="95.410156"/>
      </g>
     </g>
    </g>
    <g id="ytick_5">
     <g id="line2d_5">
      <path d="M 40.600625 188.568504 
L 985.445625 188.568504 
" clip-path="url(#p862ff60de0)" style="fill: none; stroke: #dedede; stroke-linecap: square"/>
     </g>
     <g id="text_12">
      <!-- 2.0 -->
      <g transform="translate(20.878125 191.607879) scale(0.08 -0.08)">
       <use xlink:href="#DejaVuSans-32"/>
       <use xlink:href="#DejaVuSans-2e" x="63.623047"/>
       <use xlink:href="#DejaVuSans-30" x="95.410156"/>
      </g>
     </g>
    </g>
    <g id="ytick_6">
     <g id="line2d_6">
      <path d="M 40.600625 147.404654 
L 985.445625 147.404654 
" clip-path="url(#p862ff60de0)" style="fill: none; stroke: #dedede; stroke-linecap: square"/>
     </g>
     <g id="text_13">
      <!-- 2.5 -->
      <g transform="translate(20.878125 150.444029) scale(0.08 -0.08)">
       <use xlink:href="#DejaVuSans-32"/>
       <use xlink:href="#DejaVuSans-2e" x="63.623047"/>
       <use xlink:href="#DejaVuSans-35" x="95.410156"/>
      </g>
     </g>
    </g>
    <g id="ytick_7">
     <g id="line2d_7">
      <path d="M 40.600625 106.240805 
L 985.445625 106.240805 
" clip-path="url(#p862ff60de0)" style="fill: none; stroke: #dedede; stroke-linecap: square"/>
     </g>
     <g id="text_14">
      <!-- 3.0 -->
      <g transform="translate(20.878125 109.28018) scale(0.08 -0.08)">
       <defs>
        <path id="DejaVuSans-33" d="M 2597 2516 
Q 3050 2419 3304 2112 
Q 3559 1806 3559 1356 
Q 3559 666 3084 287 
Q 2609 -91 1734 -91 
Q 1441 -91 1130 -33 
Q 819 25 488 141 
L 488 750 
Q 750 597 1062 519 
Q 1375 441 1716 441 
Q 2309 441 2620 675 
Q 2931 909 2931 1356 
Q 2931 1769 2642 2001 
Q 2353 2234 1838 2234 
L 1294 2234 
L 1294 2753 
L 1863 2753 
Q 2328 2753 2575 2939 
Q 2822 3125 2822 3475 
Q 2822 3834 2567 4026 
Q 2313 4219 1838 4219 
Q 1578 4219 1281 4162 
Q 984 4106 628 3988 
L 628 4550 
Q 988 4650 1302 4700 
Q 1616 4750 1894 4750 
Q 2613 4750 3031 4423 
Q 3450 4097 3450 3541 
Q 3450 3153 3228 2886 
Q 3006 2619 2597 2516 
z
" transform="scale(0.015625)"/>
       </defs>
       <use xlink:href="#DejaVuSans-33"/>
       <use xlink:href="#DejaVuSans-2e" x="63.623047"/>
       <use xlink:href="#DejaVuSans-30" x="95.410156"/>
      </g>
     </g>
    </g>
    <g id="ytick_8">
     <g id="line2d_8">
      <path d="M 40.600625 65.076956 
L 985.445625 65.076956 
" clip-path="url(#p862ff60de0)" style="fill: none; stroke: #dedede; stroke-linecap: square"/>
     </g>
     <g id="text_15">
      <!-- 3.5 -->
      <g transform="translate(20.878125 68.116331) scale(0.08 -0.08)">
       <use xlink:href="#DejaVuSans-33"/>
       <use xlink:href="#DejaVuSans-2e" x="63.623047"/>
       <use xlink:href="#DejaVuSans-35" x="95.410156"/>
      </g>
     </g>
    </g>
    <g id="text_16">
     <!-- Percentage -->
     <g transform="translate(14.798438 222.362556) rotate(-90) scale(0.1 -0.1)">
      <defs>
       <path id="DejaVuSans-50" d="M 1259 4147 
L 1259 2394 
L 2053 2394 
Q 2494 2394 2734 2622 
Q 2975 2850 2975 3272 
Q 2975 3691 2734 3919 
Q 2494 4147 2053 4147 
L 1259 4147 
z
M 628 4666 
L 2053 4666 
Q 2838 4666 3239 4311 
Q 3641 3956 3641 3272 
Q 3641 2581 3239 2228 
Q 2838 1875 2053 1875 
L 1259 1875 
L 1259 0 
L 628 0 
L 628 4666 
z
" transform="scale(0.015625)"/>
       <path id="DejaVuSans-65" d="M 3597 1894 
L 3597 1613 
L 953 1613 
Q 991 1019 1311 708 
Q 1631 397 2203 397 
Q 2534 397 2845 478 
Q 3156 559 3463 722 
L 3463 178 
Q 3153 47 2828 -22 
Q 2503 -91 2169 -91 
Q 1331 -91 842 396 
Q 353 884 353 1716 
Q 353 2575 817 3079 
Q 1281 3584 2069 3584 
Q 2775 3584 3186 3129 
Q 3597 2675 3597 1894 
z
M 3022 2063 
Q 3016 2534 2758 2815 
Q 2500 3097 2075 3097 
Q 1594 3097 1305 2825 
Q 1016 2553 972 2059 
L 3022 2063 
z
" transform="scale(0.015625)"/>
       <path id="DejaVuSans-72" d="M 2631 2963 
Q 2534 3019 2420 3045 
Q 2306 3072 2169 3072 
Q 1681 3072 1420 2755 
Q 1159 2438 1159 1844 
L 1159 0 
L 581 0 
L 581 3500 
L 1159 3500 
L 1159 2956 
Q 1341 3275 1631 3429 
Q 1922 3584 2338 3584 
Q 2397 3584 2469 3576 
Q 2541 3569 2628 3553 
L 2631 2963 
z
" transform="scale(0.015625)"/>
       <path id="DejaVuSans-63" d="M 3122 3366 
L 3122 2828 
Q 2878 2963 2633 3030 
Q 2388 3097 2138 3097 
Q 1578 3097 1268 2742 
Q 959 2388 959 1747 
Q 959 1106 1268 751 
Q 1578 397 2138 397 
Q 2388 397 2633 464 
Q 2878 531 3122 666 
L 3122 134 
Q 2881 22 2623 -34 
Q 2366 -91 2075 -91 
Q 1284 -91 818 406 
Q 353 903 353 1747 
Q 353 2603 823 3093 
Q 1294 3584 2113 3584 
Q 2378 3584 2631 3529 
Q 2884 3475 3122 3366 
z
" transform="scale(0.015625)"/>
       <path id="DejaVuSans-6e" d="M 3513 2113 
L 3513 0 
L 2938 0 
L 2938 2094 
Q 2938 2591 2744 2837 
Q 2550 3084 2163 3084 
Q 1697 3084 1428 2787 
Q 1159 2491 1159 1978 
L 1159 0 
L 581 0 
L 581 3500 
L 1159 3500 
L 1159 2956 
Q 1366 3272 1645 3428 
Q 1925 3584 2291 3584 
Q 2894 3584 3203 3211 
Q 3513 2838 3513 2113 
z
" transform="scale(0.015625)"/>
       <path id="DejaVuSans-74" d="M 1172 4494 
L 1172 3500 
L 2356 3500 
L 2356 3053 
L 1172 3053 
L 1172 1153 
Q 1172 725 1289 603 
Q 1406 481 1766 481 
L 2356 481 
L 2356 0 
L 1766 0 
Q 1100 0 847 248 
Q 594 497 594 1153 
L 594 3053 
L 172 3053 
L 172 3500 
L 594 3500 
L 594 4494 
L 1172 4494 
z
" transform="scale(0.015625)"/>
       <path id="DejaVuSans-61" d="M 2194 1759 
Q 1497 1759 1228 1600 
Q 959 1441 959 1056 
Q 959 750 1161 570 
Q 1363 391 1709 391 
Q 2188 391 2477 730 
Q 2766 1069 2766 1631 
L 2766 1759 
L 2194 1759 
z
M 3341 1997 
L 3341 0 
L 2766 0 
L 2766 531 
Q 2569 213 2275 61 
Q 1981 -91 1556 -91 
Q 1019 -91 701 211 
Q 384 513 384 1019 
Q 384 1609 779 1909 
Q 1175 2209 1959 2209 
L 2766 2209 
L 2766 2266 
Q 2766 2663 2505 2880 
Q 2244 3097 1772 3097 
Q 1472 3097 1187 3025 
Q 903 2953 641 2809 
L 641 3341 
Q 956 3463 1253 3523 
Q 1550 3584 1831 3584 
Q 2591 3584 2966 3190 
Q 3341 2797 3341 1997 
z
" transform="scale(0.015625)"/>
       <path id="DejaVuSans-67" d="M 2906 1791 
Q 2906 2416 2648 2759 
Q 2391 3103 1925 3103 
Q 1463 3103 1205 2759 
Q 947 2416 947 1791 
Q 947 1169 1205 825 
Q 1463 481 1925 481 
Q 2391 481 2648 825 
Q 2906 1169 2906 1791 
z
M 3481 434 
Q 3481 -459 3084 -895 
Q 2688 -1331 1869 -1331 
Q 1566 -1331 1297 -1286 
Q 1028 -1241 775 -1147 
L 775 -588 
Q 1028 -725 1275 -790 
Q 1522 -856 1778 -856 
Q 2344 -856 2625 -561 
Q 2906 -266 2906 331 
L 2906 616 
Q 2728 306 2450 153 
Q 2172 0 1784 0 
Q 1141 0 747 490 
Q 353 981 353 1791 
Q 353 2603 747 3093 
Q 1141 3584 1784 3584 
Q 2172 3584 2450 3431 
Q 2728 3278 2906 2969 
L 2906 3500 
L 3481 3500 
L 3481 434 
z
" transform="scale(0.015625)"/>
      </defs>
      <use xlink:href="#DejaVuSans-50"/>
      <use xlink:href="#DejaVuSans-65" x="56.677734"/>
      <use xlink:href="#DejaVuSans-72" x="118.201172"/>
      <use xlink:href="#DejaVuSans-63" x="157.064453"/>
      <use xlink:href="#DejaVuSans-65" x="212.044922"/>
      <use xlink:href="#DejaVuSans-6e" x="273.568359"/>
      <use xlink:href="#DejaVuSans-74" x="336.947266"/>
      <use xlink:href="#DejaVuSans-61" x="376.15625"/>
      <use xlink:href="#DejaVuSans-67" x="437.435547"/>
      <use xlink:href="#DejaVuSans-65" x="500.912109"/>
     </g>
    </g>
   </g>
   <g id="line2d_9">
    <path d="M 40.600625 353.207544 
L 50.049075 353.206945 
L 59.497525 353.203754 
L 68.945975 353.198966 
L 78.394425 353.196772 
L 87.842875 353.196972 
L 97.291325 353.195974 
L 106.739775 353.189791 
L 116.188225 353.160868 
L 125.636675 353.121772 
L 135.085125 353.103022 
L 144.533575 353.076892 
L 153.982025 353.037397 
L 163.430475 352.943049 
L 172.878925 352.786267 
L 182.327375 352.568648 
L 191.775825 352.289193 
L 201.224275 351.923368 
L 210.672725 351.305416 
L 220.121175 350.581946 
L 229.569625 350.000497 
L 239.018075 349.256281 
L 248.466525 348.461202 
L 257.914975 347.821308 
L 267.363425 347.166654 
L 276.811875 346.355218 
L 286.260325 345.365059 
L 295.708775 344.784407 
L 305.157225 344.209541 
L 314.605675 343.346841 
L 324.054125 342.621576 
L 333.502575 341.601297 
L 342.951025 339.931749 
L 352.399475 338.306883 
L 361.847925 332.62344 
L 371.296375 327.684412 
L 380.744825 322.812006 
L 390.193275 317.470452 
L 399.641725 272.057963 
L 409.090175 187.821815 
L 418.538625 133.351683 
L 427.987075 115.4219 
L 437.435525 95.193448 
L 446.883975 86.715258 
L 456.332425 97.875894 
L 465.780875 97.460402 
L 475.229325 95.061599 
L 484.677775 91.370643 
L 494.126225 81.684874 
L 503.574675 75.788798 
L 513.023125 68.467923 
L 522.471575 61.118124 
L 531.920025 62.771515 
L 541.368475 64.97803 
L 550.816925 65.57424 
L 560.265375 68.814598 
L 569.713825 76.420314 
L 579.162275 82.737467 
L 588.610725 92.775097 
L 598.059175 102.501358 
L 607.507625 108.768045 
L 616.956075 122.298161 
L 626.404525 138.429341 
L 635.852975 150.730535 
L 645.301425 167.682924 
L 654.749875 179.670354 
L 664.198325 192.202332 
L 673.646775 204.686837 
L 683.095225 219.672073 
L 692.543675 245.460297 
L 701.992125 260.055972 
L 711.440575 268.966807 
L 720.889025 275.493002 
L 730.337475 281.380102 
L 739.785925 293.925445 
L 749.234375 308.681092 
L 758.682825 317.582353 
L 768.131275 320.067127 
L 777.579725 321.855358 
L 787.028175 329.464864 
L 796.476625 336.707947 
L 805.925075 340.438996 
L 815.373525 345.462599 
L 824.821975 349.969778 
L 834.270425 352.267451 
L 843.718875 352.580017 
L 853.167325 352.807411 
L 862.615775 352.980549 
L 872.064225 353.067717 
L 881.512675 353.107411 
L 890.961125 353.12636 
L 900.409575 353.15628 
L 909.858025 353.189392 
L 919.306475 353.202557 
L 928.754925 353.202357 
L 938.203375 353.203953 
L 947.651825 353.205349 
L 957.100275 353.20515 
L 966.548725 353.204751 
L 975.997175 353.204352 
L 985.445625 353.204352 
" clip-path="url(#p862ff60de0)" style="fill: none; stroke: #f0ad4e; stroke-linecap: square"/>
   </g>
   <g id="line2d_10">
    <path d="M 40.600625 353.213305 
L 50.049075 353.211923 
L 59.497525 353.209159 
L 68.945975 353.207777 
L 78.394425 353.207086 
L 87.842875 353.207316 
L 97.291325 353.208007 
L 106.739775 353.204783 
L 116.188225 353.187047 
L 125.636675 353.158716 
L 135.085125 353.141211 
L 144.533575 353.130846 
L 153.982025 353.116566 
L 163.430475 353.048158 
L 172.878925 352.939902 
L 182.327375 352.802395 
L 191.775825 352.633563 
L 201.224275 352.441006 
L 210.672725 352.08123 
L 220.121175 351.63508 
L 229.569625 351.271618 
L 239.018075 350.741167 
L 248.466525 350.209334 
L 257.914975 349.732089 
L 267.363425 349.13346 
L 276.811875 348.446384 
L 286.260325 347.537269 
L 295.708775 346.848581 
L 305.157225 346.242581 
L 314.605675 345.389437 
L 324.054125 344.508653 
L 333.502575 343.333967 
L 342.951025 341.583224 
L 352.399475 339.924844 
L 361.847925 334.107616 
L 371.296375 329.025372 
L 380.744825 324.023975 
L 390.193275 318.509401 
L 399.641725 272.678228 
L 409.090175 187.733933 
L 418.538625 132.749424 
L 427.987075 114.53903 
L 437.435525 94.199691 
L 446.883975 85.702106 
L 456.332425 97.047498 
L 465.780875 96.776168 
L 475.229325 94.298272 
L 484.677775 90.252286 
L 494.126225 80.105764 
L 503.574675 74.092525 
L 513.023125 66.684403 
L 522.471575 59.243114 
L 531.920025 60.962071 
L 541.368475 63.302229 
L 550.816925 63.969497 
L 560.265375 67.346143 
L 569.713825 75.000948 
L 579.162275 81.382717 
L 588.610725 91.603635 
L 598.059175 101.34178 
L 607.507625 107.364233 
L 616.956075 120.847784 
L 626.404525 137.008006 
L 635.852975 149.496758 
L 645.301425 167.218621 
L 654.749875 179.641039 
L 664.198325 192.327185 
L 673.646775 204.961046 
L 683.095225 219.867348 
L 692.543675 245.355957 
L 701.992125 259.764054 
L 711.440575 268.717003 
L 720.889025 275.248026 
L 730.337475 281.077001 
L 739.785925 293.515311 
L 749.234375 308.311516 
L 758.682825 317.304081 
L 768.131275 319.773915 
L 777.579725 321.538938 
L 787.028175 329.176009 
L 796.476625 336.473571 
L 805.925075 340.259284 
L 815.373525 345.302832 
L 824.821975 349.877197 
L 834.270425 352.259967 
L 843.718875 352.572065 
L 853.167325 352.787424 
L 862.615775 352.969154 
L 872.064225 353.073264 
L 881.512675 353.114723 
L 890.961125 353.129925 
L 900.409575 353.156874 
L 909.858025 353.186817 
L 919.306475 353.197873 
L 928.754925 353.199024 
L 938.203375 353.201328 
L 947.651825 353.20317 
L 957.100275 353.20294 
L 966.548725 353.200176 
L 975.997175 353.198103 
L 985.445625 353.199024 
" clip-path="url(#p862ff60de0)" style="fill: none; stroke: #f0ad4e; stroke-linecap: square"/>
   </g>
   <g id="line2d_11">
    <path d="M 40.600625 353.209925 
L 50.049075 353.209925 
L 59.497525 353.208833 
L 68.945975 353.201845 
L 78.394425 353.196168 
L 87.842875 353.195294 
L 97.291325 353.194639 
L 106.739775 353.189617 
L 116.188225 353.170182 
L 125.636675 353.141577 
L 135.085125 353.123889 
L 144.533575 353.10642 
L 153.982025 353.08109 
L 163.430475 353.001387 
L 172.878925 352.879758 
L 182.327375 352.734328 
L 191.775825 352.567279 
L 201.224275 352.362672 
L 210.672725 351.972018 
L 220.121175 351.496203 
L 229.569625 351.093321 
L 239.018075 350.515966 
L 248.466525 349.912626 
L 257.914975 349.37545 
L 267.363425 348.744596 
L 276.811875 347.962198 
L 286.260325 346.867975 
L 295.708775 346.091254 
L 305.157225 345.38157 
L 314.605675 344.38845 
L 324.054125 343.497961 
L 333.502575 342.217037 
L 342.951025 340.34522 
L 352.399475 338.645692 
L 361.847925 332.914506 
L 371.296375 327.973363 
L 380.744825 322.982214 
L 390.193275 317.458256 
L 399.641725 272.528742 
L 409.090175 188.384086 
L 418.538625 133.327499 
L 427.987075 115.309619 
L 437.435525 95.37996 
L 446.883975 87.241529 
L 456.332425 98.365435 
L 465.780875 97.700516 
L 475.229325 95.170331 
L 484.677775 91.191081 
L 494.126225 81.292635 
L 503.574675 75.456198 
L 513.023125 67.681561 
L 522.471575 59.893386 
L 531.920025 61.283273 
L 541.368475 63.007913 
L 550.816925 63.42084 
L 560.265375 66.859638 
L 569.713825 74.645193 
L 579.162275 81.234986 
L 588.610725 91.694192 
L 598.059175 101.506166 
L 607.507625 107.684561 
L 616.956075 121.249123 
L 626.404525 137.36658 
L 635.852975 150.12123 
L 645.301425 167.793221 
L 654.749875 179.951082 
L 664.198325 192.669046 
L 673.646775 205.36168 
L 683.095225 219.833108 
L 692.543675 244.994771 
L 701.992125 259.525376 
L 711.440575 268.530713 
L 720.889025 275.115484 
L 730.337475 281.064815 
L 739.785925 293.687791 
L 749.234375 308.416889 
L 758.682825 317.320686 
L 768.131275 319.835368 
L 777.579725 321.577477 
L 787.028175 329.231577 
L 796.476625 336.573416 
L 805.925075 340.386927 
L 815.373525 345.416945 
L 824.821975 349.935554 
L 834.270425 352.283187 
L 843.718875 352.591517 
L 853.167325 352.81272 
L 862.615775 352.992652 
L 872.064225 353.08371 
L 881.512675 353.118648 
L 890.961125 353.135244 
L 900.409575 353.163195 
L 909.858025 353.191582 
L 919.306475 353.202064 
L 928.754925 353.202282 
L 938.203375 353.204247 
L 947.651825 353.206431 
L 957.100275 353.206868 
L 966.548725 353.207304 
L 975.997175 353.206649 
L 985.445625 353.206868 
" clip-path="url(#p862ff60de0)" style="fill: none; stroke: #f0ad4e; stroke-linecap: square"/>
   </g>
   <g id="line2d_12">
    <path d="M 40.600625 353.212177 
L 50.049075 353.212177 
L 59.497525 353.211421 
L 68.945975 353.206883 
L 78.394425 353.203668 
L 87.842875 353.204235 
L 97.291325 353.204046 
L 106.739775 353.198374 
L 116.188225 353.178898 
L 125.636675 353.151859 
L 135.085125 353.137678 
L 144.533575 353.11877 
L 153.982025 353.087571 
L 163.430475 353.014585 
L 172.878925 352.903404 
L 182.327375 352.771235 
L 191.775825 352.617888 
L 201.224275 352.438259 
L 210.672725 352.082026 
L 220.121175 351.637302 
L 229.569625 351.295061 
L 239.018075 350.784915 
L 248.466525 350.227308 
L 257.914975 349.716405 
L 267.363425 349.064824 
L 276.811875 348.282965 
L 286.260325 347.227502 
L 295.708775 346.463795 
L 305.157225 345.781015 
L 314.605675 344.829737 
L 324.054125 343.939722 
L 333.502575 342.594205 
L 342.951025 340.660262 
L 352.399475 338.901409 
L 361.847925 332.663552 
L 371.296375 327.206608 
L 380.744825 322.037828 
L 390.193275 316.417328 
L 399.641725 270.501857 
L 409.090175 183.398755 
L 418.538625 125.572551 
L 427.987075 106.696178 
L 437.435525 85.707178 
L 446.883975 77.940583 
L 456.332425 89.188012 
L 465.780875 88.956196 
L 475.229325 88.081686 
L 484.677775 84.656821 
L 494.126225 74.001978 
L 503.574675 66.803389 
L 513.023125 60.021539 
L 522.471575 53.223049 
L 531.920025 55.988014 
L 541.368475 61.325079 
L 550.816925 63.996636 
L 560.265375 66.595775 
L 569.713825 75.296253 
L 579.162275 82.841999 
L 588.610725 91.099833 
L 598.059175 99.617089 
L 607.507625 107.740863 
L 616.956075 122.178884 
L 626.404525 137.556082 
L 635.852975 151.590788 
L 645.301425 170.076515 
L 654.749875 182.018447 
L 664.198325 196.846925 
L 673.646775 211.676726 
L 683.095225 226.904737 
L 692.543675 253.501002 
L 701.992125 269.766701 
L 711.440575 279.329021 
L 720.889025 285.455886 
L 730.337475 290.937411 
L 739.785925 301.743709 
L 749.234375 313.618706 
L 758.682825 321.528438 
L 768.131275 324.570598 
L 777.579725 326.072865 
L 787.028175 332.466149 
L 796.476625 338.610221 
L 805.925075 341.937897 
L 815.373525 346.088086 
L 824.821975 350.018938 
L 834.270425 352.345419 
L 843.718875 352.636986 
L 853.167325 352.834956 
L 862.615775 353.008912 
L 872.064225 353.10421 
L 881.512675 353.136165 
L 890.961125 353.147889 
L 900.409575 353.167931 
L 909.858025 353.192323 
L 919.306475 353.201777 
L 928.754925 353.202345 
L 938.203375 353.204046 
L 947.651825 353.205748 
L 957.100275 353.205559 
L 966.548725 353.205559 
L 975.997175 353.205559 
L 985.445625 353.205748 
" clip-path="url(#p862ff60de0)" style="fill: none; stroke: #f0ad4e; stroke-linecap: square"/>
   </g>
   <g id="line2d_13">
    <path d="M 40.600625 353.208393 
L 50.049075 353.207747 
L 59.497525 353.20667 
L 68.945975 353.204085 
L 78.394425 353.202147 
L 87.842875 353.202793 
L 97.291325 353.202362 
L 106.739775 353.198486 
L 116.188225 353.181471 
L 125.636675 353.15778 
L 135.085125 353.14658 
L 144.533575 353.135381 
L 153.982025 353.115351 
L 163.430475 353.047076 
L 172.878925 352.949296 
L 182.327375 352.832993 
L 191.775825 352.696014 
L 201.224275 352.539005 
L 210.672725 352.230371 
L 220.121175 351.834941 
L 229.569625 351.503478 
L 239.018075 351.054635 
L 248.466525 350.58167 
L 257.914975 350.140365 
L 267.363425 349.579957 
L 276.811875 348.922845 
L 286.260325 348.031189 
L 295.708775 347.348233 
L 305.157225 346.740442 
L 314.605675 345.89703 
L 324.054125 345.095832 
L 333.502575 343.996123 
L 342.951025 342.312961 
L 352.399475 340.664475 
L 361.847925 334.430638 
L 371.296375 328.893541 
L 380.744825 323.482224 
L 390.193275 317.62874 
L 399.641725 271.639543 
L 409.090175 184.356558 
L 418.538625 126.09654 
L 427.987075 106.886095 
L 437.435525 86.053224 
L 446.883975 78.642573 
L 456.332425 90.123396 
L 465.780875 90.019369 
L 475.229325 89.17445 
L 484.677775 85.984088 
L 494.126225 74.879096 
L 503.574675 66.960373 
L 513.023125 60.435779 
L 522.471575 53.895892 
L 531.920025 56.346007 
L 541.368475 60.009981 
L 550.816925 61.337557 
L 560.265375 63.132499 
L 569.713825 70.531089 
L 579.162275 78.05072 
L 588.610725 86.867344 
L 598.059175 95.514252 
L 607.507625 103.328733 
L 616.956075 117.444894 
L 626.404525 133.672169 
L 635.852975 150.439391 
L 645.301425 170.841511 
L 654.749875 182.80176 
L 664.198325 197.754657 
L 673.646775 212.695923 
L 683.095225 228.1108 
L 692.543675 254.611716 
L 701.992125 270.645153 
L 711.440575 280.17984 
L 720.889025 286.192056 
L 730.337475 291.537253 
L 739.785925 301.720221 
L 749.234375 313.211382 
L 758.682825 321.37951 
L 768.131275 324.566856 
L 777.579725 326.310754 
L 787.028175 332.935714 
L 796.476625 339.002851 
L 805.925075 342.15423 
L 815.373525 346.199849 
L 824.821975 350.095136 
L 834.270425 352.382857 
L 843.718875 352.660262 
L 853.167325 352.8429 
L 862.615775 353.000986 
L 872.064225 353.089505 
L 881.512675 353.122889 
L 890.961125 353.138396 
L 900.409575 353.164887 
L 909.858025 353.19547 
L 919.306475 353.205162 
L 928.754925 353.205808 
L 938.203375 353.208393 
L 947.651825 353.210547 
L 957.100275 353.210762 
L 966.548725 353.210977 
L 975.997175 353.210977 
L 985.445625 353.211193 
" clip-path="url(#p862ff60de0)" style="fill: none; stroke: #f0ad4e; stroke-linecap: square"/>
   </g>
   <g id="line2d_14">
    <path d="M 40.600625 353.210836 
L 50.049075 353.210242 
L 59.497525 353.209252 
L 68.945975 353.205096 
L 78.394425 353.202126 
L 87.842875 353.202918 
L 97.291325 353.202522 
L 106.739775 353.198168 
L 116.188225 353.179363 
L 125.636675 353.146307 
L 135.085125 353.125721 
L 144.533575 353.108896 
L 153.982025 353.084945 
L 163.430475 353.020813 
L 172.878925 352.920852 
L 182.327375 352.782492 
L 191.775825 352.613054 
L 201.224275 352.440846 
L 210.672725 352.105534 
L 220.121175 351.695202 
L 229.569625 351.361474 
L 239.018075 350.848807 
L 248.466525 350.326836 
L 257.914975 349.819712 
L 267.363425 349.182936 
L 276.811875 348.384046 
L 286.260325 347.291412 
L 295.708775 346.552894 
L 305.157225 345.871582 
L 314.605675 344.904244 
L 324.054125 344.036669 
L 333.502575 342.768264 
L 342.951025 340.842892 
L 352.399475 339.025003 
L 361.847925 332.824305 
L 371.296375 327.450802 
L 380.744825 322.308494 
L 390.193275 316.576719 
L 399.641725 270.718554 
L 409.090175 183.95629 
L 418.538625 126.368145 
L 427.987075 107.455284 
L 437.435525 86.357353 
L 446.883975 78.539478 
L 456.332425 89.674051 
L 465.780875 88.956911 
L 475.229325 87.698601 
L 484.677775 84.356764 
L 494.126225 73.452593 
L 503.574675 65.948652 
L 513.023125 58.449462 
L 522.471575 50.941364 
L 531.920025 53.66226 
L 541.368475 58.775075 
L 550.816925 61.230136 
L 560.265375 64.09454 
L 569.713825 73.644002 
L 579.162275 82.011362 
L 588.610725 90.867833 
L 598.059175 99.757559 
L 607.507625 107.839883 
L 616.956075 122.226824 
L 626.404525 137.670374 
L 635.852975 151.828892 
L 645.301425 170.821523 
L 654.749875 183.16987 
L 664.198325 198.03662 
L 673.646775 212.896443 
L 683.095225 228.024475 
L 692.543675 254.277381 
L 701.992125 270.241516 
L 711.440575 279.866592 
L 720.889025 286.136371 
L 730.337475 291.662487 
L 739.785925 302.244211 
L 749.234375 313.982109 
L 758.682825 321.917165 
L 768.131275 324.876184 
L 777.579725 326.442491 
L 787.028175 332.891011 
L 796.476625 338.937117 
L 805.925075 342.146531 
L 815.373525 346.249847 
L 824.821975 350.100392 
L 834.270425 352.35969 
L 843.718875 352.656997 
L 853.167325 352.840686 
L 862.615775 352.991715 
L 872.064225 353.085737 
L 881.512675 353.122158 
L 890.961125 353.138587 
L 900.409575 353.166299 
L 909.858025 353.192823 
L 919.306475 353.201731 
L 928.754925 353.201533 
L 938.203375 353.204304 
L 947.651825 353.207273 
L 957.100275 353.207669 
L 966.548725 353.207471 
L 975.997175 353.206877 
L 985.445625 353.207669 
" clip-path="url(#p862ff60de0)" style="fill: none; stroke: #f0ad4e; stroke-linecap: square"/>
   </g>
   <g id="line2d_15">
    <path d="M 40.600625 353.211202 
L 50.049075 353.210336 
L 59.497525 353.209182 
L 68.945975 353.204853 
L 78.394425 353.201101 
L 87.842875 353.201967 
L 97.291325 353.202833 
L 106.739775 353.198793 
L 116.188225 353.178014 
L 125.636675 353.147712 
L 135.085125 353.133859 
L 144.533575 353.116544 
L 153.982025 353.087396 
L 163.430475 353.01698 
L 172.878925 352.91857 
L 182.327375 352.79967 
L 191.775825 352.632864 
L 201.224275 352.447011 
L 210.672725 352.105318 
L 220.121175 351.6479 
L 229.569625 351.266382 
L 239.018075 350.749225 
L 248.466525 350.192532 
L 257.914975 349.684033 
L 267.363425 349.08405 
L 276.811875 348.336309 
L 286.260325 347.282083 
L 295.708775 346.543288 
L 305.157225 345.851533 
L 314.605675 344.849831 
L 324.054125 343.951445 
L 333.502575 342.767353 
L 342.951025 340.956151 
L 352.399475 339.229217 
L 361.847925 333.185239 
L 371.296375 327.871686 
L 380.744825 322.74139 
L 390.193275 317.158581 
L 399.641725 271.003515 
L 409.090175 184.434051 
L 418.538625 127.675544 
L 427.987075 108.943915 
L 437.435525 88.178002 
L 446.883975 80.160344 
L 456.332425 91.846293 
L 465.780875 92.023488 
L 475.229325 90.564368 
L 484.677775 86.824507 
L 494.126225 77.176882 
L 503.574675 71.362623 
L 513.023125 64.562823 
L 522.471575 57.739935 
L 531.920025 59.684755 
L 541.368475 63.250596 
L 550.816925 64.919233 
L 560.265375 68.006012 
L 569.713825 76.081965 
L 579.162275 82.806154 
L 588.610725 92.179616 
L 598.059175 101.469098 
L 607.507625 108.276691 
L 616.956075 123.059806 
L 626.404525 139.846327 
L 635.852975 152.759367 
L 645.301425 170.956236 
L 654.749875 183.506805 
L 664.198325 195.858823 
L 673.646775 208.157452 
L 683.095225 222.824265 
L 692.543675 248.372144 
L 701.992125 263.353523 
L 711.440575 272.55585 
L 720.889025 279.18971 
L 730.337475 285.103822 
L 739.785925 296.474051 
L 749.234375 309.903671 
L 758.682825 318.691292 
L 768.131275 321.291216 
L 777.579725 323.096357 
L 787.028175 330.785021 
L 796.476625 337.960856 
L 805.925075 341.381535 
L 815.373525 345.960333 
L 824.821975 350.118652 
L 834.270425 352.269527 
L 843.718875 352.549172 
L 853.167325 352.784375 
L 862.615775 352.975711 
L 872.064225 353.073544 
L 881.512675 353.112215 
L 890.961125 353.129819 
L 900.409575 353.162719 
L 909.858025 353.192732 
L 919.306475 353.199658 
L 928.754925 353.199658 
L 938.203375 353.203987 
L 947.651825 353.208027 
L 957.100275 353.208316 
L 966.548725 353.208893 
L 975.997175 353.208027 
L 985.445625 353.207739 
" clip-path="url(#p862ff60de0)" style="fill: none; stroke: #f0ad4e; stroke-linecap: square"/>
   </g>
   <g id="line2d_16">
    <path d="M 40.600625 353.206876 
L 50.049075 353.20636 
L 59.497525 353.204297 
L 68.945975 353.198106 
L 78.394425 353.19269 
L 87.842875 353.192174 
L 97.291325 353.192947 
L 106.739775 353.188563 
L 116.188225 353.171023 
L 125.636675 353.138781 
L 135.085125 353.116856 
L 144.533575 353.102669 
L 153.982025 353.076618 
L 163.430475 352.988919 
L 172.878925 352.876974 
L 182.327375 352.763739 
L 191.775825 352.623163 
L 201.224275 352.456793 
L 210.672725 352.118121 
L 220.121175 351.686075 
L 229.569625 351.352819 
L 239.018075 350.863254 
L 248.466525 350.318231 
L 257.914975 349.812931 
L 267.363425 349.221995 
L 276.811875 348.541814 
L 286.260325 347.552364 
L 295.708775 346.855674 
L 305.157225 346.292854 
L 314.605675 345.448108 
L 324.054125 344.625286 
L 333.502575 343.43542 
L 342.951025 341.684022 
L 352.399475 340.111375 
L 361.847925 334.152239 
L 371.296375 328.845943 
L 380.744825 323.75941 
L 390.193275 318.163193 
L 399.641725 271.974534 
L 409.090175 185.414745 
L 418.538625 128.948298 
L 427.987075 110.554497 
L 437.435525 89.971579 
L 446.883975 81.858146 
L 456.332425 93.569037 
L 465.780875 93.827233 
L 475.229325 92.18778 
L 484.677775 88.05278 
L 494.126225 77.72134 
L 503.574675 71.636588 
L 513.023125 64.169548 
L 522.471575 56.687547 
L 531.920025 58.591128 
L 541.368475 62.000549 
L 550.816925 63.538374 
L 560.265375 66.481444 
L 569.713825 74.354995 
L 579.162275 81.298421 
L 588.610725 91.176664 
L 598.059175 100.697147 
L 607.507625 107.712797 
L 616.956075 122.348702 
L 626.404525 139.03547 
L 635.852975 152.015672 
L 645.301425 169.885859 
L 654.749875 182.291118 
L 664.198325 194.637568 
L 673.646775 206.919533 
L 683.095225 221.818018 
L 692.543675 247.614375 
L 701.992125 262.452245 
L 711.440575 271.755029 
L 720.889025 278.650479 
L 730.337475 284.591818 
L 739.785925 296.236161 
L 749.234375 310.020097 
L 758.682825 318.841053 
L 768.131275 321.379161 
L 777.579725 323.11663 
L 787.028175 330.581091 
L 796.476625 337.657613 
L 805.925075 341.123523 
L 815.373525 345.733387 
L 824.821975 350.018765 
L 834.270425 352.29584 
L 843.718875 352.595048 
L 853.167325 352.811715 
L 862.615775 352.982986 
L 872.064225 353.072233 
L 881.512675 353.104991 
L 890.961125 353.117372 
L 900.409575 353.152709 
L 909.858025 353.192174 
L 919.306475 353.203265 
L 928.754925 353.203265 
L 938.203375 353.204039 
L 947.651825 353.204813 
L 957.100275 353.204813 
L 966.548725 353.204813 
L 975.997175 353.203523 
L 985.445625 353.203265 
" clip-path="url(#p862ff60de0)" style="fill: none; stroke: #f0ad4e; stroke-linecap: square"/>
   </g>
   <g id="line2d_17">
    <path d="M 40.600625 353.208681 
L 50.049075 353.20828 
L 59.497525 353.206879 
L 68.945975 353.20007 
L 78.394425 353.195064 
L 87.842875 353.194663 
L 97.291325 353.193862 
L 106.739775 353.187855 
L 116.188225 353.170232 
L 125.636675 353.145802 
L 135.085125 353.130783 
L 144.533575 353.116164 
L 153.982025 353.090332 
L 163.430475 353.01764 
L 172.878925 352.920518 
L 182.327375 352.792357 
L 191.775825 352.624145 
L 201.224275 352.434506 
L 210.672725 352.062839 
L 220.121175 351.606664 
L 229.569625 351.246611 
L 239.018075 350.743178 
L 248.466525 350.231934 
L 257.914975 349.77556 
L 267.363425 349.179409 
L 276.811875 348.432469 
L 286.260325 347.418793 
L 295.708775 346.66965 
L 305.157225 345.989594 
L 314.605675 345.087659 
L 324.054125 344.236788 
L 333.502575 343.004838 
L 342.951025 341.159315 
L 352.399475 339.395094 
L 361.847925 333.182475 
L 371.296375 327.746032 
L 380.744825 322.647415 
L 390.193275 317.009919 
L 399.641725 270.295121 
L 409.090175 183.290612 
L 418.538625 126.766668 
L 427.987075 108.275394 
L 437.435525 87.532286 
L 446.883975 79.494369 
L 456.332425 91.390742 
L 465.780875 91.96867 
L 475.229325 90.735117 
L 484.677775 86.581489 
L 494.126225 76.000171 
L 503.574675 69.700442 
L 513.023125 62.705838 
L 522.471575 55.691209 
L 531.920025 57.882367 
L 541.368475 62.409064 
L 550.816925 64.78105 
L 560.265375 67.782828 
L 569.713825 76.008381 
L 579.162275 83.034024 
L 588.610725 92.657136 
L 598.059175 102.20976 
L 607.507625 109.064187 
L 616.956075 123.811949 
L 626.404525 140.797729 
L 635.852975 153.893011 
L 645.301425 171.757296 
L 654.749875 183.982483 
L 664.198325 196.423743 
L 673.646775 208.822749 
L 683.095225 223.491812 
L 692.543675 248.966876 
L 701.992125 263.79514 
L 711.440575 272.997122 
L 720.889025 279.681736 
L 730.337475 285.4534 
L 739.785925 296.992925 
L 749.234375 310.682155 
L 758.682825 319.413144 
L 768.131275 321.975769 
L 777.579725 323.7484 
L 787.028175 331.061205 
L 796.476625 337.879787 
L 805.925075 341.300893 
L 815.373525 345.865839 
L 824.821975 350.048103 
L 834.270425 352.275106 
L 843.718875 352.565872 
L 853.167325 352.785749 
L 862.615775 352.971783 
L 872.064225 353.067904 
L 881.512675 353.103148 
L 890.961125 353.12097 
L 900.409575 353.154012 
L 909.858025 353.190658 
L 919.306475 353.202673 
L 928.754925 353.202673 
L 938.203375 353.204876 
L 947.651825 353.207079 
L 957.100275 353.206879 
L 966.548725 353.206278 
L 975.997175 353.206678 
L 985.445625 353.207479 
" clip-path="url(#p862ff60de0)" style="fill: none; stroke: #f0ad4e; stroke-linecap: square"/>
   </g>
   <g id="line2d_18">
    <path d="M 40.600625 353.209677 
L 50.049075 353.209218 
L 59.497525 353.2083 
L 68.945975 353.203712 
L 78.394425 353.200042 
L 87.842875 353.200042 
L 97.291325 353.199354 
L 106.739775 353.194765 
L 116.188225 353.174119 
L 125.636675 353.137643 
L 135.085125 353.112638 
L 144.533575 353.094515 
L 153.982025 353.066298 
L 163.430475 352.98807 
L 172.878925 352.880249 
L 182.327375 352.745588 
L 191.775825 352.574221 
L 201.224275 352.370738 
L 210.672725 351.990841 
L 220.121175 351.513447 
L 229.569625 351.135156 
L 239.018075 350.584122 
L 248.466525 349.967478 
L 257.914975 349.435714 
L 267.363425 348.839258 
L 276.811875 348.063406 
L 286.260325 346.940691 
L 295.708775 346.138228 
L 305.157225 345.430969 
L 314.605675 344.427775 
L 324.054125 343.449816 
L 333.502575 342.210793 
L 342.951025 340.383801 
L 352.399475 338.503129 
L 361.847925 332.156375 
L 371.296375 326.703387 
L 380.744825 321.380703 
L 390.193275 315.530843 
L 399.641725 268.403682 
L 409.090175 179.483056 
L 418.538625 120.92871 
L 427.987075 101.824672 
L 437.435525 80.747053 
L 446.883975 73.648305 
L 456.332425 86.592784 
L 465.780875 87.357166 
L 475.229325 86.430594 
L 484.677775 82.975276 
L 494.126225 72.731827 
L 503.574675 66.005635 
L 513.023125 59.723115 
L 522.471575 53.427748 
L 531.920025 55.939517 
L 541.368475 61.533819 
L 550.816925 64.650762 
L 560.265375 67.649331 
L 569.713825 76.524372 
L 579.162275 83.929148 
L 588.610725 93.172615 
L 598.059175 102.500962 
L 607.507625 110.168638 
L 616.956075 126.241988 
L 626.404525 143.886084 
L 635.852975 157.591044 
L 645.301425 175.663441 
L 654.749875 187.717594 
L 664.198325 200.15692 
L 673.646775 212.595558 
L 683.095225 227.303712 
L 692.543675 253.191293 
L 701.992125 268.943704 
L 711.440575 278.424607 
L 720.889025 284.886294 
L 730.337475 290.584516 
L 739.785925 301.323024 
L 749.234375 313.511379 
L 758.682825 321.662414 
L 768.131275 324.445112 
L 777.579725 326.065179 
L 787.028175 332.771413 
L 796.476625 339.049116 
L 805.925075 342.214693 
L 815.373525 346.357311 
L 824.821975 350.214319 
L 834.270425 352.355597 
L 843.718875 352.622626 
L 853.167325 352.818769 
L 862.615775 352.988529 
L 872.064225 353.079603 
L 881.512675 353.11562 
L 890.961125 353.128467 
L 900.409575 353.160584 
L 909.858025 353.196371 
L 919.306475 353.207612 
L 928.754925 353.207842 
L 938.203375 353.209218 
L 947.651825 353.210594 
L 957.100275 353.210594 
L 966.548725 353.209447 
L 975.997175 353.20853 
L 985.445625 353.209447 
" clip-path="url(#p862ff60de0)" style="fill: none; stroke: #f0ad4e; stroke-linecap: square"/>
   </g>
   <g id="line2d_19">
    <path d="M 40.600625 353.208197 
L 50.049075 353.208197 
L 59.497525 353.207356 
L 68.945975 353.201187 
L 78.394425 353.19642 
L 87.842875 353.196701 
L 97.291325 353.195859 
L 106.739775 353.193336 
L 116.188225 353.177914 
L 125.636675 353.151275 
L 135.085125 353.136694 
L 144.533575 353.117066 
L 153.982025 353.090708 
L 163.430475 353.02313 
L 172.878925 352.907042 
L 182.327375 352.751698 
L 191.775825 352.569995 
L 201.224275 352.366982 
L 210.672725 351.968527 
L 220.121175 351.491838 
L 229.569625 351.128433 
L 239.018075 350.585289 
L 248.466525 350.017468 
L 257.914975 349.535732 
L 267.363425 348.935666 
L 276.811875 348.219792 
L 286.260325 347.256881 
L 295.708775 346.562878 
L 305.157225 345.866352 
L 314.605675 344.866988 
L 324.054125 343.941371 
L 333.502575 342.695532 
L 342.951025 340.789619 
L 352.399475 338.936422 
L 361.847925 332.687315 
L 371.296375 327.212687 
L 380.744825 321.779839 
L 390.193275 315.767955 
L 399.641725 268.309681 
L 409.090175 179.34389 
L 418.538625 121.096471 
L 427.987075 102.040705 
L 437.435525 80.869283 
L 446.883975 73.544542 
L 456.332425 86.1423 
L 465.780875 87.075207 
L 475.229325 86.445137 
L 484.677775 82.760895 
L 494.126225 71.952402 
L 503.574675 64.880307 
L 513.023125 58.540068 
L 522.471575 52.181323 
L 531.920025 54.538408 
L 541.368475 60.049769 
L 550.816925 63.281437 
L 560.265375 66.241673 
L 569.713825 74.906469 
L 579.162275 82.841371 
L 588.610725 92.762663 
L 598.059175 102.172495 
L 607.507625 109.70754 
L 616.956075 125.874854 
L 626.404525 144.046503 
L 635.852975 158.61719 
L 645.301425 177.277585 
L 654.749875 189.309205 
L 664.198325 201.478784 
L 673.646775 213.626211 
L 683.095225 228.2813 
L 692.543675 254.128196 
L 701.992125 269.468315 
L 711.440575 278.509134 
L 720.889025 284.883021 
L 730.337475 290.398028 
L 739.785925 300.93593 
L 749.234375 313.230569 
L 758.682825 321.599258 
L 768.131275 324.464998 
L 777.579725 326.318475 
L 787.028175 333.128392 
L 796.476625 339.295621 
L 805.925075 342.395218 
L 815.373525 346.472307 
L 824.821975 350.229174 
L 834.270425 352.314266 
L 843.718875 352.610374 
L 853.167325 352.808901 
L 862.615775 352.967329 
L 872.064225 353.069677 
L 881.512675 353.115944 
L 890.961125 353.133329 
L 900.409575 353.163613 
L 909.858025 353.195579 
L 919.306475 353.205954 
L 928.754925 353.206234 
L 938.203375 353.207917 
L 947.651825 353.209319 
L 957.100275 353.209599 
L 966.548725 353.209039 
L 975.997175 353.208758 
L 985.445625 353.209599 
" clip-path="url(#p862ff60de0)" style="fill: none; stroke: #f0ad4e; stroke-linecap: square"/>
   </g>
   <g id="line2d_20">
    <path d="M 40.600625 353.213484 
L 50.049075 353.213223 
L 59.497525 353.21114 
L 68.945975 353.206713 
L 78.394425 353.205151 
L 87.842875 353.205151 
L 97.291325 353.203068 
L 106.739775 353.196818 
L 116.188225 353.179892 
L 125.636675 353.154372 
L 135.085125 353.135103 
L 144.533575 353.116614 
L 153.982025 353.090574 
L 163.430475 353.020786 
L 172.878925 352.922874 
L 182.327375 352.79762 
L 191.775825 352.64268 
L 201.224275 352.475241 
L 210.672725 352.166143 
L 220.121175 351.750279 
L 229.569625 351.391444 
L 239.018075 350.90449 
L 248.466525 350.386809 
L 257.914975 349.89621 
L 267.363425 349.312126 
L 276.811875 348.571539 
L 286.260325 347.52498 
L 295.708775 346.78231 
L 305.157225 346.120626 
L 314.605675 345.219371 
L 324.054125 344.312908 
L 333.502575 343.002039 
L 342.951025 341.0386 
L 352.399475 339.167865 
L 361.847925 332.937722 
L 371.296375 327.432021 
L 380.744825 321.970588 
L 390.193275 316.084177 
L 399.641725 269.231422 
L 409.090175 180.44284 
L 418.538625 121.872208 
L 427.987075 102.863047 
L 437.435525 81.526924 
L 446.883975 73.978101 
L 456.332425 86.241261 
L 465.780875 86.512861 
L 475.229325 85.553016 
L 484.677775 82.184963 
L 494.126225 71.730041 
L 503.574675 64.708534 
L 513.023125 58.073465 
L 522.471575 51.424073 
L 531.920025 53.79973 
L 541.368475 59.217676 
L 550.816925 62.333398 
L 560.265375 66.063932 
L 569.713825 75.898313 
L 579.162275 83.840605 
L 588.610725 93.564315 
L 598.059175 103.060433 
L 607.507625 110.415256 
L 616.956075 126.165734 
L 626.404525 143.651797 
L 635.852975 157.162288 
L 645.301425 175.410031 
L 654.749875 187.75027 
L 664.198325 200.438929 
L 673.646775 213.088267 
L 683.095225 227.811194 
L 692.543675 253.398136 
L 701.992125 268.753582 
L 711.440575 278.079656 
L 720.889025 284.495206 
L 730.337475 290.346723 
L 739.785925 301.318544 
L 749.234375 313.717374 
L 758.682825 321.906008 
L 768.131275 324.637115 
L 777.579725 326.222709 
L 787.028175 332.864549 
L 796.476625 339.0999 
L 805.925075 342.245308 
L 815.373525 346.369832 
L 824.821975 350.218328 
L 834.270425 352.350769 
L 843.718875 352.628619 
L 853.167325 352.822098 
L 862.615775 352.974694 
L 872.064225 353.070523 
L 881.512675 353.10099 
L 890.961125 353.113229 
L 900.409575 353.147081 
L 909.858025 353.184319 
L 919.306475 353.196297 
L 928.754925 353.196818 
L 938.203375 353.199683 
L 947.651825 353.201505 
L 957.100275 353.201505 
L 966.548725 353.201766 
L 975.997175 353.201505 
L 985.445625 353.202026 
" clip-path="url(#p862ff60de0)" style="fill: none; stroke: #f0ad4e; stroke-linecap: square"/>
   </g>
   <g id="line2d_21">
    <path d="M 40.600625 353.201832 
L 50.049075 353.201832 
L 59.497525 353.201508 
L 68.945975 353.199561 
L 78.394425 353.197614 
L 87.842875 353.195018 
L 97.291325 353.194044 
L 106.739775 353.193719 
L 116.188225 353.179116 
L 125.636675 353.153803 
L 135.085125 353.140173 
L 144.533575 353.128815 
L 153.982025 353.108695 
L 163.430475 353.053526 
L 172.878925 352.970448 
L 182.327375 352.852647 
L 191.775825 352.708559 
L 201.224275 352.553113 
L 210.672725 352.2393 
L 220.121175 351.845005 
L 229.569625 351.515615 
L 239.018075 351.076537 
L 248.466525 350.605331 
L 257.914975 350.154245 
L 267.363425 349.598987 
L 276.811875 348.905483 
L 286.260325 347.976052 
L 295.708775 347.342909 
L 305.157225 346.78895 
L 314.605675 345.947464 
L 324.054125 345.142 
L 333.502575 344.049009 
L 342.951025 342.35338 
L 352.399475 340.661322 
L 361.847925 334.800776 
L 371.296375 329.665861 
L 380.744825 324.761033 
L 390.193275 319.414854 
L 399.641725 273.574149 
L 409.090175 188.333854 
L 418.538625 132.861331 
L 427.987075 114.451836 
L 437.435525 93.95534 
L 446.883975 85.470707 
L 456.332425 96.98086 
L 465.780875 96.769921 
L 475.229325 94.394094 
L 484.677775 90.574468 
L 494.126225 80.287114 
L 503.574675 73.92648 
L 513.023125 66.218429 
L 522.471575 58.477277 
L 531.920025 60.279997 
L 541.368475 62.702231 
L 550.816925 63.370098 
L 560.265375 66.584165 
L 569.713825 74.430138 
L 579.162275 81.310333 
L 588.610725 91.493515 
L 598.059175 101.103914 
L 607.507625 107.043319 
L 616.956075 120.241961 
L 626.404525 136.459633 
L 635.852975 149.338945 
L 645.301425 167.113024 
L 654.749875 179.382559 
L 664.198325 191.69558 
L 673.646775 203.975499 
L 683.095225 218.559526 
L 692.543675 244.152319 
L 701.992125 259.121554 
L 711.440575 268.359078 
L 720.889025 275.184753 
L 730.337475 281.244231 
L 739.785925 293.871389 
L 749.234375 308.535573 
L 758.682825 317.239582 
L 768.131275 319.679989 
L 777.579725 321.36361 
L 787.028175 328.99767 
L 796.476625 336.433122 
L 805.925075 340.243662 
L 815.373525 345.23319 
L 824.821975 349.787535 
L 834.270425 352.195489 
L 843.718875 352.520011 
L 853.167325 352.773139 
L 862.615775 352.971746 
L 872.064225 353.068454 
L 881.512675 353.114861 
L 890.961125 353.134332 
L 900.409575 353.16289 
L 909.858025 353.19015 
L 919.306475 353.197938 
L 928.754925 353.198263 
L 938.203375 353.202482 
L 947.651825 353.206051 
L 957.100275 353.205727 
L 966.548725 353.206051 
L 975.997175 353.205402 
L 985.445625 353.205402 
" clip-path="url(#p862ff60de0)" style="fill: none; stroke: #f0ad4e; stroke-linecap: square"/>
   </g>
   <g id="line2d_22">
    <path d="M 40.600625 353.212707 
L 50.049075 353.212427 
L 59.497525 353.211867 
L 68.945975 353.20711 
L 78.394425 353.202633 
L 87.842875 353.201793 
L 97.291325 353.200674 
L 106.739775 353.193958 
L 116.188225 353.167934 
L 125.636675 353.130717 
L 135.085125 353.10833 
L 144.533575 353.089582 
L 153.982025 353.065796 
L 163.430475 353.000596 
L 172.878925 352.902935 
L 182.327375 352.759942 
L 191.775825 352.558465 
L 201.224275 352.341317 
L 210.672725 351.931366 
L 220.121175 351.394372 
L 229.569625 350.976027 
L 239.018075 350.462259 
L 248.466525 349.874057 
L 257.914975 349.283896 
L 267.363425 348.599712 
L 276.811875 347.832698 
L 286.260325 346.8102 
L 295.708775 346.092156 
L 305.157225 345.456103 
L 314.605675 344.569322 
L 324.054125 343.78384 
L 333.502575 342.620307 
L 342.951025 340.885082 
L 352.399475 339.235765 
L 361.847925 333.370531 
L 371.296375 328.261958 
L 380.744825 323.392638 
L 390.193275 318.078669 
L 399.641725 272.515933 
L 409.090175 187.300466 
L 418.538625 131.727096 
L 427.987075 113.409154 
L 437.435525 93.007598 
L 446.883975 85.144659 
L 456.332425 96.975586 
L 465.780875 96.815523 
L 475.229325 94.689376 
L 484.677775 90.896282 
L 494.126225 80.836119 
L 503.574675 74.685459 
L 513.023125 67.407364 
L 522.471575 60.104644 
L 531.920025 61.847424 
L 541.368475 64.35386 
L 550.816925 65.168445 
L 560.265375 67.873001 
L 569.713825 75.165367 
L 579.162275 82.025116 
L 588.610725 92.150759 
L 598.059175 101.600613 
L 607.507625 107.779536 
L 616.956075 121.526458 
L 626.404525 137.813115 
L 635.852975 150.33718 
L 645.301425 167.969539 
L 654.749875 180.291008 
L 664.198325 192.690548 
L 673.646775 205.061826 
L 683.095225 219.831526 
L 692.543675 245.354807 
L 701.992125 259.927227 
L 711.440575 269.095292 
L 720.889025 275.859619 
L 730.337475 281.72989 
L 739.785925 294.175603 
L 749.234375 308.805667 
L 758.682825 317.469759 
L 768.131275 319.726587 
L 777.579725 321.423196 
L 787.028175 329.035407 
L 796.476625 336.384859 
L 805.925075 340.143813 
L 815.373525 345.198939 
L 824.821975 349.85307 
L 834.270425 352.246174 
L 843.718875 352.567139 
L 853.167325 352.81255 
L 862.615775 353.000316 
L 872.064225 353.087903 
L 881.512675 353.126519 
L 890.961125 353.14107 
L 900.409575 353.169893 
L 909.858025 353.196197 
L 919.306475 353.200674 
L 928.754925 353.200394 
L 938.203375 353.202913 
L 947.651825 353.205431 
L 957.100275 353.205431 
L 966.548725 353.205431 
L 975.997175 353.205711 
L 985.445625 353.206271 
" clip-path="url(#p862ff60de0)" style="fill: none; stroke: #f0ad4e; stroke-linecap: square"/>
   </g>
   <g id="line2d_23">
    <path d="M 40.600625 353.207198 
L 50.049075 353.206556 
L 59.497525 353.205485 
L 68.945975 353.202059 
L 78.394425 353.198847 
L 87.842875 353.197776 
L 97.291325 353.197134 
L 106.739775 353.191995 
L 116.188225 353.174222 
L 125.636675 353.149597 
L 135.085125 353.13525 
L 144.533575 353.12069 
L 153.982025 353.097778 
L 163.430475 353.030113 
L 172.878925 352.927545 
L 182.327375 352.79714 
L 191.775825 352.639755 
L 201.224275 352.433977 
L 210.672725 352.049187 
L 220.121175 351.59352 
L 229.569625 351.217937 
L 239.018075 350.707239 
L 248.466525 350.206391 
L 257.914975 349.805969 
L 267.363425 349.329746 
L 276.811875 348.742603 
L 286.260325 347.898078 
L 295.708775 347.283955 
L 305.157225 346.764477 
L 314.605675 346.094681 
L 324.054125 345.433878 
L 333.502575 344.414409 
L 342.951025 342.85148 
L 352.399475 341.338871 
L 361.847925 335.677936 
L 371.296375 330.677162 
L 380.744825 325.791803 
L 390.193275 320.459557 
L 399.641725 274.461813 
L 409.090175 188.410339 
L 418.538625 132.195205 
L 427.987075 113.604718 
L 437.435525 93.112336 
L 446.883975 84.989344 
L 456.332425 96.803496 
L 465.780875 96.469668 
L 475.229325 93.953864 
L 484.677775 89.914316 
L 494.126225 79.463739 
L 503.574675 73.145427 
L 513.023125 65.998436 
L 522.471575 58.826391 
L 531.920025 60.526577 
L 541.368475 63.165934 
L 550.816925 64.152213 
L 560.265375 66.951953 
L 569.713825 74.179029 
L 579.162275 81.010822 
L 588.610725 90.977896 
L 598.059175 100.131493 
L 607.507625 106.028612 
L 616.956075 119.31062 
L 626.404525 135.426629 
L 635.852975 148.347187 
L 645.301425 166.737462 
L 654.749875 179.447103 
L 664.198325 192.0803 
L 673.646775 204.683733 
L 683.095225 219.447944 
L 692.543675 244.979429 
L 701.992125 259.589039 
L 711.440575 268.803448 
L 720.889025 275.559868 
L 730.337475 281.522511 
L 739.785925 294.110954 
L 749.234375 308.713498 
L 758.682825 317.406074 
L 768.131275 319.742867 
L 777.579725 321.494658 
L 787.028175 329.226008 
L 796.476625 336.656935 
L 805.925075 340.430106 
L 815.373525 345.400902 
L 824.821975 349.905753 
L 834.270425 352.236336 
L 843.718875 352.550249 
L 853.167325 352.794999 
L 862.615775 352.98793 
L 872.064225 353.081076 
L 881.512675 353.123259 
L 890.961125 353.137178 
L 900.409575 353.165443 
L 909.858025 353.193922 
L 919.306475 353.201416 
L 928.754925 353.201631 
L 938.203375 353.202701 
L 947.651825 353.203772 
L 957.100275 353.203772 
L 966.548725 353.203558 
L 975.997175 353.203772 
L 985.445625 353.204414 
" clip-path="url(#p862ff60de0)" style="fill: none; stroke: #f0ad4e; stroke-linecap: square"/>
   </g>
   <g id="line2d_24">
    <path d="M 40.600625 353.203915 
L 50.049075 353.203621 
L 59.497525 353.200682 
L 68.945975 353.196862 
L 78.394425 353.195098 
L 87.842875 353.195098 
L 97.291325 353.194805 
L 106.739775 353.188339 
L 116.188225 353.16424 
L 125.636675 353.129854 
L 135.085125 353.110457 
L 144.533575 353.097526 
L 153.982025 353.072839 
L 163.430475 352.992606 
L 172.878925 352.874755 
L 182.327375 352.743678 
L 191.775825 352.572926 
L 201.224275 352.343396 
L 210.672725 351.938117 
L 220.121175 351.464067 
L 229.569625 351.071132 
L 239.018075 350.470708 
L 248.466525 349.827669 
L 257.914975 349.29484 
L 267.363425 348.736737 
L 276.811875 348.04697 
L 286.260325 347.003061 
L 295.708775 346.273323 
L 305.157225 345.653502 
L 314.605675 344.748311 
L 324.054125 343.862811 
L 333.502575 342.638745 
L 342.951025 340.858927 
L 352.399475 339.2143 
L 361.847925 333.281476 
L 371.296375 328.056347 
L 380.744825 323.192119 
L 390.193275 317.879116 
L 399.641725 272.372678 
L 409.090175 188.185766 
L 418.538625 133.822853 
L 427.987075 115.863915 
L 437.435525 95.706949 
L 446.883975 87.384185 
L 456.332425 98.883348 
L 465.780875 98.68115 
L 475.229325 96.278572 
L 484.677775 92.204329 
L 494.126225 81.704403 
L 503.574675 75.414793 
L 513.023125 67.81383 
L 522.471575 60.180833 
L 531.920025 61.864548 
L 541.368475 64.030542 
L 550.816925 64.568954 
L 560.265375 67.247204 
L 569.713825 74.430544 
L 579.162275 81.080174 
L 588.610725 91.27739 
L 598.059175 101.004082 
L 607.507625 107.108246 
L 616.956075 120.70522 
L 626.404525 136.993962 
L 635.852975 149.664878 
L 645.301425 167.111853 
L 654.749875 179.130914 
L 664.198325 191.437402 
L 673.646775 203.701863 
L 683.095225 218.625177 
L 692.543675 244.536868 
L 701.992125 259.359964 
L 711.440575 268.485351 
L 720.889025 275.241664 
L 730.337475 281.162438 
L 739.785925 293.641148 
L 749.234375 308.074542 
L 758.682825 316.67386 
L 768.131275 319.146384 
L 777.579725 321.003496 
L 787.028175 328.871313 
L 796.476625 336.392631 
L 805.925075 340.294358 
L 815.373525 345.412804 
L 824.821975 349.927887 
L 834.270425 352.244941 
L 843.718875 352.565285 
L 853.167325 352.79364 
L 862.615775 352.977617 
L 872.064225 353.079598 
L 881.512675 353.122507 
L 890.961125 353.136614 
L 900.409575 353.166297 
L 909.858025 353.196274 
L 919.306475 353.204503 
L 928.754925 353.204503 
L 938.203375 353.207442 
L 947.651825 353.210087 
L 957.100275 353.209499 
L 966.548725 353.208911 
L 975.997175 353.208618 
L 985.445625 353.209499 
" clip-path="url(#p862ff60de0)" style="fill: none; stroke: #f0ad4e; stroke-linecap: square"/>
   </g>
   <g id="line2d_25">
    <path d="M 40.600625 353.203882 
L 50.049075 353.203882 
L 59.497525 353.202179 
L 68.945975 353.196429 
L 78.394425 353.193448 
L 87.842875 353.192809 
L 97.291325 353.19004 
L 106.739775 353.186846 
L 116.188225 353.166829 
L 125.636675 353.126367 
L 135.085125 353.099322 
L 144.533575 353.078453 
L 153.982025 353.049278 
L 163.430475 352.965588 
L 172.878925 352.84676 
L 182.327375 352.692795 
L 191.775825 352.509229 
L 201.224275 352.315229 
L 210.672725 351.953848 
L 220.121175 351.52134 
L 229.569625 351.141432 
L 239.018075 350.550487 
L 248.466525 349.952515 
L 257.914975 349.40629 
L 267.363425 348.745071 
L 276.811875 347.947136 
L 286.260325 346.824447 
L 295.708775 346.004365 
L 305.157225 345.208985 
L 314.605675 344.122924 
L 324.054125 343.132905 
L 333.502575 341.755525 
L 342.951025 339.735026 
L 352.399475 337.825689 
L 361.847925 331.095094 
L 371.296375 325.23356 
L 380.744825 319.724251 
L 390.193275 313.645719 
L 399.641725 263.619846 
L 409.090175 171.008256 
L 418.538625 111.91399 
L 427.987075 92.761842 
L 437.435525 70.885385 
L 446.883975 63.087683 
L 456.332425 77.493532 
L 465.780875 81.185926 
L 475.229325 81.570732 
L 484.677775 78.188824 
L 494.126225 68.985205 
L 503.574675 63.32044 
L 513.023125 57.663981 
L 522.471575 51.980476 
L 531.920025 54.239482 
L 541.368475 60.512228 
L 550.816925 64.553439 
L 560.265375 68.752447 
L 569.713825 78.57001 
L 579.162275 87.074078 
L 588.610725 98.900428 
L 598.059175 109.653919 
L 607.507625 116.294222 
L 616.956075 131.305923 
L 626.404525 149.619249 
L 635.852975 163.936085 
L 645.301425 182.767738 
L 654.749875 195.440363 
L 664.198325 207.399595 
L 673.646775 219.366706 
L 683.095225 233.275523 
L 692.543675 257.974886 
L 701.992125 272.605614 
L 711.440575 281.2645 
L 720.889025 287.668424 
L 730.337475 293.267387 
L 739.785925 303.292366 
L 749.234375 314.875097 
L 758.682825 322.293743 
L 768.131275 324.397294 
L 777.579725 325.988266 
L 787.028175 332.936499 
L 796.476625 339.501204 
L 805.925075 342.543877 
L 815.373525 346.625975 
L 824.821975 350.336469 
L 834.270425 352.283925 
L 843.718875 352.592068 
L 853.167325 352.813965 
L 862.615775 352.990716 
L 872.064225 353.08399 
L 881.512675 353.121257 
L 890.961125 353.13595 
L 900.409575 353.163208 
L 909.858025 353.191744 
L 919.306475 353.200901 
L 928.754925 353.20154 
L 938.203375 353.202818 
L 947.651825 353.203669 
L 957.100275 353.204095 
L 966.548725 353.203882 
L 975.997175 353.202179 
L 985.445625 353.203031 
" clip-path="url(#p862ff60de0)" style="fill: none; stroke: #f0ad4e; stroke-linecap: square"/>
   </g>
   <g id="line2d_26">
    <path d="M 40.600625 353.206082 
L 50.049075 353.206082 
L 59.497525 353.205625 
L 68.945975 353.199001 
L 78.394425 353.192833 
L 87.842875 353.19329 
L 97.291325 353.191005 
L 106.739775 353.18598 
L 116.188225 353.168847 
L 125.636675 353.137095 
L 135.085125 353.118591 
L 144.533575 353.102372 
L 153.982025 353.073818 
L 163.430475 352.990439 
L 172.878925 352.873023 
L 182.327375 352.73916 
L 191.775825 352.581083 
L 201.224275 352.397421 
L 210.672725 352.022102 
L 220.121175 351.560662 
L 229.569625 351.199963 
L 239.018075 350.670907 
L 248.466525 350.076747 
L 257.914975 349.508628 
L 267.363425 348.847079 
L 276.811875 348.061034 
L 286.260325 346.942157 
L 295.708775 346.106998 
L 305.157225 345.334201 
L 314.605675 344.244336 
L 324.054125 343.199016 
L 333.502575 341.80419 
L 342.951025 339.811549 
L 352.399475 337.884469 
L 361.847925 331.260302 
L 371.296375 325.496193 
L 380.744825 319.839678 
L 390.193275 313.631492 
L 399.641725 264.169764 
L 409.090175 172.259045 
L 418.538625 113.096811 
L 427.987075 93.670672 
L 437.435525 71.855557 
L 446.883975 64.19338 
L 456.332425 78.307941 
L 465.780875 81.779472 
L 475.229325 82.183803 
L 484.677775 78.822834 
L 494.126225 69.691818 
L 503.574675 64.054491 
L 513.023125 58.207232 
L 522.471575 52.32845 
L 531.920025 54.585391 
L 541.368475 60.124262 
L 550.816925 63.45462 
L 560.265375 67.862965 
L 569.713825 78.122451 
L 579.162275 86.846168 
L 588.610725 98.91372 
L 598.059175 109.948973 
L 607.507625 116.281428 
L 616.956075 131.026928 
L 626.404525 149.237105 
L 635.852975 163.203869 
L 645.301425 181.730658 
L 654.749875 194.30625 
L 664.198325 206.162728 
L 673.646775 218.021948 
L 683.095225 232.207095 
L 692.543675 257.33498 
L 701.992125 272.090987 
L 711.440575 280.8195 
L 720.889025 287.237619 
L 730.337475 292.773977 
L 739.785925 303.059049 
L 749.234375 314.903648 
L 758.682825 322.373026 
L 768.131275 324.500901 
L 777.579725 326.05723 
L 787.028175 332.767289 
L 796.476625 339.125558 
L 805.925075 342.250553 
L 815.373525 346.440742 
L 824.821975 350.256068 
L 834.270425 352.280462 
L 843.718875 352.584053 
L 853.167325 352.80198 
L 862.615775 352.973306 
L 872.064225 353.073361 
L 881.512675 353.116535 
L 890.961125 353.131841 
L 900.409575 353.159024 
L 909.858025 353.188264 
L 919.306475 353.199457 
L 928.754925 353.199686 
L 938.203375 353.20197 
L 947.651825 353.204255 
L 957.100275 353.204711 
L 966.548725 353.20494 
L 975.997175 353.203798 
L 985.445625 353.204026 
" clip-path="url(#p862ff60de0)" style="fill: none; stroke: #f0ad4e; stroke-linecap: square"/>
   </g>
   <g id="line2d_27">
    <path d="M 40.600625 353.211093 
L 50.049075 353.210431 
L 59.497525 353.209547 
L 68.945975 353.204027 
L 78.394425 353.198507 
L 87.842875 353.19939 
L 97.291325 353.199611 
L 106.739775 353.194311 
L 116.188225 353.174659 
L 125.636675 353.143083 
L 135.085125 353.125639 
L 144.533575 353.113716 
L 153.982025 353.091193 
L 163.430475 353.020754 
L 172.878925 352.917415 
L 182.327375 352.7825 
L 191.775825 352.614463 
L 201.224275 352.433177 
L 210.672725 352.104391 
L 220.121175 351.698762 
L 229.569625 351.353635 
L 239.018075 350.839367 
L 248.466525 350.299706 
L 257.914975 349.820326 
L 267.363425 349.255714 
L 276.811875 348.558836 
L 286.260325 347.543328 
L 295.708775 346.795222 
L 305.157225 346.144935 
L 314.605675 345.22835 
L 324.054125 344.285931 
L 333.502575 343.007438 
L 342.951025 341.125028 
L 352.399475 339.264699 
L 361.847925 332.734228 
L 371.296375 327.041953 
L 380.744825 321.55459 
L 390.193275 315.448075 
L 399.641725 266.161176 
L 409.090175 174.621518 
L 418.538625 115.57921 
L 427.987075 96.187628 
L 437.435525 74.292056 
L 446.883975 66.040807 
L 456.332425 79.26493 
L 465.780875 82.105216 
L 475.229325 82.314765 
L 484.677775 78.414588 
L 494.126225 68.587415 
L 503.574675 62.763758 
L 513.023125 56.591 
L 522.471575 50.396822 
L 531.920025 52.691706 
L 541.368475 58.897807 
L 550.816925 62.859369 
L 560.265375 67.006853 
L 569.713825 77.02856 
L 579.162275 85.793193 
L 588.610725 97.548484 
L 598.059175 108.173003 
L 607.507625 114.72114 
L 616.956075 129.515446 
L 626.404525 147.461381 
L 635.852975 161.567199 
L 645.301425 180.278022 
L 654.749875 192.879679 
L 664.198325 205.158953 
L 673.646775 217.445293 
L 683.095225 231.527927 
L 692.543675 256.721746 
L 701.992125 271.650305 
L 711.440575 280.365476 
L 720.889025 286.753525 
L 730.337475 292.257228 
L 739.785925 302.585199 
L 749.234375 314.510734 
L 758.682825 322.034633 
L 768.131275 324.171195 
L 777.579725 325.802323 
L 787.028175 332.690507 
L 796.476625 339.152307 
L 805.925075 342.321821 
L 815.373525 346.511039 
L 824.821975 350.301252 
L 834.270425 352.303562 
L 843.718875 352.588849 
L 853.167325 352.804581 
L 862.615775 352.986529 
L 872.064225 353.084348 
L 881.512675 353.121665 
L 890.961125 353.139992 
L 900.409575 353.166048 
L 909.858025 353.189233 
L 919.306475 353.197844 
L 928.754925 353.198065 
L 938.203375 353.200494 
L 947.651825 353.202702 
L 957.100275 353.202702 
L 966.548725 353.20204 
L 975.997175 353.201157 
L 985.445625 353.20204 
" clip-path="url(#p862ff60de0)" style="fill: none; stroke: #f0ad4e; stroke-linecap: square"/>
   </g>
   <g id="line2d_28">
    <path d="M 40.600625 353.207869 
L 50.049075 353.208104 
L 59.497525 353.207397 
L 68.945975 353.202446 
L 78.394425 353.198203 
L 87.842875 353.197495 
L 97.291325 353.196552 
L 106.739775 353.190894 
L 116.188225 353.174627 
L 125.636675 353.151523 
L 135.085125 353.13785 
L 144.533575 353.12229 
L 153.982025 353.0973 
L 163.430475 353.030581 
L 172.878925 352.928028 
L 182.327375 352.797184 
L 191.775825 352.646537 
L 201.224275 352.48481 
L 210.672725 352.166541 
L 220.121175 351.777546 
L 229.569625 351.445132 
L 239.018075 350.949104 
L 248.466525 350.406162 
L 257.914975 349.922393 
L 267.363425 349.391238 
L 276.811875 348.68704 
L 286.260325 347.68414 
L 295.708775 346.947878 
L 305.157225 346.282579 
L 314.605675 345.405336 
L 324.054125 344.475285 
L 333.502575 343.159303 
L 342.951025 341.190752 
L 352.399475 339.265816 
L 361.847925 332.609523 
L 371.296375 326.757623 
L 380.744825 321.049063 
L 390.193275 314.783886 
L 399.641725 264.855553 
L 409.090175 172.227356 
L 418.538625 112.629786 
L 427.987075 93.029154 
L 437.435525 71.114118 
L 446.883975 63.572331 
L 456.332425 77.903849 
L 465.780875 81.349402 
L 475.229325 81.702327 
L 484.677775 78.388561 
L 494.126225 69.18824 
L 503.574675 63.399051 
L 513.023125 57.184797 
L 522.471575 50.939188 
L 531.920025 53.403058 
L 541.368475 59.362933 
L 550.816925 62.921884 
L 560.265375 67.60727 
L 569.713825 78.023848 
L 579.162275 86.4839 
L 588.610725 98.162945 
L 598.059175 108.935984 
L 607.507625 115.336013 
L 616.956075 130.324108 
L 626.404525 148.675949 
L 635.852975 162.722205 
L 645.301425 181.429799 
L 654.749875 194.106557 
L 664.198325 206.204301 
L 673.646775 218.311712 
L 683.095225 232.428694 
L 692.543675 257.260248 
L 701.992125 271.805361 
L 711.440575 280.561992 
L 720.889025 287.02426 
L 730.337475 292.547753 
L 739.785925 302.653136 
L 749.234375 314.480705 
L 758.682825 322.043947 
L 768.131275 324.152064 
L 777.579725 325.66443 
L 787.028175 332.639699 
L 796.476625 339.333714 
L 805.925075 342.438601 
L 815.373525 346.506074 
L 824.821975 350.262823 
L 834.270425 352.293848 
L 843.718875 352.591606 
L 853.167325 352.821939 
L 862.615775 352.996161 
L 872.064225 353.083626 
L 881.512675 353.115217 
L 890.961125 353.13337 
L 900.409575 353.164254 
L 909.858025 353.192073 
L 919.306475 353.199382 
L 928.754925 353.199382 
L 938.203375 353.201503 
L 947.651825 353.203154 
L 957.100275 353.202918 
L 966.548725 353.203389 
L 975.997175 353.203154 
L 985.445625 353.203389 
" clip-path="url(#p862ff60de0)" style="fill: none; stroke: #f0ad4e; stroke-linecap: square"/>
   </g>
   <g id="line2d_29">
    <path d="M 40.600625 353.206469 
L 50.049075 353.205781 
L 59.497525 353.204405 
L 68.945975 353.200047 
L 78.394425 353.197066 
L 87.842875 353.196837 
L 97.291325 353.19569 
L 106.739775 353.191103 
L 116.188225 353.173672 
L 125.636675 353.141333 
L 135.085125 353.12138 
L 144.533575 353.10716 
L 153.982025 353.081473 
L 163.430475 353.006245 
L 172.878925 352.899368 
L 182.327375 352.765656 
L 191.775825 352.574377 
L 201.224275 352.359704 
L 210.672725 351.993888 
L 220.121175 351.526011 
L 229.569625 351.135425 
L 239.018075 350.589339 
L 248.466525 350.015273 
L 257.914975 349.529965 
L 267.363425 348.938926 
L 276.811875 348.214864 
L 286.260325 347.204341 
L 295.708775 346.487388 
L 305.157225 345.829379 
L 314.605675 344.901193 
L 324.054125 344.043419 
L 333.502575 342.794141 
L 342.951025 340.928825 
L 352.399475 339.128416 
L 361.847925 332.865286 
L 371.296375 327.407179 
L 380.744825 322.166727 
L 390.193275 316.399454 
L 399.641725 269.098692 
L 409.090175 181.234825 
L 418.538625 124.611153 
L 427.987075 106.169917 
L 437.435525 85.274391 
L 446.883975 77.218191 
L 456.332425 89.773121 
L 465.780875 90.981344 
L 475.229325 89.725186 
L 484.677775 85.733553 
L 494.126225 75.642776 
L 503.574675 69.646381 
L 513.023125 62.618593 
L 522.471575 55.573603 
L 531.920025 57.360251 
L 541.368475 61.195925 
L 550.816925 63.303436 
L 560.265375 67.407222 
L 569.713825 76.671417 
L 579.162275 84.72326 
L 588.610725 95.534201 
L 598.059175 105.228659 
L 607.507625 111.593621 
L 616.956075 125.206091 
L 626.404525 141.542568 
L 635.852975 155.031188 
L 645.301425 173.297658 
L 654.749875 185.488836 
L 664.198325 197.588732 
L 673.646775 209.67051 
L 683.095225 224.333409 
L 692.543675 250.084306 
L 701.992125 264.927705 
L 711.440575 273.875854 
L 720.889025 280.523607 
L 730.337475 286.155332 
L 739.785925 297.673593 
L 749.234375 311.262669 
L 758.682825 319.64065 
L 768.131275 322.029804 
L 777.579725 323.771958 
L 787.028175 330.98231 
L 796.476625 337.752078 
L 805.925075 341.219872 
L 815.373525 345.811031 
L 824.821975 349.972843 
L 834.270425 352.209249 
L 843.718875 352.525295 
L 853.167325 352.76428 
L 862.615775 352.964733 
L 872.064225 353.0684 
L 881.512675 353.107619 
L 890.961125 353.128948 
L 900.409575 353.163122 
L 909.858025 353.192938 
L 919.306475 353.201653 
L 928.754925 353.201882 
L 938.203375 353.203488 
L 947.651825 353.204634 
L 957.100275 353.204405 
L 966.548725 353.204634 
L 975.997175 353.204405 
L 985.445625 353.204864 
" clip-path="url(#p862ff60de0)" style="fill: none; stroke: #f0ad4e; stroke-linecap: square"/>
   </g>
   <g id="line2d_30">
    <path d="M 40.600625 353.209848 
L 50.049075 353.209179 
L 59.497525 353.207506 
L 68.945975 353.203491 
L 78.394425 353.200815 
L 87.842875 353.200313 
L 97.291325 353.199477 
L 106.739775 353.196131 
L 116.188225 353.176726 
L 125.636675 353.145109 
L 135.085125 353.126541 
L 144.533575 353.105965 
L 153.982025 353.078865 
L 163.430475 353.009944 
L 172.878925 352.905225 
L 182.327375 352.773907 
L 191.775825 352.611642 
L 201.224275 352.430139 
L 210.672725 352.08403 
L 220.121175 351.645579 
L 229.569625 351.301979 
L 239.018075 350.796615 
L 248.466525 350.2322 
L 257.914975 349.726502 
L 267.363425 349.11943 
L 276.811875 348.348754 
L 286.260325 347.275965 
L 295.708775 346.520177 
L 305.157225 345.863589 
L 314.605675 344.909069 
L 324.054125 343.944345 
L 333.502575 342.633678 
L 342.951025 340.745548 
L 352.399475 338.951264 
L 361.847925 332.667256 
L 371.296375 327.141711 
L 380.744825 321.925307 
L 390.193275 316.218093 
L 399.641725 268.713066 
L 409.090175 180.665187 
L 418.538625 123.808672 
L 427.987075 104.944269 
L 437.435525 83.692728 
L 446.883975 75.324869 
L 456.332425 87.961137 
L 465.780875 89.428716 
L 475.229325 88.236653 
L 484.677775 84.552901 
L 494.126225 75.086489 
L 503.574675 69.421431 
L 513.023125 62.810383 
L 522.471575 56.173239 
L 531.920025 57.962505 
L 541.368475 62.049243 
L 550.816925 64.394224 
L 560.265375 68.376075 
L 569.713825 77.482492 
L 579.162275 85.390322 
L 588.610725 96.18898 
L 598.059175 105.882897 
L 607.507625 112.002465 
L 616.956075 125.623866 
L 626.404525 142.170054 
L 635.852975 155.61748 
L 645.301425 173.690297 
L 654.749875 185.772355 
L 664.198325 197.872814 
L 673.646775 209.947343 
L 683.095225 224.507373 
L 692.543675 250.194939 
L 701.992125 265.105762 
L 711.440575 273.953893 
L 720.889025 280.54219 
L 730.337475 286.372693 
L 739.785925 298.038381 
L 749.234375 311.571791 
L 758.682825 319.9169 
L 768.131275 322.328795 
L 777.579725 323.989085 
L 787.028175 331.117373 
L 796.476625 337.856895 
L 805.925075 341.305279 
L 815.373525 345.876637 
L 824.821975 350.009713 
L 834.270425 352.22689 
L 843.718875 352.541048 
L 853.167325 352.78361 
L 862.615775 352.98067 
L 872.064225 353.082044 
L 881.512675 353.125705 
L 890.961125 353.143604 
L 900.409575 353.168362 
L 909.858025 353.191949 
L 919.306475 353.199644 
L 928.754925 353.200313 
L 938.203375 353.20299 
L 947.651825 353.205499 
L 957.100275 353.205164 
L 966.548725 353.20483 
L 975.997175 353.204328 
L 985.445625 353.204662 
" clip-path="url(#p862ff60de0)" style="fill: none; stroke: #f0ad4e; stroke-linecap: square"/>
   </g>
   <g id="line2d_31">
    <path d="M 40.600625 353.201331 
L 50.049075 353.201331 
L 59.497525 353.200566 
L 68.945975 353.194254 
L 78.394425 353.18909 
L 87.842875 353.188899 
L 97.291325 353.188325 
L 106.739775 353.182014 
L 116.188225 353.15868 
L 125.636675 353.122148 
L 135.085125 353.099388 
L 144.533575 353.083322 
L 153.982025 353.05578 
L 163.430475 352.969712 
L 172.878925 352.849599 
L 182.327375 352.715524 
L 191.775825 352.548552 
L 201.224275 352.353847 
L 210.672725 351.975148 
L 220.121175 351.482073 
L 229.569625 351.085969 
L 239.018075 350.513712 
L 248.466525 349.861124 
L 257.914975 349.256735 
L 267.363425 348.558053 
L 276.811875 347.73333 
L 286.260325 346.585947 
L 295.708775 345.736933 
L 305.157225 345.025437 
L 314.605675 344.05478 
L 324.054125 343.139207 
L 333.502575 341.889307 
L 342.951025 339.973431 
L 352.399475 338.110344 
L 361.847925 331.90254 
L 371.296375 326.485605 
L 380.744825 321.214605 
L 390.193275 315.485148 
L 399.641725 268.291146 
L 409.090175 180.316364 
L 418.538625 123.164477 
L 427.987075 104.239252 
L 437.435525 83.379599 
L 446.883975 75.607842 
L 456.332425 88.419172 
L 465.780875 90.234826 
L 475.229325 89.424256 
L 484.677775 85.567258 
L 494.126225 75.800443 
L 503.574675 69.972103 
L 513.023125 62.811812 
L 522.471575 55.632013 
L 531.920025 57.65729 
L 541.368475 61.973509 
L 550.816925 64.343442 
L 560.265375 68.158936 
L 569.713825 77.351773 
L 579.162275 85.526711 
L 588.610725 96.520283 
L 598.059175 106.395927 
L 607.507625 112.731494 
L 616.956075 126.509082 
L 626.404525 142.794695 
L 635.852975 155.915105 
L 645.301425 173.904674 
L 654.749875 186.057871 
L 664.198325 198.453397 
L 673.646775 210.821954 
L 683.095225 225.40973 
L 692.543675 251.065671 
L 701.992125 265.882961 
L 711.440575 274.673573 
L 720.889025 281.226032 
L 730.337475 287.041557 
L 739.785925 298.49875 
L 749.234375 311.836817 
L 758.682825 320.134546 
L 768.131275 322.496828 
L 777.579725 324.079907 
L 787.028175 331.123528 
L 796.476625 337.903972 
L 805.925075 341.348225 
L 815.373525 345.866226 
L 824.821975 350.002467 
L 834.270425 352.229335 
L 843.718875 352.539946 
L 853.167325 352.764296 
L 862.615775 352.949821 
L 872.064225 353.055972 
L 881.512675 353.099388 
L 890.961125 353.115454 
L 900.409575 353.151985 
L 909.858025 353.189855 
L 919.306475 353.199227 
L 928.754925 353.199418 
L 938.203375 353.200757 
L 947.651825 353.202096 
L 957.100275 353.202096 
L 966.548725 353.202096 
L 975.997175 353.201522 
L 985.445625 353.201522 
" clip-path="url(#p862ff60de0)" style="fill: none; stroke: #f0ad4e; stroke-linecap: square"/>
   </g>
   <g id="line2d_32">
    <path d="M 40.600625 353.198706 
L 50.049075 353.198043 
L 59.497525 353.197159 
L 68.945975 353.192739 
L 78.394425 353.188981 
L 87.842875 353.188097 
L 97.291325 353.186992 
L 106.739775 353.18213 
L 116.188225 353.165776 
L 125.636675 353.139698 
L 135.085125 353.122238 
L 144.533575 353.108094 
L 153.982025 353.084668 
L 163.430475 353.008422 
L 172.878925 352.899025 
L 182.327375 352.766644 
L 191.775825 352.586305 
L 201.224275 352.383203 
L 210.672725 352.034238 
L 220.121175 351.590463 
L 229.569625 351.222934 
L 239.018075 350.719046 
L 248.466525 350.172063 
L 257.914975 349.613366 
L 267.363425 348.928255 
L 276.811875 348.095293 
L 286.260325 346.959335 
L 295.708775 346.160186 
L 305.157225 345.470213 
L 314.605675 344.480339 
L 324.054125 343.518753 
L 333.502575 342.200246 
L 342.951025 340.244144 
L 352.399475 338.383957 
L 361.847925 332.098176 
L 371.296375 326.653534 
L 380.744825 321.343704 
L 390.193275 315.463906 
L 399.641725 268.24231 
L 409.090175 180.762497 
L 418.538625 124.281959 
L 427.987075 105.595009 
L 437.435525 84.705537 
L 446.883975 76.561338 
L 456.332425 88.984607 
L 465.780875 90.343558 
L 475.229325 89.15699 
L 484.677775 85.403024 
L 494.126225 75.95844 
L 503.574675 70.355338 
L 513.023125 63.331626 
L 522.471575 56.285593 
L 531.920025 58.087213 
L 541.368475 61.715428 
L 550.816925 63.574509 
L 560.265375 67.444501 
L 569.713825 76.540121 
L 579.162275 84.581996 
L 588.610725 95.566975 
L 598.059175 105.498651 
L 607.507625 112.061129 
L 616.956075 126.103028 
L 626.404525 142.60116 
L 635.852975 155.935848 
L 645.301425 173.997138 
L 654.749875 186.061939 
L 664.198325 198.344209 
L 673.646775 210.591559 
L 683.095225 225.036569 
L 692.543675 250.667007 
L 701.992125 265.526398 
L 711.440575 274.218024 
L 720.889025 280.761495 
L 730.337475 286.528139 
L 739.785925 297.948495 
L 749.234375 311.307051 
L 758.682825 319.578107 
L 768.131275 321.909252 
L 777.579725 323.593961 
L 787.028175 330.777901 
L 796.476625 337.588345 
L 805.925075 341.096112 
L 815.373525 345.730334 
L 824.821975 349.96454 
L 834.270425 352.234025 
L 843.718875 352.556027 
L 853.167325 352.786092 
L 862.615775 352.968641 
L 872.064225 353.069198 
L 881.512675 353.104337 
L 890.961125 353.121796 
L 900.409575 353.155389 
L 909.858025 353.186992 
L 919.306475 353.198264 
L 928.754925 353.199148 
L 938.203375 353.201137 
L 947.651825 353.202463 
L 957.100275 353.202021 
L 966.548725 353.202021 
L 975.997175 353.201137 
L 985.445625 353.201358 
" clip-path="url(#p862ff60de0)" style="fill: none; stroke: #f0ad4e; stroke-linecap: square"/>
   </g>
   <g id="line2d_33">
    <path d="M 40.600625 353.215272 
L 50.049075 353.215066 
L 59.497525 353.211369 
L 68.945975 353.206233 
L 78.394425 353.204179 
L 87.842875 353.203973 
L 97.291325 353.20233 
L 106.739775 353.198632 
L 116.188225 353.184457 
L 125.636675 353.157135 
L 135.085125 353.140289 
L 144.533575 353.128991 
L 153.982025 353.109886 
L 163.430475 353.047023 
L 172.878925 352.956839 
L 182.327375 352.850015 
L 191.775825 352.706213 
L 201.224275 352.527898 
L 210.672725 352.216258 
L 220.121175 351.825733 
L 229.569625 351.49581 
L 239.018075 351.02455 
L 248.466525 350.552674 
L 257.914975 350.151466 
L 267.363425 349.6346 
L 276.811875 349.004131 
L 286.260325 348.187335 
L 295.708775 347.662868 
L 305.157225 347.107382 
L 314.605675 346.262442 
L 324.054125 345.482213 
L 333.502575 344.343711 
L 342.951025 342.530367 
L 352.399475 340.747632 
L 361.847925 334.258256 
L 371.296375 328.502681 
L 380.744825 322.967328 
L 390.193275 316.867655 
L 399.641725 266.900544 
L 409.090175 174.395754 
L 418.538625 114.916546 
L 427.987075 95.40466 
L 437.435525 73.566056 
L 446.883975 65.835873 
L 456.332425 79.934638 
L 465.780875 82.850944 
L 475.229325 82.759322 
L 484.677775 79.05457 
L 494.126225 69.346081 
L 503.574675 63.452045 
L 513.023125 57.098664 
L 522.471575 50.722891 
L 531.920025 53.091517 
L 541.368475 58.823467 
L 550.816925 62.22603 
L 560.265375 66.854402 
L 569.713825 77.28375 
L 579.162275 85.874691 
L 588.610725 97.576482 
L 598.059175 108.260976 
L 607.507625 114.559917 
L 616.956075 128.858979 
L 626.404525 146.54232 
L 635.852975 160.373819 
L 645.301425 178.778841 
L 654.749875 191.3153 
L 664.198325 203.590039 
L 673.646775 215.870325 
L 683.095225 230.076737 
L 692.543675 255.311741 
L 701.992125 270.123559 
L 711.440575 278.860151 
L 720.889025 285.380343 
L 730.337475 291.032997 
L 739.785925 301.721599 
L 749.234375 314.105628 
L 758.682825 321.849575 
L 768.131275 324.05858 
L 777.579725 325.626434 
L 787.028175 332.440598 
L 796.476625 338.935726 
L 805.925075 342.140458 
L 815.373525 346.368444 
L 824.821975 350.24617 
L 834.270425 352.319385 
L 843.718875 352.614796 
L 853.167325 352.825979 
L 862.615775 352.998131 
L 872.064225 353.093656 
L 881.512675 353.130223 
L 890.961125 353.143782 
L 900.409575 353.16905 
L 909.858025 353.197194 
L 919.306475 353.207055 
L 928.754925 353.207055 
L 938.203375 353.207876 
L 947.651825 353.208903 
L 957.100275 353.209109 
L 966.548725 353.208082 
L 975.997175 353.206849 
L 985.445625 353.207876 
" clip-path="url(#p862ff60de0)" style="fill: none; stroke: #f0ad4e; stroke-linecap: square"/>
   </g>
   <g id="line2d_34">
    <path d="M 40.600625 353.206807 
L 50.049075 353.205973 
L 59.497525 353.20514 
L 68.945975 353.199928 
L 78.394425 353.195134 
L 87.842875 353.194926 
L 97.291325 353.194717 
L 106.739775 353.191382 
L 116.188225 353.173455 
L 125.636675 353.141354 
L 135.085125 353.119676 
L 144.533575 353.10571 
L 153.982025 353.086741 
L 163.430475 353.016285 
L 172.878925 352.910393 
L 182.327375 352.780947 
L 191.775825 352.621483 
L 201.224275 352.449305 
L 210.672725 352.110576 
L 220.121175 351.675335 
L 229.569625 351.297626 
L 239.018075 350.766707 
L 248.466525 350.226825 
L 257.914975 349.727382 
L 267.363425 349.131636 
L 276.811875 348.412905 
L 286.260325 347.382335 
L 295.708775 346.626917 
L 305.157225 345.95071 
L 314.605675 345.022488 
L 324.054125 344.12053 
L 333.502575 342.830859 
L 342.951025 340.901875 
L 352.399475 339.054394 
L 361.847925 332.469501 
L 371.296375 326.671294 
L 380.744825 321.118847 
L 390.193275 315.00213 
L 399.641725 265.897046 
L 409.090175 174.958403 
L 418.538625 116.666154 
L 427.987075 97.6942 
L 437.435525 76.154575 
L 446.883975 68.520352 
L 456.332425 82.267124 
L 465.780875 84.453541 
L 475.229325 83.840286 
L 484.677775 80.358985 
L 494.126225 70.714899 
L 503.574675 64.624238 
L 513.023125 58.720764 
L 522.471575 52.810619 
L 531.920025 55.010795 
L 541.368475 60.501957 
L 550.816925 63.846724 
L 560.265375 67.997354 
L 569.713825 77.694802 
L 579.162275 86.107582 
L 588.610725 97.399245 
L 598.059175 107.68973 
L 607.507625 114.115993 
L 616.956075 128.658205 
L 626.404525 146.220421 
L 635.852975 159.99575 
L 645.301425 178.671291 
L 654.749875 191.221359 
L 664.198325 202.989327 
L 673.646775 214.767302 
L 683.095225 229.220297 
L 692.543675 254.743376 
L 701.992125 269.593883 
L 711.440575 278.453576 
L 720.889025 285.152491 
L 730.337475 290.879201 
L 739.785925 301.693934 
L 749.234375 314.107259 
L 758.682825 321.75399 
L 768.131275 323.95354 
L 777.579725 325.615084 
L 787.028175 332.405091 
L 796.476625 338.76882 
L 805.925075 342.004151 
L 815.373525 346.314452 
L 824.821975 350.191597 
L 834.270425 352.259825 
L 843.718875 352.569371 
L 853.167325 352.795955 
L 862.615775 352.980224 
L 872.064225 353.075068 
L 881.512675 353.110504 
L 890.961125 353.128639 
L 900.409575 353.162408 
L 909.858025 353.195551 
L 919.306475 353.203889 
L 928.754925 353.204097 
L 938.203375 353.205348 
L 947.651825 353.20639 
L 957.100275 353.206599 
L 966.548725 353.206807 
L 975.997175 353.206599 
L 985.445625 353.206807 
" clip-path="url(#p862ff60de0)" style="fill: none; stroke: #f0ad4e; stroke-linecap: square"/>
   </g>
   <g id="line2d_35">
    <path d="M 40.600625 353.21017 
L 50.049075 353.209386 
L 59.497525 353.207228 
L 68.945975 353.202913 
L 78.394425 353.199971 
L 87.842875 353.200363 
L 97.291325 353.200167 
L 106.739775 353.195068 
L 116.188225 353.173296 
L 125.636675 353.138972 
L 135.085125 353.119162 
L 144.533575 353.103667 
L 153.982025 353.077188 
L 163.430475 352.99481 
L 172.878925 352.872616 
L 182.327375 352.723551 
L 191.775825 352.543691 
L 201.224275 352.319897 
L 210.672725 351.891531 
L 220.121175 351.362937 
L 229.569625 350.920253 
L 239.018075 350.352628 
L 248.466525 349.742048 
L 257.914975 349.173639 
L 267.363425 348.549722 
L 276.811875 347.77674 
L 286.260325 346.69739 
L 295.708775 345.929311 
L 305.157225 345.282838 
L 314.605675 344.385112 
L 324.054125 343.457181 
L 333.502575 342.119124 
L 342.951025 340.194808 
L 352.399475 338.403279 
L 361.847925 331.964638 
L 371.296375 326.315456 
L 380.744825 320.844367 
L 390.193275 314.778586 
L 399.641725 265.915569 
L 409.090175 175.05968 
L 418.538625 116.528406 
L 427.987075 97.483941 
L 437.435525 75.917526 
L 446.883975 68.227718 
L 456.332425 81.84091 
L 465.780875 84.310883 
L 475.229325 84.092777 
L 484.677775 80.207469 
L 494.126225 70.430354 
L 503.574675 64.62328 
L 513.023125 58.603591 
L 522.471575 52.56017 
L 531.920025 54.727698 
L 541.368475 60.340595 
L 550.816925 63.820092 
L 560.265375 68.068453 
L 569.713825 77.911274 
L 579.162275 86.417019 
L 588.610725 97.91623 
L 598.059175 108.333541 
L 607.507625 114.745702 
L 616.956075 129.142664 
L 626.404525 146.691181 
L 635.852975 160.65703 
L 645.301425 179.469856 
L 654.749875 192.106082 
L 664.198325 204.247255 
L 673.646775 216.390781 
L 683.095225 230.534724 
L 692.543675 255.505712 
L 701.992125 270.030752 
L 711.440575 278.636723 
L 720.889025 285.041628 
L 730.337475 290.707875 
L 739.785925 301.701048 
L 749.234375 314.303342 
L 758.682825 322.070233 
L 768.131275 324.306016 
L 777.579725 325.898269 
L 787.028175 332.637198 
L 796.476625 339.036218 
L 805.925075 342.201306 
L 815.373525 346.388275 
L 824.821975 350.244163 
L 834.270425 352.291457 
L 843.718875 352.583311 
L 853.167325 352.805536 
L 862.615775 352.981865 
L 872.064225 353.075619 
L 881.512675 353.115828 
L 890.961125 353.139757 
L 900.409575 353.17055 
L 909.858025 353.193695 
L 919.306475 353.200363 
L 928.754925 353.200167 
L 938.203375 353.201932 
L 947.651825 353.20409 
L 957.100275 353.20409 
L 966.548725 353.203502 
L 975.997175 353.203502 
L 985.445625 353.203894 
" clip-path="url(#p862ff60de0)" style="fill: none; stroke: #f0ad4e; stroke-linecap: square"/>
   </g>
   <g id="line2d_36">
    <path d="M 40.600625 353.204944 
L 50.049075 353.204713 
L 59.497525 353.203788 
L 68.945975 353.197778 
L 78.394425 353.191999 
L 87.842875 353.19223 
L 97.291325 353.191768 
L 106.739775 353.186913 
L 116.188225 353.172119 
L 125.636675 353.153163 
L 135.085125 353.141604 
L 144.533575 353.12288 
L 153.982025 353.096296 
L 163.430475 353.036423 
L 172.878925 352.938871 
L 182.327375 352.803407 
L 191.775825 352.637198 
L 201.224275 352.465672 
L 210.672725 352.123544 
L 220.121175 351.693573 
L 229.569625 351.369477 
L 239.018075 350.89281 
L 248.466525 350.411289 
L 257.914975 349.982474 
L 267.363425 349.388143 
L 276.811875 348.68054 
L 286.260325 347.746162 
L 295.708775 347.069536 
L 305.157225 346.423655 
L 314.605675 345.540827 
L 324.054125 344.697067 
L 333.502575 343.42611 
L 342.951025 341.519905 
L 352.399475 339.691835 
L 361.847925 333.150728 
L 371.296375 327.385881 
L 380.744825 321.840642 
L 390.193275 315.762101 
L 399.641725 266.312434 
L 409.090175 174.209415 
L 418.538625 114.487833 
L 427.987075 94.837929 
L 437.435525 73.238591 
L 446.883975 65.5717 
L 456.332425 79.363828 
L 465.780875 82.507933 
L 475.229325 82.777012 
L 484.677775 79.087583 
L 494.126225 69.56835 
L 503.574675 63.815754 
L 513.023125 57.970923 
L 522.471575 52.110835 
L 531.920025 54.543176 
L 541.368475 59.900938 
L 550.816925 62.858491 
L 560.265375 67.317244 
L 569.713825 77.566966 
L 579.162275 86.033233 
L 588.610725 97.539811 
L 598.059175 108.14946 
L 607.507625 114.653812 
L 616.956075 129.110314 
L 626.404525 146.668849 
L 635.852975 160.742308 
L 645.301425 179.682067 
L 654.749875 192.414987 
L 664.198325 204.55034 
L 673.646775 216.708809 
L 683.095225 230.799143 
L 692.543675 255.774446 
L 701.992125 270.423973 
L 711.440575 279.116784 
L 720.889025 285.567505 
L 730.337475 291.220005 
L 739.785925 302.127629 
L 749.234375 314.610426 
L 758.682825 322.212128 
L 768.131275 324.354354 
L 777.579725 325.955187 
L 787.028175 332.64216 
L 796.476625 338.99163 
L 805.925075 342.151223 
L 815.373525 346.360315 
L 824.821975 350.254095 
L 834.270425 352.308016 
L 843.718875 352.59813 
L 853.167325 352.826061 
L 862.615775 352.999668 
L 872.064225 353.082888 
L 881.512675 353.120337 
L 890.961125 353.138137 
L 900.409575 353.166571 
L 909.858025 353.193617 
L 919.306475 353.200321 
L 928.754925 353.200552 
L 938.203375 353.201014 
L 947.651825 353.201939 
L 957.100275 353.201939 
L 966.548725 353.201708 
L 975.997175 353.201477 
L 985.445625 353.201708 
" clip-path="url(#p862ff60de0)" style="fill: none; stroke: #f0ad4e; stroke-linecap: square"/>
   </g>
   <g id="line2d_37">
    <path d="M 40.600625 353.2239 
L 985.445625 353.2239 
" clip-path="url(#p862ff60de0)" style="fill: none; stroke: #dedede; stroke-width: 2; stroke-linecap: square"/>
   </g>
   <g id="text_17">
    <!-- FastQC: Per Sequence GC Content -->
    <g transform="translate(376.386875 19.3575) scale(0.16 -0.16)">
     <defs>
      <path id="DejaVuSans-46" d="M 628 4666 
L 3309 4666 
L 3309 4134 
L 1259 4134 
L 1259 2759 
L 3109 2759 
L 3109 2228 
L 1259 2228 
L 1259 0 
L 628 0 
L 628 4666 
z
" transform="scale(0.015625)"/>
      <path id="DejaVuSans-73" d="M 2834 3397 
L 2834 2853 
Q 2591 2978 2328 3040 
Q 2066 3103 1784 3103 
Q 1356 3103 1142 2972 
Q 928 2841 928 2578 
Q 928 2378 1081 2264 
Q 1234 2150 1697 2047 
L 1894 2003 
Q 2506 1872 2764 1633 
Q 3022 1394 3022 966 
Q 3022 478 2636 193 
Q 2250 -91 1575 -91 
Q 1294 -91 989 -36 
Q 684 19 347 128 
L 347 722 
Q 666 556 975 473 
Q 1284 391 1588 391 
Q 1994 391 2212 530 
Q 2431 669 2431 922 
Q 2431 1156 2273 1281 
Q 2116 1406 1581 1522 
L 1381 1569 
Q 847 1681 609 1914 
Q 372 2147 372 2553 
Q 372 3047 722 3315 
Q 1072 3584 1716 3584 
Q 2034 3584 2315 3537 
Q 2597 3491 2834 3397 
z
" transform="scale(0.015625)"/>
      <path id="DejaVuSans-51" d="M 2522 4238 
Q 1834 4238 1429 3725 
Q 1025 3213 1025 2328 
Q 1025 1447 1429 934 
Q 1834 422 2522 422 
Q 3209 422 3611 934 
Q 4013 1447 4013 2328 
Q 4013 3213 3611 3725 
Q 3209 4238 2522 4238 
z
M 3406 84 
L 4238 -825 
L 3475 -825 
L 2784 -78 
Q 2681 -84 2626 -87 
Q 2572 -91 2522 -91 
Q 1538 -91 948 567 
Q 359 1225 359 2328 
Q 359 3434 948 4092 
Q 1538 4750 2522 4750 
Q 3503 4750 4090 4092 
Q 4678 3434 4678 2328 
Q 4678 1516 4351 937 
Q 4025 359 3406 84 
z
" transform="scale(0.015625)"/>
      <path id="DejaVuSans-3a" d="M 750 794 
L 1409 794 
L 1409 0 
L 750 0 
L 750 794 
z
M 750 3309 
L 1409 3309 
L 1409 2516 
L 750 2516 
L 750 3309 
z
" transform="scale(0.015625)"/>
      <path id="DejaVuSans-53" d="M 3425 4513 
L 3425 3897 
Q 3066 4069 2747 4153 
Q 2428 4238 2131 4238 
Q 1616 4238 1336 4038 
Q 1056 3838 1056 3469 
Q 1056 3159 1242 3001 
Q 1428 2844 1947 2747 
L 2328 2669 
Q 3034 2534 3370 2195 
Q 3706 1856 3706 1288 
Q 3706 609 3251 259 
Q 2797 -91 1919 -91 
Q 1588 -91 1214 -16 
Q 841 59 441 206 
L 441 856 
Q 825 641 1194 531 
Q 1563 422 1919 422 
Q 2459 422 2753 634 
Q 3047 847 3047 1241 
Q 3047 1584 2836 1778 
Q 2625 1972 2144 2069 
L 1759 2144 
Q 1053 2284 737 2584 
Q 422 2884 422 3419 
Q 422 4038 858 4394 
Q 1294 4750 2059 4750 
Q 2388 4750 2728 4690 
Q 3069 4631 3425 4513 
z
" transform="scale(0.015625)"/>
      <path id="DejaVuSans-71" d="M 947 1747 
Q 947 1113 1208 752 
Q 1469 391 1925 391 
Q 2381 391 2643 752 
Q 2906 1113 2906 1747 
Q 2906 2381 2643 2742 
Q 2381 3103 1925 3103 
Q 1469 3103 1208 2742 
Q 947 2381 947 1747 
z
M 2906 525 
Q 2725 213 2448 61 
Q 2172 -91 1784 -91 
Q 1150 -91 751 415 
Q 353 922 353 1747 
Q 353 2572 751 3078 
Q 1150 3584 1784 3584 
Q 2172 3584 2448 3432 
Q 2725 3281 2906 2969 
L 2906 3500 
L 3481 3500 
L 3481 -1331 
L 2906 -1331 
L 2906 525 
z
" transform="scale(0.015625)"/>
      <path id="DejaVuSans-75" d="M 544 1381 
L 544 3500 
L 1119 3500 
L 1119 1403 
Q 1119 906 1312 657 
Q 1506 409 1894 409 
Q 2359 409 2629 706 
Q 2900 1003 2900 1516 
L 2900 3500 
L 3475 3500 
L 3475 0 
L 2900 0 
L 2900 538 
Q 2691 219 2414 64 
Q 2138 -91 1772 -91 
Q 1169 -91 856 284 
Q 544 659 544 1381 
z
M 1991 3584 
L 1991 3584 
z
" transform="scale(0.015625)"/>
      <path id="DejaVuSans-6f" d="M 1959 3097 
Q 1497 3097 1228 2736 
Q 959 2375 959 1747 
Q 959 1119 1226 758 
Q 1494 397 1959 397 
Q 2419 397 2687 759 
Q 2956 1122 2956 1747 
Q 2956 2369 2687 2733 
Q 2419 3097 1959 3097 
z
M 1959 3584 
Q 2709 3584 3137 3096 
Q 3566 2609 3566 1747 
Q 3566 888 3137 398 
Q 2709 -91 1959 -91 
Q 1206 -91 779 398 
Q 353 888 353 1747 
Q 353 2609 779 3096 
Q 1206 3584 1959 3584 
z
" transform="scale(0.015625)"/>
     </defs>
     <use xlink:href="#DejaVuSans-46"/>
     <use xlink:href="#DejaVuSans-61" x="48.394531"/>
     <use xlink:href="#DejaVuSans-73" x="109.673828"/>
     <use xlink:href="#DejaVuSans-74" x="161.773438"/>
     <use xlink:href="#DejaVuSans-51" x="200.982422"/>
     <use xlink:href="#DejaVuSans-43" x="279.693359"/>
     <use xlink:href="#DejaVuSans-3a" x="349.517578"/>
     <use xlink:href="#DejaVuSans-20" x="383.208984"/>
     <use xlink:href="#DejaVuSans-50" x="414.996094"/>
     <use xlink:href="#DejaVuSans-65" x="471.673828"/>
     <use xlink:href="#DejaVuSans-72" x="533.197266"/>
     <use xlink:href="#DejaVuSans-20" x="574.310547"/>
     <use xlink:href="#DejaVuSans-53" x="606.097656"/>
     <use xlink:href="#DejaVuSans-65" x="669.574219"/>
     <use xlink:href="#DejaVuSans-71" x="731.097656"/>
     <use xlink:href="#DejaVuSans-75" x="794.574219"/>
     <use xlink:href="#DejaVuSans-65" x="857.953125"/>
     <use xlink:href="#DejaVuSans-6e" x="919.476562"/>
     <use xlink:href="#DejaVuSans-63" x="982.855469"/>
     <use xlink:href="#DejaVuSans-65" x="1037.835938"/>
     <use xlink:href="#DejaVuSans-20" x="1099.359375"/>
     <use xlink:href="#DejaVuSans-47" x="1131.146484"/>
     <use xlink:href="#DejaVuSans-43" x="1208.636719"/>
     <use xlink:href="#DejaVuSans-20" x="1278.460938"/>
     <use xlink:href="#DejaVuSans-43" x="1310.248047"/>
     <use xlink:href="#DejaVuSans-6f" x="1380.072266"/>
     <use xlink:href="#DejaVuSans-6e" x="1441.253906"/>
     <use xlink:href="#DejaVuSans-74" x="1504.632812"/>
     <use xlink:href="#DejaVuSans-65" x="1543.841797"/>
     <use xlink:href="#DejaVuSans-6e" x="1605.365234"/>
     <use xlink:href="#DejaVuSans-74" x="1668.744141"/>
    </g>
   </g>
  </g>
 </g>
 <defs>
  <clipPath id="p862ff60de0">
   <rect x="40.600625" y="35.2559" width="944.845" height="317.968"/>
  </clipPath>
 </defs>
</svg>
