<?xml version="1.0" encoding="utf-8" standalone="no"?>
<!DOCTYPE svg PUBLIC "-//W3C//DTD SVG 1.1//EN"
  "http://www.w3.org/Graphics/SVG/1.1/DTD/svg11.dtd">
<svg xmlns:xlink="http://www.w3.org/1999/xlink" width="999.820751pt" height="388.844525pt" viewBox="0 0 999.820751 388.844525" xmlns="http://www.w3.org/2000/svg" version="1.1">
 <metadata>
  <rdf:RDF xmlns:dc="http://purl.org/dc/elements/1.1/" xmlns:cc="http://creativecommons.org/ns#" xmlns:rdf="http://www.w3.org/1999/02/22-rdf-syntax-ns#">
   <cc:Work>
    <dc:type rdf:resource="http://purl.org/dc/dcmitype/StillImage"/>
    <dc:date>2024-01-15T17:08:53.715205</dc:date>
    <dc:format>image/svg+xml</dc:format>
    <dc:creator>
     <cc:Agent>
      <dc:title>Matplotlib v3.6.2, https://matplotlib.org/</dc:title>
     </cc:Agent>
    </dc:creator>
   </cc:Work>
  </rdf:RDF>
 </metadata>
 <defs>
  <style type="text/css">*{stroke-linejoin: round; stroke-linecap: butt}</style>
 </defs>
 <g id="figure_1">
  <g id="axes_1">
   <g id="patch_1">
    <path d="M 40.600625 353.2239 
L 990.236266 353.2239 
L 990.236266 35.2559 
L 40.600625 35.2559 
z
" style="fill: #ffffff"/>
   </g>
   <g id="patch_2">
    <path d="M 798.144726 353.2239 
L 2746.115272 353.2239 
L 2746.115272 35.2559 
L 798.144726 35.2559 
z
" clip-path="url(#p5ad881c2eb)" style="fill: #c3e6c3"/>
   </g>
   <g id="patch_3">
    <path d="M 581.703554 353.2239 
L 798.144726 353.2239 
L 798.144726 35.2559 
L 581.703554 35.2559 
z
" clip-path="url(#p5ad881c2eb)" style="fill: #e6dcc3"/>
   </g>
   <g id="patch_4">
    <path d="M 40.600625 353.2239 
L 581.703554 353.2239 
L 581.703554 35.2559 
L 40.600625 35.2559 
z
" clip-path="url(#p5ad881c2eb)" style="fill: #e6c3c3"/>
   </g>
   <g id="matplotlib.axis_1">
    <g id="xtick_1">
     <g id="text_1">
      <!-- 0 -->
      <g transform="translate(38.055625 366.30265) scale(0.08 -0.08)">
       <defs>
        <path id="DejaVuSans-30" d="M 2034 4250 
Q 1547 4250 1301 3770 
Q 1056 3291 1056 2328 
Q 1056 1369 1301 889 
Q 1547 409 2034 409 
Q 2525 409 2770 889 
Q 3016 1369 3016 2328 
Q 3016 3291 2770 3770 
Q 2525 4250 2034 4250 
z
M 2034 4750 
Q 2819 4750 3233 4129 
Q 3647 3509 3647 2328 
Q 3647 1150 3233 529 
Q 2819 -91 2034 -91 
Q 1250 -91 836 529 
Q 422 1150 422 2328 
Q 422 3509 836 4129 
Q 1250 4750 2034 4750 
z
" transform="scale(0.015625)"/>
       </defs>
       <use xlink:href="#DejaVuSans-30"/>
      </g>
     </g>
    </g>
    <g id="xtick_2">
     <g id="text_2">
      <!-- 5 -->
      <g transform="translate(173.331357 366.30265) scale(0.08 -0.08)">
       <defs>
        <path id="DejaVuSans-35" d="M 691 4666 
L 3169 4666 
L 3169 4134 
L 1269 4134 
L 1269 2991 
Q 1406 3038 1543 3061 
Q 1681 3084 1819 3084 
Q 2600 3084 3056 2656 
Q 3513 2228 3513 1497 
Q 3513 744 3044 326 
Q 2575 -91 1722 -91 
Q 1428 -91 1123 -41 
Q 819 9 494 109 
L 494 744 
Q 775 591 1075 516 
Q 1375 441 1709 441 
Q 2250 441 2565 725 
Q 2881 1009 2881 1497 
Q 2881 1984 2565 2268 
Q 2250 2553 1709 2553 
Q 1456 2553 1204 2497 
Q 953 2441 691 2322 
L 691 4666 
z
" transform="scale(0.015625)"/>
       </defs>
       <use xlink:href="#DejaVuSans-35"/>
      </g>
     </g>
    </g>
    <g id="xtick_3">
     <g id="text_3">
      <!-- 10 -->
      <g transform="translate(306.06209 366.30265) scale(0.08 -0.08)">
       <defs>
        <path id="DejaVuSans-31" d="M 794 531 
L 1825 531 
L 1825 4091 
L 703 3866 
L 703 4441 
L 1819 4666 
L 2450 4666 
L 2450 531 
L 3481 531 
L 3481 0 
L 794 0 
L 794 531 
z
" transform="scale(0.015625)"/>
       </defs>
       <use xlink:href="#DejaVuSans-31"/>
       <use xlink:href="#DejaVuSans-30" x="63.623047"/>
      </g>
     </g>
    </g>
    <g id="xtick_4">
     <g id="text_4">
      <!-- 15 -->
      <g transform="translate(441.337822 366.30265) scale(0.08 -0.08)">
       <use xlink:href="#DejaVuSans-31"/>
       <use xlink:href="#DejaVuSans-35" x="63.623047"/>
      </g>
     </g>
    </g>
    <g id="xtick_5">
     <g id="text_5">
      <!-- 20 -->
      <g transform="translate(576.613554 366.30265) scale(0.08 -0.08)">
       <defs>
        <path id="DejaVuSans-32" d="M 1228 531 
L 3431 531 
L 3431 0 
L 469 0 
L 469 531 
Q 828 903 1448 1529 
Q 2069 2156 2228 2338 
Q 2531 2678 2651 2914 
Q 2772 3150 2772 3378 
Q 2772 3750 2511 3984 
Q 2250 4219 1831 4219 
Q 1534 4219 1204 4116 
Q 875 4013 500 3803 
L 500 4441 
Q 881 4594 1212 4672 
Q 1544 4750 1819 4750 
Q 2544 4750 2975 4387 
Q 3406 4025 3406 3419 
Q 3406 3131 3298 2873 
Q 3191 2616 2906 2266 
Q 2828 2175 2409 1742 
Q 1991 1309 1228 531 
z
" transform="scale(0.015625)"/>
       </defs>
       <use xlink:href="#DejaVuSans-32"/>
       <use xlink:href="#DejaVuSans-30" x="63.623047"/>
      </g>
     </g>
    </g>
    <g id="xtick_6">
     <g id="text_6">
      <!-- 25 -->
      <g transform="translate(711.889287 366.30265) scale(0.08 -0.08)">
       <use xlink:href="#DejaVuSans-32"/>
       <use xlink:href="#DejaVuSans-35" x="63.623047"/>
      </g>
     </g>
    </g>
    <g id="xtick_7">
     <g id="text_7">
      <!-- 30 -->
      <g transform="translate(847.165019 366.30265) scale(0.08 -0.08)">
       <defs>
        <path id="DejaVuSans-33" d="M 2597 2516 
Q 3050 2419 3304 2112 
Q 3559 1806 3559 1356 
Q 3559 666 3084 287 
Q 2609 -91 1734 -91 
Q 1441 -91 1130 -33 
Q 819 25 488 141 
L 488 750 
Q 750 597 1062 519 
Q 1375 441 1716 441 
Q 2309 441 2620 675 
Q 2931 909 2931 1356 
Q 2931 1769 2642 2001 
Q 2353 2234 1838 2234 
L 1294 2234 
L 1294 2753 
L 1863 2753 
Q 2328 2753 2575 2939 
Q 2822 3125 2822 3475 
Q 2822 3834 2567 4026 
Q 2313 4219 1838 4219 
Q 1578 4219 1281 4162 
Q 984 4106 628 3988 
L 628 4550 
Q 988 4650 1302 4700 
Q 1616 4750 1894 4750 
Q 2613 4750 3031 4423 
Q 3450 4097 3450 3541 
Q 3450 3153 3228 2886 
Q 3006 2619 2597 2516 
z
" transform="scale(0.015625)"/>
       </defs>
       <use xlink:href="#DejaVuSans-33"/>
       <use xlink:href="#DejaVuSans-30" x="63.623047"/>
      </g>
     </g>
    </g>
    <g id="xtick_8">
     <g id="text_8">
      <!-- 35 -->
      <g transform="translate(982.440751 366.30265) scale(0.08 -0.08)">
       <use xlink:href="#DejaVuSans-33"/>
       <use xlink:href="#DejaVuSans-35" x="63.623047"/>
      </g>
     </g>
    </g>
    <g id="text_9">
     <!-- Mean Sequence Quality (Phred Score) -->
     <g transform="translate(420.626258 379.564837) scale(0.1 -0.1)">
      <defs>
       <path id="DejaVuSans-4d" d="M 628 4666 
L 1569 4666 
L 2759 1491 
L 3956 4666 
L 4897 4666 
L 4897 0 
L 4281 0 
L 4281 4097 
L 3078 897 
L 2444 897 
L 1241 4097 
L 1241 0 
L 628 0 
L 628 4666 
z
" transform="scale(0.015625)"/>
       <path id="DejaVuSans-65" d="M 3597 1894 
L 3597 1613 
L 953 1613 
Q 991 1019 1311 708 
Q 1631 397 2203 397 
Q 2534 397 2845 478 
Q 3156 559 3463 722 
L 3463 178 
Q 3153 47 2828 -22 
Q 2503 -91 2169 -91 
Q 1331 -91 842 396 
Q 353 884 353 1716 
Q 353 2575 817 3079 
Q 1281 3584 2069 3584 
Q 2775 3584 3186 3129 
Q 3597 2675 3597 1894 
z
M 3022 2063 
Q 3016 2534 2758 2815 
Q 2500 3097 2075 3097 
Q 1594 3097 1305 2825 
Q 1016 2553 972 2059 
L 3022 2063 
z
" transform="scale(0.015625)"/>
       <path id="DejaVuSans-61" d="M 2194 1759 
Q 1497 1759 1228 1600 
Q 959 1441 959 1056 
Q 959 750 1161 570 
Q 1363 391 1709 391 
Q 2188 391 2477 730 
Q 2766 1069 2766 1631 
L 2766 1759 
L 2194 1759 
z
M 3341 1997 
L 3341 0 
L 2766 0 
L 2766 531 
Q 2569 213 2275 61 
Q 1981 -91 1556 -91 
Q 1019 -91 701 211 
Q 384 513 384 1019 
Q 384 1609 779 1909 
Q 1175 2209 1959 2209 
L 2766 2209 
L 2766 2266 
Q 2766 2663 2505 2880 
Q 2244 3097 1772 3097 
Q 1472 3097 1187 3025 
Q 903 2953 641 2809 
L 641 3341 
Q 956 3463 1253 3523 
Q 1550 3584 1831 3584 
Q 2591 3584 2966 3190 
Q 3341 2797 3341 1997 
z
" transform="scale(0.015625)"/>
       <path id="DejaVuSans-6e" d="M 3513 2113 
L 3513 0 
L 2938 0 
L 2938 2094 
Q 2938 2591 2744 2837 
Q 2550 3084 2163 3084 
Q 1697 3084 1428 2787 
Q 1159 2491 1159 1978 
L 1159 0 
L 581 0 
L 581 3500 
L 1159 3500 
L 1159 2956 
Q 1366 3272 1645 3428 
Q 1925 3584 2291 3584 
Q 2894 3584 3203 3211 
Q 3513 2838 3513 2113 
z
" transform="scale(0.015625)"/>
       <path id="DejaVuSans-20" transform="scale(0.015625)"/>
       <path id="DejaVuSans-53" d="M 3425 4513 
L 3425 3897 
Q 3066 4069 2747 4153 
Q 2428 4238 2131 4238 
Q 1616 4238 1336 4038 
Q 1056 3838 1056 3469 
Q 1056 3159 1242 3001 
Q 1428 2844 1947 2747 
L 2328 2669 
Q 3034 2534 3370 2195 
Q 3706 1856 3706 1288 
Q 3706 609 3251 259 
Q 2797 -91 1919 -91 
Q 1588 -91 1214 -16 
Q 841 59 441 206 
L 441 856 
Q 825 641 1194 531 
Q 1563 422 1919 422 
Q 2459 422 2753 634 
Q 3047 847 3047 1241 
Q 3047 1584 2836 1778 
Q 2625 1972 2144 2069 
L 1759 2144 
Q 1053 2284 737 2584 
Q 422 2884 422 3419 
Q 422 4038 858 4394 
Q 1294 4750 2059 4750 
Q 2388 4750 2728 4690 
Q 3069 4631 3425 4513 
z
" transform="scale(0.015625)"/>
       <path id="DejaVuSans-71" d="M 947 1747 
Q 947 1113 1208 752 
Q 1469 391 1925 391 
Q 2381 391 2643 752 
Q 2906 1113 2906 1747 
Q 2906 2381 2643 2742 
Q 2381 3103 1925 3103 
Q 1469 3103 1208 2742 
Q 947 2381 947 1747 
z
M 2906 525 
Q 2725 213 2448 61 
Q 2172 -91 1784 -91 
Q 1150 -91 751 415 
Q 353 922 353 1747 
Q 353 2572 751 3078 
Q 1150 3584 1784 3584 
Q 2172 3584 2448 3432 
Q 2725 3281 2906 2969 
L 2906 3500 
L 3481 3500 
L 3481 -1331 
L 2906 -1331 
L 2906 525 
z
" transform="scale(0.015625)"/>
       <path id="DejaVuSans-75" d="M 544 1381 
L 544 3500 
L 1119 3500 
L 1119 1403 
Q 1119 906 1312 657 
Q 1506 409 1894 409 
Q 2359 409 2629 706 
Q 2900 1003 2900 1516 
L 2900 3500 
L 3475 3500 
L 3475 0 
L 2900 0 
L 2900 538 
Q 2691 219 2414 64 
Q 2138 -91 1772 -91 
Q 1169 -91 856 284 
Q 544 659 544 1381 
z
M 1991 3584 
L 1991 3584 
z
" transform="scale(0.015625)"/>
       <path id="DejaVuSans-63" d="M 3122 3366 
L 3122 2828 
Q 2878 2963 2633 3030 
Q 2388 3097 2138 3097 
Q 1578 3097 1268 2742 
Q 959 2388 959 1747 
Q 959 1106 1268 751 
Q 1578 397 2138 397 
Q 2388 397 2633 464 
Q 2878 531 3122 666 
L 3122 134 
Q 2881 22 2623 -34 
Q 2366 -91 2075 -91 
Q 1284 -91 818 406 
Q 353 903 353 1747 
Q 353 2603 823 3093 
Q 1294 3584 2113 3584 
Q 2378 3584 2631 3529 
Q 2884 3475 3122 3366 
z
" transform="scale(0.015625)"/>
       <path id="DejaVuSans-51" d="M 2522 4238 
Q 1834 4238 1429 3725 
Q 1025 3213 1025 2328 
Q 1025 1447 1429 934 
Q 1834 422 2522 422 
Q 3209 422 3611 934 
Q 4013 1447 4013 2328 
Q 4013 3213 3611 3725 
Q 3209 4238 2522 4238 
z
M 3406 84 
L 4238 -825 
L 3475 -825 
L 2784 -78 
Q 2681 -84 2626 -87 
Q 2572 -91 2522 -91 
Q 1538 -91 948 567 
Q 359 1225 359 2328 
Q 359 3434 948 4092 
Q 1538 4750 2522 4750 
Q 3503 4750 4090 4092 
Q 4678 3434 4678 2328 
Q 4678 1516 4351 937 
Q 4025 359 3406 84 
z
" transform="scale(0.015625)"/>
       <path id="DejaVuSans-6c" d="M 603 4863 
L 1178 4863 
L 1178 0 
L 603 0 
L 603 4863 
z
" transform="scale(0.015625)"/>
       <path id="DejaVuSans-69" d="M 603 3500 
L 1178 3500 
L 1178 0 
L 603 0 
L 603 3500 
z
M 603 4863 
L 1178 4863 
L 1178 4134 
L 603 4134 
L 603 4863 
z
" transform="scale(0.015625)"/>
       <path id="DejaVuSans-74" d="M 1172 4494 
L 1172 3500 
L 2356 3500 
L 2356 3053 
L 1172 3053 
L 1172 1153 
Q 1172 725 1289 603 
Q 1406 481 1766 481 
L 2356 481 
L 2356 0 
L 1766 0 
Q 1100 0 847 248 
Q 594 497 594 1153 
L 594 3053 
L 172 3053 
L 172 3500 
L 594 3500 
L 594 4494 
L 1172 4494 
z
" transform="scale(0.015625)"/>
       <path id="DejaVuSans-79" d="M 2059 -325 
Q 1816 -950 1584 -1140 
Q 1353 -1331 966 -1331 
L 506 -1331 
L 506 -850 
L 844 -850 
Q 1081 -850 1212 -737 
Q 1344 -625 1503 -206 
L 1606 56 
L 191 3500 
L 800 3500 
L 1894 763 
L 2988 3500 
L 3597 3500 
L 2059 -325 
z
" transform="scale(0.015625)"/>
       <path id="DejaVuSans-28" d="M 1984 4856 
Q 1566 4138 1362 3434 
Q 1159 2731 1159 2009 
Q 1159 1288 1364 580 
Q 1569 -128 1984 -844 
L 1484 -844 
Q 1016 -109 783 600 
Q 550 1309 550 2009 
Q 550 2706 781 3412 
Q 1013 4119 1484 4856 
L 1984 4856 
z
" transform="scale(0.015625)"/>
       <path id="DejaVuSans-50" d="M 1259 4147 
L 1259 2394 
L 2053 2394 
Q 2494 2394 2734 2622 
Q 2975 2850 2975 3272 
Q 2975 3691 2734 3919 
Q 2494 4147 2053 4147 
L 1259 4147 
z
M 628 4666 
L 2053 4666 
Q 2838 4666 3239 4311 
Q 3641 3956 3641 3272 
Q 3641 2581 3239 2228 
Q 2838 1875 2053 1875 
L 1259 1875 
L 1259 0 
L 628 0 
L 628 4666 
z
" transform="scale(0.015625)"/>
       <path id="DejaVuSans-68" d="M 3513 2113 
L 3513 0 
L 2938 0 
L 2938 2094 
Q 2938 2591 2744 2837 
Q 2550 3084 2163 3084 
Q 1697 3084 1428 2787 
Q 1159 2491 1159 1978 
L 1159 0 
L 581 0 
L 581 4863 
L 1159 4863 
L 1159 2956 
Q 1366 3272 1645 3428 
Q 1925 3584 2291 3584 
Q 2894 3584 3203 3211 
Q 3513 2838 3513 2113 
z
" transform="scale(0.015625)"/>
       <path id="DejaVuSans-72" d="M 2631 2963 
Q 2534 3019 2420 3045 
Q 2306 3072 2169 3072 
Q 1681 3072 1420 2755 
Q 1159 2438 1159 1844 
L 1159 0 
L 581 0 
L 581 3500 
L 1159 3500 
L 1159 2956 
Q 1341 3275 1631 3429 
Q 1922 3584 2338 3584 
Q 2397 3584 2469 3576 
Q 2541 3569 2628 3553 
L 2631 2963 
z
" transform="scale(0.015625)"/>
       <path id="DejaVuSans-64" d="M 2906 2969 
L 2906 4863 
L 3481 4863 
L 3481 0 
L 2906 0 
L 2906 525 
Q 2725 213 2448 61 
Q 2172 -91 1784 -91 
Q 1150 -91 751 415 
Q 353 922 353 1747 
Q 353 2572 751 3078 
Q 1150 3584 1784 3584 
Q 2172 3584 2448 3432 
Q 2725 3281 2906 2969 
z
M 947 1747 
Q 947 1113 1208 752 
Q 1469 391 1925 391 
Q 2381 391 2643 752 
Q 2906 1113 2906 1747 
Q 2906 2381 2643 2742 
Q 2381 3103 1925 3103 
Q 1469 3103 1208 2742 
Q 947 2381 947 1747 
z
" transform="scale(0.015625)"/>
       <path id="DejaVuSans-6f" d="M 1959 3097 
Q 1497 3097 1228 2736 
Q 959 2375 959 1747 
Q 959 1119 1226 758 
Q 1494 397 1959 397 
Q 2419 397 2687 759 
Q 2956 1122 2956 1747 
Q 2956 2369 2687 2733 
Q 2419 3097 1959 3097 
z
M 1959 3584 
Q 2709 3584 3137 3096 
Q 3566 2609 3566 1747 
Q 3566 888 3137 398 
Q 2709 -91 1959 -91 
Q 1206 -91 779 398 
Q 353 888 353 1747 
Q 353 2609 779 3096 
Q 1206 3584 1959 3584 
z
" transform="scale(0.015625)"/>
       <path id="DejaVuSans-29" d="M 513 4856 
L 1013 4856 
Q 1481 4119 1714 3412 
Q 1947 2706 1947 2009 
Q 1947 1309 1714 600 
Q 1481 -109 1013 -844 
L 513 -844 
Q 928 -128 1133 580 
Q 1338 1288 1338 2009 
Q 1338 2731 1133 3434 
Q 928 4138 513 4856 
z
" transform="scale(0.015625)"/>
      </defs>
      <use xlink:href="#DejaVuSans-4d"/>
      <use xlink:href="#DejaVuSans-65" x="86.279297"/>
      <use xlink:href="#DejaVuSans-61" x="147.802734"/>
      <use xlink:href="#DejaVuSans-6e" x="209.082031"/>
      <use xlink:href="#DejaVuSans-20" x="272.460938"/>
      <use xlink:href="#DejaVuSans-53" x="304.248047"/>
      <use xlink:href="#DejaVuSans-65" x="367.724609"/>
      <use xlink:href="#DejaVuSans-71" x="429.248047"/>
      <use xlink:href="#DejaVuSans-75" x="492.724609"/>
      <use xlink:href="#DejaVuSans-65" x="556.103516"/>
      <use xlink:href="#DejaVuSans-6e" x="617.626953"/>
      <use xlink:href="#DejaVuSans-63" x="681.005859"/>
      <use xlink:href="#DejaVuSans-65" x="735.986328"/>
      <use xlink:href="#DejaVuSans-20" x="797.509766"/>
      <use xlink:href="#DejaVuSans-51" x="829.296875"/>
      <use xlink:href="#DejaVuSans-75" x="908.007812"/>
      <use xlink:href="#DejaVuSans-61" x="971.386719"/>
      <use xlink:href="#DejaVuSans-6c" x="1032.666016"/>
      <use xlink:href="#DejaVuSans-69" x="1060.449219"/>
      <use xlink:href="#DejaVuSans-74" x="1088.232422"/>
      <use xlink:href="#DejaVuSans-79" x="1127.441406"/>
      <use xlink:href="#DejaVuSans-20" x="1186.621094"/>
      <use xlink:href="#DejaVuSans-28" x="1218.408203"/>
      <use xlink:href="#DejaVuSans-50" x="1257.421875"/>
      <use xlink:href="#DejaVuSans-68" x="1317.724609"/>
      <use xlink:href="#DejaVuSans-72" x="1381.103516"/>
      <use xlink:href="#DejaVuSans-65" x="1419.966797"/>
      <use xlink:href="#DejaVuSans-64" x="1481.490234"/>
      <use xlink:href="#DejaVuSans-20" x="1544.966797"/>
      <use xlink:href="#DejaVuSans-53" x="1576.753906"/>
      <use xlink:href="#DejaVuSans-63" x="1640.230469"/>
      <use xlink:href="#DejaVuSans-6f" x="1695.210938"/>
      <use xlink:href="#DejaVuSans-72" x="1756.392578"/>
      <use xlink:href="#DejaVuSans-65" x="1795.255859"/>
      <use xlink:href="#DejaVuSans-29" x="1856.779297"/>
     </g>
    </g>
   </g>
   <g id="matplotlib.axis_2">
    <g id="ytick_1">
     <g id="line2d_1">
      <path d="M 40.600625 353.2239 
L 990.236266 353.2239 
" clip-path="url(#p5ad881c2eb)" style="fill: none; stroke: #dedede; stroke-linecap: square"/>
     </g>
     <g id="text_10">
      <!-- 0.0 -->
      <g transform="translate(20.878125 356.263275) scale(0.08 -0.08)">
       <defs>
        <path id="DejaVuSans-2e" d="M 684 794 
L 1344 794 
L 1344 0 
L 684 0 
L 684 794 
z
" transform="scale(0.015625)"/>
       </defs>
       <use xlink:href="#DejaVuSans-30"/>
       <use xlink:href="#DejaVuSans-2e" x="63.623047"/>
       <use xlink:href="#DejaVuSans-30" x="95.410156"/>
      </g>
     </g>
    </g>
    <g id="ytick_2">
     <g id="line2d_2">
      <path d="M 40.600625 295.463591 
L 990.236266 295.463591 
" clip-path="url(#p5ad881c2eb)" style="fill: none; stroke: #dedede; stroke-linecap: square"/>
     </g>
     <g id="text_11">
      <!-- 0.5 -->
      <g transform="translate(20.878125 298.502966) scale(0.08 -0.08)">
       <use xlink:href="#DejaVuSans-30"/>
       <use xlink:href="#DejaVuSans-2e" x="63.623047"/>
       <use xlink:href="#DejaVuSans-35" x="95.410156"/>
      </g>
     </g>
    </g>
    <g id="ytick_3">
     <g id="line2d_3">
      <path d="M 40.600625 237.703282 
L 990.236266 237.703282 
" clip-path="url(#p5ad881c2eb)" style="fill: none; stroke: #dedede; stroke-linecap: square"/>
     </g>
     <g id="text_12">
      <!-- 1.0 -->
      <g transform="translate(20.878125 240.742657) scale(0.08 -0.08)">
       <use xlink:href="#DejaVuSans-31"/>
       <use xlink:href="#DejaVuSans-2e" x="63.623047"/>
       <use xlink:href="#DejaVuSans-30" x="95.410156"/>
      </g>
     </g>
    </g>
    <g id="ytick_4">
     <g id="line2d_4">
      <path d="M 40.600625 179.942973 
L 990.236266 179.942973 
" clip-path="url(#p5ad881c2eb)" style="fill: none; stroke: #dedede; stroke-linecap: square"/>
     </g>
     <g id="text_13">
      <!-- 1.5 -->
      <g transform="translate(20.878125 182.982348) scale(0.08 -0.08)">
       <use xlink:href="#DejaVuSans-31"/>
       <use xlink:href="#DejaVuSans-2e" x="63.623047"/>
       <use xlink:href="#DejaVuSans-35" x="95.410156"/>
      </g>
     </g>
    </g>
    <g id="ytick_5">
     <g id="line2d_5">
      <path d="M 40.600625 122.182664 
L 990.236266 122.182664 
" clip-path="url(#p5ad881c2eb)" style="fill: none; stroke: #dedede; stroke-linecap: square"/>
     </g>
     <g id="text_14">
      <!-- 2.0 -->
      <g transform="translate(20.878125 125.222039) scale(0.08 -0.08)">
       <use xlink:href="#DejaVuSans-32"/>
       <use xlink:href="#DejaVuSans-2e" x="63.623047"/>
       <use xlink:href="#DejaVuSans-30" x="95.410156"/>
      </g>
     </g>
    </g>
    <g id="ytick_6">
     <g id="line2d_6">
      <path d="M 40.600625 64.422355 
L 990.236266 64.422355 
" clip-path="url(#p5ad881c2eb)" style="fill: none; stroke: #dedede; stroke-linecap: square"/>
     </g>
     <g id="text_15">
      <!-- 2.5 -->
      <g transform="translate(20.878125 67.46173) scale(0.08 -0.08)">
       <use xlink:href="#DejaVuSans-32"/>
       <use xlink:href="#DejaVuSans-2e" x="63.623047"/>
       <use xlink:href="#DejaVuSans-35" x="95.410156"/>
      </g>
     </g>
    </g>
    <g id="text_16">
     <!-- Count -->
     <g transform="translate(14.798438 209.088338) rotate(-90) scale(0.1 -0.1)">
      <defs>
       <path id="DejaVuSans-43" d="M 4122 4306 
L 4122 3641 
Q 3803 3938 3442 4084 
Q 3081 4231 2675 4231 
Q 1875 4231 1450 3742 
Q 1025 3253 1025 2328 
Q 1025 1406 1450 917 
Q 1875 428 2675 428 
Q 3081 428 3442 575 
Q 3803 722 4122 1019 
L 4122 359 
Q 3791 134 3420 21 
Q 3050 -91 2638 -91 
Q 1578 -91 968 557 
Q 359 1206 359 2328 
Q 359 3453 968 4101 
Q 1578 4750 2638 4750 
Q 3056 4750 3426 4639 
Q 3797 4528 4122 4306 
z
" transform="scale(0.015625)"/>
      </defs>
      <use xlink:href="#DejaVuSans-43"/>
      <use xlink:href="#DejaVuSans-6f" x="69.824219"/>
      <use xlink:href="#DejaVuSans-75" x="131.005859"/>
      <use xlink:href="#DejaVuSans-6e" x="194.384766"/>
      <use xlink:href="#DejaVuSans-74" x="257.763672"/>
     </g>
    </g>
    <g id="text_17">
     <!-- 1e6 -->
     <g transform="translate(40.600625 32.2559) scale(0.1 -0.1)">
      <defs>
       <path id="DejaVuSans-36" d="M 2113 2584 
Q 1688 2584 1439 2293 
Q 1191 2003 1191 1497 
Q 1191 994 1439 701 
Q 1688 409 2113 409 
Q 2538 409 2786 701 
Q 3034 994 3034 1497 
Q 3034 2003 2786 2293 
Q 2538 2584 2113 2584 
z
M 3366 4563 
L 3366 3988 
Q 3128 4100 2886 4159 
Q 2644 4219 2406 4219 
Q 1781 4219 1451 3797 
Q 1122 3375 1075 2522 
Q 1259 2794 1537 2939 
Q 1816 3084 2150 3084 
Q 2853 3084 3261 2657 
Q 3669 2231 3669 1497 
Q 3669 778 3244 343 
Q 2819 -91 2113 -91 
Q 1303 -91 875 529 
Q 447 1150 447 2328 
Q 447 3434 972 4092 
Q 1497 4750 2381 4750 
Q 2619 4750 2861 4703 
Q 3103 4656 3366 4563 
z
" transform="scale(0.015625)"/>
      </defs>
      <use xlink:href="#DejaVuSans-31"/>
      <use xlink:href="#DejaVuSans-65" x="63.623047"/>
      <use xlink:href="#DejaVuSans-36" x="125.146484"/>
     </g>
    </g>
   </g>
   <g id="line2d_7">
    <path d="M 365.262383 353.223784 
L 392.317529 353.223207 
L 419.372676 353.216507 
L 446.427822 353.199756 
L 473.482968 353.145693 
L 500.538115 353.04311 
L 527.593261 352.616031 
L 554.648408 352.018211 
L 581.703554 349.797096 
L 608.758701 347.291108 
L 635.813847 345.437926 
L 662.868994 345.3901 
L 689.92414 346.282151 
L 716.979287 346.750702 
L 744.034433 347.418758 
L 771.08958 347.085943 
L 798.144726 346.818975 
L 825.199873 346.417656 
L 852.255019 344.827399 
L 879.310166 340.771933 
L 906.365312 312.06298 
L 933.420458 265.821347 
L 960.475605 103.603252 
" clip-path="url(#p5ad881c2eb)" style="fill: none; stroke: #5cb85c; stroke-linecap: square"/>
   </g>
   <g id="line2d_8">
    <path d="M 365.262383 353.223553 
L 392.317529 353.223553 
L 419.372676 353.21951 
L 446.427822 353.208536 
L 473.482968 353.175612 
L 500.538115 353.102257 
L 527.593261 352.819924 
L 554.648408 352.444829 
L 581.703554 351.121309 
L 608.758701 349.570329 
L 635.813847 348.058742 
L 662.868994 347.441978 
L 689.92414 347.65107 
L 716.979287 347.764049 
L 744.034433 348.252701 
L 771.08958 347.873216 
L 798.144726 347.672441 
L 825.199873 347.345056 
L 852.255019 346.027774 
L 879.310166 342.637706 
L 906.365312 317.946791 
L 933.420458 276.283125 
L 960.475605 134.880459 
" clip-path="url(#p5ad881c2eb)" style="fill: none; stroke: #5cb85c; stroke-linecap: square"/>
   </g>
   <g id="line2d_9">
    <path d="M 365.262383 353.223669 
L 392.317529 353.223322 
L 419.372676 353.216969 
L 446.427822 353.202298 
L 473.482968 353.154472 
L 500.538115 353.058706 
L 527.593261 352.705675 
L 554.648408 352.263693 
L 581.703554 350.675284 
L 608.758701 348.871661 
L 635.813847 347.198114 
L 662.868994 346.626633 
L 689.92414 346.935651 
L 716.979287 347.267657 
L 744.034433 347.795586 
L 771.08958 347.509442 
L 798.144726 347.290992 
L 825.199873 346.913009 
L 852.255019 345.534617 
L 879.310166 341.812658 
L 906.365312 314.976987 
L 933.420458 271.889298 
L 960.475605 126.502673 
" clip-path="url(#p5ad881c2eb)" style="fill: none; stroke: #5cb85c; stroke-linecap: square"/>
   </g>
   <g id="line2d_10">
    <path d="M 365.262383 353.223553 
L 392.317529 353.223322 
L 419.372676 353.21951 
L 446.427822 353.200796 
L 473.482968 353.149967 
L 500.538115 353.043919 
L 527.593261 352.666975 
L 554.648408 352.190453 
L 581.703554 350.448517 
L 608.758701 348.476234 
L 635.813847 346.64142 
L 662.868994 345.892384 
L 689.92414 346.072827 
L 716.979287 346.370986 
L 744.034433 347.012356 
L 771.08958 346.591284 
L 798.144726 346.208795 
L 825.199873 345.871244 
L 852.255019 344.172975 
L 879.310166 339.811379 
L 906.365312 308.397973 
L 933.420458 258.397761 
L 960.475605 92.614815 
" clip-path="url(#p5ad881c2eb)" style="fill: none; stroke: #5cb85c; stroke-linecap: square"/>
   </g>
   <g id="line2d_11">
    <path d="M 365.262383 353.223669 
L 392.317529 353.223669 
L 419.372676 353.220781 
L 446.427822 353.21281 
L 473.482968 353.179194 
L 500.538115 353.11508 
L 527.593261 352.880919 
L 554.648408 352.556999 
L 581.703554 351.369794 
L 608.758701 349.943461 
L 635.813847 348.465028 
L 662.868994 347.642752 
L 689.92414 347.543867 
L 716.979287 347.544329 
L 744.034433 347.986426 
L 771.08958 347.548025 
L 798.144726 347.220178 
L 825.199873 346.803957 
L 852.255019 345.285439 
L 879.310166 341.341911 
L 906.365312 313.226619 
L 933.420458 266.994112 
L 960.475605 124.166731 
" clip-path="url(#p5ad881c2eb)" style="fill: none; stroke: #5cb85c; stroke-linecap: square"/>
   </g>
   <g id="line2d_12">
    <path d="M 365.262383 353.223669 
L 392.317529 353.223091 
L 419.372676 353.219279 
L 446.427822 353.20276 
L 473.482968 353.15632 
L 500.538115 353.060669 
L 527.593261 352.699321 
L 554.648408 352.226495 
L 581.703554 350.566579 
L 608.758701 348.705773 
L 635.813847 347.058565 
L 662.868994 346.345571 
L 689.92414 346.52047 
L 716.979287 346.725519 
L 744.034433 347.294342 
L 771.08958 346.918554 
L 798.144726 346.588858 
L 825.199873 346.290353 
L 852.255019 344.691316 
L 879.310166 340.610897 
L 906.365312 311.087755 
L 933.420458 263.707204 
L 960.475605 101.911337 
" clip-path="url(#p5ad881c2eb)" style="fill: none; stroke: #5cb85c; stroke-linecap: square"/>
   </g>
   <g id="line2d_13">
    <path d="M 365.262383 353.223784 
L 392.317529 353.22286 
L 419.372676 353.218702 
L 446.427822 353.209575 
L 473.482968 353.177692 
L 500.538115 353.106993 
L 527.593261 352.858393 
L 554.648408 352.541635 
L 581.703554 351.364365 
L 608.758701 350.051935 
L 635.813847 348.891646 
L 662.868994 348.455209 
L 689.92414 348.656215 
L 716.979287 348.783865 
L 744.034433 349.208981 
L 771.08958 348.970893 
L 798.144726 348.699073 
L 825.199873 348.486515 
L 852.255019 347.332348 
L 879.310166 344.572676 
L 906.365312 324.410516 
L 933.420458 291.833471 
L 960.475605 180.688197 
" clip-path="url(#p5ad881c2eb)" style="fill: none; stroke: #5cb85c; stroke-linecap: square"/>
   </g>
   <g id="line2d_14">
    <path d="M 365.262383 353.223784 
L 392.317529 353.223322 
L 419.372676 353.218702 
L 446.427822 353.208651 
L 473.482968 353.178269 
L 500.538115 353.107686 
L 527.593261 352.846725 
L 554.648408 352.509983 
L 581.703554 351.264439 
L 608.758701 349.900025 
L 635.813847 348.657023 
L 662.868994 348.23133 
L 689.92414 348.347659 
L 716.979287 348.416741 
L 744.034433 348.816557 
L 771.08958 348.488825 
L 798.144726 348.244153 
L 825.199873 347.983538 
L 852.255019 346.842888 
L 879.310166 343.953486 
L 906.365312 322.124825 
L 933.420458 285.790241 
L 960.475605 156.270603 
" clip-path="url(#p5ad881c2eb)" style="fill: none; stroke: #5cb85c; stroke-linecap: square"/>
   </g>
   <g id="line2d_15">
    <path d="M 365.262383 353.223438 
L 392.317529 353.223553 
L 419.372676 353.218933 
L 446.427822 353.207265 
L 473.482968 353.16175 
L 500.538115 353.06194 
L 527.593261 352.712259 
L 554.648408 352.258032 
L 581.703554 350.618101 
L 608.758701 348.766768 
L 635.813847 347.145783 
L 662.868994 346.564136 
L 689.92414 346.681621 
L 716.979287 346.902265 
L 744.034433 347.513716 
L 771.08958 347.067229 
L 798.144726 346.767915 
L 825.199873 346.395245 
L 852.255019 344.839298 
L 879.310166 341.009905 
L 906.365312 312.55013 
L 933.420458 266.302028 
L 960.475605 101.821693 
" clip-path="url(#p5ad881c2eb)" style="fill: none; stroke: #5cb85c; stroke-linecap: square"/>
   </g>
   <g id="line2d_16">
    <path d="M 365.262383 353.223784 
L 392.317529 353.223669 
L 419.372676 353.218817 
L 446.427822 353.207958 
L 473.482968 353.161288 
L 500.538115 353.079384 
L 527.593261 352.769211 
L 554.648408 352.368354 
L 581.703554 350.930123 
L 608.758701 349.23324 
L 635.813847 347.643214 
L 662.868994 347.068615 
L 689.92414 347.310284 
L 716.979287 347.518683 
L 744.034433 348.098135 
L 771.08958 347.762894 
L 798.144726 347.542596 
L 825.199873 347.211283 
L 852.255019 345.893886 
L 879.310166 342.487414 
L 906.365312 316.976534 
L 933.420458 275.328347 
L 960.475605 137.227954 
" clip-path="url(#p5ad881c2eb)" style="fill: none; stroke: #5cb85c; stroke-linecap: square"/>
   </g>
   <g id="line2d_17">
    <path d="M 392.317529 353.223553 
L 419.372676 353.219972 
L 446.427822 353.20842 
L 473.482968 353.175266 
L 500.538115 353.104336 
L 527.593261 352.841411 
L 554.648408 352.503513 
L 581.703554 351.281421 
L 608.758701 349.923938 
L 635.813847 348.754407 
L 662.868994 348.352511 
L 689.92414 348.567957 
L 716.979287 348.679665 
L 744.034433 349.09785 
L 771.08958 348.840701 
L 798.144726 348.571769 
L 825.199873 348.389362 
L 852.255019 347.200655 
L 879.310166 344.270243 
L 906.365312 323.20968 
L 933.420458 289.759529 
L 960.475605 176.30777 
" clip-path="url(#p5ad881c2eb)" style="fill: none; stroke: #5cb85c; stroke-linecap: square"/>
   </g>
   <g id="line2d_18">
    <path d="M 365.262383 353.223784 
L 392.317529 353.223438 
L 419.372676 353.220203 
L 446.427822 353.208767 
L 473.482968 353.168219 
L 500.538115 353.102719 
L 527.593261 352.836559 
L 554.648408 352.505939 
L 581.703554 351.311341 
L 608.758701 349.944385 
L 635.813847 348.635652 
L 662.868994 348.060359 
L 689.92414 348.2125 
L 716.979287 348.280311 
L 744.034433 348.75279 
L 771.08958 348.475194 
L 798.144726 348.285047 
L 825.199873 348.02605 
L 852.255019 346.896951 
L 879.310166 344.127113 
L 906.365312 322.721143 
L 933.420458 286.472968 
L 960.475605 158.379432 
" clip-path="url(#p5ad881c2eb)" style="fill: none; stroke: #5cb85c; stroke-linecap: square"/>
   </g>
   <g id="line2d_19">
    <path d="M 392.317529 353.223669 
L 419.372676 353.221243 
L 446.427822 353.214427 
L 473.482968 353.185894 
L 500.538115 353.133794 
L 527.593261 352.9232 
L 554.648408 352.694238 
L 581.703554 351.772499 
L 608.758701 350.741477 
L 635.813847 349.784967 
L 662.868994 349.420615 
L 689.92414 349.450419 
L 716.979287 349.469364 
L 744.034433 349.76787 
L 771.08958 349.536366 
L 798.144726 349.348645 
L 825.199873 349.122456 
L 852.255019 348.20915 
L 879.310166 345.76947 
L 906.365312 328.212993 
L 933.420458 298.837486 
L 960.475605 196.965976 
" clip-path="url(#p5ad881c2eb)" style="fill: none; stroke: #5cb85c; stroke-linecap: square"/>
   </g>
   <g id="line2d_20">
    <path d="M 365.262383 353.223669 
L 392.317529 353.223438 
L 419.372676 353.21951 
L 446.427822 353.209229 
L 473.482968 353.174226 
L 500.538115 353.104221 
L 527.593261 352.833671 
L 554.648408 352.48064 
L 581.703554 351.169828 
L 608.758701 349.753776 
L 635.813847 348.468032 
L 662.868994 348.154393 
L 689.92414 348.455786 
L 716.979287 348.665341 
L 744.034433 349.092883 
L 771.08958 348.799922 
L 798.144726 348.578238 
L 825.199873 348.307111 
L 852.255019 347.149479 
L 879.310166 344.358039 
L 906.365312 323.746042 
L 933.420458 290.31761 
L 960.475605 174.751707 
" clip-path="url(#p5ad881c2eb)" style="fill: none; stroke: #5cb85c; stroke-linecap: square"/>
   </g>
   <g id="line2d_21">
    <path d="M 392.317529 353.223322 
L 419.372676 353.220203 
L 446.427822 353.210731 
L 473.482968 353.17954 
L 500.538115 353.114386 
L 527.593261 352.876992 
L 554.648408 352.537476 
L 581.703554 351.254389 
L 608.758701 349.706066 
L 635.813847 348.259401 
L 662.868994 347.6312 
L 689.92414 347.783456 
L 716.979287 347.860162 
L 744.034433 348.210421 
L 771.08958 347.775023 
L 798.144726 347.42257 
L 825.199873 346.957369 
L 852.255019 345.482055 
L 879.310166 341.615118 
L 906.365312 314.100417 
L 933.420458 267.175595 
L 960.475605 118.865143 
" clip-path="url(#p5ad881c2eb)" style="fill: none; stroke: #5cb85c; stroke-linecap: square"/>
   </g>
   <g id="line2d_22">
    <path d="M 365.262383 353.223784 
L 392.317529 353.223207 
L 419.372676 353.220088 
L 446.427822 353.210731 
L 473.482968 353.175843 
L 500.538115 353.109419 
L 527.593261 352.855736 
L 554.648408 352.502358 
L 581.703554 351.244339 
L 608.758701 349.939533 
L 635.813847 348.758913 
L 662.868994 348.42887 
L 689.92414 348.716632 
L 716.979287 348.871083 
L 744.034433 349.294235 
L 771.08958 349.047021 
L 798.144726 348.839777 
L 825.199873 348.634266 
L 852.255019 347.562235 
L 879.310166 344.883773 
L 906.365312 325.600032 
L 933.420458 294.370535 
L 960.475605 182.01264 
" clip-path="url(#p5ad881c2eb)" style="fill: none; stroke: #5cb85c; stroke-linecap: square"/>
   </g>
   <g id="line2d_23">
    <path d="M 365.262383 353.223322 
L 392.317529 353.223553 
L 419.372676 353.2172 
L 446.427822 353.205186 
L 473.482968 353.145346 
L 500.538115 353.057435 
L 527.593261 352.665704 
L 554.648408 352.168388 
L 581.703554 350.493686 
L 608.758701 348.573849 
L 635.813847 347.024717 
L 662.868994 346.553046 
L 689.92414 346.841386 
L 716.979287 347.152714 
L 744.034433 347.745335 
L 771.08958 347.387914 
L 798.144726 347.149133 
L 825.199873 346.893717 
L 852.255019 345.3767 
L 879.310166 341.64342 
L 906.365312 314.275315 
L 933.420458 270.930015 
L 960.475605 120.339879 
" clip-path="url(#p5ad881c2eb)" style="fill: none; stroke: #5cb85c; stroke-linecap: square"/>
   </g>
   <g id="line2d_24">
    <path d="M 365.262383 353.223553 
L 392.317529 353.223438 
L 419.372676 353.217315 
L 446.427822 353.201951 
L 473.482968 353.154703 
L 500.538115 353.054893 
L 527.593261 352.704635 
L 554.648408 352.252834 
L 581.703554 350.679905 
L 608.758701 349.030502 
L 635.813847 347.513023 
L 662.868994 347.011894 
L 689.92414 347.284985 
L 716.979287 347.561772 
L 744.034433 348.084965 
L 771.08958 347.814185 
L 798.144726 347.522958 
L 825.199873 347.254603 
L 852.255019 345.877828 
L 879.310166 342.380442 
L 906.365312 316.94234 
L 933.420458 276.82896 
L 960.475605 135.922455 
" clip-path="url(#p5ad881c2eb)" style="fill: none; stroke: #5cb85c; stroke-linecap: square"/>
   </g>
   <g id="line2d_25">
    <path d="M 365.262383 353.223784 
L 392.317529 353.223322 
L 419.372676 353.219626 
L 446.427822 353.208882 
L 473.482968 353.172609 
L 500.538115 353.095095 
L 527.593261 352.791391 
L 554.648408 352.427847 
L 581.703554 351.042871 
L 608.758701 349.392312 
L 635.813847 347.959163 
L 662.868994 347.325648 
L 689.92414 347.499853 
L 716.979287 347.565585 
L 744.034433 348.092243 
L 771.08958 347.706866 
L 798.144726 347.354528 
L 825.199873 347.103849 
L 852.255019 345.635813 
L 879.310166 342.027064 
L 906.365312 315.47361 
L 933.420458 272.877577 
L 960.475605 127.205732 
" clip-path="url(#p5ad881c2eb)" style="fill: none; stroke: #5cb85c; stroke-linecap: square"/>
   </g>
   <g id="line2d_26">
    <path d="M 365.262383 353.223438 
L 392.317529 353.223091 
L 419.372676 353.220781 
L 446.427822 353.208189 
L 473.482968 353.174688 
L 500.538115 353.101448 
L 527.593261 352.830668 
L 554.648408 352.474518 
L 581.703554 351.206563 
L 608.758701 349.755393 
L 635.813847 348.383702 
L 662.868994 347.777449 
L 689.92414 347.870097 
L 716.979287 347.881302 
L 744.034433 348.32675 
L 771.08958 347.985733 
L 798.144726 347.735284 
L 825.199873 347.464851 
L 852.255019 346.089347 
L 879.310166 342.771594 
L 906.365312 317.751215 
L 933.420458 277.774496 
L 960.475605 142.172583 
" clip-path="url(#p5ad881c2eb)" style="fill: none; stroke: #5cb85c; stroke-linecap: square"/>
   </g>
   <g id="line2d_27">
    <path d="M 365.262383 353.223784 
L 392.317529 353.223322 
L 419.372676 353.218008 
L 446.427822 353.203222 
L 473.482968 353.159439 
L 500.538115 353.075918 
L 527.593261 352.738136 
L 554.648408 352.30967 
L 581.703554 350.795888 
L 608.758701 349.165083 
L 635.813847 347.769594 
L 662.868994 347.258415 
L 689.92414 347.545484 
L 716.979287 347.741869 
L 744.034433 348.210998 
L 771.08958 347.877375 
L 798.144726 347.66008 
L 825.199873 347.296306 
L 852.255019 345.787722 
L 879.310166 342.12491 
L 906.365312 315.98502 
L 933.420458 275.564471 
L 960.475605 138.156046 
" clip-path="url(#p5ad881c2eb)" style="fill: none; stroke: #5cb85c; stroke-linecap: square"/>
   </g>
   <g id="line2d_28">
    <path d="M 365.262383 353.223553 
L 392.317529 353.222514 
L 419.372676 353.214427 
L 446.427822 353.20172 
L 473.482968 353.141303 
L 500.538115 353.019429 
L 527.593261 352.580912 
L 554.648408 352.04351 
L 581.703554 350.051935 
L 608.758701 347.894703 
L 635.813847 345.881872 
L 662.868994 345.102454 
L 689.92414 345.39114 
L 716.979287 345.622066 
L 744.034433 346.298323 
L 771.08958 345.90486 
L 798.144726 345.53092 
L 825.199873 345.174308 
L 852.255019 343.352201 
L 879.310166 339.038199 
L 906.365312 305.662329 
L 933.420458 250.183321 
L 960.475605 50.397228 
" clip-path="url(#p5ad881c2eb)" style="fill: none; stroke: #5cb85c; stroke-linecap: square"/>
   </g>
   <g id="line2d_29">
    <path d="M 365.262383 353.223553 
L 392.317529 353.222745 
L 419.372676 353.217431 
L 446.427822 353.196868 
L 473.482968 353.137606 
L 500.538115 353.021623 
L 527.593261 352.595814 
L 554.648408 351.996609 
L 581.703554 350.026982 
L 608.758701 347.873332 
L 635.813847 346.102863 
L 662.868994 345.604738 
L 689.92414 346.077101 
L 716.979287 346.454161 
L 744.034433 347.112166 
L 771.08958 346.776694 
L 798.144726 346.434291 
L 825.199873 346.099975 
L 852.255019 344.378486 
L 879.310166 340.174575 
L 906.365312 309.458567 
L 933.420458 261.454668 
L 960.475605 94.336419 
" clip-path="url(#p5ad881c2eb)" style="fill: none; stroke: #5cb85c; stroke-linecap: square"/>
   </g>
   <g id="line2d_30">
    <path d="M 365.262383 353.223784 
L 392.317529 353.223091 
L 419.372676 353.2172 
L 446.427822 353.199179 
L 473.482968 353.14835 
L 500.538115 353.048771 
L 527.593261 352.654499 
L 554.648408 352.197268 
L 581.703554 350.520371 
L 608.758701 348.743664 
L 635.813847 347.246517 
L 662.868994 346.757864 
L 689.92414 347.096686 
L 716.979287 347.359496 
L 744.034433 347.9118 
L 771.08958 347.646102 
L 798.144726 347.378326 
L 825.199873 347.110549 
L 852.255019 345.64748 
L 879.310166 341.973463 
L 906.365312 315.578272 
L 933.420458 274.181112 
L 960.475605 128.663602 
" clip-path="url(#p5ad881c2eb)" style="fill: none; stroke: #5cb85c; stroke-linecap: square"/>
   </g>
   <g id="line2d_31">
    <path d="M 365.262383 353.223784 
L 392.317529 353.223784 
L 419.372676 353.221128 
L 446.427822 353.210962 
L 473.482968 353.18058 
L 500.538115 353.121664 
L 527.593261 352.874797 
L 554.648408 352.587266 
L 581.703554 351.360899 
L 608.758701 349.935721 
L 635.813847 348.475656 
L 662.868994 347.693812 
L 689.92414 347.665163 
L 716.979287 347.611215 
L 744.034433 347.938023 
L 771.08958 347.489688 
L 798.144726 347.101769 
L 825.199873 346.682083 
L 852.255019 345.067913 
L 879.310166 341.234131 
L 906.365312 312.477352 
L 933.420458 264.518274 
L 960.475605 108.724628 
" clip-path="url(#p5ad881c2eb)" style="fill: none; stroke: #5cb85c; stroke-linecap: square"/>
   </g>
   <g id="line2d_32">
    <path d="M 392.317529 353.223091 
L 419.372676 353.218471 
L 446.427822 353.205532 
L 473.482968 353.163367 
L 500.538115 353.07973 
L 527.593261 352.73906 
L 554.648408 352.314522 
L 581.703554 350.709363 
L 608.758701 348.987412 
L 635.813847 347.476749 
L 662.868994 346.913933 
L 689.92414 347.099921 
L 716.979287 347.177897 
L 744.034433 347.73644 
L 771.08958 347.333966 
L 798.144726 347.020327 
L 825.199873 346.694213 
L 852.255019 345.319286 
L 879.310166 341.620778 
L 906.365312 314.233612 
L 933.420458 270.417104 
L 960.475605 110.776967 
" clip-path="url(#p5ad881c2eb)" style="fill: none; stroke: #5cb85c; stroke-linecap: square"/>
   </g>
   <g id="line2d_33">
    <path d="M 365.262383 353.223784 
L 392.317529 353.222745 
L 419.372676 353.219741 
L 446.427822 353.206225 
L 473.482968 353.155512 
L 500.538115 353.058706 
L 527.593261 352.688462 
L 554.648408 352.178323 
L 581.703554 350.381631 
L 608.758701 348.326519 
L 635.813847 346.519545 
L 662.868994 346.084264 
L 689.92414 346.455778 
L 716.979287 346.722862 
L 744.034433 347.286025 
L 771.08958 346.873616 
L 798.144726 346.599486 
L 825.199873 346.245993 
L 852.255019 344.64118 
L 879.310166 340.646824 
L 906.365312 311.296385 
L 933.420458 264.456355 
L 960.475605 98.336783 
" clip-path="url(#p5ad881c2eb)" style="fill: none; stroke: #5cb85c; stroke-linecap: square"/>
   </g>
   <g id="line2d_34">
    <path d="M 365.262383 353.223669 
L 392.317529 353.223438 
L 419.372676 353.218702 
L 446.427822 353.209113 
L 473.482968 353.175497 
L 500.538115 353.111614 
L 527.593261 352.849498 
L 554.648408 352.517145 
L 581.703554 351.31238 
L 608.758701 349.875997 
L 635.813847 348.432451 
L 662.868994 347.832206 
L 689.92414 347.845145 
L 716.979287 347.875989 
L 744.034433 348.307342 
L 771.08958 347.909952 
L 798.144726 347.633164 
L 825.199873 347.452374 
L 852.255019 346.01807 
L 879.310166 342.77402 
L 906.365312 318.023959 
L 933.420458 276.699693 
L 960.475605 135.049466 
" clip-path="url(#p5ad881c2eb)" style="fill: none; stroke: #5cb85c; stroke-linecap: square"/>
   </g>
   <g id="line2d_35">
    <path d="M 40.600625 353.2239 
L 990.236266 353.2239 
" clip-path="url(#p5ad881c2eb)" style="fill: none; stroke: #dedede; stroke-width: 2; stroke-linecap: square"/>
   </g>
   <g id="text_18">
    <!-- FastQC: Per Sequence Quality Scores -->
    <g transform="translate(367.225946 19.3575) scale(0.16 -0.16)">
     <defs>
      <path id="DejaVuSans-46" d="M 628 4666 
L 3309 4666 
L 3309 4134 
L 1259 4134 
L 1259 2759 
L 3109 2759 
L 3109 2228 
L 1259 2228 
L 1259 0 
L 628 0 
L 628 4666 
z
" transform="scale(0.015625)"/>
      <path id="DejaVuSans-73" d="M 2834 3397 
L 2834 2853 
Q 2591 2978 2328 3040 
Q 2066 3103 1784 3103 
Q 1356 3103 1142 2972 
Q 928 2841 928 2578 
Q 928 2378 1081 2264 
Q 1234 2150 1697 2047 
L 1894 2003 
Q 2506 1872 2764 1633 
Q 3022 1394 3022 966 
Q 3022 478 2636 193 
Q 2250 -91 1575 -91 
Q 1294 -91 989 -36 
Q 684 19 347 128 
L 347 722 
Q 666 556 975 473 
Q 1284 391 1588 391 
Q 1994 391 2212 530 
Q 2431 669 2431 922 
Q 2431 1156 2273 1281 
Q 2116 1406 1581 1522 
L 1381 1569 
Q 847 1681 609 1914 
Q 372 2147 372 2553 
Q 372 3047 722 3315 
Q 1072 3584 1716 3584 
Q 2034 3584 2315 3537 
Q 2597 3491 2834 3397 
z
" transform="scale(0.015625)"/>
      <path id="DejaVuSans-3a" d="M 750 794 
L 1409 794 
L 1409 0 
L 750 0 
L 750 794 
z
M 750 3309 
L 1409 3309 
L 1409 2516 
L 750 2516 
L 750 3309 
z
" transform="scale(0.015625)"/>
     </defs>
     <use xlink:href="#DejaVuSans-46"/>
     <use xlink:href="#DejaVuSans-61" x="48.394531"/>
     <use xlink:href="#DejaVuSans-73" x="109.673828"/>
     <use xlink:href="#DejaVuSans-74" x="161.773438"/>
     <use xlink:href="#DejaVuSans-51" x="200.982422"/>
     <use xlink:href="#DejaVuSans-43" x="279.693359"/>
     <use xlink:href="#DejaVuSans-3a" x="349.517578"/>
     <use xlink:href="#DejaVuSans-20" x="383.208984"/>
     <use xlink:href="#DejaVuSans-50" x="414.996094"/>
     <use xlink:href="#DejaVuSans-65" x="471.673828"/>
     <use xlink:href="#DejaVuSans-72" x="533.197266"/>
     <use xlink:href="#DejaVuSans-20" x="574.310547"/>
     <use xlink:href="#DejaVuSans-53" x="606.097656"/>
     <use xlink:href="#DejaVuSans-65" x="669.574219"/>
     <use xlink:href="#DejaVuSans-71" x="731.097656"/>
     <use xlink:href="#DejaVuSans-75" x="794.574219"/>
     <use xlink:href="#DejaVuSans-65" x="857.953125"/>
     <use xlink:href="#DejaVuSans-6e" x="919.476562"/>
     <use xlink:href="#DejaVuSans-63" x="982.855469"/>
     <use xlink:href="#DejaVuSans-65" x="1037.835938"/>
     <use xlink:href="#DejaVuSans-20" x="1099.359375"/>
     <use xlink:href="#DejaVuSans-51" x="1131.146484"/>
     <use xlink:href="#DejaVuSans-75" x="1209.857422"/>
     <use xlink:href="#DejaVuSans-61" x="1273.236328"/>
     <use xlink:href="#DejaVuSans-6c" x="1334.515625"/>
     <use xlink:href="#DejaVuSans-69" x="1362.298828"/>
     <use xlink:href="#DejaVuSans-74" x="1390.082031"/>
     <use xlink:href="#DejaVuSans-79" x="1429.291016"/>
     <use xlink:href="#DejaVuSans-20" x="1488.470703"/>
     <use xlink:href="#DejaVuSans-53" x="1520.257812"/>
     <use xlink:href="#DejaVuSans-63" x="1583.734375"/>
     <use xlink:href="#DejaVuSans-6f" x="1638.714844"/>
     <use xlink:href="#DejaVuSans-72" x="1699.896484"/>
     <use xlink:href="#DejaVuSans-65" x="1738.759766"/>
     <use xlink:href="#DejaVuSans-73" x="1800.283203"/>
    </g>
   </g>
  </g>
 </g>
 <defs>
  <clipPath id="p5ad881c2eb">
   <rect x="40.600625" y="35.2559" width="949.635641" height="317.968"/>
  </clipPath>
 </defs>
</svg>
