<?xml version="1.0" encoding="utf-8" standalone="no"?>
<!DOCTYPE svg PUBLIC "-//W3C//DTD SVG 1.1//EN"
  "http://www.w3.org/Graphics/SVG/1.1/DTD/svg11.dtd">
<svg xmlns:xlink="http://www.w3.org/1999/xlink" width="1000.098125pt" height="388.844525pt" viewBox="0 0 1000.098125 388.844525" xmlns="http://www.w3.org/2000/svg" version="1.1">
 <metadata>
  <rdf:RDF xmlns:dc="http://purl.org/dc/elements/1.1/" xmlns:cc="http://creativecommons.org/ns#" xmlns:rdf="http://www.w3.org/1999/02/22-rdf-syntax-ns#">
   <cc:Work>
    <dc:type rdf:resource="http://purl.org/dc/dcmitype/StillImage"/>
    <dc:date>2024-01-15T17:08:55.633041</dc:date>
    <dc:format>image/svg+xml</dc:format>
    <dc:creator>
     <cc:Agent>
      <dc:title>Matplotlib v3.6.2, https://matplotlib.org/</dc:title>
     </cc:Agent>
    </dc:creator>
   </cc:Work>
  </rdf:RDF>
 </metadata>
 <defs>
  <style type="text/css">*{stroke-linejoin: round; stroke-linecap: butt}</style>
 </defs>
 <g id="figure_1">
  <g id="axes_1">
   <g id="patch_1">
    <path d="M 58.418125 353.2239 
L 985.263125 353.2239 
L 985.263125 35.2559 
L 58.418125 35.2559 
z
" style="fill: #ffffff"/>
   </g>
   <g id="matplotlib.axis_1">
    <g id="xtick_1">
     <g id="text_1">
      <!-- 0 -->
      <g transform="translate(55.873125 366.30265) scale(0.08 -0.08)">
       <defs>
        <path id="DejaVuSans-30" d="M 2034 4250 
Q 1547 4250 1301 3770 
Q 1056 3291 1056 2328 
Q 1056 1369 1301 889 
Q 1547 409 2034 409 
Q 2525 409 2770 889 
Q 3016 1369 3016 2328 
Q 3016 3291 2770 3770 
Q 2525 4250 2034 4250 
z
M 2034 4750 
Q 2819 4750 3233 4129 
Q 3647 3509 3647 2328 
Q 3647 1150 3233 529 
Q 2819 -91 2034 -91 
Q 1250 -91 836 529 
Q 422 1150 422 2328 
Q 422 3509 836 4129 
Q 1250 4750 2034 4750 
z
" transform="scale(0.015625)"/>
       </defs>
       <use xlink:href="#DejaVuSans-30"/>
      </g>
     </g>
    </g>
    <g id="xtick_2">
     <g id="text_2">
      <!-- 20 -->
      <g transform="translate(238.697125 366.30265) scale(0.08 -0.08)">
       <defs>
        <path id="DejaVuSans-32" d="M 1228 531 
L 3431 531 
L 3431 0 
L 469 0 
L 469 531 
Q 828 903 1448 1529 
Q 2069 2156 2228 2338 
Q 2531 2678 2651 2914 
Q 2772 3150 2772 3378 
Q 2772 3750 2511 3984 
Q 2250 4219 1831 4219 
Q 1534 4219 1204 4116 
Q 875 4013 500 3803 
L 500 4441 
Q 881 4594 1212 4672 
Q 1544 4750 1819 4750 
Q 2544 4750 2975 4387 
Q 3406 4025 3406 3419 
Q 3406 3131 3298 2873 
Q 3191 2616 2906 2266 
Q 2828 2175 2409 1742 
Q 1991 1309 1228 531 
z
" transform="scale(0.015625)"/>
       </defs>
       <use xlink:href="#DejaVuSans-32"/>
       <use xlink:href="#DejaVuSans-30" x="63.623047"/>
      </g>
     </g>
    </g>
    <g id="xtick_3">
     <g id="text_3">
      <!-- 40 -->
      <g transform="translate(424.066125 366.30265) scale(0.08 -0.08)">
       <defs>
        <path id="DejaVuSans-34" d="M 2419 4116 
L 825 1625 
L 2419 1625 
L 2419 4116 
z
M 2253 4666 
L 3047 4666 
L 3047 1625 
L 3713 1625 
L 3713 1100 
L 3047 1100 
L 3047 0 
L 2419 0 
L 2419 1100 
L 313 1100 
L 313 1709 
L 2253 4666 
z
" transform="scale(0.015625)"/>
       </defs>
       <use xlink:href="#DejaVuSans-34"/>
       <use xlink:href="#DejaVuSans-30" x="63.623047"/>
      </g>
     </g>
    </g>
    <g id="xtick_4">
     <g id="text_4">
      <!-- 60 -->
      <g transform="translate(609.435125 366.30265) scale(0.08 -0.08)">
       <defs>
        <path id="DejaVuSans-36" d="M 2113 2584 
Q 1688 2584 1439 2293 
Q 1191 2003 1191 1497 
Q 1191 994 1439 701 
Q 1688 409 2113 409 
Q 2538 409 2786 701 
Q 3034 994 3034 1497 
Q 3034 2003 2786 2293 
Q 2538 2584 2113 2584 
z
M 3366 4563 
L 3366 3988 
Q 3128 4100 2886 4159 
Q 2644 4219 2406 4219 
Q 1781 4219 1451 3797 
Q 1122 3375 1075 2522 
Q 1259 2794 1537 2939 
Q 1816 3084 2150 3084 
Q 2853 3084 3261 2657 
Q 3669 2231 3669 1497 
Q 3669 778 3244 343 
Q 2819 -91 2113 -91 
Q 1303 -91 875 529 
Q 447 1150 447 2328 
Q 447 3434 972 4092 
Q 1497 4750 2381 4750 
Q 2619 4750 2861 4703 
Q 3103 4656 3366 4563 
z
" transform="scale(0.015625)"/>
       </defs>
       <use xlink:href="#DejaVuSans-36"/>
       <use xlink:href="#DejaVuSans-30" x="63.623047"/>
      </g>
     </g>
    </g>
    <g id="xtick_5">
     <g id="text_5">
      <!-- 80 -->
      <g transform="translate(794.804125 366.30265) scale(0.08 -0.08)">
       <defs>
        <path id="DejaVuSans-38" d="M 2034 2216 
Q 1584 2216 1326 1975 
Q 1069 1734 1069 1313 
Q 1069 891 1326 650 
Q 1584 409 2034 409 
Q 2484 409 2743 651 
Q 3003 894 3003 1313 
Q 3003 1734 2745 1975 
Q 2488 2216 2034 2216 
z
M 1403 2484 
Q 997 2584 770 2862 
Q 544 3141 544 3541 
Q 544 4100 942 4425 
Q 1341 4750 2034 4750 
Q 2731 4750 3128 4425 
Q 3525 4100 3525 3541 
Q 3525 3141 3298 2862 
Q 3072 2584 2669 2484 
Q 3125 2378 3379 2068 
Q 3634 1759 3634 1313 
Q 3634 634 3220 271 
Q 2806 -91 2034 -91 
Q 1263 -91 848 271 
Q 434 634 434 1313 
Q 434 1759 690 2068 
Q 947 2378 1403 2484 
z
M 1172 3481 
Q 1172 3119 1398 2916 
Q 1625 2713 2034 2713 
Q 2441 2713 2670 2916 
Q 2900 3119 2900 3481 
Q 2900 3844 2670 4047 
Q 2441 4250 2034 4250 
Q 1625 4250 1398 4047 
Q 1172 3844 1172 3481 
z
" transform="scale(0.015625)"/>
       </defs>
       <use xlink:href="#DejaVuSans-38"/>
       <use xlink:href="#DejaVuSans-30" x="63.623047"/>
      </g>
     </g>
    </g>
    <g id="xtick_6">
     <g id="text_6">
      <!-- 100 -->
      <g transform="translate(977.628125 366.30265) scale(0.08 -0.08)">
       <defs>
        <path id="DejaVuSans-31" d="M 794 531 
L 1825 531 
L 1825 4091 
L 703 3866 
L 703 4441 
L 1819 4666 
L 2450 4666 
L 2450 531 
L 3481 531 
L 3481 0 
L 794 0 
L 794 531 
z
" transform="scale(0.015625)"/>
       </defs>
       <use xlink:href="#DejaVuSans-31"/>
       <use xlink:href="#DejaVuSans-30" x="63.623047"/>
       <use xlink:href="#DejaVuSans-30" x="127.246094"/>
      </g>
     </g>
    </g>
    <g id="text_7">
     <!-- % GC -->
     <g transform="translate(508.135156 379.564837) scale(0.1 -0.1)">
      <defs>
       <path id="DejaVuSans-25" d="M 4653 2053 
Q 4381 2053 4226 1822 
Q 4072 1591 4072 1178 
Q 4072 772 4226 539 
Q 4381 306 4653 306 
Q 4919 306 5073 539 
Q 5228 772 5228 1178 
Q 5228 1588 5073 1820 
Q 4919 2053 4653 2053 
z
M 4653 2450 
Q 5147 2450 5437 2106 
Q 5728 1763 5728 1178 
Q 5728 594 5436 251 
Q 5144 -91 4653 -91 
Q 4153 -91 3862 251 
Q 3572 594 3572 1178 
Q 3572 1766 3864 2108 
Q 4156 2450 4653 2450 
z
M 1428 4353 
Q 1159 4353 1004 4120 
Q 850 3888 850 3481 
Q 850 3069 1003 2837 
Q 1156 2606 1428 2606 
Q 1700 2606 1854 2837 
Q 2009 3069 2009 3481 
Q 2009 3884 1853 4118 
Q 1697 4353 1428 4353 
z
M 4250 4750 
L 4750 4750 
L 1831 -91 
L 1331 -91 
L 4250 4750 
z
M 1428 4750 
Q 1922 4750 2215 4408 
Q 2509 4066 2509 3481 
Q 2509 2891 2217 2550 
Q 1925 2209 1428 2209 
Q 931 2209 642 2551 
Q 353 2894 353 3481 
Q 353 4063 643 4406 
Q 934 4750 1428 4750 
z
" transform="scale(0.015625)"/>
       <path id="DejaVuSans-20" transform="scale(0.015625)"/>
       <path id="DejaVuSans-47" d="M 3809 666 
L 3809 1919 
L 2778 1919 
L 2778 2438 
L 4434 2438 
L 4434 434 
Q 4069 175 3628 42 
Q 3188 -91 2688 -91 
Q 1594 -91 976 548 
Q 359 1188 359 2328 
Q 359 3472 976 4111 
Q 1594 4750 2688 4750 
Q 3144 4750 3555 4637 
Q 3966 4525 4313 4306 
L 4313 3634 
Q 3963 3931 3569 4081 
Q 3175 4231 2741 4231 
Q 1884 4231 1454 3753 
Q 1025 3275 1025 2328 
Q 1025 1384 1454 906 
Q 1884 428 2741 428 
Q 3075 428 3337 486 
Q 3600 544 3809 666 
z
" transform="scale(0.015625)"/>
       <path id="DejaVuSans-43" d="M 4122 4306 
L 4122 3641 
Q 3803 3938 3442 4084 
Q 3081 4231 2675 4231 
Q 1875 4231 1450 3742 
Q 1025 3253 1025 2328 
Q 1025 1406 1450 917 
Q 1875 428 2675 428 
Q 3081 428 3442 575 
Q 3803 722 4122 1019 
L 4122 359 
Q 3791 134 3420 21 
Q 3050 -91 2638 -91 
Q 1578 -91 968 557 
Q 359 1206 359 2328 
Q 359 3453 968 4101 
Q 1578 4750 2638 4750 
Q 3056 4750 3426 4639 
Q 3797 4528 4122 4306 
z
" transform="scale(0.015625)"/>
      </defs>
      <use xlink:href="#DejaVuSans-25"/>
      <use xlink:href="#DejaVuSans-20" x="95.019531"/>
      <use xlink:href="#DejaVuSans-47" x="126.806641"/>
      <use xlink:href="#DejaVuSans-43" x="204.296875"/>
     </g>
    </g>
   </g>
   <g id="matplotlib.axis_2">
    <g id="ytick_1">
     <g id="line2d_1">
      <path d="M 58.418125 353.2239 
L 985.263125 353.2239 
" clip-path="url(#p1a54a879f5)" style="fill: none; stroke: #dedede; stroke-linecap: square"/>
     </g>
     <g id="text_8">
      <!-- 0 -->
      <g transform="translate(46.328125 356.263275) scale(0.08 -0.08)">
       <use xlink:href="#DejaVuSans-30"/>
      </g>
     </g>
    </g>
    <g id="ytick_2">
     <g id="line2d_2">
      <path d="M 58.418125 285.009291 
L 985.263125 285.009291 
" clip-path="url(#p1a54a879f5)" style="fill: none; stroke: #dedede; stroke-linecap: square"/>
     </g>
     <g id="text_9">
      <!-- 200000 -->
      <g transform="translate(20.878125 288.048666) scale(0.08 -0.08)">
       <use xlink:href="#DejaVuSans-32"/>
       <use xlink:href="#DejaVuSans-30" x="63.623047"/>
       <use xlink:href="#DejaVuSans-30" x="127.246094"/>
       <use xlink:href="#DejaVuSans-30" x="190.869141"/>
       <use xlink:href="#DejaVuSans-30" x="254.492188"/>
       <use xlink:href="#DejaVuSans-30" x="318.115234"/>
      </g>
     </g>
    </g>
    <g id="ytick_3">
     <g id="line2d_3">
      <path d="M 58.418125 216.794681 
L 985.263125 216.794681 
" clip-path="url(#p1a54a879f5)" style="fill: none; stroke: #dedede; stroke-linecap: square"/>
     </g>
     <g id="text_10">
      <!-- 400000 -->
      <g transform="translate(20.878125 219.834056) scale(0.08 -0.08)">
       <use xlink:href="#DejaVuSans-34"/>
       <use xlink:href="#DejaVuSans-30" x="63.623047"/>
       <use xlink:href="#DejaVuSans-30" x="127.246094"/>
       <use xlink:href="#DejaVuSans-30" x="190.869141"/>
       <use xlink:href="#DejaVuSans-30" x="254.492188"/>
       <use xlink:href="#DejaVuSans-30" x="318.115234"/>
      </g>
     </g>
    </g>
    <g id="ytick_4">
     <g id="line2d_4">
      <path d="M 58.418125 148.580072 
L 985.263125 148.580072 
" clip-path="url(#p1a54a879f5)" style="fill: none; stroke: #dedede; stroke-linecap: square"/>
     </g>
     <g id="text_11">
      <!-- 600000 -->
      <g transform="translate(20.878125 151.619447) scale(0.08 -0.08)">
       <use xlink:href="#DejaVuSans-36"/>
       <use xlink:href="#DejaVuSans-30" x="63.623047"/>
       <use xlink:href="#DejaVuSans-30" x="127.246094"/>
       <use xlink:href="#DejaVuSans-30" x="190.869141"/>
       <use xlink:href="#DejaVuSans-30" x="254.492188"/>
       <use xlink:href="#DejaVuSans-30" x="318.115234"/>
      </g>
     </g>
    </g>
    <g id="ytick_5">
     <g id="line2d_5">
      <path d="M 58.418125 80.365462 
L 985.263125 80.365462 
" clip-path="url(#p1a54a879f5)" style="fill: none; stroke: #dedede; stroke-linecap: square"/>
     </g>
     <g id="text_12">
      <!-- 800000 -->
      <g transform="translate(20.878125 83.404837) scale(0.08 -0.08)">
       <use xlink:href="#DejaVuSans-38"/>
       <use xlink:href="#DejaVuSans-30" x="63.623047"/>
       <use xlink:href="#DejaVuSans-30" x="127.246094"/>
       <use xlink:href="#DejaVuSans-30" x="190.869141"/>
       <use xlink:href="#DejaVuSans-30" x="254.492188"/>
       <use xlink:href="#DejaVuSans-30" x="318.115234"/>
      </g>
     </g>
    </g>
    <g id="text_13">
     <!-- Count -->
     <g transform="translate(14.798438 209.088338) rotate(-90) scale(0.1 -0.1)">
      <defs>
       <path id="DejaVuSans-6f" d="M 1959 3097 
Q 1497 3097 1228 2736 
Q 959 2375 959 1747 
Q 959 1119 1226 758 
Q 1494 397 1959 397 
Q 2419 397 2687 759 
Q 2956 1122 2956 1747 
Q 2956 2369 2687 2733 
Q 2419 3097 1959 3097 
z
M 1959 3584 
Q 2709 3584 3137 3096 
Q 3566 2609 3566 1747 
Q 3566 888 3137 398 
Q 2709 -91 1959 -91 
Q 1206 -91 779 398 
Q 353 888 353 1747 
Q 353 2609 779 3096 
Q 1206 3584 1959 3584 
z
" transform="scale(0.015625)"/>
       <path id="DejaVuSans-75" d="M 544 1381 
L 544 3500 
L 1119 3500 
L 1119 1403 
Q 1119 906 1312 657 
Q 1506 409 1894 409 
Q 2359 409 2629 706 
Q 2900 1003 2900 1516 
L 2900 3500 
L 3475 3500 
L 3475 0 
L 2900 0 
L 2900 538 
Q 2691 219 2414 64 
Q 2138 -91 1772 -91 
Q 1169 -91 856 284 
Q 544 659 544 1381 
z
M 1991 3584 
L 1991 3584 
z
" transform="scale(0.015625)"/>
       <path id="DejaVuSans-6e" d="M 3513 2113 
L 3513 0 
L 2938 0 
L 2938 2094 
Q 2938 2591 2744 2837 
Q 2550 3084 2163 3084 
Q 1697 3084 1428 2787 
Q 1159 2491 1159 1978 
L 1159 0 
L 581 0 
L 581 3500 
L 1159 3500 
L 1159 2956 
Q 1366 3272 1645 3428 
Q 1925 3584 2291 3584 
Q 2894 3584 3203 3211 
Q 3513 2838 3513 2113 
z
" transform="scale(0.015625)"/>
       <path id="DejaVuSans-74" d="M 1172 4494 
L 1172 3500 
L 2356 3500 
L 2356 3053 
L 1172 3053 
L 1172 1153 
Q 1172 725 1289 603 
Q 1406 481 1766 481 
L 2356 481 
L 2356 0 
L 1766 0 
Q 1100 0 847 248 
Q 594 497 594 1153 
L 594 3053 
L 172 3053 
L 172 3500 
L 594 3500 
L 594 4494 
L 1172 4494 
z
" transform="scale(0.015625)"/>
      </defs>
      <use xlink:href="#DejaVuSans-43"/>
      <use xlink:href="#DejaVuSans-6f" x="69.824219"/>
      <use xlink:href="#DejaVuSans-75" x="131.005859"/>
      <use xlink:href="#DejaVuSans-6e" x="194.384766"/>
      <use xlink:href="#DejaVuSans-74" x="257.763672"/>
     </g>
    </g>
   </g>
   <g id="line2d_6">
    <path d="M 58.418125 353.209916 
L 67.686575 353.209404 
L 76.955025 353.206676 
L 86.223475 353.202583 
L 95.491925 353.200707 
L 104.760375 353.200878 
L 114.028825 353.200025 
L 123.297275 353.194738 
L 132.565725 353.17001 
L 141.834175 353.136585 
L 151.102625 353.120555 
L 160.371075 353.098215 
L 169.639525 353.064448 
L 178.907975 352.983785 
L 188.176425 352.849743 
L 197.444875 352.663688 
L 206.713325 352.424766 
L 215.981775 352.112002 
L 225.250225 351.58368 
L 234.518675 350.965144 
L 243.787125 350.46803 
L 253.055575 349.831758 
L 262.324025 349.151999 
L 271.592475 348.604918 
L 280.860925 348.045217 
L 290.129375 347.351475 
L 299.397825 346.504932 
L 308.666275 346.0085 
L 317.934725 345.517013 
L 327.203175 344.779443 
L 336.471625 344.159372 
L 345.740075 343.287078 
L 355.008525 341.859687 
L 364.276975 340.470497 
L 373.545425 335.611399 
L 382.813875 331.388745 
L 392.082325 327.223049 
L 401.350775 322.656251 
L 410.619225 283.830542 
L 419.887675 211.812286 
L 429.156125 165.242684 
L 438.424575 149.913497 
L 447.693025 132.619047 
L 456.961475 125.370562 
L 466.229925 134.912422 
L 475.498375 134.557194 
L 484.766825 132.506322 
L 494.035275 129.350714 
L 503.303725 121.069802 
L 512.572175 116.028913 
L 521.840625 109.769881 
L 531.109075 103.486122 
L 540.377525 104.899699 
L 549.645975 106.786174 
L 558.914425 107.295908 
L 568.182875 110.066274 
L 577.451325 116.568831 
L 586.719775 121.969723 
L 595.988225 130.551462 
L 605.256675 138.866994 
L 614.525125 144.224739 
L 623.793575 155.792402 
L 633.062025 169.583862 
L 642.330475 180.100849 
L 651.598925 194.594407 
L 660.867375 204.843141 
L 670.135825 215.557439 
L 679.404275 226.231149 
L 688.672725 239.042876 
L 697.941175 261.09069 
L 707.209625 273.56936 
L 716.478075 281.187738 
L 725.746525 286.767352 
L 735.014975 291.800567 
L 744.283425 302.526291 
L 753.551875 315.14173 
L 762.820325 322.751922 
L 772.088775 324.876296 
L 781.357225 326.405156 
L 790.625675 332.910954 
L 799.894125 339.103476 
L 809.162575 342.293362 
L 818.431025 346.588324 
L 827.699475 350.441767 
L 836.967925 352.406177 
L 846.236375 352.673408 
L 855.504825 352.86782 
L 864.773275 353.015845 
L 874.041725 353.09037 
L 883.310175 353.124307 
L 892.578625 353.140508 
L 901.847075 353.166088 
L 911.115525 353.194397 
L 920.383975 353.205653 
L 929.652425 353.205482 
L 938.920875 353.206846 
L 948.189325 353.20804 
L 957.457775 353.20787 
L 966.726225 353.207528 
L 975.994675 353.207187 
L 985.263125 353.207187 
" clip-path="url(#p1a54a879f5)" style="fill: none; stroke: #f0ad4e; stroke-linecap: square"/>
   </g>
   <g id="line2d_7">
    <path d="M 58.418125 353.216055 
L 67.686575 353.215032 
L 76.955025 353.212986 
L 86.223475 353.211962 
L 95.491925 353.211451 
L 104.760375 353.211621 
L 114.028825 353.212133 
L 123.297275 353.209745 
L 132.565725 353.196614 
L 141.834175 353.175638 
L 151.102625 353.162677 
L 160.371075 353.155003 
L 169.639525 353.14443 
L 178.907975 353.093781 
L 188.176425 353.013628 
L 197.444875 352.911818 
L 206.713325 352.786815 
L 215.981775 352.644246 
L 225.250225 352.377868 
L 234.518675 352.047539 
L 243.787125 351.778432 
L 253.055575 351.385687 
L 262.324025 350.991918 
L 271.592475 350.638566 
L 280.860925 350.195342 
L 290.129375 349.686631 
L 299.397825 349.013524 
L 308.666275 348.50362 
L 317.934725 348.054938 
L 327.203175 347.423271 
L 336.471625 346.771139 
L 345.740075 345.901403 
L 355.008525 344.605155 
L 364.276975 343.377292 
L 373.545425 339.070221 
L 382.813875 335.307333 
L 392.082325 331.604303 
L 401.350775 327.521317 
L 410.619225 293.58796 
L 419.887675 230.695284 
L 429.156125 189.984805 
L 438.424575 176.501846 
L 447.693025 161.442618 
L 456.961475 155.151015 
L 466.229925 163.551132 
L 475.498375 163.35024 
L 484.766825 161.515608 
L 494.035275 158.519964 
L 503.303725 151.007489 
L 512.572175 146.555292 
L 521.840625 141.070325 
L 531.109075 135.560802 
L 540.377525 136.833516 
L 549.645975 138.566167 
L 558.914425 139.060211 
L 568.182875 141.560277 
L 577.451325 147.227888 
L 586.719775 151.952943 
L 595.988225 159.520501 
L 605.256675 166.730615 
L 614.525125 171.189633 
L 623.793575 181.172842 
L 633.062025 193.137855 
L 642.330475 202.384515 
L 651.598925 215.505766 
L 660.867375 224.703312 
L 670.135825 234.096123 
L 679.404275 243.450222 
L 688.672725 254.486834 
L 697.941175 273.358576 
L 707.209625 284.026318 
L 716.478075 290.655073 
L 725.746525 295.490636 
L 735.014975 299.806404 
L 744.283425 309.015717 
L 753.551875 319.970813 
L 762.820325 326.6289 
L 772.088775 328.457563 
L 781.357225 329.764384 
L 790.625675 335.418864 
L 799.894125 340.821972 
L 809.162575 343.624911 
L 818.431025 347.359149 
L 827.699475 350.746004 
L 836.967925 352.510205 
L 846.236375 352.741282 
L 855.504825 352.900733 
L 864.773275 353.035287 
L 874.041725 353.112369 
L 883.310175 353.143066 
L 892.578625 353.154321 
L 901.847075 353.174274 
L 911.115525 353.196444 
L 920.383975 353.204629 
L 929.652425 353.205482 
L 938.920875 353.207187 
L 948.189325 353.208552 
L 957.457775 353.208381 
L 966.726225 353.206335 
L 975.994675 353.2048 
L 985.263125 353.205482 
" clip-path="url(#p1a54a879f5)" style="fill: none; stroke: #f0ad4e; stroke-linecap: square"/>
   </g>
   <g id="line2d_8">
    <path d="M 58.418125 353.212986 
L 67.686575 353.212986 
L 76.955025 353.212133 
L 86.223475 353.206676 
L 95.491925 353.202242 
L 104.760375 353.20156 
L 114.028825 353.201048 
L 123.297275 353.197126 
L 132.565725 353.181948 
L 141.834175 353.159608 
L 151.102625 353.145794 
L 160.371075 353.132151 
L 169.639525 353.112369 
L 178.907975 353.050123 
L 188.176425 352.955134 
L 197.444875 352.841557 
L 206.713325 352.711097 
L 215.981775 352.551304 
L 225.250225 352.246214 
L 234.518675 351.874615 
L 243.787125 351.559975 
L 253.055575 351.109077 
L 262.324025 350.637884 
L 271.592475 350.218364 
L 280.860925 349.725684 
L 290.129375 349.114652 
L 299.397825 348.260093 
L 308.666275 347.653495 
L 317.934725 347.099251 
L 327.203175 346.323651 
L 336.471625 345.628203 
L 345.740075 344.627836 
L 355.008525 343.165997 
L 364.276975 341.838711 
L 373.545425 337.36281 
L 382.813875 333.503909 
L 392.082325 329.605956 
L 401.350775 325.291893 
L 410.619225 290.203151 
L 419.887675 224.488436 
L 429.156125 181.490722 
L 438.424575 167.419241 
L 447.693025 151.854714 
L 456.961475 145.498818 
L 466.229925 154.186289 
L 475.498375 153.667006 
L 484.766825 151.690999 
L 494.035275 148.583312 
L 503.303725 140.852891 
L 512.572175 136.294791 
L 521.840625 130.223009 
L 531.109075 124.140653 
L 540.377525 125.226118 
L 549.645975 126.573016 
L 558.914425 126.8955 
L 568.182875 129.581109 
L 577.451325 135.661418 
L 586.719775 140.80787 
L 595.988225 148.976228 
L 605.256675 156.639116 
L 614.525125 161.464277 
L 623.793575 172.057835 
L 633.062025 184.645136 
L 642.330475 194.606174 
L 651.598925 208.407524 
L 660.867375 217.902486 
L 670.135825 227.834875 
L 679.404275 237.747481 
L 688.672725 249.049277 
L 697.941175 268.69986 
L 707.209625 280.047872 
L 716.478075 287.080798 
L 725.746525 292.223327 
L 735.014975 296.869594 
L 744.283425 306.727799 
L 753.551875 318.230829 
L 762.820325 325.184455 
L 772.088775 327.148354 
L 781.357225 328.508894 
L 790.625675 334.486541 
L 799.894125 340.22032 
L 809.162575 343.198569 
L 818.431025 347.126878 
L 827.699475 350.65579 
L 836.967925 352.489229 
L 846.236375 352.730026 
L 855.504825 352.90278 
L 864.773275 353.043302 
L 874.041725 353.114416 
L 883.310175 353.141701 
L 892.578625 353.154662 
L 901.847075 353.176491 
L 911.115525 353.198661 
L 920.383975 353.206846 
L 929.652425 353.207017 
L 938.920875 353.208552 
L 948.189325 353.210257 
L 957.457775 353.210598 
L 966.726225 353.210939 
L 975.994675 353.210428 
L 985.263125 353.210598 
" clip-path="url(#p1a54a879f5)" style="fill: none; stroke: #f0ad4e; stroke-linecap: square"/>
   </g>
   <g id="line2d_9">
    <path d="M 58.418125 353.213327 
L 67.686575 353.213327 
L 76.955025 353.212645 
L 86.223475 353.208552 
L 95.491925 353.205653 
L 104.760375 353.206164 
L 114.028825 353.205994 
L 123.297275 353.200878 
L 132.565725 353.183312 
L 141.834175 353.158926 
L 151.102625 353.146135 
L 160.371075 353.129082 
L 169.639525 353.100943 
L 178.907975 353.035116 
L 188.176425 352.934841 
L 197.444875 352.815636 
L 206.713325 352.67733 
L 215.981775 352.515321 
L 225.250225 352.19403 
L 234.518675 351.792928 
L 243.787125 351.484257 
L 253.055575 351.024149 
L 262.324025 350.521237 
L 271.592475 350.060447 
L 280.860925 349.472779 
L 290.129375 348.76761 
L 299.397825 347.815675 
L 308.666275 347.126878 
L 317.934725 346.511071 
L 327.203175 345.653102 
L 336.471625 344.850386 
L 345.740075 343.636848 
L 355.008525 341.892601 
L 364.276975 340.30627 
L 373.545425 334.68027 
L 382.813875 329.758586 
L 392.082325 325.0968 
L 401.350775 320.027601 
L 410.619225 278.615876 
L 419.887675 200.056521 
L 429.156125 147.90236 
L 438.424575 130.877528 
L 447.693025 111.947292 
L 456.961475 104.942504 
L 466.229925 115.086699 
L 475.498375 114.877621 
L 484.766825 114.088889 
L 494.035275 110.999961 
L 503.303725 101.390228 
L 512.572175 94.897732 
L 521.840625 88.781099 
L 531.109075 82.649458 
L 540.377525 85.143214 
L 549.645975 89.956777 
L 558.914425 92.366288 
L 568.182875 94.710483 
L 577.451325 102.557551 
L 586.719775 109.363152 
L 595.988225 116.810993 
L 605.256675 124.492811 
L 614.525125 131.819742 
L 623.793575 144.84157 
L 633.062025 158.710453 
L 642.330475 171.368526 
L 651.598925 188.04103 
L 660.867375 198.811605 
L 670.135825 212.185591 
L 679.404275 225.56077 
L 688.672725 239.2951 
L 697.941175 263.282596 
L 707.209625 277.95283 
L 716.478075 286.577203 
L 725.746525 292.103098 
L 735.014975 297.046952 
L 744.283425 306.793285 
L 753.551875 317.50349 
L 762.820325 324.637374 
L 772.088775 327.381136 
L 781.357225 328.736049 
L 790.625675 334.50223 
L 799.894125 340.043644 
L 809.162575 343.044916 
L 818.431025 346.788022 
L 827.699475 350.333306 
L 836.967925 352.431587 
L 846.236375 352.694555 
L 855.504825 352.873106 
L 864.773275 353.03 
L 874.041725 353.11595 
L 883.310175 353.144771 
L 892.578625 353.155344 
L 901.847075 353.173421 
L 911.115525 353.19542 
L 920.383975 353.203947 
L 929.652425 353.204459 
L 938.920875 353.205994 
L 948.189325 353.207528 
L 957.457775 353.207358 
L 966.726225 353.207358 
L 975.994675 353.207358 
L 985.263125 353.207528 
" clip-path="url(#p1a54a879f5)" style="fill: none; stroke: #f0ad4e; stroke-linecap: square"/>
   </g>
   <g id="line2d_10">
    <path d="M 58.418125 353.211621 
L 67.686575 353.21111 
L 76.955025 353.210257 
L 86.223475 353.208211 
L 95.491925 353.206676 
L 104.760375 353.207187 
L 114.028825 353.206846 
L 123.297275 353.203777 
L 132.565725 353.190304 
L 141.834175 353.171545 
L 151.102625 353.162677 
L 160.371075 353.153809 
L 169.639525 353.13795 
L 178.907975 353.08389 
L 188.176425 353.006466 
L 197.444875 352.914376 
L 206.713325 352.805915 
L 215.981775 352.681594 
L 225.250225 352.437215 
L 234.518675 352.12411 
L 243.787125 351.861654 
L 253.055575 351.506256 
L 262.324025 351.131758 
L 271.592475 350.782329 
L 280.860925 350.338593 
L 290.129375 349.818286 
L 299.397825 349.112264 
L 308.666275 348.571493 
L 317.934725 348.090239 
L 327.203175 347.422418 
L 336.471625 346.788022 
L 345.740075 345.917263 
L 355.008525 344.58452 
L 364.276975 343.279233 
L 373.545425 338.343224 
L 382.813875 333.958901 
L 392.082325 329.67417 
L 401.350775 325.039329 
L 410.619225 288.624665 
L 419.887675 219.513204 
L 429.156125 173.382392 
L 438.424575 158.171387 
L 447.693025 141.67573 
L 456.961475 135.807909 
L 466.229925 144.898529 
L 475.498375 144.81616 
L 484.766825 144.147145 
L 494.035275 141.620988 
L 503.303725 132.827954 
L 512.572175 126.557838 
L 521.840625 121.391604 
L 531.109075 116.213263 
L 540.377525 118.153286 
L 549.645975 121.054454 
L 558.914425 122.105641 
L 568.182875 123.526892 
L 577.451325 129.385163 
L 586.719775 135.339275 
L 595.988225 142.320358 
L 605.256675 149.167058 
L 614.525125 155.354635 
L 623.793575 166.53194 
L 633.062025 179.380844 
L 642.330475 192.657283 
L 651.598925 208.811866 
L 660.867375 218.282101 
L 670.135825 230.12194 
L 679.404275 241.95257 
L 688.672725 254.15821 
L 697.941175 275.141877 
L 707.209625 287.837298 
L 716.478075 295.38695 
L 725.746525 300.147477 
L 735.014975 304.379852 
L 744.283425 312.442819 
L 753.551875 321.541625 
L 762.820325 328.009222 
L 772.088775 330.532992 
L 781.357225 331.913827 
L 790.625675 337.15953 
L 799.894125 341.963544 
L 809.162575 344.458834 
L 818.431025 347.662192 
L 827.699475 350.746516 
L 836.967925 352.557955 
L 846.236375 352.777606 
L 855.504825 352.922221 
L 864.773275 353.047395 
L 874.041725 353.117485 
L 883.310175 353.143918 
L 892.578625 353.156197 
L 901.847075 353.177173 
L 911.115525 353.201389 
L 920.383975 353.209063 
L 929.652425 353.209575 
L 938.920875 353.211621 
L 948.189325 353.213327 
L 957.457775 353.213497 
L 966.726225 353.213668 
L 975.994675 353.213668 
L 985.263125 353.213838 
" clip-path="url(#p1a54a879f5)" style="fill: none; stroke: #f0ad4e; stroke-linecap: square"/>
   </g>
   <g id="line2d_11">
    <path d="M 58.418125 353.212645 
L 67.686575 353.212133 
L 76.955025 353.21128 
L 86.223475 353.207699 
L 95.491925 353.205141 
L 104.760375 353.205823 
L 114.028825 353.205482 
L 123.297275 353.20173 
L 132.565725 353.185529 
L 141.834175 353.15705 
L 151.102625 353.139314 
L 160.371075 353.124818 
L 169.639525 353.104183 
L 178.907975 353.04893 
L 188.176425 352.962809 
L 197.444875 352.843604 
L 206.713325 352.697624 
L 215.981775 352.549258 
L 225.250225 352.260369 
L 234.518675 351.906846 
L 243.787125 351.619322 
L 253.055575 351.177632 
L 262.324025 350.727927 
L 271.592475 350.291013 
L 280.860925 349.742397 
L 290.129375 349.054111 
L 299.397825 348.11275 
L 308.666275 347.476478 
L 317.934725 346.889491 
L 327.203175 346.056079 
L 336.471625 345.308618 
L 345.740075 344.21582 
L 355.008525 342.557011 
L 364.276975 340.990804 
L 373.545425 335.648576 
L 382.813875 331.019021 
L 392.082325 326.588653 
L 401.350775 321.650427 
L 410.619225 282.141207 
L 419.887675 207.390956 
L 429.156125 157.775742 
L 438.424575 141.481318 
L 447.693025 123.304342 
L 456.961475 116.568831 
L 466.229925 126.161852 
L 475.498375 125.543998 
L 484.766825 124.459897 
L 494.035275 121.580729 
L 503.303725 112.186213 
L 512.572175 105.721174 
L 521.840625 99.260227 
L 531.109075 92.791606 
L 540.377525 95.135801 
L 549.645975 99.54076 
L 558.914425 101.655924 
L 568.182875 104.123758 
L 577.451325 112.351122 
L 586.719775 119.560042 
L 595.988225 127.190358 
L 605.256675 134.849324 
L 614.525125 141.812671 
L 623.793575 154.207777 
L 633.062025 167.513207 
L 642.330475 179.711514 
L 651.598925 196.074664 
L 660.867375 206.713415 
L 670.135825 219.521901 
L 679.404275 232.324419 
L 688.672725 245.358014 
L 697.941175 267.976273 
L 707.209625 281.730214 
L 716.478075 290.022723 
L 725.746525 295.424468 
L 735.014975 300.185506 
L 744.283425 309.302218 
L 753.551875 319.415034 
L 762.820325 326.251502 
L 772.088775 328.800853 
L 781.357225 330.150308 
L 790.625675 335.706047 
L 799.894125 340.915085 
L 809.162575 343.680165 
L 818.431025 347.215387 
L 827.699475 350.532834 
L 836.967925 352.479338 
L 846.236375 352.735483 
L 855.504825 352.893741 
L 864.773275 353.023861 
L 874.041725 353.104866 
L 883.310175 353.136244 
L 892.578625 353.150399 
L 901.847075 353.174274 
L 911.115525 353.197126 
L 920.383975 353.2048 
L 929.652425 353.204629 
L 938.920875 353.207017 
L 948.189325 353.209575 
L 957.457775 353.209916 
L 966.726225 353.209745 
L 975.994675 353.209234 
L 985.263125 353.209916 
" clip-path="url(#p1a54a879f5)" style="fill: none; stroke: #f0ad4e; stroke-linecap: square"/>
   </g>
   <g id="line2d_12">
    <path d="M 58.418125 353.216396 
L 67.686575 353.215885 
L 76.955025 353.215203 
L 86.223475 353.212645 
L 95.491925 353.210428 
L 104.760375 353.210939 
L 114.028825 353.211451 
L 123.297275 353.209063 
L 132.565725 353.196785 
L 141.834175 353.178878 
L 151.102625 353.170693 
L 160.371075 353.16046 
L 169.639525 353.143236 
L 178.907975 353.101625 
L 188.176425 353.043472 
L 197.444875 352.973211 
L 206.713325 352.874641 
L 215.981775 352.764816 
L 225.250225 352.5629 
L 234.518675 352.2926 
L 243.787125 352.067151 
L 253.055575 351.761549 
L 262.324025 351.432584 
L 271.592475 351.132099 
L 280.860925 350.777554 
L 290.129375 350.335693 
L 299.397825 349.712724 
L 308.666275 349.27615 
L 317.934725 348.867374 
L 327.203175 348.275442 
L 336.471625 347.744561 
L 345.740075 347.04485 
L 355.008525 345.974563 
L 364.276975 344.954072 
L 373.545425 341.382526 
L 382.813875 338.242607 
L 392.082325 335.21098 
L 401.350775 331.911951 
L 410.619225 304.637703 
L 419.887675 253.481521 
L 429.156125 219.941421 
L 438.424575 208.872407 
L 447.693025 196.601281 
L 456.961475 191.863435 
L 466.229925 198.768971 
L 475.498375 198.87368 
L 484.766825 198.011447 
L 494.035275 195.801465 
L 503.303725 190.100429 
L 512.572175 186.664629 
L 521.840625 182.646448 
L 531.109075 178.614623 
L 540.377525 179.763869 
L 549.645975 181.871018 
L 558.914425 182.85706 
L 568.182875 184.681119 
L 577.451325 189.453413 
L 586.719775 193.426914 
L 595.988225 198.96594 
L 605.256675 204.45534 
L 614.525125 208.478127 
L 623.793575 217.21386 
L 633.062025 227.133458 
L 642.330475 234.764115 
L 651.598925 245.517125 
L 660.867375 252.933587 
L 670.135825 260.232721 
L 679.404275 267.500306 
L 688.672725 276.167313 
L 697.941175 291.264229 
L 707.209625 300.117121 
L 716.478075 305.555019 
L 725.746525 309.475142 
L 735.014975 312.969947 
L 744.283425 319.688916 
L 753.551875 327.624833 
L 762.820325 332.81767 
L 772.088775 334.354034 
L 781.357225 335.42074 
L 790.625675 339.964174 
L 799.894125 344.204564 
L 809.162575 346.225934 
L 818.431025 348.931666 
L 827.699475 351.388927 
L 836.967925 352.659936 
L 846.236375 352.825186 
L 855.504825 352.964173 
L 864.773275 353.077239 
L 874.041725 353.13505 
L 883.310175 353.157902 
L 892.578625 353.168305 
L 901.847075 353.187746 
L 911.115525 353.205482 
L 920.383975 353.209575 
L 929.652425 353.209575 
L 938.920875 353.212133 
L 948.189325 353.21452 
L 957.457775 353.214691 
L 966.726225 353.215032 
L 975.994675 353.21452 
L 985.263125 353.21435 
" clip-path="url(#p1a54a879f5)" style="fill: none; stroke: #f0ad4e; stroke-linecap: square"/>
   </g>
   <g id="line2d_13">
    <path d="M 58.418125 353.212645 
L 67.686575 353.212304 
L 76.955025 353.210939 
L 86.223475 353.206846 
L 95.491925 353.203265 
L 104.760375 353.202924 
L 114.028825 353.203436 
L 123.297275 353.200536 
L 132.565725 353.18894 
L 141.834175 353.167623 
L 151.102625 353.153127 
L 160.371075 353.143748 
L 169.639525 353.126524 
L 178.907975 353.068541 
L 188.176425 352.994528 
L 197.444875 352.919663 
L 206.713325 352.82672 
L 215.981775 352.716724 
L 225.250225 352.49281 
L 234.518675 352.207161 
L 243.787125 351.986828 
L 253.055575 351.66315 
L 262.324025 351.302806 
L 271.592475 350.968725 
L 280.860925 350.578026 
L 290.129375 350.128321 
L 299.397825 349.474143 
L 308.666275 349.013524 
L 317.934725 348.641413 
L 327.203175 348.082906 
L 336.471625 347.538894 
L 345.740075 346.752209 
L 355.008525 345.594266 
L 364.276975 344.554505 
L 373.545425 340.6146 
L 382.813875 337.106323 
L 392.082325 333.743342 
L 401.350775 330.043382 
L 410.619225 299.505577 
L 419.887675 242.276249 
L 429.156125 204.943245 
L 438.424575 192.782115 
L 447.693025 179.173642 
L 456.961475 173.809416 
L 466.229925 181.552115 
L 475.498375 181.722822 
L 484.766825 180.638892 
L 494.035275 177.905021 
L 503.303725 171.074351 
L 512.572175 167.051394 
L 521.840625 162.114532 
L 531.109075 157.167779 
L 540.377525 158.426339 
L 549.645975 160.680491 
L 558.914425 161.69723 
L 568.182875 163.643051 
L 577.451325 168.848679 
L 586.719775 173.439351 
L 595.988225 179.970389 
L 605.256675 186.264892 
L 614.525125 190.903315 
L 623.793575 200.579898 
L 633.062025 211.612417 
L 642.330475 220.194327 
L 651.598925 232.009268 
L 660.867375 240.211051 
L 670.135825 248.373952 
L 679.404275 256.49422 
L 688.672725 266.344409 
L 697.941175 283.399767 
L 707.209625 293.20988 
L 716.478075 299.360451 
L 725.746525 303.919404 
L 735.014975 307.847542 
L 744.283425 315.546243 
L 753.551875 324.659544 
L 762.820325 330.491552 
L 772.088775 332.169631 
L 781.357225 333.318365 
L 790.625675 338.253522 
L 799.894125 342.932191 
L 809.162575 345.223691 
L 818.431025 348.271519 
L 827.699475 351.104813 
L 836.967925 352.61031 
L 846.236375 352.808132 
L 855.504825 352.951383 
L 864.773275 353.064619 
L 874.041725 353.123625 
L 883.310175 353.145283 
L 892.578625 353.153468 
L 901.847075 353.176832 
L 911.115525 353.202924 
L 920.383975 353.210257 
L 929.652425 353.210257 
L 938.920875 353.210769 
L 948.189325 353.21128 
L 957.457775 353.21128 
L 966.726225 353.21128 
L 975.994675 353.210428 
L 985.263125 353.210257 
" clip-path="url(#p1a54a879f5)" style="fill: none; stroke: #f0ad4e; stroke-linecap: square"/>
   </g>
   <g id="line2d_14">
    <path d="M 58.418125 353.210939 
L 67.686575 353.210598 
L 76.955025 353.209404 
L 86.223475 353.203606 
L 95.491925 353.199343 
L 104.760375 353.199002 
L 114.028825 353.19832 
L 123.297275 353.193203 
L 132.565725 353.178196 
L 141.834175 353.157391 
L 151.102625 353.144601 
L 160.371075 353.132151 
L 169.639525 353.110152 
L 178.907975 353.048247 
L 188.176425 352.965537 
L 197.444875 352.856394 
L 206.713325 352.713143 
L 215.981775 352.551645 
L 225.250225 352.235129 
L 234.518675 351.846647 
L 243.787125 351.540022 
L 253.055575 351.111294 
L 262.324025 350.675914 
L 271.592475 350.287261 
L 280.860925 349.779574 
L 290.129375 349.143473 
L 299.397825 348.280217 
L 308.666275 347.64224 
L 317.934725 347.063098 
L 327.203175 346.295001 
L 336.471625 345.570391 
L 345.740075 344.521251 
L 355.008525 342.949586 
L 364.276975 341.447159 
L 373.545425 336.156434 
L 382.813875 331.526709 
L 392.082325 327.184678 
L 401.350775 322.383734 
L 410.619225 282.600974 
L 419.887675 208.507118 
L 429.156125 160.370796 
L 438.424575 144.623454 
L 447.693025 126.958428 
L 456.961475 120.113263 
L 466.229925 130.244326 
L 475.498375 130.736494 
L 484.766825 129.685989 
L 494.035275 126.148721 
L 503.303725 117.137571 
L 512.572175 111.772662 
L 521.840625 105.815992 
L 531.109075 99.842268 
L 540.377525 101.708279 
L 549.645975 105.563257 
L 558.914425 107.583262 
L 568.182875 110.139605 
L 577.451325 117.144563 
L 586.719775 123.127666 
L 595.988225 131.322799 
L 605.256675 139.457903 
L 614.525125 145.295197 
L 623.793575 157.85453 
L 633.062025 172.319779 
L 642.330475 183.471844 
L 651.598925 198.685237 
L 660.867375 209.096321 
L 670.135825 219.691415 
L 679.404275 230.250524 
L 688.672725 242.742836 
L 697.941175 264.43764 
L 707.209625 277.065529 
L 716.478075 284.902023 
L 725.746525 290.594703 
L 735.014975 295.509906 
L 744.283425 305.337074 
L 753.551875 316.99495 
L 762.820325 324.430343 
L 772.088775 326.612699 
L 781.357225 328.122288 
L 790.625675 334.349941 
L 799.894125 340.156709 
L 809.162575 343.070155 
L 818.431025 346.957706 
L 827.699475 350.519361 
L 836.967925 352.415898 
L 846.236375 352.663517 
L 855.504825 352.850766 
L 864.773275 353.009195 
L 874.041725 353.091052 
L 883.310175 353.121066 
L 892.578625 353.136244 
L 901.847075 353.164383 
L 911.115525 353.195591 
L 920.383975 353.205823 
L 929.652425 353.205823 
L 938.920875 353.207699 
L 948.189325 353.209575 
L 957.457775 353.209404 
L 966.726225 353.208893 
L 975.994675 353.209234 
L 985.263125 353.209916 
" clip-path="url(#p1a54a879f5)" style="fill: none; stroke: #f0ad4e; stroke-linecap: square"/>
   </g>
   <g id="line2d_15">
    <path d="M 58.418125 353.213327 
L 67.686575 353.212986 
L 76.955025 353.212304 
L 86.223475 353.208893 
L 95.491925 353.206164 
L 104.760375 353.206164 
L 114.028825 353.205653 
L 123.297275 353.202242 
L 132.565725 353.186894 
L 141.834175 353.159778 
L 151.102625 353.14119 
L 160.371075 353.127717 
L 169.639525 353.106741 
L 178.907975 353.048588 
L 188.176425 352.968436 
L 197.444875 352.868331 
L 206.713325 352.740941 
L 215.981775 352.589675 
L 225.250225 352.307266 
L 234.518675 351.95238 
L 243.787125 351.671165 
L 253.055575 351.261536 
L 262.324025 350.803134 
L 271.592475 350.40783 
L 280.860925 349.964435 
L 290.129375 349.387681 
L 299.397825 348.553075 
L 308.666275 347.956538 
L 317.934725 347.430774 
L 327.203175 346.685018 
L 336.471625 345.958021 
L 345.740075 345.036953 
L 355.008525 343.6788 
L 364.276975 342.280742 
L 373.545425 337.562678 
L 382.813875 333.509025 
L 392.082325 329.552237 
L 401.350775 325.203555 
L 410.619225 290.170067 
L 419.887675 224.068064 
L 429.156125 180.53981 
L 438.424575 166.33821 
L 447.693025 150.669485 
L 456.961475 145.392403 
L 466.229925 155.015097 
L 475.498375 155.583325 
L 484.766825 154.894528 
L 494.035275 152.325906 
L 503.303725 144.71111 
L 512.572175 139.710979 
L 521.840625 135.040666 
L 531.109075 130.360802 
L 540.377525 132.228007 
L 549.645975 136.38671 
L 558.914425 138.70379 
L 568.182875 140.932873 
L 577.451325 147.530419 
L 586.719775 153.034997 
L 595.988225 159.906425 
L 605.256675 166.840952 
L 614.525125 172.540965 
L 623.793575 184.489606 
L 633.062025 197.605912 
L 642.330475 207.793934 
L 651.598925 221.228631 
L 660.867375 230.189472 
L 670.135825 239.436645 
L 679.404275 248.683306 
L 688.672725 259.617084 
L 697.941175 278.861449 
L 707.209625 290.57151 
L 716.478075 297.619443 
L 725.746525 302.422946 
L 735.014975 306.658902 
L 744.283425 314.641717 
L 753.551875 323.702322 
L 762.820325 329.761656 
L 772.088775 331.830264 
L 781.357225 333.034593 
L 790.625675 338.019887 
L 799.894125 342.686619 
L 809.162575 345.039852 
L 818.431025 348.119401 
L 827.699475 350.986631 
L 836.967925 352.578419 
L 846.236375 352.776924 
L 855.504825 352.922732 
L 864.773275 353.04893 
L 874.041725 353.116633 
L 883.310175 353.143407 
L 892.578625 353.152957 
L 901.847075 353.176832 
L 911.115525 353.203436 
L 920.383975 353.211792 
L 929.652425 353.211962 
L 938.920875 353.212986 
L 948.189325 353.214009 
L 957.457775 353.214009 
L 966.726225 353.213156 
L 975.994675 353.212474 
L 985.263125 353.213156 
" clip-path="url(#p1a54a879f5)" style="fill: none; stroke: #f0ad4e; stroke-linecap: square"/>
   </g>
   <g id="line2d_16">
    <path d="M 58.418125 353.21435 
L 67.686575 353.21435 
L 76.955025 353.213838 
L 86.223475 353.210087 
L 95.491925 353.207187 
L 104.760375 353.207358 
L 114.028825 353.206846 
L 123.297275 353.205312 
L 132.565725 353.195932 
L 141.834175 353.179731 
L 151.102625 353.170863 
L 160.371075 353.158926 
L 169.639525 353.142895 
L 178.907975 353.101796 
L 188.176425 353.031194 
L 197.444875 352.936716 
L 206.713325 352.826209 
L 215.981775 352.70274 
L 225.250225 352.460408 
L 234.518675 352.170496 
L 243.787125 351.949481 
L 253.055575 351.619151 
L 262.324025 351.273815 
L 271.592475 350.980833 
L 280.860925 350.615885 
L 290.129375 350.180505 
L 299.397825 349.594883 
L 308.666275 349.172805 
L 317.934725 348.749192 
L 327.203175 348.1414 
L 336.471625 347.578459 
L 345.740075 346.820765 
L 355.008525 345.661628 
L 364.276975 344.534553 
L 373.545425 340.733976 
L 382.813875 337.40442 
L 392.082325 334.100275 
L 401.350775 330.443972 
L 410.619225 301.580836 
L 419.887675 247.47369 
L 429.156125 212.04882 
L 438.424575 200.459499 
L 447.693025 187.58348 
L 456.961475 183.128725 
L 466.229925 190.790419 
L 475.498375 191.357794 
L 484.766825 190.974599 
L 494.035275 188.733919 
L 503.303725 182.160419 
L 512.572175 177.859317 
L 521.840625 174.003316 
L 531.109075 170.136059 
L 540.377525 171.569589 
L 549.645975 174.921484 
L 558.914425 176.886918 
L 568.182875 178.687272 
L 577.451325 183.957021 
L 586.719775 188.782863 
L 595.988225 194.816787 
L 605.256675 200.539651 
L 614.525125 205.122309 
L 623.793575 214.954933 
L 633.062025 226.006553 
L 642.330475 234.868142 
L 651.598925 246.217006 
L 660.867375 253.534388 
L 670.135825 260.935673 
L 679.404275 268.323486 
L 688.672725 277.236406 
L 697.941175 292.955952 
L 707.209625 302.285493 
L 716.478075 307.783932 
L 725.746525 311.660397 
L 735.014975 315.01451 
L 744.283425 321.423443 
L 753.551875 328.900787 
L 762.820325 333.99045 
L 772.088775 335.733333 
L 781.357225 336.860579 
L 790.625675 341.00223 
L 799.894125 344.75301 
L 809.162575 346.638121 
L 818.431025 349.117722 
L 827.699475 351.40257 
L 836.967925 352.67068 
L 846.236375 352.850766 
L 855.504825 352.971506 
L 864.773275 353.067859 
L 874.041725 353.130105 
L 883.310175 353.158243 
L 892.578625 353.168817 
L 901.847075 353.187235 
L 911.115525 353.206676 
L 920.383975 353.212986 
L 929.652425 353.213156 
L 938.920875 353.214179 
L 948.189325 353.215032 
L 957.457775 353.215203 
L 966.726225 353.214862 
L 975.994675 353.214691 
L 985.263125 353.215203 
" clip-path="url(#p1a54a879f5)" style="fill: none; stroke: #f0ad4e; stroke-linecap: square"/>
   </g>
   <g id="line2d_17">
    <path d="M 58.418125 353.217079 
L 67.686575 353.216908 
L 76.955025 353.215544 
L 86.223475 353.212645 
L 95.491925 353.211621 
L 104.760375 353.211621 
L 114.028825 353.210257 
L 123.297275 353.206164 
L 132.565725 353.195079 
L 141.834175 353.178367 
L 151.102625 353.165747 
L 160.371075 353.153639 
L 169.639525 353.136585 
L 178.907975 353.090882 
L 188.176425 353.02676 
L 197.444875 352.944732 
L 206.713325 352.843262 
L 215.981775 352.733607 
L 225.250225 352.531181 
L 234.518675 352.258834 
L 243.787125 352.023834 
L 253.055575 351.704931 
L 262.324025 351.365905 
L 271.592475 351.044614 
L 280.860925 350.6621 
L 290.129375 350.177094 
L 299.397825 349.491708 
L 308.666275 349.005338 
L 317.934725 348.572005 
L 327.203175 347.981778 
L 336.471625 347.38814 
L 345.740075 346.529659 
L 355.008525 345.243814 
L 364.276975 344.01868 
L 373.545425 339.938593 
L 382.813875 336.332939 
L 392.082325 332.756277 
L 401.350775 328.901299 
L 410.619225 298.217685 
L 419.887675 240.070529 
L 429.156125 201.712943 
L 438.424575 189.263947 
L 447.693025 175.291037 
L 456.961475 170.347354 
L 466.229925 178.37843 
L 475.498375 178.5563 
L 484.766825 177.927702 
L 494.035275 175.721983 
L 503.303725 168.875112 
L 512.572175 164.276765 
L 521.840625 159.931494 
L 531.109075 155.576844 
L 540.377525 157.132649 
L 549.645975 160.680832 
L 558.914425 162.721301 
L 568.182875 165.164408 
L 577.451325 171.60489 
L 586.719775 176.806254 
L 595.988225 183.174258 
L 605.256675 189.393214 
L 614.525125 194.209847 
L 623.793575 204.524749 
L 633.062025 215.976276 
L 642.330475 224.824223 
L 651.598925 236.77457 
L 660.867375 244.856125 
L 670.135825 253.165858 
L 679.404275 261.44984 
L 688.672725 271.091805 
L 697.941175 287.848553 
L 707.209625 297.904751 
L 716.478075 304.012346 
L 725.746525 308.213854 
L 735.014975 312.04598 
L 744.283425 319.231366 
L 753.551875 327.351292 
L 762.820325 332.713984 
L 772.088775 334.502571 
L 781.357225 335.540968 
L 790.625675 339.890672 
L 799.894125 343.974169 
L 809.162575 346.03408 
L 818.431025 348.735208 
L 827.699475 351.255567 
L 836.967925 352.652091 
L 846.236375 352.834054 
L 855.504825 352.960762 
L 864.773275 353.060697 
L 874.041725 353.123454 
L 883.310175 353.143407 
L 892.578625 353.151422 
L 901.847075 353.173592 
L 911.115525 353.197978 
L 920.383975 353.205823 
L 929.652425 353.206164 
L 938.920875 353.20804 
L 948.189325 353.209234 
L 957.457775 353.209234 
L 966.726225 353.209404 
L 975.994675 353.209234 
L 985.263125 353.209575 
" clip-path="url(#p1a54a879f5)" style="fill: none; stroke: #f0ad4e; stroke-linecap: square"/>
   </g>
   <g id="line2d_18">
    <path d="M 58.418125 353.212304 
L 67.686575 353.212304 
L 76.955025 353.212133 
L 86.223475 353.21111 
L 95.491925 353.210087 
L 104.760375 353.208722 
L 114.028825 353.208211 
L 123.297275 353.20804 
L 132.565725 353.200366 
L 141.834175 353.187064 
L 151.102625 353.179902 
L 160.371075 353.173933 
L 169.639525 353.16336 
L 178.907975 353.134368 
L 188.176425 353.090711 
L 197.444875 353.028806 
L 206.713325 352.953088 
L 215.981775 352.871401 
L 225.250225 352.706492 
L 234.518675 352.49929 
L 243.787125 352.326196 
L 253.055575 352.09546 
L 262.324025 351.847841 
L 271.592475 351.610795 
L 280.860925 351.319007 
L 290.129375 350.95457 
L 299.397825 350.466154 
L 308.666275 350.133437 
L 317.934725 349.842331 
L 327.203175 349.40013 
L 336.471625 348.976858 
L 345.740075 348.402491 
L 355.008525 347.511438 
L 364.276975 346.622261 
L 373.545425 343.542542 
L 382.813875 340.844142 
L 392.082325 338.266653 
L 401.350775 335.457234 
L 410.619225 311.367927 
L 419.887675 266.574122 
L 429.156125 237.423291 
L 438.424575 227.749095 
L 447.693025 216.978178 
L 456.961475 212.519501 
L 466.229925 218.56809 
L 475.498375 218.457242 
L 484.766825 217.208744 
L 494.035275 215.201529 
L 503.303725 209.795521 
L 512.572175 206.453005 
L 521.840625 202.402422 
L 531.109075 198.334444 
L 540.377525 199.281774 
L 549.645975 200.554659 
L 558.914425 200.905623 
L 568.182875 202.594616 
L 577.451325 206.717678 
L 586.719775 210.333223 
L 595.988225 215.684488 
L 605.256675 220.734757 
L 614.525125 223.855916 
L 623.793575 230.791807 
L 633.062025 239.3142 
L 642.330475 246.082283 
L 651.598925 255.422568 
L 660.867375 261.870213 
L 670.135825 268.34071 
L 679.404275 274.793812 
L 688.672725 282.457723 
L 697.941175 295.906745 
L 707.209625 303.773083 
L 716.478075 308.627405 
L 725.746525 312.2143 
L 735.014975 315.398558 
L 744.283425 322.034134 
L 753.551875 329.740168 
L 762.820325 334.314128 
L 772.088775 335.596563 
L 781.357225 336.481306 
L 790.625675 340.493007 
L 799.894125 344.40034 
L 809.162575 346.40278 
L 818.431025 349.024779 
L 827.699475 351.418089 
L 836.967925 352.68347 
L 846.236375 352.854006 
L 855.504825 352.987025 
L 864.773275 353.091393 
L 874.041725 353.142213 
L 883.310175 353.1666 
L 892.578625 353.176832 
L 901.847075 353.191839 
L 911.115525 353.206164 
L 920.383975 353.210257 
L 929.652425 353.210428 
L 938.920875 353.212645 
L 948.189325 353.21452 
L 957.457775 353.21435 
L 966.726225 353.21452 
L 975.994675 353.214179 
L 985.263125 353.214179 
" clip-path="url(#p1a54a879f5)" style="fill: none; stroke: #f0ad4e; stroke-linecap: square"/>
   </g>
   <g id="line2d_19">
    <path d="M 58.418125 353.217079 
L 67.686575 353.216908 
L 76.955025 353.216567 
L 86.223475 353.213668 
L 95.491925 353.210939 
L 104.760375 353.210428 
L 114.028825 353.209745 
L 123.297275 353.205653 
L 132.565725 353.189793 
L 141.834175 353.167111 
L 151.102625 353.153468 
L 160.371075 353.142042 
L 169.639525 353.127547 
L 178.907975 353.087812 
L 188.176425 353.028295 
L 197.444875 352.94115 
L 206.713325 352.818364 
L 215.981775 352.686028 
L 225.250225 352.436192 
L 234.518675 352.108932 
L 243.787125 351.85398 
L 253.055575 351.540875 
L 262.324025 351.182407 
L 271.592475 350.822746 
L 280.860925 350.405784 
L 290.129375 349.938343 
L 299.397825 349.315203 
L 308.666275 348.877606 
L 317.934725 348.489977 
L 327.203175 347.949546 
L 336.471625 347.47085 
L 345.740075 346.76176 
L 355.008525 345.704263 
L 364.276975 344.69912 
L 373.545425 341.124675 
L 382.813875 338.01136 
L 392.082325 335.043854 
L 401.350775 331.805365 
L 410.619225 304.038097 
L 419.887675 252.105292 
L 429.156125 218.23725 
L 438.424575 207.073758 
L 447.693025 194.640452 
L 456.961475 189.848546 
L 466.229925 197.05866 
L 475.498375 196.961113 
L 484.766825 195.665376 
L 494.035275 193.353754 
L 503.303725 187.222795 
L 512.572175 183.474403 
L 521.840625 179.038918 
L 531.109075 174.588426 
L 540.377525 175.650528 
L 549.645975 177.178024 
L 558.914425 177.674455 
L 568.182875 179.322691 
L 577.451325 183.766873 
L 586.719775 187.947405 
L 595.988225 194.118269 
L 605.256675 199.877287 
L 614.525125 203.642904 
L 623.793575 212.020682 
L 633.062025 221.946248 
L 642.330475 229.578781 
L 651.598925 240.324458 
L 660.867375 247.833522 
L 670.135825 255.390166 
L 679.404275 262.929586 
L 688.672725 271.930674 
L 697.941175 287.48531 
L 707.209625 296.36617 
L 716.478075 301.953458 
L 725.746525 306.075838 
L 735.014975 309.653353 
L 744.283425 317.238135 
L 753.551875 326.154126 
L 762.820325 331.434278 
L 772.088775 332.809655 
L 781.357225 333.843618 
L 790.625675 338.482723 
L 799.894125 342.961694 
L 809.162575 345.252511 
L 818.431025 348.333254 
L 827.699475 351.169617 
L 836.967925 352.628045 
L 846.236375 352.823651 
L 855.504825 352.973211 
L 864.773275 353.087641 
L 874.041725 353.141019 
L 883.310175 353.164553 
L 892.578625 353.173421 
L 901.847075 353.190986 
L 911.115525 353.207017 
L 920.383975 353.209745 
L 929.652425 353.209575 
L 938.920875 353.21111 
L 948.189325 353.212645 
L 957.457775 353.212645 
L 966.726225 353.212645 
L 975.994675 353.212815 
L 985.263125 353.213156 
" clip-path="url(#p1a54a879f5)" style="fill: none; stroke: #f0ad4e; stroke-linecap: square"/>
   </g>
   <g id="line2d_20">
    <path d="M 58.418125 353.210598 
L 67.686575 353.210087 
L 76.955025 353.209234 
L 86.223475 353.206505 
L 95.491925 353.203947 
L 104.760375 353.203095 
L 114.028825 353.202583 
L 123.297275 353.19849 
L 132.565725 353.184336 
L 141.834175 353.164724 
L 151.102625 353.153298 
L 160.371075 353.141701 
L 169.639525 353.123454 
L 178.907975 353.069564 
L 188.176425 352.987877 
L 197.444875 352.884021 
L 206.713325 352.758676 
L 215.981775 352.594791 
L 225.250225 352.288337 
L 234.518675 351.925435 
L 243.787125 351.626314 
L 253.055575 351.219584 
L 262.324025 350.820699 
L 271.592475 350.501796 
L 280.860925 350.122523 
L 290.129375 349.654912 
L 299.397825 348.982316 
L 308.666275 348.493217 
L 317.934725 348.079495 
L 327.203175 347.546057 
L 336.471625 347.019781 
L 345.740075 346.207857 
L 355.008525 344.963111 
L 364.276975 343.758441 
L 373.545425 339.249967 
L 382.813875 335.267257 
L 392.082325 331.376466 
L 401.350775 327.129765 
L 410.619225 290.496303 
L 419.887675 221.963302 
L 429.156125 177.192519 
L 438.424575 162.386709 
L 447.693025 146.066193 
L 456.961475 139.59689 
L 466.229925 149.005901 
L 475.498375 148.740035 
L 484.766825 146.736401 
L 494.035275 143.51923 
L 503.303725 135.196195 
L 512.572175 130.164174 
L 521.840625 124.472176 
L 531.109075 118.760226 
L 540.377525 120.114286 
L 549.645975 122.216319 
L 558.914425 123.00181 
L 568.182875 125.231575 
L 577.451325 130.987353 
L 586.719775 136.428321 
L 595.988225 144.366285 
L 605.256675 151.65638 
L 614.525125 156.352956 
L 623.793575 166.930995 
L 633.062025 179.766086 
L 642.330475 190.05626 
L 651.598925 204.702618 
L 660.867375 214.824814 
L 670.135825 224.886128 
L 679.404275 234.923737 
L 688.672725 246.68223 
L 697.941175 267.015982 
L 707.209625 278.651348 
L 716.478075 285.989876 
L 725.746525 291.370815 
L 735.014975 296.119575 
L 744.283425 306.145246 
L 753.551875 317.774984 
L 762.820325 324.697915 
L 772.088775 326.55898 
L 781.357225 327.954139 
L 790.625675 334.111531 
L 799.894125 340.02966 
L 809.162575 343.034684 
L 818.431025 346.993519 
L 827.699475 350.581266 
L 836.967925 352.437386 
L 846.236375 352.687392 
L 855.504825 352.882315 
L 864.773275 353.035969 
L 874.041725 353.110152 
L 883.310175 353.143748 
L 892.578625 353.154833 
L 901.847075 353.177344 
L 911.115525 353.200025 
L 920.383975 353.205994 
L 929.652425 353.206164 
L 938.920875 353.207017 
L 948.189325 353.20787 
L 957.457775 353.20787 
L 966.726225 353.207699 
L 975.994675 353.20787 
L 985.263125 353.208381 
" clip-path="url(#p1a54a879f5)" style="fill: none; stroke: #f0ad4e; stroke-linecap: square"/>
   </g>
   <g id="line2d_21">
    <path d="M 58.418125 353.212304 
L 67.686575 353.212133 
L 76.955025 353.210428 
L 86.223475 353.208211 
L 95.491925 353.207187 
L 104.760375 353.207187 
L 114.028825 353.207017 
L 123.297275 353.203265 
L 132.565725 353.189281 
L 141.834175 353.169328 
L 151.102625 353.158073 
L 160.371075 353.150569 
L 169.639525 353.136244 
L 178.907975 353.089688 
L 188.176425 353.021303 
L 197.444875 352.945243 
L 206.713325 352.846162 
L 215.981775 352.712973 
L 225.250225 352.477803 
L 234.518675 352.202727 
L 243.787125 351.97472 
L 253.055575 351.626314 
L 262.324025 351.25318 
L 271.592475 350.943997 
L 280.860925 350.620148 
L 290.129375 350.219899 
L 299.397825 349.614153 
L 308.666275 349.190711 
L 317.934725 348.83105 
L 327.203175 348.305797 
L 336.471625 347.791971 
L 345.740075 347.081686 
L 355.008525 346.048917 
L 364.276975 345.094594 
L 373.545425 341.651974 
L 382.813875 338.620005 
L 392.082325 335.797455 
L 401.350775 332.714496 
L 410.619225 306.30862 
L 419.887675 257.457751 
L 429.156125 225.912757 
L 438.424575 215.491782 
L 447.693025 203.795364 
L 456.961475 198.96594 
L 466.229925 205.638523 
L 475.498375 205.521194 
L 484.766825 204.127058 
L 494.035275 201.76291 
L 503.303725 195.670151 
L 512.572175 192.020499 
L 521.840625 187.609913 
L 531.109075 183.180739 
L 540.377525 184.157742 
L 549.645975 185.414597 
L 558.914425 185.727019 
L 568.182875 187.281119 
L 577.451325 191.449372 
L 586.719775 195.307932 
L 595.988225 201.225038 
L 605.256675 206.869114 
L 614.525125 210.411158 
L 623.793575 218.30103 
L 633.062025 227.752847 
L 642.330475 235.105358 
L 651.598925 245.229259 
L 660.867375 252.203521 
L 670.135825 259.344567 
L 679.404275 266.461227 
L 688.672725 275.12073 
L 697.941175 290.156424 
L 707.209625 298.757775 
L 716.478075 304.052934 
L 725.746525 307.973398 
L 735.014975 311.409027 
L 744.283425 318.650007 
L 753.551875 327.025227 
L 762.820325 332.015125 
L 772.088775 333.449849 
L 781.357225 334.527469 
L 790.625675 339.092903 
L 799.894125 343.457273 
L 809.162575 345.721316 
L 818.431025 348.69138 
L 827.699475 351.311333 
L 836.967925 352.655843 
L 846.236375 352.841728 
L 855.504825 352.974235 
L 864.773275 353.08099 
L 874.041725 353.140167 
L 883.310175 353.165065 
L 892.578625 353.173251 
L 901.847075 353.190475 
L 911.115525 353.20787 
L 920.383975 353.212645 
L 929.652425 353.212645 
L 938.920875 353.21435 
L 948.189325 353.215885 
L 957.457775 353.215544 
L 966.726225 353.215203 
L 975.994675 353.215032 
L 985.263125 353.215544 
" clip-path="url(#p1a54a879f5)" style="fill: none; stroke: #f0ad4e; stroke-linecap: square"/>
   </g>
   <g id="line2d_22">
    <path d="M 58.418125 353.20787 
L 67.686575 353.20787 
L 76.955025 353.206505 
L 86.223475 353.201901 
L 95.491925 353.199513 
L 104.760375 353.199002 
L 114.028825 353.196785 
L 123.297275 353.194227 
L 132.565725 353.178196 
L 141.834175 353.145794 
L 151.102625 353.124136 
L 160.371075 353.107424 
L 169.639525 353.08406 
L 178.907975 353.017039 
L 188.176425 352.92188 
L 197.444875 352.798582 
L 206.713325 352.651579 
L 215.981775 352.496221 
L 225.250225 352.20682 
L 234.518675 351.86046 
L 243.787125 351.556223 
L 253.055575 351.082984 
L 262.324025 350.604118 
L 271.592475 350.166692 
L 280.860925 349.637176 
L 290.129375 348.998175 
L 299.397825 348.099107 
L 308.666275 347.442371 
L 317.934725 346.805417 
L 327.203175 345.935681 
L 336.471625 345.142856 
L 345.740075 344.039826 
L 355.008525 342.421776 
L 364.276975 340.892745 
L 373.545425 335.502768 
L 382.813875 330.80875 
L 392.082325 326.396799 
L 401.350775 321.529005 
L 410.619225 281.467418 
L 419.887675 207.302448 
L 429.156125 159.978733 
L 438.424575 144.64136 
L 447.693025 127.122314 
L 456.961475 120.877778 
L 466.229925 132.414233 
L 475.498375 135.371165 
L 484.766825 135.679325 
L 494.035275 132.971034 
L 503.303725 125.600616 
L 512.572175 121.064174 
L 521.840625 116.534383 
L 531.109075 111.982934 
L 540.377525 113.791985 
L 549.645975 118.815309 
L 558.914425 122.051581 
L 568.182875 125.41422 
L 577.451325 133.276295 
L 586.719775 140.0865 
L 595.988225 149.557246 
L 605.256675 158.168829 
L 614.525125 163.486499 
L 623.793575 175.50813 
L 633.062025 190.173759 
L 642.330475 201.63893 
L 651.598925 216.719645 
L 660.867375 226.868103 
L 670.135825 236.445264 
L 679.404275 246.028734 
L 688.672725 257.167157 
L 697.941175 276.946835 
L 707.209625 288.663377 
L 716.478075 295.597562 
L 725.746525 300.725937 
L 735.014975 305.209683 
L 744.283425 313.23786 
L 753.551875 322.513512 
L 762.820325 328.454493 
L 772.088775 330.139053 
L 781.357225 331.413131 
L 790.625675 336.977397 
L 799.894125 342.234526 
L 809.162575 344.671152 
L 818.431025 347.940167 
L 827.699475 350.911595 
L 836.967925 352.471152 
L 846.236375 352.717918 
L 855.504825 352.895617 
L 864.773275 353.037163 
L 874.041725 353.111858 
L 883.310175 353.141701 
L 892.578625 353.153468 
L 901.847075 353.175297 
L 911.115525 353.198149 
L 920.383975 353.205482 
L 929.652425 353.205994 
L 938.920875 353.207017 
L 948.189325 353.207699 
L 957.457775 353.20804 
L 966.726225 353.20787 
L 975.994675 353.206505 
L 985.263125 353.207187 
" clip-path="url(#p1a54a879f5)" style="fill: none; stroke: #f0ad4e; stroke-linecap: square"/>
   </g>
   <g id="line2d_23">
    <path d="M 58.418125 353.210598 
L 67.686575 353.210598 
L 76.955025 353.210257 
L 86.223475 353.205312 
L 95.491925 353.200707 
L 104.760375 353.201048 
L 114.028825 353.199343 
L 123.297275 353.195591 
L 132.565725 353.182801 
L 141.834175 353.159096 
L 151.102625 353.145283 
L 160.371075 353.133175 
L 169.639525 353.111858 
L 178.907975 353.049612 
L 188.176425 352.961956 
L 197.444875 352.862021 
L 206.713325 352.74401 
L 215.981775 352.606899 
L 225.250225 352.326707 
L 234.518675 351.982224 
L 243.787125 351.712946 
L 253.055575 351.317984 
L 262.324025 350.874418 
L 271.592475 350.450294 
L 280.860925 349.95642 
L 290.129375 349.369604 
L 299.397825 348.534316 
L 308.666275 347.910835 
L 317.934725 347.33391 
L 327.203175 346.52028 
L 336.471625 345.739905 
L 345.740075 344.698609 
L 355.008525 343.211019 
L 364.276975 341.772372 
L 373.545425 336.827154 
L 382.813875 332.524006 
L 392.082325 328.301181 
L 401.350775 323.66651 
L 410.619225 286.74126 
L 419.887675 218.12606 
L 429.156125 173.958976 
L 438.424575 159.45655 
L 447.693025 143.170653 
L 456.961475 137.450517 
L 466.229925 147.987628 
L 475.498375 150.579271 
L 484.766825 150.881121 
L 494.035275 148.372017 
L 503.303725 141.555331 
L 512.572175 137.346831 
L 521.840625 132.981608 
L 531.109075 128.59285 
L 540.377525 130.277751 
L 549.645975 134.41275 
L 558.914425 136.899002 
L 568.182875 140.190016 
L 577.451325 147.849152 
L 586.719775 154.361771 
L 595.988225 163.370704 
L 605.256675 171.608983 
L 614.525125 176.336426 
L 623.793575 187.344558 
L 633.062025 200.939218 
L 642.330475 211.365992 
L 651.598925 225.197016 
L 660.867375 234.585222 
L 670.135825 243.436579 
L 679.404275 252.289983 
L 688.672725 262.879789 
L 697.941175 281.638807 
L 707.209625 292.654784 
L 716.478075 299.170985 
L 725.746525 303.962379 
L 735.014975 308.095502 
L 744.283425 315.773738 
L 753.551875 324.616228 
L 762.820325 330.192431 
L 772.088775 331.780979 
L 781.357225 332.942844 
L 790.625675 337.952184 
L 799.894125 342.698897 
L 809.162575 345.031837 
L 818.431025 348.159988 
L 827.699475 351.008289 
L 836.967925 352.519584 
L 846.236375 352.746227 
L 855.504825 352.908919 
L 864.773275 353.036821 
L 874.041725 353.111516 
L 883.310175 353.143748 
L 892.578625 353.155174 
L 901.847075 353.175468 
L 911.115525 353.197296 
L 920.383975 353.205653 
L 929.652425 353.205823 
L 938.920875 353.207528 
L 948.189325 353.209234 
L 957.457775 353.209575 
L 966.726225 353.209745 
L 975.994675 353.208893 
L 985.263125 353.209063 
" clip-path="url(#p1a54a879f5)" style="fill: none; stroke: #f0ad4e; stroke-linecap: square"/>
   </g>
   <g id="line2d_24">
    <path d="M 58.418125 353.214009 
L 67.686575 353.213497 
L 76.955025 353.212815 
L 86.223475 353.208552 
L 95.491925 353.204288 
L 104.760375 353.20497 
L 114.028825 353.205141 
L 123.297275 353.201048 
L 132.565725 353.18587 
L 141.834175 353.161484 
L 151.102625 353.148011 
L 160.371075 353.138802 
L 169.639525 353.121408 
L 178.907975 353.067006 
L 188.176425 352.987195 
L 197.444875 352.882997 
L 206.713325 352.753219 
L 215.981775 352.613209 
L 225.250225 352.35928 
L 234.518675 352.046004 
L 243.787125 351.779456 
L 253.055575 351.382276 
L 262.324025 350.965485 
L 271.592475 350.59525 
L 280.860925 350.159188 
L 290.129375 349.620975 
L 299.397825 348.836677 
L 308.666275 348.2589 
L 317.934725 347.75667 
L 327.203175 347.048772 
L 336.471625 346.320923 
L 345.740075 345.333516 
L 355.008525 343.879692 
L 364.276975 342.442922 
L 373.545425 337.399304 
L 382.813875 333.003043 
L 392.082325 328.76504 
L 401.350775 324.048853 
L 410.619225 285.983566 
L 419.887675 215.285603 
L 429.156125 169.686013 
L 438.424575 154.709495 
L 447.693025 137.799094 
L 456.961475 131.426485 
L 466.229925 141.639747 
L 475.498375 143.833358 
L 484.766825 143.995197 
L 494.035275 140.983011 
L 503.303725 133.393283 
L 512.572175 128.895552 
L 521.840625 124.128204 
L 531.109075 119.344313 
L 540.377525 121.116699 
L 549.645975 125.909799 
L 558.914425 128.969395 
L 568.182875 132.172582 
L 577.451325 139.912553 
L 586.719775 146.681659 
L 595.988225 155.760512 
L 605.256675 163.966047 
L 614.525125 169.023308 
L 623.793575 180.449255 
L 633.062025 194.30927 
L 642.330475 205.203484 
L 651.598925 219.654238 
L 660.867375 229.386757 
L 670.135825 238.870293 
L 679.404275 248.359286 
L 688.672725 259.235594 
L 697.941175 278.6933 
L 707.209625 290.222933 
L 716.478075 296.953839 
L 725.746525 301.887461 
L 735.014975 306.138084 
L 744.283425 314.114589 
L 753.551875 323.324925 
L 762.820325 329.135787 
L 772.088775 330.785898 
L 781.357225 332.045651 
L 790.625675 337.365538 
L 799.894125 342.356119 
L 809.162575 344.804 
L 818.431025 348.039419 
L 827.699475 350.966679 
L 836.967925 352.513104 
L 846.236375 352.733437 
L 855.504825 352.900051 
L 864.773275 353.040573 
L 874.041725 353.116121 
L 883.310175 353.144942 
L 892.578625 353.159096 
L 901.847075 353.179219 
L 911.115525 353.197126 
L 920.383975 353.203777 
L 929.652425 353.203947 
L 938.920875 353.205823 
L 948.189325 353.207528 
L 957.457775 353.207528 
L 966.726225 353.207017 
L 975.994675 353.206335 
L 985.263125 353.207017 
" clip-path="url(#p1a54a879f5)" style="fill: none; stroke: #f0ad4e; stroke-linecap: square"/>
   </g>
   <g id="line2d_25">
    <path d="M 58.418125 353.212304 
L 67.686575 353.212474 
L 76.955025 353.211962 
L 86.223475 353.208381 
L 95.491925 353.205312 
L 104.760375 353.2048 
L 114.028825 353.204118 
L 123.297275 353.200025 
L 132.565725 353.188258 
L 141.834175 353.171545 
L 151.102625 353.161654 
L 160.371075 353.150399 
L 169.639525 353.132322 
L 178.907975 353.08406 
L 188.176425 353.009877 
L 197.444875 352.915229 
L 206.713325 352.806256 
L 215.981775 352.689268 
L 225.250225 352.459044 
L 234.518675 352.177658 
L 243.787125 351.937202 
L 253.055575 351.578393 
L 262.324025 351.185647 
L 271.592475 350.835707 
L 280.860925 350.451488 
L 290.129375 349.942095 
L 299.397825 349.216633 
L 308.666275 348.684047 
L 317.934725 348.202793 
L 327.203175 347.568227 
L 336.471625 346.89546 
L 345.740075 345.943525 
L 355.008525 344.519545 
L 364.276975 343.127115 
L 373.545425 338.312186 
L 382.813875 334.079129 
L 392.082325 329.949757 
L 401.350775 325.417749 
L 410.619225 289.301354 
L 419.887675 222.297383 
L 429.156125 179.186603 
L 438.424575 165.008196 
L 447.693025 149.155633 
L 456.961475 143.700169 
L 466.229925 154.067084 
L 475.498375 156.559476 
L 484.766825 156.814769 
L 494.035275 154.417707 
L 503.303725 147.76252 
L 512.572175 143.574825 
L 521.840625 139.079653 
L 531.109075 134.561799 
L 540.377525 136.344076 
L 549.645975 140.655239 
L 558.914425 143.229659 
L 568.182875 146.618902 
L 577.451325 154.153887 
L 586.719775 160.273591 
L 595.988225 168.721799 
L 605.256675 176.514636 
L 614.525125 181.144191 
L 623.793575 191.986051 
L 633.062025 205.261126 
L 642.330475 215.421692 
L 651.598925 228.954106 
L 660.867375 238.124025 
L 670.135825 246.875107 
L 679.404275 255.633181 
L 688.672725 265.844908 
L 697.941175 283.807179 
L 707.209625 294.3286 
L 716.478075 300.662838 
L 725.746525 305.337415 
L 735.014975 309.332915 
L 744.283425 316.642792 
L 753.551875 325.198439 
L 762.820325 330.669422 
L 772.088775 332.194359 
L 781.357225 333.288351 
L 790.625675 338.334015 
L 799.894125 343.176229 
L 809.162575 345.422195 
L 818.431025 348.364462 
L 827.699475 351.081961 
L 836.967925 352.551133 
L 846.236375 352.766521 
L 855.504825 352.933135 
L 864.773275 353.059162 
L 874.041725 353.122431 
L 883.310175 353.145283 
L 892.578625 353.158414 
L 901.847075 353.180754 
L 911.115525 353.200878 
L 920.383975 353.206164 
L 929.652425 353.206164 
L 938.920875 353.207699 
L 948.189325 353.208893 
L 957.457775 353.208722 
L 966.726225 353.209063 
L 975.994675 353.208893 
L 985.263125 353.209063 
" clip-path="url(#p1a54a879f5)" style="fill: none; stroke: #f0ad4e; stroke-linecap: square"/>
   </g>
   <g id="line2d_26">
    <path d="M 58.418125 353.210939 
L 67.686575 353.210428 
L 76.955025 353.209404 
L 86.223475 353.206164 
L 95.491925 353.203947 
L 104.760375 353.203777 
L 114.028825 353.202924 
L 123.297275 353.199513 
L 132.565725 353.186553 
L 141.834175 353.162507 
L 151.102625 353.14767 
L 160.371075 353.137097 
L 169.639525 353.117997 
L 178.907975 353.062061 
L 188.176425 352.982591 
L 197.444875 352.883168 
L 206.713325 352.740941 
L 215.981775 352.581318 
L 225.250225 352.309313 
L 234.518675 351.961418 
L 243.787125 351.670994 
L 253.055575 351.264947 
L 262.324025 350.838094 
L 271.592475 350.477239 
L 280.860925 350.037766 
L 290.129375 349.499382 
L 299.397825 348.747998 
L 308.666275 348.214901 
L 317.934725 347.725632 
L 327.203175 347.035471 
L 336.471625 346.397664 
L 345.740075 345.468752 
L 355.008525 344.081778 
L 364.276975 342.743066 
L 373.545425 338.086055 
L 382.813875 334.027627 
L 392.082325 330.131038 
L 401.350775 325.842726 
L 410.619225 290.671785 
L 419.887675 225.339755 
L 429.156125 183.236675 
L 438.424575 169.524515 
L 447.693025 153.987444 
L 456.961475 147.997178 
L 466.229925 157.332518 
L 475.498375 158.230904 
L 484.766825 157.296876 
L 494.035275 154.328858 
L 503.303725 146.825763 
L 512.572175 142.367085 
L 521.840625 137.141505 
L 531.109075 131.903135 
L 540.377525 133.231614 
L 549.645975 136.083667 
L 558.914425 137.650727 
L 568.182875 140.702137 
L 577.451325 147.590619 
L 586.719775 153.577645 
L 595.988225 161.616225 
L 605.256675 168.824633 
L 614.525125 173.557363 
L 623.793575 183.679046 
L 633.062025 195.826192 
L 642.330475 205.855786 
L 651.598925 219.437997 
L 660.867375 228.502866 
L 670.135825 237.499862 
L 679.404275 246.483385 
L 688.672725 257.386126 
L 697.941175 276.533455 
L 707.209625 287.570408 
L 716.478075 294.223891 
L 725.746525 299.166892 
L 735.014975 303.354416 
L 744.283425 311.918931 
L 753.551875 322.02322 
L 762.820325 328.252748 
L 772.088775 330.029227 
L 781.357225 331.324623 
L 790.625675 336.68595 
L 799.894125 341.719677 
L 809.162575 344.298189 
L 818.431025 347.711989 
L 827.699475 350.806545 
L 836.967925 352.469446 
L 846.236375 352.704446 
L 855.504825 352.882145 
L 864.773275 353.031194 
L 874.041725 353.108276 
L 883.310175 353.137438 
L 892.578625 353.153298 
L 901.847075 353.178708 
L 911.115525 353.200878 
L 920.383975 353.207358 
L 929.652425 353.207528 
L 938.920875 353.208722 
L 948.189325 353.209575 
L 957.457775 353.209404 
L 966.726225 353.209575 
L 975.994675 353.209404 
L 985.263125 353.209745 
" clip-path="url(#p1a54a879f5)" style="fill: none; stroke: #f0ad4e; stroke-linecap: square"/>
   </g>
   <g id="line2d_27">
    <path d="M 58.418125 353.209575 
L 67.686575 353.208893 
L 76.955025 353.207187 
L 86.223475 353.203095 
L 95.491925 353.200366 
L 104.760375 353.199854 
L 114.028825 353.199002 
L 123.297275 353.195591 
L 132.565725 353.175809 
L 141.834175 353.143577 
L 151.102625 353.124648 
L 160.371075 353.103672 
L 169.639525 353.076045 
L 178.907975 353.005784 
L 188.176425 352.899028 
L 197.444875 352.765157 
L 206.713325 352.599736 
L 215.981775 352.414704 
L 225.250225 352.061864 
L 234.518675 351.614888 
L 243.787125 351.264606 
L 253.055575 350.749415 
L 262.324025 350.174025 
L 271.592475 349.658493 
L 280.860925 349.039616 
L 290.129375 348.253954 
L 299.397825 347.160303 
L 308.666275 346.389819 
L 317.934725 345.720464 
L 327.203175 344.747382 
L 336.471625 343.763898 
L 345.740075 342.427744 
L 355.008525 340.502899 
L 364.276975 338.673724 
L 373.545425 332.267519 
L 382.813875 326.634527 
L 392.082325 321.316687 
L 401.350775 315.498492 
L 410.619225 267.069701 
L 419.887675 177.309678 
L 429.156125 119.347554 
L 438.424575 100.11632 
L 447.693025 78.451531 
L 456.961475 69.920953 
L 466.229925 82.802941 
L 475.498375 84.299058 
L 484.766825 83.083815 
L 494.035275 79.32843 
L 503.303725 69.677938 
L 512.572175 63.902719 
L 521.840625 57.163116 
L 531.109075 50.396909 
L 540.377525 52.220967 
L 549.645975 56.387174 
L 558.914425 58.777755 
L 568.182875 62.837036 
L 577.451325 72.120533 
L 586.719775 80.182136 
L 595.988225 91.19078 
L 605.256675 101.073201 
L 614.525125 107.311768 
L 623.793575 121.198045 
L 633.062025 138.065983 
L 642.330475 151.774903 
L 651.598925 170.199157 
L 660.867375 182.516158 
L 670.135825 194.851917 
L 679.404275 207.161243 
L 688.672725 222.004401 
L 697.941175 248.191478 
L 707.209625 263.392251 
L 716.478075 272.41244 
L 725.746525 279.12885 
L 735.014975 285.07273 
L 744.283425 296.965265 
L 753.551875 310.76184 
L 762.820325 319.269225 
L 772.088775 321.728021 
L 781.357225 323.420596 
L 790.625675 330.687498 
L 799.894125 337.558074 
L 809.162575 341.073514 
L 818.431025 345.733765 
L 827.699475 349.947211 
L 836.967925 352.207502 
L 846.236375 352.52777 
L 855.504825 352.775048 
L 864.773275 352.97594 
L 874.041725 353.079285 
L 883.310175 353.123795 
L 892.578625 353.142042 
L 901.847075 353.167282 
L 911.115525 353.191328 
L 920.383975 353.199172 
L 929.652425 353.199854 
L 938.920875 353.202583 
L 948.189325 353.205141 
L 957.457775 353.2048 
L 966.726225 353.204459 
L 975.994675 353.203947 
L 985.263125 353.204288 
" clip-path="url(#p1a54a879f5)" style="fill: none; stroke: #f0ad4e; stroke-linecap: square"/>
   </g>
   <g id="line2d_28">
    <path d="M 58.418125 353.203777 
L 67.686575 353.203777 
L 76.955025 353.203095 
L 86.223475 353.197467 
L 95.491925 353.192862 
L 104.760375 353.192692 
L 114.028825 353.19218 
L 123.297275 353.186553 
L 132.565725 353.165747 
L 141.834175 353.133175 
L 151.102625 353.112881 
L 160.371075 353.098556 
L 169.639525 353.073998 
L 178.907975 352.997257 
L 188.176425 352.89016 
L 197.444875 352.770614 
L 206.713325 352.621736 
L 215.981775 352.448129 
L 225.250225 352.110467 
L 234.518675 351.670824 
L 243.787125 351.317643 
L 253.055575 350.807397 
L 262.324025 350.225527 
L 271.592475 349.686631 
L 280.860925 349.063662 
L 290.129375 348.328308 
L 299.397825 347.305259 
L 308.666275 346.548248 
L 317.934725 345.913852 
L 327.203175 345.048379 
L 336.471625 344.232021 
L 345.740075 343.117565 
L 355.008525 341.4093 
L 364.276975 339.748104 
L 373.545425 334.213 
L 382.813875 329.383065 
L 392.082325 324.683248 
L 401.350775 319.574656 
L 410.619225 277.494769 
L 419.887675 199.053255 
L 429.156125 148.094554 
L 438.424575 131.220136 
L 447.693025 112.620911 
L 456.961475 105.69133 
L 466.229925 117.114378 
L 475.498375 118.733281 
L 484.766825 118.010547 
L 494.035275 114.571508 
L 503.303725 105.86306 
L 512.572175 100.666301 
L 521.840625 94.281925 
L 531.109075 87.880154 
L 540.377525 89.685965 
L 549.645975 93.534463 
L 558.914425 95.647581 
L 568.182875 99.049614 
L 577.451325 107.246282 
L 586.719775 114.535354 
L 595.988225 124.337623 
L 605.256675 133.143106 
L 614.525125 138.792128 
L 623.793575 151.076726 
L 633.062025 165.59757 
L 642.330475 177.296205 
L 651.598925 193.336359 
L 660.867375 204.172591 
L 670.135825 215.224892 
L 679.404275 226.253148 
L 688.672725 239.26014 
L 697.941175 262.135909 
L 707.209625 275.347544 
L 716.478075 283.185573 
L 725.746525 289.027984 
L 735.014975 294.213317 
L 744.283425 304.428967 
L 753.551875 316.321672 
L 762.820325 323.720229 
L 772.088775 325.826525 
L 781.357225 327.238056 
L 790.625675 333.518405 
L 799.894125 339.564095 
L 809.162575 342.635117 
L 818.431025 346.66353 
L 827.699475 350.351553 
L 836.967925 352.33711 
L 846.236375 352.614061 
L 855.504825 352.814101 
L 864.773275 352.979521 
L 874.041725 353.074169 
L 883.310175 353.112881 
L 892.578625 353.127206 
L 901.847075 353.159778 
L 911.115525 353.193544 
L 920.383975 353.201901 
L 929.652425 353.202071 
L 938.920875 353.203265 
L 948.189325 353.204459 
L 957.457775 353.204459 
L 966.726225 353.204459 
L 975.994675 353.203947 
L 985.263125 353.203947 
" clip-path="url(#p1a54a879f5)" style="fill: none; stroke: #f0ad4e; stroke-linecap: square"/>
   </g>
   <g id="line2d_29">
    <path d="M 58.418125 353.204459 
L 67.686575 353.203947 
L 76.955025 353.203265 
L 86.223475 353.199854 
L 95.491925 353.196955 
L 104.760375 353.196273 
L 114.028825 353.19542 
L 123.297275 353.191669 
L 132.565725 353.179049 
L 141.834175 353.158926 
L 151.102625 353.145453 
L 160.371075 353.134539 
L 169.639525 353.116462 
L 178.907975 353.057627 
L 188.176425 352.973211 
L 197.444875 352.87106 
L 206.713325 352.731902 
L 215.981775 352.575179 
L 225.250225 352.305902 
L 234.518675 351.963465 
L 243.787125 351.679862 
L 253.055575 351.291039 
L 262.324025 350.868961 
L 271.592475 350.437845 
L 280.860925 349.909182 
L 290.129375 349.266429 
L 299.397825 348.389872 
L 308.666275 347.773212 
L 317.934725 347.240797 
L 327.203175 346.476964 
L 336.471625 345.734959 
L 345.740075 344.717538 
L 355.008525 343.208119 
L 364.276975 341.772714 
L 373.545425 336.922314 
L 382.813875 332.720976 
L 392.082325 328.623665 
L 401.350775 324.086541 
L 410.619225 287.648173 
L 419.887675 220.144701 
L 429.156125 176.561705 
L 438.424575 162.141989 
L 447.693025 146.022706 
L 456.961475 139.738265 
L 466.229925 149.324634 
L 475.498375 150.373263 
L 484.766825 149.457653 
L 494.035275 146.560919 
L 503.303725 139.273041 
L 512.572175 134.949428 
L 521.840625 129.529607 
L 531.109075 124.092562 
L 540.377525 125.482776 
L 549.645975 128.282474 
L 558.914425 129.717027 
L 568.182875 132.703292 
L 577.451325 139.721893 
L 586.719775 145.927376 
L 595.988225 154.403894 
L 605.256675 162.067635 
L 614.525125 167.131546 
L 623.793575 177.966925 
L 633.062025 190.697647 
L 642.330475 200.98731 
L 651.598925 214.924237 
L 660.867375 224.233996 
L 670.135825 233.711563 
L 679.404275 243.162186 
L 688.672725 254.308623 
L 697.941175 274.086256 
L 707.209625 285.552449 
L 716.478075 292.25931 
L 725.746525 297.308555 
L 735.014975 301.758365 
L 744.283425 310.57084 
L 753.551875 320.87892 
L 762.820325 327.261249 
L 772.088775 329.060068 
L 781.357225 330.360068 
L 790.625675 335.903529 
L 799.894125 341.158782 
L 809.162575 343.865538 
L 818.431025 347.441518 
L 827.699475 350.708827 
L 836.967925 352.460067 
L 846.236375 352.708539 
L 855.504825 352.886067 
L 864.773275 353.02693 
L 874.041725 353.104524 
L 883.310175 353.13164 
L 892.578625 353.145112 
L 901.847075 353.171034 
L 911.115525 353.19542 
L 920.383975 353.204118 
L 929.652425 353.2048 
L 938.920875 353.206335 
L 948.189325 353.207358 
L 957.457775 353.207017 
L 966.726225 353.207017 
L 975.994675 353.206335 
L 985.263125 353.206505 
" clip-path="url(#p1a54a879f5)" style="fill: none; stroke: #f0ad4e; stroke-linecap: square"/>
   </g>
   <g id="line2d_30">
    <path d="M 58.418125 353.216737 
L 67.686575 353.216567 
L 76.955025 353.213497 
L 86.223475 353.209234 
L 95.491925 353.207528 
L 104.760375 353.207358 
L 114.028825 353.205994 
L 123.297275 353.202924 
L 132.565725 353.191157 
L 141.834175 353.168476 
L 151.102625 353.154492 
L 160.371075 353.145112 
L 169.639525 353.129252 
L 178.907975 353.077068 
L 188.176425 353.002203 
L 197.444875 352.913524 
L 206.713325 352.794148 
L 215.981775 352.646122 
L 225.250225 352.387418 
L 234.518675 352.063228 
L 243.787125 351.789347 
L 253.055575 351.398136 
L 262.324025 351.006414 
L 271.592475 350.673356 
L 280.860925 350.244286 
L 290.129375 349.720909 
L 299.397825 349.042856 
L 308.666275 348.607476 
L 317.934725 348.146346 
L 327.203175 347.444929 
L 336.471625 346.797231 
L 345.740075 345.852118 
L 355.008525 344.346792 
L 364.276975 342.866876 
L 373.545425 337.479798 
L 382.813875 332.701876 
L 392.082325 328.106769 
L 401.350775 323.043199 
L 410.619225 281.5636 
L 419.887675 204.771856 
L 429.156125 155.395905 
L 438.424575 139.198346 
L 447.693025 121.06929 
L 456.961475 114.652171 
L 466.229925 126.356093 
L 475.498375 128.77703 
L 484.766825 128.70097 
L 494.035275 125.625515 
L 503.303725 117.566129 
L 512.572175 112.673266 
L 521.840625 107.399083 
L 531.109075 102.106311 
L 540.377525 104.072597 
L 549.645975 108.830907 
L 558.914425 111.655504 
L 568.182875 115.497692 
L 577.451325 124.15549 
L 586.719775 131.287157 
L 595.988225 141.001258 
L 605.256675 149.870863 
L 614.525125 155.099854 
L 623.793575 166.970048 
L 633.062025 181.649662 
L 642.330475 193.131715 
L 651.598925 208.410424 
L 660.867375 218.817415 
L 670.135825 229.007143 
L 679.404275 239.201475 
L 688.672725 250.994758 
L 697.941175 271.943294 
L 707.209625 284.239148 
L 716.478075 291.491725 
L 725.746525 296.904384 
L 735.014975 301.596867 
L 744.283425 310.469882 
L 753.551875 320.750335 
L 762.820325 327.17888 
L 772.088775 329.012659 
L 781.357225 330.314194 
L 790.625675 335.97089 
L 799.894125 341.362744 
L 809.162575 344.023113 
L 818.431025 347.532926 
L 827.699475 350.751973 
L 836.967925 352.473028 
L 846.236375 352.718259 
L 855.504825 352.893571 
L 864.773275 353.03648 
L 874.041725 353.11578 
L 883.310175 353.146135 
L 892.578625 353.157391 
L 901.847075 353.178367 
L 911.115525 353.20173 
L 920.383975 353.209916 
L 929.652425 353.209916 
L 938.920875 353.210598 
L 948.189325 353.211451 
L 957.457775 353.211621 
L 966.726225 353.210769 
L 975.994675 353.209745 
L 985.263125 353.210598 
" clip-path="url(#p1a54a879f5)" style="fill: none; stroke: #f0ad4e; stroke-linecap: square"/>
   </g>
   <g id="line2d_31">
    <path d="M 58.418125 353.209916 
L 67.686575 353.209234 
L 76.955025 353.208552 
L 86.223475 353.204288 
L 95.491925 353.200366 
L 104.760375 353.200195 
L 114.028825 353.200025 
L 123.297275 353.197296 
L 132.565725 353.18263 
L 141.834175 353.156368 
L 151.102625 353.138632 
L 160.371075 353.127206 
L 169.639525 353.111687 
L 178.907975 353.054046 
L 188.176425 352.967413 
L 197.444875 352.86151 
L 206.713325 352.731049 
L 215.981775 352.590186 
L 225.250225 352.313064 
L 234.518675 351.956984 
L 243.787125 351.647972 
L 253.055575 351.213615 
L 262.324025 350.771926 
L 271.592475 350.36332 
L 280.860925 349.875927 
L 290.129375 349.287917 
L 299.397825 348.444784 
L 308.666275 347.82676 
L 317.934725 347.27354 
L 327.203175 346.51414 
L 336.471625 345.776229 
L 345.740075 344.721119 
L 355.008525 343.142974 
L 364.276975 341.631509 
L 373.545425 336.24426 
L 382.813875 331.500617 
L 392.082325 326.958035 
L 401.350775 321.953811 
L 410.619225 281.77984 
L 419.887675 207.380895 
L 429.156125 159.690697 
L 438.424575 144.169315 
L 447.693025 126.547265 
L 456.961475 120.301535 
L 466.229925 131.548078 
L 475.498375 133.336835 
L 484.766825 132.835117 
L 494.035275 129.986986 
L 503.303725 122.096943 
L 512.572175 117.114037 
L 521.840625 112.284272 
L 531.109075 107.44905 
L 540.377525 109.249063 
L 549.645975 113.741506 
L 558.914425 116.477935 
L 568.182875 119.873659 
L 577.451325 127.807359 
L 586.719775 134.690042 
L 595.988225 143.928006 
L 605.256675 152.346882 
L 614.525125 157.604353 
L 623.793575 169.501663 
L 633.062025 183.869706 
L 642.330475 195.139612 
L 651.598925 210.418491 
L 660.867375 220.685984 
L 670.135825 230.313623 
L 679.404275 239.949448 
L 688.672725 251.773769 
L 697.941175 272.654772 
L 707.209625 284.804306 
L 716.478075 292.05262 
L 725.746525 297.533152 
L 735.014975 302.218302 
L 744.283425 311.066078 
L 753.551875 321.221698 
L 762.820325 327.47766 
L 772.088775 329.277161 
L 781.357225 330.636508 
L 790.625675 336.191565 
L 799.894125 341.397874 
L 809.162575 344.044772 
L 818.431025 347.571126 
L 827.699475 350.743105 
L 836.967925 352.435169 
L 846.236375 352.688415 
L 855.504825 352.873789 
L 864.773275 353.024543 
L 874.041725 353.102137 
L 883.310175 353.131128 
L 892.578625 353.145965 
L 901.847075 353.173592 
L 911.115525 353.200707 
L 920.383975 353.207528 
L 929.652425 353.207699 
L 938.920875 353.208722 
L 948.189325 353.209575 
L 957.457775 353.209745 
L 966.726225 353.209916 
L 975.994675 353.209745 
L 985.263125 353.209916 
" clip-path="url(#p1a54a879f5)" style="fill: none; stroke: #f0ad4e; stroke-linecap: square"/>
   </g>
   <g id="line2d_32">
    <path d="M 58.418125 353.211962 
L 67.686575 353.21128 
L 76.955025 353.209404 
L 86.223475 353.205653 
L 95.491925 353.203095 
L 104.760375 353.203436 
L 114.028825 353.203265 
L 123.297275 353.198831 
L 132.565725 353.179902 
L 141.834175 353.150058 
L 151.102625 353.132833 
L 160.371075 353.119361 
L 169.639525 353.096339 
L 178.907975 353.024713 
L 188.176425 352.918469 
L 197.444875 352.788861 
L 206.713325 352.632479 
L 215.981775 352.437897 
L 225.250225 352.065445 
L 234.518675 351.605849 
L 243.787125 351.220949 
L 253.055575 350.727416 
L 262.324025 350.196536 
L 271.592475 349.702321 
L 280.860925 349.159844 
L 290.129375 348.48776 
L 299.397825 347.549297 
L 308.666275 346.881476 
L 317.934725 346.319388 
L 327.203175 345.538842 
L 336.471625 344.732034 
L 345.740075 343.568634 
L 355.008525 341.8955 
L 364.276975 340.337819 
L 373.545425 334.739617 
L 382.813875 329.827824 
L 392.082325 325.070878 
L 401.350775 319.796865 
L 410.619225 277.311954 
L 419.887675 198.315514 
L 429.156125 147.424346 
L 438.424575 130.865761 
L 447.693025 112.114417 
L 456.961475 105.428363 
L 466.229925 117.26462 
L 475.498375 119.412187 
L 484.766825 119.22255 
L 494.035275 115.844392 
L 503.303725 107.343488 
L 512.572175 102.294413 
L 521.840625 97.060476 
L 531.109075 91.805905 
L 540.377525 93.690504 
L 549.645975 98.570748 
L 558.914425 101.596066 
L 568.182875 105.289887 
L 577.451325 113.847921 
L 586.719775 121.243408 
L 595.988225 131.241623 
L 605.256675 140.299159 
L 614.525125 145.874339 
L 623.793575 158.392061 
L 633.062025 173.649964 
L 642.330475 185.792847 
L 651.598925 202.150028 
L 660.867375 213.136843 
L 670.135825 223.693225 
L 679.404275 234.251652 
L 688.672725 246.549382 
L 697.941175 268.260899 
L 707.209625 280.889981 
L 716.478075 288.372612 
L 725.746525 293.941482 
L 735.014975 298.868112 
L 744.283425 308.426343 
L 753.551875 319.383655 
L 762.820325 326.136731 
L 772.088775 328.080677 
L 781.357225 329.465093 
L 790.625675 335.324386 
L 799.894125 340.888141 
L 809.162575 343.640088 
L 818.431025 347.280532 
L 827.699475 350.633109 
L 836.967925 352.413169 
L 846.236375 352.666928 
L 855.504825 352.860146 
L 864.773275 353.013458 
L 874.041725 353.094974 
L 883.310175 353.129934 
L 892.578625 353.15074 
L 901.847075 353.177514 
L 911.115525 353.197637 
L 920.383975 353.203436 
L 929.652425 353.203265 
L 938.920875 353.2048 
L 948.189325 353.206676 
L 957.457775 353.206676 
L 966.726225 353.206164 
L 975.994675 353.206164 
L 985.263125 353.206505 
" clip-path="url(#p1a54a879f5)" style="fill: none; stroke: #f0ad4e; stroke-linecap: square"/>
   </g>
   <g id="line2d_33">
    <path d="M 58.418125 353.209916 
L 67.686575 353.209745 
L 76.955025 353.209063 
L 86.223475 353.204629 
L 95.491925 353.200366 
L 104.760375 353.200536 
L 114.028825 353.200195 
L 123.297275 353.196614 
L 132.565725 353.1857 
L 141.834175 353.171716 
L 151.102625 353.163189 
L 160.371075 353.149376 
L 169.639525 353.129764 
L 178.907975 353.085595 
L 188.176425 353.013628 
L 197.444875 352.913694 
L 206.713325 352.791078 
L 215.981775 352.66454 
L 225.250225 352.412146 
L 234.518675 352.094948 
L 243.787125 351.855856 
L 253.055575 351.50421 
L 262.324025 351.148982 
L 271.592475 350.832637 
L 280.860925 350.394187 
L 290.129375 349.872175 
L 299.397825 349.182867 
L 308.666275 348.683706 
L 317.934725 348.207227 
L 327.203175 347.555948 
L 336.471625 346.93349 
L 345.740075 345.99588 
L 355.008525 344.589636 
L 364.276975 343.241033 
L 373.545425 338.415532 
L 382.813875 334.162692 
L 392.082325 330.071862 
L 401.350775 325.587604 
L 410.619225 289.107624 
L 419.887675 221.161439 
L 429.156125 177.10367 
L 438.424575 162.607553 
L 447.693025 146.673303 
L 456.961475 141.017289 
L 466.229925 151.192009 
L 475.498375 153.511476 
L 484.766825 153.709981 
L 494.035275 150.988218 
L 503.303725 143.965694 
L 512.572175 139.721893 
L 521.840625 135.410048 
L 531.109075 131.086947 
L 540.377525 132.881332 
L 549.645975 136.833857 
L 558.914425 139.015701 
L 568.182875 142.30501 
L 577.451325 149.866429 
L 586.719775 156.112158 
L 595.988225 164.600784 
L 605.256675 172.427729 
L 614.525125 177.226115 
L 623.793575 187.890957 
L 633.062025 200.84423 
L 642.330475 211.226493 
L 651.598925 225.198721 
L 660.867375 234.592043 
L 670.135825 243.544529 
L 679.404275 252.514068 
L 688.672725 262.90878 
L 697.941175 281.333546 
L 707.209625 292.140787 
L 716.478075 298.553642 
L 725.746525 303.312464 
L 735.014975 307.482423 
L 744.283425 315.529189 
L 753.551875 324.737991 
L 762.820325 330.345914 
L 772.088775 331.926276 
L 781.357225 333.107241 
L 790.625675 338.040351 
L 799.894125 342.724478 
L 809.162575 345.055371 
L 818.431025 348.1605 
L 827.699475 351.033017 
L 836.967925 352.548234 
L 846.236375 352.762258 
L 855.504825 352.930407 
L 864.773275 353.05848 
L 874.041725 353.119873 
L 883.310175 353.1475 
L 892.578625 353.160631 
L 901.847075 353.181607 
L 911.115525 353.20156 
L 920.383975 353.206505 
L 929.652425 353.206676 
L 938.920875 353.207017 
L 948.189325 353.207699 
L 957.457775 353.207699 
L 966.726225 353.207528 
L 975.994675 353.207358 
L 985.263125 353.207528 
" clip-path="url(#p1a54a879f5)" style="fill: none; stroke: #f0ad4e; stroke-linecap: square"/>
   </g>
   <g id="line2d_34">
    <path d="M 58.418125 353.2239 
L 985.263125 353.2239 
" clip-path="url(#p1a54a879f5)" style="fill: none; stroke: #dedede; stroke-width: 2; stroke-linecap: square"/>
   </g>
   <g id="text_14">
    <!-- FastQC: Per Sequence GC Content -->
    <g transform="translate(385.204375 19.3575) scale(0.16 -0.16)">
     <defs>
      <path id="DejaVuSans-46" d="M 628 4666 
L 3309 4666 
L 3309 4134 
L 1259 4134 
L 1259 2759 
L 3109 2759 
L 3109 2228 
L 1259 2228 
L 1259 0 
L 628 0 
L 628 4666 
z
" transform="scale(0.015625)"/>
      <path id="DejaVuSans-61" d="M 2194 1759 
Q 1497 1759 1228 1600 
Q 959 1441 959 1056 
Q 959 750 1161 570 
Q 1363 391 1709 391 
Q 2188 391 2477 730 
Q 2766 1069 2766 1631 
L 2766 1759 
L 2194 1759 
z
M 3341 1997 
L 3341 0 
L 2766 0 
L 2766 531 
Q 2569 213 2275 61 
Q 1981 -91 1556 -91 
Q 1019 -91 701 211 
Q 384 513 384 1019 
Q 384 1609 779 1909 
Q 1175 2209 1959 2209 
L 2766 2209 
L 2766 2266 
Q 2766 2663 2505 2880 
Q 2244 3097 1772 3097 
Q 1472 3097 1187 3025 
Q 903 2953 641 2809 
L 641 3341 
Q 956 3463 1253 3523 
Q 1550 3584 1831 3584 
Q 2591 3584 2966 3190 
Q 3341 2797 3341 1997 
z
" transform="scale(0.015625)"/>
      <path id="DejaVuSans-73" d="M 2834 3397 
L 2834 2853 
Q 2591 2978 2328 3040 
Q 2066 3103 1784 3103 
Q 1356 3103 1142 2972 
Q 928 2841 928 2578 
Q 928 2378 1081 2264 
Q 1234 2150 1697 2047 
L 1894 2003 
Q 2506 1872 2764 1633 
Q 3022 1394 3022 966 
Q 3022 478 2636 193 
Q 2250 -91 1575 -91 
Q 1294 -91 989 -36 
Q 684 19 347 128 
L 347 722 
Q 666 556 975 473 
Q 1284 391 1588 391 
Q 1994 391 2212 530 
Q 2431 669 2431 922 
Q 2431 1156 2273 1281 
Q 2116 1406 1581 1522 
L 1381 1569 
Q 847 1681 609 1914 
Q 372 2147 372 2553 
Q 372 3047 722 3315 
Q 1072 3584 1716 3584 
Q 2034 3584 2315 3537 
Q 2597 3491 2834 3397 
z
" transform="scale(0.015625)"/>
      <path id="DejaVuSans-51" d="M 2522 4238 
Q 1834 4238 1429 3725 
Q 1025 3213 1025 2328 
Q 1025 1447 1429 934 
Q 1834 422 2522 422 
Q 3209 422 3611 934 
Q 4013 1447 4013 2328 
Q 4013 3213 3611 3725 
Q 3209 4238 2522 4238 
z
M 3406 84 
L 4238 -825 
L 3475 -825 
L 2784 -78 
Q 2681 -84 2626 -87 
Q 2572 -91 2522 -91 
Q 1538 -91 948 567 
Q 359 1225 359 2328 
Q 359 3434 948 4092 
Q 1538 4750 2522 4750 
Q 3503 4750 4090 4092 
Q 4678 3434 4678 2328 
Q 4678 1516 4351 937 
Q 4025 359 3406 84 
z
" transform="scale(0.015625)"/>
      <path id="DejaVuSans-3a" d="M 750 794 
L 1409 794 
L 1409 0 
L 750 0 
L 750 794 
z
M 750 3309 
L 1409 3309 
L 1409 2516 
L 750 2516 
L 750 3309 
z
" transform="scale(0.015625)"/>
      <path id="DejaVuSans-50" d="M 1259 4147 
L 1259 2394 
L 2053 2394 
Q 2494 2394 2734 2622 
Q 2975 2850 2975 3272 
Q 2975 3691 2734 3919 
Q 2494 4147 2053 4147 
L 1259 4147 
z
M 628 4666 
L 2053 4666 
Q 2838 4666 3239 4311 
Q 3641 3956 3641 3272 
Q 3641 2581 3239 2228 
Q 2838 1875 2053 1875 
L 1259 1875 
L 1259 0 
L 628 0 
L 628 4666 
z
" transform="scale(0.015625)"/>
      <path id="DejaVuSans-65" d="M 3597 1894 
L 3597 1613 
L 953 1613 
Q 991 1019 1311 708 
Q 1631 397 2203 397 
Q 2534 397 2845 478 
Q 3156 559 3463 722 
L 3463 178 
Q 3153 47 2828 -22 
Q 2503 -91 2169 -91 
Q 1331 -91 842 396 
Q 353 884 353 1716 
Q 353 2575 817 3079 
Q 1281 3584 2069 3584 
Q 2775 3584 3186 3129 
Q 3597 2675 3597 1894 
z
M 3022 2063 
Q 3016 2534 2758 2815 
Q 2500 3097 2075 3097 
Q 1594 3097 1305 2825 
Q 1016 2553 972 2059 
L 3022 2063 
z
" transform="scale(0.015625)"/>
      <path id="DejaVuSans-72" d="M 2631 2963 
Q 2534 3019 2420 3045 
Q 2306 3072 2169 3072 
Q 1681 3072 1420 2755 
Q 1159 2438 1159 1844 
L 1159 0 
L 581 0 
L 581 3500 
L 1159 3500 
L 1159 2956 
Q 1341 3275 1631 3429 
Q 1922 3584 2338 3584 
Q 2397 3584 2469 3576 
Q 2541 3569 2628 3553 
L 2631 2963 
z
" transform="scale(0.015625)"/>
      <path id="DejaVuSans-53" d="M 3425 4513 
L 3425 3897 
Q 3066 4069 2747 4153 
Q 2428 4238 2131 4238 
Q 1616 4238 1336 4038 
Q 1056 3838 1056 3469 
Q 1056 3159 1242 3001 
Q 1428 2844 1947 2747 
L 2328 2669 
Q 3034 2534 3370 2195 
Q 3706 1856 3706 1288 
Q 3706 609 3251 259 
Q 2797 -91 1919 -91 
Q 1588 -91 1214 -16 
Q 841 59 441 206 
L 441 856 
Q 825 641 1194 531 
Q 1563 422 1919 422 
Q 2459 422 2753 634 
Q 3047 847 3047 1241 
Q 3047 1584 2836 1778 
Q 2625 1972 2144 2069 
L 1759 2144 
Q 1053 2284 737 2584 
Q 422 2884 422 3419 
Q 422 4038 858 4394 
Q 1294 4750 2059 4750 
Q 2388 4750 2728 4690 
Q 3069 4631 3425 4513 
z
" transform="scale(0.015625)"/>
      <path id="DejaVuSans-71" d="M 947 1747 
Q 947 1113 1208 752 
Q 1469 391 1925 391 
Q 2381 391 2643 752 
Q 2906 1113 2906 1747 
Q 2906 2381 2643 2742 
Q 2381 3103 1925 3103 
Q 1469 3103 1208 2742 
Q 947 2381 947 1747 
z
M 2906 525 
Q 2725 213 2448 61 
Q 2172 -91 1784 -91 
Q 1150 -91 751 415 
Q 353 922 353 1747 
Q 353 2572 751 3078 
Q 1150 3584 1784 3584 
Q 2172 3584 2448 3432 
Q 2725 3281 2906 2969 
L 2906 3500 
L 3481 3500 
L 3481 -1331 
L 2906 -1331 
L 2906 525 
z
" transform="scale(0.015625)"/>
      <path id="DejaVuSans-63" d="M 3122 3366 
L 3122 2828 
Q 2878 2963 2633 3030 
Q 2388 3097 2138 3097 
Q 1578 3097 1268 2742 
Q 959 2388 959 1747 
Q 959 1106 1268 751 
Q 1578 397 2138 397 
Q 2388 397 2633 464 
Q 2878 531 3122 666 
L 3122 134 
Q 2881 22 2623 -34 
Q 2366 -91 2075 -91 
Q 1284 -91 818 406 
Q 353 903 353 1747 
Q 353 2603 823 3093 
Q 1294 3584 2113 3584 
Q 2378 3584 2631 3529 
Q 2884 3475 3122 3366 
z
" transform="scale(0.015625)"/>
     </defs>
     <use xlink:href="#DejaVuSans-46"/>
     <use xlink:href="#DejaVuSans-61" x="48.394531"/>
     <use xlink:href="#DejaVuSans-73" x="109.673828"/>
     <use xlink:href="#DejaVuSans-74" x="161.773438"/>
     <use xlink:href="#DejaVuSans-51" x="200.982422"/>
     <use xlink:href="#DejaVuSans-43" x="279.693359"/>
     <use xlink:href="#DejaVuSans-3a" x="349.517578"/>
     <use xlink:href="#DejaVuSans-20" x="383.208984"/>
     <use xlink:href="#DejaVuSans-50" x="414.996094"/>
     <use xlink:href="#DejaVuSans-65" x="471.673828"/>
     <use xlink:href="#DejaVuSans-72" x="533.197266"/>
     <use xlink:href="#DejaVuSans-20" x="574.310547"/>
     <use xlink:href="#DejaVuSans-53" x="606.097656"/>
     <use xlink:href="#DejaVuSans-65" x="669.574219"/>
     <use xlink:href="#DejaVuSans-71" x="731.097656"/>
     <use xlink:href="#DejaVuSans-75" x="794.574219"/>
     <use xlink:href="#DejaVuSans-65" x="857.953125"/>
     <use xlink:href="#DejaVuSans-6e" x="919.476562"/>
     <use xlink:href="#DejaVuSans-63" x="982.855469"/>
     <use xlink:href="#DejaVuSans-65" x="1037.835938"/>
     <use xlink:href="#DejaVuSans-20" x="1099.359375"/>
     <use xlink:href="#DejaVuSans-47" x="1131.146484"/>
     <use xlink:href="#DejaVuSans-43" x="1208.636719"/>
     <use xlink:href="#DejaVuSans-20" x="1278.460938"/>
     <use xlink:href="#DejaVuSans-43" x="1310.248047"/>
     <use xlink:href="#DejaVuSans-6f" x="1380.072266"/>
     <use xlink:href="#DejaVuSans-6e" x="1441.253906"/>
     <use xlink:href="#DejaVuSans-74" x="1504.632812"/>
     <use xlink:href="#DejaVuSans-65" x="1543.841797"/>
     <use xlink:href="#DejaVuSans-6e" x="1605.365234"/>
     <use xlink:href="#DejaVuSans-74" x="1668.744141"/>
    </g>
   </g>
  </g>
 </g>
 <defs>
  <clipPath id="p1a54a879f5">
   <rect x="58.418125" y="35.2559" width="926.845" height="317.968"/>
  </clipPath>
 </defs>
</svg>
