<?xml version="1.0" encoding="utf-8" standalone="no"?>
<!DOCTYPE svg PUBLIC "-//W3C//DTD SVG 1.1//EN"
  "http://www.w3.org/Graphics/SVG/1.1/DTD/svg11.dtd">
<svg xmlns:xlink="http://www.w3.org/1999/xlink" width="1000.158125pt" height="388.844525pt" viewBox="0 0 1000.158125 388.844525" xmlns="http://www.w3.org/2000/svg" version="1.1">
 <metadata>
  <rdf:RDF xmlns:dc="http://purl.org/dc/elements/1.1/" xmlns:cc="http://creativecommons.org/ns#" xmlns:rdf="http://www.w3.org/1999/02/22-rdf-syntax-ns#">
   <cc:Work>
    <dc:type rdf:resource="http://purl.org/dc/dcmitype/StillImage"/>
    <dc:date>2024-01-15T17:08:49.155270</dc:date>
    <dc:format>image/svg+xml</dc:format>
    <dc:creator>
     <cc:Agent>
      <dc:title>Matplotlib v3.6.2, https://matplotlib.org/</dc:title>
     </cc:Agent>
    </dc:creator>
   </cc:Work>
  </rdf:RDF>
 </metadata>
 <defs>
  <style type="text/css">*{stroke-linejoin: round; stroke-linecap: butt}</style>
 </defs>
 <g id="figure_1">
  <g id="axes_1">
   <g id="patch_1">
    <path d="M 58.418125 353.2239 
L 992.958125 353.2239 
L 992.958125 35.2559 
L 58.418125 35.2559 
z
" style="fill: #ffffff"/>
   </g>
   <g id="matplotlib.axis_1">
    <g id="xtick_1">
     <g id="text_1">
      <!-- 10 -->
      <g transform="translate(139.941336 366.30265) scale(0.08 -0.08)">
       <defs>
        <path id="DejaVuSans-31" d="M 794 531 
L 1825 531 
L 1825 4091 
L 703 3866 
L 703 4441 
L 1819 4666 
L 2450 4666 
L 2450 531 
L 3481 531 
L 3481 0 
L 794 0 
L 794 531 
z
" transform="scale(0.015625)"/>
        <path id="DejaVuSans-30" d="M 2034 4250 
Q 1547 4250 1301 3770 
Q 1056 3291 1056 2328 
Q 1056 1369 1301 889 
Q 1547 409 2034 409 
Q 2525 409 2770 889 
Q 3016 1369 3016 2328 
Q 3016 3291 2770 3770 
Q 2525 4250 2034 4250 
z
M 2034 4750 
Q 2819 4750 3233 4129 
Q 3647 3509 3647 2328 
Q 3647 1150 3233 529 
Q 2819 -91 2034 -91 
Q 1250 -91 836 529 
Q 422 1150 422 2328 
Q 422 3509 836 4129 
Q 1250 4750 2034 4750 
z
" transform="scale(0.015625)"/>
       </defs>
       <use xlink:href="#DejaVuSans-31"/>
       <use xlink:href="#DejaVuSans-30" x="63.623047"/>
      </g>
     </g>
    </g>
    <g id="xtick_2">
     <g id="text_2">
      <!-- 20 -->
      <g transform="translate(250.276637 366.30265) scale(0.08 -0.08)">
       <defs>
        <path id="DejaVuSans-32" d="M 1228 531 
L 3431 531 
L 3431 0 
L 469 0 
L 469 531 
Q 828 903 1448 1529 
Q 2069 2156 2228 2338 
Q 2531 2678 2651 2914 
Q 2772 3150 2772 3378 
Q 2772 3750 2511 3984 
Q 2250 4219 1831 4219 
Q 1534 4219 1204 4116 
Q 875 4013 500 3803 
L 500 4441 
Q 881 4594 1212 4672 
Q 1544 4750 1819 4750 
Q 2544 4750 2975 4387 
Q 3406 4025 3406 3419 
Q 3406 3131 3298 2873 
Q 3191 2616 2906 2266 
Q 2828 2175 2409 1742 
Q 1991 1309 1228 531 
z
" transform="scale(0.015625)"/>
       </defs>
       <use xlink:href="#DejaVuSans-32"/>
       <use xlink:href="#DejaVuSans-30" x="63.623047"/>
      </g>
     </g>
    </g>
    <g id="xtick_3">
     <g id="text_3">
      <!-- 30 -->
      <g transform="translate(360.611938 366.30265) scale(0.08 -0.08)">
       <defs>
        <path id="DejaVuSans-33" d="M 2597 2516 
Q 3050 2419 3304 2112 
Q 3559 1806 3559 1356 
Q 3559 666 3084 287 
Q 2609 -91 1734 -91 
Q 1441 -91 1130 -33 
Q 819 25 488 141 
L 488 750 
Q 750 597 1062 519 
Q 1375 441 1716 441 
Q 2309 441 2620 675 
Q 2931 909 2931 1356 
Q 2931 1769 2642 2001 
Q 2353 2234 1838 2234 
L 1294 2234 
L 1294 2753 
L 1863 2753 
Q 2328 2753 2575 2939 
Q 2822 3125 2822 3475 
Q 2822 3834 2567 4026 
Q 2313 4219 1838 4219 
Q 1578 4219 1281 4162 
Q 984 4106 628 3988 
L 628 4550 
Q 988 4650 1302 4700 
Q 1616 4750 1894 4750 
Q 2613 4750 3031 4423 
Q 3450 4097 3450 3541 
Q 3450 3153 3228 2886 
Q 3006 2619 2597 2516 
z
" transform="scale(0.015625)"/>
       </defs>
       <use xlink:href="#DejaVuSans-33"/>
       <use xlink:href="#DejaVuSans-30" x="63.623047"/>
      </g>
     </g>
    </g>
    <g id="xtick_4">
     <g id="text_4">
      <!-- 40 -->
      <g transform="translate(470.94724 366.30265) scale(0.08 -0.08)">
       <defs>
        <path id="DejaVuSans-34" d="M 2419 4116 
L 825 1625 
L 2419 1625 
L 2419 4116 
z
M 2253 4666 
L 3047 4666 
L 3047 1625 
L 3713 1625 
L 3713 1100 
L 3047 1100 
L 3047 0 
L 2419 0 
L 2419 1100 
L 313 1100 
L 313 1709 
L 2253 4666 
z
" transform="scale(0.015625)"/>
       </defs>
       <use xlink:href="#DejaVuSans-34"/>
       <use xlink:href="#DejaVuSans-30" x="63.623047"/>
      </g>
     </g>
    </g>
    <g id="xtick_5">
     <g id="text_5">
      <!-- 50 -->
      <g transform="translate(581.282541 366.30265) scale(0.08 -0.08)">
       <defs>
        <path id="DejaVuSans-35" d="M 691 4666 
L 3169 4666 
L 3169 4134 
L 1269 4134 
L 1269 2991 
Q 1406 3038 1543 3061 
Q 1681 3084 1819 3084 
Q 2600 3084 3056 2656 
Q 3513 2228 3513 1497 
Q 3513 744 3044 326 
Q 2575 -91 1722 -91 
Q 1428 -91 1123 -41 
Q 819 9 494 109 
L 494 744 
Q 775 591 1075 516 
Q 1375 441 1709 441 
Q 2250 441 2565 725 
Q 2881 1009 2881 1497 
Q 2881 1984 2565 2268 
Q 2250 2553 1709 2553 
Q 1456 2553 1204 2497 
Q 953 2441 691 2322 
L 691 4666 
z
" transform="scale(0.015625)"/>
       </defs>
       <use xlink:href="#DejaVuSans-35"/>
       <use xlink:href="#DejaVuSans-30" x="63.623047"/>
      </g>
     </g>
    </g>
    <g id="xtick_6">
     <g id="text_6">
      <!-- 60 -->
      <g transform="translate(691.617842 366.30265) scale(0.08 -0.08)">
       <defs>
        <path id="DejaVuSans-36" d="M 2113 2584 
Q 1688 2584 1439 2293 
Q 1191 2003 1191 1497 
Q 1191 994 1439 701 
Q 1688 409 2113 409 
Q 2538 409 2786 701 
Q 3034 994 3034 1497 
Q 3034 2003 2786 2293 
Q 2538 2584 2113 2584 
z
M 3366 4563 
L 3366 3988 
Q 3128 4100 2886 4159 
Q 2644 4219 2406 4219 
Q 1781 4219 1451 3797 
Q 1122 3375 1075 2522 
Q 1259 2794 1537 2939 
Q 1816 3084 2150 3084 
Q 2853 3084 3261 2657 
Q 3669 2231 3669 1497 
Q 3669 778 3244 343 
Q 2819 -91 2113 -91 
Q 1303 -91 875 529 
Q 447 1150 447 2328 
Q 447 3434 972 4092 
Q 1497 4750 2381 4750 
Q 2619 4750 2861 4703 
Q 3103 4656 3366 4563 
z
" transform="scale(0.015625)"/>
       </defs>
       <use xlink:href="#DejaVuSans-36"/>
       <use xlink:href="#DejaVuSans-30" x="63.623047"/>
      </g>
     </g>
    </g>
    <g id="xtick_7">
     <g id="text_7">
      <!-- 70 -->
      <g transform="translate(801.953143 366.30265) scale(0.08 -0.08)">
       <defs>
        <path id="DejaVuSans-37" d="M 525 4666 
L 3525 4666 
L 3525 4397 
L 1831 0 
L 1172 0 
L 2766 4134 
L 525 4134 
L 525 4666 
z
" transform="scale(0.015625)"/>
       </defs>
       <use xlink:href="#DejaVuSans-37"/>
       <use xlink:href="#DejaVuSans-30" x="63.623047"/>
      </g>
     </g>
    </g>
    <g id="xtick_8">
     <g id="text_8">
      <!-- 80 -->
      <g transform="translate(912.288444 366.30265) scale(0.08 -0.08)">
       <defs>
        <path id="DejaVuSans-38" d="M 2034 2216 
Q 1584 2216 1326 1975 
Q 1069 1734 1069 1313 
Q 1069 891 1326 650 
Q 1584 409 2034 409 
Q 2484 409 2743 651 
Q 3003 894 3003 1313 
Q 3003 1734 2745 1975 
Q 2488 2216 2034 2216 
z
M 1403 2484 
Q 997 2584 770 2862 
Q 544 3141 544 3541 
Q 544 4100 942 4425 
Q 1341 4750 2034 4750 
Q 2731 4750 3128 4425 
Q 3525 4100 3525 3541 
Q 3525 3141 3298 2862 
Q 3072 2584 2669 2484 
Q 3125 2378 3379 2068 
Q 3634 1759 3634 1313 
Q 3634 634 3220 271 
Q 2806 -91 2034 -91 
Q 1263 -91 848 271 
Q 434 634 434 1313 
Q 434 1759 690 2068 
Q 947 2378 1403 2484 
z
M 1172 3481 
Q 1172 3119 1398 2916 
Q 1625 2713 2034 2713 
Q 2441 2713 2670 2916 
Q 2900 3119 2900 3481 
Q 2900 3844 2670 4047 
Q 2441 4250 2034 4250 
Q 1625 4250 1398 4047 
Q 1172 3844 1172 3481 
z
" transform="scale(0.015625)"/>
       </defs>
       <use xlink:href="#DejaVuSans-38"/>
       <use xlink:href="#DejaVuSans-30" x="63.623047"/>
      </g>
     </g>
    </g>
    <g id="text_9">
     <!-- Length Trimmed (bp) -->
     <g transform="translate(473.260781 379.564837) scale(0.1 -0.1)">
      <defs>
       <path id="DejaVuSans-4c" d="M 628 4666 
L 1259 4666 
L 1259 531 
L 3531 531 
L 3531 0 
L 628 0 
L 628 4666 
z
" transform="scale(0.015625)"/>
       <path id="DejaVuSans-65" d="M 3597 1894 
L 3597 1613 
L 953 1613 
Q 991 1019 1311 708 
Q 1631 397 2203 397 
Q 2534 397 2845 478 
Q 3156 559 3463 722 
L 3463 178 
Q 3153 47 2828 -22 
Q 2503 -91 2169 -91 
Q 1331 -91 842 396 
Q 353 884 353 1716 
Q 353 2575 817 3079 
Q 1281 3584 2069 3584 
Q 2775 3584 3186 3129 
Q 3597 2675 3597 1894 
z
M 3022 2063 
Q 3016 2534 2758 2815 
Q 2500 3097 2075 3097 
Q 1594 3097 1305 2825 
Q 1016 2553 972 2059 
L 3022 2063 
z
" transform="scale(0.015625)"/>
       <path id="DejaVuSans-6e" d="M 3513 2113 
L 3513 0 
L 2938 0 
L 2938 2094 
Q 2938 2591 2744 2837 
Q 2550 3084 2163 3084 
Q 1697 3084 1428 2787 
Q 1159 2491 1159 1978 
L 1159 0 
L 581 0 
L 581 3500 
L 1159 3500 
L 1159 2956 
Q 1366 3272 1645 3428 
Q 1925 3584 2291 3584 
Q 2894 3584 3203 3211 
Q 3513 2838 3513 2113 
z
" transform="scale(0.015625)"/>
       <path id="DejaVuSans-67" d="M 2906 1791 
Q 2906 2416 2648 2759 
Q 2391 3103 1925 3103 
Q 1463 3103 1205 2759 
Q 947 2416 947 1791 
Q 947 1169 1205 825 
Q 1463 481 1925 481 
Q 2391 481 2648 825 
Q 2906 1169 2906 1791 
z
M 3481 434 
Q 3481 -459 3084 -895 
Q 2688 -1331 1869 -1331 
Q 1566 -1331 1297 -1286 
Q 1028 -1241 775 -1147 
L 775 -588 
Q 1028 -725 1275 -790 
Q 1522 -856 1778 -856 
Q 2344 -856 2625 -561 
Q 2906 -266 2906 331 
L 2906 616 
Q 2728 306 2450 153 
Q 2172 0 1784 0 
Q 1141 0 747 490 
Q 353 981 353 1791 
Q 353 2603 747 3093 
Q 1141 3584 1784 3584 
Q 2172 3584 2450 3431 
Q 2728 3278 2906 2969 
L 2906 3500 
L 3481 3500 
L 3481 434 
z
" transform="scale(0.015625)"/>
       <path id="DejaVuSans-74" d="M 1172 4494 
L 1172 3500 
L 2356 3500 
L 2356 3053 
L 1172 3053 
L 1172 1153 
Q 1172 725 1289 603 
Q 1406 481 1766 481 
L 2356 481 
L 2356 0 
L 1766 0 
Q 1100 0 847 248 
Q 594 497 594 1153 
L 594 3053 
L 172 3053 
L 172 3500 
L 594 3500 
L 594 4494 
L 1172 4494 
z
" transform="scale(0.015625)"/>
       <path id="DejaVuSans-68" d="M 3513 2113 
L 3513 0 
L 2938 0 
L 2938 2094 
Q 2938 2591 2744 2837 
Q 2550 3084 2163 3084 
Q 1697 3084 1428 2787 
Q 1159 2491 1159 1978 
L 1159 0 
L 581 0 
L 581 4863 
L 1159 4863 
L 1159 2956 
Q 1366 3272 1645 3428 
Q 1925 3584 2291 3584 
Q 2894 3584 3203 3211 
Q 3513 2838 3513 2113 
z
" transform="scale(0.015625)"/>
       <path id="DejaVuSans-20" transform="scale(0.015625)"/>
       <path id="DejaVuSans-54" d="M -19 4666 
L 3928 4666 
L 3928 4134 
L 2272 4134 
L 2272 0 
L 1638 0 
L 1638 4134 
L -19 4134 
L -19 4666 
z
" transform="scale(0.015625)"/>
       <path id="DejaVuSans-72" d="M 2631 2963 
Q 2534 3019 2420 3045 
Q 2306 3072 2169 3072 
Q 1681 3072 1420 2755 
Q 1159 2438 1159 1844 
L 1159 0 
L 581 0 
L 581 3500 
L 1159 3500 
L 1159 2956 
Q 1341 3275 1631 3429 
Q 1922 3584 2338 3584 
Q 2397 3584 2469 3576 
Q 2541 3569 2628 3553 
L 2631 2963 
z
" transform="scale(0.015625)"/>
       <path id="DejaVuSans-69" d="M 603 3500 
L 1178 3500 
L 1178 0 
L 603 0 
L 603 3500 
z
M 603 4863 
L 1178 4863 
L 1178 4134 
L 603 4134 
L 603 4863 
z
" transform="scale(0.015625)"/>
       <path id="DejaVuSans-6d" d="M 3328 2828 
Q 3544 3216 3844 3400 
Q 4144 3584 4550 3584 
Q 5097 3584 5394 3201 
Q 5691 2819 5691 2113 
L 5691 0 
L 5113 0 
L 5113 2094 
Q 5113 2597 4934 2840 
Q 4756 3084 4391 3084 
Q 3944 3084 3684 2787 
Q 3425 2491 3425 1978 
L 3425 0 
L 2847 0 
L 2847 2094 
Q 2847 2600 2669 2842 
Q 2491 3084 2119 3084 
Q 1678 3084 1418 2786 
Q 1159 2488 1159 1978 
L 1159 0 
L 581 0 
L 581 3500 
L 1159 3500 
L 1159 2956 
Q 1356 3278 1631 3431 
Q 1906 3584 2284 3584 
Q 2666 3584 2933 3390 
Q 3200 3197 3328 2828 
z
" transform="scale(0.015625)"/>
       <path id="DejaVuSans-64" d="M 2906 2969 
L 2906 4863 
L 3481 4863 
L 3481 0 
L 2906 0 
L 2906 525 
Q 2725 213 2448 61 
Q 2172 -91 1784 -91 
Q 1150 -91 751 415 
Q 353 922 353 1747 
Q 353 2572 751 3078 
Q 1150 3584 1784 3584 
Q 2172 3584 2448 3432 
Q 2725 3281 2906 2969 
z
M 947 1747 
Q 947 1113 1208 752 
Q 1469 391 1925 391 
Q 2381 391 2643 752 
Q 2906 1113 2906 1747 
Q 2906 2381 2643 2742 
Q 2381 3103 1925 3103 
Q 1469 3103 1208 2742 
Q 947 2381 947 1747 
z
" transform="scale(0.015625)"/>
       <path id="DejaVuSans-28" d="M 1984 4856 
Q 1566 4138 1362 3434 
Q 1159 2731 1159 2009 
Q 1159 1288 1364 580 
Q 1569 -128 1984 -844 
L 1484 -844 
Q 1016 -109 783 600 
Q 550 1309 550 2009 
Q 550 2706 781 3412 
Q 1013 4119 1484 4856 
L 1984 4856 
z
" transform="scale(0.015625)"/>
       <path id="DejaVuSans-62" d="M 3116 1747 
Q 3116 2381 2855 2742 
Q 2594 3103 2138 3103 
Q 1681 3103 1420 2742 
Q 1159 2381 1159 1747 
Q 1159 1113 1420 752 
Q 1681 391 2138 391 
Q 2594 391 2855 752 
Q 3116 1113 3116 1747 
z
M 1159 2969 
Q 1341 3281 1617 3432 
Q 1894 3584 2278 3584 
Q 2916 3584 3314 3078 
Q 3713 2572 3713 1747 
Q 3713 922 3314 415 
Q 2916 -91 2278 -91 
Q 1894 -91 1617 61 
Q 1341 213 1159 525 
L 1159 0 
L 581 0 
L 581 4863 
L 1159 4863 
L 1159 2969 
z
" transform="scale(0.015625)"/>
       <path id="DejaVuSans-70" d="M 1159 525 
L 1159 -1331 
L 581 -1331 
L 581 3500 
L 1159 3500 
L 1159 2969 
Q 1341 3281 1617 3432 
Q 1894 3584 2278 3584 
Q 2916 3584 3314 3078 
Q 3713 2572 3713 1747 
Q 3713 922 3314 415 
Q 2916 -91 2278 -91 
Q 1894 -91 1617 61 
Q 1341 213 1159 525 
z
M 3116 1747 
Q 3116 2381 2855 2742 
Q 2594 3103 2138 3103 
Q 1681 3103 1420 2742 
Q 1159 2381 1159 1747 
Q 1159 1113 1420 752 
Q 1681 391 2138 391 
Q 2594 391 2855 752 
Q 3116 1113 3116 1747 
z
" transform="scale(0.015625)"/>
       <path id="DejaVuSans-29" d="M 513 4856 
L 1013 4856 
Q 1481 4119 1714 3412 
Q 1947 2706 1947 2009 
Q 1947 1309 1714 600 
Q 1481 -109 1013 -844 
L 513 -844 
Q 928 -128 1133 580 
Q 1338 1288 1338 2009 
Q 1338 2731 1133 3434 
Q 928 4138 513 4856 
z
" transform="scale(0.015625)"/>
      </defs>
      <use xlink:href="#DejaVuSans-4c"/>
      <use xlink:href="#DejaVuSans-65" x="53.962891"/>
      <use xlink:href="#DejaVuSans-6e" x="115.486328"/>
      <use xlink:href="#DejaVuSans-67" x="178.865234"/>
      <use xlink:href="#DejaVuSans-74" x="242.341797"/>
      <use xlink:href="#DejaVuSans-68" x="281.550781"/>
      <use xlink:href="#DejaVuSans-20" x="344.929688"/>
      <use xlink:href="#DejaVuSans-54" x="376.716797"/>
      <use xlink:href="#DejaVuSans-72" x="423.050781"/>
      <use xlink:href="#DejaVuSans-69" x="464.164062"/>
      <use xlink:href="#DejaVuSans-6d" x="491.947266"/>
      <use xlink:href="#DejaVuSans-6d" x="589.359375"/>
      <use xlink:href="#DejaVuSans-65" x="686.771484"/>
      <use xlink:href="#DejaVuSans-64" x="748.294922"/>
      <use xlink:href="#DejaVuSans-20" x="811.771484"/>
      <use xlink:href="#DejaVuSans-28" x="843.558594"/>
      <use xlink:href="#DejaVuSans-62" x="882.572266"/>
      <use xlink:href="#DejaVuSans-70" x="946.048828"/>
      <use xlink:href="#DejaVuSans-29" x="1009.525391"/>
     </g>
    </g>
   </g>
   <g id="matplotlib.axis_2">
    <g id="ytick_1">
     <g id="line2d_1">
      <path d="M 58.418125 353.2239 
L 992.958125 353.2239 
" clip-path="url(#p5224367b44)" style="fill: none; stroke: #dedede; stroke-linecap: square"/>
     </g>
     <g id="text_10">
      <!-- 0 -->
      <g transform="translate(46.328125 356.263275) scale(0.08 -0.08)">
       <use xlink:href="#DejaVuSans-30"/>
      </g>
     </g>
    </g>
    <g id="ytick_2">
     <g id="line2d_2">
      <path d="M 58.418125 307.111909 
L 992.958125 307.111909 
" clip-path="url(#p5224367b44)" style="fill: none; stroke: #dedede; stroke-linecap: square"/>
     </g>
     <g id="text_11">
      <!-- 50000 -->
      <g transform="translate(25.968125 310.151284) scale(0.08 -0.08)">
       <use xlink:href="#DejaVuSans-35"/>
       <use xlink:href="#DejaVuSans-30" x="63.623047"/>
       <use xlink:href="#DejaVuSans-30" x="127.246094"/>
       <use xlink:href="#DejaVuSans-30" x="190.869141"/>
       <use xlink:href="#DejaVuSans-30" x="254.492188"/>
      </g>
     </g>
    </g>
    <g id="ytick_3">
     <g id="line2d_3">
      <path d="M 58.418125 260.999918 
L 992.958125 260.999918 
" clip-path="url(#p5224367b44)" style="fill: none; stroke: #dedede; stroke-linecap: square"/>
     </g>
     <g id="text_12">
      <!-- 100000 -->
      <g transform="translate(20.878125 264.039293) scale(0.08 -0.08)">
       <use xlink:href="#DejaVuSans-31"/>
       <use xlink:href="#DejaVuSans-30" x="63.623047"/>
       <use xlink:href="#DejaVuSans-30" x="127.246094"/>
       <use xlink:href="#DejaVuSans-30" x="190.869141"/>
       <use xlink:href="#DejaVuSans-30" x="254.492188"/>
       <use xlink:href="#DejaVuSans-30" x="318.115234"/>
      </g>
     </g>
    </g>
    <g id="ytick_4">
     <g id="line2d_4">
      <path d="M 58.418125 214.887927 
L 992.958125 214.887927 
" clip-path="url(#p5224367b44)" style="fill: none; stroke: #dedede; stroke-linecap: square"/>
     </g>
     <g id="text_13">
      <!-- 150000 -->
      <g transform="translate(20.878125 217.927302) scale(0.08 -0.08)">
       <use xlink:href="#DejaVuSans-31"/>
       <use xlink:href="#DejaVuSans-35" x="63.623047"/>
       <use xlink:href="#DejaVuSans-30" x="127.246094"/>
       <use xlink:href="#DejaVuSans-30" x="190.869141"/>
       <use xlink:href="#DejaVuSans-30" x="254.492188"/>
       <use xlink:href="#DejaVuSans-30" x="318.115234"/>
      </g>
     </g>
    </g>
    <g id="ytick_5">
     <g id="line2d_5">
      <path d="M 58.418125 168.775936 
L 992.958125 168.775936 
" clip-path="url(#p5224367b44)" style="fill: none; stroke: #dedede; stroke-linecap: square"/>
     </g>
     <g id="text_14">
      <!-- 200000 -->
      <g transform="translate(20.878125 171.815311) scale(0.08 -0.08)">
       <use xlink:href="#DejaVuSans-32"/>
       <use xlink:href="#DejaVuSans-30" x="63.623047"/>
       <use xlink:href="#DejaVuSans-30" x="127.246094"/>
       <use xlink:href="#DejaVuSans-30" x="190.869141"/>
       <use xlink:href="#DejaVuSans-30" x="254.492188"/>
       <use xlink:href="#DejaVuSans-30" x="318.115234"/>
      </g>
     </g>
    </g>
    <g id="ytick_6">
     <g id="line2d_6">
      <path d="M 58.418125 122.663945 
L 992.958125 122.663945 
" clip-path="url(#p5224367b44)" style="fill: none; stroke: #dedede; stroke-linecap: square"/>
     </g>
     <g id="text_15">
      <!-- 250000 -->
      <g transform="translate(20.878125 125.70332) scale(0.08 -0.08)">
       <use xlink:href="#DejaVuSans-32"/>
       <use xlink:href="#DejaVuSans-35" x="63.623047"/>
       <use xlink:href="#DejaVuSans-30" x="127.246094"/>
       <use xlink:href="#DejaVuSans-30" x="190.869141"/>
       <use xlink:href="#DejaVuSans-30" x="254.492188"/>
       <use xlink:href="#DejaVuSans-30" x="318.115234"/>
      </g>
     </g>
    </g>
    <g id="ytick_7">
     <g id="line2d_7">
      <path d="M 58.418125 76.551954 
L 992.958125 76.551954 
" clip-path="url(#p5224367b44)" style="fill: none; stroke: #dedede; stroke-linecap: square"/>
     </g>
     <g id="text_16">
      <!-- 300000 -->
      <g transform="translate(20.878125 79.591329) scale(0.08 -0.08)">
       <use xlink:href="#DejaVuSans-33"/>
       <use xlink:href="#DejaVuSans-30" x="63.623047"/>
       <use xlink:href="#DejaVuSans-30" x="127.246094"/>
       <use xlink:href="#DejaVuSans-30" x="190.869141"/>
       <use xlink:href="#DejaVuSans-30" x="254.492188"/>
       <use xlink:href="#DejaVuSans-30" x="318.115234"/>
      </g>
     </g>
    </g>
    <g id="text_17">
     <!-- Observed / Expected -->
     <g transform="translate(14.798438 246.489119) rotate(-90) scale(0.1 -0.1)">
      <defs>
       <path id="DejaVuSans-4f" d="M 2522 4238 
Q 1834 4238 1429 3725 
Q 1025 3213 1025 2328 
Q 1025 1447 1429 934 
Q 1834 422 2522 422 
Q 3209 422 3611 934 
Q 4013 1447 4013 2328 
Q 4013 3213 3611 3725 
Q 3209 4238 2522 4238 
z
M 2522 4750 
Q 3503 4750 4090 4092 
Q 4678 3434 4678 2328 
Q 4678 1225 4090 567 
Q 3503 -91 2522 -91 
Q 1538 -91 948 565 
Q 359 1222 359 2328 
Q 359 3434 948 4092 
Q 1538 4750 2522 4750 
z
" transform="scale(0.015625)"/>
       <path id="DejaVuSans-73" d="M 2834 3397 
L 2834 2853 
Q 2591 2978 2328 3040 
Q 2066 3103 1784 3103 
Q 1356 3103 1142 2972 
Q 928 2841 928 2578 
Q 928 2378 1081 2264 
Q 1234 2150 1697 2047 
L 1894 2003 
Q 2506 1872 2764 1633 
Q 3022 1394 3022 966 
Q 3022 478 2636 193 
Q 2250 -91 1575 -91 
Q 1294 -91 989 -36 
Q 684 19 347 128 
L 347 722 
Q 666 556 975 473 
Q 1284 391 1588 391 
Q 1994 391 2212 530 
Q 2431 669 2431 922 
Q 2431 1156 2273 1281 
Q 2116 1406 1581 1522 
L 1381 1569 
Q 847 1681 609 1914 
Q 372 2147 372 2553 
Q 372 3047 722 3315 
Q 1072 3584 1716 3584 
Q 2034 3584 2315 3537 
Q 2597 3491 2834 3397 
z
" transform="scale(0.015625)"/>
       <path id="DejaVuSans-76" d="M 191 3500 
L 800 3500 
L 1894 563 
L 2988 3500 
L 3597 3500 
L 2284 0 
L 1503 0 
L 191 3500 
z
" transform="scale(0.015625)"/>
       <path id="DejaVuSans-2f" d="M 1625 4666 
L 2156 4666 
L 531 -594 
L 0 -594 
L 1625 4666 
z
" transform="scale(0.015625)"/>
       <path id="DejaVuSans-45" d="M 628 4666 
L 3578 4666 
L 3578 4134 
L 1259 4134 
L 1259 2753 
L 3481 2753 
L 3481 2222 
L 1259 2222 
L 1259 531 
L 3634 531 
L 3634 0 
L 628 0 
L 628 4666 
z
" transform="scale(0.015625)"/>
       <path id="DejaVuSans-78" d="M 3513 3500 
L 2247 1797 
L 3578 0 
L 2900 0 
L 1881 1375 
L 863 0 
L 184 0 
L 1544 1831 
L 300 3500 
L 978 3500 
L 1906 2253 
L 2834 3500 
L 3513 3500 
z
" transform="scale(0.015625)"/>
       <path id="DejaVuSans-63" d="M 3122 3366 
L 3122 2828 
Q 2878 2963 2633 3030 
Q 2388 3097 2138 3097 
Q 1578 3097 1268 2742 
Q 959 2388 959 1747 
Q 959 1106 1268 751 
Q 1578 397 2138 397 
Q 2388 397 2633 464 
Q 2878 531 3122 666 
L 3122 134 
Q 2881 22 2623 -34 
Q 2366 -91 2075 -91 
Q 1284 -91 818 406 
Q 353 903 353 1747 
Q 353 2603 823 3093 
Q 1294 3584 2113 3584 
Q 2378 3584 2631 3529 
Q 2884 3475 3122 3366 
z
" transform="scale(0.015625)"/>
      </defs>
      <use xlink:href="#DejaVuSans-4f"/>
      <use xlink:href="#DejaVuSans-62" x="78.710938"/>
      <use xlink:href="#DejaVuSans-73" x="142.1875"/>
      <use xlink:href="#DejaVuSans-65" x="194.287109"/>
      <use xlink:href="#DejaVuSans-72" x="255.810547"/>
      <use xlink:href="#DejaVuSans-76" x="296.923828"/>
      <use xlink:href="#DejaVuSans-65" x="356.103516"/>
      <use xlink:href="#DejaVuSans-64" x="417.626953"/>
      <use xlink:href="#DejaVuSans-20" x="481.103516"/>
      <use xlink:href="#DejaVuSans-2f" x="512.890625"/>
      <use xlink:href="#DejaVuSans-20" x="546.582031"/>
      <use xlink:href="#DejaVuSans-45" x="578.369141"/>
      <use xlink:href="#DejaVuSans-78" x="641.552734"/>
      <use xlink:href="#DejaVuSans-70" x="700.732422"/>
      <use xlink:href="#DejaVuSans-65" x="764.208984"/>
      <use xlink:href="#DejaVuSans-63" x="825.732422"/>
      <use xlink:href="#DejaVuSans-74" x="880.712891"/>
      <use xlink:href="#DejaVuSans-65" x="919.921875"/>
      <use xlink:href="#DejaVuSans-64" x="981.445312"/>
     </g>
    </g>
   </g>
   <g id="line2d_8">
    <path d="M 100.897216 353.223857 
L 111.930746 353.223847 
L 122.964276 353.221497 
L 133.997806 353.217933 
L 145.031336 352.99698 
L 156.064866 352.836559 
L 167.098397 352.320105 
L 178.131927 352.024988 
L 189.165457 350.337289 
L 200.198987 347.884131 
L 211.232517 347.515236 
L 222.266047 343.466603 
L 233.299577 344.112171 
L 244.333107 285.725168 
L 255.366637 283.023005 
L 266.400168 208.2478 
L 277.433698 275.488306 
L 288.467228 308.181707 
L 299.500758 281.316861 
L 310.534288 329.633005 
L 321.567818 344.766961 
L 332.601348 350.328067 
L 343.634878 352.836559 
L 354.668408 353.131676 
L 365.701938 353.122454 
L 376.735469 353.168566 
L 387.768999 353.214678 
L 398.802529 353.196233 
L 420.869589 353.205455 
L 431.903119 353.214678 
L 442.936649 353.205455 
L 465.003709 353.214678 
L 498.1043 353.205455 
L 553.27195 353.214678 
L 564.30548 353.205455 
L 575.33901 353.214678 
L 597.406071 353.214678 
L 608.439601 353.214678 
L 674.640781 353.214678 
L 796.009613 353.214678 
L 818.076673 353.214678 
L 862.210793 353.214678 
" clip-path="url(#p5224367b44)" style="fill: none; stroke: #7cb5ec; stroke-linecap: square"/>
   </g>
   <g id="line2d_9">
    <path d="M 100.897216 353.223868 
L 111.930746 353.223856 
L 122.964276 353.221345 
L 133.997806 353.217263 
L 145.031336 353.062368 
L 156.064866 352.880366 
L 167.098397 352.670556 
L 178.131927 352.550665 
L 189.165457 350.835299 
L 200.198987 350.106729 
L 211.232517 347.736573 
L 222.266047 345.633866 
L 233.299577 347.257008 
L 244.333107 321.212956 
L 255.366637 322.872988 
L 266.400168 293.250644 
L 277.433698 318.907356 
L 288.467228 322.670095 
L 299.500758 321.415849 
L 310.534288 343.540382 
L 321.567818 347.819575 
L 332.601348 351.683759 
L 343.634878 352.910338 
L 354.668408 353.140898 
L 365.701938 353.131676 
L 376.735469 353.196233 
L 387.768999 353.18701 
L 409.836059 353.18701 
L 420.869589 353.196233 
L 431.903119 353.214678 
L 442.936649 353.214678 
L 465.003709 353.214678 
L 509.13783 353.214678 
L 553.27195 353.214678 
L 575.33901 353.214678 
L 707.741372 353.214678 
" clip-path="url(#p5224367b44)" style="fill: none; stroke: #434348; stroke-linecap: square"/>
   </g>
   <g id="line2d_10">
    <path d="M 100.897216 353.223845 
L 111.930746 353.223834 
L 122.964276 353.221685 
L 133.997806 353.217995 
L 145.031336 353.061322 
L 156.064866 352.798645 
L 167.098397 352.495331 
L 178.131927 352.347772 
L 189.165457 350.318845 
L 200.198987 348.363696 
L 211.232517 346.675997 
L 222.266047 345.154302 
L 233.299577 344.942186 
L 244.333107 305.414988 
L 255.366637 304.658751 
L 266.400168 249.619479 
L 277.433698 298.479744 
L 288.467228 323.398664 
L 299.500758 294.301998 
L 310.534288 335.553785 
L 321.567818 345.95665 
L 332.601348 350.826076 
L 343.634878 352.76278 
L 354.668408 353.177788 
L 365.701938 353.177788 
L 376.735469 353.113231 
L 398.802529 353.168566 
L 409.836059 353.205455 
L 420.869589 353.205455 
L 431.903119 353.196233 
L 442.936649 353.214678 
L 476.03724 353.214678 
L 586.372541 353.214678 
L 597.406071 353.205455 
L 630.506661 353.214678 
L 829.110203 353.214678 
" clip-path="url(#p5224367b44)" style="fill: none; stroke: #90ed7d; stroke-linecap: square"/>
   </g>
   <g id="line2d_11">
    <path d="M 100.897216 353.223864 
L 111.930746 353.22385 
L 122.964276 353.222139 
L 133.997806 353.219203 
L 145.031336 353.092942 
L 156.064866 352.835637 
L 167.098397 352.787373 
L 178.131927 351.905097 
L 189.165457 350.088285 
L 200.198987 347.598237 
L 211.232517 346.279434 
L 222.266047 343.319044 
L 233.299577 340.081983 
L 244.333107 228.647745 
L 255.366637 209.760274 
L 266.400168 50.397233 
L 277.433698 207.039666 
L 288.467228 310.837758 
L 299.500758 187.764854 
L 310.534288 302.104147 
L 321.567818 337.361375 
L 332.601348 347.791907 
L 343.634878 352.744335 
L 354.668408 353.067119 
L 365.701938 352.95645 
L 376.735469 353.122454 
L 387.768999 353.18701 
L 398.802529 353.18701 
L 409.836059 353.168566 
L 442.936649 353.196233 
L 453.970179 353.18701 
L 476.03724 353.205455 
L 487.07077 353.214678 
L 498.1043 353.214678 
L 509.13783 353.214678 
L 520.17136 353.214678 
L 564.30548 353.214678 
L 608.439601 353.214678 
L 807.043143 353.214678 
L 873.244323 353.214678 
" clip-path="url(#p5224367b44)" style="fill: none; stroke: #f7a35c; stroke-linecap: square"/>
   </g>
   <g id="line2d_12">
    <path d="M 100.897216 353.223852 
L 111.930746 353.223835 
L 122.964276 353.221787 
L 133.997806 353.218798 
L 145.031336 353.073443 
L 156.064866 352.913413 
L 167.098397 352.665945 
L 178.131927 352.283215 
L 189.165457 350.826076 
L 200.198987 350.779964 
L 211.232517 348.077802 
L 222.266047 344.582513 
L 233.299577 342.350693 
L 244.333107 271.393561 
L 255.366637 255.060694 
L 266.400168 142.132428 
L 277.433698 251.648406 
L 288.467228 323.915119 
L 299.500758 237.74103 
L 310.534288 316.629424 
L 321.567818 341.45612 
L 332.601348 348.91704 
L 343.634878 352.873449 
L 354.668408 353.177788 
L 365.701938 353.131676 
L 376.735469 353.076342 
L 398.802529 353.18701 
L 409.836059 353.196233 
L 442.936649 353.214678 
L 453.970179 353.214678 
L 465.003709 353.214678 
L 553.27195 353.196233 
L 564.30548 353.205455 
L 586.372541 353.196233 
L 597.406071 353.214678 
L 608.439601 353.214678 
L 619.473131 353.205455 
L 707.741372 353.214678 
L 784.976082 353.214678 
L 796.009613 353.205455 
L 950.479034 353.214678 
" clip-path="url(#p5224367b44)" style="fill: none; stroke: #8085e9; stroke-linecap: square"/>
   </g>
   <g id="line2d_13">
    <path d="M 100.897216 353.22387 
L 111.930746 353.223874 
L 122.964276 353.222278 
L 133.997806 353.219948 
L 145.031336 353.078769 
L 156.064866 352.967517 
L 167.098397 352.633667 
L 178.131927 352.393884 
L 189.165457 350.890633 
L 200.198987 348.935485 
L 211.232517 347.635127 
L 222.266047 343.438936 
L 233.299577 345.652311 
L 244.333107 310.837758 
L 255.366637 320.567388 
L 266.400168 283.853021 
L 277.433698 311.879889 
L 288.467228 311.566327 
L 299.500758 318.750576 
L 310.534288 341.981797 
L 321.567818 347.127895 
L 332.601348 351.277974 
L 343.634878 352.744335 
L 354.668408 353.177788 
L 365.701938 353.205455 
L 376.735469 353.177788 
L 398.802529 353.196233 
L 409.836059 353.196233 
L 431.903119 353.214678 
L 442.936649 353.214678 
L 476.03724 353.214678 
L 597.406071 353.205455 
L 884.277853 353.214678 
" clip-path="url(#p5224367b44)" style="fill: none; stroke: #f15c80; stroke-linecap: square"/>
   </g>
   <g id="line2d_14">
    <path d="M 100.897216 353.223871 
L 111.930746 353.223873 
L 122.964276 353.221977 
L 133.997806 353.218806 
L 145.031336 353.07776 
L 156.064866 352.959085 
L 167.098397 352.795058 
L 178.131927 353.148276 
L 189.165457 353.03023 
L 200.198987 352.919561 
L 211.232517 352.831026 
L 222.266047 352.6309 
L 233.299577 352.394806 
L 244.333107 345.624644 
L 255.366637 344.321519 
L 266.400168 333.892831 
L 277.433698 343.808754 
L 288.467228 351.038192 
L 299.500758 342.7657 
L 310.534288 349.880781 
L 321.567818 352.262926 
L 332.601348 352.885438 
L 343.634878 353.189777 
L 354.668408 353.219289 
L 365.701938 353.211911 
L 376.735469 353.2073 
L 398.802529 353.2156 
L 431.903119 353.221133 
L 442.936649 353.222978 
L 465.003709 353.222056 
L 553.27195 353.222978 
L 597.406071 353.220211 
L 608.439601 353.222978 
L 619.473131 353.222978 
L 751.875492 353.222978 
L 829.110203 353.222978 
" clip-path="url(#p5224367b44)" style="fill: none; stroke: #e4d354; stroke-linecap: square"/>
   </g>
   <g id="line2d_15">
    <path d="M 100.897216 353.223842 
L 111.930746 353.223851 
L 122.964276 353.221609 
L 133.997806 353.2171 
L 145.031336 353.049628 
L 156.064866 352.868179 
L 167.098397 352.758169 
L 178.131927 353.129832 
L 189.165457 353.00994 
L 200.198987 352.856849 
L 211.232517 352.755402 
L 222.266047 352.534987 
L 233.299577 352.33855 
L 244.333107 344.735605 
L 255.366637 342.940004 
L 266.400168 331.127956 
L 277.433698 342.34977 
L 288.467228 350.608428 
L 299.500758 341.137947 
L 310.534288 349.512807 
L 321.567818 352.050811 
L 332.601348 352.812581 
L 343.634878 353.195311 
L 354.668408 353.214678 
L 365.701938 353.205455 
L 376.735469 353.2156 
L 398.802529 353.220211 
L 409.836059 353.222978 
L 420.869589 353.222056 
L 431.903119 353.221133 
L 453.970179 353.222978 
L 465.003709 353.222056 
L 476.03724 353.222978 
L 509.13783 353.222978 
L 553.27195 353.222056 
L 564.30548 353.222056 
L 586.372541 353.222978 
L 597.406071 353.222978 
L 608.439601 353.222978 
L 619.473131 353.222978 
L 652.573721 353.222978 
L 751.875492 353.222056 
L 796.009613 353.222978 
" clip-path="url(#p5224367b44)" style="fill: none; stroke: #2b908f; stroke-linecap: square"/>
   </g>
   <g id="line2d_16">
    <path d="M 100.897216 353.223866 
L 111.930746 353.223843 
L 122.964276 353.222104 
L 133.997806 353.218621 
L 145.031336 353.082652 
L 156.064866 352.870375 
L 167.098397 352.449219 
L 178.131927 351.997321 
L 189.165457 350.318845 
L 200.198987 348.22536 
L 211.232517 345.882871 
L 222.266047 344.047614 
L 233.299577 340.875109 
L 244.333107 238.239039 
L 255.366637 211.853758 
L 266.400168 63.437704 
L 277.433698 207.657567 
L 288.467228 311.418769 
L 299.500758 187.792521 
L 310.534288 302.851161 
L 321.567818 337.075481 
L 332.601348 347.76424 
L 343.634878 352.901116 
L 354.668408 353.177788 
L 365.701938 352.95645 
L 376.735469 353.048674 
L 398.802529 353.168566 
L 409.836059 353.196233 
L 431.903119 353.205455 
L 442.936649 353.214678 
L 453.970179 353.205455 
L 553.27195 353.214678 
L 564.30548 353.205455 
L 586.372541 353.214678 
L 608.439601 353.18701 
L 619.473131 353.205455 
L 829.110203 353.214678 
" clip-path="url(#p5224367b44)" style="fill: none; stroke: #f45b5b; stroke-linecap: square"/>
   </g>
   <g id="line2d_17">
    <path d="M 100.897216 353.223858 
L 111.930746 353.223865 
L 122.964276 353.221781 
L 133.997806 353.218353 
L 145.031336 353.058735 
L 156.064866 352.842323 
L 167.098397 352.546054 
L 178.131927 352.393884 
L 189.165457 350.245065 
L 200.198987 348.621923 
L 211.232517 346.749776 
L 222.266047 345.006743 
L 233.299577 345.486308 
L 244.333107 305.267429 
L 255.366637 303.367615 
L 266.400168 248.522013 
L 277.433698 299.715546 
L 288.467228 323.500111 
L 299.500758 295.832916 
L 310.534288 334.299539 
L 321.567818 346.067319 
L 332.601348 350.770742 
L 343.634878 352.974895 
L 354.668408 353.131676 
L 365.701938 353.057897 
L 376.735469 353.122454 
L 398.802529 353.205455 
L 420.869589 353.196233 
L 431.903119 353.18701 
L 442.936649 353.214678 
L 498.1043 353.214678 
L 509.13783 353.214678 
L 553.27195 353.214678 
L 575.33901 353.214678 
L 608.439601 353.214678 
L 862.210793 353.214678 
" clip-path="url(#p5224367b44)" style="fill: none; stroke: #91e8e1; stroke-linecap: square"/>
   </g>
   <g id="line2d_18">
    <path d="M 100.897216 353.223851 
L 111.930746 353.223868 
L 122.964276 353.222285 
L 133.997806 353.218435 
L 145.031336 353.078391 
L 156.064866 352.874766 
L 167.098397 352.864226 
L 178.131927 353.167643 
L 189.165457 353.05513 
L 200.198987 352.893738 
L 211.232517 352.775691 
L 222.266047 352.589399 
L 233.299577 352.422474 
L 244.333107 346.640952 
L 255.366637 345.543487 
L 266.400168 336.742552 
L 277.433698 345.103578 
L 288.467228 350.789187 
L 299.500758 344.551157 
L 310.534288 350.381557 
L 321.567818 352.279526 
L 332.601348 352.934317 
L 343.634878 353.195311 
L 354.668408 353.217444 
L 365.701938 353.216522 
L 376.735469 353.216522 
L 398.802529 353.222978 
L 409.836059 353.222978 
L 442.936649 353.222056 
L 453.970179 353.222978 
L 465.003709 353.222978 
L 476.03724 353.222978 
L 520.17136 353.220211 
L 553.27195 353.222978 
L 597.406071 353.222056 
L 630.506661 353.222978 
L 641.540191 353.222056 
L 773.942552 353.221133 
L 784.976082 353.222978 
" clip-path="url(#p5224367b44)" style="fill: none; stroke: #7cb5ec; stroke-linecap: square"/>
   </g>
   <g id="line2d_19">
    <path d="M 100.897216 353.223862 
L 111.930746 353.223831 
L 122.964276 353.221169 
L 133.997806 353.214914 
L 145.031336 353.019735 
L 156.064866 352.770685 
L 167.098397 352.53222 
L 178.131927 353.124298 
L 189.165457 352.989651 
L 200.198987 353.000718 
L 211.232517 352.764625 
L 222.266047 352.438152 
L 233.299577 352.489797 
L 244.333107 350.188809 
L 255.366637 349.874325 
L 266.400168 347.272686 
L 277.433698 349.818068 
L 288.467228 350.257977 
L 299.500758 350.013583 
L 310.534288 352.179925 
L 321.567818 352.682545 
L 332.601348 353.056052 
L 343.634878 353.191622 
L 354.668408 353.217444 
L 365.701938 353.219289 
L 376.735469 353.221133 
L 387.768999 353.221133 
L 398.802529 353.222056 
L 409.836059 353.222056 
L 431.903119 353.222978 
L 442.936649 353.221133 
L 453.970179 353.222978 
L 520.17136 353.222978 
L 553.27195 353.222056 
L 608.439601 353.222056 
L 619.473131 353.222978 
L 751.875492 353.222978 
L 773.942552 353.222978 
" clip-path="url(#p5224367b44)" style="fill: none; stroke: #434348; stroke-linecap: square"/>
   </g>
   <g id="line2d_20">
    <path d="M 100.897216 353.223855 
L 111.930746 353.223863 
L 122.964276 353.221582 
L 133.997806 353.21795 
L 145.031336 353.067921 
L 156.064866 352.87806 
L 167.098397 352.412329 
L 178.131927 353.14551 
L 189.165457 353.088331 
L 200.198987 352.933394 
L 211.232517 352.836559 
L 222.266047 352.686234 
L 233.299577 352.492564 
L 244.333107 346.053485 
L 255.366637 344.591735 
L 266.400168 335.331525 
L 277.433698 344.332586 
L 288.467228 351.094448 
L 299.500758 343.200075 
L 310.534288 350.147308 
L 321.567818 352.295205 
L 332.601348 352.93155 
L 343.634878 353.209144 
L 354.668408 353.221133 
L 365.701938 353.209144 
L 376.735469 353.212833 
L 387.768999 353.222978 
L 398.802529 353.2156 
L 420.869589 353.222978 
L 431.903119 353.222978 
L 442.936649 353.222978 
L 453.970179 353.221133 
L 465.003709 353.222056 
L 476.03724 353.222978 
L 553.27195 353.222978 
L 564.30548 353.222978 
L 586.372541 353.222978 
" clip-path="url(#p5224367b44)" style="fill: none; stroke: #90ed7d; stroke-linecap: square"/>
   </g>
   <g id="line2d_21">
    <path d="M 100.897216 353.22386 
L 111.930746 353.223847 
L 122.964276 353.221954 
L 133.997806 353.217893 
L 145.031336 353.084198 
L 156.064866 352.848417 
L 167.098397 352.68439 
L 178.131927 353.142743 
L 189.165457 353.012707 
L 200.198987 352.837482 
L 211.232517 352.721279 
L 222.266047 352.56911 
L 233.299577 352.290593 
L 244.333107 345.042711 
L 255.366637 343.088484 
L 266.400168 333.014859 
L 277.433698 343.166875 
L 288.467228 350.233999 
L 299.500758 341.802882 
L 310.534288 349.708322 
L 321.567818 352.156869 
L 332.601348 352.848548 
L 343.634878 353.199922 
L 354.668408 353.221133 
L 365.701938 353.211911 
L 376.735469 353.210989 
L 398.802529 353.221133 
L 409.836059 353.220211 
L 431.903119 353.222978 
L 442.936649 353.221133 
L 453.970179 353.221133 
L 520.17136 353.222978 
L 608.439601 353.222978 
L 619.473131 353.221133 
L 630.506661 353.222978 
" clip-path="url(#p5224367b44)" style="fill: none; stroke: #f7a35c; stroke-linecap: square"/>
   </g>
   <g id="line2d_22">
    <path d="M 100.897216 353.223861 
L 111.930746 353.223855 
L 122.964276 353.221899 
L 133.997806 353.218509 
L 145.031336 353.078713 
L 156.064866 352.922635 
L 167.098397 352.573721 
L 178.131927 352.190991 
L 189.165457 350.770742 
L 200.198987 350.789187 
L 211.232517 348.483587 
L 222.266047 345.015966 
L 233.299577 341.861905 
L 244.333107 268.50695 
L 255.366637 247.627441 
L 266.400168 133.813824 
L 277.433698 244.159819 
L 288.467228 324.330126 
L 299.500758 229.025863 
L 310.534288 316.878429 
L 321.567818 341.695902 
L 332.601348 349.212157 
L 343.634878 352.938006 
L 354.668408 353.113231 
L 365.701938 353.094786 
L 376.735469 353.122454 
L 387.768999 353.18701 
L 398.802529 353.131676 
L 409.836059 353.18701 
L 442.936649 353.205455 
L 453.970179 353.214678 
L 465.003709 353.214678 
L 476.03724 353.205455 
L 509.13783 353.214678 
L 520.17136 353.214678 
L 553.27195 353.196233 
L 575.33901 353.205455 
L 597.406071 353.214678 
L 608.439601 353.214678 
L 619.473131 353.196233 
L 630.506661 353.214678 
L 762.909022 353.214678 
L 818.076673 353.214678 
" clip-path="url(#p5224367b44)" style="fill: none; stroke: #8085e9; stroke-linecap: square"/>
   </g>
   <g id="line2d_23">
    <path d="M 100.897216 353.223869 
L 111.930746 353.223878 
L 122.964276 353.222697 
L 133.997806 353.219602 
L 145.031336 353.068538 
L 156.064866 352.898042 
L 167.098397 352.845782 
L 178.131927 353.159343 
L 189.165457 353.061586 
L 200.198987 352.913105 
L 211.232517 352.805203 
L 222.266047 352.56911 
L 233.299577 352.735113 
L 244.333107 350.704341 
L 255.366637 351.034503 
L 266.400168 348.628379 
L 277.433698 350.461792 
L 288.467228 350.602894 
L 299.500758 350.984702 
L 310.534288 352.56081 
L 321.567818 352.838404 
L 332.601348 353.093864 
L 343.634878 353.191622 
L 354.668408 353.213755 
L 365.701938 353.222056 
L 376.735469 353.221133 
L 387.768999 353.222978 
L 409.836059 353.221133 
L 531.20489 353.222978 
L 542.23842 353.222978 
L 553.27195 353.222978 
L 586.372541 353.222056 
L 652.573721 353.222978 
" clip-path="url(#p5224367b44)" style="fill: none; stroke: #f15c80; stroke-linecap: square"/>
   </g>
   <g id="line2d_24">
    <path d="M 100.897216 353.223869 
L 111.930746 353.223876 
L 122.964276 353.221878 
L 133.997806 353.219901 
L 145.031336 353.056616 
L 156.064866 352.92161 
L 167.098397 352.656723 
L 178.131927 352.329327 
L 189.165457 350.466403 
L 200.198987 348.963152 
L 211.232517 347.293898 
L 222.266047 344.388843 
L 233.299577 346.196433 
L 244.333107 316.952208 
L 255.366637 320.558166 
L 266.400168 283.032227 
L 277.433698 314.609719 
L 288.467228 317.265769 
L 299.500758 320.106268 
L 310.534288 341.299339 
L 321.567818 346.87889 
L 332.601348 351.22264 
L 343.634878 352.735113 
L 354.668408 353.18701 
L 365.701938 353.196233 
L 376.735469 353.214678 
L 387.768999 353.214678 
L 398.802529 353.168566 
L 409.836059 353.18701 
L 442.936649 353.205455 
L 465.003709 353.196233 
L 509.13783 353.214678 
L 520.17136 353.205455 
L 542.23842 353.214678 
L 597.406071 353.214678 
L 608.439601 353.214678 
" clip-path="url(#p5224367b44)" style="fill: none; stroke: #e4d354; stroke-linecap: square"/>
   </g>
   <g id="line2d_25">
    <path d="M 100.897216 353.223858 
L 111.930746 353.223874 
L 122.964276 353.222028 
L 133.997806 353.219254 
L 145.031336 353.05622 
L 156.064866 352.909186 
L 167.098397 352.592166 
L 178.131927 352.403107 
L 189.165457 350.770742 
L 200.198987 348.981597 
L 211.232517 347.810352 
L 222.266047 344.554846 
L 233.299577 346.159543 
L 244.333107 317.108989 
L 255.366637 319.95871 
L 266.400168 285.983395 
L 277.433698 314.987837 
L 288.467228 317.108989 
L 299.500758 320.244604 
L 310.534288 342.027909 
L 321.567818 346.519217 
L 332.601348 351.139638 
L 343.634878 352.891894 
L 354.668408 353.177788 
L 365.701938 353.168566 
L 376.735469 353.214678 
L 387.768999 353.205455 
L 398.802529 353.159343 
L 409.836059 353.18701 
L 453.970179 353.214678 
L 487.07077 353.214678 
L 542.23842 353.214678 
L 553.27195 353.214678 
L 586.372541 353.214678 
L 597.406071 353.214678 
L 608.439601 353.205455 
L 619.473131 353.214678 
L 751.875492 353.214678 
L 796.009613 353.214678 
" clip-path="url(#p5224367b44)" style="fill: none; stroke: #2b908f; stroke-linecap: square"/>
   </g>
   <g id="line2d_26">
    <path d="M 100.897216 353.223863 
L 111.930746 353.223862 
L 122.964276 353.222069 
L 133.997806 353.219053 
L 145.031336 353.083394 
L 156.064866 352.949277 
L 167.098397 352.679779 
L 178.131927 352.163324 
L 189.165457 350.982857 
L 200.198987 349.193712 
L 211.232517 347.635127 
L 222.266047 344.739294 
L 233.299577 342.249246 
L 244.333107 254.802466 
L 255.366637 234.254963 
L 266.400168 95.789877 
L 277.433698 227.670171 
L 288.467228 325.990158 
L 299.500758 210.05539 
L 310.534288 306.844459 
L 321.567818 337.536601 
L 332.601348 348.188471 
L 343.634878 352.753558 
L 354.668408 353.150121 
L 365.701938 353.094786 
L 376.735469 353.113231 
L 387.768999 353.205455 
L 398.802529 353.122454 
L 431.903119 353.214678 
L 442.936649 353.205455 
L 453.970179 353.214678 
L 520.17136 353.214678 
L 575.33901 353.214678 
L 586.372541 353.196233 
L 597.406071 353.205455 
L 608.439601 353.214678 
L 619.473131 353.205455 
L 641.540191 353.214678 
" clip-path="url(#p5224367b44)" style="fill: none; stroke: #f45b5b; stroke-linecap: square"/>
   </g>
   <g id="line2d_27">
    <path d="M 100.897216 353.223847 
L 111.930746 353.223878 
L 122.964276 353.22194 
L 133.997806 353.217271 
L 145.031336 353.066831 
L 156.064866 352.893046 
L 167.098397 352.6475 
L 178.131927 352.144879 
L 189.165457 350.484848 
L 200.198987 349.101488 
L 211.232517 348.372919 
L 222.266047 345.790647 
L 233.299577 343.531159 
L 244.333107 259.275329 
L 255.366637 240.314079 
L 266.400168 113.469214 
L 277.433698 233.39728 
L 288.467228 325.021806 
L 299.500758 214.546698 
L 310.534288 308.144818 
L 321.567818 338.790847 
L 332.601348 348.345251 
L 343.634878 352.827337 
L 354.668408 353.159343 
L 365.701938 352.974895 
L 376.735469 353.168566 
L 387.768999 353.177788 
L 398.802529 353.131676 
L 420.869589 353.205455 
L 431.903119 353.205455 
L 453.970179 353.214678 
L 465.003709 353.214678 
L 476.03724 353.214678 
L 487.07077 353.214678 
L 498.1043 353.214678 
L 509.13783 353.205455 
L 520.17136 353.214678 
L 553.27195 353.214678 
L 564.30548 353.214678 
L 575.33901 353.205455 
L 597.406071 353.214678 
L 608.439601 353.214678 
L 619.473131 353.214678 
L 751.875492 353.214678 
" clip-path="url(#p5224367b44)" style="fill: none; stroke: #91e8e1; stroke-linecap: square"/>
   </g>
   <g id="line2d_28">
    <path d="M 100.897216 353.22387 
L 111.930746 353.223856 
L 122.964276 353.222038 
L 133.997806 353.220057 
L 145.031336 353.076621 
L 156.064866 352.872296 
L 167.098397 352.698223 
L 178.131927 352.283215 
L 189.165457 350.844521 
L 200.198987 349.359715 
L 211.232517 347.487568 
L 222.266047 345.818314 
L 233.299577 343.319044 
L 244.333107 276.106206 
L 255.366637 260.31746 
L 266.400168 153.02408 
L 277.433698 253.594332 
L 288.467228 324.929582 
L 299.500758 245.054391 
L 310.534288 319.534479 
L 321.567818 341.520677 
L 332.601348 349.166045 
L 343.634878 352.873449 
L 354.668408 353.159343 
L 365.701938 353.094786 
L 376.735469 353.048674 
L 398.802529 353.205455 
L 409.836059 353.214678 
L 420.869589 353.205455 
L 453.970179 353.196233 
L 476.03724 353.205455 
L 487.07077 353.214678 
L 520.17136 353.214678 
L 553.27195 353.196233 
L 597.406071 353.214678 
L 608.439601 353.205455 
L 707.741372 353.214678 
L 773.942552 353.214678 
" clip-path="url(#p5224367b44)" style="fill: none; stroke: #7cb5ec; stroke-linecap: square"/>
   </g>
   <g id="line2d_29">
    <path d="M 100.897216 353.22386 
L 111.930746 353.223865 
L 122.964276 353.221254 
L 133.997806 353.214525 
L 145.031336 352.99211 
L 156.064866 352.722537 
L 167.098397 352.449219 
L 178.131927 351.554646 
L 189.165457 349.673277 
L 200.198987 349.866947 
L 211.232517 345.928983 
L 222.266047 341.216338 
L 233.299577 341.963352 
L 244.333107 308.15404 
L 255.366637 301.394022 
L 266.400168 263.065735 
L 277.433698 300.573229 
L 288.467228 306.992018 
L 299.500758 303.487506 
L 310.534288 337.536601 
L 321.567818 345.117412 
L 332.601348 350.835299 
L 343.634878 352.661334 
L 354.668408 353.140898 
L 365.701938 353.122454 
L 376.735469 353.159343 
L 409.836059 353.18701 
L 420.869589 353.205455 
L 431.903119 353.214678 
L 442.936649 353.214678 
L 509.13783 353.214678 
L 553.27195 353.214678 
L 608.439601 353.205455 
L 630.506661 353.214678 
" clip-path="url(#p5224367b44)" style="fill: none; stroke: #434348; stroke-linecap: square"/>
   </g>
   <g id="line2d_30">
    <path d="M 100.897216 353.22386 
L 111.930746 353.223849 
L 122.964276 353.222423 
L 133.997806 353.21955 
L 145.031336 353.056283 
L 156.064866 352.875293 
L 167.098397 352.573721 
L 178.131927 352.292438 
L 189.165457 350.060617 
L 200.198987 348.299139 
L 211.232517 346.343991 
L 222.266047 342.618142 
L 233.299577 345.366417 
L 244.333107 309.546622 
L 255.366637 318.741353 
L 266.400168 278.421028 
L 277.433698 311.151319 
L 288.467228 313.38314 
L 299.500758 316.869206 
L 310.534288 341.410008 
L 321.567818 346.592996 
L 332.601348 351.028969 
L 343.634878 352.707446 
L 354.668408 353.122454 
L 365.701938 353.177788 
L 376.735469 353.196233 
L 387.768999 353.214678 
L 398.802529 353.205455 
L 409.836059 353.214678 
L 420.869589 353.214678 
L 442.936649 353.214678 
L 453.970179 353.214678 
L 465.003709 353.214678 
L 520.17136 353.214678 
L 542.23842 353.214678 
L 586.372541 353.214678 
L 597.406071 353.214678 
L 608.439601 353.196233 
L 619.473131 353.196233 
L 630.506661 353.214678 
L 641.540191 353.214678 
L 652.573721 353.214678 
" clip-path="url(#p5224367b44)" style="fill: none; stroke: #90ed7d; stroke-linecap: square"/>
   </g>
   <g id="line2d_31">
    <path d="M 100.897216 353.223864 
L 111.930746 353.223875 
L 122.964276 353.222072 
L 133.997806 353.219021 
L 145.031336 353.068475 
L 156.064866 352.88882 
L 167.098397 352.564499 
L 178.131927 352.467663 
L 189.165457 350.76152 
L 200.198987 349.027709 
L 211.232517 347.635127 
L 222.266047 344.324286 
L 233.299577 346.048874 
L 244.333107 314.646608 
L 255.366637 319.95871 
L 266.400168 287.320642 
L 277.433698 315.402845 
L 288.467228 318.317123 
L 299.500758 320.521276 
L 310.534288 341.954129 
L 321.567818 347.681239 
L 332.601348 351.176528 
L 343.634878 352.845782 
L 354.668408 353.122454 
L 365.701938 353.168566 
L 387.768999 353.205455 
L 398.802529 353.168566 
L 409.836059 353.214678 
L 442.936649 353.214678 
L 476.03724 353.214678 
L 531.20489 353.214678 
L 586.372541 353.214678 
L 619.473131 353.205455 
L 652.573721 353.214678 
L 773.942552 353.214678 
" clip-path="url(#p5224367b44)" style="fill: none; stroke: #f7a35c; stroke-linecap: square"/>
   </g>
   <g id="line2d_32">
    <path d="M 100.897216 353.223855 
L 111.930746 353.223873 
L 122.964276 353.221908 
L 133.997806 353.21794 
L 145.031336 353.094786 
L 156.064866 352.909314 
L 167.098397 352.633667 
L 178.131927 352.200214 
L 189.165457 351.028969 
L 200.198987 350.567849 
L 211.232517 348.45592 
L 222.266047 345.76298 
L 233.299577 342.756478 
L 244.333107 272.398802 
L 255.366637 250.873725 
L 266.400168 137.069331 
L 277.433698 245.303396 
L 288.467228 323.435554 
L 299.500758 229.367092 
L 310.534288 312.866685 
L 321.567818 339.445637 
L 332.601348 348.704925 
L 343.634878 352.882671 
L 354.668408 353.140898 
L 365.701938 353.048674 
L 376.735469 353.094786 
L 387.768999 353.214678 
L 398.802529 353.196233 
L 420.869589 353.168566 
L 431.903119 353.205455 
L 442.936649 353.159343 
L 487.07077 353.214678 
L 509.13783 353.205455 
L 553.27195 353.205455 
L 586.372541 353.214678 
L 619.473131 353.214678 
L 784.976082 353.214678 
" clip-path="url(#p5224367b44)" style="fill: none; stroke: #8085e9; stroke-linecap: square"/>
   </g>
   <g id="line2d_33">
    <path d="M 100.897216 353.223861 
L 111.930746 353.223884 
L 122.964276 353.222379 
L 133.997806 353.219193 
L 145.031336 353.079928 
L 156.064866 352.931857 
L 167.098397 352.624444 
L 178.131927 352.458441 
L 189.165457 351.231862 
L 200.198987 349.368938 
L 211.232517 348.004023 
L 222.266047 344.80385 
L 233.299577 346.491549 
L 244.333107 316.804649 
L 255.366637 321.904636 
L 266.400168 285.23638 
L 277.433698 314.010263 
L 288.467228 314.084042 
L 299.500758 318.206454 
L 310.534288 341.714347 
L 321.567818 346.731332 
L 332.601348 350.9183 
L 343.634878 352.753558 
L 354.668408 353.131676 
L 365.701938 353.18701 
L 376.735469 353.177788 
L 387.768999 353.205455 
L 398.802529 353.214678 
L 409.836059 353.196233 
L 575.33901 353.205455 
L 597.406071 353.214678 
L 608.439601 353.196233 
" clip-path="url(#p5224367b44)" style="fill: none; stroke: #f15c80; stroke-linecap: square"/>
   </g>
   <g id="line2d_34">
    <path d="M 100.897216 353.22386 
L 111.930746 353.223874 
L 122.964276 353.221639 
L 133.997806 353.21801 
L 145.031336 353.038033 
L 156.064866 352.875293 
L 167.098397 352.41694 
L 178.131927 352.200214 
L 189.165457 350.447958 
L 200.198987 348.49281 
L 211.232517 348.059357 
L 222.266047 343.817054 
L 233.299577 343.374379 
L 244.333107 283.382678 
L 255.366637 279.785943 
L 266.400168 199.40352 
L 277.433698 270.369875 
L 288.467228 307.536139 
L 299.500758 272.002239 
L 310.534288 327.751636 
L 321.567818 342.461361 
L 332.601348 349.41505 
L 343.634878 352.633667 
L 354.668408 353.085564 
L 365.701938 353.122454 
L 376.735469 353.159343 
L 398.802529 353.168566 
L 420.869589 353.205455 
L 442.936649 353.196233 
L 453.970179 353.214678 
L 564.30548 353.214678 
L 575.33901 353.214678 
L 597.406071 353.205455 
L 608.439601 353.214678 
L 619.473131 353.214678 
L 707.741372 353.214678 
L 796.009613 353.214678 
L 807.043143 353.214678 
L 873.244323 353.214678 
" clip-path="url(#p5224367b44)" style="fill: none; stroke: #e4d354; stroke-linecap: square"/>
   </g>
   <g id="line2d_35">
    <path d="M 100.897216 353.223847 
L 111.930746 353.22386 
L 122.964276 353.221999 
L 133.997806 353.217986 
L 145.031336 353.053146 
L 156.064866 352.90688 
L 167.098397 352.707446 
L 178.131927 352.661334 
L 189.165457 351.111971 
L 200.198987 350.217398 
L 211.232517 348.465143 
L 222.266047 346.64833 
L 233.299577 347.3769 
L 244.333107 319.423811 
L 255.366637 321.858524 
L 266.400168 288.953007 
L 277.433698 314.194711 
L 288.467228 319.469923 
L 299.500758 317.108989 
L 310.534288 341.502232 
L 321.567818 347.736573 
L 332.601348 351.499312 
L 343.634878 352.882671 
L 354.668408 353.18701 
L 365.701938 353.168566 
L 376.735469 353.168566 
L 398.802529 353.196233 
L 409.836059 353.205455 
L 420.869589 353.214678 
L 453.970179 353.214678 
L 465.003709 353.205455 
L 553.27195 353.214678 
L 608.439601 353.214678 
L 652.573721 353.214678 
" clip-path="url(#p5224367b44)" style="fill: none; stroke: #2b908f; stroke-linecap: square"/>
   </g>
   <g id="line2d_36">
    <path d="M 58.418125 353.2239 
L 992.958125 353.2239 
" clip-path="url(#p5224367b44)" style="fill: none; stroke: #dedede; stroke-width: 2; stroke-linecap: square"/>
   </g>
   <g id="text_18">
    <!-- Cutadapt: Lengths of Trimmed Sequences (3' end) -->
    <g transform="translate(324.335625 19.3575) scale(0.16 -0.16)">
     <defs>
      <path id="DejaVuSans-43" d="M 4122 4306 
L 4122 3641 
Q 3803 3938 3442 4084 
Q 3081 4231 2675 4231 
Q 1875 4231 1450 3742 
Q 1025 3253 1025 2328 
Q 1025 1406 1450 917 
Q 1875 428 2675 428 
Q 3081 428 3442 575 
Q 3803 722 4122 1019 
L 4122 359 
Q 3791 134 3420 21 
Q 3050 -91 2638 -91 
Q 1578 -91 968 557 
Q 359 1206 359 2328 
Q 359 3453 968 4101 
Q 1578 4750 2638 4750 
Q 3056 4750 3426 4639 
Q 3797 4528 4122 4306 
z
" transform="scale(0.015625)"/>
      <path id="DejaVuSans-75" d="M 544 1381 
L 544 3500 
L 1119 3500 
L 1119 1403 
Q 1119 906 1312 657 
Q 1506 409 1894 409 
Q 2359 409 2629 706 
Q 2900 1003 2900 1516 
L 2900 3500 
L 3475 3500 
L 3475 0 
L 2900 0 
L 2900 538 
Q 2691 219 2414 64 
Q 2138 -91 1772 -91 
Q 1169 -91 856 284 
Q 544 659 544 1381 
z
M 1991 3584 
L 1991 3584 
z
" transform="scale(0.015625)"/>
      <path id="DejaVuSans-61" d="M 2194 1759 
Q 1497 1759 1228 1600 
Q 959 1441 959 1056 
Q 959 750 1161 570 
Q 1363 391 1709 391 
Q 2188 391 2477 730 
Q 2766 1069 2766 1631 
L 2766 1759 
L 2194 1759 
z
M 3341 1997 
L 3341 0 
L 2766 0 
L 2766 531 
Q 2569 213 2275 61 
Q 1981 -91 1556 -91 
Q 1019 -91 701 211 
Q 384 513 384 1019 
Q 384 1609 779 1909 
Q 1175 2209 1959 2209 
L 2766 2209 
L 2766 2266 
Q 2766 2663 2505 2880 
Q 2244 3097 1772 3097 
Q 1472 3097 1187 3025 
Q 903 2953 641 2809 
L 641 3341 
Q 956 3463 1253 3523 
Q 1550 3584 1831 3584 
Q 2591 3584 2966 3190 
Q 3341 2797 3341 1997 
z
" transform="scale(0.015625)"/>
      <path id="DejaVuSans-3a" d="M 750 794 
L 1409 794 
L 1409 0 
L 750 0 
L 750 794 
z
M 750 3309 
L 1409 3309 
L 1409 2516 
L 750 2516 
L 750 3309 
z
" transform="scale(0.015625)"/>
      <path id="DejaVuSans-6f" d="M 1959 3097 
Q 1497 3097 1228 2736 
Q 959 2375 959 1747 
Q 959 1119 1226 758 
Q 1494 397 1959 397 
Q 2419 397 2687 759 
Q 2956 1122 2956 1747 
Q 2956 2369 2687 2733 
Q 2419 3097 1959 3097 
z
M 1959 3584 
Q 2709 3584 3137 3096 
Q 3566 2609 3566 1747 
Q 3566 888 3137 398 
Q 2709 -91 1959 -91 
Q 1206 -91 779 398 
Q 353 888 353 1747 
Q 353 2609 779 3096 
Q 1206 3584 1959 3584 
z
" transform="scale(0.015625)"/>
      <path id="DejaVuSans-66" d="M 2375 4863 
L 2375 4384 
L 1825 4384 
Q 1516 4384 1395 4259 
Q 1275 4134 1275 3809 
L 1275 3500 
L 2222 3500 
L 2222 3053 
L 1275 3053 
L 1275 0 
L 697 0 
L 697 3053 
L 147 3053 
L 147 3500 
L 697 3500 
L 697 3744 
Q 697 4328 969 4595 
Q 1241 4863 1831 4863 
L 2375 4863 
z
" transform="scale(0.015625)"/>
      <path id="DejaVuSans-53" d="M 3425 4513 
L 3425 3897 
Q 3066 4069 2747 4153 
Q 2428 4238 2131 4238 
Q 1616 4238 1336 4038 
Q 1056 3838 1056 3469 
Q 1056 3159 1242 3001 
Q 1428 2844 1947 2747 
L 2328 2669 
Q 3034 2534 3370 2195 
Q 3706 1856 3706 1288 
Q 3706 609 3251 259 
Q 2797 -91 1919 -91 
Q 1588 -91 1214 -16 
Q 841 59 441 206 
L 441 856 
Q 825 641 1194 531 
Q 1563 422 1919 422 
Q 2459 422 2753 634 
Q 3047 847 3047 1241 
Q 3047 1584 2836 1778 
Q 2625 1972 2144 2069 
L 1759 2144 
Q 1053 2284 737 2584 
Q 422 2884 422 3419 
Q 422 4038 858 4394 
Q 1294 4750 2059 4750 
Q 2388 4750 2728 4690 
Q 3069 4631 3425 4513 
z
" transform="scale(0.015625)"/>
      <path id="DejaVuSans-71" d="M 947 1747 
Q 947 1113 1208 752 
Q 1469 391 1925 391 
Q 2381 391 2643 752 
Q 2906 1113 2906 1747 
Q 2906 2381 2643 2742 
Q 2381 3103 1925 3103 
Q 1469 3103 1208 2742 
Q 947 2381 947 1747 
z
M 2906 525 
Q 2725 213 2448 61 
Q 2172 -91 1784 -91 
Q 1150 -91 751 415 
Q 353 922 353 1747 
Q 353 2572 751 3078 
Q 1150 3584 1784 3584 
Q 2172 3584 2448 3432 
Q 2725 3281 2906 2969 
L 2906 3500 
L 3481 3500 
L 3481 -1331 
L 2906 -1331 
L 2906 525 
z
" transform="scale(0.015625)"/>
      <path id="DejaVuSans-27" d="M 1147 4666 
L 1147 2931 
L 616 2931 
L 616 4666 
L 1147 4666 
z
" transform="scale(0.015625)"/>
     </defs>
     <use xlink:href="#DejaVuSans-43"/>
     <use xlink:href="#DejaVuSans-75" x="69.824219"/>
     <use xlink:href="#DejaVuSans-74" x="133.203125"/>
     <use xlink:href="#DejaVuSans-61" x="172.412109"/>
     <use xlink:href="#DejaVuSans-64" x="233.691406"/>
     <use xlink:href="#DejaVuSans-61" x="297.167969"/>
     <use xlink:href="#DejaVuSans-70" x="358.447266"/>
     <use xlink:href="#DejaVuSans-74" x="421.923828"/>
     <use xlink:href="#DejaVuSans-3a" x="461.132812"/>
     <use xlink:href="#DejaVuSans-20" x="494.824219"/>
     <use xlink:href="#DejaVuSans-4c" x="526.611328"/>
     <use xlink:href="#DejaVuSans-65" x="580.574219"/>
     <use xlink:href="#DejaVuSans-6e" x="642.097656"/>
     <use xlink:href="#DejaVuSans-67" x="705.476562"/>
     <use xlink:href="#DejaVuSans-74" x="768.953125"/>
     <use xlink:href="#DejaVuSans-68" x="808.162109"/>
     <use xlink:href="#DejaVuSans-73" x="871.541016"/>
     <use xlink:href="#DejaVuSans-20" x="923.640625"/>
     <use xlink:href="#DejaVuSans-6f" x="955.427734"/>
     <use xlink:href="#DejaVuSans-66" x="1016.609375"/>
     <use xlink:href="#DejaVuSans-20" x="1051.814453"/>
     <use xlink:href="#DejaVuSans-54" x="1083.601562"/>
     <use xlink:href="#DejaVuSans-72" x="1129.935547"/>
     <use xlink:href="#DejaVuSans-69" x="1171.048828"/>
     <use xlink:href="#DejaVuSans-6d" x="1198.832031"/>
     <use xlink:href="#DejaVuSans-6d" x="1296.244141"/>
     <use xlink:href="#DejaVuSans-65" x="1393.65625"/>
     <use xlink:href="#DejaVuSans-64" x="1455.179688"/>
     <use xlink:href="#DejaVuSans-20" x="1518.65625"/>
     <use xlink:href="#DejaVuSans-53" x="1550.443359"/>
     <use xlink:href="#DejaVuSans-65" x="1613.919922"/>
     <use xlink:href="#DejaVuSans-71" x="1675.443359"/>
     <use xlink:href="#DejaVuSans-75" x="1738.919922"/>
     <use xlink:href="#DejaVuSans-65" x="1802.298828"/>
     <use xlink:href="#DejaVuSans-6e" x="1863.822266"/>
     <use xlink:href="#DejaVuSans-63" x="1927.201172"/>
     <use xlink:href="#DejaVuSans-65" x="1982.181641"/>
     <use xlink:href="#DejaVuSans-73" x="2043.705078"/>
     <use xlink:href="#DejaVuSans-20" x="2095.804688"/>
     <use xlink:href="#DejaVuSans-28" x="2127.591797"/>
     <use xlink:href="#DejaVuSans-33" x="2166.605469"/>
     <use xlink:href="#DejaVuSans-27" x="2230.228516"/>
     <use xlink:href="#DejaVuSans-20" x="2257.71875"/>
     <use xlink:href="#DejaVuSans-65" x="2289.505859"/>
     <use xlink:href="#DejaVuSans-6e" x="2351.029297"/>
     <use xlink:href="#DejaVuSans-64" x="2414.408203"/>
     <use xlink:href="#DejaVuSans-29" x="2477.884766"/>
    </g>
   </g>
  </g>
 </g>
 <defs>
  <clipPath id="p5224367b44">
   <rect x="58.418125" y="35.2559" width="934.54" height="317.968"/>
  </clipPath>
 </defs>
</svg>
