<?xml version="1.0" encoding="UTF-8" standalone="no"?>
<!-- Created with Inkscape (http://www.inkscape.org/) -->

<svg
   version="1.1"
   id="svg2"
   xml:space="preserve"
   width="51.807495mm"
   height="39.963867mm"
   viewBox="0 0 195.80785 151.04454"
   sodipodi:docname="wmean_fitness_sgRNAtarget-level_densityplot.svg"
   inkscape:version="1.1.2 (0a00cf5339, 2022-02-04)"
   xmlns:inkscape="http://www.inkscape.org/namespaces/inkscape"
   xmlns:sodipodi="http://sodipodi.sourceforge.net/DTD/sodipodi-0.dtd"
   xmlns="http://www.w3.org/2000/svg"
   xmlns:svg="http://www.w3.org/2000/svg"><defs
     id="defs6"><clipPath
       clipPathUnits="userSpaceOnUse"
       id="clipPath30"><path
         d="M 40.98,31.91 H 714.31 V 570.52 H 40.98 Z"
         id="path28" /></clipPath></defs><sodipodi:namedview
     id="namedview4"
     pagecolor="#ffffff"
     bordercolor="#666666"
     borderopacity="1.0"
     inkscape:pageshadow="2"
     inkscape:pageopacity="0.0"
     inkscape:pagecheckerboard="0"
     showgrid="false"
     inkscape:zoom="1.627003"
     inkscape:cx="181.62229"
     inkscape:cy="200.0611"
     inkscape:window-width="1920"
     inkscape:window-height="1016"
     inkscape:window-x="0"
     inkscape:window-y="0"
     inkscape:window-maximized="1"
     inkscape:current-layer="g8"
     units="mm"
     fit-margin-top="1"
     lock-margins="true"
     fit-margin-left="1"
     fit-margin-right="1"
     fit-margin-bottom="1"
     inkscape:document-units="mm" /><g
     id="g8"
     inkscape:groupmode="layer"
     inkscape:label="wmean_fitness_sgRNAtarget-level_densityplot"
     transform="matrix(1.3333333,0,0,-1.3333333,-10.139443,764.47284)"><g
       id="g14" /><g
       id="g16" /><g
       id="g22" /><g
       id="g24"
       transform="matrix(0.16771315,0,0,0.16771315,31.826649,474.83629)"
       style="stroke-width:5.96256"><g
         id="g26"
         clip-path="url(#clipPath30)"
         style="stroke-width:5.96256"><path
           d="M 40.98,31.91 H 714.31 V 570.52 H 40.98 Z"
           style="fill:#ffffff;fill-opacity:1;fill-rule:nonzero;stroke:none;stroke-width:5.96256"
           id="path32" /><path
           d="M 40.98,124.31 H 714.31"
           style="fill:none;stroke:#dedede;stroke-width:1.60989;stroke-linecap:butt;stroke-linejoin:round;stroke-miterlimit:10;stroke-dasharray:none;stroke-opacity:1"
           id="path34" /><path
           d="M 40.98,260.14 H 714.31"
           style="fill:none;stroke:#dedede;stroke-width:1.60989;stroke-linecap:butt;stroke-linejoin:round;stroke-miterlimit:10;stroke-dasharray:none;stroke-opacity:1"
           id="path36" /><path
           d="M 40.98,395.97 H 714.31"
           style="fill:none;stroke:#dedede;stroke-width:1.60989;stroke-linecap:butt;stroke-linejoin:round;stroke-miterlimit:10;stroke-dasharray:none;stroke-opacity:1"
           id="path38" /><path
           d="M 40.98,531.8 H 714.31"
           style="fill:none;stroke:#dedede;stroke-width:1.60989;stroke-linecap:butt;stroke-linejoin:round;stroke-miterlimit:10;stroke-dasharray:none;stroke-opacity:1"
           id="path40" /><path
           d="M 146.21,31.91 V 570.52"
           style="fill:none;stroke:#dedede;stroke-width:1.60989;stroke-linecap:butt;stroke-linejoin:round;stroke-miterlimit:10;stroke-dasharray:none;stroke-opacity:1"
           id="path42" /><path
           d="M 302.48,31.91 V 570.52"
           style="fill:none;stroke:#dedede;stroke-width:1.60989;stroke-linecap:butt;stroke-linejoin:round;stroke-miterlimit:10;stroke-dasharray:none;stroke-opacity:1"
           id="path44" /><path
           d="M 458.75,31.91 V 570.52"
           style="fill:none;stroke:#dedede;stroke-width:1.60989;stroke-linecap:butt;stroke-linejoin:round;stroke-miterlimit:10;stroke-dasharray:none;stroke-opacity:1"
           id="path46" /><path
           d="M 615.02,31.91 V 570.52"
           style="fill:none;stroke:#dedede;stroke-width:1.60989;stroke-linecap:butt;stroke-linejoin:round;stroke-miterlimit:10;stroke-dasharray:none;stroke-opacity:1"
           id="path48" /><path
           d="M 40.98,56.39 H 714.31"
           style="fill:none;stroke:#dedede;stroke-width:3.16016;stroke-linecap:butt;stroke-linejoin:round;stroke-miterlimit:10;stroke-dasharray:none;stroke-opacity:1"
           id="path50" /><path
           d="M 40.98,192.22 H 714.31"
           style="fill:none;stroke:#dedede;stroke-width:3.16016;stroke-linecap:butt;stroke-linejoin:round;stroke-miterlimit:10;stroke-dasharray:none;stroke-opacity:1"
           id="path52" /><path
           d="M 40.98,328.05 H 714.31"
           style="fill:none;stroke:#dedede;stroke-width:3.16016;stroke-linecap:butt;stroke-linejoin:round;stroke-miterlimit:10;stroke-dasharray:none;stroke-opacity:1"
           id="path54" /><path
           d="M 40.98,463.89 H 714.31"
           style="fill:none;stroke:#dedede;stroke-width:3.16016;stroke-linecap:butt;stroke-linejoin:round;stroke-miterlimit:10;stroke-dasharray:none;stroke-opacity:1"
           id="path56" /><path
           d="M 68.08,31.91 V 570.52"
           style="fill:none;stroke:#dedede;stroke-width:3.16016;stroke-linecap:butt;stroke-linejoin:round;stroke-miterlimit:10;stroke-dasharray:none;stroke-opacity:1"
           id="path58" /><path
           d="M 224.35,31.91 V 570.52"
           style="fill:none;stroke:#dedede;stroke-width:3.16016;stroke-linecap:butt;stroke-linejoin:round;stroke-miterlimit:10;stroke-dasharray:none;stroke-opacity:1"
           id="path60" /><path
           d="M 380.61,31.91 V 570.52"
           style="fill:none;stroke:#dedede;stroke-width:3.16016;stroke-linecap:butt;stroke-linejoin:round;stroke-miterlimit:10;stroke-dasharray:none;stroke-opacity:1"
           id="path62" /><path
           d="M 536.88,31.91 V 570.52"
           style="fill:none;stroke:#dedede;stroke-width:3.16016;stroke-linecap:butt;stroke-linejoin:round;stroke-miterlimit:10;stroke-dasharray:none;stroke-opacity:1"
           id="path64" /><path
           d="M 693.15,31.91 V 570.52"
           style="fill:none;stroke:#dedede;stroke-width:3.16016;stroke-linecap:butt;stroke-linejoin:round;stroke-miterlimit:10;stroke-dasharray:none;stroke-opacity:1"
           id="path66" /><path
           d="m 71.59,56.56 h 1.2 1.19 1.2 l 1.2,-0.01 h 1.2 l 1.2,-0.01 1.19,-0.01 1.2,-0.01 1.2,-0.01 1.2,-0.01 1.2,-0.01 1.19,-0.01 h 1.2 l 1.2,-0.01 1.2,-0.01 1.19,-0.01 1.2,-0.01 1.2,-0.01 h 1.2 l 1.2,-0.01 h 1.19 l 1.2,-0.01 h 1.2 1.2 l 1.2,-0.01 h 1.19 1.2 1.2 1.2 1.2 1.19 l 1.2,-0.01 h 1.2 1.2 1.19 1.2 1.2 1.2 1.2 1.19 1.2 1.2 1.2 1.2 1.19 1.2 1.2 1.2 1.19 1.2 1.2 1.2 1.2 1.19 1.2 1.2 1.2 1.2 1.19 l 1.2,0.01 h 1.2 1.2 1.2 1.19 1.2 1.2 l 1.2,0.01 h 1.19 l 1.2,0.01 h 1.2 l 1.2,0.01 1.2,0.01 h 1.19 l 1.2,0.01 1.2,0.01 1.2,0.02 1.2,0.01 1.19,0.02 1.2,0.01 1.2,0.02 1.2,0.02 1.19,0.02 1.2,0.03 1.2,0.02 1.2,0.03 1.2,0.02 1.19,0.03 1.2,0.02 1.2,0.03 1.2,0.03 1.2,0.02 1.19,0.03 1.2,0.02 1.2,0.02 1.2,0.02 1.2,0.02 1.19,0.01 1.2,0.02 1.2,0.01 1.2,0.01 h 1.19 1.2 1.2 l 1.2,-0.01 h 1.2 l 1.19,-0.01 1.2,-0.02 1.2,-0.01 1.2,-0.02 1.2,-0.02 1.19,-0.01 1.2,-0.02 1.2,-0.02 1.2,-0.02 1.2,-0.01 1.19,-0.02 1.2,-0.01 1.2,-0.01 h 1.2 1.19 l 1.2,0.01 1.2,0.01 1.2,0.01 1.2,0.02 1.19,0.03 1.2,0.03 1.2,0.03 1.2,0.04 1.2,0.05 1.19,0.05 1.2,0.05 1.2,0.06 1.2,0.06 1.19,0.06 1.2,0.06 1.2,0.06 1.2,0.07 1.2,0.06 1.19,0.07 1.2,0.06 1.2,0.06 1.2,0.06 1.2,0.06 1.19,0.06 1.2,0.06 1.2,0.05 1.2,0.06 1.2,0.06 1.19,0.07 1.2,0.06 1.2,0.07 1.2,0.07 1.19,0.08 1.2,0.09 1.2,0.09 1.2,0.1 1.2,0.11 1.19,0.12 1.2,0.12 1.2,0.14 1.2,0.14 1.2,0.14 1.19,0.15 1.2,0.16 1.2,0.16 1.2,0.17 1.19,0.17 1.2,0.17 1.2,0.17 1.2,0.17 1.2,0.17 1.19,0.17 1.2,0.17 1.2,0.16 1.2,0.17 1.2,0.16 1.19,0.16 1.2,0.16 1.2,0.15 1.2,0.16 1.2,0.15 1.19,0.16 1.2,0.15 1.2,0.15 1.2,0.16 1.19,0.15 1.2,0.16 1.2,0.16 1.2,0.17 1.2,0.17 1.19,0.17 1.2,0.17 1.2,0.18 1.2,0.19 1.2,0.19 1.19,0.19 1.2,0.2 1.2,0.2 1.2,0.21 1.2,0.21 1.19,0.21 1.2,0.22 1.2,0.22 1.2,0.23 1.19,0.23 1.2,0.23 1.2,0.24 1.2,0.25 1.2,0.26 1.19,0.26 1.2,0.27 1.2,0.28 1.2,0.29 1.2,0.31 1.19,0.32 1.2,0.33 1.2,0.34 1.2,0.36 1.19,0.38 1.2,0.39 1.2,0.4 1.2,0.42 1.2,0.44 1.19,0.45 1.2,0.46 1.2,0.46 1.2,0.48 1.2,0.48 1.19,0.49 1.2,0.49 1.2,0.48 1.2,0.48 1.2,0.48 1.19,0.47 1.2,0.46 1.2,0.44 1.2,0.43 1.19,0.42 1.2,0.4 1.2,0.39 1.2,0.38 1.2,0.36 1.19,0.36 1.2,0.34 1.2,0.34 1.2,0.34 1.2,0.34 1.19,0.34 1.2,0.34 1.2,0.35 1.2,0.37 1.19,0.37 1.2,0.38 1.2,0.4 1.2,0.41 1.2,0.42 1.19,0.44 1.2,0.45 1.2,0.45 1.2,0.47 1.2,0.48 1.19,0.48 1.2,0.48 1.2,0.49 1.2,0.49 1.2,0.48 1.19,0.49 1.2,0.48 1.2,0.48 1.2,0.47 1.19,0.46 1.2,0.46 1.2,0.45 1.2,0.44 1.2,0.44 1.19,0.43 1.2,0.43 1.2,0.42 1.2,0.42 1.2,0.42 1.19,0.42 1.2,0.42 1.2,0.43 1.2,0.43 1.2,0.44 1.19,0.44 1.2,0.46 1.2,0.46 1.2,0.48 1.19,0.48 1.2,0.51 1.2,0.51 1.2,0.53 1.2,0.54 1.19,0.56 1.2,0.57 1.2,0.58 1.2,0.6 1.2,0.6 1.19,0.62 1.2,0.63 1.2,0.64 1.2,0.64 1.19,0.66 1.2,0.67 1.2,0.67 1.2,0.69 1.2,0.7 1.19,0.71 1.2,0.72 1.2,0.74 1.2,0.77 1.2,0.78 1.19,0.8 1.2,0.83 1.2,0.86 1.2,0.88 1.2,0.91 1.19,0.95 1.2,0.98 1.2,1 1.2,1.04 1.19,1.07 1.2,1.09 1.2,1.12 1.2,1.15 1.2,1.17 1.19,1.19 1.2,1.2 1.2,1.21 1.2,1.22 1.2,1.23 1.19,1.23 1.2,1.23 1.2,1.22 1.2,1.22 1.19,1.21 1.2,1.2 1.2,1.19 1.2,1.18 1.2,1.16 1.19,1.16 1.2,1.14 1.2,1.14 1.2,1.14 1.2,1.14 1.19,1.16 1.2,1.17 1.2,1.19 1.2,1.24 1.2,1.28 1.19,1.34 1.2,1.42 1.2,1.52 1.2,1.63 1.19,1.76 1.2,1.91 1.2,2.06 1.2,2.25 1.2,2.45 1.19,2.71 1.2,2.96 1.2,3.22 1.2,3.5 1.2,3.79 1.19,4.11 1.2,4.43 1.2,4.84 1.2,5.19 1.2,5.54 1.19,5.91 1.2,6.26 1.2,6.63 1.2,6.99 1.19,7.39 1.2,7.7 1.2,8 1.2,8.27 1.2,8.49 1.19,8.68 1.2,8.82 1.2,8.9 1.2,8.88 1.2,8.8 1.19,8.63 1.2,8.38 1.2,8.04 1.2,7.61 1.19,6.97 1.2,6.32 1.2,5.59 1.2,4.76 1.2,3.88 1.19,2.91 1.2,1.85 1.2,0.6 1.2,-0.52 1.2,-1.64 1.19,-2.78 1.2,-3.89 1.2,-4.98 1.2,-6.08 1.2,-7.2 1.19,-8.11 1.2,-8.93 1.2,-9.65 1.2,-10.3 1.19,-10.83 1.2,-11.3 1.2,-11.65 1.2,-11.83 1.2,-11.93 1.19,-11.94 1.2,-11.85 1.2,-11.68 1.2,-11.43 1.2,-11.06 1.19,-10.67 1.2,-10.25 1.2,-9.79 1.2,-9.3 1.19,-8.79 1.2,-8.23 1.2,-7.64 1.2,-7.12 1.2,-6.6 1.19,-6.11 1.2,-5.64 1.2,-5.17 1.2,-4.71 1.2,-4.26 1.19,-3.89 1.2,-3.55 1.2,-3.23 1.2,-2.94 1.2,-2.67 1.19,-2.42 1.2,-2.18 1.2,-1.99 1.2,-1.82 1.19,-1.68 1.2,-1.54 1.2,-1.41 1.2,-1.3 1.2,-1.2 1.19,-1.11 1.2,-1.04 1.2,-0.98 1.2,-0.91 1.2,-0.86 1.19,-0.81 1.2,-0.75 1.2,-0.72 1.2,-0.68 1.19,-0.64 1.2,-0.61 1.2,-0.57 1.2,-0.54 1.2,-0.51 1.19,-0.48 1.2,-0.45 1.2,-0.42 1.2,-0.4 1.2,-0.36 1.19,-0.34 1.2,-0.31 1.2,-0.28 1.2,-0.26 1.2,-0.24 1.19,-0.21 1.2,-0.19 1.2,-0.17 1.2,-0.16 1.19,-0.14 1.2,-0.13 1.2,-0.12 1.2,-0.1 1.2,-0.11 1.19,-0.09 1.2,-0.1 1.2,-0.09 1.2,-0.09 1.2,-0.09 1.19,-0.1 1.2,-0.09 1.2,-0.1 1.2,-0.09 1.2,-0.1 1.19,-0.1 1.2,-0.1 1.2,-0.1 1.2,-0.09 1.19,-0.1 1.2,-0.09 1.2,-0.09 1.2,-0.09 1.2,-0.09 1.19,-0.08 1.2,-0.08 1.2,-0.07 1.2,-0.07 1.2,-0.06 1.19,-0.06 1.2,-0.06 1.2,-0.05 1.2,-0.06 1.19,-0.04 1.2,-0.05 1.2,-0.05 1.2,-0.04 1.2,-0.04 v -0.66 h -1.2 -1.2 -1.2 -1.2 -1.19 -1.2 -1.2 -1.2 -1.19 -1.2 -1.2 -1.2 -1.2 -1.19 -1.2 -1.2 -1.2 -1.2 -1.19 -1.2 -1.2 -1.2 -1.19 -1.2 -1.2 -1.2 -1.2 -1.19 -1.2 -1.2 -1.2 -1.2 -1.19 -1.2 -1.2 -1.2 -1.2 -1.19 -1.2 -1.2 -1.2 -1.19 -1.2 -1.2 -1.2 -1.2 -1.19 -1.2 -1.2 -1.2 -1.2 -1.19 -1.2 -1.2 -1.2 -1.2 -1.19 -1.2 -1.2 -1.2 -1.19 -1.2 -1.2 -1.2 -1.2 -1.19 -1.2 -1.2 -1.2 -1.2 -1.19 -1.2 -1.2 -1.2 -1.19 -1.2 -1.2 -1.2 -1.2 -1.19 -1.2 -1.2 -1.2 -1.2 -1.19 -1.2 -1.2 -1.2 -1.2 -1.19 -1.2 -1.2 -1.2 -1.19 -1.2 -1.2 -1.2 -1.2 -1.19 -1.2 -1.2 -1.2 -1.2 -1.19 -1.2 -1.2 -1.2 -1.19 -1.2 -1.2 -1.2 -1.2 -1.19 -1.2 -1.2 -1.2 -1.2 -1.19 -1.2 -1.2 -1.2 -1.2 -1.19 -1.2 -1.2 -1.2 -1.19 -1.2 -1.2 -1.2 -1.2 -1.19 -1.2 -1.2 -1.2 -1.2 -1.19 -1.2 -1.2 -1.2 -1.19 -1.2 -1.2 -1.2 -1.2 -1.19 -1.2 -1.2 -1.2 -1.2 -1.19 -1.2 -1.2 -1.2 -1.2 -1.19 -1.2 -1.2 -1.2 -1.19 -1.2 -1.2 -1.2 -1.2 -1.19 -1.2 -1.2 -1.2 -1.2 -1.19 -1.2 -1.2 -1.2 -1.2 -1.19 -1.2 -1.2 -1.2 -1.19 -1.2 -1.2 -1.2 -1.2 -1.19 -1.2 -1.2 -1.2 -1.2 -1.19 -1.2 -1.2 -1.2 -1.19 -1.2 -1.2 -1.2 -1.2 -1.19 -1.2 -1.2 -1.2 -1.2 -1.19 -1.2 -1.2 -1.2 -1.2 -1.19 -1.2 -1.2 -1.2 -1.19 -1.2 -1.2 -1.2 -1.2 -1.19 -1.2 -1.2 -1.2 -1.2 -1.19 -1.2 -1.2 -1.2 -1.19 -1.2 -1.2 -1.2 -1.2 -1.19 -1.2 -1.2 -1.2 -1.2 -1.19 -1.2 -1.2 -1.2 -1.2 -1.19 -1.2 -1.2 -1.2 -1.19 -1.2 -1.2 -1.2 -1.2 -1.19 -1.2 -1.2 -1.2 -1.2 -1.19 -1.2 -1.2 -1.2 -1.2 -1.19 -1.2 -1.2 -1.2 -1.19 -1.2 -1.2 -1.2 -1.2 -1.19 -1.2 -1.2 -1.2 -1.2 -1.19 -1.2 -1.2 -1.2 -1.19 -1.2 -1.2 -1.2 -1.2 -1.19 -1.2 -1.2 -1.2 -1.2 -1.19 -1.2 -1.2 -1.2 -1.2 -1.19 -1.2 -1.2 -1.2 -1.19 -1.2 -1.2 -1.2 -1.2 -1.19 -1.2 -1.2 -1.2 -1.2 -1.19 -1.2 -1.2 -1.2 -1.19 -1.2 -1.2 -1.2 -1.2 -1.19 -1.2 -1.2 -1.2 -1.2 -1.19 -1.2 -1.2 -1.2 -1.2 -1.19 -1.2 -1.2 -1.2 -1.19 -1.2 -1.2 -1.2 -1.2 -1.19 -1.2 -1.2 -1.2 -1.2 -1.19 -1.2 -1.2 -1.2 -1.2 -1.19 -1.2 -1.2 -1.2 -1.19 -1.2 -1.2 -1.2 -1.2 -1.19 -1.2 -1.2 -1.2 -1.2 -1.19 -1.2 -1.2 -1.2 -1.19 -1.2 -1.2 -1.2 -1.2 -1.19 -1.2 -1.2 -1.2 -1.2 -1.19 -1.2 -1.2 -1.2 -1.2 -1.19 -1.2 -1.2 -1.2 -1.19 -1.2 -1.2 -1.2 -1.2 -1.19 -1.2 -1.2 -1.2 -1.2 -1.19 -1.2 -1.2 -1.2 -1.19 -1.2 -1.2 -1.2 -1.2 -1.19 -1.2 -1.2 -1.2 -1.2 -1.19 -1.2 -1.2 -1.2 -1.2 -1.19 -1.2 -1.2 -1.2 -1.19 -1.2 -1.2 -1.2 -1.2 -1.19 -1.2 -1.2 -1.2 -1.2 -1.19 -1.2 -1.2 -1.2 -1.2 -1.19 -1.2 -1.2 -1.2 -1.19 -1.2 -1.2 -1.2 -1.2 -1.19 -1.2 -1.2 -1.2 -1.2 -1.19 -1.2 -1.2 -1.2 -1.19 -1.2 -1.2 -1.2 -1.2 -1.19 -1.2 -1.2 -1.2 -1.2 -1.19 -1.2 -1.2 -1.2 -1.2 -1.19 -1.2 -1.2 -1.2 -1.19 -1.2 -1.2 -1.2 -1.2 -1.19 -1.2 -1.2 -1.2 -1.2 -1.19 -1.2 -1.2 -1.2 -1.19 -1.2 -1.2 -1.2 -1.2 -1.19 -1.2 -1.2 -1.2 -1.2 -1.19 -1.2 -1.2 -1.2 -1.2 -1.19 -1.2 -1.2 -1.2 -1.19 -1.2 -1.2 -1.2 -1.2 -1.19 -1.2 -1.2 -1.2 -1.2 -1.19 -1.2 z"
           style="fill:#c57ba5;fill-opacity:0.4;fill-rule:nonzero;stroke:none;stroke-width:5.96256"
           id="path68" /><path
           d="m 71.59,56.56 h 1.2 1.19 1.2 l 1.2,-0.01 h 1.2 l 1.2,-0.01 1.19,-0.01 1.2,-0.01 1.2,-0.01 1.2,-0.01 1.2,-0.01 1.19,-0.01 h 1.2 l 1.2,-0.01 1.2,-0.01 1.19,-0.01 1.2,-0.01 1.2,-0.01 h 1.2 l 1.2,-0.01 h 1.19 l 1.2,-0.01 h 1.2 1.2 l 1.2,-0.01 h 1.19 1.2 1.2 1.2 1.2 1.19 l 1.2,-0.01 h 1.2 1.2 1.19 1.2 1.2 1.2 1.2 1.19 1.2 1.2 1.2 1.2 1.19 1.2 1.2 1.2 1.19 1.2 1.2 1.2 1.2 1.19 1.2 1.2 1.2 1.2 1.19 l 1.2,0.01 h 1.2 1.2 1.2 1.19 1.2 1.2 l 1.2,0.01 h 1.19 l 1.2,0.01 h 1.2 l 1.2,0.01 1.2,0.01 h 1.19 l 1.2,0.01 1.2,0.01 1.2,0.02 1.2,0.01 1.19,0.02 1.2,0.01 1.2,0.02 1.2,0.02 1.19,0.02 1.2,0.03 1.2,0.02 1.2,0.03 1.2,0.02 1.19,0.03 1.2,0.02 1.2,0.03 1.2,0.03 1.2,0.02 1.19,0.03 1.2,0.02 1.2,0.02 1.2,0.02 1.2,0.02 1.19,0.01 1.2,0.02 1.2,0.01 1.2,0.01 h 1.19 1.2 1.2 l 1.2,-0.01 h 1.2 l 1.19,-0.01 1.2,-0.02 1.2,-0.01 1.2,-0.02 1.2,-0.02 1.19,-0.01 1.2,-0.02 1.2,-0.02 1.2,-0.02 1.2,-0.01 1.19,-0.02 1.2,-0.01 1.2,-0.01 h 1.2 1.19 l 1.2,0.01 1.2,0.01 1.2,0.01 1.2,0.02 1.19,0.03 1.2,0.03 1.2,0.03 1.2,0.04 1.2,0.05 1.19,0.05 1.2,0.05 1.2,0.06 1.2,0.06 1.19,0.06 1.2,0.06 1.2,0.06 1.2,0.07 1.2,0.06 1.19,0.07 1.2,0.06 1.2,0.06 1.2,0.06 1.2,0.06 1.19,0.06 1.2,0.06 1.2,0.05 1.2,0.06 1.2,0.06 1.19,0.07 1.2,0.06 1.2,0.07 1.2,0.07 1.19,0.08 1.2,0.09 1.2,0.09 1.2,0.1 1.2,0.11 1.19,0.12 1.2,0.12 1.2,0.14 1.2,0.14 1.2,0.14 1.19,0.15 1.2,0.16 1.2,0.16 1.2,0.17 1.19,0.17 1.2,0.17 1.2,0.17 1.2,0.17 1.2,0.17 1.19,0.17 1.2,0.17 1.2,0.16 1.2,0.17 1.2,0.16 1.19,0.16 1.2,0.16 1.2,0.15 1.2,0.16 1.2,0.15 1.19,0.16 1.2,0.15 1.2,0.15 1.2,0.16 1.19,0.15 1.2,0.16 1.2,0.16 1.2,0.17 1.2,0.17 1.19,0.17 1.2,0.17 1.2,0.18 1.2,0.19 1.2,0.19 1.19,0.19 1.2,0.2 1.2,0.2 1.2,0.21 1.2,0.21 1.19,0.21 1.2,0.22 1.2,0.22 1.2,0.23 1.19,0.23 1.2,0.23 1.2,0.24 1.2,0.25 1.2,0.26 1.19,0.26 1.2,0.27 1.2,0.28 1.2,0.29 1.2,0.31 1.19,0.32 1.2,0.33 1.2,0.34 1.2,0.36 1.19,0.38 1.2,0.39 1.2,0.4 1.2,0.42 1.2,0.44 1.19,0.45 1.2,0.46 1.2,0.46 1.2,0.48 1.2,0.48 1.19,0.49 1.2,0.49 1.2,0.48 1.2,0.48 1.2,0.48 1.19,0.47 1.2,0.46 1.2,0.44 1.2,0.43 1.19,0.42 1.2,0.4 1.2,0.39 1.2,0.38 1.2,0.36 1.19,0.36 1.2,0.34 1.2,0.34 1.2,0.34 1.2,0.34 1.19,0.34 1.2,0.34 1.2,0.35 1.2,0.37 1.19,0.37 1.2,0.38 1.2,0.4 1.2,0.41 1.2,0.42 1.19,0.44 1.2,0.45 1.2,0.45 1.2,0.47 1.2,0.48 1.19,0.48 1.2,0.48 1.2,0.49 1.2,0.49 1.2,0.48 1.19,0.49 1.2,0.48 1.2,0.48 1.2,0.47 1.19,0.46 1.2,0.46 1.2,0.45 1.2,0.44 1.2,0.44 1.19,0.43 1.2,0.43 1.2,0.42 1.2,0.42 1.2,0.42 1.19,0.42 1.2,0.42 1.2,0.43 1.2,0.43 1.2,0.44 1.19,0.44 1.2,0.46 1.2,0.46 1.2,0.48 1.19,0.48 1.2,0.51 1.2,0.51 1.2,0.53 1.2,0.54 1.19,0.56 1.2,0.57 1.2,0.58 1.2,0.6 1.2,0.6 1.19,0.62 1.2,0.63 1.2,0.64 1.2,0.64 1.19,0.66 1.2,0.67 1.2,0.67 1.2,0.69 1.2,0.7 1.19,0.71 1.2,0.72 1.2,0.74 1.2,0.77 1.2,0.78 1.19,0.8 1.2,0.83 1.2,0.86 1.2,0.88 1.2,0.91 1.19,0.95 1.2,0.98 1.2,1 1.2,1.04 1.19,1.07 1.2,1.09 1.2,1.12 1.2,1.15 1.2,1.17 1.19,1.19 1.2,1.2 1.2,1.21 1.2,1.22 1.2,1.23 1.19,1.23 1.2,1.23 1.2,1.22 1.2,1.22 1.19,1.21 1.2,1.2 1.2,1.19 1.2,1.18 1.2,1.16 1.19,1.16 1.2,1.14 1.2,1.14 1.2,1.14 1.2,1.14 1.19,1.16 1.2,1.17 1.2,1.19 1.2,1.24 1.2,1.28 1.19,1.34 1.2,1.42 1.2,1.52 1.2,1.63 1.19,1.76 1.2,1.91 1.2,2.06 1.2,2.25 1.2,2.45 1.19,2.71 1.2,2.96 1.2,3.22 1.2,3.5 1.2,3.79 1.19,4.11 1.2,4.43 1.2,4.84 1.2,5.19 1.2,5.54 1.19,5.91 1.2,6.26 1.2,6.63 1.2,6.99 1.19,7.39 1.2,7.7 1.2,8 1.2,8.27 1.2,8.49 1.19,8.68 1.2,8.82 1.2,8.9 1.2,8.88 1.2,8.8 1.19,8.63 1.2,8.38 1.2,8.04 1.2,7.61 1.19,6.97 1.2,6.32 1.2,5.59 1.2,4.76 1.2,3.88 1.19,2.91 1.2,1.85 1.2,0.6 1.2,-0.52 1.2,-1.64 1.19,-2.78 1.2,-3.89 1.2,-4.98 1.2,-6.08 1.2,-7.2 1.19,-8.11 1.2,-8.93 1.2,-9.65 1.2,-10.3 1.19,-10.83 1.2,-11.3 1.2,-11.65 1.2,-11.83 1.2,-11.93 1.19,-11.94 1.2,-11.85 1.2,-11.68 1.2,-11.43 1.2,-11.06 1.19,-10.67 1.2,-10.25 1.2,-9.79 1.2,-9.3 1.19,-8.79 1.2,-8.23 1.2,-7.64 1.2,-7.12 1.2,-6.6 1.19,-6.11 1.2,-5.64 1.2,-5.17 1.2,-4.71 1.2,-4.26 1.19,-3.89 1.2,-3.55 1.2,-3.23 1.2,-2.94 1.2,-2.67 1.19,-2.42 1.2,-2.18 1.2,-1.99 1.2,-1.82 1.19,-1.68 1.2,-1.54 1.2,-1.41 1.2,-1.3 1.2,-1.2 1.19,-1.11 1.2,-1.04 1.2,-0.98 1.2,-0.91 1.2,-0.86 1.19,-0.81 1.2,-0.75 1.2,-0.72 1.2,-0.68 1.19,-0.64 1.2,-0.61 1.2,-0.57 1.2,-0.54 1.2,-0.51 1.19,-0.48 1.2,-0.45 1.2,-0.42 1.2,-0.4 1.2,-0.36 1.19,-0.34 1.2,-0.31 1.2,-0.28 1.2,-0.26 1.2,-0.24 1.19,-0.21 1.2,-0.19 1.2,-0.17 1.2,-0.16 1.19,-0.14 1.2,-0.13 1.2,-0.12 1.2,-0.1 1.2,-0.11 1.19,-0.09 1.2,-0.1 1.2,-0.09 1.2,-0.09 1.2,-0.09 1.19,-0.1 1.2,-0.09 1.2,-0.1 1.2,-0.09 1.2,-0.1 1.19,-0.1 1.2,-0.1 1.2,-0.1 1.2,-0.09 1.19,-0.1 1.2,-0.09 1.2,-0.09 1.2,-0.09 1.2,-0.09 1.19,-0.08 1.2,-0.08 1.2,-0.07 1.2,-0.07 1.2,-0.06 1.19,-0.06 1.2,-0.06 1.2,-0.05 1.2,-0.06 1.19,-0.04 1.2,-0.05 1.2,-0.05 1.2,-0.04 1.2,-0.04"
           style="fill:none;stroke:#000000;stroke-width:6.37994;stroke-linecap:butt;stroke-linejoin:round;stroke-miterlimit:10;stroke-dasharray:none;stroke-opacity:1"
           id="path70" /><path
           d="m 71.59,56.48 1.2,0.01 1.19,0.01 1.2,0.02 1.2,0.01 1.2,0.01 1.2,0.01 1.19,0.01 1.2,0.01 1.2,0.01 1.2,0.01 h 1.2 1.19 1.2 1.2 l 1.2,-0.01 h 1.19 l 1.2,-0.01 h 1.2 l 1.2,-0.01 1.2,-0.01 1.19,-0.01 h 1.2 l 1.2,-0.01 h 1.2 1.2 1.19 1.2 l 1.2,0.01 1.2,0.01 1.2,0.01 1.19,0.02 1.2,0.01 1.2,0.02 1.2,0.02 1.19,0.02 1.2,0.03 1.2,0.02 1.2,0.03 1.2,0.03 1.19,0.03 1.2,0.02 1.2,0.03 1.2,0.03 1.2,0.03 1.19,0.03 1.2,0.03 1.2,0.02 1.2,0.03 1.19,0.03 1.2,0.02 1.2,0.02 1.2,0.03 1.2,0.02 1.19,0.01 1.2,0.02 1.2,0.01 1.2,0.01 1.2,0.01 h 1.19 l 1.2,0.01 1.2,-0.01 h 1.2 1.2 l 1.19,-0.01 h 1.2 l 1.2,-0.01 h 1.2 l 1.19,-0.01 h 1.2 1.2 l 1.2,0.01 1.2,0.01 1.19,0.01 1.2,0.01 1.2,0.03 1.2,0.02 1.2,0.04 1.19,0.04 1.2,0.04 1.2,0.05 1.2,0.06 1.19,0.06 1.2,0.06 1.2,0.07 1.2,0.07 1.2,0.07 1.19,0.08 1.2,0.07 1.2,0.06 1.2,0.07 1.2,0.06 1.19,0.06 1.2,0.05 1.2,0.05 1.2,0.05 1.2,0.05 1.19,0.05 1.2,0.04 1.2,0.05 1.2,0.05 1.19,0.05 1.2,0.06 1.2,0.06 1.2,0.06 1.2,0.07 1.19,0.07 1.2,0.07 1.2,0.08 1.2,0.07 1.2,0.08 1.19,0.07 1.2,0.08 1.2,0.08 1.2,0.08 1.2,0.09 1.19,0.09 1.2,0.09 1.2,0.11 1.2,0.11 1.19,0.12 1.2,0.13 1.2,0.14 1.2,0.15 1.2,0.16 1.19,0.17 1.2,0.17 1.2,0.18 1.2,0.19 1.2,0.19 1.19,0.19 1.2,0.19 1.2,0.18 1.2,0.19 1.19,0.17 1.2,0.17 1.2,0.17 1.2,0.16 1.2,0.15 1.19,0.15 1.2,0.14 1.2,0.13 1.2,0.13 1.2,0.13 1.19,0.12 1.2,0.12 1.2,0.13 1.2,0.12 1.2,0.13 1.19,0.13 1.2,0.14 1.2,0.15 1.2,0.16 1.19,0.17 1.2,0.18 1.2,0.19 1.2,0.2 1.2,0.22 1.19,0.22 1.2,0.24 1.2,0.24 1.2,0.24 1.2,0.24 1.19,0.25 1.2,0.24 1.2,0.24 1.2,0.23 1.19,0.22 1.2,0.21 1.2,0.21 1.2,0.19 1.2,0.18 1.19,0.18 1.2,0.16 1.2,0.15 1.2,0.15 1.2,0.13 1.19,0.13 1.2,0.12 1.2,0.11 1.2,0.11 1.2,0.1 1.19,0.1 1.2,0.09 1.2,0.08 1.2,0.08 1.19,0.08 1.2,0.07 1.2,0.07 1.2,0.07 1.2,0.06 1.19,0.06 1.2,0.07 1.2,0.06 1.2,0.07 1.2,0.07 1.19,0.08 1.2,0.09 1.2,0.1 1.2,0.11 1.2,0.13 1.19,0.15 1.2,0.17 1.2,0.19 1.2,0.22 1.19,0.25 1.2,0.27 1.2,0.29 1.2,0.32 1.2,0.34 1.19,0.36 1.2,0.37 1.2,0.38 1.2,0.39 1.2,0.38 1.19,0.38 1.2,0.37 1.2,0.35 1.2,0.34 1.19,0.32 1.2,0.3 1.2,0.28 1.2,0.26 1.2,0.25 1.19,0.24 1.2,0.22 1.2,0.21 1.2,0.21 1.2,0.2 1.19,0.2 1.2,0.19 1.2,0.2 1.2,0.19 1.2,0.19 1.19,0.19 1.2,0.19 1.2,0.19 1.2,0.18 1.19,0.18 1.2,0.16 1.2,0.16 1.2,0.15 1.2,0.14 1.19,0.14 1.2,0.13 1.2,0.12 1.2,0.12 1.2,0.12 1.19,0.12 1.2,0.12 1.2,0.14 1.2,0.15 1.19,0.17 1.2,0.18 1.2,0.2 1.2,0.22 1.2,0.25 1.19,0.26 1.2,0.29 1.2,0.31 1.2,0.33 1.2,0.35 1.19,0.36 1.2,0.38 1.2,0.39 1.2,0.4 1.2,0.4 1.19,0.42 1.2,0.41 1.2,0.42 1.2,0.42 1.19,0.42 1.2,0.41 1.2,0.41 1.2,0.41 1.2,0.39 1.19,0.39 1.2,0.37 1.2,0.35 1.2,0.33 1.2,0.3 1.19,0.27 1.2,0.25 1.2,0.21 1.2,0.17 1.2,0.14 1.19,0.1 1.2,0.06 1.2,0.02 1.2,-0.01 1.19,-0.05 1.2,-0.07 1.2,-0.1 1.2,-0.11 1.2,-0.13 1.19,-0.14 1.2,-0.13 1.2,-0.13 1.2,-0.11 1.2,-0.09 1.19,-0.06 1.2,-0.03 h 1.2 l 1.2,0.05 1.19,0.1 1.2,0.14 1.2,0.19 1.2,0.23 1.2,0.27 1.19,0.31 1.2,0.34 1.2,0.38 1.2,0.41 1.2,0.43 1.19,0.44 1.2,0.46 1.2,0.48 1.2,0.49 1.2,0.5 1.19,0.51 1.2,0.54 1.2,0.56 1.2,0.58 1.19,0.61 1.2,0.64 1.2,0.68 1.2,0.72 1.2,0.76 1.19,0.81 1.2,0.84 1.2,0.88 1.2,0.91 1.2,0.93 1.19,0.96 1.2,0.96 1.2,0.97 1.2,0.97 1.19,0.96 1.2,0.95 1.2,0.94 1.2,0.93 1.2,0.92 1.19,0.91 1.2,0.93 1.2,0.94 1.2,0.98 1.2,1.02 1.19,1.08 1.2,1.16 1.2,1.24 1.2,1.37 1.2,1.5 1.19,1.63 1.2,1.78 1.2,1.95 1.2,2.11 1.19,2.3 1.2,2.5 1.2,2.74 1.2,2.98 1.2,3.24 1.19,3.52 1.2,3.84 1.2,4.19 1.2,4.59 1.2,5.05 1.19,5.65 1.2,6.24 1.2,6.91 1.2,7.64 1.2,8.46 1.19,9.34 1.2,10.29 1.2,11.35 1.2,12.55 1.19,13.65 1.2,14.76 1.2,15.83 1.2,16.87 1.2,17.83 1.19,18.66 1.2,19.39 1.2,19.88 1.2,20.04 1.2,19.94 1.19,19.53 1.2,18.81 1.2,17.74 1.2,16.34 1.19,14.33 1.2,12.01 1.2,9.53 1.2,6.78 1.2,3.84 1.19,0.76 1.2,-2.41 1.2,-5.6 1.2,-9.17 1.2,-12.2 1.19,-14.93 1.2,-17.39 1.2,-19.55 1.2,-21.36 1.2,-22.81 1.19,-23.88 1.2,-24.57 1.2,-24.73 1.2,-24.54 1.19,-24.05 1.2,-23.28 1.2,-22.29 1.2,-21.1 1.2,-19.71 1.19,-18.06 1.2,-16.55 1.2,-15.04 1.2,-13.56 1.2,-12.13 1.19,-10.76 1.2,-9.48 1.2,-8.22 1.2,-7.06 1.19,-6.13 1.2,-5.3 1.2,-4.56 1.2,-3.92 1.2,-3.36 1.19,-2.87 1.2,-2.43 1.2,-2.07 1.2,-1.78 1.2,-1.54 1.19,-1.33 1.2,-1.16 1.2,-1.01 1.2,-0.87 1.2,-0.75 1.19,-0.66 1.2,-0.58 1.2,-0.5 1.2,-0.45 1.19,-0.39 1.2,-0.35 1.2,-0.3 1.2,-0.26 1.2,-0.23 1.19,-0.2 1.2,-0.17 1.2,-0.15 1.2,-0.13 1.2,-0.12 1.19,-0.09 1.2,-0.08 1.2,-0.07 1.2,-0.06 1.19,-0.05 1.2,-0.04 1.2,-0.03 1.2,-0.04 1.2,-0.03 1.19,-0.02 1.2,-0.03 1.2,-0.04 1.2,-0.03 1.2,-0.03 1.19,-0.04 1.2,-0.04 1.2,-0.05 1.2,-0.04 1.2,-0.05 1.19,-0.05 1.2,-0.05 1.2,-0.05 1.2,-0.04 1.19,-0.05 1.2,-0.04 1.2,-0.04 1.2,-0.03 1.2,-0.03 1.19,-0.03 1.2,-0.03 1.2,-0.02 1.2,-0.02 1.2,-0.02 1.19,-0.02 1.2,-0.01 1.2,-0.02 1.2,-0.02 1.2,-0.01 1.19,-0.02 1.2,-0.01 1.2,-0.02 1.2,-0.01 1.19,-0.02 1.2,-0.01 1.2,-0.02 1.2,-0.01 1.2,-0.01 1.19,-0.01 1.2,-0.01 1.2,-0.01 1.2,-0.01 1.2,-0.01 h 1.19 l 1.2,-0.01 h 1.2 1.2 l 1.19,-0.01 h 1.2 1.2 1.2 1.2 v -0.01 h -1.2 -1.2 -1.2 -1.2 -1.19 -1.2 -1.2 -1.2 -1.19 -1.2 -1.2 -1.2 -1.2 -1.19 -1.2 -1.2 -1.2 -1.2 -1.19 -1.2 -1.2 -1.2 -1.19 -1.2 -1.2 -1.2 -1.2 -1.19 -1.2 -1.2 -1.2 -1.2 -1.19 -1.2 -1.2 -1.2 -1.2 -1.19 -1.2 -1.2 -1.2 -1.19 -1.2 -1.2 -1.2 -1.2 -1.19 -1.2 -1.2 -1.2 -1.2 -1.19 -1.2 -1.2 -1.2 -1.2 -1.19 -1.2 -1.2 -1.2 -1.19 -1.2 -1.2 -1.2 -1.2 -1.19 -1.2 -1.2 -1.2 -1.2 -1.19 -1.2 -1.2 -1.2 -1.19 -1.2 -1.2 -1.2 -1.2 -1.19 -1.2 -1.2 -1.2 -1.2 -1.19 -1.2 -1.2 -1.2 -1.2 -1.19 -1.2 -1.2 -1.2 -1.19 -1.2 -1.2 -1.2 -1.2 -1.19 -1.2 -1.2 -1.2 -1.2 -1.19 -1.2 -1.2 -1.2 -1.19 -1.2 -1.2 -1.2 -1.2 -1.19 -1.2 -1.2 -1.2 -1.2 -1.19 -1.2 -1.2 -1.2 -1.2 -1.19 -1.2 -1.2 -1.2 -1.19 -1.2 -1.2 -1.2 -1.2 -1.19 -1.2 -1.2 -1.2 -1.2 -1.19 -1.2 -1.2 -1.2 -1.19 -1.2 -1.2 -1.2 -1.2 -1.19 -1.2 -1.2 -1.2 -1.2 -1.19 -1.2 -1.2 -1.2 -1.2 -1.19 -1.2 -1.2 -1.2 -1.19 -1.2 -1.2 -1.2 -1.2 -1.19 -1.2 -1.2 -1.2 -1.2 -1.19 -1.2 -1.2 -1.2 -1.2 -1.19 -1.2 -1.2 -1.2 -1.19 -1.2 -1.2 -1.2 -1.2 -1.19 -1.2 -1.2 -1.2 -1.2 -1.19 -1.2 -1.2 -1.2 -1.19 -1.2 -1.2 -1.2 -1.2 -1.19 -1.2 -1.2 -1.2 -1.2 -1.19 -1.2 -1.2 -1.2 -1.2 -1.19 -1.2 -1.2 -1.2 -1.19 -1.2 -1.2 -1.2 -1.2 -1.19 -1.2 -1.2 -1.2 -1.2 -1.19 -1.2 -1.2 -1.2 -1.19 -1.2 -1.2 -1.2 -1.2 -1.19 -1.2 -1.2 -1.2 -1.2 -1.19 -1.2 -1.2 -1.2 -1.2 -1.19 -1.2 -1.2 -1.2 -1.19 -1.2 -1.2 -1.2 -1.2 -1.19 -1.2 -1.2 -1.2 -1.2 -1.19 -1.2 -1.2 -1.2 -1.2 -1.19 -1.2 -1.2 -1.2 -1.19 -1.2 -1.2 -1.2 -1.2 -1.19 -1.2 -1.2 -1.2 -1.2 -1.19 -1.2 -1.2 -1.2 -1.19 -1.2 -1.2 -1.2 -1.2 -1.19 -1.2 -1.2 -1.2 -1.2 -1.19 -1.2 -1.2 -1.2 -1.2 -1.19 -1.2 -1.2 -1.2 -1.19 -1.2 -1.2 -1.2 -1.2 -1.19 -1.2 -1.2 -1.2 -1.2 -1.19 -1.2 -1.2 -1.2 -1.19 -1.2 -1.2 -1.2 -1.2 -1.19 -1.2 -1.2 -1.2 -1.2 -1.19 -1.2 -1.2 -1.2 -1.2 -1.19 -1.2 -1.2 -1.2 -1.19 -1.2 -1.2 -1.2 -1.2 -1.19 -1.2 -1.2 -1.2 -1.2 -1.19 -1.2 -1.2 -1.2 -1.2 -1.19 -1.2 -1.2 -1.2 -1.19 -1.2 -1.2 -1.2 -1.2 -1.19 -1.2 -1.2 -1.2 -1.2 -1.19 -1.2 -1.2 -1.2 -1.19 -1.2 -1.2 -1.2 -1.2 -1.19 -1.2 -1.2 -1.2 -1.2 -1.19 -1.2 -1.2 -1.2 -1.2 -1.19 -1.2 -1.2 -1.2 -1.19 -1.2 -1.2 -1.2 -1.2 -1.19 -1.2 -1.2 -1.2 -1.2 -1.19 -1.2 -1.2 -1.2 -1.19 -1.2 -1.2 -1.2 -1.2 -1.19 -1.2 -1.2 -1.2 -1.2 -1.19 -1.2 -1.2 -1.2 -1.2 -1.19 -1.2 -1.2 -1.2 -1.19 -1.2 -1.2 -1.2 -1.2 -1.19 -1.2 -1.2 -1.2 -1.2 -1.19 -1.2 -1.2 -1.2 -1.2 -1.19 -1.2 -1.2 -1.2 -1.19 -1.2 -1.2 -1.2 -1.2 -1.19 -1.2 -1.2 -1.2 -1.2 -1.19 -1.2 -1.2 -1.2 -1.19 -1.2 -1.2 -1.2 -1.2 -1.19 -1.2 -1.2 -1.2 -1.2 -1.19 -1.2 -1.2 -1.2 -1.2 -1.19 -1.2 -1.2 -1.2 -1.19 -1.2 -1.2 -1.2 -1.2 -1.19 -1.2 -1.2 -1.2 -1.2 -1.19 -1.2 -1.2 -1.2 -1.19 -1.2 -1.2 -1.2 -1.2 -1.19 -1.2 -1.2 -1.2 -1.2 -1.19 -1.2 -1.2 -1.2 -1.2 -1.19 -1.2 -1.2 -1.2 -1.19 -1.2 -1.2 -1.2 -1.2 -1.19 -1.2 -1.2 -1.2 -1.2 -1.19 -1.2 z"
           style="fill:#005a96;fill-opacity:0.4;fill-rule:nonzero;stroke:none;stroke-width:5.96256"
           id="path72" /><path
           d="m 71.59,56.48 1.2,0.01 1.19,0.01 1.2,0.02 1.2,0.01 1.2,0.01 1.2,0.01 1.19,0.01 1.2,0.01 1.2,0.01 1.2,0.01 h 1.2 1.19 1.2 1.2 l 1.2,-0.01 h 1.19 l 1.2,-0.01 h 1.2 l 1.2,-0.01 1.2,-0.01 1.19,-0.01 h 1.2 l 1.2,-0.01 h 1.2 1.2 1.19 1.2 l 1.2,0.01 1.2,0.01 1.2,0.01 1.19,0.02 1.2,0.01 1.2,0.02 1.2,0.02 1.19,0.02 1.2,0.03 1.2,0.02 1.2,0.03 1.2,0.03 1.19,0.03 1.2,0.02 1.2,0.03 1.2,0.03 1.2,0.03 1.19,0.03 1.2,0.03 1.2,0.02 1.2,0.03 1.19,0.03 1.2,0.02 1.2,0.02 1.2,0.03 1.2,0.02 1.19,0.01 1.2,0.02 1.2,0.01 1.2,0.01 1.2,0.01 h 1.19 l 1.2,0.01 1.2,-0.01 h 1.2 1.2 l 1.19,-0.01 h 1.2 l 1.2,-0.01 h 1.2 l 1.19,-0.01 h 1.2 1.2 l 1.2,0.01 1.2,0.01 1.19,0.01 1.2,0.01 1.2,0.03 1.2,0.02 1.2,0.04 1.19,0.04 1.2,0.04 1.2,0.05 1.2,0.06 1.19,0.06 1.2,0.06 1.2,0.07 1.2,0.07 1.2,0.07 1.19,0.08 1.2,0.07 1.2,0.06 1.2,0.07 1.2,0.06 1.19,0.06 1.2,0.05 1.2,0.05 1.2,0.05 1.2,0.05 1.19,0.05 1.2,0.04 1.2,0.05 1.2,0.05 1.19,0.05 1.2,0.06 1.2,0.06 1.2,0.06 1.2,0.07 1.19,0.07 1.2,0.07 1.2,0.08 1.2,0.07 1.2,0.08 1.19,0.07 1.2,0.08 1.2,0.08 1.2,0.08 1.2,0.09 1.19,0.09 1.2,0.09 1.2,0.11 1.2,0.11 1.19,0.12 1.2,0.13 1.2,0.14 1.2,0.15 1.2,0.16 1.19,0.17 1.2,0.17 1.2,0.18 1.2,0.19 1.2,0.19 1.19,0.19 1.2,0.19 1.2,0.18 1.2,0.19 1.19,0.17 1.2,0.17 1.2,0.17 1.2,0.16 1.2,0.15 1.19,0.15 1.2,0.14 1.2,0.13 1.2,0.13 1.2,0.13 1.19,0.12 1.2,0.12 1.2,0.13 1.2,0.12 1.2,0.13 1.19,0.13 1.2,0.14 1.2,0.15 1.2,0.16 1.19,0.17 1.2,0.18 1.2,0.19 1.2,0.2 1.2,0.22 1.19,0.22 1.2,0.24 1.2,0.24 1.2,0.24 1.2,0.24 1.19,0.25 1.2,0.24 1.2,0.24 1.2,0.23 1.19,0.22 1.2,0.21 1.2,0.21 1.2,0.19 1.2,0.18 1.19,0.18 1.2,0.16 1.2,0.15 1.2,0.15 1.2,0.13 1.19,0.13 1.2,0.12 1.2,0.11 1.2,0.11 1.2,0.1 1.19,0.1 1.2,0.09 1.2,0.08 1.2,0.08 1.19,0.08 1.2,0.07 1.2,0.07 1.2,0.07 1.2,0.06 1.19,0.06 1.2,0.07 1.2,0.06 1.2,0.07 1.2,0.07 1.19,0.08 1.2,0.09 1.2,0.1 1.2,0.11 1.2,0.13 1.19,0.15 1.2,0.17 1.2,0.19 1.2,0.22 1.19,0.25 1.2,0.27 1.2,0.29 1.2,0.32 1.2,0.34 1.19,0.36 1.2,0.37 1.2,0.38 1.2,0.39 1.2,0.38 1.19,0.38 1.2,0.37 1.2,0.35 1.2,0.34 1.19,0.32 1.2,0.3 1.2,0.28 1.2,0.26 1.2,0.25 1.19,0.24 1.2,0.22 1.2,0.21 1.2,0.21 1.2,0.2 1.19,0.2 1.2,0.19 1.2,0.2 1.2,0.19 1.2,0.19 1.19,0.19 1.2,0.19 1.2,0.19 1.2,0.18 1.19,0.18 1.2,0.16 1.2,0.16 1.2,0.15 1.2,0.14 1.19,0.14 1.2,0.13 1.2,0.12 1.2,0.12 1.2,0.12 1.19,0.12 1.2,0.12 1.2,0.14 1.2,0.15 1.19,0.17 1.2,0.18 1.2,0.2 1.2,0.22 1.2,0.25 1.19,0.26 1.2,0.29 1.2,0.31 1.2,0.33 1.2,0.35 1.19,0.36 1.2,0.38 1.2,0.39 1.2,0.4 1.2,0.4 1.19,0.42 1.2,0.41 1.2,0.42 1.2,0.42 1.19,0.42 1.2,0.41 1.2,0.41 1.2,0.41 1.2,0.39 1.19,0.39 1.2,0.37 1.2,0.35 1.2,0.33 1.2,0.3 1.19,0.27 1.2,0.25 1.2,0.21 1.2,0.17 1.2,0.14 1.19,0.1 1.2,0.06 1.2,0.02 1.2,-0.01 1.19,-0.05 1.2,-0.07 1.2,-0.1 1.2,-0.11 1.2,-0.13 1.19,-0.14 1.2,-0.13 1.2,-0.13 1.2,-0.11 1.2,-0.09 1.19,-0.06 1.2,-0.03 h 1.2 l 1.2,0.05 1.19,0.1 1.2,0.14 1.2,0.19 1.2,0.23 1.2,0.27 1.19,0.31 1.2,0.34 1.2,0.38 1.2,0.41 1.2,0.43 1.19,0.44 1.2,0.46 1.2,0.48 1.2,0.49 1.2,0.5 1.19,0.51 1.2,0.54 1.2,0.56 1.2,0.58 1.19,0.61 1.2,0.64 1.2,0.68 1.2,0.72 1.2,0.76 1.19,0.81 1.2,0.84 1.2,0.88 1.2,0.91 1.2,0.93 1.19,0.96 1.2,0.96 1.2,0.97 1.2,0.97 1.19,0.96 1.2,0.95 1.2,0.94 1.2,0.93 1.2,0.92 1.19,0.91 1.2,0.93 1.2,0.94 1.2,0.98 1.2,1.02 1.19,1.08 1.2,1.16 1.2,1.24 1.2,1.37 1.2,1.5 1.19,1.63 1.2,1.78 1.2,1.95 1.2,2.11 1.19,2.3 1.2,2.5 1.2,2.74 1.2,2.98 1.2,3.24 1.19,3.52 1.2,3.84 1.2,4.19 1.2,4.59 1.2,5.05 1.19,5.65 1.2,6.24 1.2,6.91 1.2,7.64 1.2,8.46 1.19,9.34 1.2,10.29 1.2,11.35 1.2,12.55 1.19,13.65 1.2,14.76 1.2,15.83 1.2,16.87 1.2,17.83 1.19,18.66 1.2,19.39 1.2,19.88 1.2,20.04 1.2,19.94 1.19,19.53 1.2,18.81 1.2,17.74 1.2,16.34 1.19,14.33 1.2,12.01 1.2,9.53 1.2,6.78 1.2,3.84 1.19,0.76 1.2,-2.41 1.2,-5.6 1.2,-9.17 1.2,-12.2 1.19,-14.93 1.2,-17.39 1.2,-19.55 1.2,-21.36 1.2,-22.81 1.19,-23.88 1.2,-24.57 1.2,-24.73 1.2,-24.54 1.19,-24.05 1.2,-23.28 1.2,-22.29 1.2,-21.1 1.2,-19.71 1.19,-18.06 1.2,-16.55 1.2,-15.04 1.2,-13.56 1.2,-12.13 1.19,-10.76 1.2,-9.48 1.2,-8.22 1.2,-7.06 1.19,-6.13 1.2,-5.3 1.2,-4.56 1.2,-3.92 1.2,-3.36 1.19,-2.87 1.2,-2.43 1.2,-2.07 1.2,-1.78 1.2,-1.54 1.19,-1.33 1.2,-1.16 1.2,-1.01 1.2,-0.87 1.2,-0.75 1.19,-0.66 1.2,-0.58 1.2,-0.5 1.2,-0.45 1.19,-0.39 1.2,-0.35 1.2,-0.3 1.2,-0.26 1.2,-0.23 1.19,-0.2 1.2,-0.17 1.2,-0.15 1.2,-0.13 1.2,-0.12 1.19,-0.09 1.2,-0.08 1.2,-0.07 1.2,-0.06 1.19,-0.05 1.2,-0.04 1.2,-0.03 1.2,-0.04 1.2,-0.03 1.19,-0.02 1.2,-0.03 1.2,-0.04 1.2,-0.03 1.2,-0.03 1.19,-0.04 1.2,-0.04 1.2,-0.05 1.2,-0.04 1.2,-0.05 1.19,-0.05 1.2,-0.05 1.2,-0.05 1.2,-0.04 1.19,-0.05 1.2,-0.04 1.2,-0.04 1.2,-0.03 1.2,-0.03 1.19,-0.03 1.2,-0.03 1.2,-0.02 1.2,-0.02 1.2,-0.02 1.19,-0.02 1.2,-0.01 1.2,-0.02 1.2,-0.02 1.2,-0.01 1.19,-0.02 1.2,-0.01 1.2,-0.02 1.2,-0.01 1.19,-0.02 1.2,-0.01 1.2,-0.02 1.2,-0.01 1.2,-0.01 1.19,-0.01 1.2,-0.01 1.2,-0.01 1.2,-0.01 1.2,-0.01 h 1.19 l 1.2,-0.01 h 1.2 1.2 l 1.19,-0.01 h 1.2 1.2 1.2 1.2"
           style="fill:none;stroke:#000000;stroke-width:6.37994;stroke-linecap:butt;stroke-linejoin:round;stroke-miterlimit:10;stroke-dasharray:none;stroke-opacity:1"
           id="path74" /><path
           d="M 40.98,31.91 H 714.31 V 570.52 H 40.98 Z"
           style="fill:none;stroke:#b3b3b3;stroke-width:6.38143;stroke-linecap:round;stroke-linejoin:round;stroke-miterlimit:10;stroke-dasharray:none;stroke-opacity:1"
           id="path76" /></g></g><g
       id="g78" /><g
       id="g80" /><g
       id="g82" /><g
       id="g84" /><g
       id="g86" /><g
       id="g88" /><g
       id="g90" /><g
       id="g92" /><g
       id="g94" /><g
       id="g96" /><g
       id="g98" /><g
       id="g100" /><g
       id="g120" /><g
       id="g122"
       transform="matrix(0.16771315,0,0,0.16771315,31.826649,474.83629)"
       style="stroke-width:5.96256"><path
         d="m 38.24,56.39 h 2.74"
         style="fill:none;stroke:#b3b3b3;stroke-width:3.16016;stroke-linecap:butt;stroke-linejoin:round;stroke-miterlimit:10;stroke-dasharray:none;stroke-opacity:1"
         id="path124" /><path
         d="m 38.24,192.22 h 2.74"
         style="fill:none;stroke:#b3b3b3;stroke-width:3.16016;stroke-linecap:butt;stroke-linejoin:round;stroke-miterlimit:10;stroke-dasharray:none;stroke-opacity:1"
         id="path126" /><path
         d="m 38.24,328.05 h 2.74"
         style="fill:none;stroke:#b3b3b3;stroke-width:3.16016;stroke-linecap:butt;stroke-linejoin:round;stroke-miterlimit:10;stroke-dasharray:none;stroke-opacity:1"
         id="path128" /><path
         d="m 38.24,463.89 h 2.74"
         style="fill:none;stroke:#b3b3b3;stroke-width:3.16016;stroke-linecap:butt;stroke-linejoin:round;stroke-miterlimit:10;stroke-dasharray:none;stroke-opacity:1"
         id="path130" /></g><g
       id="g132" /><g
       id="g134" /><g
       id="g136" /><g
       id="g138" /><g
       id="g140" /><g
       id="g142" /><g
       id="g144" /><g
       id="g146" /><g
       id="g148" /><g
       id="g150"
       transform="matrix(0.16771315,0,0,0.16771315,31.826649,474.83629)"
       style="stroke-width:5.96256"><path
         d="m 68.08,29.17 v 2.74"
         style="fill:none;stroke:#b3b3b3;stroke-width:3.16016;stroke-linecap:butt;stroke-linejoin:round;stroke-miterlimit:10;stroke-dasharray:none;stroke-opacity:1"
         id="path152" /><path
         d="m 224.35,29.17 v 2.74"
         style="fill:none;stroke:#b3b3b3;stroke-width:3.16016;stroke-linecap:butt;stroke-linejoin:round;stroke-miterlimit:10;stroke-dasharray:none;stroke-opacity:1"
         id="path154" /><path
         d="m 380.61,29.17 v 2.74"
         style="fill:none;stroke:#b3b3b3;stroke-width:3.16016;stroke-linecap:butt;stroke-linejoin:round;stroke-miterlimit:10;stroke-dasharray:none;stroke-opacity:1"
         id="path156" /><path
         d="m 536.88,29.17 v 2.74"
         style="fill:none;stroke:#b3b3b3;stroke-width:3.16016;stroke-linecap:butt;stroke-linejoin:round;stroke-miterlimit:10;stroke-dasharray:none;stroke-opacity:1"
         id="path158" /><path
         d="m 693.15,29.17 v 2.74"
         style="fill:none;stroke:#b3b3b3;stroke-width:3.16016;stroke-linecap:butt;stroke-linejoin:round;stroke-miterlimit:10;stroke-dasharray:none;stroke-opacity:1"
         id="path160" /></g><g
       id="g162" /><g
       id="g186" /><g
       id="g188" /><g
       id="g190" /><g
       id="g192" /><g
       id="g194" /><g
       id="g196" /><g
       id="g198" /><g
       id="g200" /><g
       id="g208" /><g
       id="g216" /><g
       id="g218" /><g
       id="g220" /><g
       id="g222" /><g
       id="g224" /><g
       id="g226" /><g
       id="g228" /><g
       id="g234" /><g
       id="g242" /><g
       id="g248" /><g
       id="g254" /><g
       id="g260" /><g
       id="g266" /><g
       id="g274" /><g
       id="g282" /><g
       id="g284" /><g
       id="g286" /><g
       id="g288" /><g
       id="g290" /><g
       id="g292" /><g
       id="g294" /><g
       id="g296" /><g
       id="g298" /><g
       id="g300" /><g
       id="g302" /><g
       id="g304" /><g
       id="g306" /><g
       id="g308" /><g
       id="g310" /><g
       id="g312" /><g
       id="g314" /><g
       id="g316" /><g
       id="g318" /><g
       id="g320" /><text
       xml:space="preserve"
       style="font-size:8.00003px;line-height:1.25;font-family:sans-serif;letter-spacing:0px;word-spacing:0px;stroke-width:0.75"
       x="49.150795"
       y="-464.56995"
       id="text2311"
       transform="scale(1,-1)"><tspan
         sodipodi:role="line"
         id="tspan2309"
         style="stroke-width:0.75"
         x="49.150795"
         y="-464.56995">Weighted mean fitness</tspan></text><text
       xml:space="preserve"
       style="font-size:8.00003px;line-height:1.25;font-family:sans-serif;letter-spacing:0px;word-spacing:0px;stroke-width:0.75"
       x="509.87347"
       y="16.517376"
       id="text2997"
       transform="matrix(0,1,1,0,0,0)"><tspan
         sodipodi:role="line"
         id="tspan2995"
         style="stroke-width:0.75"
         x="509.87347"
         y="16.517376">Density</tspan></text><text
       xml:space="preserve"
       style="font-size:8.00003px;line-height:1.25;font-family:sans-serif;letter-spacing:0px;word-spacing:0px;stroke-width:0.75"
       x="19.692192"
       y="-549.72461"
       id="text5603"
       transform="scale(1,-1)"><tspan
         sodipodi:role="line"
         id="tspan5601"
         style="stroke-width:0.75"
         x="19.692192"
         y="-549.72461">0.75</tspan></text><text
       xml:space="preserve"
       style="font-size:8.00003px;line-height:1.25;font-family:sans-serif;letter-spacing:0px;word-spacing:0px;stroke-width:0.75"
       x="19.692192"
       y="-526.94244"
       id="text6641"
       transform="scale(1,-1)"><tspan
         sodipodi:role="line"
         id="tspan6639"
         style="stroke-width:0.75"
         x="19.692192"
         y="-526.94244">0.50</tspan></text><text
       xml:space="preserve"
       style="font-size:8.00003px;line-height:1.25;font-family:sans-serif;letter-spacing:0px;word-spacing:0px;stroke-width:0.75"
       x="19.692192"
       y="-504.16199"
       id="text7591"
       transform="scale(1,-1)"><tspan
         sodipodi:role="line"
         id="tspan7589"
         style="stroke-width:0.75"
         x="19.692192"
         y="-504.16199">0.25</tspan></text><text
       xml:space="preserve"
       style="font-size:8.00003px;line-height:1.25;font-family:sans-serif;letter-spacing:0px;word-spacing:0px;stroke-width:0.75"
       x="19.692192"
       y="-481.3815"
       id="text8497"
       transform="scale(1,-1)"><tspan
         sodipodi:role="line"
         id="tspan8495"
         style="stroke-width:0.75"
         x="19.692192"
         y="-481.3815">0.00</tspan></text><text
       xml:space="preserve"
       style="font-size:8.00003px;line-height:1.25;font-family:sans-serif;letter-spacing:0px;word-spacing:0px;stroke-width:0.75"
       x="39.342201"
       y="-472.59424"
       id="text10073"
       transform="scale(1,-1)"><tspan
         sodipodi:role="line"
         id="tspan10071"
         style="stroke-width:0.75"
         x="39.342201"
         y="-472.59424">-9</tspan></text><text
       xml:space="preserve"
       style="font-size:8.00003px;line-height:1.25;font-family:sans-serif;letter-spacing:0px;word-spacing:0px;stroke-width:0.75"
       x="65.521439"
       y="-472.59424"
       id="text10779"
       transform="scale(1,-1)"><tspan
         sodipodi:role="line"
         id="tspan10777"
         style="stroke-width:0.75"
         x="65.521439"
         y="-472.59424">-6</tspan></text><text
       xml:space="preserve"
       style="font-size:8.00003px;line-height:1.25;font-family:sans-serif;letter-spacing:0px;word-spacing:0px;stroke-width:0.75"
       x="91.796654"
       y="-472.59424"
       id="text11683"
       transform="scale(1,-1)"><tspan
         sodipodi:role="line"
         id="tspan11681"
         style="stroke-width:0.75"
         x="91.796654"
         y="-472.59424">-3</tspan></text><text
       xml:space="preserve"
       style="font-size:8.00003px;line-height:1.25;font-family:sans-serif;letter-spacing:0px;word-spacing:0px;stroke-width:0.75"
       x="119.32551"
       y="-472.59424"
       id="text11687"
       transform="scale(1,-1)"><tspan
         sodipodi:role="line"
         id="tspan11685"
         style="stroke-width:0.75"
         x="119.32551"
         y="-472.59424">0</tspan></text><text
       xml:space="preserve"
       style="font-size:8.00003px;line-height:1.25;font-family:sans-serif;letter-spacing:0px;word-spacing:0px;stroke-width:0.75"
       x="145.54771"
       y="-472.59424"
       id="text12357"
       transform="scale(1,-1)"><tspan
         sodipodi:role="line"
         id="tspan12355"
         style="stroke-width:0.75"
         x="145.54771"
         y="-472.59424">3</tspan></text><g
       id="g26798"
       transform="translate(-2.121386,0.0266914)"><rect
         style="fill:#ffffff;fill-opacity:1;stroke:#b3b3b3;stroke-width:0.45;stroke-miterlimit:4;stroke-dasharray:none;stroke-dashoffset:0;stroke-opacity:1;stop-color:#000000"
         id="rect17687"
         width="52.6917"
         height="21.908428"
         x="44.327785"
         y="-566.97321"
         transform="scale(1,-1)"
         rx="0"
         ry="0" /><g
         id="g26786"
         transform="translate(0.90722982,-0.17501662)"><text
           xml:space="preserve"
           style="font-size:8.00003px;line-height:1.25;font-family:sans-serif;letter-spacing:0px;word-spacing:0px;stroke-width:0.75"
           x="56.675636"
           y="-557.99756"
           id="text13219"
           transform="scale(1,-1)"><tspan
             sodipodi:role="line"
             id="tspan13217"
             style="stroke-width:0.75"
             x="56.675636"
             y="-557.99756">30% CO2</tspan></text><text
           xml:space="preserve"
           style="font-size:8.00003px;line-height:1.25;font-family:sans-serif;letter-spacing:0px;word-spacing:0px;stroke-width:0.75"
           x="56.675636"
           y="-548.56622"
           id="text14213"
           transform="scale(1,-1)"><tspan
             sodipodi:role="line"
             id="tspan14211"
             style="stroke-width:0.75"
             x="56.675636"
             y="-548.56622">4% CO2</tspan></text><g
           id="g250"
           transform="matrix(0.4589438,0,0,0.43072843,-288.78584,430.84692)"
           style="stroke-width:2.24915"><path
             d="m 731.46,294.03 h 15.86 v 15.86 h -15.86 z"
             style="fill:#c57ba5;fill-opacity:0.4;fill-rule:nonzero;stroke:#000000;stroke-width:2.40659;stroke-linecap:butt;stroke-linejoin:miter;stroke-miterlimit:10;stroke-dasharray:none;stroke-opacity:1"
             id="path252" /></g><g
           id="g262"
           transform="matrix(0.4589438,0,0,0.43072843,-288.78584,428.85857)"
           style="stroke-width:2.24915"><path
             d="m 731.46,276.75 h 15.86 v 15.86 h -15.86 z"
             style="fill:#005a96;fill-opacity:0.4;fill-rule:nonzero;stroke:#000000;stroke-width:2.40659;stroke-linecap:butt;stroke-linejoin:miter;stroke-miterlimit:10;stroke-dasharray:none;stroke-opacity:1"
             id="path264" /></g></g></g></g></svg>
