<?xml version="1.0" encoding="utf-8" standalone="no"?>
<!DOCTYPE svg PUBLIC "-//W3C//DTD SVG 1.1//EN"
  "http://www.w3.org/Graphics/SVG/1.1/DTD/svg11.dtd">
<svg xmlns:xlink="http://www.w3.org/1999/xlink" width="1000.318125pt" height="388.844525pt" viewBox="0 0 1000.318125 388.844525" xmlns="http://www.w3.org/2000/svg" version="1.1">
 <metadata>
  <rdf:RDF xmlns:dc="http://purl.org/dc/elements/1.1/" xmlns:cc="http://creativecommons.org/ns#" xmlns:rdf="http://www.w3.org/1999/02/22-rdf-syntax-ns#">
   <cc:Work>
    <dc:type rdf:resource="http://purl.org/dc/dcmitype/StillImage"/>
    <dc:date>2024-01-23T08:03:17.308028</dc:date>
    <dc:format>image/svg+xml</dc:format>
    <dc:creator>
     <cc:Agent>
      <dc:title>Matplotlib v3.6.2, https://matplotlib.org/</dc:title>
     </cc:Agent>
    </dc:creator>
   </cc:Work>
  </rdf:RDF>
 </metadata>
 <defs>
  <style type="text/css">*{stroke-linejoin: round; stroke-linecap: butt}</style>
 </defs>
 <g id="figure_1">
  <g id="axes_1">
   <g id="patch_1">
    <path d="M 38.058125 353.2239 
L 993.118125 353.2239 
L 993.118125 35.2559 
L 38.058125 35.2559 
z
" style="fill: #ffffff"/>
   </g>
   <g id="patch_2">
    <path d="M 38.058125 94.080967 
L 958.476371 94.080967 
L 958.476371 -572.286573 
L 38.058125 -572.286573 
z
" clip-path="url(#p63e38d13b0)" style="fill: #c3e6c3"/>
   </g>
   <g id="patch_3">
    <path d="M 38.058125 168.121805 
L 958.476371 168.121805 
L 958.476371 94.080967 
L 38.058125 94.080967 
z
" clip-path="url(#p63e38d13b0)" style="fill: #e6dcc3"/>
   </g>
   <g id="patch_4">
    <path d="M 38.058125 353.2239 
L 958.476371 353.2239 
L 958.476371 168.121805 
L 38.058125 168.121805 
z
" clip-path="url(#p63e38d13b0)" style="fill: #e6c3c3"/>
   </g>
   <g id="matplotlib.axis_1">
    <g id="xtick_1">
     <g id="text_1">
      <!-- 0 -->
      <g transform="translate(70.154879 366.30265) scale(0.08 -0.08)">
       <defs>
        <path id="DejaVuSans-30" d="M 2034 4250 
Q 1547 4250 1301 3770 
Q 1056 3291 1056 2328 
Q 1056 1369 1301 889 
Q 1547 409 2034 409 
Q 2525 409 2770 889 
Q 3016 1369 3016 2328 
Q 3016 3291 2770 3770 
Q 2525 4250 2034 4250 
z
M 2034 4750 
Q 2819 4750 3233 4129 
Q 3647 3509 3647 2328 
Q 3647 1150 3233 529 
Q 2819 -91 2034 -91 
Q 1250 -91 836 529 
Q 422 1150 422 2328 
Q 422 3509 836 4129 
Q 1250 4750 2034 4750 
z
" transform="scale(0.015625)"/>
       </defs>
       <use xlink:href="#DejaVuSans-30"/>
      </g>
     </g>
    </g>
    <g id="xtick_2">
     <g id="text_2">
      <!-- 20 -->
      <g transform="translate(243.011164 366.30265) scale(0.08 -0.08)">
       <defs>
        <path id="DejaVuSans-32" d="M 1228 531 
L 3431 531 
L 3431 0 
L 469 0 
L 469 531 
Q 828 903 1448 1529 
Q 2069 2156 2228 2338 
Q 2531 2678 2651 2914 
Q 2772 3150 2772 3378 
Q 2772 3750 2511 3984 
Q 2250 4219 1831 4219 
Q 1534 4219 1204 4116 
Q 875 4013 500 3803 
L 500 4441 
Q 881 4594 1212 4672 
Q 1544 4750 1819 4750 
Q 2544 4750 2975 4387 
Q 3406 4025 3406 3419 
Q 3406 3131 3298 2873 
Q 3191 2616 2906 2266 
Q 2828 2175 2409 1742 
Q 1991 1309 1228 531 
z
" transform="scale(0.015625)"/>
       </defs>
       <use xlink:href="#DejaVuSans-32"/>
       <use xlink:href="#DejaVuSans-30" x="63.623047"/>
      </g>
     </g>
    </g>
    <g id="xtick_3">
     <g id="text_3">
      <!-- 40 -->
      <g transform="translate(418.41245 366.30265) scale(0.08 -0.08)">
       <defs>
        <path id="DejaVuSans-34" d="M 2419 4116 
L 825 1625 
L 2419 1625 
L 2419 4116 
z
M 2253 4666 
L 3047 4666 
L 3047 1625 
L 3713 1625 
L 3713 1100 
L 3047 1100 
L 3047 0 
L 2419 0 
L 2419 1100 
L 313 1100 
L 313 1709 
L 2253 4666 
z
" transform="scale(0.015625)"/>
       </defs>
       <use xlink:href="#DejaVuSans-34"/>
       <use xlink:href="#DejaVuSans-30" x="63.623047"/>
      </g>
     </g>
    </g>
    <g id="xtick_4">
     <g id="text_4">
      <!-- 60 -->
      <g transform="translate(593.813736 366.30265) scale(0.08 -0.08)">
       <defs>
        <path id="DejaVuSans-36" d="M 2113 2584 
Q 1688 2584 1439 2293 
Q 1191 2003 1191 1497 
Q 1191 994 1439 701 
Q 1688 409 2113 409 
Q 2538 409 2786 701 
Q 3034 994 3034 1497 
Q 3034 2003 2786 2293 
Q 2538 2584 2113 2584 
z
M 3366 4563 
L 3366 3988 
Q 3128 4100 2886 4159 
Q 2644 4219 2406 4219 
Q 1781 4219 1451 3797 
Q 1122 3375 1075 2522 
Q 1259 2794 1537 2939 
Q 1816 3084 2150 3084 
Q 2853 3084 3261 2657 
Q 3669 2231 3669 1497 
Q 3669 778 3244 343 
Q 2819 -91 2113 -91 
Q 1303 -91 875 529 
Q 447 1150 447 2328 
Q 447 3434 972 4092 
Q 1497 4750 2381 4750 
Q 2619 4750 2861 4703 
Q 3103 4656 3366 4563 
z
" transform="scale(0.015625)"/>
       </defs>
       <use xlink:href="#DejaVuSans-36"/>
       <use xlink:href="#DejaVuSans-30" x="63.623047"/>
      </g>
     </g>
    </g>
    <g id="xtick_5">
     <g id="text_5">
      <!-- 80 -->
      <g transform="translate(769.215021 366.30265) scale(0.08 -0.08)">
       <defs>
        <path id="DejaVuSans-38" d="M 2034 2216 
Q 1584 2216 1326 1975 
Q 1069 1734 1069 1313 
Q 1069 891 1326 650 
Q 1584 409 2034 409 
Q 2484 409 2743 651 
Q 3003 894 3003 1313 
Q 3003 1734 2745 1975 
Q 2488 2216 2034 2216 
z
M 1403 2484 
Q 997 2584 770 2862 
Q 544 3141 544 3541 
Q 544 4100 942 4425 
Q 1341 4750 2034 4750 
Q 2731 4750 3128 4425 
Q 3525 4100 3525 3541 
Q 3525 3141 3298 2862 
Q 3072 2584 2669 2484 
Q 3125 2378 3379 2068 
Q 3634 1759 3634 1313 
Q 3634 634 3220 271 
Q 2806 -91 2034 -91 
Q 1263 -91 848 271 
Q 434 634 434 1313 
Q 434 1759 690 2068 
Q 947 2378 1403 2484 
z
M 1172 3481 
Q 1172 3119 1398 2916 
Q 1625 2713 2034 2713 
Q 2441 2713 2670 2916 
Q 2900 3119 2900 3481 
Q 2900 3844 2670 4047 
Q 2441 4250 2034 4250 
Q 1625 4250 1398 4047 
Q 1172 3844 1172 3481 
z
" transform="scale(0.015625)"/>
       </defs>
       <use xlink:href="#DejaVuSans-38"/>
       <use xlink:href="#DejaVuSans-30" x="63.623047"/>
      </g>
     </g>
    </g>
    <g id="xtick_6">
     <g id="text_6">
      <!-- 100 -->
      <g transform="translate(942.071307 366.30265) scale(0.08 -0.08)">
       <defs>
        <path id="DejaVuSans-31" d="M 794 531 
L 1825 531 
L 1825 4091 
L 703 3866 
L 703 4441 
L 1819 4666 
L 2450 4666 
L 2450 531 
L 3481 531 
L 3481 0 
L 794 0 
L 794 531 
z
" transform="scale(0.015625)"/>
       </defs>
       <use xlink:href="#DejaVuSans-31"/>
       <use xlink:href="#DejaVuSans-30" x="63.623047"/>
       <use xlink:href="#DejaVuSans-30" x="127.246094"/>
      </g>
     </g>
    </g>
    <g id="text_7">
     <!-- Position (bp) -->
     <g transform="translate(484.285 379.564837) scale(0.1 -0.1)">
      <defs>
       <path id="DejaVuSans-50" d="M 1259 4147 
L 1259 2394 
L 2053 2394 
Q 2494 2394 2734 2622 
Q 2975 2850 2975 3272 
Q 2975 3691 2734 3919 
Q 2494 4147 2053 4147 
L 1259 4147 
z
M 628 4666 
L 2053 4666 
Q 2838 4666 3239 4311 
Q 3641 3956 3641 3272 
Q 3641 2581 3239 2228 
Q 2838 1875 2053 1875 
L 1259 1875 
L 1259 0 
L 628 0 
L 628 4666 
z
" transform="scale(0.015625)"/>
       <path id="DejaVuSans-6f" d="M 1959 3097 
Q 1497 3097 1228 2736 
Q 959 2375 959 1747 
Q 959 1119 1226 758 
Q 1494 397 1959 397 
Q 2419 397 2687 759 
Q 2956 1122 2956 1747 
Q 2956 2369 2687 2733 
Q 2419 3097 1959 3097 
z
M 1959 3584 
Q 2709 3584 3137 3096 
Q 3566 2609 3566 1747 
Q 3566 888 3137 398 
Q 2709 -91 1959 -91 
Q 1206 -91 779 398 
Q 353 888 353 1747 
Q 353 2609 779 3096 
Q 1206 3584 1959 3584 
z
" transform="scale(0.015625)"/>
       <path id="DejaVuSans-73" d="M 2834 3397 
L 2834 2853 
Q 2591 2978 2328 3040 
Q 2066 3103 1784 3103 
Q 1356 3103 1142 2972 
Q 928 2841 928 2578 
Q 928 2378 1081 2264 
Q 1234 2150 1697 2047 
L 1894 2003 
Q 2506 1872 2764 1633 
Q 3022 1394 3022 966 
Q 3022 478 2636 193 
Q 2250 -91 1575 -91 
Q 1294 -91 989 -36 
Q 684 19 347 128 
L 347 722 
Q 666 556 975 473 
Q 1284 391 1588 391 
Q 1994 391 2212 530 
Q 2431 669 2431 922 
Q 2431 1156 2273 1281 
Q 2116 1406 1581 1522 
L 1381 1569 
Q 847 1681 609 1914 
Q 372 2147 372 2553 
Q 372 3047 722 3315 
Q 1072 3584 1716 3584 
Q 2034 3584 2315 3537 
Q 2597 3491 2834 3397 
z
" transform="scale(0.015625)"/>
       <path id="DejaVuSans-69" d="M 603 3500 
L 1178 3500 
L 1178 0 
L 603 0 
L 603 3500 
z
M 603 4863 
L 1178 4863 
L 1178 4134 
L 603 4134 
L 603 4863 
z
" transform="scale(0.015625)"/>
       <path id="DejaVuSans-74" d="M 1172 4494 
L 1172 3500 
L 2356 3500 
L 2356 3053 
L 1172 3053 
L 1172 1153 
Q 1172 725 1289 603 
Q 1406 481 1766 481 
L 2356 481 
L 2356 0 
L 1766 0 
Q 1100 0 847 248 
Q 594 497 594 1153 
L 594 3053 
L 172 3053 
L 172 3500 
L 594 3500 
L 594 4494 
L 1172 4494 
z
" transform="scale(0.015625)"/>
       <path id="DejaVuSans-6e" d="M 3513 2113 
L 3513 0 
L 2938 0 
L 2938 2094 
Q 2938 2591 2744 2837 
Q 2550 3084 2163 3084 
Q 1697 3084 1428 2787 
Q 1159 2491 1159 1978 
L 1159 0 
L 581 0 
L 581 3500 
L 1159 3500 
L 1159 2956 
Q 1366 3272 1645 3428 
Q 1925 3584 2291 3584 
Q 2894 3584 3203 3211 
Q 3513 2838 3513 2113 
z
" transform="scale(0.015625)"/>
       <path id="DejaVuSans-20" transform="scale(0.015625)"/>
       <path id="DejaVuSans-28" d="M 1984 4856 
Q 1566 4138 1362 3434 
Q 1159 2731 1159 2009 
Q 1159 1288 1364 580 
Q 1569 -128 1984 -844 
L 1484 -844 
Q 1016 -109 783 600 
Q 550 1309 550 2009 
Q 550 2706 781 3412 
Q 1013 4119 1484 4856 
L 1984 4856 
z
" transform="scale(0.015625)"/>
       <path id="DejaVuSans-62" d="M 3116 1747 
Q 3116 2381 2855 2742 
Q 2594 3103 2138 3103 
Q 1681 3103 1420 2742 
Q 1159 2381 1159 1747 
Q 1159 1113 1420 752 
Q 1681 391 2138 391 
Q 2594 391 2855 752 
Q 3116 1113 3116 1747 
z
M 1159 2969 
Q 1341 3281 1617 3432 
Q 1894 3584 2278 3584 
Q 2916 3584 3314 3078 
Q 3713 2572 3713 1747 
Q 3713 922 3314 415 
Q 2916 -91 2278 -91 
Q 1894 -91 1617 61 
Q 1341 213 1159 525 
L 1159 0 
L 581 0 
L 581 4863 
L 1159 4863 
L 1159 2969 
z
" transform="scale(0.015625)"/>
       <path id="DejaVuSans-70" d="M 1159 525 
L 1159 -1331 
L 581 -1331 
L 581 3500 
L 1159 3500 
L 1159 2969 
Q 1341 3281 1617 3432 
Q 1894 3584 2278 3584 
Q 2916 3584 3314 3078 
Q 3713 2572 3713 1747 
Q 3713 922 3314 415 
Q 2916 -91 2278 -91 
Q 1894 -91 1617 61 
Q 1341 213 1159 525 
z
M 3116 1747 
Q 3116 2381 2855 2742 
Q 2594 3103 2138 3103 
Q 1681 3103 1420 2742 
Q 1159 2381 1159 1747 
Q 1159 1113 1420 752 
Q 1681 391 2138 391 
Q 2594 391 2855 752 
Q 3116 1113 3116 1747 
z
" transform="scale(0.015625)"/>
       <path id="DejaVuSans-29" d="M 513 4856 
L 1013 4856 
Q 1481 4119 1714 3412 
Q 1947 2706 1947 2009 
Q 1947 1309 1714 600 
Q 1481 -109 1013 -844 
L 513 -844 
Q 928 -128 1133 580 
Q 1338 1288 1338 2009 
Q 1338 2731 1133 3434 
Q 928 4138 513 4856 
z
" transform="scale(0.015625)"/>
      </defs>
      <use xlink:href="#DejaVuSans-50"/>
      <use xlink:href="#DejaVuSans-6f" x="56.677734"/>
      <use xlink:href="#DejaVuSans-73" x="117.859375"/>
      <use xlink:href="#DejaVuSans-69" x="169.958984"/>
      <use xlink:href="#DejaVuSans-74" x="197.742188"/>
      <use xlink:href="#DejaVuSans-69" x="236.951172"/>
      <use xlink:href="#DejaVuSans-6f" x="264.734375"/>
      <use xlink:href="#DejaVuSans-6e" x="325.916016"/>
      <use xlink:href="#DejaVuSans-20" x="389.294922"/>
      <use xlink:href="#DejaVuSans-28" x="421.082031"/>
      <use xlink:href="#DejaVuSans-62" x="460.095703"/>
      <use xlink:href="#DejaVuSans-70" x="523.572266"/>
      <use xlink:href="#DejaVuSans-29" x="587.048828"/>
     </g>
    </g>
   </g>
   <g id="matplotlib.axis_2">
    <g id="ytick_1">
     <g id="line2d_1">
      <path d="M 38.058125 353.2239 
L 993.118125 353.2239 
" clip-path="url(#p63e38d13b0)" style="fill: none; stroke: #dedede; stroke-linecap: square"/>
     </g>
     <g id="text_8">
      <!-- 0 -->
      <g transform="translate(25.968125 356.263275) scale(0.08 -0.08)">
       <use xlink:href="#DejaVuSans-30"/>
      </g>
     </g>
    </g>
    <g id="ytick_2">
     <g id="line2d_2">
      <path d="M 38.058125 306.948376 
L 993.118125 306.948376 
" clip-path="url(#p63e38d13b0)" style="fill: none; stroke: #dedede; stroke-linecap: square"/>
     </g>
     <g id="text_9">
      <!-- 5 -->
      <g transform="translate(25.968125 309.987751) scale(0.08 -0.08)">
       <defs>
        <path id="DejaVuSans-35" d="M 691 4666 
L 3169 4666 
L 3169 4134 
L 1269 4134 
L 1269 2991 
Q 1406 3038 1543 3061 
Q 1681 3084 1819 3084 
Q 2600 3084 3056 2656 
Q 3513 2228 3513 1497 
Q 3513 744 3044 326 
Q 2575 -91 1722 -91 
Q 1428 -91 1123 -41 
Q 819 9 494 109 
L 494 744 
Q 775 591 1075 516 
Q 1375 441 1709 441 
Q 2250 441 2565 725 
Q 2881 1009 2881 1497 
Q 2881 1984 2565 2268 
Q 2250 2553 1709 2553 
Q 1456 2553 1204 2497 
Q 953 2441 691 2322 
L 691 4666 
z
" transform="scale(0.015625)"/>
       </defs>
       <use xlink:href="#DejaVuSans-35"/>
      </g>
     </g>
    </g>
    <g id="ytick_3">
     <g id="line2d_3">
      <path d="M 38.058125 260.672853 
L 993.118125 260.672853 
" clip-path="url(#p63e38d13b0)" style="fill: none; stroke: #dedede; stroke-linecap: square"/>
     </g>
     <g id="text_10">
      <!-- 10 -->
      <g transform="translate(20.878125 263.712228) scale(0.08 -0.08)">
       <use xlink:href="#DejaVuSans-31"/>
       <use xlink:href="#DejaVuSans-30" x="63.623047"/>
      </g>
     </g>
    </g>
    <g id="ytick_4">
     <g id="line2d_4">
      <path d="M 38.058125 214.397329 
L 993.118125 214.397329 
" clip-path="url(#p63e38d13b0)" style="fill: none; stroke: #dedede; stroke-linecap: square"/>
     </g>
     <g id="text_11">
      <!-- 15 -->
      <g transform="translate(20.878125 217.436704) scale(0.08 -0.08)">
       <use xlink:href="#DejaVuSans-31"/>
       <use xlink:href="#DejaVuSans-35" x="63.623047"/>
      </g>
     </g>
    </g>
    <g id="ytick_5">
     <g id="line2d_5">
      <path d="M 38.058125 168.121805 
L 993.118125 168.121805 
" clip-path="url(#p63e38d13b0)" style="fill: none; stroke: #dedede; stroke-linecap: square"/>
     </g>
     <g id="text_12">
      <!-- 20 -->
      <g transform="translate(20.878125 171.16118) scale(0.08 -0.08)">
       <use xlink:href="#DejaVuSans-32"/>
       <use xlink:href="#DejaVuSans-30" x="63.623047"/>
      </g>
     </g>
    </g>
    <g id="ytick_6">
     <g id="line2d_6">
      <path d="M 38.058125 121.846282 
L 993.118125 121.846282 
" clip-path="url(#p63e38d13b0)" style="fill: none; stroke: #dedede; stroke-linecap: square"/>
     </g>
     <g id="text_13">
      <!-- 25 -->
      <g transform="translate(20.878125 124.885657) scale(0.08 -0.08)">
       <use xlink:href="#DejaVuSans-32"/>
       <use xlink:href="#DejaVuSans-35" x="63.623047"/>
      </g>
     </g>
    </g>
    <g id="ytick_7">
     <g id="line2d_7">
      <path d="M 38.058125 75.570758 
L 993.118125 75.570758 
" clip-path="url(#p63e38d13b0)" style="fill: none; stroke: #dedede; stroke-linecap: square"/>
     </g>
     <g id="text_14">
      <!-- 30 -->
      <g transform="translate(20.878125 78.610133) scale(0.08 -0.08)">
       <defs>
        <path id="DejaVuSans-33" d="M 2597 2516 
Q 3050 2419 3304 2112 
Q 3559 1806 3559 1356 
Q 3559 666 3084 287 
Q 2609 -91 1734 -91 
Q 1441 -91 1130 -33 
Q 819 25 488 141 
L 488 750 
Q 750 597 1062 519 
Q 1375 441 1716 441 
Q 2309 441 2620 675 
Q 2931 909 2931 1356 
Q 2931 1769 2642 2001 
Q 2353 2234 1838 2234 
L 1294 2234 
L 1294 2753 
L 1863 2753 
Q 2328 2753 2575 2939 
Q 2822 3125 2822 3475 
Q 2822 3834 2567 4026 
Q 2313 4219 1838 4219 
Q 1578 4219 1281 4162 
Q 984 4106 628 3988 
L 628 4550 
Q 988 4650 1302 4700 
Q 1616 4750 1894 4750 
Q 2613 4750 3031 4423 
Q 3450 4097 3450 3541 
Q 3450 3153 3228 2886 
Q 3006 2619 2597 2516 
z
" transform="scale(0.015625)"/>
       </defs>
       <use xlink:href="#DejaVuSans-33"/>
       <use xlink:href="#DejaVuSans-30" x="63.623047"/>
      </g>
     </g>
    </g>
    <g id="text_15">
     <!-- Phred Score -->
     <g transform="translate(14.798438 224.20865) rotate(-90) scale(0.1 -0.1)">
      <defs>
       <path id="DejaVuSans-68" d="M 3513 2113 
L 3513 0 
L 2938 0 
L 2938 2094 
Q 2938 2591 2744 2837 
Q 2550 3084 2163 3084 
Q 1697 3084 1428 2787 
Q 1159 2491 1159 1978 
L 1159 0 
L 581 0 
L 581 4863 
L 1159 4863 
L 1159 2956 
Q 1366 3272 1645 3428 
Q 1925 3584 2291 3584 
Q 2894 3584 3203 3211 
Q 3513 2838 3513 2113 
z
" transform="scale(0.015625)"/>
       <path id="DejaVuSans-72" d="M 2631 2963 
Q 2534 3019 2420 3045 
Q 2306 3072 2169 3072 
Q 1681 3072 1420 2755 
Q 1159 2438 1159 1844 
L 1159 0 
L 581 0 
L 581 3500 
L 1159 3500 
L 1159 2956 
Q 1341 3275 1631 3429 
Q 1922 3584 2338 3584 
Q 2397 3584 2469 3576 
Q 2541 3569 2628 3553 
L 2631 2963 
z
" transform="scale(0.015625)"/>
       <path id="DejaVuSans-65" d="M 3597 1894 
L 3597 1613 
L 953 1613 
Q 991 1019 1311 708 
Q 1631 397 2203 397 
Q 2534 397 2845 478 
Q 3156 559 3463 722 
L 3463 178 
Q 3153 47 2828 -22 
Q 2503 -91 2169 -91 
Q 1331 -91 842 396 
Q 353 884 353 1716 
Q 353 2575 817 3079 
Q 1281 3584 2069 3584 
Q 2775 3584 3186 3129 
Q 3597 2675 3597 1894 
z
M 3022 2063 
Q 3016 2534 2758 2815 
Q 2500 3097 2075 3097 
Q 1594 3097 1305 2825 
Q 1016 2553 972 2059 
L 3022 2063 
z
" transform="scale(0.015625)"/>
       <path id="DejaVuSans-64" d="M 2906 2969 
L 2906 4863 
L 3481 4863 
L 3481 0 
L 2906 0 
L 2906 525 
Q 2725 213 2448 61 
Q 2172 -91 1784 -91 
Q 1150 -91 751 415 
Q 353 922 353 1747 
Q 353 2572 751 3078 
Q 1150 3584 1784 3584 
Q 2172 3584 2448 3432 
Q 2725 3281 2906 2969 
z
M 947 1747 
Q 947 1113 1208 752 
Q 1469 391 1925 391 
Q 2381 391 2643 752 
Q 2906 1113 2906 1747 
Q 2906 2381 2643 2742 
Q 2381 3103 1925 3103 
Q 1469 3103 1208 2742 
Q 947 2381 947 1747 
z
" transform="scale(0.015625)"/>
       <path id="DejaVuSans-53" d="M 3425 4513 
L 3425 3897 
Q 3066 4069 2747 4153 
Q 2428 4238 2131 4238 
Q 1616 4238 1336 4038 
Q 1056 3838 1056 3469 
Q 1056 3159 1242 3001 
Q 1428 2844 1947 2747 
L 2328 2669 
Q 3034 2534 3370 2195 
Q 3706 1856 3706 1288 
Q 3706 609 3251 259 
Q 2797 -91 1919 -91 
Q 1588 -91 1214 -16 
Q 841 59 441 206 
L 441 856 
Q 825 641 1194 531 
Q 1563 422 1919 422 
Q 2459 422 2753 634 
Q 3047 847 3047 1241 
Q 3047 1584 2836 1778 
Q 2625 1972 2144 2069 
L 1759 2144 
Q 1053 2284 737 2584 
Q 422 2884 422 3419 
Q 422 4038 858 4394 
Q 1294 4750 2059 4750 
Q 2388 4750 2728 4690 
Q 3069 4631 3425 4513 
z
" transform="scale(0.015625)"/>
       <path id="DejaVuSans-63" d="M 3122 3366 
L 3122 2828 
Q 2878 2963 2633 3030 
Q 2388 3097 2138 3097 
Q 1578 3097 1268 2742 
Q 959 2388 959 1747 
Q 959 1106 1268 751 
Q 1578 397 2138 397 
Q 2388 397 2633 464 
Q 2878 531 3122 666 
L 3122 134 
Q 2881 22 2623 -34 
Q 2366 -91 2075 -91 
Q 1284 -91 818 406 
Q 353 903 353 1747 
Q 353 2603 823 3093 
Q 1294 3584 2113 3584 
Q 2378 3584 2631 3529 
Q 2884 3475 3122 3366 
z
" transform="scale(0.015625)"/>
      </defs>
      <use xlink:href="#DejaVuSans-50"/>
      <use xlink:href="#DejaVuSans-68" x="60.302734"/>
      <use xlink:href="#DejaVuSans-72" x="123.681641"/>
      <use xlink:href="#DejaVuSans-65" x="162.544922"/>
      <use xlink:href="#DejaVuSans-64" x="224.068359"/>
      <use xlink:href="#DejaVuSans-20" x="287.544922"/>
      <use xlink:href="#DejaVuSans-53" x="319.332031"/>
      <use xlink:href="#DejaVuSans-63" x="382.808594"/>
      <use xlink:href="#DejaVuSans-6f" x="437.789062"/>
      <use xlink:href="#DejaVuSans-72" x="498.970703"/>
      <use xlink:href="#DejaVuSans-65" x="537.833984"/>
     </g>
    </g>
   </g>
   <g id="line2d_8">
    <path d="M 81.469943 52.604806 
L 90.240007 55.375226 
L 99.010072 52.595579 
L 107.780136 55.288189 
L 116.5502 52.479738 
L 125.320265 54.107748 
L 134.090329 53.045362 
L 142.860393 52.89391 
L 151.630457 52.655085 
L 160.400522 52.506486 
L 169.170586 52.566858 
L 177.94065 52.353995 
L 186.710715 52.315271 
L 195.480779 52.072638 
L 204.250843 52.180976 
L 213.020907 52.218478 
L 221.790972 54.443343 
L 230.561036 53.759213 
L 239.3311 52.633569 
L 248.101164 54.280672 
L 256.871229 56.708825 
L 265.641293 55.189607 
L 274.411357 71.064745 
L 283.181422 72.719187 
L 291.951486 62.10486 
L 300.72155 60.485882 
L 309.491614 47.852703 
L 318.261679 54.531405 
L 327.031743 56.456686 
L 335.801807 62.296866 
L 344.571872 57.157237 
L 353.341936 56.911929 
L 362.112 56.475397 
L 370.882064 56.441566 
L 379.652129 56.437063 
L 388.422193 56.589891 
L 397.192257 56.189766 
L 405.962322 55.830656 
L 414.732386 55.482632 
L 423.50245 55.77663 
L 432.272514 55.237806 
L 441.042579 54.634174 
L 449.812643 54.289752 
L 458.582707 54.363795 
L 467.352771 52.23712 
L 476.122836 50.522601 
L 484.8929 54.735829 
L 493.662964 53.611062 
L 502.433029 59.236035 
L 511.203093 52.68616 
L 519.973157 42.298979 
" clip-path="url(#p63e38d13b0)" style="fill: none; stroke: #5cb85c; stroke-linecap: square"/>
   </g>
   <g id="line2d_9">
    <path d="M 81.469943 53.54382 
L 90.240007 56.236457 
L 99.010072 53.403828 
L 107.780136 56.105945 
L 116.5502 53.317243 
L 125.320265 54.95581 
L 134.090329 53.849645 
L 142.860393 53.740339 
L 151.630457 53.4929 
L 160.400522 53.345291 
L 169.170586 53.38993 
L 177.94065 53.196023 
L 186.710715 53.132518 
L 195.480779 52.90431 
L 204.250843 53.006535 
L 213.020907 53.053694 
L 221.790972 55.302089 
L 230.561036 54.604466 
L 239.3311 53.550962 
L 248.101164 55.349373 
L 256.871229 57.900622 
L 265.641293 56.444397 
L 274.411357 72.482833 
L 283.181422 73.993157 
L 291.951486 63.856591 
L 300.72155 62.031981 
L 309.491614 48.425234 
L 318.261679 55.338407 
L 327.031743 57.789163 
L 335.801807 63.406593 
L 344.571872 58.508987 
L 353.341936 58.304024 
L 362.112 57.598663 
L 370.882064 57.919401 
L 379.652129 57.790734 
L 388.422193 57.575691 
L 397.192257 57.309807 
L 405.962322 56.929341 
L 414.732386 56.535888 
L 423.50245 56.900059 
L 432.272514 56.358241 
L 441.042579 55.649609 
L 449.812643 55.485491 
L 458.582707 55.341108 
L 467.352771 53.00974 
L 476.122836 51.410932 
L 484.8929 55.476966 
L 493.662964 54.404089 
L 502.433029 59.604451 
L 511.203093 53.241292 
L 519.973157 42.408537 
" clip-path="url(#p63e38d13b0)" style="fill: none; stroke: #5cb85c; stroke-linecap: square"/>
   </g>
   <g id="line2d_10">
    <path d="M 81.469943 53.390921 
L 90.240007 56.056972 
L 99.010072 53.228044 
L 107.780136 55.924865 
L 116.5502 53.131576 
L 125.320265 54.778519 
L 134.090329 53.679223 
L 142.860393 53.575864 
L 151.630457 53.322142 
L 160.400522 53.176539 
L 169.170586 53.246968 
L 177.94065 53.066166 
L 186.710715 53.036208 
L 195.480779 52.786201 
L 204.250843 52.881881 
L 213.020907 52.952639 
L 221.790972 55.163576 
L 230.561036 54.502176 
L 239.3311 53.473861 
L 248.101164 55.214684 
L 256.871229 57.706538 
L 265.641293 56.37997 
L 274.411357 72.291497 
L 283.181422 73.790969 
L 291.951486 63.737663 
L 300.72155 61.872255 
L 309.491614 48.434748 
L 318.261679 55.266504 
L 327.031743 57.525417 
L 335.801807 63.198098 
L 344.571872 58.248617 
L 353.341936 57.883113 
L 362.112 57.645936 
L 370.882064 57.546602 
L 379.652129 57.300524 
L 388.422193 57.64733 
L 397.192257 57.171209 
L 405.962322 56.957192 
L 414.732386 56.826395 
L 423.50245 56.814745 
L 432.272514 56.315023 
L 441.042579 55.725849 
L 449.812643 55.453427 
L 458.582707 55.258987 
L 467.352771 52.988632 
L 476.122836 51.361454 
L 484.8929 55.599063 
L 493.662964 54.420395 
L 502.433029 59.919256 
L 511.203093 53.307665 
L 519.973157 42.575665 
" clip-path="url(#p63e38d13b0)" style="fill: none; stroke: #5cb85c; stroke-linecap: square"/>
   </g>
   <g id="line2d_11">
    <path d="M 81.469943 53.46305 
L 90.240007 56.102691 
L 99.010072 53.284022 
L 107.780136 56.040663 
L 116.5502 53.203197 
L 125.320265 54.826857 
L 134.090329 53.740493 
L 142.860393 53.606549 
L 151.630457 53.422913 
L 160.400522 53.232626 
L 169.170586 53.274015 
L 177.94065 53.098455 
L 186.710715 53.128502 
L 195.480779 52.937625 
L 204.250843 52.936104 
L 213.020907 52.957377 
L 221.790972 55.257978 
L 230.561036 54.537643 
L 239.3311 53.405115 
L 248.101164 55.200271 
L 256.871229 57.729184 
L 265.641293 55.94782 
L 274.411357 70.529494 
L 283.181422 71.931262 
L 291.951486 62.493351 
L 300.72155 60.7586 
L 309.491614 47.627234 
L 318.261679 54.670112 
L 327.031743 57.559992 
L 335.801807 63.446645 
L 344.571872 58.380437 
L 353.341936 58.036358 
L 362.112 57.649031 
L 370.882064 57.56436 
L 379.652129 57.409644 
L 388.422193 57.624893 
L 397.192257 57.337984 
L 405.962322 57.187898 
L 414.732386 56.768204 
L 423.50245 56.599336 
L 432.272514 55.954047 
L 441.042579 55.650199 
L 449.812643 55.130233 
L 458.582707 55.221356 
L 467.352771 52.663268 
L 476.122836 50.984022 
L 484.8929 55.007851 
L 493.662964 54.005509 
L 502.433029 58.961297 
L 511.203093 52.773475 
L 519.973157 41.887437 
" clip-path="url(#p63e38d13b0)" style="fill: none; stroke: #5cb85c; stroke-linecap: square"/>
   </g>
   <g id="line2d_12">
    <path d="M 81.469943 53.465295 
L 90.240007 56.038939 
L 99.010072 53.245365 
L 107.780136 55.945705 
L 116.5502 53.140855 
L 125.320265 54.806601 
L 134.090329 53.642157 
L 142.860393 53.52491 
L 151.630457 53.394271 
L 160.400522 53.130925 
L 169.170586 53.226645 
L 177.94065 53.045645 
L 186.710715 53.085586 
L 195.480779 52.912013 
L 204.250843 52.887311 
L 213.020907 52.944686 
L 221.790972 55.209673 
L 230.561036 54.452966 
L 239.3311 53.358877 
L 248.101164 55.139528 
L 256.871229 57.582031 
L 265.641293 55.880452 
L 274.411357 70.445181 
L 283.181422 71.807242 
L 291.951486 62.388803 
L 300.72155 60.663699 
L 309.491614 47.645217 
L 318.261679 54.416999 
L 327.031743 57.444807 
L 335.801807 63.234053 
L 344.571872 58.029426 
L 353.341936 57.992484 
L 362.112 57.709906 
L 370.882064 57.524962 
L 379.652129 57.432939 
L 388.422193 57.60185 
L 397.192257 57.194921 
L 405.962322 57.086484 
L 414.732386 56.763933 
L 423.50245 56.721572 
L 432.272514 56.092573 
L 441.042579 55.419978 
L 449.812643 55.05071 
L 458.582707 54.958002 
L 467.352771 52.732488 
L 476.122836 50.88513 
L 484.8929 55.198349 
L 493.662964 53.776882 
L 502.433029 59.043957 
L 511.203093 52.827714 
L 519.973157 41.879889 
" clip-path="url(#p63e38d13b0)" style="fill: none; stroke: #5cb85c; stroke-linecap: square"/>
   </g>
   <g id="line2d_13">
    <path d="M 81.469943 52.694303 
L 90.240007 55.307733 
L 99.010072 52.54241 
L 107.780136 55.27682 
L 116.5502 52.464588 
L 125.320265 54.093893 
L 134.090329 52.950463 
L 142.860393 52.82031 
L 151.630457 52.678578 
L 160.400522 52.491044 
L 169.170586 52.540016 
L 177.94065 52.342675 
L 186.710715 52.36952 
L 195.480779 52.200679 
L 204.250843 52.138613 
L 213.020907 52.230138 
L 221.790972 54.515022 
L 230.561036 53.755658 
L 239.3311 52.529447 
L 248.101164 54.209256 
L 256.871229 56.660439 
L 265.641293 54.903775 
L 274.411357 69.334787 
L 283.181422 70.702057 
L 291.951486 60.893352 
L 300.72155 59.300905 
L 309.491614 47.260963 
L 318.261679 53.967157 
L 327.031743 56.71939 
L 335.801807 62.396765 
L 344.571872 57.528488 
L 353.341936 57.028408 
L 362.112 56.798011 
L 370.882064 56.845549 
L 379.652129 56.650046 
L 388.422193 56.736504 
L 397.192257 56.33461 
L 405.962322 56.280533 
L 414.732386 55.726096 
L 423.50245 55.906318 
L 432.272514 55.274388 
L 441.042579 54.657459 
L 449.812643 54.470505 
L 458.582707 54.261909 
L 467.352771 52.220607 
L 476.122836 50.332874 
L 484.8929 54.649323 
L 493.662964 53.22506 
L 502.433029 58.45604 
L 511.203093 52.183952 
L 519.973157 41.746597 
" clip-path="url(#p63e38d13b0)" style="fill: none; stroke: #5cb85c; stroke-linecap: square"/>
   </g>
   <g id="line2d_14">
    <path d="M 81.469943 52.662426 
L 90.240007 55.304605 
L 99.010072 52.448321 
L 107.780136 55.169391 
L 116.5502 52.383032 
L 125.320265 54.001826 
L 134.090329 52.886214 
L 142.860393 52.765162 
L 151.630457 52.516203 
L 160.400522 52.371779 
L 169.170586 52.431656 
L 177.94065 52.235995 
L 186.710715 52.208795 
L 195.480779 52.03081 
L 204.250843 52.097403 
L 213.020907 52.166976 
L 221.790972 54.441305 
L 230.561036 53.746001 
L 239.3311 52.567168 
L 248.101164 54.276854 
L 256.871229 56.651738 
L 265.641293 54.98503 
L 274.411357 69.855708 
L 283.181422 71.404033 
L 291.951486 61.422355 
L 300.72155 59.699367 
L 309.491614 47.765381 
L 318.261679 54.275123 
L 327.031743 56.645978 
L 335.801807 62.305646 
L 344.571872 57.327259 
L 353.341936 57.315344 
L 362.112 56.71617 
L 370.882064 56.574284 
L 379.652129 56.460086 
L 388.422193 56.667889 
L 397.192257 56.163945 
L 405.962322 56.242929 
L 414.732386 55.758499 
L 423.50245 55.958675 
L 432.272514 55.316863 
L 441.042579 54.80482 
L 449.812643 54.624054 
L 458.582707 54.471198 
L 467.352771 52.41048 
L 476.122836 50.528695 
L 484.8929 54.881928 
L 493.662964 53.717995 
L 502.433029 59.369182 
L 511.203093 53.130361 
L 519.973157 42.474191 
" clip-path="url(#p63e38d13b0)" style="fill: none; stroke: #5cb85c; stroke-linecap: square"/>
   </g>
   <g id="line2d_15">
    <path d="M 81.469943 52.589884 
L 90.240007 55.259187 
L 99.010072 52.463111 
L 107.780136 55.195148 
L 116.5502 52.417707 
L 125.320265 54.033689 
L 134.090329 52.907366 
L 142.860393 52.750886 
L 151.630457 52.602815 
L 160.400522 52.45264 
L 169.170586 52.521342 
L 177.94065 52.34402 
L 186.710715 52.35931 
L 195.480779 52.119207 
L 204.250843 52.173894 
L 213.020907 52.210192 
L 221.790972 54.446479 
L 230.561036 53.728906 
L 239.3311 52.472967 
L 248.101164 54.130674 
L 256.871229 56.695239 
L 265.641293 55.107815 
L 274.411357 69.96099 
L 283.181422 71.717508 
L 291.951486 61.441967 
L 300.72155 59.554775 
L 309.491614 47.462614 
L 318.261679 54.370901 
L 327.031743 56.789152 
L 335.801807 62.762224 
L 344.571872 57.518329 
L 353.341936 57.412871 
L 362.112 57.006219 
L 370.882064 56.963164 
L 379.652129 56.949426 
L 388.422193 57.158526 
L 397.192257 56.637769 
L 405.962322 56.66174 
L 414.732386 56.162791 
L 423.50245 56.264097 
L 432.272514 55.594881 
L 441.042579 54.85717 
L 449.812643 54.70858 
L 458.582707 54.551959 
L 467.352771 52.658097 
L 476.122836 50.662893 
L 484.8929 55.331301 
L 493.662964 54.079153 
L 502.433029 59.741362 
L 511.203093 52.741859 
L 519.973157 41.828171 
" clip-path="url(#p63e38d13b0)" style="fill: none; stroke: #5cb85c; stroke-linecap: square"/>
   </g>
   <g id="line2d_16">
    <path d="M 81.469943 54.037475 
L 90.240007 56.612106 
L 99.010072 53.816727 
L 107.780136 56.540944 
L 116.5502 53.738585 
L 125.320265 55.35062 
L 134.090329 54.231878 
L 142.860393 54.116629 
L 151.630457 53.921833 
L 160.400522 53.724396 
L 169.170586 53.812953 
L 177.94065 53.627673 
L 186.710715 53.673263 
L 195.480779 53.40262 
L 204.250843 53.41127 
L 213.020907 53.443294 
L 221.790972 55.729612 
L 230.561036 55.0579 
L 239.3311 53.989898 
L 248.101164 55.852587 
L 256.871229 58.350692 
L 265.641293 56.808862 
L 274.411357 72.276607 
L 283.181422 73.692657 
L 291.951486 64.073332 
L 300.72155 62.253332 
L 309.491614 48.00445 
L 318.261679 54.812221 
L 327.031743 57.574273 
L 335.801807 63.415488 
L 344.571872 58.363462 
L 353.341936 58.128148 
L 362.112 57.657235 
L 370.882064 57.719965 
L 379.652129 57.47431 
L 388.422193 57.577623 
L 397.192257 57.199171 
L 405.962322 57.224629 
L 414.732386 56.612206 
L 423.50245 56.699466 
L 432.272514 56.153468 
L 441.042579 55.613171 
L 449.812643 55.147181 
L 458.582707 54.847068 
L 467.352771 52.722115 
L 476.122836 50.816133 
L 484.8929 54.819829 
L 493.662964 53.739473 
L 502.433029 58.672883 
L 511.203093 52.546979 
L 519.973157 41.815355 
" clip-path="url(#p63e38d13b0)" style="fill: none; stroke: #5cb85c; stroke-linecap: square"/>
   </g>
   <g id="line2d_17">
    <path d="M 81.469943 52.962544 
L 90.240007 55.552285 
L 99.010072 52.821034 
L 107.780136 55.558525 
L 116.5502 52.7354 
L 125.320265 54.373646 
L 134.090329 53.198649 
L 142.860393 53.087436 
L 151.630457 52.947175 
L 160.400522 52.703433 
L 169.170586 52.777234 
L 177.94065 52.618107 
L 186.710715 52.639128 
L 195.480779 52.402013 
L 204.250843 52.407725 
L 213.020907 52.435499 
L 221.790972 54.713686 
L 230.561036 54.032056 
L 239.3311 52.857194 
L 248.101164 54.564514 
L 256.871229 57.036505 
L 265.641293 55.452288 
L 274.411357 70.249614 
L 283.181422 71.640797 
L 291.951486 61.849341 
L 300.72155 60.030368 
L 309.491614 47.563236 
L 318.261679 54.529584 
L 327.031743 57.120521 
L 335.801807 63.01278 
L 344.571872 57.862886 
L 353.341936 57.593389 
L 362.112 57.151735 
L 370.882064 57.077302 
L 379.652129 56.857931 
L 388.422193 57.154956 
L 397.192257 56.739386 
L 405.962322 56.550312 
L 414.732386 56.10328 
L 423.50245 56.348401 
L 432.272514 55.733687 
L 441.042579 55.180938 
L 449.812643 54.774672 
L 458.582707 54.581181 
L 467.352771 52.441457 
L 476.122836 50.437715 
L 484.8929 54.822888 
L 493.662964 53.585411 
L 502.433029 58.966506 
L 511.203093 52.410402 
L 519.973157 41.793452 
" clip-path="url(#p63e38d13b0)" style="fill: none; stroke: #5cb85c; stroke-linecap: square"/>
   </g>
   <g id="line2d_18">
    <path d="M 81.469943 53.133848 
L 90.240007 55.746023 
L 99.010072 52.956673 
L 107.780136 55.696528 
L 116.5502 52.913135 
L 125.320265 54.539789 
L 134.090329 53.377419 
L 142.860393 53.261544 
L 151.630457 53.121464 
L 160.400522 52.975643 
L 169.170586 52.993952 
L 177.94065 52.783524 
L 186.710715 52.847383 
L 195.480779 52.606828 
L 204.250843 52.612821 
L 213.020907 52.681603 
L 221.790972 54.924098 
L 230.561036 54.203772 
L 239.3311 53.050355 
L 248.101164 54.812199 
L 256.871229 57.32178 
L 265.641293 55.580381 
L 274.411357 70.468772 
L 283.181422 71.940141 
L 291.951486 61.997022 
L 300.72155 60.348167 
L 309.491614 47.504233 
L 318.261679 54.544115 
L 327.031743 57.062518 
L 335.801807 62.8597 
L 344.571872 57.747438 
L 353.341936 57.432884 
L 362.112 57.170488 
L 370.882064 57.111335 
L 379.652129 56.822622 
L 388.422193 57.052305 
L 397.192257 56.790397 
L 405.962322 56.564728 
L 414.732386 56.124054 
L 423.50245 56.173472 
L 432.272514 55.516579 
L 441.042579 54.944417 
L 449.812643 54.647294 
L 458.582707 54.327688 
L 467.352771 52.276442 
L 476.122836 50.31268 
L 484.8929 54.555094 
L 493.662964 53.370813 
L 502.433029 58.460593 
L 511.203093 52.321298 
L 519.973157 41.768707 
" clip-path="url(#p63e38d13b0)" style="fill: none; stroke: #5cb85c; stroke-linecap: square"/>
   </g>
   <g id="line2d_19">
    <path d="M 81.469943 52.589632 
L 90.240007 55.174689 
L 99.010072 52.39632 
L 107.780136 55.150379 
L 116.5502 52.331825 
L 125.320265 53.943933 
L 134.090329 52.814067 
L 142.860393 52.694198 
L 151.630457 52.554348 
L 160.400522 52.340842 
L 169.170586 52.408137 
L 177.94065 52.183425 
L 186.710715 52.199074 
L 195.480779 51.98846 
L 204.250843 52.000237 
L 213.020907 52.090496 
L 221.790972 54.352718 
L 230.561036 53.662796 
L 239.3311 52.406526 
L 248.101164 54.124026 
L 256.871229 56.568818 
L 265.641293 54.929723 
L 274.411357 69.540205 
L 283.181422 70.718615 
L 291.951486 60.846771 
L 300.72155 59.195819 
L 309.491614 47.283462 
L 318.261679 53.864945 
L 327.031743 56.497269 
L 335.801807 62.430183 
L 344.571872 57.344466 
L 353.341936 57.150104 
L 362.112 56.682259 
L 370.882064 56.458113 
L 379.652129 56.397449 
L 388.422193 56.493896 
L 397.192257 56.17902 
L 405.962322 56.024919 
L 414.732386 55.604282 
L 423.50245 55.770972 
L 432.272514 55.040175 
L 441.042579 54.723348 
L 449.812643 54.377545 
L 458.582707 54.3509 
L 467.352771 52.02137 
L 476.122836 50.336276 
L 484.8929 54.615332 
L 493.662964 53.292853 
L 502.433029 58.624306 
L 511.203093 52.360779 
L 519.973157 41.734943 
" clip-path="url(#p63e38d13b0)" style="fill: none; stroke: #5cb85c; stroke-linecap: square"/>
   </g>
   <g id="line2d_20">
    <path d="M 81.469943 52.977159 
L 90.240007 55.99561 
L 99.010072 53.941068 
L 107.780136 54.020089 
L 116.5502 54.000648 
L 125.320265 53.990081 
L 134.090329 54.179761 
L 142.860393 54.042225 
L 151.630457 53.968604 
L 160.400522 53.865498 
L 177.94065 53.709563 
L 195.480779 53.336493 
L 213.020907 52.721726 
L 230.561036 53.493921 
L 248.101164 57.402566 
L 265.641293 90.643905 
L 283.181422 134.458293 
L 300.72155 153.609507 
L 318.261679 155.720117 
L 335.801807 155.983327 
L 353.341936 143.728849 
L 370.882064 140.116185 
L 388.422193 153.059748 
L 405.962322 153.551988 
L 423.50245 154.906276 
L 441.042579 152.066405 
L 458.582707 139.744028 
L 476.122836 112.955022 
L 493.662964 102.138134 
L 511.203093 141.140098 
L 528.743221 144.087462 
L 546.28335 144.823916 
L 563.823479 168.118821 
L 581.363607 152.7952 
L 598.903736 157.407831 
L 616.443864 140.000471 
L 633.983993 145.943948 
L 651.524121 148.839216 
L 669.06425 145.643799 
L 686.604378 150.141304 
L 704.144507 139.417709 
L 721.684636 104.103412 
L 739.224764 81.874028 
L 756.764893 112.834768 
L 774.305021 130.802021 
L 791.84515 138.199222 
L 809.385278 141.076861 
L 826.925407 130.928655 
L 844.465535 136.144903 
L 862.005664 133.556596 
L 879.545793 133.28025 
L 897.085921 134.820992 
L 914.62605 124.681052 
L 932.166178 103.810005 
L 949.706307 56.569127 
" clip-path="url(#p63e38d13b0)" style="fill: none; stroke: #d9534f; stroke-linecap: square"/>
   </g>
   <g id="line2d_21">
    <path d="M 81.469943 51.10167 
L 90.240007 54.411628 
L 99.010072 52.220324 
L 107.780136 52.415865 
L 116.5502 52.379441 
L 125.320265 52.45327 
L 134.090329 52.638623 
L 142.860393 52.438511 
L 151.630457 52.405337 
L 160.400522 52.349311 
L 177.94065 52.212019 
L 195.480779 51.807828 
L 213.020907 51.212284 
L 230.561036 51.673038 
L 248.101164 54.597142 
L 265.641293 86.532306 
L 283.181422 130.856347 
L 300.72155 148.897341 
L 318.261679 151.068941 
L 335.801807 151.484329 
L 353.341936 138.829263 
L 370.882064 135.8136 
L 388.422193 148.161516 
L 405.962322 147.669587 
L 423.50245 150.737507 
L 441.042579 146.029688 
L 458.582707 134.40101 
L 476.122836 110.675704 
L 493.662964 98.110013 
L 511.203093 136.695336 
L 528.743221 138.49528 
L 546.28335 140.743901 
L 563.823479 163.347181 
L 581.363607 150.539585 
L 598.903736 153.740469 
L 616.443864 135.399217 
L 633.983993 139.771615 
L 651.524121 142.06331 
L 669.06425 137.900574 
L 686.604378 145.064399 
L 704.144507 141.692345 
L 721.684636 107.282129 
L 739.224764 77.446299 
L 756.764893 105.152757 
L 774.305021 120.356405 
L 791.84515 131.13324 
L 809.385278 132.346906 
L 826.925407 128.215497 
L 844.465535 132.934194 
L 862.005664 131.481434 
L 879.545793 133.147091 
L 897.085921 130.378123 
L 914.62605 127.127052 
L 932.166178 102.319803 
L 949.706307 58.703467 
" clip-path="url(#p63e38d13b0)" style="fill: none; stroke: #d9534f; stroke-linecap: square"/>
   </g>
   <g id="line2d_22">
    <path d="M 81.469943 52.16948 
L 90.240007 55.290692 
L 99.010072 53.063751 
L 107.780136 53.247287 
L 116.5502 53.220921 
L 125.320265 53.209172 
L 134.090329 53.422894 
L 142.860393 53.288041 
L 151.630457 53.25031 
L 160.400522 53.145823 
L 177.94065 53.011837 
L 195.480779 52.552729 
L 213.020907 51.970013 
L 230.561036 52.490709 
L 248.101164 55.547162 
L 265.641293 87.964098 
L 283.181422 131.354826 
L 300.72155 150.134446 
L 318.261679 152.893558 
L 335.801807 152.999984 
L 353.341936 139.673397 
L 370.882064 136.451845 
L 388.422193 148.829569 
L 405.962322 148.844736 
L 423.50245 151.953709 
L 441.042579 146.732393 
L 458.582707 134.997922 
L 476.122836 111.189974 
L 493.662964 98.629002 
L 511.203093 137.170116 
L 528.743221 138.786473 
L 546.28335 141.256356 
L 563.823479 163.394302 
L 581.363607 150.75637 
L 598.903736 154.952373 
L 616.443864 136.376457 
L 633.983993 139.875489 
L 651.524121 142.001466 
L 669.06425 139.214286 
L 686.604378 145.496093 
L 704.144507 144.237315 
L 721.684636 111.052551 
L 739.224764 79.84045 
L 756.764893 108.39864 
L 774.305021 128.737684 
L 791.84515 141.206427 
L 809.385278 139.72973 
L 826.925407 128.584814 
L 844.465535 132.470794 
L 862.005664 139.90832 
L 879.545793 135.329105 
L 897.085921 142.029969 
L 914.62605 134.446016 
L 932.166178 112.93463 
L 949.706307 59.96711 
" clip-path="url(#p63e38d13b0)" style="fill: none; stroke: #d9534f; stroke-linecap: square"/>
   </g>
   <g id="line2d_23">
    <path d="M 81.469943 51.860899 
L 90.240007 54.912385 
L 99.010072 52.880842 
L 107.780136 52.954496 
L 116.5502 52.956492 
L 125.320265 52.994917 
L 134.090329 53.165594 
L 142.860393 52.921485 
L 151.630457 52.973733 
L 160.400522 52.899689 
L 177.94065 52.805801 
L 195.480779 52.371727 
L 213.020907 51.763691 
L 230.561036 52.254207 
L 248.101164 55.122706 
L 265.641293 87.337996 
L 283.181422 130.737069 
L 300.72155 149.014738 
L 318.261679 151.808223 
L 335.801807 151.995166 
L 353.341936 138.442705 
L 370.882064 134.83171 
L 388.422193 147.394244 
L 405.962322 147.145137 
L 423.50245 150.475903 
L 441.042579 144.521135 
L 458.582707 132.510474 
L 476.122836 109.896858 
L 493.662964 97.767804 
L 511.203093 135.520602 
L 528.743221 137.945014 
L 546.28335 140.720928 
L 563.823479 162.287675 
L 581.363607 149.641803 
L 598.903736 152.550287 
L 616.443864 135.746426 
L 633.983993 139.26623 
L 651.524121 142.177077 
L 669.06425 138.690682 
L 686.604378 143.663273 
L 704.144507 140.725049 
L 721.684636 107.793614 
L 739.224764 76.851852 
L 756.764893 108.588903 
L 774.305021 120.664603 
L 791.84515 135.585442 
L 809.385278 140.787337 
L 826.925407 133.793272 
L 844.465535 129.609164 
L 862.005664 136.796955 
L 879.545793 131.98408 
L 897.085921 139.258697 
L 914.62605 128.466905 
L 932.166178 115.115594 
L 949.706307 61.596163 
" clip-path="url(#p63e38d13b0)" style="fill: none; stroke: #d9534f; stroke-linecap: square"/>
   </g>
   <g id="line2d_24">
    <path d="M 81.469943 50.216052 
L 90.240007 53.897852 
L 99.010072 51.694277 
L 107.780136 51.718551 
L 116.5502 51.800381 
L 125.320265 51.804132 
L 134.090329 51.92544 
L 142.860393 51.737859 
L 151.630457 51.811431 
L 160.400522 51.749486 
L 177.94065 51.652259 
L 195.480779 51.224472 
L 213.020907 50.527253 
L 230.561036 50.92426 
L 248.101164 53.525819 
L 265.641293 84.708543 
L 283.181422 127.497378 
L 300.72155 145.038845 
L 318.261679 147.251866 
L 335.801807 147.105715 
L 353.341936 137.010847 
L 370.882064 134.019508 
L 388.422193 144.418952 
L 405.962322 143.855886 
L 423.50245 146.568433 
L 441.042579 141.728458 
L 458.582707 131.077645 
L 476.122836 108.492856 
L 493.662964 96.423525 
L 511.203093 134.362115 
L 528.743221 134.54912 
L 546.28335 135.863287 
L 563.823479 157.919303 
L 581.363607 145.424907 
L 598.903736 149.190946 
L 616.443864 132.098609 
L 633.983993 136.093025 
L 651.524121 139.106844 
L 669.06425 137.103959 
L 686.604378 142.896427 
L 704.144507 135.982638 
L 721.684636 99.977154 
L 739.224764 70.296871 
L 756.764893 94.388152 
L 774.305021 112.126311 
L 791.84515 128.606449 
L 809.385278 130.043585 
L 826.925407 123.970819 
L 844.465535 127.747334 
L 862.005664 125.257243 
L 879.545793 133.049267 
L 897.085921 133.091857 
L 914.62605 127.691972 
L 932.166178 111.689688 
L 949.706307 58.343434 
" clip-path="url(#p63e38d13b0)" style="fill: none; stroke: #d9534f; stroke-linecap: square"/>
   </g>
   <g id="line2d_25">
    <path d="M 81.469943 51.633299 
L 90.240007 54.694321 
L 99.010072 52.6293 
L 107.780136 52.72312 
L 116.5502 52.775191 
L 125.320265 52.803697 
L 134.090329 53.000367 
L 142.860393 52.743465 
L 151.630457 52.831202 
L 160.400522 52.732014 
L 177.94065 52.661269 
L 195.480779 52.259395 
L 213.020907 51.695447 
L 230.561036 52.114652 
L 248.101164 54.931562 
L 265.641293 87.377297 
L 283.181422 131.033094 
L 300.72155 149.606005 
L 318.261679 151.776096 
L 335.801807 152.047897 
L 353.341936 138.104939 
L 370.882064 135.058079 
L 388.422193 147.375035 
L 405.962322 146.8148 
L 423.50245 150.619522 
L 441.042579 144.160347 
L 458.582707 132.355111 
L 476.122836 110.024331 
L 493.662964 97.687647 
L 511.203093 135.113886 
L 528.743221 137.797052 
L 546.28335 141.621171 
L 563.823479 163.857487 
L 581.363607 150.9502 
L 598.903736 153.456602 
L 616.443864 135.283568 
L 633.983993 139.975134 
L 651.524121 144.027357 
L 669.06425 141.636641 
L 686.604378 144.490111 
L 704.144507 139.951236 
L 721.684636 109.638843 
L 739.224764 80.118122 
L 756.764893 108.649093 
L 774.305021 127.192732 
L 791.84515 134.810952 
L 809.385278 138.549584 
L 826.925407 134.196155 
L 844.465535 129.891983 
L 862.005664 129.555789 
L 879.545793 132.127515 
L 897.085921 141.536269 
L 914.62605 128.986611 
L 932.166178 112.377683 
L 949.706307 62.870322 
" clip-path="url(#p63e38d13b0)" style="fill: none; stroke: #d9534f; stroke-linecap: square"/>
   </g>
   <g id="line2d_26">
    <path d="M 81.469943 51.634021 
L 90.240007 54.825163 
L 99.010072 52.688787 
L 107.780136 52.888694 
L 116.5502 52.833867 
L 125.320265 52.8906 
L 134.090329 53.1103 
L 142.860393 52.948701 
L 151.630457 52.896845 
L 160.400522 52.806412 
L 177.94065 52.67844 
L 195.480779 52.306662 
L 213.020907 51.647969 
L 230.561036 52.210193 
L 248.101164 55.171101 
L 265.641293 87.495643 
L 283.181422 131.609716 
L 300.72155 150.574995 
L 318.261679 152.311157 
L 335.801807 153.0604 
L 353.341936 139.173484 
L 370.882064 135.647896 
L 388.422193 148.093629 
L 405.962322 148.340317 
L 423.50245 151.723877 
L 441.042579 145.616182 
L 458.582707 133.893025 
L 476.122836 110.691603 
L 493.662964 98.558661 
L 511.203093 136.487478 
L 528.743221 138.887169 
L 546.28335 141.947445 
L 563.823479 163.769108 
L 581.363607 150.609193 
L 598.903736 154.329823 
L 616.443864 136.345957 
L 633.983993 141.133359 
L 651.524121 144.445906 
L 669.06425 142.752757 
L 686.604378 145.583982 
L 704.144507 139.136002 
L 721.684636 107.500292 
L 739.224764 77.376197 
L 756.764893 107.523391 
L 774.305021 121.851787 
L 791.84515 134.885925 
L 809.385278 137.481792 
L 826.925407 132.604881 
L 844.465535 131.565637 
L 862.005664 128.582979 
L 879.545793 139.187538 
L 897.085921 133.613309 
L 914.62605 125.972784 
L 932.166178 106.540885 
L 949.706307 65.729887 
" clip-path="url(#p63e38d13b0)" style="fill: none; stroke: #d9534f; stroke-linecap: square"/>
   </g>
   <g id="line2d_27">
    <path d="M 81.469943 51.097312 
L 90.240007 54.19183 
L 99.010072 52.105994 
L 107.780136 52.23197 
L 116.5502 52.272505 
L 125.320265 52.297796 
L 134.090329 52.520385 
L 142.860393 52.327229 
L 151.630457 52.337368 
L 160.400522 52.246392 
L 177.94065 52.137145 
L 195.480779 51.778586 
L 213.020907 51.208635 
L 230.561036 51.636838 
L 248.101164 54.498951 
L 265.641293 87.403754 
L 283.181422 131.740491 
L 300.72155 149.767298 
L 318.261679 152.130767 
L 335.801807 151.279381 
L 353.341936 138.192079 
L 370.882064 135.67235 
L 388.422193 146.153227 
L 405.962322 146.302415 
L 423.50245 150.208952 
L 441.042579 144.317485 
L 458.582707 133.078012 
L 476.122836 109.740581 
L 493.662964 97.14938 
L 511.203093 136.910113 
L 528.743221 141.236543 
L 546.28335 143.694137 
L 563.823479 163.612243 
L 581.363607 150.113554 
L 598.903736 154.165808 
L 616.443864 135.69715 
L 633.983993 139.554838 
L 651.524121 141.577548 
L 669.06425 138.381542 
L 686.604378 143.508695 
L 704.144507 139.471305 
L 721.684636 107.788898 
L 739.224764 81.606176 
L 756.764893 114.977511 
L 774.305021 133.450244 
L 791.84515 138.273683 
L 809.385278 145.621573 
L 826.925407 134.802284 
L 844.465535 135.66199 
L 862.005664 133.220535 
L 879.545793 134.206382 
L 897.085921 140.126212 
L 914.62605 135.366475 
L 932.166178 110.083734 
L 949.706307 60.76259 
" clip-path="url(#p63e38d13b0)" style="fill: none; stroke: #d9534f; stroke-linecap: square"/>
   </g>
   <g id="line2d_28">
    <path d="M 81.469943 51.490883 
L 90.240007 54.602751 
L 99.010072 52.505908 
L 107.780136 52.655659 
L 116.5502 52.624075 
L 125.320265 52.667112 
L 134.090329 52.870901 
L 142.860393 52.660351 
L 151.630457 52.631475 
L 160.400522 52.564685 
L 177.94065 52.433702 
L 195.480779 52.059517 
L 213.020907 51.455505 
L 230.561036 51.96276 
L 248.101164 54.94342 
L 265.641293 87.410569 
L 283.181422 131.945133 
L 300.72155 151.07884 
L 318.261679 153.452469 
L 335.801807 153.159072 
L 353.341936 139.012219 
L 370.882064 135.507145 
L 388.422193 148.604677 
L 405.962322 148.626058 
L 423.50245 152.123331 
L 441.042579 146.059921 
L 458.582707 133.802417 
L 476.122836 110.348074 
L 493.662964 98.558328 
L 511.203093 137.242179 
L 528.743221 139.969257 
L 546.28335 141.964862 
L 563.823479 164.073317 
L 581.363607 151.122886 
L 598.903736 154.791269 
L 616.443864 136.930964 
L 633.983993 140.665158 
L 651.524121 143.675696 
L 669.06425 140.312394 
L 686.604378 145.582507 
L 704.144507 142.072781 
L 721.684636 109.224019 
L 739.224764 83.177094 
L 756.764893 117.369652 
L 774.305021 126.879719 
L 791.84515 140.536069 
L 809.385278 138.626041 
L 826.925407 132.720001 
L 844.465535 137.261736 
L 862.005664 139.626648 
L 879.545793 133.161787 
L 897.085921 135.350756 
L 914.62605 133.915691 
L 932.166178 109.424075 
L 949.706307 63.517598 
" clip-path="url(#p63e38d13b0)" style="fill: none; stroke: #d9534f; stroke-linecap: square"/>
   </g>
   <g id="line2d_29">
    <path d="M 81.469943 51.904022 
L 90.240007 54.984805 
L 99.010072 52.865323 
L 107.780136 53.018229 
L 116.5502 53.035802 
L 125.320265 53.063858 
L 134.090329 53.196719 
L 142.860393 52.975298 
L 151.630457 52.988712 
L 160.400522 52.905444 
L 177.94065 52.738687 
L 195.480779 52.375502 
L 213.020907 51.845698 
L 230.561036 52.292928 
L 248.101164 55.261809 
L 265.641293 87.146795 
L 283.181422 130.359269 
L 300.72155 148.575413 
L 318.261679 151.368879 
L 335.801807 151.663796 
L 353.341936 138.451269 
L 370.882064 135.247808 
L 388.422193 147.702767 
L 405.962322 147.396714 
L 423.50245 150.678283 
L 441.042579 144.801429 
L 458.582707 133.252135 
L 476.122836 110.54551 
L 493.662964 97.742078 
L 511.203093 135.677882 
L 528.743221 137.694681 
L 546.28335 139.604221 
L 563.823479 161.942162 
L 581.363607 149.156982 
L 598.903736 153.122082 
L 616.443864 135.371214 
L 633.983993 138.907371 
L 651.524121 140.673746 
L 669.06425 137.886257 
L 686.604378 144.05196 
L 704.144507 142.826562 
L 721.684636 110.286212 
L 739.224764 81.914123 
L 756.764893 111.710128 
L 774.305021 127.353488 
L 791.84515 138.582816 
L 809.385278 139.274244 
L 826.925407 132.619597 
L 844.465535 135.262338 
L 862.005664 129.575182 
L 879.545793 134.418244 
L 897.085921 135.360744 
L 914.62605 131.096033 
L 932.166178 107.713456 
L 949.706307 63.230618 
" clip-path="url(#p63e38d13b0)" style="fill: none; stroke: #d9534f; stroke-linecap: square"/>
   </g>
   <g id="line2d_30">
    <path d="M 81.469943 51.767133 
L 90.240007 54.767266 
L 99.010072 52.626775 
L 107.780136 52.7746 
L 116.5502 52.868753 
L 125.320265 52.900337 
L 134.090329 53.054866 
L 142.860393 52.893025 
L 151.630457 52.886672 
L 160.400522 52.800978 
L 177.94065 52.695504 
L 195.480779 52.346188 
L 213.020907 51.770698 
L 230.561036 52.251137 
L 248.101164 55.387145 
L 265.641293 87.697795 
L 283.181422 131.696642 
L 300.72155 149.658973 
L 318.261679 152.099286 
L 335.801807 152.019668 
L 353.341936 139.153439 
L 370.882064 136.080965 
L 388.422193 146.629002 
L 405.962322 146.940206 
L 423.50245 150.322801 
L 441.042579 144.574196 
L 458.582707 133.824034 
L 476.122836 109.884108 
L 493.662964 98.233394 
L 511.203093 136.223674 
L 528.743221 138.591102 
L 546.28335 141.53023 
L 563.823479 163.253805 
L 581.363607 151.130502 
L 598.903736 155.014225 
L 616.443864 136.872727 
L 633.983993 140.661337 
L 651.524121 142.703897 
L 669.06425 139.327145 
L 686.604378 142.448456 
L 704.144507 137.816344 
L 721.684636 107.090648 
L 739.224764 81.336017 
L 756.764893 110.960595 
L 774.305021 125.559091 
L 791.84515 136.910362 
L 809.385278 142.506737 
L 826.925407 130.357154 
L 844.465535 136.327227 
L 862.005664 135.274129 
L 879.545793 131.734715 
L 897.085921 137.43208 
L 914.62605 129.457862 
L 932.166178 114.679239 
L 949.706307 59.865126 
" clip-path="url(#p63e38d13b0)" style="fill: none; stroke: #d9534f; stroke-linecap: square"/>
   </g>
   <g id="line2d_31">
    <path d="M 81.469943 51.301128 
L 90.240007 54.299781 
L 99.010072 52.245369 
L 107.780136 52.463501 
L 116.5502 52.426437 
L 125.320265 52.460635 
L 134.090329 52.609692 
L 142.860393 52.432033 
L 151.630457 52.483541 
L 160.400522 52.395755 
L 177.94065 52.246983 
L 195.480779 51.963572 
L 213.020907 51.452599 
L 230.561036 51.871094 
L 248.101164 54.703003 
L 265.641293 86.760927 
L 283.181422 130.922569 
L 300.72155 149.664319 
L 318.261679 151.864322 
L 335.801807 151.677401 
L 353.341936 137.041186 
L 370.882064 134.314181 
L 388.422193 146.231733 
L 405.962322 145.827134 
L 423.50245 150.25974 
L 441.042579 143.489448 
L 458.582707 131.300818 
L 476.122836 108.86796 
L 493.662964 96.788559 
L 511.203093 136.14899 
L 528.743221 137.972288 
L 546.28335 141.24475 
L 563.823479 162.265127 
L 581.363607 150.509182 
L 598.903736 151.202971 
L 616.443864 132.539633 
L 633.983993 136.073629 
L 651.524121 140.695159 
L 669.06425 138.608821 
L 686.604378 145.525256 
L 704.144507 139.405539 
L 721.684636 103.347086 
L 739.224764 80.768909 
L 756.764893 115.881738 
L 774.305021 122.956265 
L 791.84515 133.638371 
L 809.385278 137.234469 
L 826.925407 128.611667 
L 844.465535 132.746093 
L 862.005664 136.608553 
L 879.545793 136.594861 
L 897.085921 138.221487 
L 914.62605 134.805853 
L 932.166178 105.180953 
L 949.706307 60.890247 
" clip-path="url(#p63e38d13b0)" style="fill: none; stroke: #d9534f; stroke-linecap: square"/>
   </g>
   <g id="line2d_32">
    <path d="M 81.469943 50.810137 
L 90.240007 53.888739 
L 99.010072 51.778777 
L 107.780136 51.928788 
L 116.5502 51.907326 
L 125.320265 52.006562 
L 134.090329 52.171273 
L 142.860393 52.013771 
L 151.630457 51.967498 
L 160.400522 51.906658 
L 177.94065 51.861812 
L 195.480779 51.448607 
L 213.020907 50.804026 
L 230.561036 51.294935 
L 248.101164 54.040317 
L 265.641293 85.91248 
L 283.181422 130.648254 
L 300.72155 149.172669 
L 318.261679 151.473303 
L 335.801807 150.979826 
L 353.341936 138.361328 
L 370.882064 135.656245 
L 388.422193 146.419429 
L 405.962322 146.098147 
L 423.50245 149.1633 
L 441.042579 143.904022 
L 458.582707 132.302245 
L 476.122836 109.283009 
L 493.662964 96.841478 
L 511.203093 136.521389 
L 528.743221 139.992552 
L 546.28335 143.120007 
L 563.823479 163.743499 
L 581.363607 149.389326 
L 598.903736 152.751501 
L 616.443864 135.113549 
L 633.983993 140.230232 
L 651.524121 141.239652 
L 669.06425 138.452754 
L 686.604378 142.741958 
L 704.144507 139.495529 
L 721.684636 107.428405 
L 739.224764 78.327654 
L 756.764893 117.171216 
L 774.305021 127.797012 
L 791.84515 133.633447 
L 809.385278 149.206849 
L 826.925407 132.967642 
L 844.465535 133.560454 
L 862.005664 126.387558 
L 879.545793 133.331143 
L 897.085921 136.084592 
L 914.62605 129.864529 
L 932.166178 107.871352 
L 949.706307 69.187927 
" clip-path="url(#p63e38d13b0)" style="fill: none; stroke: #d9534f; stroke-linecap: square"/>
   </g>
   <g id="line2d_33">
    <path d="M 81.469943 51.995783 
L 90.240007 55.068532 
L 99.010072 53.019644 
L 107.780136 53.176604 
L 116.5502 53.15377 
L 125.320265 53.11645 
L 134.090329 53.331628 
L 142.860393 53.192218 
L 151.630457 53.057651 
L 160.400522 53.038578 
L 177.94065 52.893114 
L 195.480779 52.515588 
L 213.020907 51.931602 
L 230.561036 52.476333 
L 248.101164 55.688005 
L 265.641293 88.279085 
L 283.181422 131.802242 
L 300.72155 150.575496 
L 318.261679 152.92603 
L 335.801807 153.141643 
L 353.341936 140.062672 
L 370.882064 136.617548 
L 388.422193 148.938534 
L 405.962322 149.185886 
L 423.50245 151.612586 
L 441.042579 147.214555 
L 458.582707 135.923472 
L 476.122836 111.752853 
L 493.662964 99.098994 
L 511.203093 137.452363 
L 528.743221 139.947407 
L 546.28335 142.035117 
L 563.823479 164.433482 
L 581.363607 150.330199 
L 598.903736 154.476644 
L 616.443864 136.598661 
L 633.983993 141.167364 
L 651.524121 143.588739 
L 669.06425 140.649936 
L 686.604378 145.30505 
L 704.144507 141.13843 
L 721.684636 107.515999 
L 739.224764 82.308252 
L 756.764893 116.864352 
L 774.305021 128.233492 
L 791.84515 136.842419 
L 809.385278 136.881147 
L 826.925407 131.348528 
L 844.465535 132.654139 
L 862.005664 133.405428 
L 879.545793 127.480509 
L 897.085921 140.138384 
L 914.62605 131.432247 
L 932.166178 112.468273 
L 949.706307 61.444546 
" clip-path="url(#p63e38d13b0)" style="fill: none; stroke: #d9534f; stroke-linecap: square"/>
   </g>
   <g id="line2d_34">
    <path d="M 81.469943 50.029589 
L 90.240007 53.673056 
L 99.010072 51.38693 
L 107.780136 51.548848 
L 116.5502 51.518712 
L 125.320265 51.55555 
L 134.090329 51.797743 
L 142.860393 51.664064 
L 151.630457 51.601038 
L 160.400522 51.543148 
L 177.94065 51.437722 
L 195.480779 50.986711 
L 213.020907 50.328136 
L 230.561036 50.84298 
L 248.101164 53.619519 
L 265.641293 85.434762 
L 283.181422 129.669539 
L 300.72155 147.661109 
L 318.261679 149.539784 
L 335.801807 150.130371 
L 353.341936 139.359179 
L 370.882064 136.718973 
L 388.422193 146.611203 
L 405.962322 146.39459 
L 423.50245 149.142941 
L 441.042579 145.636373 
L 458.582707 134.693483 
L 476.122836 110.988386 
L 493.662964 98.481726 
L 511.203093 136.872376 
L 528.743221 137.791393 
L 546.28335 139.495177 
L 563.823479 161.623152 
L 581.363607 147.87739 
L 598.903736 151.55862 
L 616.443864 134.910887 
L 633.983993 138.812395 
L 651.524121 142.590398 
L 669.06425 140.110193 
L 686.604378 146.300402 
L 704.144507 138.205157 
L 721.684636 99.817582 
L 739.224764 75.337166 
L 756.764893 106.735854 
L 774.305021 119.222238 
L 791.84515 135.329749 
L 809.385278 140.157149 
L 826.925407 131.623107 
L 844.465535 132.398023 
L 862.005664 134.833207 
L 879.545793 130.512279 
L 897.085921 135.736699 
L 914.62605 128.190135 
L 932.166178 107.740804 
L 949.706307 64.225791 
" clip-path="url(#p63e38d13b0)" style="fill: none; stroke: #d9534f; stroke-linecap: square"/>
   </g>
   <g id="line2d_35">
    <path d="M 81.469943 51.929218 
L 90.240007 54.90141 
L 99.010072 52.843029 
L 107.780136 53.056963 
L 116.5502 52.930307 
L 125.320265 53.009638 
L 134.090329 53.208643 
L 142.860393 53.053241 
L 151.630457 53.061278 
L 160.400522 53.004926 
L 177.94065 52.894311 
L 195.480779 52.44621 
L 213.020907 51.841645 
L 230.561036 52.43708 
L 248.101164 55.638043 
L 265.641293 88.290888 
L 283.181422 133.416008 
L 300.72155 152.014396 
L 318.261679 154.327199 
L 335.801807 154.319477 
L 353.341936 140.111483 
L 370.882064 136.872581 
L 388.422193 150.180601 
L 405.962322 149.703451 
L 423.50245 152.732819 
L 441.042579 147.915804 
L 458.582707 135.598877 
L 476.122836 111.57185 
L 493.662964 99.701043 
L 511.203093 137.690019 
L 528.743221 141.021482 
L 546.28335 143.975748 
L 563.823479 166.974003 
L 581.363607 152.953504 
L 598.903736 155.998867 
L 616.443864 137.324107 
L 633.983993 142.412074 
L 651.524121 146.160864 
L 669.06425 143.683212 
L 686.604378 146.879613 
L 704.144507 142.083103 
L 721.684636 109.643189 
L 739.224764 83.326626 
L 756.764893 119.097849 
L 774.305021 128.640999 
L 791.84515 140.52082 
L 809.385278 141.295397 
L 826.925407 131.882381 
L 844.465535 134.593853 
L 862.005664 136.489008 
L 879.545793 133.81106 
L 897.085921 135.547875 
L 914.62605 132.106767 
L 932.166178 111.618706 
L 949.706307 60.414748 
" clip-path="url(#p63e38d13b0)" style="fill: none; stroke: #d9534f; stroke-linecap: square"/>
   </g>
   <g id="line2d_36">
    <path d="M 81.469943 52.204401 
L 90.240007 55.105863 
L 99.010072 52.991709 
L 107.780136 53.211221 
L 116.5502 53.194957 
L 125.320265 53.288856 
L 134.090329 53.492694 
L 142.860393 53.24923 
L 151.630457 53.221797 
L 160.400522 53.103681 
L 177.94065 53.041437 
L 195.480779 52.75234 
L 213.020907 52.225735 
L 230.561036 52.788583 
L 248.101164 55.926046 
L 265.641293 88.329165 
L 283.181422 132.557316 
L 300.72155 151.12027 
L 318.261679 153.58306 
L 335.801807 153.181337 
L 353.341936 138.727131 
L 370.882064 135.602477 
L 388.422193 148.043292 
L 405.962322 148.14072 
L 423.50245 152.201852 
L 441.042579 145.692447 
L 458.582707 133.118386 
L 476.122836 110.577345 
L 493.662964 98.772915 
L 511.203093 136.362155 
L 528.743221 139.780473 
L 546.28335 143.058854 
L 563.823479 164.838478 
L 581.363607 152.280655 
L 598.903736 155.388576 
L 616.443864 136.883611 
L 633.983993 141.054333 
L 651.524121 143.41808 
L 669.06425 141.613488 
L 686.604378 144.423161 
L 704.144507 139.731006 
L 721.684636 109.752037 
L 739.224764 81.877587 
L 756.764893 115.1229 
L 774.305021 133.412322 
L 791.84515 139.085663 
L 809.385278 143.865729 
L 826.925407 134.319703 
L 844.465535 138.273161 
L 862.005664 134.90448 
L 879.545793 134.029155 
L 897.085921 138.258631 
L 914.62605 132.854498 
L 932.166178 108.071865 
L 949.706307 58.875275 
" clip-path="url(#p63e38d13b0)" style="fill: none; stroke: #d9534f; stroke-linecap: square"/>
   </g>
   <g id="line2d_37">
    <path d="M 81.469943 52.307916 
L 90.240007 55.110051 
L 99.010072 53.001969 
L 107.780136 53.147543 
L 116.5502 53.214103 
L 125.320265 53.234675 
L 134.090329 53.420348 
L 142.860393 53.234808 
L 151.630457 53.160236 
L 160.400522 53.085132 
L 177.94065 52.992271 
L 195.480779 52.671894 
L 213.020907 52.155891 
L 230.561036 52.661558 
L 248.101164 55.73214 
L 265.641293 88.006718 
L 283.181422 131.937985 
L 300.72155 150.220127 
L 318.261679 153.419025 
L 335.801807 152.621275 
L 353.341936 137.981924 
L 370.882064 134.996025 
L 388.422193 147.516744 
L 405.962322 147.650181 
L 423.50245 151.595986 
L 441.042579 144.556334 
L 458.582707 132.127698 
L 476.122836 109.895339 
L 493.662964 98.253774 
L 511.203093 136.47639 
L 528.743221 139.643605 
L 546.28335 142.629366 
L 563.823479 163.614232 
L 581.363607 151.87105 
L 598.903736 155.367433 
L 616.443864 136.784772 
L 633.983993 140.179265 
L 651.524121 143.42707 
L 669.06425 140.554054 
L 686.604378 144.26749 
L 704.144507 141.031347 
L 721.684636 110.474773 
L 739.224764 80.409412 
L 756.764893 113.932032 
L 774.305021 126.840714 
L 791.84515 142.874463 
L 809.385278 142.814063 
L 826.925407 134.688486 
L 844.465535 128.967772 
L 862.005664 137.856679 
L 879.545793 137.983926 
L 897.085921 135.681373 
L 914.62605 138.108851 
L 932.166178 111.098048 
L 949.706307 59.584668 
" clip-path="url(#p63e38d13b0)" style="fill: none; stroke: #d9534f; stroke-linecap: square"/>
   </g>
   <g id="line2d_38">
    <path d="M 81.469943 51.405108 
L 90.240007 54.36289 
L 99.010072 52.193388 
L 107.780136 52.322055 
L 116.5502 52.3781 
L 125.320265 52.401754 
L 134.090329 52.570779 
L 142.860393 52.403651 
L 151.630457 52.320828 
L 160.400522 52.242814 
L 177.94065 52.105775 
L 195.480779 51.811602 
L 213.020907 51.236377 
L 230.561036 51.752949 
L 248.101164 54.652113 
L 265.641293 86.305739 
L 283.181422 131.427605 
L 300.72155 148.928384 
L 318.261679 151.784133 
L 335.801807 151.455422 
L 353.341936 137.713719 
L 370.882064 134.694716 
L 388.422193 147.561887 
L 405.962322 147.004045 
L 423.50245 150.518573 
L 441.042579 144.234392 
L 458.582707 131.841935 
L 476.122836 109.789051 
L 493.662964 98.884637 
L 511.203093 136.462123 
L 528.743221 138.400813 
L 546.28335 141.984423 
L 563.823479 163.351039 
L 581.363607 150.225046 
L 598.903736 153.500359 
L 616.443864 136.60963 
L 633.983993 140.301485 
L 651.524121 144.338424 
L 669.06425 141.942521 
L 686.604378 145.558215 
L 704.144507 138.859144 
L 721.684636 106.912578 
L 739.224764 79.959138 
L 756.764893 112.495489 
L 774.305021 122.946149 
L 791.84515 137.338059 
L 809.385278 137.434244 
L 826.925407 135.480093 
L 844.465535 139.988379 
L 862.005664 133.90054 
L 879.545793 138.098051 
L 897.085921 139.164815 
L 914.62605 132.921023 
L 932.166178 109.118585 
L 949.706307 64.896159 
" clip-path="url(#p63e38d13b0)" style="fill: none; stroke: #d9534f; stroke-linecap: square"/>
   </g>
   <g id="line2d_39">
    <path d="M 81.469943 51.429736 
L 90.240007 54.271959 
L 99.010072 52.099321 
L 107.780136 52.287597 
L 116.5502 52.281606 
L 125.320265 52.358584 
L 134.090329 52.557738 
L 142.860393 52.330821 
L 151.630457 52.275779 
L 160.400522 52.223436 
L 177.94065 52.141949 
L 195.480779 51.831216 
L 213.020907 51.205382 
L 230.561036 51.643792 
L 248.101164 54.422592 
L 265.641293 86.073658 
L 283.181422 130.643918 
L 300.72155 148.704039 
L 318.261679 150.424651 
L 335.801807 149.472629 
L 353.341936 136.921205 
L 370.882064 134.723485 
L 388.422193 145.549136 
L 405.962322 144.860013 
L 423.50245 148.351763 
L 441.042579 142.61959 
L 458.582707 131.097894 
L 476.122836 108.299634 
L 493.662964 97.009439 
L 511.203093 135.881215 
L 528.743221 139.964858 
L 546.28335 142.109301 
L 563.823479 162.513936 
L 581.363607 148.595744 
L 598.903736 152.40716 
L 616.443864 134.375735 
L 633.983993 138.782409 
L 651.524121 141.70901 
L 669.06425 137.812173 
L 686.604378 142.635728 
L 704.144507 139.076355 
L 721.684636 107.714882 
L 739.224764 75.651857 
L 756.764893 108.712508 
L 774.305021 120.170212 
L 791.84515 125.105287 
L 809.385278 133.669277 
L 826.925407 131.617381 
L 844.465535 125.878685 
L 862.005664 128.11216 
L 879.545793 133.754763 
L 897.085921 133.541931 
L 914.62605 130.89747 
L 932.166178 105.804992 
L 949.706307 63.482458 
" clip-path="url(#p63e38d13b0)" style="fill: none; stroke: #d9534f; stroke-linecap: square"/>
   </g>
   <g id="line2d_40">
    <path d="M 81.469943 52.009001 
L 90.240007 54.890634 
L 99.010072 52.707904 
L 107.780136 52.84141 
L 116.5502 52.844011 
L 125.320265 52.954709 
L 134.090329 53.145333 
L 142.860393 52.973625 
L 151.630457 52.924749 
L 160.400522 52.875033 
L 177.94065 52.81555 
L 195.480779 52.378445 
L 213.020907 51.7834 
L 230.561036 52.341244 
L 248.101164 55.457272 
L 265.641293 88.110301 
L 283.181422 132.810121 
L 300.72155 151.144676 
L 318.261679 153.289795 
L 335.801807 153.180503 
L 353.341936 139.98819 
L 370.882064 137.479712 
L 388.422193 148.047491 
L 405.962322 147.794969 
L 423.50245 151.677015 
L 441.042579 146.229891 
L 458.582707 134.681981 
L 476.122836 110.36535 
L 493.662964 98.984914 
L 511.203093 137.62706 
L 528.743221 140.542717 
L 546.28335 143.448185 
L 563.823479 164.87244 
L 581.363607 152.89508 
L 598.903736 157.118183 
L 616.443864 138.256503 
L 633.983993 141.667288 
L 651.524121 143.738409 
L 669.06425 139.975604 
L 686.604378 144.185389 
L 704.144507 139.870064 
L 721.684636 107.404641 
L 739.224764 76.112527 
L 756.764893 106.80145 
L 774.305021 115.558832 
L 791.84515 137.075962 
L 809.385278 133.639411 
L 826.925407 131.758484 
L 844.465535 132.858685 
L 862.005664 131.788897 
L 879.545793 130.492575 
L 897.085921 129.931351 
L 914.62605 125.560974 
L 932.166178 107.109059 
L 949.706307 60.842204 
" clip-path="url(#p63e38d13b0)" style="fill: none; stroke: #d9534f; stroke-linecap: square"/>
   </g>
   <g id="line2d_41">
    <path d="M 81.469943 51.542092 
L 90.240007 54.519407 
L 99.010072 52.43012 
L 107.780136 52.584284 
L 116.5502 52.56683 
L 125.320265 52.629741 
L 134.090329 52.81001 
L 142.860393 52.659276 
L 151.630457 52.648275 
L 160.400522 52.555041 
L 177.94065 52.447825 
L 195.480779 52.13334 
L 213.020907 51.590075 
L 230.561036 52.085907 
L 248.101164 55.092538 
L 265.641293 87.929519 
L 283.181422 132.943066 
L 300.72155 151.783479 
L 318.261679 153.71716 
L 335.801807 153.507352 
L 353.341936 138.727878 
L 370.882064 136.201875 
L 388.422193 148.254548 
L 405.962322 148.059894 
L 423.50245 152.288089 
L 441.042579 145.646599 
L 458.582707 132.95633 
L 476.122836 109.876531 
L 493.662964 98.067268 
L 511.203093 137.665023 
L 528.743221 140.226268 
L 546.28335 142.569679 
L 563.823479 165.197061 
L 581.363607 152.632781 
L 598.903736 154.492319 
L 616.443864 134.803987 
L 633.983993 138.024706 
L 651.524121 141.809798 
L 669.06425 140.268701 
L 686.604378 148.180108 
L 704.144507 142.703847 
L 721.684636 104.423451 
L 739.224764 76.305176 
L 756.764893 103.562627 
L 774.305021 121.533177 
L 791.84515 132.953355 
L 809.385278 128.930082 
L 826.925407 130.841094 
L 844.465535 131.558079 
L 862.005664 134.91646 
L 879.545793 132.403149 
L 897.085921 130.939419 
L 914.62605 126.38757 
L 932.166178 105.367165 
L 949.706307 60.822786 
" clip-path="url(#p63e38d13b0)" style="fill: none; stroke: #d9534f; stroke-linecap: square"/>
   </g>
   <g id="line2d_42">
    <path d="M 81.469943 52.387966 
L 90.240007 55.305961 
L 99.010072 53.206123 
L 107.780136 53.394321 
L 116.5502 53.385758 
L 125.320265 53.423662 
L 134.090329 53.665339 
L 142.860393 53.500717 
L 151.630457 53.496848 
L 160.400522 53.383957 
L 177.94065 53.31033 
L 195.480779 52.924154 
L 213.020907 52.329792 
L 230.561036 52.954886 
L 248.101164 56.201506 
L 265.641293 88.840852 
L 283.181422 132.73394 
L 300.72155 150.858741 
L 318.261679 153.707738 
L 335.801807 153.445659 
L 353.341936 138.864084 
L 370.882064 135.731599 
L 388.422193 147.915912 
L 405.962322 148.374233 
L 423.50245 152.186354 
L 441.042579 145.903034 
L 458.582707 133.958917 
L 476.122836 110.676016 
L 493.662964 98.439397 
L 511.203093 136.524148 
L 528.743221 140.389819 
L 546.28335 143.167075 
L 563.823479 165.215183 
L 581.363607 152.146929 
L 598.903736 155.276106 
L 616.443864 136.486472 
L 633.983993 140.973282 
L 651.524121 142.972631 
L 669.06425 140.591604 
L 686.604378 144.119851 
L 704.144507 139.658393 
L 721.684636 108.590006 
L 739.224764 75.390445 
L 756.764893 107.61531 
L 774.305021 127.608846 
L 791.84515 134.115086 
L 809.385278 136.948438 
L 826.925407 130.29276 
L 844.465535 135.083971 
L 862.005664 136.656395 
L 879.545793 137.512042 
L 897.085921 133.131003 
L 914.62605 128.083648 
L 932.166178 106.188509 
L 949.706307 61.931656 
" clip-path="url(#p63e38d13b0)" style="fill: none; stroke: #d9534f; stroke-linecap: square"/>
   </g>
   <g id="line2d_43">
    <path d="M 81.469943 52.244631 
L 90.240007 55.127407 
L 99.010072 53.114708 
L 107.780136 53.293857 
L 116.5502 53.271439 
L 125.320265 53.35559 
L 134.090329 53.52838 
L 142.860393 53.386011 
L 151.630457 53.295901 
L 160.400522 53.236838 
L 177.94065 53.138996 
L 195.480779 52.764605 
L 213.020907 52.201763 
L 230.561036 52.746735 
L 248.101164 55.862581 
L 265.641293 88.453605 
L 283.181422 133.054259 
L 300.72155 151.326937 
L 318.261679 153.961657 
L 335.801807 153.280128 
L 353.341936 138.856347 
L 370.882064 135.533094 
L 388.422193 148.025227 
L 405.962322 148.262239 
L 423.50245 152.376696 
L 441.042579 145.59047 
L 458.582707 133.219201 
L 476.122836 110.550989 
L 493.662964 98.190823 
L 511.203093 136.72212 
L 528.743221 140.007241 
L 546.28335 142.892741 
L 563.823479 164.50926 
L 581.363607 152.155132 
L 598.903736 155.495586 
L 616.443864 136.82019 
L 633.983993 141.092196 
L 651.524121 144.721503 
L 669.06425 141.123418 
L 686.604378 145.063843 
L 704.144507 141.412173 
L 721.684636 110.266596 
L 739.224764 76.44446 
L 756.764893 109.6886 
L 774.305021 126.844346 
L 791.84515 136.261369 
L 809.385278 142.969198 
L 826.925407 128.35907 
L 844.465535 136.47519 
L 862.005664 136.820609 
L 879.545793 135.449208 
L 897.085921 124.9063 
L 914.62605 133.060796 
L 932.166178 107.685015 
L 949.706307 57.589412 
" clip-path="url(#p63e38d13b0)" style="fill: none; stroke: #d9534f; stroke-linecap: square"/>
   </g>
   <g id="line2d_44">
    <path d="M 81.469943 49.738995 
L 90.240007 53.330991 
L 99.010072 51.047259 
L 107.780136 51.21492 
L 116.5502 51.216243 
L 125.320265 51.304699 
L 134.090329 51.515183 
L 142.860393 51.295246 
L 151.630457 51.297527 
L 160.400522 51.208742 
L 177.94065 51.121787 
L 195.480779 50.759647 
L 213.020907 50.068407 
L 230.561036 50.471583 
L 248.101164 53.083981 
L 265.641293 84.389224 
L 283.181422 129.272338 
L 300.72155 146.537721 
L 318.261679 147.639018 
L 335.801807 148.289073 
L 353.341936 136.489433 
L 370.882064 134.236943 
L 388.422193 144.897887 
L 405.962322 143.780434 
L 423.50245 147.640333 
L 441.042579 142.708018 
L 458.582707 131.397319 
L 476.122836 109.459732 
L 493.662964 97.784835 
L 511.203093 135.993111 
L 528.743221 136.031493 
L 546.28335 137.980453 
L 563.823479 159.267961 
L 581.363607 146.76362 
L 598.903736 150.334049 
L 616.443864 133.624999 
L 633.983993 137.187256 
L 651.524121 140.715577 
L 669.06425 138.711671 
L 686.604378 144.96154 
L 704.144507 136.663626 
L 721.684636 100.174933 
L 739.224764 74.648967 
L 756.764893 101.882311 
L 774.305021 121.595904 
L 791.84515 135.206206 
L 809.385278 136.655371 
L 826.925407 134.279857 
L 844.465535 134.731786 
L 862.005664 133.565056 
L 879.545793 139.107562 
L 897.085921 129.397818 
L 914.62605 130.329384 
L 932.166178 105.408919 
L 949.706307 63.967343 
" clip-path="url(#p63e38d13b0)" style="fill: none; stroke: #d9534f; stroke-linecap: square"/>
   </g>
   <g id="line2d_45">
    <path d="M 81.469943 51.538203 
L 90.240007 54.395162 
L 99.010072 52.282847 
L 107.780136 52.428065 
L 116.5502 52.437255 
L 125.320265 52.527748 
L 134.090329 52.70233 
L 142.860393 52.508256 
L 151.630457 52.472991 
L 160.400522 52.39132 
L 177.94065 52.311645 
L 195.480779 51.97634 
L 213.020907 51.414998 
L 230.561036 51.905369 
L 248.101164 54.85632 
L 265.641293 87.385958 
L 283.181422 133.110575 
L 300.72155 151.382777 
L 318.261679 152.866644 
L 335.801807 152.915129 
L 353.341936 138.17147 
L 370.882064 135.250132 
L 388.422193 148.577238 
L 405.962322 147.724823 
L 423.50245 151.565874 
L 441.042579 145.104937 
L 458.582707 132.858928 
L 476.122836 110.697395 
L 493.662964 98.983638 
L 511.203093 136.521496 
L 528.743221 139.420461 
L 546.28335 143.085274 
L 563.823479 165.259101 
L 581.363607 152.70539 
L 598.903736 154.405182 
L 616.443864 136.83787 
L 633.983993 141.059319 
L 651.524121 145.755952 
L 669.06425 143.249643 
L 686.604378 146.373934 
L 704.144507 141.077405 
L 721.684636 110.316829 
L 739.224764 81.113496 
L 756.764893 117.215366 
L 774.305021 133.256409 
L 791.84515 140.554091 
L 809.385278 145.900652 
L 826.925407 133.699435 
L 844.465535 134.714818 
L 862.005664 139.037682 
L 879.545793 141.385135 
L 897.085921 136.342572 
L 914.62605 135.038014 
L 932.166178 109.548678 
L 949.706307 57.86534 
" clip-path="url(#p63e38d13b0)" style="fill: none; stroke: #d9534f; stroke-linecap: square"/>
   </g>
   <g id="line2d_46">
    <path d="M 81.469943 52.099527 
L 90.240007 55.014084 
L 99.010072 52.917604 
L 107.780136 53.063257 
L 116.5502 53.027006 
L 125.320265 53.068941 
L 134.090329 53.216244 
L 142.860393 53.038469 
L 151.630457 53.00565 
L 160.400522 52.897826 
L 177.94065 52.781473 
L 195.480779 52.441515 
L 213.020907 51.867319 
L 230.561036 52.441945 
L 248.101164 55.652147 
L 265.641293 88.173978 
L 283.181422 132.448789 
L 300.72155 150.326284 
L 318.261679 152.305982 
L 335.801807 152.309227 
L 353.341936 138.750155 
L 370.882064 135.490891 
L 388.422193 148.721715 
L 405.962322 148.690811 
L 423.50245 151.740398 
L 441.042579 146.252183 
L 458.582707 134.240131 
L 476.122836 110.972557 
L 493.662964 99.594415 
L 511.203093 137.720943 
L 528.743221 139.8196 
L 546.28335 141.858576 
L 563.823479 164.132532 
L 581.363607 150.967058 
L 598.903736 155.575245 
L 616.443864 136.680102 
L 633.983993 141.252146 
L 651.524121 144.399831 
L 669.06425 141.949484 
L 686.604378 145.855814 
L 704.144507 139.525111 
L 721.684636 106.645607 
L 739.224764 82.483365 
L 756.764893 116.848794 
L 774.305021 132.459735 
L 791.84515 144.688339 
L 809.385278 144.747938 
L 826.925407 137.202561 
L 844.465535 134.844716 
L 862.005664 135.574519 
L 879.545793 134.251958 
L 897.085921 134.37916 
L 914.62605 134.581602 
L 932.166178 105.891699 
L 949.706307 55.209528 
" clip-path="url(#p63e38d13b0)" style="fill: none; stroke: #d9534f; stroke-linecap: square"/>
   </g>
   <g id="line2d_47">
    <path d="M 81.469943 50.796511 
L 90.240007 53.972775 
L 99.010072 51.822933 
L 107.780136 51.907914 
L 116.5502 51.995041 
L 125.320265 52.067692 
L 134.090329 52.182289 
L 142.860393 52.031687 
L 151.630457 51.907118 
L 160.400522 51.839546 
L 177.94065 51.768669 
L 195.480779 51.453182 
L 213.020907 50.908642 
L 230.561036 51.296791 
L 248.101164 54.045306 
L 265.641293 85.829063 
L 283.181422 130.654345 
L 300.72155 148.331489 
L 318.261679 149.869738 
L 335.801807 150.324571 
L 353.341936 136.412753 
L 370.882064 134.601806 
L 388.422193 146.55318 
L 405.962322 145.704772 
L 423.50245 149.50104 
L 441.042579 143.403966 
L 458.582707 131.73183 
L 476.122836 110.24333 
L 493.662964 97.97853 
L 511.203093 135.483941 
L 528.743221 137.322791 
L 546.28335 139.751934 
L 563.823479 161.481761 
L 581.363607 149.487509 
L 598.903736 152.205823 
L 616.443864 134.670438 
L 633.983993 138.454752 
L 651.524121 140.425318 
L 669.06425 137.182854 
L 686.604378 142.821952 
L 704.144507 140.587866 
L 721.684636 107.066302 
L 739.224764 80.88399 
L 756.764893 116.837995 
L 774.305021 134.685817 
L 791.84515 142.464883 
L 809.385278 136.999541 
L 826.925407 137.614943 
L 844.465535 136.973608 
L 862.005664 132.361577 
L 879.545793 136.595564 
L 897.085921 139.183474 
L 914.62605 134.427731 
L 932.166178 115.075289 
L 949.706307 63.764246 
" clip-path="url(#p63e38d13b0)" style="fill: none; stroke: #d9534f; stroke-linecap: square"/>
   </g>
   <g id="line2d_48">
    <path d="M 81.469943 52.454176 
L 90.240007 55.156329 
L 99.010072 52.342953 
L 107.780136 55.041028 
L 116.5502 52.294515 
L 125.320265 53.902047 
L 134.090329 52.850157 
L 142.860393 52.79032 
L 151.630457 52.536429 
L 160.400522 52.401825 
L 169.170586 52.531357 
L 177.94065 52.341591 
L 186.710715 52.224424 
L 195.480779 51.943805 
L 204.250843 52.012229 
L 213.020907 51.928051 
L 221.790972 54.013152 
L 230.561036 53.268902 
L 239.3311 52.060026 
L 248.101164 53.558618 
L 256.871229 55.898681 
L 265.641293 54.668958 
L 274.411357 70.643803 
L 283.181422 72.104323 
L 291.951486 61.844411 
L 300.72155 60.112447 
L 309.491614 47.616699 
L 318.261679 54.230552 
L 327.031743 56.663808 
L 335.801807 62.722191 
L 344.571872 57.530072 
L 353.341936 57.42582 
L 362.112 57.084574 
L 370.882064 56.897427 
L 379.652129 56.890623 
L 388.422193 56.87625 
L 397.192257 56.512823 
L 405.962322 56.359417 
L 414.732386 55.647169 
L 423.50245 55.764295 
L 432.272514 54.865062 
L 441.042579 54.572728 
L 449.812643 54.295598 
L 458.582707 54.096696 
L 467.352771 51.966449 
L 476.122836 50.211293 
L 484.8929 54.310426 
L 493.662964 53.006239 
L 502.433029 58.188747 
L 511.203093 52.039574 
L 519.973157 41.582706 
" clip-path="url(#p63e38d13b0)" style="fill: none; stroke: #5cb85c; stroke-linecap: square"/>
   </g>
   <g id="line2d_49">
    <path d="M 81.469943 54.080411 
L 90.240007 56.804774 
L 99.010072 54.035698 
L 107.780136 56.725531 
L 116.5502 54.009842 
L 125.320265 55.602176 
L 134.090329 54.489364 
L 142.860393 54.496082 
L 151.630457 54.21814 
L 160.400522 54.041412 
L 169.170586 54.179093 
L 177.94065 53.955534 
L 186.710715 53.81986 
L 195.480779 53.563403 
L 204.250843 53.602846 
L 213.020907 53.550147 
L 221.790972 55.616572 
L 230.561036 54.969762 
L 239.3311 53.972393 
L 248.101164 55.711392 
L 256.871229 58.219565 
L 265.641293 57.124997 
L 274.411357 73.910766 
L 283.181422 75.136404 
L 291.951486 65.501882 
L 300.72155 63.506013 
L 309.491614 48.246536 
L 318.261679 55.138044 
L 327.031743 57.731471 
L 335.801807 63.485172 
L 344.571872 58.571977 
L 353.341936 58.319236 
L 362.112 57.740346 
L 370.882064 57.842337 
L 379.652129 57.767749 
L 388.422193 57.951978 
L 397.192257 57.368585 
L 405.962322 57.251433 
L 414.732386 56.774872 
L 423.50245 56.642683 
L 432.272514 55.952587 
L 441.042579 55.403934 
L 449.812643 55.136919 
L 458.582707 54.699766 
L 467.352771 52.392828 
L 476.122836 50.711619 
L 484.8929 54.302386 
L 493.662964 53.180968 
L 502.433029 58.166524 
L 511.203093 52.163355 
L 519.973157 41.653591 
" clip-path="url(#p63e38d13b0)" style="fill: none; stroke: #5cb85c; stroke-linecap: square"/>
   </g>
   <g id="line2d_50">
    <path d="M 81.469943 52.901197 
L 90.240007 55.659327 
L 99.010072 52.851601 
L 107.780136 55.527525 
L 116.5502 52.824415 
L 125.320265 54.403332 
L 134.090329 53.329879 
L 142.860393 53.282656 
L 151.630457 53.031822 
L 160.400522 52.889274 
L 169.170586 53.007419 
L 177.94065 52.796353 
L 186.710715 52.667141 
L 195.480779 52.412083 
L 204.250843 52.452429 
L 213.020907 52.410207 
L 221.790972 54.489245 
L 230.561036 53.76022 
L 239.3311 52.649825 
L 248.101164 54.278231 
L 256.871229 56.70914 
L 265.641293 55.405711 
L 274.411357 71.839949 
L 283.181422 73.105118 
L 291.951486 62.869254 
L 300.72155 61.186804 
L 309.491614 47.743633 
L 318.261679 54.631388 
L 327.031743 57.086354 
L 335.801807 62.703113 
L 344.571872 57.846124 
L 353.341936 57.531944 
L 362.112 57.08933 
L 370.882064 57.255317 
L 379.652129 57.094208 
L 388.422193 57.10258 
L 397.192257 56.818453 
L 405.962322 56.481182 
L 414.732386 55.940432 
L 423.50245 55.93835 
L 432.272514 55.260955 
L 441.042579 54.973176 
L 449.812643 54.519107 
L 458.582707 53.996482 
L 467.352771 52.018986 
L 476.122836 50.370613 
L 484.8929 54.024106 
L 493.662964 53.057706 
L 502.433029 57.855741 
L 511.203093 51.859354 
L 519.973157 41.602057 
" clip-path="url(#p63e38d13b0)" style="fill: none; stroke: #5cb85c; stroke-linecap: square"/>
   </g>
   <g id="line2d_51">
    <path d="M 81.469943 54.034115 
L 90.240007 56.679756 
L 99.010072 53.871717 
L 107.780136 56.537227 
L 116.5502 53.730288 
L 125.320265 55.365539 
L 134.090329 54.269277 
L 142.860393 54.169255 
L 151.630457 53.904191 
L 160.400522 53.735268 
L 169.170586 53.782722 
L 177.94065 53.633309 
L 186.710715 53.604578 
L 195.480779 53.406729 
L 204.250843 53.479174 
L 213.020907 53.504557 
L 221.790972 55.772585 
L 230.561036 55.137298 
L 239.3311 54.235214 
L 248.101164 56.078231 
L 256.871229 58.411162 
L 265.641293 56.995221 
L 274.411357 72.296576 
L 283.181422 73.681159 
L 291.951486 64.396528 
L 300.72155 62.256392 
L 309.491614 48.253724 
L 318.261679 55.196579 
L 327.031743 57.601587 
L 335.801807 63.23968 
L 344.571872 58.388439 
L 353.341936 57.972958 
L 362.112 57.547328 
L 370.882064 57.590936 
L 379.652129 57.334718 
L 388.422193 57.671462 
L 397.192257 57.256028 
L 405.962322 57.01999 
L 414.732386 56.627696 
L 423.50245 57.009073 
L 432.272514 56.190766 
L 441.042579 55.59497 
L 449.812643 55.497548 
L 458.582707 55.126547 
L 467.352771 52.918498 
L 476.122836 51.024433 
L 484.8929 55.208066 
L 493.662964 54.111272 
L 502.433029 59.717555 
L 511.203093 53.272718 
L 519.973157 42.562103 
" clip-path="url(#p63e38d13b0)" style="fill: none; stroke: #5cb85c; stroke-linecap: square"/>
   </g>
   <g id="line2d_52">
    <path d="M 81.469943 52.97993 
L 90.240007 55.641089 
L 99.010072 52.800146 
L 107.780136 55.474928 
L 116.5502 52.747078 
L 125.320265 54.380237 
L 134.090329 53.199741 
L 142.860393 53.166297 
L 151.630457 52.902188 
L 160.400522 52.713422 
L 169.170586 52.746762 
L 177.94065 52.607596 
L 186.710715 52.581351 
L 195.480779 52.407547 
L 204.250843 52.447578 
L 213.020907 52.51808 
L 221.790972 54.726072 
L 230.561036 54.089884 
L 239.3311 53.002015 
L 248.101164 54.770127 
L 256.871229 57.124249 
L 265.641293 55.600977 
L 274.411357 70.681729 
L 283.181422 72.096942 
L 291.951486 62.379933 
L 300.72155 60.495736 
L 309.491614 47.846829 
L 318.261679 54.607797 
L 327.031743 57.012032 
L 335.801807 62.747382 
L 344.571872 57.865898 
L 353.341936 57.469347 
L 362.112 57.197617 
L 370.882064 56.946395 
L 379.652129 57.038132 
L 388.422193 56.964268 
L 397.192257 56.607003 
L 405.962322 56.515323 
L 414.732386 56.097024 
L 423.50245 56.333063 
L 432.272514 55.572728 
L 441.042579 55.26321 
L 449.812643 54.961219 
L 458.582707 54.572356 
L 467.352771 52.69391 
L 476.122836 50.84824 
L 484.8929 54.977913 
L 493.662964 54.007684 
L 502.433029 59.434365 
L 511.203093 53.010342 
L 519.973157 42.450048 
" clip-path="url(#p63e38d13b0)" style="fill: none; stroke: #5cb85c; stroke-linecap: square"/>
   </g>
   <g id="line2d_53">
    <path d="M 81.469943 53.149614 
L 90.240007 55.764076 
L 99.010072 52.955292 
L 107.780136 55.686203 
L 116.5502 52.870247 
L 125.320265 54.491507 
L 134.090329 53.414402 
L 142.860393 53.309369 
L 151.630457 53.076049 
L 160.400522 52.909797 
L 169.170586 52.945911 
L 177.94065 52.776515 
L 186.710715 52.786287 
L 195.480779 52.604744 
L 204.250843 52.662873 
L 213.020907 52.762402 
L 221.790972 54.963152 
L 230.561036 54.34892 
L 239.3311 53.28105 
L 248.101164 55.098202 
L 256.871229 57.412981 
L 265.641293 55.930503 
L 274.411357 71.136687 
L 283.181422 72.483369 
L 291.951486 62.850329 
L 300.72155 60.902726 
L 309.491614 48.009274 
L 318.261679 54.916361 
L 327.031743 57.130019 
L 335.801807 62.859828 
L 344.571872 57.743295 
L 353.341936 57.555554 
L 362.112 57.09948 
L 370.882064 57.092311 
L 379.652129 57.033468 
L 388.422193 57.103077 
L 397.192257 56.636962 
L 405.962322 56.722709 
L 414.732386 56.25953 
L 423.50245 56.39394 
L 432.272514 55.797786 
L 441.042579 55.196065 
L 449.812643 55.089019 
L 458.582707 54.84334 
L 467.352771 52.661908 
L 476.122836 50.80766 
L 484.8929 55.367674 
L 493.662964 54.145023 
L 502.433029 59.721032 
L 511.203093 53.401434 
L 519.973157 42.610298 
" clip-path="url(#p63e38d13b0)" style="fill: none; stroke: #5cb85c; stroke-linecap: square"/>
   </g>
   <g id="line2d_54">
    <path d="M 81.469943 53.125099 
L 90.240007 55.862195 
L 99.010072 53.047837 
L 107.780136 55.699946 
L 116.5502 53.014715 
L 125.320265 54.593935 
L 134.090329 53.525578 
L 142.860393 53.475242 
L 151.630457 53.198461 
L 160.400522 53.089202 
L 169.170586 53.147626 
L 177.94065 52.96064 
L 186.710715 52.875782 
L 195.480779 52.647061 
L 204.250843 52.646693 
L 213.020907 52.605458 
L 221.790972 54.743068 
L 230.561036 54.060641 
L 239.3311 52.968432 
L 248.101164 54.661309 
L 256.871229 56.944593 
L 265.641293 55.605309 
L 274.411357 71.641385 
L 283.181422 72.952968 
L 291.951486 63.040298 
L 300.72155 61.347856 
L 309.491614 47.719787 
L 318.261679 54.815403 
L 327.031743 57.221941 
L 335.801807 62.806183 
L 344.571872 57.771347 
L 353.341936 57.42281 
L 362.112 57.309275 
L 370.882064 57.127638 
L 379.652129 57.245828 
L 388.422193 57.302996 
L 397.192257 56.677344 
L 405.962322 56.46636 
L 414.732386 55.935324 
L 423.50245 56.113731 
L 432.272514 55.48087 
L 441.042579 54.949723 
L 449.812643 54.461077 
L 458.582707 54.296607 
L 467.352771 51.971827 
L 476.122836 50.185286 
L 484.8929 54.000614 
L 493.662964 52.962295 
L 502.433029 57.842171 
L 511.203093 52.00106 
L 519.973157 41.656422 
" clip-path="url(#p63e38d13b0)" style="fill: none; stroke: #5cb85c; stroke-linecap: square"/>
   </g>
   <g id="line2d_55">
    <path d="M 81.469943 52.586989 
L 90.240007 55.372324 
L 99.010072 52.507955 
L 107.780136 55.24569 
L 116.5502 52.519592 
L 125.320265 54.062658 
L 134.090329 53.024739 
L 142.860393 52.957609 
L 151.630457 52.740295 
L 160.400522 52.544662 
L 169.170586 52.609114 
L 177.94065 52.413927 
L 186.710715 52.347372 
L 195.480779 52.091193 
L 204.250843 52.148063 
L 213.020907 52.091945 
L 221.790972 54.237547 
L 230.561036 53.488929 
L 239.3311 52.352026 
L 248.101164 54.020869 
L 256.871229 56.170762 
L 265.641293 54.741805 
L 274.411357 70.640181 
L 283.181422 71.791247 
L 291.951486 61.718665 
L 300.72155 59.894973 
L 309.491614 47.466279 
L 318.261679 54.179308 
L 327.031743 56.908508 
L 335.801807 62.514696 
L 344.571872 57.521599 
L 353.341936 57.097227 
L 362.112 56.669248 
L 370.882064 56.918473 
L 379.652129 56.598697 
L 388.422193 56.602212 
L 397.192257 56.111591 
L 405.962322 55.972381 
L 414.732386 55.600038 
L 423.50245 55.765931 
L 432.272514 55.096734 
L 441.042579 54.625276 
L 449.812643 54.476788 
L 458.582707 54.096886 
L 467.352771 51.744387 
L 476.122836 50.180005 
L 484.8929 53.902234 
L 493.662964 52.747663 
L 502.433029 57.824805 
L 511.203093 51.800855 
L 519.973157 41.667659 
" clip-path="url(#p63e38d13b0)" style="fill: none; stroke: #5cb85c; stroke-linecap: square"/>
   </g>
   <g id="line2d_56">
    <path d="M 81.469943 53.578655 
L 90.240007 56.324076 
L 99.010072 53.446422 
L 107.780136 56.153471 
L 116.5502 53.422016 
L 125.320265 54.976758 
L 134.090329 53.930316 
L 142.860393 53.902333 
L 151.630457 53.6019 
L 160.400522 53.505162 
L 169.170586 53.57702 
L 177.94065 53.370182 
L 186.710715 53.277331 
L 195.480779 53.009912 
L 204.250843 53.062683 
L 213.020907 52.969282 
L 221.790972 55.12712 
L 230.561036 54.372524 
L 239.3311 53.382909 
L 248.101164 55.02453 
L 256.871229 57.37502 
L 265.641293 56.004492 
L 274.411357 72.477774 
L 283.181422 73.732972 
L 291.951486 63.763278 
L 300.72155 62.126322 
L 309.491614 48.065287 
L 318.261679 54.912636 
L 327.031743 57.932115 
L 335.801807 63.470798 
L 344.571872 58.743523 
L 353.341936 58.423041 
L 362.112 58.117732 
L 370.882064 58.092445 
L 379.652129 57.951582 
L 388.422193 57.860903 
L 397.192257 57.51007 
L 405.962322 57.103223 
L 414.732386 56.714209 
L 423.50245 56.733159 
L 432.272514 56.259412 
L 441.042579 55.51839 
L 449.812643 55.409065 
L 458.582707 55.113693 
L 467.352771 52.539799 
L 476.122836 51.243524 
L 484.8929 54.627351 
L 493.662964 53.731703 
L 502.433029 58.179284 
L 511.203093 52.558962 
L 519.973157 41.771586 
" clip-path="url(#p63e38d13b0)" style="fill: none; stroke: #5cb85c; stroke-linecap: square"/>
   </g>
   <g id="line2d_57">
    <path d="M 81.469943 53.235004 
L 90.240007 56.232395 
L 99.010072 53.440671 
L 107.780136 56.119359 
L 116.5502 53.444236 
L 125.320265 55.066661 
L 134.090329 53.921408 
L 142.860393 53.908034 
L 151.630457 53.64424 
L 160.400522 53.42958 
L 169.170586 53.553734 
L 177.94065 53.386105 
L 186.710715 53.289943 
L 195.480779 53.045305 
L 204.250843 53.06464 
L 213.020907 53.056694 
L 221.790972 55.077164 
L 230.561036 54.440609 
L 239.3311 53.410517 
L 248.101164 55.102863 
L 256.871229 57.285541 
L 265.641293 55.944034 
L 274.411357 71.78347 
L 283.181422 72.65941 
L 291.951486 63.504026 
L 300.72155 61.82762 
L 309.491614 47.657344 
L 318.261679 55.360274 
L 327.031743 57.991576 
L 335.801807 63.823622 
L 344.571872 58.616013 
L 353.341936 58.213759 
L 362.112 57.808219 
L 370.882064 57.974127 
L 379.652129 57.781472 
L 388.422193 58.10136 
L 397.192257 57.570785 
L 405.962322 57.368909 
L 414.732386 56.85515 
L 423.50245 56.764839 
L 432.272514 56.191507 
L 441.042579 55.640962 
L 449.812643 55.464647 
L 458.582707 55.066256 
L 467.352771 52.4539 
L 476.122836 51.112842 
L 484.8929 54.611922 
L 493.662964 53.621199 
L 502.433029 58.450881 
L 511.203093 52.542111 
L 519.973157 41.729721 
" clip-path="url(#p63e38d13b0)" style="fill: none; stroke: #5cb85c; stroke-linecap: square"/>
   </g>
   <g id="line2d_58">
    <path d="M 81.469943 52.757186 
L 90.240007 55.465627 
L 99.010072 52.609345 
L 107.780136 55.326014 
L 116.5502 52.609037 
L 125.320265 54.208658 
L 134.090329 53.087798 
L 142.860393 53.081436 
L 151.630457 52.798276 
L 160.400522 52.651433 
L 169.170586 52.749258 
L 177.94065 52.553402 
L 186.710715 52.440322 
L 195.480779 52.208393 
L 204.250843 52.25091 
L 213.020907 52.2268 
L 221.790972 54.37037 
L 230.561036 53.644574 
L 239.3311 52.465833 
L 248.101164 54.115908 
L 256.871229 56.33393 
L 265.641293 54.815887 
L 274.411357 70.186639 
L 283.181422 71.459337 
L 291.951486 61.64668 
L 300.72155 59.891297 
L 309.491614 47.394805 
L 318.261679 54.004436 
L 327.031743 56.884988 
L 335.801807 62.285895 
L 344.571872 57.660274 
L 353.341936 57.538103 
L 362.112 57.100009 
L 370.882064 56.869035 
L 379.652129 56.981035 
L 388.422193 57.059736 
L 397.192257 56.585323 
L 405.962322 56.401809 
L 414.732386 55.796288 
L 423.50245 55.949012 
L 432.272514 55.302102 
L 441.042579 54.865546 
L 449.812643 54.387611 
L 458.582707 54.343807 
L 467.352771 51.801528 
L 476.122836 50.199546 
L 484.8929 54.149856 
L 493.662964 52.996818 
L 502.433029 57.679703 
L 511.203093 51.879847 
L 519.973157 41.632707 
" clip-path="url(#p63e38d13b0)" style="fill: none; stroke: #5cb85c; stroke-linecap: square"/>
   </g>
   <g id="line2d_59">
    <path d="M 81.469943 52.340015 
L 90.240007 55.214087 
L 99.010072 52.434586 
L 107.780136 55.140927 
L 116.5502 52.354278 
L 125.320265 53.992489 
L 134.090329 52.869008 
L 142.860393 52.776301 
L 151.630457 52.519052 
L 160.400522 52.373495 
L 169.170586 52.456298 
L 177.94065 52.301092 
L 186.710715 52.261834 
L 195.480779 52.097415 
L 204.250843 52.132729 
L 213.020907 52.213025 
L 221.790972 54.378374 
L 230.561036 53.694641 
L 239.3311 52.540407 
L 248.101164 54.252679 
L 256.871229 56.58231 
L 265.641293 55.105249 
L 274.411357 70.138936 
L 283.181422 71.931837 
L 291.951486 61.687611 
L 300.72155 59.819466 
L 309.491614 47.500404 
L 318.261679 54.787153 
L 327.031743 56.934306 
L 335.801807 62.731526 
L 344.571872 57.528827 
L 353.341936 57.225957 
L 362.112 57.047969 
L 370.882064 56.917889 
L 379.652129 56.760828 
L 388.422193 57.147253 
L 397.192257 56.75145 
L 405.962322 56.60211 
L 414.732386 56.11686 
L 423.50245 56.108918 
L 432.272514 55.603458 
L 441.042579 54.848697 
L 449.812643 54.849842 
L 458.582707 54.940383 
L 467.352771 52.826803 
L 476.122836 50.818634 
L 484.8929 55.271023 
L 493.662964 54.071959 
L 502.433029 59.88522 
L 511.203093 52.72431 
L 519.973157 42.097981 
" clip-path="url(#p63e38d13b0)" style="fill: none; stroke: #5cb85c; stroke-linecap: square"/>
   </g>
   <g id="line2d_60">
    <path d="M 38.058125 353.2239 
L 993.118125 353.2239 
" clip-path="url(#p63e38d13b0)" style="fill: none; stroke: #dedede; stroke-width: 2; stroke-linecap: square"/>
   </g>
   <g id="text_16">
    <!-- FastQC: Mean Quality Scores -->
    <g transform="translate(400.349375 19.3575) scale(0.16 -0.16)">
     <defs>
      <path id="DejaVuSans-46" d="M 628 4666 
L 3309 4666 
L 3309 4134 
L 1259 4134 
L 1259 2759 
L 3109 2759 
L 3109 2228 
L 1259 2228 
L 1259 0 
L 628 0 
L 628 4666 
z
" transform="scale(0.015625)"/>
      <path id="DejaVuSans-61" d="M 2194 1759 
Q 1497 1759 1228 1600 
Q 959 1441 959 1056 
Q 959 750 1161 570 
Q 1363 391 1709 391 
Q 2188 391 2477 730 
Q 2766 1069 2766 1631 
L 2766 1759 
L 2194 1759 
z
M 3341 1997 
L 3341 0 
L 2766 0 
L 2766 531 
Q 2569 213 2275 61 
Q 1981 -91 1556 -91 
Q 1019 -91 701 211 
Q 384 513 384 1019 
Q 384 1609 779 1909 
Q 1175 2209 1959 2209 
L 2766 2209 
L 2766 2266 
Q 2766 2663 2505 2880 
Q 2244 3097 1772 3097 
Q 1472 3097 1187 3025 
Q 903 2953 641 2809 
L 641 3341 
Q 956 3463 1253 3523 
Q 1550 3584 1831 3584 
Q 2591 3584 2966 3190 
Q 3341 2797 3341 1997 
z
" transform="scale(0.015625)"/>
      <path id="DejaVuSans-51" d="M 2522 4238 
Q 1834 4238 1429 3725 
Q 1025 3213 1025 2328 
Q 1025 1447 1429 934 
Q 1834 422 2522 422 
Q 3209 422 3611 934 
Q 4013 1447 4013 2328 
Q 4013 3213 3611 3725 
Q 3209 4238 2522 4238 
z
M 3406 84 
L 4238 -825 
L 3475 -825 
L 2784 -78 
Q 2681 -84 2626 -87 
Q 2572 -91 2522 -91 
Q 1538 -91 948 567 
Q 359 1225 359 2328 
Q 359 3434 948 4092 
Q 1538 4750 2522 4750 
Q 3503 4750 4090 4092 
Q 4678 3434 4678 2328 
Q 4678 1516 4351 937 
Q 4025 359 3406 84 
z
" transform="scale(0.015625)"/>
      <path id="DejaVuSans-43" d="M 4122 4306 
L 4122 3641 
Q 3803 3938 3442 4084 
Q 3081 4231 2675 4231 
Q 1875 4231 1450 3742 
Q 1025 3253 1025 2328 
Q 1025 1406 1450 917 
Q 1875 428 2675 428 
Q 3081 428 3442 575 
Q 3803 722 4122 1019 
L 4122 359 
Q 3791 134 3420 21 
Q 3050 -91 2638 -91 
Q 1578 -91 968 557 
Q 359 1206 359 2328 
Q 359 3453 968 4101 
Q 1578 4750 2638 4750 
Q 3056 4750 3426 4639 
Q 3797 4528 4122 4306 
z
" transform="scale(0.015625)"/>
      <path id="DejaVuSans-3a" d="M 750 794 
L 1409 794 
L 1409 0 
L 750 0 
L 750 794 
z
M 750 3309 
L 1409 3309 
L 1409 2516 
L 750 2516 
L 750 3309 
z
" transform="scale(0.015625)"/>
      <path id="DejaVuSans-4d" d="M 628 4666 
L 1569 4666 
L 2759 1491 
L 3956 4666 
L 4897 4666 
L 4897 0 
L 4281 0 
L 4281 4097 
L 3078 897 
L 2444 897 
L 1241 4097 
L 1241 0 
L 628 0 
L 628 4666 
z
" transform="scale(0.015625)"/>
      <path id="DejaVuSans-75" d="M 544 1381 
L 544 3500 
L 1119 3500 
L 1119 1403 
Q 1119 906 1312 657 
Q 1506 409 1894 409 
Q 2359 409 2629 706 
Q 2900 1003 2900 1516 
L 2900 3500 
L 3475 3500 
L 3475 0 
L 2900 0 
L 2900 538 
Q 2691 219 2414 64 
Q 2138 -91 1772 -91 
Q 1169 -91 856 284 
Q 544 659 544 1381 
z
M 1991 3584 
L 1991 3584 
z
" transform="scale(0.015625)"/>
      <path id="DejaVuSans-6c" d="M 603 4863 
L 1178 4863 
L 1178 0 
L 603 0 
L 603 4863 
z
" transform="scale(0.015625)"/>
      <path id="DejaVuSans-79" d="M 2059 -325 
Q 1816 -950 1584 -1140 
Q 1353 -1331 966 -1331 
L 506 -1331 
L 506 -850 
L 844 -850 
Q 1081 -850 1212 -737 
Q 1344 -625 1503 -206 
L 1606 56 
L 191 3500 
L 800 3500 
L 1894 763 
L 2988 3500 
L 3597 3500 
L 2059 -325 
z
" transform="scale(0.015625)"/>
     </defs>
     <use xlink:href="#DejaVuSans-46"/>
     <use xlink:href="#DejaVuSans-61" x="48.394531"/>
     <use xlink:href="#DejaVuSans-73" x="109.673828"/>
     <use xlink:href="#DejaVuSans-74" x="161.773438"/>
     <use xlink:href="#DejaVuSans-51" x="200.982422"/>
     <use xlink:href="#DejaVuSans-43" x="279.693359"/>
     <use xlink:href="#DejaVuSans-3a" x="349.517578"/>
     <use xlink:href="#DejaVuSans-20" x="383.208984"/>
     <use xlink:href="#DejaVuSans-4d" x="414.996094"/>
     <use xlink:href="#DejaVuSans-65" x="501.275391"/>
     <use xlink:href="#DejaVuSans-61" x="562.798828"/>
     <use xlink:href="#DejaVuSans-6e" x="624.078125"/>
     <use xlink:href="#DejaVuSans-20" x="687.457031"/>
     <use xlink:href="#DejaVuSans-51" x="719.244141"/>
     <use xlink:href="#DejaVuSans-75" x="797.955078"/>
     <use xlink:href="#DejaVuSans-61" x="861.333984"/>
     <use xlink:href="#DejaVuSans-6c" x="922.613281"/>
     <use xlink:href="#DejaVuSans-69" x="950.396484"/>
     <use xlink:href="#DejaVuSans-74" x="978.179688"/>
     <use xlink:href="#DejaVuSans-79" x="1017.388672"/>
     <use xlink:href="#DejaVuSans-20" x="1076.568359"/>
     <use xlink:href="#DejaVuSans-53" x="1108.355469"/>
     <use xlink:href="#DejaVuSans-63" x="1171.832031"/>
     <use xlink:href="#DejaVuSans-6f" x="1226.8125"/>
     <use xlink:href="#DejaVuSans-72" x="1287.994141"/>
     <use xlink:href="#DejaVuSans-65" x="1326.857422"/>
     <use xlink:href="#DejaVuSans-73" x="1388.380859"/>
    </g>
   </g>
  </g>
 </g>
 <defs>
  <clipPath id="p63e38d13b0">
   <rect x="38.058125" y="35.2559" width="955.06" height="317.968"/>
  </clipPath>
 </defs>
</svg>
