<?xml version="1.0" encoding="utf-8" standalone="no"?>
<!DOCTYPE svg PUBLIC "-//W3C//DTD SVG 1.1//EN"
  "http://www.w3.org/Graphics/SVG/1.1/DTD/svg11.dtd">
<svg xmlns:xlink="http://www.w3.org/1999/xlink" width="1000.340625pt" height="388.844525pt" viewBox="0 0 1000.340625 388.844525" xmlns="http://www.w3.org/2000/svg" version="1.1">
 <metadata>
  <rdf:RDF xmlns:dc="http://purl.org/dc/elements/1.1/" xmlns:cc="http://creativecommons.org/ns#" xmlns:rdf="http://www.w3.org/1999/02/22-rdf-syntax-ns#">
   <cc:Work>
    <dc:type rdf:resource="http://purl.org/dc/dcmitype/StillImage"/>
    <dc:date>2024-01-23T08:03:22.292633</dc:date>
    <dc:format>image/svg+xml</dc:format>
    <dc:creator>
     <cc:Agent>
      <dc:title>Matplotlib v3.6.2, https://matplotlib.org/</dc:title>
     </cc:Agent>
    </dc:creator>
   </cc:Work>
  </rdf:RDF>
 </metadata>
 <defs>
  <style type="text/css">*{stroke-linejoin: round; stroke-linecap: butt}</style>
 </defs>
 <g id="figure_1">
  <g id="axes_1">
   <g id="patch_1">
    <path d="M 40.600625 353.2239 
L 993.140625 353.2239 
L 993.140625 35.2559 
L 40.600625 35.2559 
z
" style="fill: #ffffff"/>
   </g>
   <g id="matplotlib.axis_1">
    <g id="xtick_1">
     <g id="text_1">
      <!-- 0 -->
      <g transform="translate(81.352898 366.30265) scale(0.08 -0.08)">
       <defs>
        <path id="DejaVuSans-30" d="M 2034 4250 
Q 1547 4250 1301 3770 
Q 1056 3291 1056 2328 
Q 1056 1369 1301 889 
Q 1547 409 2034 409 
Q 2525 409 2770 889 
Q 3016 1369 3016 2328 
Q 3016 3291 2770 3770 
Q 2525 4250 2034 4250 
z
M 2034 4750 
Q 2819 4750 3233 4129 
Q 3647 3509 3647 2328 
Q 3647 1150 3233 529 
Q 2819 -91 2034 -91 
Q 1250 -91 836 529 
Q 422 1150 422 2328 
Q 422 3509 836 4129 
Q 1250 4750 2034 4750 
z
" transform="scale(0.015625)"/>
       </defs>
       <use xlink:href="#DejaVuSans-30"/>
      </g>
     </g>
    </g>
    <g id="xtick_2">
     <g id="text_2">
      <!-- 20 -->
      <g transform="translate(251.996989 366.30265) scale(0.08 -0.08)">
       <defs>
        <path id="DejaVuSans-32" d="M 1228 531 
L 3431 531 
L 3431 0 
L 469 0 
L 469 531 
Q 828 903 1448 1529 
Q 2069 2156 2228 2338 
Q 2531 2678 2651 2914 
Q 2772 3150 2772 3378 
Q 2772 3750 2511 3984 
Q 2250 4219 1831 4219 
Q 1534 4219 1204 4116 
Q 875 4013 500 3803 
L 500 4441 
Q 881 4594 1212 4672 
Q 1544 4750 1819 4750 
Q 2544 4750 2975 4387 
Q 3406 4025 3406 3419 
Q 3406 3131 3298 2873 
Q 3191 2616 2906 2266 
Q 2828 2175 2409 1742 
Q 1991 1309 1228 531 
z
" transform="scale(0.015625)"/>
       </defs>
       <use xlink:href="#DejaVuSans-32"/>
       <use xlink:href="#DejaVuSans-30" x="63.623047"/>
      </g>
     </g>
    </g>
    <g id="xtick_3">
     <g id="text_3">
      <!-- 40 -->
      <g transform="translate(425.18608 366.30265) scale(0.08 -0.08)">
       <defs>
        <path id="DejaVuSans-34" d="M 2419 4116 
L 825 1625 
L 2419 1625 
L 2419 4116 
z
M 2253 4666 
L 3047 4666 
L 3047 1625 
L 3713 1625 
L 3713 1100 
L 3047 1100 
L 3047 0 
L 2419 0 
L 2419 1100 
L 313 1100 
L 313 1709 
L 2253 4666 
z
" transform="scale(0.015625)"/>
       </defs>
       <use xlink:href="#DejaVuSans-34"/>
       <use xlink:href="#DejaVuSans-30" x="63.623047"/>
      </g>
     </g>
    </g>
    <g id="xtick_4">
     <g id="text_4">
      <!-- 60 -->
      <g transform="translate(598.37517 366.30265) scale(0.08 -0.08)">
       <defs>
        <path id="DejaVuSans-36" d="M 2113 2584 
Q 1688 2584 1439 2293 
Q 1191 2003 1191 1497 
Q 1191 994 1439 701 
Q 1688 409 2113 409 
Q 2538 409 2786 701 
Q 3034 994 3034 1497 
Q 3034 2003 2786 2293 
Q 2538 2584 2113 2584 
z
M 3366 4563 
L 3366 3988 
Q 3128 4100 2886 4159 
Q 2644 4219 2406 4219 
Q 1781 4219 1451 3797 
Q 1122 3375 1075 2522 
Q 1259 2794 1537 2939 
Q 1816 3084 2150 3084 
Q 2853 3084 3261 2657 
Q 3669 2231 3669 1497 
Q 3669 778 3244 343 
Q 2819 -91 2113 -91 
Q 1303 -91 875 529 
Q 447 1150 447 2328 
Q 447 3434 972 4092 
Q 1497 4750 2381 4750 
Q 2619 4750 2861 4703 
Q 3103 4656 3366 4563 
z
" transform="scale(0.015625)"/>
       </defs>
       <use xlink:href="#DejaVuSans-36"/>
       <use xlink:href="#DejaVuSans-30" x="63.623047"/>
      </g>
     </g>
    </g>
    <g id="xtick_5">
     <g id="text_5">
      <!-- 80 -->
      <g transform="translate(771.564261 366.30265) scale(0.08 -0.08)">
       <defs>
        <path id="DejaVuSans-38" d="M 2034 2216 
Q 1584 2216 1326 1975 
Q 1069 1734 1069 1313 
Q 1069 891 1326 650 
Q 1584 409 2034 409 
Q 2484 409 2743 651 
Q 3003 894 3003 1313 
Q 3003 1734 2745 1975 
Q 2488 2216 2034 2216 
z
M 1403 2484 
Q 997 2584 770 2862 
Q 544 3141 544 3541 
Q 544 4100 942 4425 
Q 1341 4750 2034 4750 
Q 2731 4750 3128 4425 
Q 3525 4100 3525 3541 
Q 3525 3141 3298 2862 
Q 3072 2584 2669 2484 
Q 3125 2378 3379 2068 
Q 3634 1759 3634 1313 
Q 3634 634 3220 271 
Q 2806 -91 2034 -91 
Q 1263 -91 848 271 
Q 434 634 434 1313 
Q 434 1759 690 2068 
Q 947 2378 1403 2484 
z
M 1172 3481 
Q 1172 3119 1398 2916 
Q 1625 2713 2034 2713 
Q 2441 2713 2670 2916 
Q 2900 3119 2900 3481 
Q 2900 3844 2670 4047 
Q 2441 4250 2034 4250 
Q 1625 4250 1398 4047 
Q 1172 3844 1172 3481 
z
" transform="scale(0.015625)"/>
       </defs>
       <use xlink:href="#DejaVuSans-38"/>
       <use xlink:href="#DejaVuSans-30" x="63.623047"/>
      </g>
     </g>
    </g>
    <g id="xtick_6">
     <g id="text_6">
      <!-- 100 -->
      <g transform="translate(942.208352 366.30265) scale(0.08 -0.08)">
       <defs>
        <path id="DejaVuSans-31" d="M 794 531 
L 1825 531 
L 1825 4091 
L 703 3866 
L 703 4441 
L 1819 4666 
L 2450 4666 
L 2450 531 
L 3481 531 
L 3481 0 
L 794 0 
L 794 531 
z
" transform="scale(0.015625)"/>
       </defs>
       <use xlink:href="#DejaVuSans-31"/>
       <use xlink:href="#DejaVuSans-30" x="63.623047"/>
       <use xlink:href="#DejaVuSans-30" x="127.246094"/>
      </g>
     </g>
    </g>
    <g id="text_7">
     <!-- Sequence Length (bp) -->
     <g transform="translate(461.530781 379.564837) scale(0.1 -0.1)">
      <defs>
       <path id="DejaVuSans-53" d="M 3425 4513 
L 3425 3897 
Q 3066 4069 2747 4153 
Q 2428 4238 2131 4238 
Q 1616 4238 1336 4038 
Q 1056 3838 1056 3469 
Q 1056 3159 1242 3001 
Q 1428 2844 1947 2747 
L 2328 2669 
Q 3034 2534 3370 2195 
Q 3706 1856 3706 1288 
Q 3706 609 3251 259 
Q 2797 -91 1919 -91 
Q 1588 -91 1214 -16 
Q 841 59 441 206 
L 441 856 
Q 825 641 1194 531 
Q 1563 422 1919 422 
Q 2459 422 2753 634 
Q 3047 847 3047 1241 
Q 3047 1584 2836 1778 
Q 2625 1972 2144 2069 
L 1759 2144 
Q 1053 2284 737 2584 
Q 422 2884 422 3419 
Q 422 4038 858 4394 
Q 1294 4750 2059 4750 
Q 2388 4750 2728 4690 
Q 3069 4631 3425 4513 
z
" transform="scale(0.015625)"/>
       <path id="DejaVuSans-65" d="M 3597 1894 
L 3597 1613 
L 953 1613 
Q 991 1019 1311 708 
Q 1631 397 2203 397 
Q 2534 397 2845 478 
Q 3156 559 3463 722 
L 3463 178 
Q 3153 47 2828 -22 
Q 2503 -91 2169 -91 
Q 1331 -91 842 396 
Q 353 884 353 1716 
Q 353 2575 817 3079 
Q 1281 3584 2069 3584 
Q 2775 3584 3186 3129 
Q 3597 2675 3597 1894 
z
M 3022 2063 
Q 3016 2534 2758 2815 
Q 2500 3097 2075 3097 
Q 1594 3097 1305 2825 
Q 1016 2553 972 2059 
L 3022 2063 
z
" transform="scale(0.015625)"/>
       <path id="DejaVuSans-71" d="M 947 1747 
Q 947 1113 1208 752 
Q 1469 391 1925 391 
Q 2381 391 2643 752 
Q 2906 1113 2906 1747 
Q 2906 2381 2643 2742 
Q 2381 3103 1925 3103 
Q 1469 3103 1208 2742 
Q 947 2381 947 1747 
z
M 2906 525 
Q 2725 213 2448 61 
Q 2172 -91 1784 -91 
Q 1150 -91 751 415 
Q 353 922 353 1747 
Q 353 2572 751 3078 
Q 1150 3584 1784 3584 
Q 2172 3584 2448 3432 
Q 2725 3281 2906 2969 
L 2906 3500 
L 3481 3500 
L 3481 -1331 
L 2906 -1331 
L 2906 525 
z
" transform="scale(0.015625)"/>
       <path id="DejaVuSans-75" d="M 544 1381 
L 544 3500 
L 1119 3500 
L 1119 1403 
Q 1119 906 1312 657 
Q 1506 409 1894 409 
Q 2359 409 2629 706 
Q 2900 1003 2900 1516 
L 2900 3500 
L 3475 3500 
L 3475 0 
L 2900 0 
L 2900 538 
Q 2691 219 2414 64 
Q 2138 -91 1772 -91 
Q 1169 -91 856 284 
Q 544 659 544 1381 
z
M 1991 3584 
L 1991 3584 
z
" transform="scale(0.015625)"/>
       <path id="DejaVuSans-6e" d="M 3513 2113 
L 3513 0 
L 2938 0 
L 2938 2094 
Q 2938 2591 2744 2837 
Q 2550 3084 2163 3084 
Q 1697 3084 1428 2787 
Q 1159 2491 1159 1978 
L 1159 0 
L 581 0 
L 581 3500 
L 1159 3500 
L 1159 2956 
Q 1366 3272 1645 3428 
Q 1925 3584 2291 3584 
Q 2894 3584 3203 3211 
Q 3513 2838 3513 2113 
z
" transform="scale(0.015625)"/>
       <path id="DejaVuSans-63" d="M 3122 3366 
L 3122 2828 
Q 2878 2963 2633 3030 
Q 2388 3097 2138 3097 
Q 1578 3097 1268 2742 
Q 959 2388 959 1747 
Q 959 1106 1268 751 
Q 1578 397 2138 397 
Q 2388 397 2633 464 
Q 2878 531 3122 666 
L 3122 134 
Q 2881 22 2623 -34 
Q 2366 -91 2075 -91 
Q 1284 -91 818 406 
Q 353 903 353 1747 
Q 353 2603 823 3093 
Q 1294 3584 2113 3584 
Q 2378 3584 2631 3529 
Q 2884 3475 3122 3366 
z
" transform="scale(0.015625)"/>
       <path id="DejaVuSans-20" transform="scale(0.015625)"/>
       <path id="DejaVuSans-4c" d="M 628 4666 
L 1259 4666 
L 1259 531 
L 3531 531 
L 3531 0 
L 628 0 
L 628 4666 
z
" transform="scale(0.015625)"/>
       <path id="DejaVuSans-67" d="M 2906 1791 
Q 2906 2416 2648 2759 
Q 2391 3103 1925 3103 
Q 1463 3103 1205 2759 
Q 947 2416 947 1791 
Q 947 1169 1205 825 
Q 1463 481 1925 481 
Q 2391 481 2648 825 
Q 2906 1169 2906 1791 
z
M 3481 434 
Q 3481 -459 3084 -895 
Q 2688 -1331 1869 -1331 
Q 1566 -1331 1297 -1286 
Q 1028 -1241 775 -1147 
L 775 -588 
Q 1028 -725 1275 -790 
Q 1522 -856 1778 -856 
Q 2344 -856 2625 -561 
Q 2906 -266 2906 331 
L 2906 616 
Q 2728 306 2450 153 
Q 2172 0 1784 0 
Q 1141 0 747 490 
Q 353 981 353 1791 
Q 353 2603 747 3093 
Q 1141 3584 1784 3584 
Q 2172 3584 2450 3431 
Q 2728 3278 2906 2969 
L 2906 3500 
L 3481 3500 
L 3481 434 
z
" transform="scale(0.015625)"/>
       <path id="DejaVuSans-74" d="M 1172 4494 
L 1172 3500 
L 2356 3500 
L 2356 3053 
L 1172 3053 
L 1172 1153 
Q 1172 725 1289 603 
Q 1406 481 1766 481 
L 2356 481 
L 2356 0 
L 1766 0 
Q 1100 0 847 248 
Q 594 497 594 1153 
L 594 3053 
L 172 3053 
L 172 3500 
L 594 3500 
L 594 4494 
L 1172 4494 
z
" transform="scale(0.015625)"/>
       <path id="DejaVuSans-68" d="M 3513 2113 
L 3513 0 
L 2938 0 
L 2938 2094 
Q 2938 2591 2744 2837 
Q 2550 3084 2163 3084 
Q 1697 3084 1428 2787 
Q 1159 2491 1159 1978 
L 1159 0 
L 581 0 
L 581 4863 
L 1159 4863 
L 1159 2956 
Q 1366 3272 1645 3428 
Q 1925 3584 2291 3584 
Q 2894 3584 3203 3211 
Q 3513 2838 3513 2113 
z
" transform="scale(0.015625)"/>
       <path id="DejaVuSans-28" d="M 1984 4856 
Q 1566 4138 1362 3434 
Q 1159 2731 1159 2009 
Q 1159 1288 1364 580 
Q 1569 -128 1984 -844 
L 1484 -844 
Q 1016 -109 783 600 
Q 550 1309 550 2009 
Q 550 2706 781 3412 
Q 1013 4119 1484 4856 
L 1984 4856 
z
" transform="scale(0.015625)"/>
       <path id="DejaVuSans-62" d="M 3116 1747 
Q 3116 2381 2855 2742 
Q 2594 3103 2138 3103 
Q 1681 3103 1420 2742 
Q 1159 2381 1159 1747 
Q 1159 1113 1420 752 
Q 1681 391 2138 391 
Q 2594 391 2855 752 
Q 3116 1113 3116 1747 
z
M 1159 2969 
Q 1341 3281 1617 3432 
Q 1894 3584 2278 3584 
Q 2916 3584 3314 3078 
Q 3713 2572 3713 1747 
Q 3713 922 3314 415 
Q 2916 -91 2278 -91 
Q 1894 -91 1617 61 
Q 1341 213 1159 525 
L 1159 0 
L 581 0 
L 581 4863 
L 1159 4863 
L 1159 2969 
z
" transform="scale(0.015625)"/>
       <path id="DejaVuSans-70" d="M 1159 525 
L 1159 -1331 
L 581 -1331 
L 581 3500 
L 1159 3500 
L 1159 2969 
Q 1341 3281 1617 3432 
Q 1894 3584 2278 3584 
Q 2916 3584 3314 3078 
Q 3713 2572 3713 1747 
Q 3713 922 3314 415 
Q 2916 -91 2278 -91 
Q 1894 -91 1617 61 
Q 1341 213 1159 525 
z
M 3116 1747 
Q 3116 2381 2855 2742 
Q 2594 3103 2138 3103 
Q 1681 3103 1420 2742 
Q 1159 2381 1159 1747 
Q 1159 1113 1420 752 
Q 1681 391 2138 391 
Q 2594 391 2855 752 
Q 3116 1113 3116 1747 
z
" transform="scale(0.015625)"/>
       <path id="DejaVuSans-29" d="M 513 4856 
L 1013 4856 
Q 1481 4119 1714 3412 
Q 1947 2706 1947 2009 
Q 1947 1309 1714 600 
Q 1481 -109 1013 -844 
L 513 -844 
Q 928 -128 1133 580 
Q 1338 1288 1338 2009 
Q 1338 2731 1133 3434 
Q 928 4138 513 4856 
z
" transform="scale(0.015625)"/>
      </defs>
      <use xlink:href="#DejaVuSans-53"/>
      <use xlink:href="#DejaVuSans-65" x="63.476562"/>
      <use xlink:href="#DejaVuSans-71" x="125"/>
      <use xlink:href="#DejaVuSans-75" x="188.476562"/>
      <use xlink:href="#DejaVuSans-65" x="251.855469"/>
      <use xlink:href="#DejaVuSans-6e" x="313.378906"/>
      <use xlink:href="#DejaVuSans-63" x="376.757812"/>
      <use xlink:href="#DejaVuSans-65" x="431.738281"/>
      <use xlink:href="#DejaVuSans-20" x="493.261719"/>
      <use xlink:href="#DejaVuSans-4c" x="525.048828"/>
      <use xlink:href="#DejaVuSans-65" x="579.011719"/>
      <use xlink:href="#DejaVuSans-6e" x="640.535156"/>
      <use xlink:href="#DejaVuSans-67" x="703.914062"/>
      <use xlink:href="#DejaVuSans-74" x="767.390625"/>
      <use xlink:href="#DejaVuSans-68" x="806.599609"/>
      <use xlink:href="#DejaVuSans-20" x="869.978516"/>
      <use xlink:href="#DejaVuSans-28" x="901.765625"/>
      <use xlink:href="#DejaVuSans-62" x="940.779297"/>
      <use xlink:href="#DejaVuSans-70" x="1004.255859"/>
      <use xlink:href="#DejaVuSans-29" x="1067.732422"/>
     </g>
    </g>
   </g>
   <g id="matplotlib.axis_2">
    <g id="ytick_1">
     <g id="line2d_1">
      <path d="M 40.600625 353.2239 
L 993.140625 353.2239 
" clip-path="url(#p700adb8275)" style="fill: none; stroke: #dedede; stroke-linecap: square"/>
     </g>
     <g id="text_8">
      <!-- 0.0 -->
      <g transform="translate(20.878125 356.263275) scale(0.08 -0.08)">
       <defs>
        <path id="DejaVuSans-2e" d="M 684 794 
L 1344 794 
L 1344 0 
L 684 0 
L 684 794 
z
" transform="scale(0.015625)"/>
       </defs>
       <use xlink:href="#DejaVuSans-30"/>
       <use xlink:href="#DejaVuSans-2e" x="63.623047"/>
       <use xlink:href="#DejaVuSans-30" x="95.410156"/>
      </g>
     </g>
    </g>
    <g id="ytick_2">
     <g id="line2d_2">
      <path d="M 40.600625 310.249525 
L 993.140625 310.249525 
" clip-path="url(#p700adb8275)" style="fill: none; stroke: #dedede; stroke-linecap: square"/>
     </g>
     <g id="text_9">
      <!-- 0.5 -->
      <g transform="translate(20.878125 313.2889) scale(0.08 -0.08)">
       <defs>
        <path id="DejaVuSans-35" d="M 691 4666 
L 3169 4666 
L 3169 4134 
L 1269 4134 
L 1269 2991 
Q 1406 3038 1543 3061 
Q 1681 3084 1819 3084 
Q 2600 3084 3056 2656 
Q 3513 2228 3513 1497 
Q 3513 744 3044 326 
Q 2575 -91 1722 -91 
Q 1428 -91 1123 -41 
Q 819 9 494 109 
L 494 744 
Q 775 591 1075 516 
Q 1375 441 1709 441 
Q 2250 441 2565 725 
Q 2881 1009 2881 1497 
Q 2881 1984 2565 2268 
Q 2250 2553 1709 2553 
Q 1456 2553 1204 2497 
Q 953 2441 691 2322 
L 691 4666 
z
" transform="scale(0.015625)"/>
       </defs>
       <use xlink:href="#DejaVuSans-30"/>
       <use xlink:href="#DejaVuSans-2e" x="63.623047"/>
       <use xlink:href="#DejaVuSans-35" x="95.410156"/>
      </g>
     </g>
    </g>
    <g id="ytick_3">
     <g id="line2d_3">
      <path d="M 40.600625 267.275149 
L 993.140625 267.275149 
" clip-path="url(#p700adb8275)" style="fill: none; stroke: #dedede; stroke-linecap: square"/>
     </g>
     <g id="text_10">
      <!-- 1.0 -->
      <g transform="translate(20.878125 270.314524) scale(0.08 -0.08)">
       <use xlink:href="#DejaVuSans-31"/>
       <use xlink:href="#DejaVuSans-2e" x="63.623047"/>
       <use xlink:href="#DejaVuSans-30" x="95.410156"/>
      </g>
     </g>
    </g>
    <g id="ytick_4">
     <g id="line2d_4">
      <path d="M 40.600625 224.300774 
L 993.140625 224.300774 
" clip-path="url(#p700adb8275)" style="fill: none; stroke: #dedede; stroke-linecap: square"/>
     </g>
     <g id="text_11">
      <!-- 1.5 -->
      <g transform="translate(20.878125 227.340149) scale(0.08 -0.08)">
       <use xlink:href="#DejaVuSans-31"/>
       <use xlink:href="#DejaVuSans-2e" x="63.623047"/>
       <use xlink:href="#DejaVuSans-35" x="95.410156"/>
      </g>
     </g>
    </g>
    <g id="ytick_5">
     <g id="line2d_5">
      <path d="M 40.600625 181.326399 
L 993.140625 181.326399 
" clip-path="url(#p700adb8275)" style="fill: none; stroke: #dedede; stroke-linecap: square"/>
     </g>
     <g id="text_12">
      <!-- 2.0 -->
      <g transform="translate(20.878125 184.365774) scale(0.08 -0.08)">
       <use xlink:href="#DejaVuSans-32"/>
       <use xlink:href="#DejaVuSans-2e" x="63.623047"/>
       <use xlink:href="#DejaVuSans-30" x="95.410156"/>
      </g>
     </g>
    </g>
    <g id="ytick_6">
     <g id="line2d_6">
      <path d="M 40.600625 138.352024 
L 993.140625 138.352024 
" clip-path="url(#p700adb8275)" style="fill: none; stroke: #dedede; stroke-linecap: square"/>
     </g>
     <g id="text_13">
      <!-- 2.5 -->
      <g transform="translate(20.878125 141.391399) scale(0.08 -0.08)">
       <use xlink:href="#DejaVuSans-32"/>
       <use xlink:href="#DejaVuSans-2e" x="63.623047"/>
       <use xlink:href="#DejaVuSans-35" x="95.410156"/>
      </g>
     </g>
    </g>
    <g id="ytick_7">
     <g id="line2d_7">
      <path d="M 40.600625 95.377648 
L 993.140625 95.377648 
" clip-path="url(#p700adb8275)" style="fill: none; stroke: #dedede; stroke-linecap: square"/>
     </g>
     <g id="text_14">
      <!-- 3.0 -->
      <g transform="translate(20.878125 98.417023) scale(0.08 -0.08)">
       <defs>
        <path id="DejaVuSans-33" d="M 2597 2516 
Q 3050 2419 3304 2112 
Q 3559 1806 3559 1356 
Q 3559 666 3084 287 
Q 2609 -91 1734 -91 
Q 1441 -91 1130 -33 
Q 819 25 488 141 
L 488 750 
Q 750 597 1062 519 
Q 1375 441 1716 441 
Q 2309 441 2620 675 
Q 2931 909 2931 1356 
Q 2931 1769 2642 2001 
Q 2353 2234 1838 2234 
L 1294 2234 
L 1294 2753 
L 1863 2753 
Q 2328 2753 2575 2939 
Q 2822 3125 2822 3475 
Q 2822 3834 2567 4026 
Q 2313 4219 1838 4219 
Q 1578 4219 1281 4162 
Q 984 4106 628 3988 
L 628 4550 
Q 988 4650 1302 4700 
Q 1616 4750 1894 4750 
Q 2613 4750 3031 4423 
Q 3450 4097 3450 3541 
Q 3450 3153 3228 2886 
Q 3006 2619 2597 2516 
z
" transform="scale(0.015625)"/>
       </defs>
       <use xlink:href="#DejaVuSans-33"/>
       <use xlink:href="#DejaVuSans-2e" x="63.623047"/>
       <use xlink:href="#DejaVuSans-30" x="95.410156"/>
      </g>
     </g>
    </g>
    <g id="ytick_8">
     <g id="line2d_8">
      <path d="M 40.600625 52.403273 
L 993.140625 52.403273 
" clip-path="url(#p700adb8275)" style="fill: none; stroke: #dedede; stroke-linecap: square"/>
     </g>
     <g id="text_15">
      <!-- 3.5 -->
      <g transform="translate(20.878125 55.442648) scale(0.08 -0.08)">
       <use xlink:href="#DejaVuSans-33"/>
       <use xlink:href="#DejaVuSans-2e" x="63.623047"/>
       <use xlink:href="#DejaVuSans-35" x="95.410156"/>
      </g>
     </g>
    </g>
    <g id="text_16">
     <!-- Read Count -->
     <g transform="translate(14.798438 223.241463) rotate(-90) scale(0.1 -0.1)">
      <defs>
       <path id="DejaVuSans-52" d="M 2841 2188 
Q 3044 2119 3236 1894 
Q 3428 1669 3622 1275 
L 4263 0 
L 3584 0 
L 2988 1197 
Q 2756 1666 2539 1819 
Q 2322 1972 1947 1972 
L 1259 1972 
L 1259 0 
L 628 0 
L 628 4666 
L 2053 4666 
Q 2853 4666 3247 4331 
Q 3641 3997 3641 3322 
Q 3641 2881 3436 2590 
Q 3231 2300 2841 2188 
z
M 1259 4147 
L 1259 2491 
L 2053 2491 
Q 2509 2491 2742 2702 
Q 2975 2913 2975 3322 
Q 2975 3731 2742 3939 
Q 2509 4147 2053 4147 
L 1259 4147 
z
" transform="scale(0.015625)"/>
       <path id="DejaVuSans-61" d="M 2194 1759 
Q 1497 1759 1228 1600 
Q 959 1441 959 1056 
Q 959 750 1161 570 
Q 1363 391 1709 391 
Q 2188 391 2477 730 
Q 2766 1069 2766 1631 
L 2766 1759 
L 2194 1759 
z
M 3341 1997 
L 3341 0 
L 2766 0 
L 2766 531 
Q 2569 213 2275 61 
Q 1981 -91 1556 -91 
Q 1019 -91 701 211 
Q 384 513 384 1019 
Q 384 1609 779 1909 
Q 1175 2209 1959 2209 
L 2766 2209 
L 2766 2266 
Q 2766 2663 2505 2880 
Q 2244 3097 1772 3097 
Q 1472 3097 1187 3025 
Q 903 2953 641 2809 
L 641 3341 
Q 956 3463 1253 3523 
Q 1550 3584 1831 3584 
Q 2591 3584 2966 3190 
Q 3341 2797 3341 1997 
z
" transform="scale(0.015625)"/>
       <path id="DejaVuSans-64" d="M 2906 2969 
L 2906 4863 
L 3481 4863 
L 3481 0 
L 2906 0 
L 2906 525 
Q 2725 213 2448 61 
Q 2172 -91 1784 -91 
Q 1150 -91 751 415 
Q 353 922 353 1747 
Q 353 2572 751 3078 
Q 1150 3584 1784 3584 
Q 2172 3584 2448 3432 
Q 2725 3281 2906 2969 
z
M 947 1747 
Q 947 1113 1208 752 
Q 1469 391 1925 391 
Q 2381 391 2643 752 
Q 2906 1113 2906 1747 
Q 2906 2381 2643 2742 
Q 2381 3103 1925 3103 
Q 1469 3103 1208 2742 
Q 947 2381 947 1747 
z
" transform="scale(0.015625)"/>
       <path id="DejaVuSans-43" d="M 4122 4306 
L 4122 3641 
Q 3803 3938 3442 4084 
Q 3081 4231 2675 4231 
Q 1875 4231 1450 3742 
Q 1025 3253 1025 2328 
Q 1025 1406 1450 917 
Q 1875 428 2675 428 
Q 3081 428 3442 575 
Q 3803 722 4122 1019 
L 4122 359 
Q 3791 134 3420 21 
Q 3050 -91 2638 -91 
Q 1578 -91 968 557 
Q 359 1206 359 2328 
Q 359 3453 968 4101 
Q 1578 4750 2638 4750 
Q 3056 4750 3426 4639 
Q 3797 4528 4122 4306 
z
" transform="scale(0.015625)"/>
       <path id="DejaVuSans-6f" d="M 1959 3097 
Q 1497 3097 1228 2736 
Q 959 2375 959 1747 
Q 959 1119 1226 758 
Q 1494 397 1959 397 
Q 2419 397 2687 759 
Q 2956 1122 2956 1747 
Q 2956 2369 2687 2733 
Q 2419 3097 1959 3097 
z
M 1959 3584 
Q 2709 3584 3137 3096 
Q 3566 2609 3566 1747 
Q 3566 888 3137 398 
Q 2709 -91 1959 -91 
Q 1206 -91 779 398 
Q 353 888 353 1747 
Q 353 2609 779 3096 
Q 1206 3584 1959 3584 
z
" transform="scale(0.015625)"/>
      </defs>
      <use xlink:href="#DejaVuSans-52"/>
      <use xlink:href="#DejaVuSans-65" x="64.982422"/>
      <use xlink:href="#DejaVuSans-61" x="126.505859"/>
      <use xlink:href="#DejaVuSans-64" x="187.785156"/>
      <use xlink:href="#DejaVuSans-20" x="251.261719"/>
      <use xlink:href="#DejaVuSans-43" x="283.048828"/>
      <use xlink:href="#DejaVuSans-6f" x="352.873047"/>
      <use xlink:href="#DejaVuSans-75" x="414.054688"/>
      <use xlink:href="#DejaVuSans-6e" x="477.433594"/>
      <use xlink:href="#DejaVuSans-74" x="540.8125"/>
     </g>
    </g>
    <g id="text_17">
     <!-- 1e6 -->
     <g transform="translate(40.600625 32.2559) scale(0.1 -0.1)">
      <use xlink:href="#DejaVuSans-31"/>
      <use xlink:href="#DejaVuSans-65" x="63.623047"/>
      <use xlink:href="#DejaVuSans-36" x="125.146484"/>
     </g>
    </g>
   </g>
   <g id="line2d_9">
    <path d="M 83.897898 353.159868 
L 101.216807 353.183848 
L 118.535716 353.173362 
L 135.854625 353.160642 
L 153.173534 353.146632 
L 170.492443 353.086984 
L 187.811352 352.770864 
L 205.130261 348.364272 
L 222.44917 230.807181 
L 239.76808 186.751828 
L 257.086989 188.519622 
L 274.405898 278.103231 
L 291.724807 349.181472 
L 309.043716 292.040336 
L 326.362625 350.0242 
L 343.681534 353.215993 
L 361.000443 353.221837 
L 378.319352 353.220548 
L 395.638261 353.220376 
L 412.95717 353.220204 
L 430.27608 353.218571 
L 447.594989 353.214016 
L 464.913898 353.20078 
L 482.232807 353.109416 
L 499.551716 352.936917 
L 516.870625 338.561301 
" clip-path="url(#p700adb8275)" style="fill: none; stroke: #d9534f; stroke-linecap: square"/>
   </g>
   <g id="line2d_10">
    <path d="M 83.897898 353.131849 
L 101.216807 353.160728 
L 118.535716 353.148867 
L 135.854625 353.136232 
L 153.173534 353.116292 
L 170.492443 353.029312 
L 187.811352 352.646152 
L 205.130261 347.357382 
L 222.44917 205.667257 
L 239.76808 152.874956 
L 257.086989 154.942539 
L 274.405898 262.870534 
L 291.724807 347.624253 
L 309.043716 277.807481 
L 326.362625 349.02049 
L 343.681534 353.205937 
L 361.000443 353.21986 
L 378.319352 353.218915 
L 395.638261 353.218657 
L 412.95717 353.21711 
L 430.27608 353.214446 
L 447.594989 353.206538 
L 464.913898 353.187286 
L 482.232807 353.074177 
L 499.551716 352.849765 
L 516.870625 335.14501 
" clip-path="url(#p700adb8275)" style="fill: none; stroke: #d9534f; stroke-linecap: square"/>
   </g>
   <g id="line2d_11">
    <path d="M 83.897898 353.099274 
L 101.216807 353.146374 
L 118.535716 353.137693 
L 135.854625 353.106494 
L 153.173534 353.09575 
L 170.492443 352.992612 
L 187.811352 352.529262 
L 205.130261 345.944385 
L 222.44917 170.696171 
L 239.76808 104.874727 
L 257.086989 106.825162 
L 274.405898 240.720338 
L 291.724807 346.43902 
L 309.043716 260.093014 
L 326.362625 347.976385 
L 343.681534 353.205851 
L 361.000443 353.220204 
L 378.319352 353.219689 
L 395.638261 353.218055 
L 412.95717 353.216251 
L 430.27608 353.212985 
L 447.594989 353.204905 
L 464.913898 353.18084 
L 482.232807 353.031805 
L 499.551716 352.746197 
L 516.870625 330.931544 
" clip-path="url(#p700adb8275)" style="fill: none; stroke: #d9534f; stroke-linecap: square"/>
   </g>
   <g id="line2d_12">
    <path d="M 83.897898 353.114487 
L 101.216807 353.154453 
L 118.535716 353.136662 
L 135.854625 353.120761 
L 153.173534 353.107182 
L 170.492443 353.06352 
L 187.811352 352.594239 
L 205.130261 345.746273 
L 222.44917 181.992244 
L 239.76808 128.437406 
L 257.086989 135.610774 
L 274.405898 255.226854 
L 291.724807 347.389785 
L 309.043716 258.189249 
L 326.362625 347.941576 
L 343.681534 353.212039 
L 361.000443 353.221665 
L 378.319352 353.219431 
L 395.638261 353.218657 
L 412.95717 353.217368 
L 430.27608 353.21307 
L 447.594989 353.206195 
L 464.913898 353.184793 
L 482.232807 353.072286 
L 499.551716 352.854063 
L 516.870625 332.157346 
" clip-path="url(#p700adb8275)" style="fill: none; stroke: #d9534f; stroke-linecap: square"/>
   </g>
   <g id="line2d_13">
    <path d="M 83.897898 353.111479 
L 101.216807 353.153336 
L 118.535716 353.135459 
L 135.854625 353.124629 
L 153.173534 353.107096 
L 170.492443 353.059652 
L 187.811352 352.613922 
L 205.130261 345.84073 
L 222.44917 184.634137 
L 239.76808 130.653508 
L 257.086989 137.437013 
L 274.405898 255.843966 
L 291.724807 347.41196 
L 309.043716 260.033709 
L 326.362625 347.52163 
L 343.681534 353.211867 
L 361.000443 353.221493 
L 378.319352 353.220634 
L 395.638261 353.218571 
L 412.95717 353.218055 
L 430.27608 353.215649 
L 447.594989 353.208171 
L 464.913898 353.184364 
L 482.232807 353.076756 
L 499.551716 352.858962 
L 516.870625 332.519963 
" clip-path="url(#p700adb8275)" style="fill: none; stroke: #d9534f; stroke-linecap: square"/>
   </g>
   <g id="line2d_14">
    <path d="M 83.897898 353.104173 
L 101.216807 353.1401 
L 118.535716 353.129872 
L 135.854625 353.105033 
L 153.173534 353.088359 
L 170.492443 353.029312 
L 187.811352 352.41856 
L 205.130261 343.582169 
L 222.44917 131.191805 
L 239.76808 60.249105 
L 257.086989 68.228071 
L 274.405898 223.309269 
L 291.724807 346.396819 
L 309.043716 232.857918 
L 326.362625 346.018043 
L 343.681534 353.207484 
L 361.000443 353.220204 
L 378.319352 353.220634 
L 395.638261 353.218657 
L 412.95717 353.216337 
L 430.27608 353.213758 
L 447.594989 353.203444 
L 464.913898 353.175769 
L 482.232807 353.042634 
L 499.551716 352.780318 
L 516.870625 325.980123 
" clip-path="url(#p700adb8275)" style="fill: none; stroke: #d9534f; stroke-linecap: square"/>
   </g>
   <g id="line2d_15">
    <path d="M 83.897898 353.098157 
L 101.216807 353.137865 
L 118.535716 353.129356 
L 135.854625 353.09343 
L 153.173534 353.078647 
L 170.492443 352.990205 
L 187.811352 352.385298 
L 205.130261 343.534296 
L 222.44917 125.329155 
L 239.76808 50.397229 
L 257.086989 58.517323 
L 274.405898 219.854302 
L 291.724807 345.847778 
L 309.043716 234.252866 
L 326.362625 346.180916 
L 343.681534 353.209547 
L 361.000443 353.22029 
L 378.319352 353.218743 
L 395.638261 353.217368 
L 412.95717 353.214875 
L 430.27608 353.214188 
L 447.594989 353.201811 
L 464.913898 353.174565 
L 482.232807 353.013583 
L 499.551716 352.676406 
L 516.870625 325.789575 
" clip-path="url(#p700adb8275)" style="fill: none; stroke: #d9534f; stroke-linecap: square"/>
   </g>
   <g id="line2d_16">
    <path d="M 83.897898 353.129872 
L 101.216807 353.154196 
L 118.535716 353.144913 
L 135.854625 353.126778 
L 153.173534 353.107869 
L 170.492443 353.03636 
L 187.811352 352.567252 
L 205.130261 345.749453 
L 222.44917 176.784781 
L 239.76808 117.66373 
L 257.086989 123.238194 
L 274.405898 248.705406 
L 291.724807 347.93745 
L 309.043716 261.98552 
L 326.362625 347.884592 
L 343.681534 353.2135 
L 361.000443 353.220204 
L 378.319352 353.219946 
L 395.638261 353.219946 
L 412.95717 353.216337 
L 430.27608 353.215133 
L 447.594989 353.207398 
L 464.913898 353.188231 
L 482.232807 353.064551 
L 499.551716 352.862228 
L 516.870625 331.685315 
" clip-path="url(#p700adb8275)" style="fill: none; stroke: #d9534f; stroke-linecap: square"/>
   </g>
   <g id="line2d_17">
    <path d="M 83.897898 353.091883 
L 101.216807 353.14371 
L 118.535716 353.128411 
L 135.854625 353.106064 
L 153.173534 353.09618 
L 170.492443 353.014615 
L 187.811352 352.572494 
L 205.130261 346.128057 
L 222.44917 185.845154 
L 239.76808 130.424884 
L 257.086989 135.883404 
L 274.405898 254.435438 
L 291.724807 346.96494 
L 309.043716 262.066054 
L 326.362625 348.056575 
L 343.681534 353.207999 
L 361.000443 353.22029 
L 378.319352 353.21986 
L 395.638261 353.217368 
L 412.95717 353.216766 
L 430.27608 353.215133 
L 447.594989 353.20714 
L 464.913898 353.187802 
L 482.232807 353.074865 
L 499.551716 352.849077 
L 516.870625 332.427053 
" clip-path="url(#p700adb8275)" style="fill: none; stroke: #d9534f; stroke-linecap: square"/>
   </g>
   <g id="line2d_18">
    <path d="M 83.897898 353.143882 
L 101.216807 353.164423 
L 118.535716 353.157891 
L 135.854625 353.137693 
L 153.173534 353.127895 
L 170.492443 353.077873 
L 187.811352 352.682767 
L 205.130261 346.872287 
L 222.44917 206.631946 
L 239.76808 159.316127 
L 257.086989 164.83842 
L 274.405898 268.001932 
L 291.724807 348.523105 
L 309.043716 274.449206 
L 326.362625 348.651598 
L 343.681534 353.213156 
L 361.000443 353.220978 
L 378.319352 353.22072 
L 395.638261 353.219946 
L 412.95717 353.219173 
L 430.27608 353.216337 
L 447.594989 353.210062 
L 464.913898 353.195881 
L 482.232807 353.091367 
L 499.551716 352.915344 
L 516.870625 335.304101 
" clip-path="url(#p700adb8275)" style="fill: none; stroke: #d9534f; stroke-linecap: square"/>
   </g>
   <g id="line2d_19">
    <path d="M 83.897898 353.105033 
L 101.216807 353.149812 
L 118.535716 353.140959 
L 135.854625 353.105806 
L 153.173534 353.091195 
L 170.492443 353.031461 
L 187.811352 352.50193 
L 205.130261 345.076216 
L 222.44917 163.563543 
L 239.76808 101.967597 
L 257.086989 108.845216 
L 274.405898 242.898709 
L 291.724807 347.018744 
L 309.043716 251.007887 
L 326.362625 347.403193 
L 343.681534 353.212555 
L 361.000443 353.220548 
L 378.319352 353.220204 
L 395.638261 353.218399 
L 412.95717 353.217454 
L 430.27608 353.213242 
L 447.594989 353.206109 
L 464.913898 353.184192 
L 482.232807 353.059136 
L 499.551716 352.830341 
L 516.870625 329.932906 
" clip-path="url(#p700adb8275)" style="fill: none; stroke: #d9534f; stroke-linecap: square"/>
   </g>
   <g id="line2d_20">
    <path d="M 83.897898 353.143452 
L 101.216807 353.163048 
L 118.535716 353.155485 
L 135.854625 353.131419 
L 153.173534 353.115519 
L 170.492443 353.067473 
L 187.811352 352.600084 
L 205.130261 345.932266 
L 222.44917 183.820116 
L 239.76808 129.797974 
L 257.086989 137.114534 
L 274.405898 255.664591 
L 291.724807 348.127913 
L 309.043716 263.589925 
L 326.362625 347.954554 
L 343.681534 353.207656 
L 361.000443 353.22029 
L 378.319352 353.221064 
L 395.638261 353.218399 
L 412.95717 353.218141 
L 430.27608 353.216165 
L 447.594989 353.208085 
L 464.913898 353.191497 
L 482.232807 353.092484 
L 499.551716 352.893599 
L 516.870625 332.63694 
" clip-path="url(#p700adb8275)" style="fill: none; stroke: #d9534f; stroke-linecap: square"/>
   </g>
   <g id="line2d_21">
    <path d="M 83.897898 353.21307 
L 101.216807 353.218485 
L 118.535716 353.216079 
L 135.854625 353.210234 
L 153.173534 353.204991 
L 170.492443 353.161071 
L 187.811352 352.968632 
L 205.130261 350.098717 
L 222.44917 282.363195 
L 239.76808 246.373874 
L 257.086989 246.360552 
L 274.405898 309.183502 
L 291.724807 353.195795 
L 309.043716 353.20714 
L 326.362625 353.21986 
L 343.681534 353.210836 
L 361.000443 353.221579 
L 378.319352 353.218657 
L 395.638261 353.213414 
L 412.95717 353.217454 
L 430.27608 353.214875 
L 447.594989 353.21436 
L 464.913898 353.200866 
L 482.232807 353.121793 
L 499.551716 352.754362 
L 516.870625 352.387877 
L 534.189534 351.942232 
L 551.508443 352.012195 
L 568.827352 352.58341 
L 586.146261 353.198803 
L 603.46517 353.185739 
L 620.78408 353.138725 
L 638.102989 353.103658 
L 655.421898 353.097985 
L 672.740807 352.876237 
L 690.059716 352.823723 
L 707.378625 352.127538 
L 724.697534 348.591004 
L 742.016443 351.277161 
L 759.335352 353.179808 
L 776.654261 353.206624 
L 793.97317 353.221923 
L 811.29208 353.222439 
L 828.610989 353.223041 
L 845.929898 353.22347 
L 863.248807 353.222353 
L 880.567716 353.222095 
L 897.886625 353.220806 
L 915.205534 353.214789 
L 932.524443 353.188489 
L 949.843352 353.204476 
" clip-path="url(#p700adb8275)" style="fill: none; stroke: #d9534f; stroke-linecap: square"/>
   </g>
   <g id="line2d_22">
    <path d="M 83.897898 353.219345 
L 101.216807 353.219173 
L 118.535716 353.218399 
L 135.854625 353.210406 
L 153.173534 353.210062 
L 170.492443 353.168549 
L 187.811352 353.007223 
L 205.130261 350.589743 
L 222.44917 291.903936 
L 239.76808 260.642141 
L 257.086989 260.182229 
L 274.405898 314.397841 
L 291.724807 353.200522 
L 309.043716 353.210836 
L 326.362625 353.218743 
L 343.681534 353.215219 
L 361.000443 353.222353 
L 378.319352 353.220548 
L 395.638261 353.216594 
L 412.95717 353.219087 
L 430.27608 353.214532 
L 447.594989 353.214618 
L 464.913898 353.205421 
L 482.232807 353.140702 
L 499.551716 352.842975 
L 516.870625 352.568713 
L 534.189534 352.272189 
L 551.508443 352.272705 
L 568.827352 352.739665 
L 586.146261 353.207828 
L 603.46517 353.196396 
L 620.78408 353.169151 
L 638.102989 353.138983 
L 655.421898 353.135287 
L 672.740807 353.023897 
L 690.059716 352.992268 
L 707.378625 352.593896 
L 724.697534 351.007196 
L 742.016443 352.194578 
L 759.335352 353.186254 
L 776.654261 353.208085 
L 793.97317 353.220806 
L 811.29208 353.222439 
L 828.610989 353.223298 
L 845.929898 353.223384 
L 863.248807 353.223728 
L 880.567716 353.222181 
L 897.886625 353.221579 
L 915.205534 353.219517 
L 932.524443 353.198545 
L 949.843352 353.209375 
" clip-path="url(#p700adb8275)" style="fill: none; stroke: #d9534f; stroke-linecap: square"/>
   </g>
   <g id="line2d_23">
    <path d="M 83.897898 353.215649 
L 101.216807 353.220118 
L 118.535716 353.218055 
L 135.854625 353.21393 
L 153.173534 353.208773 
L 170.492443 353.174823 
L 187.811352 352.989604 
L 205.130261 350.449646 
L 222.44917 289.450099 
L 239.76808 255.975381 
L 257.086989 254.215065 
L 274.405898 311.792133 
L 291.724807 353.201295 
L 309.043716 353.211094 
L 326.362625 353.218915 
L 343.681534 353.21668 
L 361.000443 353.221579 
L 378.319352 353.22072 
L 395.638261 353.215477 
L 412.95717 353.218399 
L 430.27608 353.214446 
L 447.594989 353.212899 
L 464.913898 353.202671 
L 482.232807 353.121621 
L 499.551716 352.786335 
L 516.870625 352.469528 
L 534.189534 352.100636 
L 551.508443 352.127108 
L 568.827352 352.625611 
L 586.146261 353.203014 
L 603.46517 353.200006 
L 620.78408 353.161931 
L 638.102989 353.135631 
L 655.421898 353.124715 
L 672.740807 352.961584 
L 690.059716 352.924626 
L 707.378625 352.531669 
L 724.697534 350.649907 
L 742.016443 352.018383 
L 759.335352 353.190896 
L 776.654261 353.209375 
L 793.97317 353.222353 
L 811.29208 353.222525 
L 828.610989 353.222783 
L 845.929898 353.223041 
L 863.248807 353.223384 
L 880.567716 353.222439 
L 897.886625 353.221837 
L 915.205534 353.219087 
L 932.524443 353.206195 
L 949.843352 353.2135 
" clip-path="url(#p700adb8275)" style="fill: none; stroke: #d9534f; stroke-linecap: square"/>
   </g>
   <g id="line2d_24">
    <path d="M 83.897898 353.215907 
L 101.216807 353.219517 
L 118.535716 353.217454 
L 135.854625 353.212297 
L 153.173534 353.205163 
L 170.492443 353.176456 
L 187.811352 352.947059 
L 205.130261 349.948565 
L 222.44917 279.573212 
L 239.76808 241.600539 
L 257.086989 239.463939 
L 274.405898 303.95206 
L 291.724807 353.19992 
L 309.043716 353.211437 
L 326.362625 353.219345 
L 343.681534 353.208343 
L 361.000443 353.22115 
L 378.319352 353.218485 
L 395.638261 353.213672 
L 412.95717 353.215821 
L 430.27608 353.214875 
L 447.594989 353.20989 
L 464.913898 353.201038 
L 482.232807 353.10976 
L 499.551716 352.719725 
L 516.870625 352.365874 
L 534.189534 352.005748 
L 551.508443 352.01993 
L 568.827352 352.57576 
L 586.146261 353.202241 
L 603.46517 353.200608 
L 620.78408 353.169323 
L 638.102989 353.147663 
L 655.421898 353.132021 
L 672.740807 352.983158 
L 690.059716 352.924626 
L 707.378625 352.484139 
L 724.697534 350.370487 
L 742.016443 351.828178 
L 759.335352 353.190466 
L 776.654261 353.208601 
L 793.97317 353.221236 
L 811.29208 353.222009 
L 828.610989 353.222697 
L 845.929898 353.223126 
L 863.248807 353.223041 
L 880.567716 353.222181 
L 897.886625 353.221579 
L 915.205534 353.218657 
L 932.524443 353.204819 
L 949.843352 353.210922 
" clip-path="url(#p700adb8275)" style="fill: none; stroke: #d9534f; stroke-linecap: square"/>
   </g>
   <g id="line2d_25">
    <path d="M 83.897898 353.218055 
L 101.216807 353.220548 
L 118.535716 353.218915 
L 135.854625 353.212641 
L 153.173534 353.209031 
L 170.492443 353.185825 
L 187.811352 352.990291 
L 205.130261 350.33585 
L 222.44917 288.421121 
L 239.76808 255.556295 
L 257.086989 252.581265 
L 274.405898 310.091637 
L 291.724807 353.207398 
L 309.043716 353.214274 
L 326.362625 353.218227 
L 343.681534 353.197858 
L 361.000443 353.222611 
L 378.319352 353.221236 
L 395.638261 353.216766 
L 412.95717 353.217712 
L 430.27608 353.215563 
L 447.594989 353.216938 
L 464.913898 353.204905 
L 482.232807 353.133568 
L 499.551716 352.847616 
L 516.870625 352.5902 
L 534.189534 352.297974 
L 551.508443 352.324188 
L 568.827352 352.734852 
L 586.146261 353.207226 
L 603.46517 353.204819 
L 620.78408 353.171127 
L 638.102989 353.153508 
L 655.421898 353.146288 
L 672.740807 353.074177 
L 690.059716 353.053292 
L 707.378625 352.678211 
L 724.697534 351.122883 
L 742.016443 352.190366 
L 759.335352 353.187802 
L 776.654261 353.209461 
L 793.97317 353.222181 
L 811.29208 353.221923 
L 828.610989 353.223728 
L 845.929898 353.223642 
L 863.248807 353.223384 
L 880.567716 353.222783 
L 897.886625 353.222353 
L 915.205534 353.221751 
L 932.524443 353.21075 
L 949.843352 353.215219 
" clip-path="url(#p700adb8275)" style="fill: none; stroke: #d9534f; stroke-linecap: square"/>
   </g>
   <g id="line2d_26">
    <path d="M 83.897898 353.215821 
L 101.216807 353.21986 
L 118.535716 353.217712 
L 135.854625 353.211437 
L 153.173534 353.20396 
L 170.492443 353.182559 
L 187.811352 352.959779 
L 205.130261 350.063221 
L 222.44917 282.573339 
L 239.76808 246.630603 
L 257.086989 244.671573 
L 274.405898 306.358109 
L 291.724807 353.204819 
L 309.043716 353.210922 
L 326.362625 353.218915 
L 343.681534 353.214446 
L 361.000443 353.221407 
L 378.319352 353.217368 
L 395.638261 353.212383 
L 412.95717 353.216852 
L 430.27608 353.214188 
L 447.594989 353.212383 
L 464.913898 353.200264 
L 482.232807 353.117409 
L 499.551716 352.749549 
L 516.870625 352.397503 
L 534.189534 352.061959 
L 551.508443 352.108973 
L 568.827352 352.621313 
L 586.146261 353.206882 
L 603.46517 353.204132 
L 620.78408 353.178949 
L 638.102989 353.154883 
L 655.421898 353.137865 
L 672.740807 352.977915 
L 690.059716 352.924369 
L 707.378625 352.551953 
L 724.697534 350.60444 
L 742.016443 351.920057 
L 759.335352 353.188489 
L 776.654261 353.208429 
L 793.97317 353.222009 
L 811.29208 353.222095 
L 828.610989 353.223384 
L 845.929898 353.223126 
L 863.248807 353.223126 
L 880.567716 353.222009 
L 897.886625 353.222095 
L 915.205534 353.21986 
L 932.524443 353.206968 
L 949.843352 353.212125 
" clip-path="url(#p700adb8275)" style="fill: none; stroke: #d9534f; stroke-linecap: square"/>
   </g>
   <g id="line2d_27">
    <path d="M 83.897898 353.219087 
L 101.216807 353.22072 
L 118.535716 353.219173 
L 135.854625 353.215907 
L 153.173534 353.212211 
L 170.492443 353.180238 
L 187.811352 353.048307 
L 205.130261 351.056788 
L 222.44917 304.555764 
L 239.76808 279.650996 
L 257.086989 278.896452 
L 274.405898 321.785394 
L 291.724807 353.211781 
L 309.043716 353.21711 
L 326.362625 353.22115 
L 343.681534 353.217368 
L 361.000443 353.222439 
L 378.319352 353.220806 
L 395.638261 353.216337 
L 412.95717 353.220204 
L 430.27608 353.218313 
L 447.594989 353.215133 
L 464.913898 353.207914 
L 482.232807 353.154367 
L 499.551716 352.915 
L 516.870625 352.657927 
L 534.189534 352.444259 
L 551.508443 352.471333 
L 568.827352 352.804642 
L 586.146261 353.213242 
L 603.46517 353.206109 
L 620.78408 353.187458 
L 638.102989 353.169237 
L 655.421898 353.161673 
L 672.740807 353.061629 
L 690.059716 353.026132 
L 707.378625 352.711817 
L 724.697534 351.223615 
L 742.016443 352.257578 
L 759.335352 353.203014 
L 776.654261 353.212899 
L 793.97317 353.222439 
L 811.29208 353.222783 
L 828.610989 353.22347 
L 845.929898 353.223556 
L 863.248807 353.223728 
L 880.567716 353.222525 
L 897.886625 353.222525 
L 915.205534 353.220462 
L 932.524443 353.209547 
L 949.843352 353.21711 
" clip-path="url(#p700adb8275)" style="fill: none; stroke: #d9534f; stroke-linecap: square"/>
   </g>
   <g id="line2d_28">
    <path d="M 83.897898 353.217798 
L 101.216807 353.219173 
L 118.535716 353.218915 
L 135.854625 353.210836 
L 153.173534 353.209461 
L 170.492443 353.173878 
L 187.811352 353.015474 
L 205.130261 350.73173 
L 222.44917 298.468701 
L 239.76808 270.811425 
L 257.086989 270.196977 
L 274.405898 318.439925 
L 291.724807 353.205421 
L 309.043716 353.210836 
L 326.362625 353.219001 
L 343.681534 353.215305 
L 361.000443 353.222869 
L 378.319352 353.22115 
L 395.638261 353.215391 
L 412.95717 353.216165 
L 430.27608 353.218657 
L 447.594989 353.21436 
L 464.913898 353.208171 
L 482.232807 353.14732 
L 499.551716 352.885606 
L 516.870625 352.602061 
L 534.189534 352.389338 
L 551.508443 352.440047 
L 568.827352 352.820628 
L 586.146261 353.208773 
L 603.46517 353.201038 
L 620.78408 353.178863 
L 638.102989 353.153508 
L 655.421898 353.145687 
L 672.740807 353.031031 
L 690.059716 353.013755 
L 707.378625 352.683368 
L 724.697534 351.286787 
L 742.016443 352.25182 
L 759.335352 353.195881 
L 776.654261 353.212383 
L 793.97317 353.221923 
L 811.29208 353.22347 
L 828.610989 353.223298 
L 845.929898 353.222955 
L 863.248807 353.223384 
L 880.567716 353.222353 
L 897.886625 353.222009 
L 915.205534 353.21986 
L 932.524443 353.2031 
L 949.843352 353.211867 
" clip-path="url(#p700adb8275)" style="fill: none; stroke: #d9534f; stroke-linecap: square"/>
   </g>
   <g id="line2d_29">
    <path d="M 83.897898 353.216079 
L 101.216807 353.218571 
L 118.535716 353.215993 
L 135.854625 353.211351 
L 153.173534 353.210062 
L 170.492443 353.165369 
L 187.811352 352.958232 
L 205.130261 350.00658 
L 222.44917 282.230662 
L 239.76808 247.043673 
L 257.086989 246.850718 
L 274.405898 308.557881 
L 291.724807 353.204476 
L 309.043716 353.209461 
L 326.362625 353.219431 
L 343.681534 353.215993 
L 361.000443 353.222095 
L 378.319352 353.219946 
L 395.638261 353.21436 
L 412.95717 353.218313 
L 430.27608 353.214618 
L 447.594989 353.214016 
L 464.913898 353.201381 
L 482.232807 353.125145 
L 499.551716 352.771466 
L 516.870625 352.458269 
L 534.189534 352.103042 
L 551.508443 352.144813 
L 568.827352 352.653544 
L 586.146261 353.204046 
L 603.46517 353.203186 
L 620.78408 353.172159 
L 638.102989 353.14964 
L 655.421898 353.13649 
L 672.740807 352.997511 
L 690.059716 352.93941 
L 707.378625 352.511127 
L 724.697534 350.50113 
L 742.016443 351.927105 
L 759.335352 353.193216 
L 776.654261 353.206195 
L 793.97317 353.222181 
L 811.29208 353.223041 
L 828.610989 353.223041 
L 845.929898 353.223041 
L 863.248807 353.223212 
L 880.567716 353.221923 
L 897.886625 353.220892 
L 915.205534 353.216165 
L 932.524443 353.192099 
L 949.843352 353.209117 
" clip-path="url(#p700adb8275)" style="fill: none; stroke: #d9534f; stroke-linecap: square"/>
   </g>
   <g id="line2d_30">
    <path d="M 83.897898 353.217798 
L 101.216807 353.220462 
L 118.535716 353.217024 
L 135.854625 353.213586 
L 153.173534 353.208515 
L 170.492443 353.18041 
L 187.811352 352.991409 
L 205.130261 350.456264 
L 222.44917 292.208882 
L 239.76808 261.261917 
L 257.086989 259.387805 
L 274.405898 313.204185 
L 291.724807 353.20353 
L 309.043716 353.212039 
L 326.362625 353.219087 
L 343.681534 353.211953 
L 361.000443 353.222525 
L 378.319352 353.220548 
L 395.638261 353.216251 
L 412.95717 353.218829 
L 430.27608 353.213844 
L 447.594989 353.216165 
L 464.913898 353.204132 
L 482.232807 353.129013 
L 499.551716 352.816073 
L 516.870625 352.489296 
L 534.189534 352.191484 
L 551.508443 352.18392 
L 568.827352 352.67082 
L 586.146261 353.204304 
L 603.46517 353.202585 
L 620.78408 353.171643 
L 638.102989 353.151531 
L 655.421898 353.13606 
L 672.740807 352.990979 
L 690.059716 352.954794 
L 707.378625 352.578941 
L 724.697534 350.908613 
L 742.016443 352.080868 
L 759.335352 353.19038 
L 776.654261 353.209718 
L 793.97317 353.220634 
L 811.29208 353.222439 
L 828.610989 353.223212 
L 845.929898 353.223212 
L 863.248807 353.223041 
L 880.567716 353.222525 
L 897.886625 353.220978 
L 915.205534 353.219946 
L 932.524443 353.199061 
L 949.843352 353.209203 
" clip-path="url(#p700adb8275)" style="fill: none; stroke: #d9534f; stroke-linecap: square"/>
   </g>
   <g id="line2d_31">
    <path d="M 83.897898 353.217196 
L 101.216807 353.220548 
L 118.535716 353.21797 
L 135.854625 353.217798 
L 153.173534 353.214703 
L 170.492443 353.192357 
L 187.811352 353.035758 
L 205.130261 350.901307 
L 222.44917 303.091455 
L 239.76808 277.764507 
L 257.086989 276.55177 
L 274.405898 321.032053 
L 291.724807 353.206366 
L 309.043716 353.214789 
L 326.362625 353.220548 
L 343.681534 353.213672 
L 361.000443 353.222353 
L 378.319352 353.22115 
L 395.638261 353.215391 
L 412.95717 353.219087 
L 430.27608 353.218571 
L 447.594989 353.216422 
L 464.913898 353.208343 
L 482.232807 353.147234 
L 499.551716 352.901678 
L 516.870625 352.65045 
L 534.189534 352.400769 
L 551.508443 352.429991 
L 568.827352 352.803525 
L 586.146261 353.211094 
L 603.46517 353.205765 
L 620.78408 353.185309 
L 638.102989 353.163908 
L 655.421898 353.161415 
L 672.740807 353.052002 
L 690.059716 353.019944 
L 707.378625 352.66678 
L 724.697534 351.210808 
L 742.016443 352.203688 
L 759.335352 353.196482 
L 776.654261 353.211867 
L 793.97317 353.222181 
L 811.29208 353.222009 
L 828.610989 353.223642 
L 845.929898 353.223126 
L 863.248807 353.223212 
L 880.567716 353.222783 
L 897.886625 353.222181 
L 915.205534 353.219603 
L 932.524443 353.201639 
L 949.843352 353.212555 
" clip-path="url(#p700adb8275)" style="fill: none; stroke: #d9534f; stroke-linecap: square"/>
   </g>
   <g id="line2d_32">
    <path d="M 83.897898 353.216251 
L 101.216807 353.219431 
L 118.535716 353.21797 
L 135.854625 353.214102 
L 153.173534 353.210578 
L 170.492443 353.192185 
L 187.811352 353.020116 
L 205.130261 350.751842 
L 222.44917 299.14804 
L 239.76808 271.833957 
L 257.086989 271.03704 
L 274.405898 318.173828 
L 291.724807 353.203616 
L 309.043716 353.21393 
L 326.362625 353.220376 
L 343.681534 353.215391 
L 361.000443 353.222353 
L 378.319352 353.221665 
L 395.638261 353.215993 
L 412.95717 353.219001 
L 430.27608 353.215821 
L 447.594989 353.216422 
L 464.913898 353.205421 
L 482.232807 353.141905 
L 499.551716 352.8575 
L 516.870625 352.59252 
L 534.189534 352.35917 
L 551.508443 352.362951 
L 568.827352 352.768887 
L 586.146261 353.207398 
L 603.46517 353.202499 
L 620.78408 353.16683 
L 638.102989 353.143968 
L 655.421898 353.128927 
L 672.740807 353.067731 
L 690.059716 353.058707 
L 707.378625 352.709669 
L 724.697534 351.393621 
L 742.016443 352.344988 
L 759.335352 353.197943 
L 776.654261 353.211781 
L 793.97317 353.222525 
L 811.29208 353.222697 
L 828.610989 353.223126 
L 845.929898 353.223298 
L 863.248807 353.223384 
L 880.567716 353.222009 
L 897.886625 353.222009 
L 915.205534 353.218743 
L 932.524443 353.205249 
L 949.843352 353.21393 
" clip-path="url(#p700adb8275)" style="fill: none; stroke: #d9534f; stroke-linecap: square"/>
   </g>
   <g id="line2d_33">
    <path d="M 83.897898 353.217454 
L 101.216807 353.221236 
L 118.535716 353.219774 
L 135.854625 353.215305 
L 153.173534 353.213672 
L 170.492443 353.190208 
L 187.811352 353.061457 
L 205.130261 351.289795 
L 222.44917 309.589438 
L 239.76808 287.890645 
L 257.086989 287.13378 
L 274.405898 325.371778 
L 291.724807 353.208343 
L 309.043716 353.216422 
L 326.362625 353.221064 
L 343.681534 353.218485 
L 361.000443 353.222697 
L 378.319352 353.221236 
L 395.638261 353.219173 
L 412.95717 353.220204 
L 430.27608 353.217884 
L 447.594989 353.216766 
L 464.913898 353.209203 
L 482.232807 353.164252 
L 499.551716 352.958834 
L 516.870625 352.756683 
L 534.189534 352.575503 
L 551.508443 352.611343 
L 568.827352 352.919126 
L 586.146261 353.211953 
L 603.46517 353.210492 
L 620.78408 353.191497 
L 638.102989 353.174737 
L 655.421898 353.168807 
L 672.740807 353.095063 
L 690.059716 353.073232 
L 707.378625 352.823465 
L 724.697534 351.823365 
L 742.016443 352.519378 
L 759.335352 353.205679 
L 776.654261 353.21436 
L 793.97317 353.222697 
L 811.29208 353.223384 
L 828.610989 353.223728 
L 845.929898 353.223814 
L 863.248807 353.223298 
L 880.567716 353.223298 
L 897.886625 353.223126 
L 915.205534 353.220978 
L 932.524443 353.213156 
L 949.843352 353.218915 
" clip-path="url(#p700adb8275)" style="fill: none; stroke: #d9534f; stroke-linecap: square"/>
   </g>
   <g id="line2d_34">
    <path d="M 83.897898 353.219001 
L 101.216807 353.21986 
L 118.535716 353.220376 
L 135.854625 353.215047 
L 153.173534 353.212813 
L 170.492443 353.186426 
L 187.811352 353.045986 
L 205.130261 351.044412 
L 222.44917 303.199922 
L 239.76808 277.595789 
L 257.086989 276.235908 
L 274.405898 320.754869 
L 291.724807 353.210234 
L 309.043716 353.215563 
L 326.362625 353.220462 
L 343.681534 353.217368 
L 361.000443 353.222439 
L 378.319352 353.219946 
L 395.638261 353.216594 
L 412.95717 353.220204 
L 430.27608 353.218743 
L 447.594989 353.215219 
L 464.913898 353.208171 
L 482.232807 353.152219 
L 499.551716 352.901592 
L 516.870625 352.658701 
L 534.189534 352.39226 
L 551.508443 352.401542 
L 568.827352 352.782725 
L 586.146261 353.208859 
L 603.46517 353.206968 
L 620.78408 353.182215 
L 638.102989 353.161243 
L 655.421898 353.151961 
L 672.740807 353.037391 
L 690.059716 352.98204 
L 707.378625 352.622259 
L 724.697534 350.861513 
L 742.016443 352.118341 
L 759.335352 353.199748 
L 776.654261 353.212039 
L 793.97317 353.221837 
L 811.29208 353.223384 
L 828.610989 353.223298 
L 845.929898 353.222955 
L 863.248807 353.223126 
L 880.567716 353.22029 
L 897.886625 353.221493 
L 915.205534 353.219517 
L 932.524443 353.201124 
L 949.843352 353.210836 
" clip-path="url(#p700adb8275)" style="fill: none; stroke: #d9534f; stroke-linecap: square"/>
   </g>
   <g id="line2d_35">
    <path d="M 83.897898 353.215563 
L 101.216807 353.220204 
L 118.535716 353.218141 
L 135.854625 353.214532 
L 153.173534 353.209375 
L 170.492443 353.170096 
L 187.811352 352.982126 
L 205.130261 350.443716 
L 222.44917 287.820854 
L 239.76808 254.235177 
L 257.086989 252.302705 
L 274.405898 310.627184 
L 291.724807 353.206281 
L 309.043716 353.20989 
L 326.362625 353.219946 
L 343.681534 353.213586 
L 361.000443 353.222783 
L 378.319352 353.220978 
L 395.638261 353.216938 
L 412.95717 353.218829 
L 430.27608 353.217368 
L 447.594989 353.213586 
L 464.913898 353.205421 
L 482.232807 353.142335 
L 499.551716 352.875894 
L 516.870625 352.617532 
L 534.189534 352.328486 
L 551.508443 352.364842 
L 568.827352 352.748002 
L 586.146261 353.204819 
L 603.46517 353.199319 
L 620.78408 353.163048 
L 638.102989 353.13967 
L 655.421898 353.134513 
L 672.740807 353.054839 
L 690.059716 353.02596 
L 707.378625 352.570088 
L 724.697534 350.634866 
L 742.016443 352.067889 
L 759.335352 353.18952 
L 776.654261 353.209375 
L 793.97317 353.22115 
L 811.29208 353.222783 
L 828.610989 353.223212 
L 845.929898 353.22347 
L 863.248807 353.222955 
L 880.567716 353.222869 
L 897.886625 353.221837 
L 915.205534 353.218571 
L 932.524443 353.201983 
L 949.843352 353.213242 
" clip-path="url(#p700adb8275)" style="fill: none; stroke: #d9534f; stroke-linecap: square"/>
   </g>
   <g id="line2d_36">
    <path d="M 83.897898 353.218141 
L 101.216807 353.220548 
L 118.535716 353.219431 
L 135.854625 353.21668 
L 153.173534 353.213328 
L 170.492443 353.182645 
L 187.811352 353.050627 
L 205.130261 351.118671 
L 222.44917 304.608107 
L 239.76808 280.907395 
L 257.086989 280.729911 
L 274.405898 323.120092 
L 291.724807 353.208171 
L 309.043716 353.214274 
L 326.362625 353.220806 
L 343.681534 353.217798 
L 361.000443 353.222525 
L 378.319352 353.218227 
L 395.638261 353.217884 
L 412.95717 353.219517 
L 430.27608 353.216852 
L 447.594989 353.217454 
L 464.913898 353.21118 
L 482.232807 353.154797 
L 499.551716 352.904343 
L 516.870625 352.682251 
L 534.189534 352.428788 
L 551.508443 352.460331 
L 568.827352 352.817964 
L 586.146261 353.213672 
L 603.46517 353.209976 
L 620.78408 353.189864 
L 638.102989 353.170182 
L 655.421898 353.158235 
L 672.740807 353.030773 
L 690.059716 352.980149 
L 707.378625 352.695917 
L 724.697534 351.090136 
L 742.016443 352.250874 
L 759.335352 353.199834 
L 776.654261 353.21075 
L 793.97317 353.222181 
L 811.29208 353.222955 
L 828.610989 353.222783 
L 845.929898 353.223126 
L 863.248807 353.223126 
L 880.567716 353.222009 
L 897.886625 353.221837 
L 915.205534 353.218141 
L 932.524443 353.198373 
L 949.843352 353.211094 
" clip-path="url(#p700adb8275)" style="fill: none; stroke: #d9534f; stroke-linecap: square"/>
   </g>
   <g id="line2d_37">
    <path d="M 83.897898 353.213586 
L 101.216807 353.218743 
L 118.535716 353.217196 
L 135.854625 353.212383 
L 153.173534 353.210836 
L 170.492443 353.18677 
L 187.811352 352.96253 
L 205.130261 349.941947 
L 222.44917 285.349828 
L 239.76808 253.624081 
L 257.086989 254.269814 
L 274.405898 312.112808 
L 291.724807 353.202499 
L 309.043716 353.21032 
L 326.362625 353.217626 
L 343.681534 353.211867 
L 361.000443 353.221322 
L 378.319352 353.21711 
L 395.638261 353.210578 
L 412.95717 353.217024 
L 430.27608 353.214875 
L 447.594989 353.212125 
L 464.913898 353.205077 
L 482.232807 353.110018 
L 499.551716 352.730898 
L 516.870625 352.36828 
L 534.189534 352.059037 
L 551.508443 352.132007 
L 568.827352 352.655091 
L 586.146261 353.202585 
L 603.46517 353.19992 
L 620.78408 353.173706 
L 638.102989 353.144311 
L 655.421898 353.139756 
L 672.740807 352.968288 
L 690.059716 352.914914 
L 707.378625 352.475372 
L 724.697534 350.506974 
L 742.016443 351.877943 
L 759.335352 353.189778 
L 776.654261 353.210664 
L 793.97317 353.221665 
L 811.29208 353.222697 
L 828.610989 353.223298 
L 845.929898 353.223298 
L 863.248807 353.222869 
L 880.567716 353.222869 
L 897.886625 353.221665 
L 915.205534 353.217712 
L 932.524443 353.195021 
L 949.843352 353.21075 
" clip-path="url(#p700adb8275)" style="fill: none; stroke: #d9534f; stroke-linecap: square"/>
   </g>
   <g id="line2d_38">
    <path d="M 83.897898 353.215563 
L 101.216807 353.219001 
L 118.535716 353.215477 
L 135.854625 353.212727 
L 153.173534 353.210062 
L 170.492443 353.191154 
L 187.811352 352.979118 
L 205.130261 350.117368 
L 222.44917 290.036184 
L 239.76808 260.362549 
L 257.086989 260.877984 
L 274.405898 314.859644 
L 291.724807 353.204476 
L 309.043716 353.212211 
L 326.362625 353.21986 
L 343.681534 353.213328 
L 361.000443 353.221493 
L 378.319352 353.218743 
L 395.638261 353.211953 
L 412.95717 353.217196 
L 430.27608 353.215391 
L 447.594989 353.210148 
L 464.913898 353.201038 
L 482.232807 353.120332 
L 499.551716 352.764504 
L 516.870625 352.427585 
L 534.189534 352.113614 
L 551.508443 352.182459 
L 568.827352 352.675203 
L 586.146261 353.207054 
L 603.46517 353.20396 
L 620.78408 353.175855 
L 638.102989 353.154625 
L 655.421898 353.14371 
L 672.740807 352.996995 
L 690.059716 352.943363 
L 707.378625 352.572752 
L 724.697534 350.874061 
L 742.016443 352.033166 
L 759.335352 353.193388 
L 776.654261 353.208945 
L 793.97317 353.221407 
L 811.29208 353.222783 
L 828.610989 353.223212 
L 845.929898 353.223298 
L 863.248807 353.223126 
L 880.567716 353.222525 
L 897.886625 353.221579 
L 915.205534 353.218485 
L 932.524443 353.200006 
L 949.843352 353.208773 
" clip-path="url(#p700adb8275)" style="fill: none; stroke: #d9534f; stroke-linecap: square"/>
   </g>
   <g id="line2d_39">
    <path d="M 83.897898 353.217368 
L 101.216807 353.21986 
L 118.535716 353.217454 
L 135.854625 353.214532 
L 153.173534 353.211781 
L 170.492443 353.189177 
L 187.811352 352.972586 
L 205.130261 350.055485 
L 222.44917 287.84492 
L 239.76808 256.900706 
L 257.086989 257.813997 
L 274.405898 313.313168 
L 291.724807 353.209031 
L 309.043716 353.213586 
L 326.362625 353.219001 
L 343.681534 353.213156 
L 361.000443 353.221493 
L 378.319352 353.219946 
L 395.638261 353.214532 
L 412.95717 353.217282 
L 430.27608 353.214016 
L 447.594989 353.212383 
L 464.913898 353.201983 
L 482.232807 353.128239 
L 499.551716 352.806361 
L 516.870625 352.509666 
L 534.189534 352.246319 
L 551.508443 352.288004 
L 568.827352 352.714997 
L 586.146261 353.206195 
L 603.46517 353.20396 
L 620.78408 353.180496 
L 638.102989 353.157118 
L 655.421898 353.148781 
L 672.740807 353.022952 
L 690.059716 352.990377 
L 707.378625 352.618735 
L 724.697534 350.843034 
L 742.016443 352.080696 
L 759.335352 353.191068 
L 776.654261 353.209547 
L 793.97317 353.222267 
L 811.29208 353.222955 
L 828.610989 353.223384 
L 845.929898 353.223126 
L 863.248807 353.223212 
L 880.567716 353.222869 
L 897.886625 353.222525 
L 915.205534 353.217196 
L 932.524443 353.199233 
L 949.843352 353.20989 
" clip-path="url(#p700adb8275)" style="fill: none; stroke: #d9534f; stroke-linecap: square"/>
   </g>
   <g id="line2d_40">
    <path d="M 83.897898 353.214789 
L 101.216807 353.219603 
L 118.535716 353.217196 
L 135.854625 353.212125 
L 153.173534 353.207742 
L 170.492443 353.191325 
L 187.811352 352.990721 
L 205.130261 350.208904 
L 222.44917 291.780256 
L 239.76808 263.263234 
L 257.086989 263.788552 
L 274.405898 315.875386 
L 291.724807 353.204562 
L 309.043716 353.213242 
L 326.362625 353.220118 
L 343.681534 353.208773 
L 361.000443 353.221665 
L 378.319352 353.220978 
L 395.638261 353.21307 
L 412.95717 353.215047 
L 430.27608 353.21436 
L 447.594989 353.214102 
L 464.913898 353.204218 
L 482.232807 353.127208 
L 499.551716 352.817448 
L 516.870625 352.501157 
L 534.189534 352.289035 
L 551.508443 352.347996 
L 568.827352 352.792523 
L 586.146261 353.208429 
L 603.46517 353.200608 
L 620.78408 353.176628 
L 638.102989 353.15368 
L 655.421898 353.143194 
L 672.740807 353.042204 
L 690.059716 353.012466 
L 707.378625 352.686462 
L 724.697534 351.295468 
L 742.016443 352.252335 
L 759.335352 353.195709 
L 776.654261 353.211781 
L 793.97317 353.221751 
L 811.29208 353.223212 
L 828.610989 353.223041 
L 845.929898 353.223384 
L 863.248807 353.22347 
L 880.567716 353.222869 
L 897.886625 353.222353 
L 915.205534 353.220462 
L 932.524443 353.211094 
L 949.843352 353.215477 
" clip-path="url(#p700adb8275)" style="fill: none; stroke: #d9534f; stroke-linecap: square"/>
   </g>
   <g id="line2d_41">
    <path d="M 83.897898 353.216337 
L 101.216807 353.218399 
L 118.535716 353.21797 
L 135.854625 353.212899 
L 153.173534 353.209633 
L 170.492443 353.181269 
L 187.811352 352.974906 
L 205.130261 350.325794 
L 222.44917 290.810238 
L 239.76808 260.650392 
L 257.086989 260.717088 
L 274.405898 314.540086 
L 291.724807 353.205593 
L 309.043716 353.213328 
L 326.362625 353.219087 
L 343.681534 353.212039 
L 361.000443 353.221751 
L 378.319352 353.219689 
L 395.638261 353.214961 
L 412.95717 353.217712 
L 430.27608 353.214789 
L 447.594989 353.212813 
L 464.913898 353.205593 
L 482.232807 353.131247 
L 499.551716 352.814784 
L 516.870625 352.515424 
L 534.189534 352.220019 
L 551.508443 352.277175 
L 568.827352 352.72024 
L 586.146261 353.207312 
L 603.46517 353.201295 
L 620.78408 353.174136 
L 638.102989 353.147835 
L 655.421898 353.139069 
L 672.740807 352.997425 
L 690.059716 352.961842 
L 707.378625 352.544389 
L 724.697534 350.709383 
L 742.016443 352.019758 
L 759.335352 353.197084 
L 776.654261 353.210406 
L 793.97317 353.221751 
L 811.29208 353.222353 
L 828.610989 353.223298 
L 845.929898 353.223384 
L 863.248807 353.223642 
L 880.567716 353.222439 
L 897.886625 353.222095 
L 915.205534 353.218657 
L 932.524443 353.207226 
L 949.843352 353.215907 
" clip-path="url(#p700adb8275)" style="fill: none; stroke: #d9534f; stroke-linecap: square"/>
   </g>
   <g id="line2d_42">
    <path d="M 83.897898 353.213328 
L 101.216807 353.217282 
L 118.535716 353.214188 
L 135.854625 353.207914 
L 153.173534 353.208257 
L 170.492443 353.165713 
L 187.811352 352.907093 
L 205.130261 349.293292 
L 222.44917 267.360239 
L 239.76808 225.994308 
L 257.086989 226.524612 
L 274.405898 300.48291 
L 291.724807 353.193044 
L 309.043716 353.208515 
L 326.362625 353.219431 
L 343.681534 353.213758 
L 361.000443 353.220978 
L 378.319352 353.220548 
L 395.638261 353.211609 
L 412.95717 353.216766 
L 430.27608 353.213844 
L 447.594989 353.209289 
L 464.913898 353.199748 
L 482.232807 353.094547 
L 499.551716 352.653544 
L 516.870625 352.223972 
L 534.189534 351.844423 
L 551.508443 351.881466 
L 568.827352 352.512932 
L 586.146261 353.195537 
L 603.46517 353.191411 
L 620.78408 353.124629 
L 638.102989 353.090078 
L 655.421898 353.074263 
L 672.740807 352.965452 
L 690.059716 352.9462 
L 707.378625 352.383063 
L 724.697534 350.190683 
L 742.016443 351.869348 
L 759.335352 353.183246 
L 776.654261 353.206366 
L 793.97317 353.221322 
L 811.29208 353.222697 
L 828.610989 353.222955 
L 845.929898 353.222869 
L 863.248807 353.223041 
L 880.567716 353.221837 
L 897.886625 353.221923 
L 915.205534 353.218915 
L 932.524443 353.200608 
L 949.843352 353.213328 
" clip-path="url(#p700adb8275)" style="fill: none; stroke: #d9534f; stroke-linecap: square"/>
   </g>
   <g id="line2d_43">
    <path d="M 83.897898 353.212813 
L 101.216807 353.21754 
L 118.535716 353.214703 
L 135.854625 353.211523 
L 153.173534 353.208171 
L 170.492443 353.171815 
L 187.811352 352.952474 
L 205.130261 349.8303 
L 222.44917 279.000966 
L 239.76808 242.809236 
L 257.086989 241.619361 
L 274.405898 306.279724 
L 291.724807 353.201553 
L 309.043716 353.207054 
L 326.362625 353.218313 
L 343.681534 353.20989 
L 361.000443 353.22072 
L 378.319352 353.216251 
L 395.638261 353.211695 
L 412.95717 353.215391 
L 430.27608 353.211609 
L 447.594989 353.212125 
L 464.913898 353.198201 
L 482.232807 353.10933 
L 499.551716 352.696089 
L 516.870625 352.279581 
L 534.189534 351.917823 
L 551.508443 351.950999 
L 568.827352 352.552812 
L 586.146261 353.201124 
L 603.46517 353.196139 
L 620.78408 353.161759 
L 638.102989 353.13056 
L 655.421898 353.120418 
L 672.740807 352.913969 
L 690.059716 352.853719 
L 707.378625 352.351864 
L 724.697534 349.979678 
L 742.016443 351.620096 
L 759.335352 353.183934 
L 776.654261 353.207999 
L 793.97317 353.222439 
L 811.29208 353.222697 
L 828.610989 353.223556 
L 845.929898 353.222783 
L 863.248807 353.223384 
L 880.567716 353.223041 
L 897.886625 353.221322 
L 915.205534 353.219431 
L 932.524443 353.202069 
L 949.843352 353.210836 
" clip-path="url(#p700adb8275)" style="fill: none; stroke: #d9534f; stroke-linecap: square"/>
   </g>
   <g id="line2d_44">
    <path d="M 83.897898 353.213758 
L 101.216807 353.217798 
L 118.535716 353.217712 
L 135.854625 353.21307 
L 153.173534 353.208601 
L 170.492443 353.177917 
L 187.811352 352.975766 
L 205.130261 350.213029 
L 222.44917 288.70415 
L 239.76808 257.190353 
L 257.086989 257.042177 
L 274.405898 313.083513 
L 291.724807 353.205937 
L 309.043716 353.211695 
L 326.362625 353.220118 
L 343.681534 353.21118 
L 361.000443 353.221064 
L 378.319352 353.217368 
L 395.638261 353.213156 
L 412.95717 353.217024 
L 430.27608 353.215821 
L 447.594989 353.211867 
L 464.913898 353.203358 
L 482.232807 353.12291 
L 499.551716 352.753932 
L 516.870625 352.412544 
L 534.189534 352.095221 
L 551.508443 352.155213 
L 568.827352 352.646496 
L 586.146261 353.205335 
L 603.46517 353.201038 
L 620.78408 353.177144 
L 638.102989 353.153766 
L 655.421898 353.136232 
L 672.740807 352.979462 
L 690.059716 352.937433 
L 707.378625 352.529434 
L 724.697534 350.679645 
L 742.016443 351.993458 
L 759.335352 353.194162 
L 776.654261 353.209633 
L 793.97317 353.222611 
L 811.29208 353.222611 
L 828.610989 353.223556 
L 845.929898 353.223298 
L 863.248807 353.223298 
L 880.567716 353.222869 
L 897.886625 353.222181 
L 915.205534 353.220118 
L 932.524443 353.206281 
L 949.843352 353.214875 
" clip-path="url(#p700adb8275)" style="fill: none; stroke: #d9534f; stroke-linecap: square"/>
   </g>
   <g id="line2d_45">
    <path d="M 83.897898 353.218657 
L 101.216807 353.219173 
L 118.535716 353.216337 
L 135.854625 353.212469 
L 153.173534 353.206968 
L 170.492443 353.180668 
L 187.811352 352.964679 
L 205.130261 349.847145 
L 222.44917 282.930027 
L 239.76808 249.755184 
L 257.086989 250.224636 
L 274.405898 310.185923 
L 291.724807 353.206195 
L 309.043716 353.212297 
L 326.362625 353.218657 
L 343.681534 353.212125 
L 361.000443 353.222095 
L 378.319352 353.221493 
L 395.638261 353.216251 
L 412.95717 353.218571 
L 430.27608 353.214016 
L 447.594989 353.214102 
L 464.913898 353.201295 
L 482.232807 353.12609 
L 499.551716 352.833091 
L 516.870625 352.590458 
L 534.189534 352.31482 
L 551.508443 352.383751 
L 568.827352 352.775935 
L 586.146261 353.204647 
L 603.46517 353.202241 
L 620.78408 353.169752 
L 638.102989 353.150414 
L 655.421898 353.140616 
L 672.740807 353.069794 
L 690.059716 353.045728 
L 707.378625 352.641597 
L 724.697534 350.995335 
L 742.016443 352.191484 
L 759.335352 353.185567 
L 776.654261 353.208085 
L 793.97317 353.221322 
L 811.29208 353.222267 
L 828.610989 353.223126 
L 845.929898 353.223126 
L 863.248807 353.222783 
L 880.567716 353.222439 
L 897.886625 353.221322 
L 915.205534 353.218657 
L 932.524443 353.201038 
L 949.843352 353.212383 
" clip-path="url(#p700adb8275)" style="fill: none; stroke: #d9534f; stroke-linecap: square"/>
   </g>
   <g id="line2d_46">
    <path d="M 83.897898 353.216079 
L 101.216807 353.219345 
L 118.535716 353.217884 
L 135.854625 353.212383 
L 153.173534 353.208515 
L 170.492443 353.184106 
L 187.811352 352.961842 
L 205.130261 349.893386 
L 222.44917 284.102797 
L 239.76808 251.210898 
L 257.086989 251.858866 
L 274.405898 311.012664 
L 291.724807 353.204304 
L 309.043716 353.212297 
L 326.362625 353.218743 
L 343.681534 353.213672 
L 361.000443 353.221579 
L 378.319352 353.219603 
L 395.638261 353.213328 
L 412.95717 353.218141 
L 430.27608 353.214016 
L 447.594989 353.21118 
L 464.913898 353.200952 
L 482.232807 353.119558 
L 499.551716 352.7682 
L 516.870625 352.464543 
L 534.189534 352.155557 
L 551.508443 352.213057 
L 568.827352 352.696347 
L 586.146261 353.207484 
L 603.46517 353.20396 
L 620.78408 353.178003 
L 638.102989 353.159524 
L 655.421898 353.145085 
L 672.740807 352.981782 
L 690.059716 352.933909 
L 707.378625 352.567509 
L 724.697534 350.679129 
L 742.016443 352.010561 
L 759.335352 353.187028 
L 776.654261 353.207828 
L 793.97317 353.221751 
L 811.29208 353.222869 
L 828.610989 353.223126 
L 845.929898 353.223384 
L 863.248807 353.223642 
L 880.567716 353.222095 
L 897.886625 353.221579 
L 915.205534 353.21797 
L 932.524443 353.194334 
L 949.843352 353.208085 
" clip-path="url(#p700adb8275)" style="fill: none; stroke: #d9534f; stroke-linecap: square"/>
   </g>
   <g id="line2d_47">
    <path d="M 83.897898 353.213586 
L 101.216807 353.218485 
L 118.535716 353.214102 
L 135.854625 353.210234 
L 153.173534 353.208085 
L 170.492443 353.181613 
L 187.811352 352.944738 
L 205.130261 349.737733 
L 222.44917 279.838966 
L 239.76808 245.056366 
L 257.086989 245.640904 
L 274.405898 308.191568 
L 291.724807 353.199147 
L 309.043716 353.21032 
L 326.362625 353.218141 
L 343.681534 353.207054 
L 361.000443 353.220806 
L 378.319352 353.218055 
L 395.638261 353.212555 
L 412.95717 353.217884 
L 430.27608 353.211695 
L 447.594989 353.208687 
L 464.913898 353.201295 
L 482.232807 353.110534 
L 499.551716 352.726858 
L 516.870625 352.370773 
L 534.189534 352.014085 
L 551.508443 352.099776 
L 568.827352 352.627845 
L 586.146261 353.202757 
L 603.46517 353.196568 
L 620.78408 353.158837 
L 638.102989 353.128669 
L 655.421898 353.125317 
L 672.740807 352.93623 
L 690.059716 352.921446 
L 707.378625 352.400511 
L 724.697534 349.991883 
L 742.016443 351.667798 
L 759.335352 353.190896 
L 776.654261 353.20757 
L 793.97317 353.221665 
L 811.29208 353.222869 
L 828.610989 353.222783 
L 845.929898 353.22347 
L 863.248807 353.223298 
L 880.567716 353.221923 
L 897.886625 353.220892 
L 915.205534 353.217798 
L 932.524443 353.189606 
L 949.843352 353.20671 
" clip-path="url(#p700adb8275)" style="fill: none; stroke: #d9534f; stroke-linecap: square"/>
   </g>
   <g id="line2d_48">
    <path d="M 83.897898 353.216766 
L 101.216807 353.21711 
L 118.535716 353.21754 
L 135.854625 353.21307 
L 153.173534 353.210062 
L 170.492443 353.187544 
L 187.811352 352.987541 
L 205.130261 350.224203 
L 222.44917 291.099112 
L 239.76808 261.427282 
L 257.086989 261.437768 
L 274.405898 314.881647 
L 291.724807 353.204647 
L 309.043716 353.214618 
L 326.362625 353.219689 
L 343.681534 353.214532 
L 361.000443 353.222181 
L 378.319352 353.221064 
L 395.638261 353.215993 
L 412.95717 353.219173 
L 430.27608 353.217196 
L 447.594989 353.215735 
L 464.913898 353.203358 
L 482.232807 353.13735 
L 499.551716 352.836701 
L 516.870625 352.573096 
L 534.189534 352.316539 
L 551.508443 352.367764 
L 568.827352 352.781608 
L 586.146261 353.207914 
L 603.46517 353.199491 
L 620.78408 353.17044 
L 638.102989 353.14732 
L 655.421898 353.14646 
L 672.740807 353.04229 
L 690.059716 353.007825 
L 707.378625 352.653114 
L 724.697534 351.240461 
L 742.016443 352.259641 
L 759.335352 353.192271 
L 776.654261 353.209804 
L 793.97317 353.222009 
L 811.29208 353.222353 
L 828.610989 353.223041 
L 845.929898 353.223126 
L 863.248807 353.222697 
L 880.567716 353.221751 
L 897.886625 353.221837 
L 915.205534 353.217454 
L 932.524443 353.195537 
L 949.843352 353.207999 
" clip-path="url(#p700adb8275)" style="fill: none; stroke: #d9534f; stroke-linecap: square"/>
   </g>
   <g id="line2d_49">
    <path d="M 83.897898 353.142507 
L 101.216807 353.168463 
L 118.535716 353.1609 
L 135.854625 353.142077 
L 153.173534 353.129013 
L 170.492443 353.032062 
L 187.811352 352.637815 
L 205.130261 346.694631 
L 222.44917 188.524349 
L 239.76808 128.285878 
L 257.086989 128.242989 
L 274.405898 250.391205 
L 291.724807 348.140375 
L 309.043716 271.103221 
L 326.362625 348.382751 
L 343.681534 353.196826 
L 361.000443 353.220806 
L 378.319352 353.219946 
L 395.638261 353.219774 
L 412.95717 353.219431 
L 430.27608 353.216938 
L 447.594989 353.207656 
L 464.913898 353.192701 
L 482.232807 353.093945 
L 499.551716 352.898584 
L 516.870625 333.352549 
" clip-path="url(#p700adb8275)" style="fill: none; stroke: #d9534f; stroke-linecap: square"/>
   </g>
   <g id="line2d_50">
    <path d="M 83.897898 353.086554 
L 101.216807 353.142249 
L 118.535716 353.133568 
L 135.854625 353.115003 
L 153.173534 353.094977 
L 170.492443 353.006793 
L 187.811352 352.590973 
L 205.130261 346.646672 
L 222.44917 187.992928 
L 239.76808 127.599233 
L 257.086989 128.074788 
L 274.405898 250.219136 
L 291.724807 346.615902 
L 309.043716 264.842112 
L 326.362625 348.582324 
L 343.681534 353.197686 
L 361.000443 353.220978 
L 378.319352 353.219603 
L 395.638261 353.219001 
L 412.95717 353.217368 
L 430.27608 353.216337 
L 447.594989 353.21032 
L 464.913898 353.190638 
L 482.232807 353.082944 
L 499.551716 352.87787 
L 516.870625 333.068918 
" clip-path="url(#p700adb8275)" style="fill: none; stroke: #d9534f; stroke-linecap: square"/>
   </g>
   <g id="line2d_51">
    <path d="M 83.897898 353.145773 
L 101.216807 353.174737 
L 118.535716 353.167518 
L 135.854625 353.145687 
L 153.173534 353.142421 
L 170.492443 353.065325 
L 187.811352 352.714568 
L 205.130261 347.626402 
L 222.44917 213.283691 
L 239.76808 162.441911 
L 257.086989 163.555205 
L 274.405898 266.793063 
L 291.724807 348.633119 
L 309.043716 281.76035 
L 326.362625 349.252036 
L 343.681534 353.208601 
L 361.000443 353.221064 
L 378.319352 353.221236 
L 395.638261 353.22029 
L 412.95717 353.21986 
L 430.27608 353.217454 
L 447.594989 353.213672 
L 464.913898 353.197084 
L 482.232807 353.11251 
L 499.551716 352.955654 
L 516.870625 336.356887 
" clip-path="url(#p700adb8275)" style="fill: none; stroke: #d9534f; stroke-linecap: square"/>
   </g>
   <g id="line2d_52">
    <path d="M 83.897898 353.06352 
L 101.216807 353.129442 
L 118.535716 353.109846 
L 135.854625 353.093086 
L 153.173534 353.064379 
L 170.492443 352.981868 
L 187.811352 352.457667 
L 205.130261 344.95649 
L 222.44917 160.080126 
L 239.76808 95.202141 
L 257.086989 101.702617 
L 274.405898 236.129041 
L 291.724807 345.015966 
L 309.043716 247.513899 
L 326.362625 347.532288 
L 343.681534 353.193474 
L 361.000443 353.219345 
L 378.319352 353.219946 
L 395.638261 353.217712 
L 412.95717 353.213156 
L 430.27608 353.210406 
L 447.594989 353.202241 
L 464.913898 353.17766 
L 482.232807 353.022178 
L 499.551716 352.724366 
L 516.870625 329.775964 
" clip-path="url(#p700adb8275)" style="fill: none; stroke: #d9534f; stroke-linecap: square"/>
   </g>
   <g id="line2d_53">
    <path d="M 83.897898 353.114745 
L 101.216807 353.154196 
L 118.535716 353.145257 
L 135.854625 353.123254 
L 153.173534 353.104259 
L 170.492443 353.037649 
L 187.811352 352.54903 
L 205.130261 345.80171 
L 222.44917 179.800895 
L 239.76808 120.284565 
L 257.086989 127.065749 
L 274.405898 248.598228 
L 291.724807 346.922567 
L 309.043716 261.197713 
L 326.362625 348.186014 
L 343.681534 353.200178 
L 361.000443 353.219087 
L 378.319352 353.22072 
L 395.638261 353.218743 
L 412.95717 353.218141 
L 430.27608 353.215305 
L 447.594989 353.208515 
L 464.913898 353.183676 
L 482.232807 353.066442 
L 499.551716 352.804212 
L 516.870625 332.444672 
" clip-path="url(#p700adb8275)" style="fill: none; stroke: #d9534f; stroke-linecap: square"/>
   </g>
   <g id="line2d_54">
    <path d="M 83.897898 353.110963 
L 101.216807 353.146546 
L 118.535716 353.139326 
L 135.854625 353.120761 
L 153.173534 353.100649 
L 170.492443 353.026218 
L 187.811352 352.547311 
L 205.130261 345.873133 
L 222.44917 179.016956 
L 239.76808 118.436925 
L 257.086989 125.5289 
L 274.405898 247.277883 
L 291.724807 346.755913 
L 309.043716 260.774416 
L 326.362625 348.226926 
L 343.681534 353.188489 
L 361.000443 353.219603 
L 378.319352 353.220204 
L 395.638261 353.217368 
L 412.95717 353.216422 
L 430.27608 353.211781 
L 447.594989 353.204562 
L 464.913898 353.184192 
L 482.232807 353.061113 
L 499.551716 352.780576 
L 516.870625 332.180724 
" clip-path="url(#p700adb8275)" style="fill: none; stroke: #d9534f; stroke-linecap: square"/>
   </g>
   <g id="line2d_55">
    <path d="M 83.897898 353.139069 
L 101.216807 353.169838 
L 118.535716 353.158923 
L 135.854625 353.139756 
L 153.173534 353.128841 
L 170.492443 353.061629 
L 187.811352 352.697292 
L 205.130261 347.451668 
L 222.44917 210.223572 
L 239.76808 159.839641 
L 257.086989 164.070382 
L 274.405898 266.18403 
L 291.724807 348.402605 
L 309.043716 279.185326 
L 326.362625 349.136263 
L 343.681534 353.202843 
L 361.000443 353.221923 
L 378.319352 353.221064 
L 395.638261 353.219689 
L 412.95717 353.219774 
L 430.27608 353.21668 
L 447.594989 353.211351 
L 464.913898 353.196225 
L 482.232807 353.111307 
L 499.551716 352.950755 
L 516.870625 336.072827 
" clip-path="url(#p700adb8275)" style="fill: none; stroke: #d9534f; stroke-linecap: square"/>
   </g>
   <g id="line2d_56">
    <path d="M 83.897898 353.179894 
L 101.216807 353.194591 
L 118.535716 353.186168 
L 135.854625 353.173448 
L 153.173534 353.17001 
L 170.492443 353.121535 
L 187.811352 352.873229 
L 205.130261 349.353628 
L 222.44917 258.56347 
L 239.76808 225.474061 
L 257.086989 228.803371 
L 274.405898 296.22776 
L 291.724807 350.308776 
L 309.043716 305.046531 
L 326.362625 350.438817 
L 343.681534 353.206882 
L 361.000443 353.222783 
L 378.319352 353.221837 
L 395.638261 353.221407 
L 412.95717 353.220548 
L 430.27608 353.220032 
L 447.594989 353.217196 
L 464.913898 353.207226 
L 482.232807 353.148093 
L 499.551716 353.045041 
L 516.870625 341.89044 
" clip-path="url(#p700adb8275)" style="fill: none; stroke: #d9534f; stroke-linecap: square"/>
   </g>
   <g id="line2d_57">
    <path d="M 83.897898 353.16408 
L 101.216807 353.180152 
L 118.535716 353.175339 
L 135.854625 353.16004 
L 153.173534 353.15007 
L 170.492443 353.095321 
L 187.811352 352.833091 
L 205.130261 348.890794 
L 222.44917 247.118019 
L 239.76808 209.017969 
L 257.086989 211.629178 
L 274.405898 287.557765 
L 291.724807 349.452039 
L 309.043716 297.699116 
L 326.362625 350.012425 
L 343.681534 353.209203 
L 361.000443 353.222095 
L 378.319352 353.223041 
L 395.638261 353.221064 
L 412.95717 353.219689 
L 430.27608 353.219517 
L 447.594989 353.213758 
L 464.913898 353.201381 
L 482.232807 353.12927 
L 499.551716 353.00241 
L 516.870625 340.271939 
" clip-path="url(#p700adb8275)" style="fill: none; stroke: #d9534f; stroke-linecap: square"/>
   </g>
   <g id="line2d_58">
    <path d="M 83.897898 353.160642 
L 101.216807 353.178777 
L 118.535716 353.17362 
L 135.854625 353.162361 
L 153.173534 353.148265 
L 170.492443 353.107182 
L 187.811352 352.816847 
L 205.130261 348.530754 
L 222.44917 242.250655 
L 239.76808 204.442917 
L 257.086989 207.115751 
L 274.405898 285.790229 
L 291.724807 349.196342 
L 309.043716 292.459423 
L 326.362625 350.456694 
L 343.681534 353.215391 
L 361.000443 353.221579 
L 378.319352 353.220978 
L 395.638261 353.22072 
L 412.95717 353.219259 
L 430.27608 353.217712 
L 447.594989 353.213844 
L 464.913898 353.200522 
L 482.232807 353.13331 
L 499.551716 352.999058 
L 516.870625 340.236442 
" clip-path="url(#p700adb8275)" style="fill: none; stroke: #d9534f; stroke-linecap: square"/>
   </g>
   <g id="line2d_59">
    <path d="M 83.897898 353.16365 
L 101.216807 353.186083 
L 118.535716 353.184106 
L 135.854625 353.169924 
L 153.173534 353.151359 
L 170.492443 353.112339 
L 187.811352 352.788827 
L 205.130261 348.436898 
L 222.44917 241.146815 
L 239.76808 202.745085 
L 257.086989 207.764235 
L 274.405898 286.53996 
L 291.724807 349.638204 
L 309.043716 294.149347 
L 326.362625 349.600644 
L 343.681534 353.192185 
L 361.000443 353.221923 
L 378.319352 353.221407 
L 395.638261 353.220548 
L 412.95717 353.221837 
L 430.27608 353.219345 
L 447.594989 353.214532 
L 464.913898 353.202499 
L 482.232807 353.139756 
L 499.551716 353.009888 
L 516.870625 339.858525 
" clip-path="url(#p700adb8275)" style="fill: none; stroke: #d9534f; stroke-linecap: square"/>
   </g>
   <g id="line2d_60">
    <path d="M 83.897898 353.14285 
L 101.216807 353.164681 
L 118.535716 353.158493 
L 135.854625 353.142764 
L 153.173534 353.121191 
L 170.492443 353.058105 
L 187.811352 352.639448 
L 205.130261 346.789175 
L 222.44917 198.712886 
L 239.76808 145.977139 
L 257.086989 152.101245 
L 274.405898 259.693524 
L 291.724807 348.178279 
L 309.043716 273.983535 
L 326.362625 349.488309 
L 343.681534 353.207484 
L 361.000443 353.222181 
L 378.319352 353.221064 
L 395.638261 353.220032 
L 412.95717 353.217282 
L 430.27608 353.215735 
L 447.594989 353.210492 
L 464.913898 353.188231 
L 482.232807 353.08303 
L 499.551716 352.895748 
L 516.870625 335.173201 
" clip-path="url(#p700adb8275)" style="fill: none; stroke: #d9534f; stroke-linecap: square"/>
   </g>
   <g id="line2d_61">
    <path d="M 40.600625 353.2239 
L 993.140625 353.2239 
" clip-path="url(#p700adb8275)" style="fill: none; stroke: #dedede; stroke-width: 2; stroke-linecap: square"/>
   </g>
   <g id="text_18">
    <!-- FastQC: Sequence Length Distribution -->
    <g transform="translate(364.858125 19.3575) scale(0.16 -0.16)">
     <defs>
      <path id="DejaVuSans-46" d="M 628 4666 
L 3309 4666 
L 3309 4134 
L 1259 4134 
L 1259 2759 
L 3109 2759 
L 3109 2228 
L 1259 2228 
L 1259 0 
L 628 0 
L 628 4666 
z
" transform="scale(0.015625)"/>
      <path id="DejaVuSans-73" d="M 2834 3397 
L 2834 2853 
Q 2591 2978 2328 3040 
Q 2066 3103 1784 3103 
Q 1356 3103 1142 2972 
Q 928 2841 928 2578 
Q 928 2378 1081 2264 
Q 1234 2150 1697 2047 
L 1894 2003 
Q 2506 1872 2764 1633 
Q 3022 1394 3022 966 
Q 3022 478 2636 193 
Q 2250 -91 1575 -91 
Q 1294 -91 989 -36 
Q 684 19 347 128 
L 347 722 
Q 666 556 975 473 
Q 1284 391 1588 391 
Q 1994 391 2212 530 
Q 2431 669 2431 922 
Q 2431 1156 2273 1281 
Q 2116 1406 1581 1522 
L 1381 1569 
Q 847 1681 609 1914 
Q 372 2147 372 2553 
Q 372 3047 722 3315 
Q 1072 3584 1716 3584 
Q 2034 3584 2315 3537 
Q 2597 3491 2834 3397 
z
" transform="scale(0.015625)"/>
      <path id="DejaVuSans-51" d="M 2522 4238 
Q 1834 4238 1429 3725 
Q 1025 3213 1025 2328 
Q 1025 1447 1429 934 
Q 1834 422 2522 422 
Q 3209 422 3611 934 
Q 4013 1447 4013 2328 
Q 4013 3213 3611 3725 
Q 3209 4238 2522 4238 
z
M 3406 84 
L 4238 -825 
L 3475 -825 
L 2784 -78 
Q 2681 -84 2626 -87 
Q 2572 -91 2522 -91 
Q 1538 -91 948 567 
Q 359 1225 359 2328 
Q 359 3434 948 4092 
Q 1538 4750 2522 4750 
Q 3503 4750 4090 4092 
Q 4678 3434 4678 2328 
Q 4678 1516 4351 937 
Q 4025 359 3406 84 
z
" transform="scale(0.015625)"/>
      <path id="DejaVuSans-3a" d="M 750 794 
L 1409 794 
L 1409 0 
L 750 0 
L 750 794 
z
M 750 3309 
L 1409 3309 
L 1409 2516 
L 750 2516 
L 750 3309 
z
" transform="scale(0.015625)"/>
      <path id="DejaVuSans-44" d="M 1259 4147 
L 1259 519 
L 2022 519 
Q 2988 519 3436 956 
Q 3884 1394 3884 2338 
Q 3884 3275 3436 3711 
Q 2988 4147 2022 4147 
L 1259 4147 
z
M 628 4666 
L 1925 4666 
Q 3281 4666 3915 4102 
Q 4550 3538 4550 2338 
Q 4550 1131 3912 565 
Q 3275 0 1925 0 
L 628 0 
L 628 4666 
z
" transform="scale(0.015625)"/>
      <path id="DejaVuSans-69" d="M 603 3500 
L 1178 3500 
L 1178 0 
L 603 0 
L 603 3500 
z
M 603 4863 
L 1178 4863 
L 1178 4134 
L 603 4134 
L 603 4863 
z
" transform="scale(0.015625)"/>
      <path id="DejaVuSans-72" d="M 2631 2963 
Q 2534 3019 2420 3045 
Q 2306 3072 2169 3072 
Q 1681 3072 1420 2755 
Q 1159 2438 1159 1844 
L 1159 0 
L 581 0 
L 581 3500 
L 1159 3500 
L 1159 2956 
Q 1341 3275 1631 3429 
Q 1922 3584 2338 3584 
Q 2397 3584 2469 3576 
Q 2541 3569 2628 3553 
L 2631 2963 
z
" transform="scale(0.015625)"/>
     </defs>
     <use xlink:href="#DejaVuSans-46"/>
     <use xlink:href="#DejaVuSans-61" x="48.394531"/>
     <use xlink:href="#DejaVuSans-73" x="109.673828"/>
     <use xlink:href="#DejaVuSans-74" x="161.773438"/>
     <use xlink:href="#DejaVuSans-51" x="200.982422"/>
     <use xlink:href="#DejaVuSans-43" x="279.693359"/>
     <use xlink:href="#DejaVuSans-3a" x="349.517578"/>
     <use xlink:href="#DejaVuSans-20" x="383.208984"/>
     <use xlink:href="#DejaVuSans-53" x="414.996094"/>
     <use xlink:href="#DejaVuSans-65" x="478.472656"/>
     <use xlink:href="#DejaVuSans-71" x="539.996094"/>
     <use xlink:href="#DejaVuSans-75" x="603.472656"/>
     <use xlink:href="#DejaVuSans-65" x="666.851562"/>
     <use xlink:href="#DejaVuSans-6e" x="728.375"/>
     <use xlink:href="#DejaVuSans-63" x="791.753906"/>
     <use xlink:href="#DejaVuSans-65" x="846.734375"/>
     <use xlink:href="#DejaVuSans-20" x="908.257812"/>
     <use xlink:href="#DejaVuSans-4c" x="940.044922"/>
     <use xlink:href="#DejaVuSans-65" x="994.007812"/>
     <use xlink:href="#DejaVuSans-6e" x="1055.53125"/>
     <use xlink:href="#DejaVuSans-67" x="1118.910156"/>
     <use xlink:href="#DejaVuSans-74" x="1182.386719"/>
     <use xlink:href="#DejaVuSans-68" x="1221.595703"/>
     <use xlink:href="#DejaVuSans-20" x="1284.974609"/>
     <use xlink:href="#DejaVuSans-44" x="1316.761719"/>
     <use xlink:href="#DejaVuSans-69" x="1393.763672"/>
     <use xlink:href="#DejaVuSans-73" x="1421.546875"/>
     <use xlink:href="#DejaVuSans-74" x="1473.646484"/>
     <use xlink:href="#DejaVuSans-72" x="1512.855469"/>
     <use xlink:href="#DejaVuSans-69" x="1553.96875"/>
     <use xlink:href="#DejaVuSans-62" x="1581.751953"/>
     <use xlink:href="#DejaVuSans-75" x="1645.228516"/>
     <use xlink:href="#DejaVuSans-74" x="1708.607422"/>
     <use xlink:href="#DejaVuSans-69" x="1747.816406"/>
     <use xlink:href="#DejaVuSans-6f" x="1775.599609"/>
     <use xlink:href="#DejaVuSans-6e" x="1836.78125"/>
    </g>
   </g>
  </g>
 </g>
 <defs>
  <clipPath id="p700adb8275">
   <rect x="40.600625" y="35.2559" width="952.54" height="317.968"/>
  </clipPath>
 </defs>
</svg>
