<?xml version="1.0" encoding="utf-8" standalone="no"?>
<!DOCTYPE svg PUBLIC "-//W3C//DTD SVG 1.1//EN"
  "http://www.w3.org/Graphics/SVG/1.1/DTD/svg11.dtd">
<svg xmlns:xlink="http://www.w3.org/1999/xlink" width="999.561964pt" height="388.844525pt" viewBox="0 0 999.561964 388.844525" xmlns="http://www.w3.org/2000/svg" version="1.1">
 <metadata>
  <rdf:RDF xmlns:dc="http://purl.org/dc/elements/1.1/" xmlns:cc="http://creativecommons.org/ns#" xmlns:rdf="http://www.w3.org/1999/02/22-rdf-syntax-ns#">
   <cc:Work>
    <dc:type rdf:resource="http://purl.org/dc/dcmitype/StillImage"/>
    <dc:date>2024-01-23T08:03:18.324704</dc:date>
    <dc:format>image/svg+xml</dc:format>
    <dc:creator>
     <cc:Agent>
      <dc:title>Matplotlib v3.6.2, https://matplotlib.org/</dc:title>
     </cc:Agent>
    </dc:creator>
   </cc:Work>
  </rdf:RDF>
 </metadata>
 <defs>
  <style type="text/css">*{stroke-linejoin: round; stroke-linecap: butt}</style>
 </defs>
 <g id="figure_1">
  <g id="axes_1">
   <g id="patch_1">
    <path d="M 32.968125 353.2239 
L 991.361838 353.2239 
L 991.361838 35.2559 
L 32.968125 35.2559 
z
" style="fill: #ffffff"/>
   </g>
   <g id="patch_2">
    <path d="M 796.411196 353.2239 
L 2759.550522 353.2239 
L 2759.550522 35.2559 
L 796.411196 35.2559 
z
" clip-path="url(#pa62a94389f)" style="fill: #c3e6c3"/>
   </g>
   <g id="patch_3">
    <path d="M 578.284604 353.2239 
L 796.411196 353.2239 
L 796.411196 35.2559 
L 578.284604 35.2559 
z
" clip-path="url(#pa62a94389f)" style="fill: #e6dcc3"/>
   </g>
   <g id="patch_4">
    <path d="M 32.968125 353.2239 
L 578.284604 353.2239 
L 578.284604 35.2559 
L 32.968125 35.2559 
z
" clip-path="url(#pa62a94389f)" style="fill: #e6c3c3"/>
   </g>
   <g id="matplotlib.axis_1">
    <g id="xtick_1">
     <g id="text_1">
      <!-- 0 -->
      <g transform="translate(30.423125 366.30265) scale(0.08 -0.08)">
       <defs>
        <path id="DejaVuSans-30" d="M 2034 4250 
Q 1547 4250 1301 3770 
Q 1056 3291 1056 2328 
Q 1056 1369 1301 889 
Q 1547 409 2034 409 
Q 2525 409 2770 889 
Q 3016 1369 3016 2328 
Q 3016 3291 2770 3770 
Q 2525 4250 2034 4250 
z
M 2034 4750 
Q 2819 4750 3233 4129 
Q 3647 3509 3647 2328 
Q 3647 1150 3233 529 
Q 2819 -91 2034 -91 
Q 1250 -91 836 529 
Q 422 1150 422 2328 
Q 422 3509 836 4129 
Q 1250 4750 2034 4750 
z
" transform="scale(0.015625)"/>
       </defs>
       <use xlink:href="#DejaVuSans-30"/>
      </g>
     </g>
    </g>
    <g id="xtick_2">
     <g id="text_2">
      <!-- 5 -->
      <g transform="translate(166.752245 366.30265) scale(0.08 -0.08)">
       <defs>
        <path id="DejaVuSans-35" d="M 691 4666 
L 3169 4666 
L 3169 4134 
L 1269 4134 
L 1269 2991 
Q 1406 3038 1543 3061 
Q 1681 3084 1819 3084 
Q 2600 3084 3056 2656 
Q 3513 2228 3513 1497 
Q 3513 744 3044 326 
Q 2575 -91 1722 -91 
Q 1428 -91 1123 -41 
Q 819 9 494 109 
L 494 744 
Q 775 591 1075 516 
Q 1375 441 1709 441 
Q 2250 441 2565 725 
Q 2881 1009 2881 1497 
Q 2881 1984 2565 2268 
Q 2250 2553 1709 2553 
Q 1456 2553 1204 2497 
Q 953 2441 691 2322 
L 691 4666 
z
" transform="scale(0.015625)"/>
       </defs>
       <use xlink:href="#DejaVuSans-35"/>
      </g>
     </g>
    </g>
    <g id="xtick_3">
     <g id="text_3">
      <!-- 10 -->
      <g transform="translate(300.536365 366.30265) scale(0.08 -0.08)">
       <defs>
        <path id="DejaVuSans-31" d="M 794 531 
L 1825 531 
L 1825 4091 
L 703 3866 
L 703 4441 
L 1819 4666 
L 2450 4666 
L 2450 531 
L 3481 531 
L 3481 0 
L 794 0 
L 794 531 
z
" transform="scale(0.015625)"/>
       </defs>
       <use xlink:href="#DejaVuSans-31"/>
       <use xlink:href="#DejaVuSans-30" x="63.623047"/>
      </g>
     </g>
    </g>
    <g id="xtick_4">
     <g id="text_4">
      <!-- 15 -->
      <g transform="translate(436.865485 366.30265) scale(0.08 -0.08)">
       <use xlink:href="#DejaVuSans-31"/>
       <use xlink:href="#DejaVuSans-35" x="63.623047"/>
      </g>
     </g>
    </g>
    <g id="xtick_5">
     <g id="text_5">
      <!-- 20 -->
      <g transform="translate(573.194604 366.30265) scale(0.08 -0.08)">
       <defs>
        <path id="DejaVuSans-32" d="M 1228 531 
L 3431 531 
L 3431 0 
L 469 0 
L 469 531 
Q 828 903 1448 1529 
Q 2069 2156 2228 2338 
Q 2531 2678 2651 2914 
Q 2772 3150 2772 3378 
Q 2772 3750 2511 3984 
Q 2250 4219 1831 4219 
Q 1534 4219 1204 4116 
Q 875 4013 500 3803 
L 500 4441 
Q 881 4594 1212 4672 
Q 1544 4750 1819 4750 
Q 2544 4750 2975 4387 
Q 3406 4025 3406 3419 
Q 3406 3131 3298 2873 
Q 3191 2616 2906 2266 
Q 2828 2175 2409 1742 
Q 1991 1309 1228 531 
z
" transform="scale(0.015625)"/>
       </defs>
       <use xlink:href="#DejaVuSans-32"/>
       <use xlink:href="#DejaVuSans-30" x="63.623047"/>
      </g>
     </g>
    </g>
    <g id="xtick_6">
     <g id="text_6">
      <!-- 25 -->
      <g transform="translate(709.523724 366.30265) scale(0.08 -0.08)">
       <use xlink:href="#DejaVuSans-32"/>
       <use xlink:href="#DejaVuSans-35" x="63.623047"/>
      </g>
     </g>
    </g>
    <g id="xtick_7">
     <g id="text_7">
      <!-- 30 -->
      <g transform="translate(845.852844 366.30265) scale(0.08 -0.08)">
       <defs>
        <path id="DejaVuSans-33" d="M 2597 2516 
Q 3050 2419 3304 2112 
Q 3559 1806 3559 1356 
Q 3559 666 3084 287 
Q 2609 -91 1734 -91 
Q 1441 -91 1130 -33 
Q 819 25 488 141 
L 488 750 
Q 750 597 1062 519 
Q 1375 441 1716 441 
Q 2309 441 2620 675 
Q 2931 909 2931 1356 
Q 2931 1769 2642 2001 
Q 2353 2234 1838 2234 
L 1294 2234 
L 1294 2753 
L 1863 2753 
Q 2328 2753 2575 2939 
Q 2822 3125 2822 3475 
Q 2822 3834 2567 4026 
Q 2313 4219 1838 4219 
Q 1578 4219 1281 4162 
Q 984 4106 628 3988 
L 628 4550 
Q 988 4650 1302 4700 
Q 1616 4750 1894 4750 
Q 2613 4750 3031 4423 
Q 3450 4097 3450 3541 
Q 3450 3153 3228 2886 
Q 3006 2619 2597 2516 
z
" transform="scale(0.015625)"/>
       </defs>
       <use xlink:href="#DejaVuSans-33"/>
       <use xlink:href="#DejaVuSans-30" x="63.623047"/>
      </g>
     </g>
    </g>
    <g id="xtick_8">
     <g id="text_8">
      <!-- 35 -->
      <g transform="translate(982.181964 366.30265) scale(0.08 -0.08)">
       <use xlink:href="#DejaVuSans-33"/>
       <use xlink:href="#DejaVuSans-35" x="63.623047"/>
      </g>
     </g>
    </g>
    <g id="text_9">
     <!-- Mean Sequence Quality (Phred Score) -->
     <g transform="translate(417.372794 379.564837) scale(0.1 -0.1)">
      <defs>
       <path id="DejaVuSans-4d" d="M 628 4666 
L 1569 4666 
L 2759 1491 
L 3956 4666 
L 4897 4666 
L 4897 0 
L 4281 0 
L 4281 4097 
L 3078 897 
L 2444 897 
L 1241 4097 
L 1241 0 
L 628 0 
L 628 4666 
z
" transform="scale(0.015625)"/>
       <path id="DejaVuSans-65" d="M 3597 1894 
L 3597 1613 
L 953 1613 
Q 991 1019 1311 708 
Q 1631 397 2203 397 
Q 2534 397 2845 478 
Q 3156 559 3463 722 
L 3463 178 
Q 3153 47 2828 -22 
Q 2503 -91 2169 -91 
Q 1331 -91 842 396 
Q 353 884 353 1716 
Q 353 2575 817 3079 
Q 1281 3584 2069 3584 
Q 2775 3584 3186 3129 
Q 3597 2675 3597 1894 
z
M 3022 2063 
Q 3016 2534 2758 2815 
Q 2500 3097 2075 3097 
Q 1594 3097 1305 2825 
Q 1016 2553 972 2059 
L 3022 2063 
z
" transform="scale(0.015625)"/>
       <path id="DejaVuSans-61" d="M 2194 1759 
Q 1497 1759 1228 1600 
Q 959 1441 959 1056 
Q 959 750 1161 570 
Q 1363 391 1709 391 
Q 2188 391 2477 730 
Q 2766 1069 2766 1631 
L 2766 1759 
L 2194 1759 
z
M 3341 1997 
L 3341 0 
L 2766 0 
L 2766 531 
Q 2569 213 2275 61 
Q 1981 -91 1556 -91 
Q 1019 -91 701 211 
Q 384 513 384 1019 
Q 384 1609 779 1909 
Q 1175 2209 1959 2209 
L 2766 2209 
L 2766 2266 
Q 2766 2663 2505 2880 
Q 2244 3097 1772 3097 
Q 1472 3097 1187 3025 
Q 903 2953 641 2809 
L 641 3341 
Q 956 3463 1253 3523 
Q 1550 3584 1831 3584 
Q 2591 3584 2966 3190 
Q 3341 2797 3341 1997 
z
" transform="scale(0.015625)"/>
       <path id="DejaVuSans-6e" d="M 3513 2113 
L 3513 0 
L 2938 0 
L 2938 2094 
Q 2938 2591 2744 2837 
Q 2550 3084 2163 3084 
Q 1697 3084 1428 2787 
Q 1159 2491 1159 1978 
L 1159 0 
L 581 0 
L 581 3500 
L 1159 3500 
L 1159 2956 
Q 1366 3272 1645 3428 
Q 1925 3584 2291 3584 
Q 2894 3584 3203 3211 
Q 3513 2838 3513 2113 
z
" transform="scale(0.015625)"/>
       <path id="DejaVuSans-20" transform="scale(0.015625)"/>
       <path id="DejaVuSans-53" d="M 3425 4513 
L 3425 3897 
Q 3066 4069 2747 4153 
Q 2428 4238 2131 4238 
Q 1616 4238 1336 4038 
Q 1056 3838 1056 3469 
Q 1056 3159 1242 3001 
Q 1428 2844 1947 2747 
L 2328 2669 
Q 3034 2534 3370 2195 
Q 3706 1856 3706 1288 
Q 3706 609 3251 259 
Q 2797 -91 1919 -91 
Q 1588 -91 1214 -16 
Q 841 59 441 206 
L 441 856 
Q 825 641 1194 531 
Q 1563 422 1919 422 
Q 2459 422 2753 634 
Q 3047 847 3047 1241 
Q 3047 1584 2836 1778 
Q 2625 1972 2144 2069 
L 1759 2144 
Q 1053 2284 737 2584 
Q 422 2884 422 3419 
Q 422 4038 858 4394 
Q 1294 4750 2059 4750 
Q 2388 4750 2728 4690 
Q 3069 4631 3425 4513 
z
" transform="scale(0.015625)"/>
       <path id="DejaVuSans-71" d="M 947 1747 
Q 947 1113 1208 752 
Q 1469 391 1925 391 
Q 2381 391 2643 752 
Q 2906 1113 2906 1747 
Q 2906 2381 2643 2742 
Q 2381 3103 1925 3103 
Q 1469 3103 1208 2742 
Q 947 2381 947 1747 
z
M 2906 525 
Q 2725 213 2448 61 
Q 2172 -91 1784 -91 
Q 1150 -91 751 415 
Q 353 922 353 1747 
Q 353 2572 751 3078 
Q 1150 3584 1784 3584 
Q 2172 3584 2448 3432 
Q 2725 3281 2906 2969 
L 2906 3500 
L 3481 3500 
L 3481 -1331 
L 2906 -1331 
L 2906 525 
z
" transform="scale(0.015625)"/>
       <path id="DejaVuSans-75" d="M 544 1381 
L 544 3500 
L 1119 3500 
L 1119 1403 
Q 1119 906 1312 657 
Q 1506 409 1894 409 
Q 2359 409 2629 706 
Q 2900 1003 2900 1516 
L 2900 3500 
L 3475 3500 
L 3475 0 
L 2900 0 
L 2900 538 
Q 2691 219 2414 64 
Q 2138 -91 1772 -91 
Q 1169 -91 856 284 
Q 544 659 544 1381 
z
M 1991 3584 
L 1991 3584 
z
" transform="scale(0.015625)"/>
       <path id="DejaVuSans-63" d="M 3122 3366 
L 3122 2828 
Q 2878 2963 2633 3030 
Q 2388 3097 2138 3097 
Q 1578 3097 1268 2742 
Q 959 2388 959 1747 
Q 959 1106 1268 751 
Q 1578 397 2138 397 
Q 2388 397 2633 464 
Q 2878 531 3122 666 
L 3122 134 
Q 2881 22 2623 -34 
Q 2366 -91 2075 -91 
Q 1284 -91 818 406 
Q 353 903 353 1747 
Q 353 2603 823 3093 
Q 1294 3584 2113 3584 
Q 2378 3584 2631 3529 
Q 2884 3475 3122 3366 
z
" transform="scale(0.015625)"/>
       <path id="DejaVuSans-51" d="M 2522 4238 
Q 1834 4238 1429 3725 
Q 1025 3213 1025 2328 
Q 1025 1447 1429 934 
Q 1834 422 2522 422 
Q 3209 422 3611 934 
Q 4013 1447 4013 2328 
Q 4013 3213 3611 3725 
Q 3209 4238 2522 4238 
z
M 3406 84 
L 4238 -825 
L 3475 -825 
L 2784 -78 
Q 2681 -84 2626 -87 
Q 2572 -91 2522 -91 
Q 1538 -91 948 567 
Q 359 1225 359 2328 
Q 359 3434 948 4092 
Q 1538 4750 2522 4750 
Q 3503 4750 4090 4092 
Q 4678 3434 4678 2328 
Q 4678 1516 4351 937 
Q 4025 359 3406 84 
z
" transform="scale(0.015625)"/>
       <path id="DejaVuSans-6c" d="M 603 4863 
L 1178 4863 
L 1178 0 
L 603 0 
L 603 4863 
z
" transform="scale(0.015625)"/>
       <path id="DejaVuSans-69" d="M 603 3500 
L 1178 3500 
L 1178 0 
L 603 0 
L 603 3500 
z
M 603 4863 
L 1178 4863 
L 1178 4134 
L 603 4134 
L 603 4863 
z
" transform="scale(0.015625)"/>
       <path id="DejaVuSans-74" d="M 1172 4494 
L 1172 3500 
L 2356 3500 
L 2356 3053 
L 1172 3053 
L 1172 1153 
Q 1172 725 1289 603 
Q 1406 481 1766 481 
L 2356 481 
L 2356 0 
L 1766 0 
Q 1100 0 847 248 
Q 594 497 594 1153 
L 594 3053 
L 172 3053 
L 172 3500 
L 594 3500 
L 594 4494 
L 1172 4494 
z
" transform="scale(0.015625)"/>
       <path id="DejaVuSans-79" d="M 2059 -325 
Q 1816 -950 1584 -1140 
Q 1353 -1331 966 -1331 
L 506 -1331 
L 506 -850 
L 844 -850 
Q 1081 -850 1212 -737 
Q 1344 -625 1503 -206 
L 1606 56 
L 191 3500 
L 800 3500 
L 1894 763 
L 2988 3500 
L 3597 3500 
L 2059 -325 
z
" transform="scale(0.015625)"/>
       <path id="DejaVuSans-28" d="M 1984 4856 
Q 1566 4138 1362 3434 
Q 1159 2731 1159 2009 
Q 1159 1288 1364 580 
Q 1569 -128 1984 -844 
L 1484 -844 
Q 1016 -109 783 600 
Q 550 1309 550 2009 
Q 550 2706 781 3412 
Q 1013 4119 1484 4856 
L 1984 4856 
z
" transform="scale(0.015625)"/>
       <path id="DejaVuSans-50" d="M 1259 4147 
L 1259 2394 
L 2053 2394 
Q 2494 2394 2734 2622 
Q 2975 2850 2975 3272 
Q 2975 3691 2734 3919 
Q 2494 4147 2053 4147 
L 1259 4147 
z
M 628 4666 
L 2053 4666 
Q 2838 4666 3239 4311 
Q 3641 3956 3641 3272 
Q 3641 2581 3239 2228 
Q 2838 1875 2053 1875 
L 1259 1875 
L 1259 0 
L 628 0 
L 628 4666 
z
" transform="scale(0.015625)"/>
       <path id="DejaVuSans-68" d="M 3513 2113 
L 3513 0 
L 2938 0 
L 2938 2094 
Q 2938 2591 2744 2837 
Q 2550 3084 2163 3084 
Q 1697 3084 1428 2787 
Q 1159 2491 1159 1978 
L 1159 0 
L 581 0 
L 581 4863 
L 1159 4863 
L 1159 2956 
Q 1366 3272 1645 3428 
Q 1925 3584 2291 3584 
Q 2894 3584 3203 3211 
Q 3513 2838 3513 2113 
z
" transform="scale(0.015625)"/>
       <path id="DejaVuSans-72" d="M 2631 2963 
Q 2534 3019 2420 3045 
Q 2306 3072 2169 3072 
Q 1681 3072 1420 2755 
Q 1159 2438 1159 1844 
L 1159 0 
L 581 0 
L 581 3500 
L 1159 3500 
L 1159 2956 
Q 1341 3275 1631 3429 
Q 1922 3584 2338 3584 
Q 2397 3584 2469 3576 
Q 2541 3569 2628 3553 
L 2631 2963 
z
" transform="scale(0.015625)"/>
       <path id="DejaVuSans-64" d="M 2906 2969 
L 2906 4863 
L 3481 4863 
L 3481 0 
L 2906 0 
L 2906 525 
Q 2725 213 2448 61 
Q 2172 -91 1784 -91 
Q 1150 -91 751 415 
Q 353 922 353 1747 
Q 353 2572 751 3078 
Q 1150 3584 1784 3584 
Q 2172 3584 2448 3432 
Q 2725 3281 2906 2969 
z
M 947 1747 
Q 947 1113 1208 752 
Q 1469 391 1925 391 
Q 2381 391 2643 752 
Q 2906 1113 2906 1747 
Q 2906 2381 2643 2742 
Q 2381 3103 1925 3103 
Q 1469 3103 1208 2742 
Q 947 2381 947 1747 
z
" transform="scale(0.015625)"/>
       <path id="DejaVuSans-6f" d="M 1959 3097 
Q 1497 3097 1228 2736 
Q 959 2375 959 1747 
Q 959 1119 1226 758 
Q 1494 397 1959 397 
Q 2419 397 2687 759 
Q 2956 1122 2956 1747 
Q 2956 2369 2687 2733 
Q 2419 3097 1959 3097 
z
M 1959 3584 
Q 2709 3584 3137 3096 
Q 3566 2609 3566 1747 
Q 3566 888 3137 398 
Q 2709 -91 1959 -91 
Q 1206 -91 779 398 
Q 353 888 353 1747 
Q 353 2609 779 3096 
Q 1206 3584 1959 3584 
z
" transform="scale(0.015625)"/>
       <path id="DejaVuSans-29" d="M 513 4856 
L 1013 4856 
Q 1481 4119 1714 3412 
Q 1947 2706 1947 2009 
Q 1947 1309 1714 600 
Q 1481 -109 1013 -844 
L 513 -844 
Q 928 -128 1133 580 
Q 1338 1288 1338 2009 
Q 1338 2731 1133 3434 
Q 928 4138 513 4856 
z
" transform="scale(0.015625)"/>
      </defs>
      <use xlink:href="#DejaVuSans-4d"/>
      <use xlink:href="#DejaVuSans-65" x="86.279297"/>
      <use xlink:href="#DejaVuSans-61" x="147.802734"/>
      <use xlink:href="#DejaVuSans-6e" x="209.082031"/>
      <use xlink:href="#DejaVuSans-20" x="272.460938"/>
      <use xlink:href="#DejaVuSans-53" x="304.248047"/>
      <use xlink:href="#DejaVuSans-65" x="367.724609"/>
      <use xlink:href="#DejaVuSans-71" x="429.248047"/>
      <use xlink:href="#DejaVuSans-75" x="492.724609"/>
      <use xlink:href="#DejaVuSans-65" x="556.103516"/>
      <use xlink:href="#DejaVuSans-6e" x="617.626953"/>
      <use xlink:href="#DejaVuSans-63" x="681.005859"/>
      <use xlink:href="#DejaVuSans-65" x="735.986328"/>
      <use xlink:href="#DejaVuSans-20" x="797.509766"/>
      <use xlink:href="#DejaVuSans-51" x="829.296875"/>
      <use xlink:href="#DejaVuSans-75" x="908.007812"/>
      <use xlink:href="#DejaVuSans-61" x="971.386719"/>
      <use xlink:href="#DejaVuSans-6c" x="1032.666016"/>
      <use xlink:href="#DejaVuSans-69" x="1060.449219"/>
      <use xlink:href="#DejaVuSans-74" x="1088.232422"/>
      <use xlink:href="#DejaVuSans-79" x="1127.441406"/>
      <use xlink:href="#DejaVuSans-20" x="1186.621094"/>
      <use xlink:href="#DejaVuSans-28" x="1218.408203"/>
      <use xlink:href="#DejaVuSans-50" x="1257.421875"/>
      <use xlink:href="#DejaVuSans-68" x="1317.724609"/>
      <use xlink:href="#DejaVuSans-72" x="1381.103516"/>
      <use xlink:href="#DejaVuSans-65" x="1419.966797"/>
      <use xlink:href="#DejaVuSans-64" x="1481.490234"/>
      <use xlink:href="#DejaVuSans-20" x="1544.966797"/>
      <use xlink:href="#DejaVuSans-53" x="1576.753906"/>
      <use xlink:href="#DejaVuSans-63" x="1640.230469"/>
      <use xlink:href="#DejaVuSans-6f" x="1695.210938"/>
      <use xlink:href="#DejaVuSans-72" x="1756.392578"/>
      <use xlink:href="#DejaVuSans-65" x="1795.255859"/>
      <use xlink:href="#DejaVuSans-29" x="1856.779297"/>
     </g>
    </g>
   </g>
   <g id="matplotlib.axis_2">
    <g id="ytick_1">
     <g id="line2d_1">
      <path d="M 32.968125 353.2239 
L 991.361838 353.2239 
" clip-path="url(#pa62a94389f)" style="fill: none; stroke: #dedede; stroke-linecap: square"/>
     </g>
     <g id="text_10">
      <!-- 0 -->
      <g transform="translate(20.878125 356.263275) scale(0.08 -0.08)">
       <use xlink:href="#DejaVuSans-30"/>
      </g>
     </g>
    </g>
    <g id="ytick_2">
     <g id="line2d_2">
      <path d="M 32.968125 308.634594 
L 991.361838 308.634594 
" clip-path="url(#pa62a94389f)" style="fill: none; stroke: #dedede; stroke-linecap: square"/>
     </g>
     <g id="text_11">
      <!-- 1 -->
      <g transform="translate(20.878125 311.673969) scale(0.08 -0.08)">
       <use xlink:href="#DejaVuSans-31"/>
      </g>
     </g>
    </g>
    <g id="ytick_3">
     <g id="line2d_3">
      <path d="M 32.968125 264.045287 
L 991.361838 264.045287 
" clip-path="url(#pa62a94389f)" style="fill: none; stroke: #dedede; stroke-linecap: square"/>
     </g>
     <g id="text_12">
      <!-- 2 -->
      <g transform="translate(20.878125 267.084662) scale(0.08 -0.08)">
       <use xlink:href="#DejaVuSans-32"/>
      </g>
     </g>
    </g>
    <g id="ytick_4">
     <g id="line2d_4">
      <path d="M 32.968125 219.455981 
L 991.361838 219.455981 
" clip-path="url(#pa62a94389f)" style="fill: none; stroke: #dedede; stroke-linecap: square"/>
     </g>
     <g id="text_13">
      <!-- 3 -->
      <g transform="translate(20.878125 222.495356) scale(0.08 -0.08)">
       <use xlink:href="#DejaVuSans-33"/>
      </g>
     </g>
    </g>
    <g id="ytick_5">
     <g id="line2d_5">
      <path d="M 32.968125 174.866675 
L 991.361838 174.866675 
" clip-path="url(#pa62a94389f)" style="fill: none; stroke: #dedede; stroke-linecap: square"/>
     </g>
     <g id="text_14">
      <!-- 4 -->
      <g transform="translate(20.878125 177.90605) scale(0.08 -0.08)">
       <defs>
        <path id="DejaVuSans-34" d="M 2419 4116 
L 825 1625 
L 2419 1625 
L 2419 4116 
z
M 2253 4666 
L 3047 4666 
L 3047 1625 
L 3713 1625 
L 3713 1100 
L 3047 1100 
L 3047 0 
L 2419 0 
L 2419 1100 
L 313 1100 
L 313 1709 
L 2253 4666 
z
" transform="scale(0.015625)"/>
       </defs>
       <use xlink:href="#DejaVuSans-34"/>
      </g>
     </g>
    </g>
    <g id="ytick_6">
     <g id="line2d_6">
      <path d="M 32.968125 130.277368 
L 991.361838 130.277368 
" clip-path="url(#pa62a94389f)" style="fill: none; stroke: #dedede; stroke-linecap: square"/>
     </g>
     <g id="text_15">
      <!-- 5 -->
      <g transform="translate(20.878125 133.316743) scale(0.08 -0.08)">
       <use xlink:href="#DejaVuSans-35"/>
      </g>
     </g>
    </g>
    <g id="ytick_7">
     <g id="line2d_7">
      <path d="M 32.968125 85.688062 
L 991.361838 85.688062 
" clip-path="url(#pa62a94389f)" style="fill: none; stroke: #dedede; stroke-linecap: square"/>
     </g>
     <g id="text_16">
      <!-- 6 -->
      <g transform="translate(20.878125 88.727437) scale(0.08 -0.08)">
       <defs>
        <path id="DejaVuSans-36" d="M 2113 2584 
Q 1688 2584 1439 2293 
Q 1191 2003 1191 1497 
Q 1191 994 1439 701 
Q 1688 409 2113 409 
Q 2538 409 2786 701 
Q 3034 994 3034 1497 
Q 3034 2003 2786 2293 
Q 2538 2584 2113 2584 
z
M 3366 4563 
L 3366 3988 
Q 3128 4100 2886 4159 
Q 2644 4219 2406 4219 
Q 1781 4219 1451 3797 
Q 1122 3375 1075 2522 
Q 1259 2794 1537 2939 
Q 1816 3084 2150 3084 
Q 2853 3084 3261 2657 
Q 3669 2231 3669 1497 
Q 3669 778 3244 343 
Q 2819 -91 2113 -91 
Q 1303 -91 875 529 
Q 447 1150 447 2328 
Q 447 3434 972 4092 
Q 1497 4750 2381 4750 
Q 2619 4750 2861 4703 
Q 3103 4656 3366 4563 
z
" transform="scale(0.015625)"/>
       </defs>
       <use xlink:href="#DejaVuSans-36"/>
      </g>
     </g>
    </g>
    <g id="ytick_8">
     <g id="line2d_8">
      <path d="M 32.968125 41.098756 
L 991.361838 41.098756 
" clip-path="url(#pa62a94389f)" style="fill: none; stroke: #dedede; stroke-linecap: square"/>
     </g>
     <g id="text_17">
      <!-- 7 -->
      <g transform="translate(20.878125 44.138131) scale(0.08 -0.08)">
       <defs>
        <path id="DejaVuSans-37" d="M 525 4666 
L 3525 4666 
L 3525 4397 
L 1831 0 
L 1172 0 
L 2766 4134 
L 525 4134 
L 525 4666 
z
" transform="scale(0.015625)"/>
       </defs>
       <use xlink:href="#DejaVuSans-37"/>
      </g>
     </g>
    </g>
    <g id="text_18">
     <!-- Count -->
     <g transform="translate(14.798437 209.088338) rotate(-90) scale(0.1 -0.1)">
      <defs>
       <path id="DejaVuSans-43" d="M 4122 4306 
L 4122 3641 
Q 3803 3938 3442 4084 
Q 3081 4231 2675 4231 
Q 1875 4231 1450 3742 
Q 1025 3253 1025 2328 
Q 1025 1406 1450 917 
Q 1875 428 2675 428 
Q 3081 428 3442 575 
Q 3803 722 4122 1019 
L 4122 359 
Q 3791 134 3420 21 
Q 3050 -91 2638 -91 
Q 1578 -91 968 557 
Q 359 1206 359 2328 
Q 359 3453 968 4101 
Q 1578 4750 2638 4750 
Q 3056 4750 3426 4639 
Q 3797 4528 4122 4306 
z
" transform="scale(0.015625)"/>
      </defs>
      <use xlink:href="#DejaVuSans-43"/>
      <use xlink:href="#DejaVuSans-6f" x="69.824219"/>
      <use xlink:href="#DejaVuSans-75" x="131.005859"/>
      <use xlink:href="#DejaVuSans-6e" x="194.384766"/>
      <use xlink:href="#DejaVuSans-74" x="257.763672"/>
     </g>
    </g>
    <g id="text_19">
     <!-- 1e6 -->
     <g transform="translate(32.968125 32.2559) scale(0.1 -0.1)">
      <use xlink:href="#DejaVuSans-31"/>
      <use xlink:href="#DejaVuSans-65" x="63.623047"/>
      <use xlink:href="#DejaVuSans-36" x="125.146484"/>
     </g>
    </g>
   </g>
   <g id="line2d_9">
    <path d="M 360.158013 353.223632 
L 387.423837 353.223142 
L 414.689661 353.219307 
L 441.955485 353.208249 
L 469.221309 353.17445 
L 496.487133 353.092005 
L 523.752957 352.837667 
L 551.01878 352.582661 
L 578.284604 351.790889 
L 605.550428 351.052757 
L 632.816252 350.048785 
L 660.082076 349.096981 
L 687.3479 348.467559 
L 714.613724 348.433894 
L 741.879548 348.286526 
L 769.145372 348.32795 
L 796.411196 347.985905 
L 823.67702 347.54621 
L 850.942844 345.806736 
L 878.208668 341.782596 
L 905.474492 319.072415 
L 932.740316 294.485916 
L 960.00614 186.808226 
" clip-path="url(#pa62a94389f)" style="fill: none; stroke: #5cb85c; stroke-linecap: square"/>
   </g>
   <g id="line2d_10">
    <path d="M 360.158013 353.22341 
L 387.423837 353.22283 
L 414.689661 353.216766 
L 441.955485 353.200401 
L 469.221309 353.144085 
L 496.487133 353.02686 
L 523.752957 352.663546 
L 551.01878 352.284626 
L 578.284604 351.178633 
L 605.550428 350.222415 
L 632.816252 348.882373 
L 660.082076 347.763761 
L 687.3479 347.081545 
L 714.613724 347.205993 
L 741.879548 347.106693 
L 769.145372 347.200509 
L 796.411196 346.863191 
L 823.67702 346.342611 
L 850.942844 344.162015 
L 878.208668 339.266778 
L 905.474492 311.497316 
L 932.740316 282.089153 
L 960.00614 155.522897 
" clip-path="url(#pa62a94389f)" style="fill: none; stroke: #5cb85c; stroke-linecap: square"/>
   </g>
   <g id="line2d_11">
    <path d="M 360.158013 353.22332 
L 387.423837 353.222964 
L 414.689661 353.215919 
L 441.955485 353.194962 
L 469.221309 353.128836 
L 496.487133 352.979551 
L 523.752957 352.544359 
L 551.01878 352.080541 
L 578.284604 350.731759 
L 605.550428 349.511974 
L 632.816252 347.949163 
L 660.082076 346.554321 
L 687.3479 345.714303 
L 714.613724 345.819935 
L 741.879548 345.725896 
L 769.145372 345.802188 
L 796.411196 345.350097 
L 823.67702 344.720719 
L 850.942844 342.046476 
L 878.208668 336.006765 
L 905.474492 301.619804 
L 932.740316 265.164256 
L 960.00614 107.091642 
" clip-path="url(#pa62a94389f)" style="fill: none; stroke: #5cb85c; stroke-linecap: square"/>
   </g>
   <g id="line2d_12">
    <path d="M 360.158013 353.223365 
L 387.423837 353.223097 
L 414.689661 353.216052 
L 441.955485 353.199822 
L 469.221309 353.139671 
L 496.487133 353.008355 
L 523.752957 352.605803 
L 551.01878 352.184345 
L 578.284604 350.979943 
L 605.550428 349.880951 
L 632.816252 348.449857 
L 660.082076 347.140492 
L 687.3479 346.34814 
L 714.613724 346.458142 
L 741.879548 346.302792 
L 769.145372 346.368071 
L 796.411196 345.939033 
L 823.67702 345.334446 
L 850.942844 342.833611 
L 878.208668 337.269668 
L 905.474492 305.345419 
L 932.740316 272.285034 
L 960.00614 129.399895 
" clip-path="url(#pa62a94389f)" style="fill: none; stroke: #5cb85c; stroke-linecap: square"/>
   </g>
   <g id="line2d_13">
    <path d="M 360.158013 353.223454 
L 387.423837 353.222651 
L 414.689661 353.215785 
L 441.955485 353.196076 
L 469.221309 353.13655 
L 496.487133 353.017585 
L 523.752957 352.610039 
L 551.01878 352.200575 
L 578.284604 350.992161 
L 605.550428 349.909309 
L 632.816252 348.504479 
L 660.082076 347.244742 
L 687.3479 346.45346 
L 714.613724 346.557174 
L 741.879548 346.440573 
L 769.145372 346.461575 
L 796.411196 346.048544 
L 823.67702 345.458182 
L 850.942844 343.009382 
L 878.208668 337.545185 
L 905.474492 305.969223 
L 932.740316 273.26154 
L 960.00614 131.252046 
" clip-path="url(#pa62a94389f)" style="fill: none; stroke: #5cb85c; stroke-linecap: square"/>
   </g>
   <g id="line2d_14">
    <path d="M 360.158013 353.223543 
L 387.423837 353.223097 
L 414.689661 353.216543 
L 441.955485 353.194694 
L 469.221309 353.125046 
L 496.487133 352.977722 
L 523.752957 352.526791 
L 551.01878 352.052896 
L 578.284604 350.645077 
L 605.550428 349.414814 
L 632.816252 347.652867 
L 660.082076 346.024421 
L 687.3479 344.895777 
L 714.613724 344.828759 
L 741.879548 344.51222 
L 769.145372 344.450954 
L 796.411196 343.837138 
L 823.67702 342.996139 
L 850.942844 339.785129 
L 878.208668 332.466196 
L 905.474492 290.700998 
L 932.740316 247.311768 
L 960.00614 58.646431 
" clip-path="url(#pa62a94389f)" style="fill: none; stroke: #5cb85c; stroke-linecap: square"/>
   </g>
   <g id="line2d_15">
    <path d="M 360.158013 353.223231 
L 387.423837 353.222473 
L 414.689661 353.214982 
L 441.955485 353.19563 
L 469.221309 353.127007 
L 496.487133 352.981156 
L 523.752957 352.504452 
L 551.01878 352.036977 
L 578.284604 350.611858 
L 605.550428 349.317386 
L 632.816252 347.559364 
L 660.082076 345.86711 
L 687.3479 344.69508 
L 714.613724 344.607953 
L 741.879548 344.340462 
L 769.145372 344.273934 
L 796.411196 343.663284 
L 823.67702 342.76851 
L 850.942844 339.532843 
L 878.208668 332.061236 
L 905.474492 289.546848 
L 932.740316 244.253699 
L 960.00614 50.397231 
" clip-path="url(#pa62a94389f)" style="fill: none; stroke: #5cb85c; stroke-linecap: square"/>
   </g>
   <g id="line2d_16">
    <path d="M 332.892189 353.223855 
L 360.158013 353.223276 
L 387.423837 353.222651 
L 414.689661 353.217435 
L 441.955485 353.201516 
L 469.221309 353.150907 
L 496.487133 353.026904 
L 523.752957 352.669432 
L 551.01878 352.287525 
L 578.284604 351.182825 
L 605.550428 350.165163 
L 632.816252 348.79199 
L 660.082076 347.521864 
L 687.3479 346.629097 
L 714.613724 346.556506 
L 741.879548 346.352955 
L 769.145372 346.288836 
L 796.411196 345.713679 
L 823.67702 345.041227 
L 850.942844 342.463118 
L 878.208668 336.539696 
L 905.474492 303.247938 
L 932.740316 269.073445 
L 960.00614 118.444214 
" clip-path="url(#pa62a94389f)" style="fill: none; stroke: #5cb85c; stroke-linecap: square"/>
   </g>
   <g id="line2d_17">
    <path d="M 360.158013 353.223722 
L 387.423837 353.222161 
L 414.689661 353.215963 
L 441.955485 353.193535 
L 469.221309 353.121924 
L 496.487133 352.971257 
L 523.752957 352.518676 
L 551.01878 352.044825 
L 578.284604 350.727835 
L 605.550428 349.592502 
L 632.816252 348.122081 
L 660.082076 346.881383 
L 687.3479 346.207996 
L 714.613724 346.407711 
L 741.879548 346.343413 
L 769.145372 346.479455 
L 796.411196 346.044442 
L 823.67702 345.468527 
L 850.942844 342.98673 
L 878.208668 337.43719 
L 905.474492 305.976001 
L 932.740316 273.645097 
L 960.00614 133.189451 
" clip-path="url(#pa62a94389f)" style="fill: none; stroke: #5cb85c; stroke-linecap: square"/>
   </g>
   <g id="line2d_18">
    <path d="M 360.158013 353.22341 
L 387.423837 353.223008 
L 414.689661 353.218728 
L 441.955485 353.200758 
L 469.221309 353.158933 
L 496.487133 353.05232 
L 523.752957 352.745501 
L 551.01878 352.396724 
L 578.284604 351.425257 
L 605.550428 350.558217 
L 632.816252 349.374639 
L 660.082076 348.294597 
L 687.3479 347.613896 
L 714.613724 347.609527 
L 741.879548 347.446196 
L 769.145372 347.435718 
L 796.411196 347.022107 
L 823.67702 346.48387 
L 850.942844 344.350717 
L 878.208668 339.530212 
L 905.474492 312.288687 
L 932.740316 283.82653 
L 960.00614 159.007507 
" clip-path="url(#pa62a94389f)" style="fill: none; stroke: #5cb85c; stroke-linecap: square"/>
   </g>
   <g id="line2d_19">
    <path d="M 360.158013 353.223499 
L 387.423837 353.222964 
L 414.689661 353.215829 
L 441.955485 353.194382 
L 469.221309 353.128523 
L 496.487133 352.982672 
L 523.752957 352.558092 
L 551.01878 352.104263 
L 578.284604 350.799267 
L 605.550428 349.636601 
L 632.816252 348.119851 
L 660.082076 346.684834 
L 687.3479 345.788856 
L 714.613724 345.888469 
L 741.879548 345.729998 
L 769.145372 345.745292 
L 796.411196 345.19234 
L 823.67702 344.479669 
L 850.942844 341.71433 
L 878.208668 335.540405 
L 905.474492 300.148535 
L 932.740316 263.403692 
L 960.00614 102.260748 
" clip-path="url(#pa62a94389f)" style="fill: none; stroke: #5cb85c; stroke-linecap: square"/>
   </g>
   <g id="line2d_20">
    <path d="M 360.158013 353.223499 
L 387.423837 353.223187 
L 414.689661 353.217925 
L 441.955485 353.203612 
L 469.221309 353.154831 
L 496.487133 353.047817 
L 523.752957 352.720531 
L 551.01878 352.362791 
L 578.284604 351.33853 
L 605.550428 350.365146 
L 632.816252 349.052838 
L 660.082076 347.779412 
L 687.3479 346.911927 
L 714.613724 346.879243 
L 741.879548 346.650099 
L 769.145372 346.591597 
L 796.411196 346.111638 
L 823.67702 345.556858 
L 850.942844 343.104937 
L 878.208668 337.765412 
L 905.474492 306.598646 
L 932.740316 274.087513 
L 960.00614 127.457674 
" clip-path="url(#pa62a94389f)" style="fill: none; stroke: #5cb85c; stroke-linecap: square"/>
   </g>
   <g id="line2d_21">
    <path d="M 360.158013 353.223855 
L 387.423837 353.223632 
L 414.689661 353.221046 
L 441.955485 353.214581 
L 469.221309 353.193713 
L 496.487133 353.154118 
L 523.752957 352.989271 
L 551.01878 352.758521 
L 578.284604 351.901203 
L 605.550428 350.933927 
L 632.816252 350.218625 
L 660.082076 350.200165 
L 687.3479 350.544484 
L 714.613724 350.725338 
L 741.879548 350.983198 
L 769.145372 350.854736 
L 796.411196 350.75169 
L 823.67702 350.596787 
L 850.942844 349.982971 
L 878.208668 348.417619 
L 905.474492 337.336373 
L 932.740316 319.487765 
L 960.00614 256.8739 
" clip-path="url(#pa62a94389f)" style="fill: none; stroke: #5cb85c; stroke-linecap: square"/>
   </g>
   <g id="line2d_22">
    <path d="M 360.158013 353.223766 
L 387.423837 353.223766 
L 414.689661 353.222206 
L 441.955485 353.21797 
L 469.221309 353.205262 
L 496.487133 353.176947 
L 523.752957 353.067971 
L 551.01878 352.92319 
L 578.284604 352.41233 
L 605.550428 351.813674 
L 632.816252 351.230223 
L 660.082076 350.992161 
L 687.3479 351.072867 
L 714.613724 351.116476 
L 741.879548 351.305088 
L 769.145372 351.158613 
L 796.411196 351.081116 
L 823.67702 350.95475 
L 850.942844 350.446298 
L 878.208668 349.137781 
L 905.474492 339.607441 
L 932.740316 323.525861 
L 960.00614 268.946455 
" clip-path="url(#pa62a94389f)" style="fill: none; stroke: #5cb85c; stroke-linecap: square"/>
   </g>
   <g id="line2d_23">
    <path d="M 360.158013 353.223811 
L 387.423837 353.223677 
L 414.689661 353.221225 
L 441.955485 353.215562 
L 469.221309 353.197102 
L 496.487133 353.160137 
L 523.752957 353.023872 
L 551.01878 352.853274 
L 578.284604 352.240171 
L 605.550428 351.543998 
L 632.816252 350.898033 
L 660.082076 350.677449 
L 687.3479 350.796726 
L 714.613724 350.924875 
L 741.879548 351.128648 
L 769.145372 351.018201 
L 796.411196 350.933882 
L 823.67702 350.787986 
L 850.942844 350.255947 
L 878.208668 348.819324 
L 905.474492 338.461139 
L 932.740316 321.829907 
L 960.00614 265.712749 
" clip-path="url(#pa62a94389f)" style="fill: none; stroke: #5cb85c; stroke-linecap: square"/>
   </g>
   <g id="line2d_24">
    <path d="M 360.158013 353.223766 
L 387.423837 353.223677 
L 414.689661 353.222206 
L 441.955485 353.214982 
L 469.221309 353.195363 
L 496.487133 353.15443 
L 523.752957 353.008935 
L 551.01878 352.825004 
L 578.284604 352.152642 
L 605.550428 351.391369 
L 632.816252 350.683157 
L 660.082076 350.39404 
L 687.3479 350.463688 
L 714.613724 350.578773 
L 741.879548 350.826333 
L 769.145372 350.663805 
L 796.411196 350.51617 
L 823.67702 350.38588 
L 850.942844 349.730372 
L 878.208668 348.046859 
L 905.474492 335.921733 
L 932.740316 316.622367 
L 960.00614 252.632521 
" clip-path="url(#pa62a94389f)" style="fill: none; stroke: #5cb85c; stroke-linecap: square"/>
   </g>
   <g id="line2d_25">
    <path d="M 360.158013 353.223811 
L 387.423837 353.223811 
L 414.689661 353.222696 
L 441.955485 353.219619 
L 469.221309 353.206644 
L 496.487133 353.181897 
L 523.752957 353.091514 
L 551.01878 352.966486 
L 578.284604 352.508242 
L 605.550428 351.957697 
L 632.816252 351.387044 
L 660.082076 351.069657 
L 687.3479 351.031488 
L 714.613724 351.031667 
L 741.879548 351.20231 
L 769.145372 351.033094 
L 796.411196 350.906549 
L 823.67702 350.745894 
L 850.942844 350.159767 
L 878.208668 348.637622 
L 905.474492 337.785522 
L 932.740316 319.940435 
L 960.00614 264.811109 
" clip-path="url(#pa62a94389f)" style="fill: none; stroke: #5cb85c; stroke-linecap: square"/>
   </g>
   <g id="line2d_26">
    <path d="M 360.158013 353.223811 
L 387.423837 353.223588 
L 414.689661 353.222116 
L 441.955485 353.21574 
L 469.221309 353.197815 
L 496.487133 353.160895 
L 523.752957 353.02142 
L 551.01878 352.838916 
L 578.284604 352.198212 
L 605.550428 351.479968 
L 632.816252 350.844169 
L 660.082076 350.568964 
L 687.3479 350.636472 
L 714.613724 350.715618 
L 741.879548 350.935175 
L 769.145372 350.790126 
L 796.411196 350.662869 
L 823.67702 350.54765 
L 850.942844 349.930445 
L 878.208668 348.355461 
L 905.474492 336.959951 
L 932.740316 318.671736 
L 960.00614 256.220845 
" clip-path="url(#pa62a94389f)" style="fill: none; stroke: #5cb85c; stroke-linecap: square"/>
   </g>
   <g id="line2d_27">
    <path d="M 360.158013 353.223855 
L 387.423837 353.223499 
L 414.689661 353.221893 
L 441.955485 353.218371 
L 469.221309 353.206064 
L 496.487133 353.178776 
L 523.752957 353.082819 
L 551.01878 352.960556 
L 578.284604 352.506146 
L 605.550428 351.999567 
L 632.816252 351.551712 
L 660.082076 351.383253 
L 687.3479 351.460839 
L 714.613724 351.51011 
L 741.879548 351.674199 
L 769.145372 351.5823 
L 796.411196 351.477381 
L 823.67702 351.395337 
L 850.942844 350.949845 
L 878.208668 349.884651 
L 905.474492 342.102346 
L 932.740316 329.528072 
L 960.00614 286.627586 
" clip-path="url(#pa62a94389f)" style="fill: none; stroke: #5cb85c; stroke-linecap: square"/>
   </g>
   <g id="line2d_28">
    <path d="M 360.158013 353.223855 
L 387.423837 353.223677 
L 414.689661 353.221893 
L 441.955485 353.218014 
L 469.221309 353.206287 
L 496.487133 353.179043 
L 523.752957 353.078316 
L 551.01878 352.948338 
L 578.284604 352.467576 
L 605.550428 351.940932 
L 632.816252 351.461151 
L 660.082076 351.296839 
L 687.3479 351.341741 
L 714.613724 351.368405 
L 741.879548 351.522729 
L 769.145372 351.396229 
L 796.411196 351.301789 
L 823.67702 351.201195 
L 850.942844 350.76092 
L 878.208668 349.645653 
L 905.474492 341.220102 
L 932.740316 327.195472 
L 960.00614 277.202744 
" clip-path="url(#pa62a94389f)" style="fill: none; stroke: #5cb85c; stroke-linecap: square"/>
   </g>
   <g id="line2d_29">
    <path d="M 360.158013 353.223722 
L 387.423837 353.223766 
L 414.689661 353.221983 
L 441.955485 353.217479 
L 469.221309 353.199911 
L 496.487133 353.161386 
L 523.752957 353.026414 
L 551.01878 352.851089 
L 578.284604 352.218099 
L 605.550428 351.503511 
L 632.816252 350.877834 
L 660.082076 350.653326 
L 687.3479 350.698674 
L 714.613724 350.783839 
L 741.879548 351.019851 
L 769.145372 350.847513 
L 796.411196 350.731982 
L 823.67702 350.588137 
L 850.942844 349.987564 
L 878.208668 348.509473 
L 905.474492 337.524407 
L 932.740316 319.673301 
L 960.00614 256.186244 
" clip-path="url(#pa62a94389f)" style="fill: none; stroke: #5cb85c; stroke-linecap: square"/>
   </g>
   <g id="line2d_30">
    <path d="M 360.158013 353.223855 
L 387.423837 353.223811 
L 414.689661 353.221938 
L 441.955485 353.217747 
L 469.221309 353.199733 
L 496.487133 353.168119 
L 523.752957 353.048396 
L 551.01878 352.893672 
L 578.284604 352.338535 
L 605.550428 351.683562 
L 632.816252 351.069835 
L 660.082076 350.848048 
L 687.3479 350.941329 
L 714.613724 351.021768 
L 741.879548 351.245428 
L 769.145372 351.11603 
L 796.411196 351.030998 
L 823.67702 350.903116 
L 850.942844 350.394619 
L 878.208668 349.07977 
L 905.474492 339.232935 
L 932.740316 323.157331 
L 960.00614 269.852554 
" clip-path="url(#pa62a94389f)" style="fill: none; stroke: #5cb85c; stroke-linecap: square"/>
   </g>
   <g id="line2d_31">
    <path d="M 387.423837 353.223766 
L 414.689661 353.222384 
L 441.955485 353.217925 
L 469.221309 353.205128 
L 496.487133 353.17775 
L 523.752957 353.076265 
L 551.01878 352.945841 
L 578.284604 352.474131 
L 605.550428 351.950162 
L 632.816252 351.49874 
L 660.082076 351.343614 
L 687.3479 351.426773 
L 714.613724 351.46989 
L 741.879548 351.631304 
L 769.145372 351.532048 
L 796.411196 351.428244 
L 823.67702 351.357838 
L 850.942844 350.899014 
L 878.208668 349.767917 
L 905.474492 341.63884 
L 932.740316 328.727561 
L 960.00614 284.936804 
" clip-path="url(#pa62a94389f)" style="fill: none; stroke: #5cb85c; stroke-linecap: square"/>
   </g>
   <g id="line2d_32">
    <path d="M 360.158013 353.223855 
L 387.423837 353.223722 
L 414.689661 353.222473 
L 441.955485 353.218059 
L 469.221309 353.202408 
L 496.487133 353.177126 
L 523.752957 353.074392 
L 551.01878 352.946777 
L 578.284604 352.485679 
L 605.550428 351.958054 
L 632.816252 351.452902 
L 660.082076 351.230847 
L 687.3479 351.289571 
L 714.613724 351.315745 
L 741.879548 351.498115 
L 769.145372 351.390967 
L 796.411196 351.317573 
L 823.67702 351.217604 
L 850.942844 350.781788 
L 878.208668 349.71267 
L 905.474492 341.450272 
L 932.740316 327.458995 
L 960.00614 278.016722 
" clip-path="url(#pa62a94389f)" style="fill: none; stroke: #5cb85c; stroke-linecap: square"/>
   </g>
   <g id="line2d_33">
    <path d="M 387.423837 353.223811 
L 414.689661 353.222874 
L 441.955485 353.220244 
L 469.221309 353.20923 
L 496.487133 353.18912 
L 523.752957 353.107834 
L 551.01878 353.019458 
L 578.284604 352.66368 
L 605.550428 352.26572 
L 632.816252 351.896521 
L 660.082076 351.755886 
L 687.3479 351.76739 
L 714.613724 351.774703 
L 741.879548 351.889922 
L 769.145372 351.800565 
L 796.411196 351.728107 
L 823.67702 351.640801 
L 850.942844 351.288278 
L 878.208668 350.346597 
L 905.474492 343.570048 
L 932.740316 332.231522 
L 960.00614 292.910576 
" clip-path="url(#pa62a94389f)" style="fill: none; stroke: #5cb85c; stroke-linecap: square"/>
   </g>
   <g id="line2d_34">
    <path d="M 360.158013 353.223811 
L 387.423837 353.223722 
L 414.689661 353.222206 
L 441.955485 353.218237 
L 469.221309 353.204727 
L 496.487133 353.177705 
L 523.752957 353.073277 
L 551.01878 352.937012 
L 578.284604 352.431058 
L 605.550428 351.884482 
L 632.816252 351.388203 
L 660.082076 351.267143 
L 687.3479 351.383476 
L 714.613724 351.464361 
L 741.879548 351.629386 
L 769.145372 351.516308 
L 796.411196 351.430741 
L 823.67702 351.32609 
L 850.942844 350.879261 
L 878.208668 349.801805 
L 905.474492 341.845868 
L 932.740316 328.942972 
L 960.00614 284.336186 
" clip-path="url(#pa62a94389f)" style="fill: none; stroke: #5cb85c; stroke-linecap: square"/>
   </g>
   <g id="line2d_35">
    <path d="M 387.423837 353.223677 
L 414.689661 353.222473 
L 441.955485 353.218817 
L 469.221309 353.206778 
L 496.487133 353.181629 
L 523.752957 353.089998 
L 551.01878 352.95895 
L 578.284604 352.463697 
L 605.550428 351.866066 
L 632.816252 351.307675 
L 660.082076 351.065198 
L 687.3479 351.123967 
L 714.613724 351.153574 
L 741.879548 351.288769 
L 769.145372 351.120712 
L 796.411196 350.98467 
L 823.67702 350.805108 
L 850.942844 350.235658 
L 878.208668 348.743076 
L 905.474492 338.122795 
L 932.740316 320.010485 
L 960.00614 262.764772 
" clip-path="url(#pa62a94389f)" style="fill: none; stroke: #5cb85c; stroke-linecap: square"/>
   </g>
   <g id="line2d_36">
    <path d="M 360.158013 353.223855 
L 387.423837 353.223632 
L 414.689661 353.222429 
L 441.955485 353.218817 
L 469.221309 353.205351 
L 496.487133 353.179712 
L 523.752957 353.081794 
L 551.01878 352.945395 
L 578.284604 352.459818 
L 605.550428 351.956181 
L 632.816252 351.500479 
L 660.082076 351.373087 
L 687.3479 351.484159 
L 714.613724 351.543775 
L 741.879548 351.707106 
L 769.145372 351.611684 
L 796.411196 351.531691 
L 823.67702 351.452367 
L 850.942844 351.038578 
L 878.208668 350.00473 
L 905.474492 342.561482 
L 932.740316 330.507343 
L 960.00614 287.138803 
" clip-path="url(#pa62a94389f)" style="fill: none; stroke: #5cb85c; stroke-linecap: square"/>
   </g>
   <g id="line2d_37">
    <path d="M 360.158013 353.223677 
L 387.423837 353.223766 
L 414.689661 353.221314 
L 441.955485 353.216677 
L 469.221309 353.193579 
L 496.487133 353.159647 
L 523.752957 353.008444 
L 551.01878 352.816488 
L 578.284604 352.170076 
L 605.550428 351.429047 
L 632.816252 350.831104 
L 660.082076 350.649046 
L 687.3479 350.760341 
L 714.613724 350.880509 
L 741.879548 351.109252 
L 769.145372 350.971293 
L 796.411196 350.879127 
L 823.67702 350.78054 
L 850.942844 350.194993 
L 878.208668 348.754 
L 905.474492 338.190303 
L 932.740316 321.459637 
L 960.00614 263.333999 
" clip-path="url(#pa62a94389f)" style="fill: none; stroke: #5cb85c; stroke-linecap: square"/>
   </g>
   <g id="line2d_38">
    <path d="M 360.158013 353.223766 
L 387.423837 353.223722 
L 414.689661 353.221358 
L 441.955485 353.215428 
L 469.221309 353.197191 
L 496.487133 353.158666 
L 523.752957 353.023471 
L 551.01878 352.849082 
L 578.284604 352.241954 
L 605.550428 351.605308 
L 632.816252 351.019583 
L 660.082076 350.826155 
L 687.3479 350.931564 
L 714.613724 351.0384 
L 741.879548 351.240345 
L 769.145372 351.135827 
L 796.411196 351.023418 
L 823.67702 350.919837 
L 850.942844 350.388421 
L 878.208668 349.03848 
L 905.474492 339.219737 
L 932.740316 323.736546 
L 960.00614 269.34865 
" clip-path="url(#pa62a94389f)" style="fill: none; stroke: #5cb85c; stroke-linecap: square"/>
   </g>
   <g id="line2d_39">
    <path d="M 360.158013 353.223855 
L 387.423837 353.223677 
L 414.689661 353.22225 
L 441.955485 353.218103 
L 469.221309 353.204102 
L 496.487133 353.174183 
L 523.752957 353.056958 
L 551.01878 352.916635 
L 578.284604 352.382054 
L 605.550428 351.744962 
L 632.816252 351.191787 
L 660.082076 350.947259 
L 687.3479 351.0145 
L 714.613724 351.039871 
L 741.879548 351.243154 
L 769.145372 351.094404 
L 796.411196 350.958407 
L 823.67702 350.861648 
L 850.942844 350.295007 
L 878.208668 348.902081 
L 905.474492 338.652828 
L 932.740316 322.211369 
L 960.00614 265.98412 
" clip-path="url(#pa62a94389f)" style="fill: none; stroke: #5cb85c; stroke-linecap: square"/>
   </g>
   <g id="line2d_40">
    <path d="M 360.158013 353.223722 
L 387.423837 353.223588 
L 414.689661 353.222696 
L 441.955485 353.217836 
L 469.221309 353.204905 
L 496.487133 353.176635 
L 523.752957 353.072118 
L 551.01878 352.934649 
L 578.284604 352.445237 
L 605.550428 351.885106 
L 632.816252 351.355653 
L 660.082076 351.121648 
L 687.3479 351.157409 
L 714.613724 351.161734 
L 741.879548 351.33367 
L 769.145372 351.202042 
L 796.411196 351.105373 
L 823.67702 351.000989 
L 850.942844 350.470064 
L 878.208668 349.18946 
L 905.474492 339.531951 
L 932.740316 324.101509 
L 960.00614 271.76111 
" clip-path="url(#pa62a94389f)" style="fill: none; stroke: #5cb85c; stroke-linecap: square"/>
   </g>
   <g id="line2d_41">
    <path d="M 360.158013 353.223855 
L 387.423837 353.223677 
L 414.689661 353.221626 
L 441.955485 353.215919 
L 469.221309 353.199019 
L 496.487133 353.166781 
L 523.752957 353.036402 
L 551.01878 352.87102 
L 578.284604 352.286722 
L 605.550428 351.657255 
L 632.816252 351.118616 
L 660.082076 350.921308 
L 687.3479 351.032113 
L 714.613724 351.107914 
L 741.879548 351.288992 
L 769.145372 351.160218 
L 796.411196 351.076345 
L 823.67702 350.935934 
L 850.942844 350.353642 
L 878.208668 348.939849 
L 905.474492 338.850225 
L 932.740316 323.248471 
L 960.00614 270.210784 
" clip-path="url(#pa62a94389f)" style="fill: none; stroke: #5cb85c; stroke-linecap: square"/>
   </g>
   <g id="line2d_42">
    <path d="M 360.158013 353.223766 
L 387.423837 353.223365 
L 414.689661 353.220244 
L 441.955485 353.215339 
L 469.221309 353.192019 
L 496.487133 353.144977 
L 523.752957 352.975716 
L 551.01878 352.768286 
L 578.284604 351.999567 
L 605.550428 351.166906 
L 632.816252 350.389982 
L 660.082076 350.089138 
L 687.3479 350.200567 
L 714.613724 350.289701 
L 741.879548 350.550726 
L 769.145372 350.398855 
L 796.411196 350.25452 
L 823.67702 350.116873 
L 850.942844 349.413565 
L 878.208668 347.748422 
L 905.474492 334.865814 
L 932.740316 313.45171 
L 960.00614 236.337136 
" clip-path="url(#pa62a94389f)" style="fill: none; stroke: #5cb85c; stroke-linecap: square"/>
   </g>
   <g id="line2d_43">
    <path d="M 360.158013 353.223766 
L 387.423837 353.223454 
L 414.689661 353.221403 
L 441.955485 353.213466 
L 469.221309 353.190592 
L 496.487133 353.145824 
L 523.752957 352.981468 
L 551.01878 352.750183 
L 578.284604 351.989936 
L 605.550428 351.158657 
L 632.816252 350.475281 
L 660.082076 350.283012 
L 687.3479 350.465338 
L 714.613724 350.610877 
L 741.879548 350.864858 
L 769.145372 350.735371 
L 796.411196 350.603208 
L 823.67702 350.474167 
L 850.942844 349.809697 
L 878.208668 348.187047 
L 905.474492 336.331108 
L 932.740316 317.802289 
L 960.00614 253.297035 
" clip-path="url(#pa62a94389f)" style="fill: none; stroke: #5cb85c; stroke-linecap: square"/>
   </g>
   <g id="line2d_44">
    <path d="M 360.158013 353.223855 
L 387.423837 353.223588 
L 414.689661 353.221314 
L 441.955485 353.214358 
L 469.221309 353.194739 
L 496.487133 353.156303 
L 523.752957 353.004119 
L 551.01878 352.827635 
L 578.284604 352.180376 
L 605.550428 351.494593 
L 632.816252 350.916716 
L 660.082076 350.728103 
L 687.3479 350.858883 
L 714.613724 350.960324 
L 741.879548 351.173505 
L 769.145372 351.07095 
L 796.411196 350.967592 
L 823.67702 350.864234 
L 850.942844 350.29951 
L 878.208668 348.881392 
L 905.474492 338.693226 
L 932.740316 322.714514 
L 960.00614 266.546837 
" clip-path="url(#pa62a94389f)" style="fill: none; stroke: #5cb85c; stroke-linecap: square"/>
   </g>
   <g id="line2d_45">
    <path d="M 360.158013 353.223855 
L 387.423837 353.223855 
L 414.689661 353.22283 
L 441.955485 353.218906 
L 469.221309 353.207179 
L 496.487133 353.184438 
L 523.752957 353.089151 
L 551.01878 352.978168 
L 578.284604 352.504808 
L 605.550428 351.95471 
L 632.816252 351.391146 
L 660.082076 351.089365 
L 687.3479 351.078307 
L 714.613724 351.057484 
L 741.879548 351.183627 
L 769.145372 351.010576 
L 796.411196 350.860845 
L 823.67702 350.698852 
L 850.942844 350.075806 
L 878.208668 348.59602 
L 905.474492 337.496315 
L 932.740316 318.984797 
L 960.00614 258.850678 
" clip-path="url(#pa62a94389f)" style="fill: none; stroke: #5cb85c; stroke-linecap: square"/>
   </g>
   <g id="line2d_46">
    <path d="M 387.423837 353.223588 
L 414.689661 353.221804 
L 441.955485 353.21681 
L 469.221309 353.200535 
L 496.487133 353.168253 
L 523.752957 353.036759 
L 551.01878 352.872893 
L 578.284604 352.253325 
L 605.550428 351.588676 
L 632.816252 351.005582 
L 660.082076 350.788343 
L 687.3479 350.860132 
L 714.613724 350.890229 
L 741.879548 351.105819 
L 769.145372 350.95047 
L 796.411196 350.82941 
L 823.67702 350.703534 
L 850.942844 350.172832 
L 878.208668 348.745261 
L 905.474492 338.174207 
L 932.740316 321.261661 
L 960.00614 259.642851 
" clip-path="url(#pa62a94389f)" style="fill: none; stroke: #5cb85c; stroke-linecap: square"/>
   </g>
   <g id="line2d_47">
    <path d="M 360.158013 353.223855 
L 387.423837 353.223454 
L 414.689661 353.222295 
L 441.955485 353.217078 
L 469.221309 353.197503 
L 496.487133 353.160137 
L 523.752957 353.017229 
L 551.01878 352.820322 
L 578.284604 352.126825 
L 605.550428 351.333581 
L 632.816252 350.636115 
L 660.082076 350.468103 
L 687.3479 350.611502 
L 714.613724 350.714592 
L 741.879548 350.931965 
L 769.145372 350.772781 
L 796.411196 350.666971 
L 823.67702 350.530528 
L 850.942844 349.911093 
L 878.208668 348.369328 
L 905.474492 337.040479 
L 932.740316 318.960897 
L 960.00614 254.841118 
" clip-path="url(#pa62a94389f)" style="fill: none; stroke: #5cb85c; stroke-linecap: square"/>
   </g>
   <g id="line2d_48">
    <path d="M 360.158013 353.223811 
L 387.423837 353.223722 
L 414.689661 353.221893 
L 441.955485 353.218193 
L 469.221309 353.205217 
L 496.487133 353.180559 
L 523.752957 353.079386 
L 551.01878 352.951103 
L 578.284604 352.486081 
L 605.550428 351.931657 
L 632.816252 351.374469 
L 660.082076 351.142783 
L 687.3479 351.147777 
L 714.613724 351.159683 
L 741.879548 351.326179 
L 769.145372 351.172792 
L 796.411196 351.065956 
L 823.67702 350.996174 
L 850.942844 350.442553 
L 878.208668 349.190396 
L 905.474492 339.637226 
L 932.740316 323.68665 
L 960.00614 269.011689 
" clip-path="url(#pa62a94389f)" style="fill: none; stroke: #5cb85c; stroke-linecap: square"/>
   </g>
   <g id="line2d_49">
    <path d="M 360.158013 353.223677 
L 387.423837 353.223231 
L 414.689661 353.217568 
L 441.955485 353.203879 
L 469.221309 353.155812 
L 496.487133 353.045721 
L 523.752957 352.721334 
L 551.01878 352.359046 
L 578.284604 351.345219 
L 605.550428 350.408977 
L 632.816252 349.10251 
L 660.082076 347.888522 
L 687.3479 347.057377 
L 714.613724 346.966237 
L 741.879548 346.744895 
L 769.145372 346.644525 
L 796.411196 346.104103 
L 823.67702 345.448461 
L 850.942844 342.966175 
L 878.208668 337.40027 
L 905.474492 305.865375 
L 932.740316 272.19648 
L 960.00614 129.346923 
" clip-path="url(#pa62a94389f)" style="fill: none; stroke: #5cb85c; stroke-linecap: square"/>
   </g>
   <g id="line2d_50">
    <path d="M 360.158013 353.223543 
L 387.423837 353.222116 
L 414.689661 353.214804 
L 441.955485 353.190859 
L 469.221309 353.117867 
L 496.487133 352.959619 
L 523.752957 352.490228 
L 551.01878 352.009466 
L 578.284604 350.621088 
L 605.550428 349.439829 
L 632.816252 347.900829 
L 660.082076 346.659641 
L 687.3479 346.028434 
L 714.613724 346.296951 
L 741.879548 346.281434 
L 769.145372 346.430318 
L 796.411196 345.982195 
L 823.67702 345.455284 
L 850.942844 342.939421 
L 878.208668 337.357598 
L 905.474492 305.945814 
L 932.740316 272.196346 
L 960.00614 131.631813 
" clip-path="url(#pa62a94389f)" style="fill: none; stroke: #5cb85c; stroke-linecap: square"/>
   </g>
   <g id="line2d_51">
    <path d="M 360.158013 353.223499 
L 387.423837 353.223008 
L 414.689661 353.218416 
L 441.955485 353.204994 
L 469.221309 353.159914 
L 496.487133 353.060614 
L 523.752957 352.745724 
L 551.01878 352.420222 
L 578.284604 351.462712 
L 605.550428 350.611725 
L 632.816252 349.457976 
L 660.082076 348.396127 
L 687.3479 347.712483 
L 714.613724 347.757786 
L 741.879548 347.583442 
L 769.145372 347.573499 
L 796.411196 347.19284 
L 823.67702 346.675782 
L 850.942844 344.611342 
L 878.208668 339.877607 
L 905.474492 313.308846 
L 932.740316 284.841116 
L 960.00614 164.112626 
" clip-path="url(#pa62a94389f)" style="fill: none; stroke: #5cb85c; stroke-linecap: square"/>
   </g>
   <g id="line2d_52">
    <path d="M 360.158013 353.223142 
L 387.423837 353.222429 
L 414.689661 353.214402 
L 441.955485 353.188006 
L 469.221309 353.109216 
L 496.487133 352.930814 
L 523.752957 352.403724 
L 551.01878 351.858888 
L 578.284604 350.301026 
L 605.550428 348.979355 
L 632.816252 347.257182 
L 660.082076 345.789213 
L 687.3479 345.002925 
L 714.613724 345.228591 
L 741.879548 345.18971 
L 769.145372 345.353352 
L 796.411196 344.968502 
L 823.67702 344.327575 
L 850.942844 341.433462 
L 878.208668 335.103965 
L 905.474492 298.746781 
L 932.740316 260.113937 
L 960.00614 98.1555 
" clip-path="url(#pa62a94389f)" style="fill: none; stroke: #5cb85c; stroke-linecap: square"/>
   </g>
   <g id="line2d_53">
    <path d="M 360.158013 353.223588 
L 387.423837 353.223142 
L 414.689661 353.216543 
L 441.955485 353.199643 
L 469.221309 353.147429 
L 496.487133 353.023872 
L 523.752957 352.645443 
L 551.01878 352.233349 
L 578.284604 351.069434 
L 605.550428 350.041963 
L 632.816252 348.581351 
L 660.082076 347.268909 
L 687.3479 346.435669 
L 714.613724 346.460104 
L 741.879548 346.267076 
L 769.145372 346.312335 
L 796.411196 345.862116 
L 823.67702 345.248567 
L 850.942844 342.691371 
L 878.208668 336.940108 
L 905.474492 304.519447 
L 932.740316 269.544174 
L 960.00614 121.300738 
" clip-path="url(#pa62a94389f)" style="fill: none; stroke: #5cb85c; stroke-linecap: square"/>
   </g>
   <g id="line2d_54">
    <path d="M 360.158013 353.223053 
L 387.423837 353.222473 
L 414.689661 353.215785 
L 441.955485 353.19835 
L 469.221309 353.139314 
L 496.487133 352.997297 
L 523.752957 352.590197 
L 551.01878 352.167 
L 578.284604 350.933124 
L 605.550428 349.873905 
L 632.816252 348.410707 
L 660.082076 347.099425 
L 687.3479 346.310506 
L 714.613724 346.328922 
L 741.879548 346.190606 
L 769.145372 346.288212 
L 796.411196 345.784843 
L 823.67702 345.198761 
L 850.942844 342.592739 
L 878.208668 336.929184 
L 905.474492 304.278441 
L 932.740316 269.624569 
L 960.00614 119.58298 
" clip-path="url(#pa62a94389f)" style="fill: none; stroke: #5cb85c; stroke-linecap: square"/>
   </g>
   <g id="line2d_55">
    <path d="M 360.158013 353.223811 
L 387.423837 353.223053 
L 414.689661 353.217167 
L 441.955485 353.202631 
L 469.221309 353.154118 
L 496.487133 353.044161 
L 523.752957 352.710454 
L 551.01878 352.370862 
L 578.284604 351.359978 
L 605.550428 350.490353 
L 632.816252 349.259286 
L 660.082076 348.234981 
L 687.3479 347.53698 
L 714.613724 347.590041 
L 741.879548 347.467465 
L 769.145372 347.506525 
L 796.411196 347.092692 
L 823.67702 346.581565 
L 850.942844 344.466516 
L 878.208668 339.808315 
L 905.474492 313.052012 
L 932.740316 284.174907 
L 960.00614 161.887441 
" clip-path="url(#pa62a94389f)" style="fill: none; stroke: #5cb85c; stroke-linecap: square"/>
   </g>
   <g id="line2d_56">
    <path d="M 360.158013 353.223766 
L 387.423837 353.223454 
L 414.689661 353.220913 
L 441.955485 353.212128 
L 469.221309 353.18368 
L 496.487133 353.126294 
L 523.752957 352.938305 
L 551.01878 352.742781 
L 578.284604 352.149565 
L 605.550428 351.598174 
L 632.816252 350.827091 
L 660.082076 350.103228 
L 687.3479 349.635665 
L 714.613724 349.595222 
L 741.879548 349.466092 
L 769.145372 349.44995 
L 796.411196 349.166719 
L 823.67702 348.854326 
L 850.942844 347.458101 
L 878.208668 344.396555 
L 905.474492 326.735756 
L 932.740316 307.775358 
L 960.00614 226.234581 
" clip-path="url(#pa62a94389f)" style="fill: none; stroke: #5cb85c; stroke-linecap: square"/>
   </g>
   <g id="line2d_57">
    <path d="M 360.158013 353.223499 
L 387.423837 353.223365 
L 414.689661 353.219753 
L 441.955485 353.206421 
L 469.221309 353.168654 
L 496.487133 353.085539 
L 523.752957 352.816042 
L 551.01878 352.549442 
L 578.284604 351.772251 
L 605.550428 351.049413 
L 632.816252 350.137517 
L 660.082076 349.278504 
L 687.3479 348.788691 
L 714.613724 348.903954 
L 741.879548 348.83551 
L 769.145372 348.915102 
L 796.411196 348.615996 
L 823.67702 348.222986 
L 850.942844 346.626332 
L 878.208668 343.091069 
L 905.474492 322.954316 
L 932.740316 301.491788 
L 960.00614 211.598097 
" clip-path="url(#pa62a94389f)" style="fill: none; stroke: #5cb85c; stroke-linecap: square"/>
   </g>
   <g id="line2d_58">
    <path d="M 360.158013 353.223543 
L 387.423837 353.223365 
L 414.689661 353.218371 
L 441.955485 353.208205 
L 469.221309 353.165533 
L 496.487133 353.08059 
L 523.752957 352.804047 
L 551.01878 352.53174 
L 578.284604 351.695245 
L 605.550428 350.993587 
L 632.816252 349.998131 
L 660.082076 349.128417 
L 687.3479 348.637489 
L 714.613724 348.700493 
L 741.879548 348.624112 
L 769.145372 348.701608 
L 796.411196 348.406873 
L 823.67702 348.0391 
L 850.942844 346.39099 
L 878.208668 342.844803 
L 905.474492 322.177481 
L 932.740316 299.514431 
L 960.00614 205.478794 
" clip-path="url(#pa62a94389f)" style="fill: none; stroke: #5cb85c; stroke-linecap: square"/>
   </g>
   <g id="line2d_59">
    <path d="M 360.158013 353.223677 
L 387.423837 353.223499 
L 414.689661 353.219842 
L 441.955485 353.207892 
L 469.221309 353.17503 
L 496.487133 353.100878 
L 523.752957 352.864466 
L 551.01878 352.622881 
L 578.284604 351.900266 
L 605.550428 351.258849 
L 632.816252 350.384943 
L 660.082076 349.533555 
L 687.3479 348.987425 
L 714.613724 348.94725 
L 741.879548 348.791232 
L 769.145372 348.771613 
L 796.411196 348.425556 
L 823.67702 348.025589 
L 850.942844 346.387378 
L 878.208668 342.643839 
L 905.474492 321.490181 
L 932.740316 299.009234 
L 960.00614 204.285495 
" clip-path="url(#pa62a94389f)" style="fill: none; stroke: #5cb85c; stroke-linecap: square"/>
   </g>
   <g id="line2d_60">
    <path d="M 360.158013 353.223499 
L 387.423837 353.223053 
L 414.689661 353.217925 
L 441.955485 353.204147 
L 469.221309 353.157507 
L 496.487133 353.056646 
L 523.752957 352.749871 
L 551.01878 352.412018 
L 578.284604 351.457049 
L 605.550428 350.548051 
L 632.816252 349.34628 
L 660.082076 348.211036 
L 687.3479 347.443476 
L 714.613724 347.361566 
L 741.879548 347.183922 
L 769.145372 347.113159 
L 796.411196 346.666909 
L 823.67702 346.129162 
L 850.942844 343.842042 
L 878.208668 338.81714 
L 905.474492 310.168733 
L 932.740316 278.985157 
L 960.00614 146.871011 
" clip-path="url(#pa62a94389f)" style="fill: none; stroke: #5cb85c; stroke-linecap: square"/>
   </g>
   <g id="line2d_61">
    <path d="M 32.968125 353.2239 
L 991.361838 353.2239 
" clip-path="url(#pa62a94389f)" style="fill: none; stroke: #dedede; stroke-width: 2; stroke-linecap: square"/>
   </g>
   <g id="text_20">
    <!-- FastQC: Per Sequence Quality Scores -->
    <g transform="translate(363.972481 19.3575) scale(0.16 -0.16)">
     <defs>
      <path id="DejaVuSans-46" d="M 628 4666 
L 3309 4666 
L 3309 4134 
L 1259 4134 
L 1259 2759 
L 3109 2759 
L 3109 2228 
L 1259 2228 
L 1259 0 
L 628 0 
L 628 4666 
z
" transform="scale(0.015625)"/>
      <path id="DejaVuSans-73" d="M 2834 3397 
L 2834 2853 
Q 2591 2978 2328 3040 
Q 2066 3103 1784 3103 
Q 1356 3103 1142 2972 
Q 928 2841 928 2578 
Q 928 2378 1081 2264 
Q 1234 2150 1697 2047 
L 1894 2003 
Q 2506 1872 2764 1633 
Q 3022 1394 3022 966 
Q 3022 478 2636 193 
Q 2250 -91 1575 -91 
Q 1294 -91 989 -36 
Q 684 19 347 128 
L 347 722 
Q 666 556 975 473 
Q 1284 391 1588 391 
Q 1994 391 2212 530 
Q 2431 669 2431 922 
Q 2431 1156 2273 1281 
Q 2116 1406 1581 1522 
L 1381 1569 
Q 847 1681 609 1914 
Q 372 2147 372 2553 
Q 372 3047 722 3315 
Q 1072 3584 1716 3584 
Q 2034 3584 2315 3537 
Q 2597 3491 2834 3397 
z
" transform="scale(0.015625)"/>
      <path id="DejaVuSans-3a" d="M 750 794 
L 1409 794 
L 1409 0 
L 750 0 
L 750 794 
z
M 750 3309 
L 1409 3309 
L 1409 2516 
L 750 2516 
L 750 3309 
z
" transform="scale(0.015625)"/>
     </defs>
     <use xlink:href="#DejaVuSans-46"/>
     <use xlink:href="#DejaVuSans-61" x="48.394531"/>
     <use xlink:href="#DejaVuSans-73" x="109.673828"/>
     <use xlink:href="#DejaVuSans-74" x="161.773438"/>
     <use xlink:href="#DejaVuSans-51" x="200.982422"/>
     <use xlink:href="#DejaVuSans-43" x="279.693359"/>
     <use xlink:href="#DejaVuSans-3a" x="349.517578"/>
     <use xlink:href="#DejaVuSans-20" x="383.208984"/>
     <use xlink:href="#DejaVuSans-50" x="414.996094"/>
     <use xlink:href="#DejaVuSans-65" x="471.673828"/>
     <use xlink:href="#DejaVuSans-72" x="533.197266"/>
     <use xlink:href="#DejaVuSans-20" x="574.310547"/>
     <use xlink:href="#DejaVuSans-53" x="606.097656"/>
     <use xlink:href="#DejaVuSans-65" x="669.574219"/>
     <use xlink:href="#DejaVuSans-71" x="731.097656"/>
     <use xlink:href="#DejaVuSans-75" x="794.574219"/>
     <use xlink:href="#DejaVuSans-65" x="857.953125"/>
     <use xlink:href="#DejaVuSans-6e" x="919.476562"/>
     <use xlink:href="#DejaVuSans-63" x="982.855469"/>
     <use xlink:href="#DejaVuSans-65" x="1037.835938"/>
     <use xlink:href="#DejaVuSans-20" x="1099.359375"/>
     <use xlink:href="#DejaVuSans-51" x="1131.146484"/>
     <use xlink:href="#DejaVuSans-75" x="1209.857422"/>
     <use xlink:href="#DejaVuSans-61" x="1273.236328"/>
     <use xlink:href="#DejaVuSans-6c" x="1334.515625"/>
     <use xlink:href="#DejaVuSans-69" x="1362.298828"/>
     <use xlink:href="#DejaVuSans-74" x="1390.082031"/>
     <use xlink:href="#DejaVuSans-79" x="1429.291016"/>
     <use xlink:href="#DejaVuSans-20" x="1488.470703"/>
     <use xlink:href="#DejaVuSans-53" x="1520.257812"/>
     <use xlink:href="#DejaVuSans-63" x="1583.734375"/>
     <use xlink:href="#DejaVuSans-6f" x="1638.714844"/>
     <use xlink:href="#DejaVuSans-72" x="1699.896484"/>
     <use xlink:href="#DejaVuSans-65" x="1738.759766"/>
     <use xlink:href="#DejaVuSans-73" x="1800.283203"/>
    </g>
   </g>
  </g>
 </g>
 <defs>
  <clipPath id="pa62a94389f">
   <rect x="32.968125" y="35.2559" width="958.393713" height="317.968"/>
  </clipPath>
 </defs>
</svg>
