<?xml version="1.0" encoding="utf-8" standalone="no"?>
<!DOCTYPE svg PUBLIC "-//W3C//DTD SVG 1.1//EN"
  "http://www.w3.org/Graphics/SVG/1.1/DTD/svg11.dtd">
<svg xmlns:xlink="http://www.w3.org/1999/xlink" width="1000.278125pt" height="388.844525pt" viewBox="0 0 1000.278125 388.844525" xmlns="http://www.w3.org/2000/svg" version="1.1">
 <metadata>
  <rdf:RDF xmlns:dc="http://purl.org/dc/elements/1.1/" xmlns:cc="http://creativecommons.org/ns#" xmlns:rdf="http://www.w3.org/1999/02/22-rdf-syntax-ns#">
   <cc:Work>
    <dc:type rdf:resource="http://purl.org/dc/dcmitype/StillImage"/>
    <dc:date>2024-01-23T08:03:23.402925</dc:date>
    <dc:format>image/svg+xml</dc:format>
    <dc:creator>
     <cc:Agent>
      <dc:title>Matplotlib v3.6.2, https://matplotlib.org/</dc:title>
     </cc:Agent>
    </dc:creator>
   </cc:Work>
  </rdf:RDF>
 </metadata>
 <defs>
  <style type="text/css">*{stroke-linejoin: round; stroke-linecap: butt}</style>
 </defs>
 <g id="figure_1">
  <g id="axes_1">
   <g id="patch_1">
    <path d="M 43.148125 353.2239 
L 993.078125 353.2239 
L 993.078125 35.2559 
L 43.148125 35.2559 
z
" style="fill: #ffffff"/>
   </g>
   <g id="matplotlib.axis_1">
    <g id="xtick_1">
     <g id="text_1">
      <!-- 1.0 -->
      <g transform="translate(79.965511 366.30265) scale(0.08 -0.08)">
       <defs>
        <path id="DejaVuSans-31" d="M 794 531 
L 1825 531 
L 1825 4091 
L 703 3866 
L 703 4441 
L 1819 4666 
L 2450 4666 
L 2450 531 
L 3481 531 
L 3481 0 
L 794 0 
L 794 531 
z
" transform="scale(0.015625)"/>
        <path id="DejaVuSans-2e" d="M 684 794 
L 1344 794 
L 1344 0 
L 684 0 
L 684 794 
z
" transform="scale(0.015625)"/>
        <path id="DejaVuSans-30" d="M 2034 4250 
Q 1547 4250 1301 3770 
Q 1056 3291 1056 2328 
Q 1056 1369 1301 889 
Q 1547 409 2034 409 
Q 2525 409 2770 889 
Q 3016 1369 3016 2328 
Q 3016 3291 2770 3770 
Q 2525 4250 2034 4250 
z
M 2034 4750 
Q 2819 4750 3233 4129 
Q 3647 3509 3647 2328 
Q 3647 1150 3233 529 
Q 2819 -91 2034 -91 
Q 1250 -91 836 529 
Q 422 1150 422 2328 
Q 422 3509 836 4129 
Q 1250 4750 2034 4750 
z
" transform="scale(0.015625)"/>
       </defs>
       <use xlink:href="#DejaVuSans-31"/>
       <use xlink:href="#DejaVuSans-2e" x="63.623047"/>
       <use xlink:href="#DejaVuSans-30" x="95.410156"/>
      </g>
     </g>
    </g>
    <g id="xtick_2">
     <g id="text_2">
      <!-- 2.0 -->
      <g transform="translate(137.537027 366.30265) scale(0.08 -0.08)">
       <defs>
        <path id="DejaVuSans-32" d="M 1228 531 
L 3431 531 
L 3431 0 
L 469 0 
L 469 531 
Q 828 903 1448 1529 
Q 2069 2156 2228 2338 
Q 2531 2678 2651 2914 
Q 2772 3150 2772 3378 
Q 2772 3750 2511 3984 
Q 2250 4219 1831 4219 
Q 1534 4219 1204 4116 
Q 875 4013 500 3803 
L 500 4441 
Q 881 4594 1212 4672 
Q 1544 4750 1819 4750 
Q 2544 4750 2975 4387 
Q 3406 4025 3406 3419 
Q 3406 3131 3298 2873 
Q 3191 2616 2906 2266 
Q 2828 2175 2409 1742 
Q 1991 1309 1228 531 
z
" transform="scale(0.015625)"/>
       </defs>
       <use xlink:href="#DejaVuSans-32"/>
       <use xlink:href="#DejaVuSans-2e" x="63.623047"/>
       <use xlink:href="#DejaVuSans-30" x="95.410156"/>
      </g>
     </g>
    </g>
    <g id="xtick_3">
     <g id="text_3">
      <!-- 3.0 -->
      <g transform="translate(195.108542 366.30265) scale(0.08 -0.08)">
       <defs>
        <path id="DejaVuSans-33" d="M 2597 2516 
Q 3050 2419 3304 2112 
Q 3559 1806 3559 1356 
Q 3559 666 3084 287 
Q 2609 -91 1734 -91 
Q 1441 -91 1130 -33 
Q 819 25 488 141 
L 488 750 
Q 750 597 1062 519 
Q 1375 441 1716 441 
Q 2309 441 2620 675 
Q 2931 909 2931 1356 
Q 2931 1769 2642 2001 
Q 2353 2234 1838 2234 
L 1294 2234 
L 1294 2753 
L 1863 2753 
Q 2328 2753 2575 2939 
Q 2822 3125 2822 3475 
Q 2822 3834 2567 4026 
Q 2313 4219 1838 4219 
Q 1578 4219 1281 4162 
Q 984 4106 628 3988 
L 628 4550 
Q 988 4650 1302 4700 
Q 1616 4750 1894 4750 
Q 2613 4750 3031 4423 
Q 3450 4097 3450 3541 
Q 3450 3153 3228 2886 
Q 3006 2619 2597 2516 
z
" transform="scale(0.015625)"/>
       </defs>
       <use xlink:href="#DejaVuSans-33"/>
       <use xlink:href="#DejaVuSans-2e" x="63.623047"/>
       <use xlink:href="#DejaVuSans-30" x="95.410156"/>
      </g>
     </g>
    </g>
    <g id="xtick_4">
     <g id="text_4">
      <!-- 4.0 -->
      <g transform="translate(252.680057 366.30265) scale(0.08 -0.08)">
       <defs>
        <path id="DejaVuSans-34" d="M 2419 4116 
L 825 1625 
L 2419 1625 
L 2419 4116 
z
M 2253 4666 
L 3047 4666 
L 3047 1625 
L 3713 1625 
L 3713 1100 
L 3047 1100 
L 3047 0 
L 2419 0 
L 2419 1100 
L 313 1100 
L 313 1709 
L 2253 4666 
z
" transform="scale(0.015625)"/>
       </defs>
       <use xlink:href="#DejaVuSans-34"/>
       <use xlink:href="#DejaVuSans-2e" x="63.623047"/>
       <use xlink:href="#DejaVuSans-30" x="95.410156"/>
      </g>
     </g>
    </g>
    <g id="xtick_5">
     <g id="text_5">
      <!-- 5.0 -->
      <g transform="translate(310.251572 366.30265) scale(0.08 -0.08)">
       <defs>
        <path id="DejaVuSans-35" d="M 691 4666 
L 3169 4666 
L 3169 4134 
L 1269 4134 
L 1269 2991 
Q 1406 3038 1543 3061 
Q 1681 3084 1819 3084 
Q 2600 3084 3056 2656 
Q 3513 2228 3513 1497 
Q 3513 744 3044 326 
Q 2575 -91 1722 -91 
Q 1428 -91 1123 -41 
Q 819 9 494 109 
L 494 744 
Q 775 591 1075 516 
Q 1375 441 1709 441 
Q 2250 441 2565 725 
Q 2881 1009 2881 1497 
Q 2881 1984 2565 2268 
Q 2250 2553 1709 2553 
Q 1456 2553 1204 2497 
Q 953 2441 691 2322 
L 691 4666 
z
" transform="scale(0.015625)"/>
       </defs>
       <use xlink:href="#DejaVuSans-35"/>
       <use xlink:href="#DejaVuSans-2e" x="63.623047"/>
       <use xlink:href="#DejaVuSans-30" x="95.410156"/>
      </g>
     </g>
    </g>
    <g id="xtick_6">
     <g id="text_6">
      <!-- 6.0 -->
      <g transform="translate(367.823087 366.30265) scale(0.08 -0.08)">
       <defs>
        <path id="DejaVuSans-36" d="M 2113 2584 
Q 1688 2584 1439 2293 
Q 1191 2003 1191 1497 
Q 1191 994 1439 701 
Q 1688 409 2113 409 
Q 2538 409 2786 701 
Q 3034 994 3034 1497 
Q 3034 2003 2786 2293 
Q 2538 2584 2113 2584 
z
M 3366 4563 
L 3366 3988 
Q 3128 4100 2886 4159 
Q 2644 4219 2406 4219 
Q 1781 4219 1451 3797 
Q 1122 3375 1075 2522 
Q 1259 2794 1537 2939 
Q 1816 3084 2150 3084 
Q 2853 3084 3261 2657 
Q 3669 2231 3669 1497 
Q 3669 778 3244 343 
Q 2819 -91 2113 -91 
Q 1303 -91 875 529 
Q 447 1150 447 2328 
Q 447 3434 972 4092 
Q 1497 4750 2381 4750 
Q 2619 4750 2861 4703 
Q 3103 4656 3366 4563 
z
" transform="scale(0.015625)"/>
       </defs>
       <use xlink:href="#DejaVuSans-36"/>
       <use xlink:href="#DejaVuSans-2e" x="63.623047"/>
       <use xlink:href="#DejaVuSans-30" x="95.410156"/>
      </g>
     </g>
    </g>
    <g id="xtick_7">
     <g id="text_7">
      <!-- 7.0 -->
      <g transform="translate(425.394602 366.30265) scale(0.08 -0.08)">
       <defs>
        <path id="DejaVuSans-37" d="M 525 4666 
L 3525 4666 
L 3525 4397 
L 1831 0 
L 1172 0 
L 2766 4134 
L 525 4134 
L 525 4666 
z
" transform="scale(0.015625)"/>
       </defs>
       <use xlink:href="#DejaVuSans-37"/>
       <use xlink:href="#DejaVuSans-2e" x="63.623047"/>
       <use xlink:href="#DejaVuSans-30" x="95.410156"/>
      </g>
     </g>
    </g>
    <g id="xtick_8">
     <g id="text_8">
      <!-- 8.0 -->
      <g transform="translate(482.966117 366.30265) scale(0.08 -0.08)">
       <defs>
        <path id="DejaVuSans-38" d="M 2034 2216 
Q 1584 2216 1326 1975 
Q 1069 1734 1069 1313 
Q 1069 891 1326 650 
Q 1584 409 2034 409 
Q 2484 409 2743 651 
Q 3003 894 3003 1313 
Q 3003 1734 2745 1975 
Q 2488 2216 2034 2216 
z
M 1403 2484 
Q 997 2584 770 2862 
Q 544 3141 544 3541 
Q 544 4100 942 4425 
Q 1341 4750 2034 4750 
Q 2731 4750 3128 4425 
Q 3525 4100 3525 3541 
Q 3525 3141 3298 2862 
Q 3072 2584 2669 2484 
Q 3125 2378 3379 2068 
Q 3634 1759 3634 1313 
Q 3634 634 3220 271 
Q 2806 -91 2034 -91 
Q 1263 -91 848 271 
Q 434 634 434 1313 
Q 434 1759 690 2068 
Q 947 2378 1403 2484 
z
M 1172 3481 
Q 1172 3119 1398 2916 
Q 1625 2713 2034 2713 
Q 2441 2713 2670 2916 
Q 2900 3119 2900 3481 
Q 2900 3844 2670 4047 
Q 2441 4250 2034 4250 
Q 1625 4250 1398 4047 
Q 1172 3844 1172 3481 
z
" transform="scale(0.015625)"/>
       </defs>
       <use xlink:href="#DejaVuSans-38"/>
       <use xlink:href="#DejaVuSans-2e" x="63.623047"/>
       <use xlink:href="#DejaVuSans-30" x="95.410156"/>
      </g>
     </g>
    </g>
    <g id="xtick_9">
     <g id="text_9">
      <!-- 9.0 -->
      <g transform="translate(540.537633 366.30265) scale(0.08 -0.08)">
       <defs>
        <path id="DejaVuSans-39" d="M 703 97 
L 703 672 
Q 941 559 1184 500 
Q 1428 441 1663 441 
Q 2288 441 2617 861 
Q 2947 1281 2994 2138 
Q 2813 1869 2534 1725 
Q 2256 1581 1919 1581 
Q 1219 1581 811 2004 
Q 403 2428 403 3163 
Q 403 3881 828 4315 
Q 1253 4750 1959 4750 
Q 2769 4750 3195 4129 
Q 3622 3509 3622 2328 
Q 3622 1225 3098 567 
Q 2575 -91 1691 -91 
Q 1453 -91 1209 -44 
Q 966 3 703 97 
z
M 1959 2075 
Q 2384 2075 2632 2365 
Q 2881 2656 2881 3163 
Q 2881 3666 2632 3958 
Q 2384 4250 1959 4250 
Q 1534 4250 1286 3958 
Q 1038 3666 1038 3163 
Q 1038 2656 1286 2365 
Q 1534 2075 1959 2075 
z
" transform="scale(0.015625)"/>
       </defs>
       <use xlink:href="#DejaVuSans-39"/>
       <use xlink:href="#DejaVuSans-2e" x="63.623047"/>
       <use xlink:href="#DejaVuSans-30" x="95.410156"/>
      </g>
     </g>
    </g>
    <g id="xtick_10">
     <g id="text_10">
      <!-- &gt;10 -->
      <g transform="translate(596.028523 366.30265) scale(0.08 -0.08)">
       <defs>
        <path id="DejaVuSans-3e" d="M 678 3150 
L 678 3719 
L 4684 2266 
L 4684 1747 
L 678 294 
L 678 863 
L 3897 2003 
L 678 3150 
z
" transform="scale(0.015625)"/>
       </defs>
       <use xlink:href="#DejaVuSans-3e"/>
       <use xlink:href="#DejaVuSans-31" x="83.789062"/>
       <use xlink:href="#DejaVuSans-30" x="147.412109"/>
      </g>
     </g>
    </g>
    <g id="xtick_11">
     <g id="text_11">
      <!-- &gt;50 -->
      <g transform="translate(653.600038 366.30265) scale(0.08 -0.08)">
       <use xlink:href="#DejaVuSans-3e"/>
       <use xlink:href="#DejaVuSans-35" x="83.789062"/>
       <use xlink:href="#DejaVuSans-30" x="147.412109"/>
      </g>
     </g>
    </g>
    <g id="xtick_12">
     <g id="text_12">
      <!-- &gt;100 -->
      <g transform="translate(708.626553 366.30265) scale(0.08 -0.08)">
       <use xlink:href="#DejaVuSans-3e"/>
       <use xlink:href="#DejaVuSans-31" x="83.789062"/>
       <use xlink:href="#DejaVuSans-30" x="147.412109"/>
       <use xlink:href="#DejaVuSans-30" x="211.035156"/>
      </g>
     </g>
    </g>
    <g id="xtick_13">
     <g id="text_13">
      <!-- &gt;500 -->
      <g transform="translate(766.198068 366.30265) scale(0.08 -0.08)">
       <use xlink:href="#DejaVuSans-3e"/>
       <use xlink:href="#DejaVuSans-35" x="83.789062"/>
       <use xlink:href="#DejaVuSans-30" x="147.412109"/>
       <use xlink:href="#DejaVuSans-30" x="211.035156"/>
      </g>
     </g>
    </g>
    <g id="xtick_14">
     <g id="text_14">
      <!-- &gt;1k -->
      <g transform="translate(826.543333 366.30265) scale(0.08 -0.08)">
       <defs>
        <path id="DejaVuSans-6b" d="M 581 4863 
L 1159 4863 
L 1159 1991 
L 2875 3500 
L 3609 3500 
L 1753 1863 
L 3688 0 
L 2938 0 
L 1159 1709 
L 1159 0 
L 581 0 
L 581 4863 
z
" transform="scale(0.015625)"/>
       </defs>
       <use xlink:href="#DejaVuSans-3e"/>
       <use xlink:href="#DejaVuSans-31" x="83.789062"/>
       <use xlink:href="#DejaVuSans-6b" x="147.412109"/>
      </g>
     </g>
    </g>
    <g id="xtick_15">
     <g id="text_15">
      <!-- &gt;5k -->
      <g transform="translate(884.114848 366.30265) scale(0.08 -0.08)">
       <use xlink:href="#DejaVuSans-3e"/>
       <use xlink:href="#DejaVuSans-35" x="83.789062"/>
       <use xlink:href="#DejaVuSans-6b" x="147.412109"/>
      </g>
     </g>
    </g>
    <g id="xtick_16">
     <g id="text_16">
      <!-- &gt;10k+ -->
      <g transform="translate(935.789489 366.30265) scale(0.08 -0.08)">
       <defs>
        <path id="DejaVuSans-2b" d="M 2944 4013 
L 2944 2272 
L 4684 2272 
L 4684 1741 
L 2944 1741 
L 2944 0 
L 2419 0 
L 2419 1741 
L 678 1741 
L 678 2272 
L 2419 2272 
L 2419 4013 
L 2944 4013 
z
" transform="scale(0.015625)"/>
       </defs>
       <use xlink:href="#DejaVuSans-3e"/>
       <use xlink:href="#DejaVuSans-31" x="83.789062"/>
       <use xlink:href="#DejaVuSans-30" x="147.412109"/>
       <use xlink:href="#DejaVuSans-6b" x="211.035156"/>
       <use xlink:href="#DejaVuSans-2b" x="268.945312"/>
      </g>
     </g>
    </g>
    <g id="text_17">
     <!-- Sequence Duplication Level -->
     <g transform="translate(448.708437 379.564837) scale(0.1 -0.1)">
      <defs>
       <path id="DejaVuSans-53" d="M 3425 4513 
L 3425 3897 
Q 3066 4069 2747 4153 
Q 2428 4238 2131 4238 
Q 1616 4238 1336 4038 
Q 1056 3838 1056 3469 
Q 1056 3159 1242 3001 
Q 1428 2844 1947 2747 
L 2328 2669 
Q 3034 2534 3370 2195 
Q 3706 1856 3706 1288 
Q 3706 609 3251 259 
Q 2797 -91 1919 -91 
Q 1588 -91 1214 -16 
Q 841 59 441 206 
L 441 856 
Q 825 641 1194 531 
Q 1563 422 1919 422 
Q 2459 422 2753 634 
Q 3047 847 3047 1241 
Q 3047 1584 2836 1778 
Q 2625 1972 2144 2069 
L 1759 2144 
Q 1053 2284 737 2584 
Q 422 2884 422 3419 
Q 422 4038 858 4394 
Q 1294 4750 2059 4750 
Q 2388 4750 2728 4690 
Q 3069 4631 3425 4513 
z
" transform="scale(0.015625)"/>
       <path id="DejaVuSans-65" d="M 3597 1894 
L 3597 1613 
L 953 1613 
Q 991 1019 1311 708 
Q 1631 397 2203 397 
Q 2534 397 2845 478 
Q 3156 559 3463 722 
L 3463 178 
Q 3153 47 2828 -22 
Q 2503 -91 2169 -91 
Q 1331 -91 842 396 
Q 353 884 353 1716 
Q 353 2575 817 3079 
Q 1281 3584 2069 3584 
Q 2775 3584 3186 3129 
Q 3597 2675 3597 1894 
z
M 3022 2063 
Q 3016 2534 2758 2815 
Q 2500 3097 2075 3097 
Q 1594 3097 1305 2825 
Q 1016 2553 972 2059 
L 3022 2063 
z
" transform="scale(0.015625)"/>
       <path id="DejaVuSans-71" d="M 947 1747 
Q 947 1113 1208 752 
Q 1469 391 1925 391 
Q 2381 391 2643 752 
Q 2906 1113 2906 1747 
Q 2906 2381 2643 2742 
Q 2381 3103 1925 3103 
Q 1469 3103 1208 2742 
Q 947 2381 947 1747 
z
M 2906 525 
Q 2725 213 2448 61 
Q 2172 -91 1784 -91 
Q 1150 -91 751 415 
Q 353 922 353 1747 
Q 353 2572 751 3078 
Q 1150 3584 1784 3584 
Q 2172 3584 2448 3432 
Q 2725 3281 2906 2969 
L 2906 3500 
L 3481 3500 
L 3481 -1331 
L 2906 -1331 
L 2906 525 
z
" transform="scale(0.015625)"/>
       <path id="DejaVuSans-75" d="M 544 1381 
L 544 3500 
L 1119 3500 
L 1119 1403 
Q 1119 906 1312 657 
Q 1506 409 1894 409 
Q 2359 409 2629 706 
Q 2900 1003 2900 1516 
L 2900 3500 
L 3475 3500 
L 3475 0 
L 2900 0 
L 2900 538 
Q 2691 219 2414 64 
Q 2138 -91 1772 -91 
Q 1169 -91 856 284 
Q 544 659 544 1381 
z
M 1991 3584 
L 1991 3584 
z
" transform="scale(0.015625)"/>
       <path id="DejaVuSans-6e" d="M 3513 2113 
L 3513 0 
L 2938 0 
L 2938 2094 
Q 2938 2591 2744 2837 
Q 2550 3084 2163 3084 
Q 1697 3084 1428 2787 
Q 1159 2491 1159 1978 
L 1159 0 
L 581 0 
L 581 3500 
L 1159 3500 
L 1159 2956 
Q 1366 3272 1645 3428 
Q 1925 3584 2291 3584 
Q 2894 3584 3203 3211 
Q 3513 2838 3513 2113 
z
" transform="scale(0.015625)"/>
       <path id="DejaVuSans-63" d="M 3122 3366 
L 3122 2828 
Q 2878 2963 2633 3030 
Q 2388 3097 2138 3097 
Q 1578 3097 1268 2742 
Q 959 2388 959 1747 
Q 959 1106 1268 751 
Q 1578 397 2138 397 
Q 2388 397 2633 464 
Q 2878 531 3122 666 
L 3122 134 
Q 2881 22 2623 -34 
Q 2366 -91 2075 -91 
Q 1284 -91 818 406 
Q 353 903 353 1747 
Q 353 2603 823 3093 
Q 1294 3584 2113 3584 
Q 2378 3584 2631 3529 
Q 2884 3475 3122 3366 
z
" transform="scale(0.015625)"/>
       <path id="DejaVuSans-20" transform="scale(0.015625)"/>
       <path id="DejaVuSans-44" d="M 1259 4147 
L 1259 519 
L 2022 519 
Q 2988 519 3436 956 
Q 3884 1394 3884 2338 
Q 3884 3275 3436 3711 
Q 2988 4147 2022 4147 
L 1259 4147 
z
M 628 4666 
L 1925 4666 
Q 3281 4666 3915 4102 
Q 4550 3538 4550 2338 
Q 4550 1131 3912 565 
Q 3275 0 1925 0 
L 628 0 
L 628 4666 
z
" transform="scale(0.015625)"/>
       <path id="DejaVuSans-70" d="M 1159 525 
L 1159 -1331 
L 581 -1331 
L 581 3500 
L 1159 3500 
L 1159 2969 
Q 1341 3281 1617 3432 
Q 1894 3584 2278 3584 
Q 2916 3584 3314 3078 
Q 3713 2572 3713 1747 
Q 3713 922 3314 415 
Q 2916 -91 2278 -91 
Q 1894 -91 1617 61 
Q 1341 213 1159 525 
z
M 3116 1747 
Q 3116 2381 2855 2742 
Q 2594 3103 2138 3103 
Q 1681 3103 1420 2742 
Q 1159 2381 1159 1747 
Q 1159 1113 1420 752 
Q 1681 391 2138 391 
Q 2594 391 2855 752 
Q 3116 1113 3116 1747 
z
" transform="scale(0.015625)"/>
       <path id="DejaVuSans-6c" d="M 603 4863 
L 1178 4863 
L 1178 0 
L 603 0 
L 603 4863 
z
" transform="scale(0.015625)"/>
       <path id="DejaVuSans-69" d="M 603 3500 
L 1178 3500 
L 1178 0 
L 603 0 
L 603 3500 
z
M 603 4863 
L 1178 4863 
L 1178 4134 
L 603 4134 
L 603 4863 
z
" transform="scale(0.015625)"/>
       <path id="DejaVuSans-61" d="M 2194 1759 
Q 1497 1759 1228 1600 
Q 959 1441 959 1056 
Q 959 750 1161 570 
Q 1363 391 1709 391 
Q 2188 391 2477 730 
Q 2766 1069 2766 1631 
L 2766 1759 
L 2194 1759 
z
M 3341 1997 
L 3341 0 
L 2766 0 
L 2766 531 
Q 2569 213 2275 61 
Q 1981 -91 1556 -91 
Q 1019 -91 701 211 
Q 384 513 384 1019 
Q 384 1609 779 1909 
Q 1175 2209 1959 2209 
L 2766 2209 
L 2766 2266 
Q 2766 2663 2505 2880 
Q 2244 3097 1772 3097 
Q 1472 3097 1187 3025 
Q 903 2953 641 2809 
L 641 3341 
Q 956 3463 1253 3523 
Q 1550 3584 1831 3584 
Q 2591 3584 2966 3190 
Q 3341 2797 3341 1997 
z
" transform="scale(0.015625)"/>
       <path id="DejaVuSans-74" d="M 1172 4494 
L 1172 3500 
L 2356 3500 
L 2356 3053 
L 1172 3053 
L 1172 1153 
Q 1172 725 1289 603 
Q 1406 481 1766 481 
L 2356 481 
L 2356 0 
L 1766 0 
Q 1100 0 847 248 
Q 594 497 594 1153 
L 594 3053 
L 172 3053 
L 172 3500 
L 594 3500 
L 594 4494 
L 1172 4494 
z
" transform="scale(0.015625)"/>
       <path id="DejaVuSans-6f" d="M 1959 3097 
Q 1497 3097 1228 2736 
Q 959 2375 959 1747 
Q 959 1119 1226 758 
Q 1494 397 1959 397 
Q 2419 397 2687 759 
Q 2956 1122 2956 1747 
Q 2956 2369 2687 2733 
Q 2419 3097 1959 3097 
z
M 1959 3584 
Q 2709 3584 3137 3096 
Q 3566 2609 3566 1747 
Q 3566 888 3137 398 
Q 2709 -91 1959 -91 
Q 1206 -91 779 398 
Q 353 888 353 1747 
Q 353 2609 779 3096 
Q 1206 3584 1959 3584 
z
" transform="scale(0.015625)"/>
       <path id="DejaVuSans-4c" d="M 628 4666 
L 1259 4666 
L 1259 531 
L 3531 531 
L 3531 0 
L 628 0 
L 628 4666 
z
" transform="scale(0.015625)"/>
       <path id="DejaVuSans-76" d="M 191 3500 
L 800 3500 
L 1894 563 
L 2988 3500 
L 3597 3500 
L 2284 0 
L 1503 0 
L 191 3500 
z
" transform="scale(0.015625)"/>
      </defs>
      <use xlink:href="#DejaVuSans-53"/>
      <use xlink:href="#DejaVuSans-65" x="63.476562"/>
      <use xlink:href="#DejaVuSans-71" x="125"/>
      <use xlink:href="#DejaVuSans-75" x="188.476562"/>
      <use xlink:href="#DejaVuSans-65" x="251.855469"/>
      <use xlink:href="#DejaVuSans-6e" x="313.378906"/>
      <use xlink:href="#DejaVuSans-63" x="376.757812"/>
      <use xlink:href="#DejaVuSans-65" x="431.738281"/>
      <use xlink:href="#DejaVuSans-20" x="493.261719"/>
      <use xlink:href="#DejaVuSans-44" x="525.048828"/>
      <use xlink:href="#DejaVuSans-75" x="602.050781"/>
      <use xlink:href="#DejaVuSans-70" x="665.429688"/>
      <use xlink:href="#DejaVuSans-6c" x="728.90625"/>
      <use xlink:href="#DejaVuSans-69" x="756.689453"/>
      <use xlink:href="#DejaVuSans-63" x="784.472656"/>
      <use xlink:href="#DejaVuSans-61" x="839.453125"/>
      <use xlink:href="#DejaVuSans-74" x="900.732422"/>
      <use xlink:href="#DejaVuSans-69" x="939.941406"/>
      <use xlink:href="#DejaVuSans-6f" x="967.724609"/>
      <use xlink:href="#DejaVuSans-6e" x="1028.90625"/>
      <use xlink:href="#DejaVuSans-20" x="1092.285156"/>
      <use xlink:href="#DejaVuSans-4c" x="1124.072266"/>
      <use xlink:href="#DejaVuSans-65" x="1178.035156"/>
      <use xlink:href="#DejaVuSans-76" x="1239.558594"/>
      <use xlink:href="#DejaVuSans-65" x="1298.738281"/>
      <use xlink:href="#DejaVuSans-6c" x="1360.261719"/>
     </g>
    </g>
   </g>
   <g id="matplotlib.axis_2">
    <g id="ytick_1">
     <g id="line2d_1">
      <path d="M 43.148125 353.2239 
L 993.078125 353.2239 
" clip-path="url(#pad4ce0c854)" style="fill: none; stroke: #dedede; stroke-linecap: square"/>
     </g>
     <g id="text_18">
      <!-- 0 -->
      <g transform="translate(31.058125 356.263275) scale(0.08 -0.08)">
       <use xlink:href="#DejaVuSans-30"/>
      </g>
     </g>
    </g>
    <g id="ytick_2">
     <g id="line2d_2">
      <path d="M 43.148125 289.6303 
L 993.078125 289.6303 
" clip-path="url(#pad4ce0c854)" style="fill: none; stroke: #dedede; stroke-linecap: square"/>
     </g>
     <g id="text_19">
      <!-- 20 -->
      <g transform="translate(25.968125 292.669675) scale(0.08 -0.08)">
       <use xlink:href="#DejaVuSans-32"/>
       <use xlink:href="#DejaVuSans-30" x="63.623047"/>
      </g>
     </g>
    </g>
    <g id="ytick_3">
     <g id="line2d_3">
      <path d="M 43.148125 226.0367 
L 993.078125 226.0367 
" clip-path="url(#pad4ce0c854)" style="fill: none; stroke: #dedede; stroke-linecap: square"/>
     </g>
     <g id="text_20">
      <!-- 40 -->
      <g transform="translate(25.968125 229.076075) scale(0.08 -0.08)">
       <use xlink:href="#DejaVuSans-34"/>
       <use xlink:href="#DejaVuSans-30" x="63.623047"/>
      </g>
     </g>
    </g>
    <g id="ytick_4">
     <g id="line2d_4">
      <path d="M 43.148125 162.4431 
L 993.078125 162.4431 
" clip-path="url(#pad4ce0c854)" style="fill: none; stroke: #dedede; stroke-linecap: square"/>
     </g>
     <g id="text_21">
      <!-- 60 -->
      <g transform="translate(25.968125 165.482475) scale(0.08 -0.08)">
       <use xlink:href="#DejaVuSans-36"/>
       <use xlink:href="#DejaVuSans-30" x="63.623047"/>
      </g>
     </g>
    </g>
    <g id="ytick_5">
     <g id="line2d_5">
      <path d="M 43.148125 98.8495 
L 993.078125 98.8495 
" clip-path="url(#pad4ce0c854)" style="fill: none; stroke: #dedede; stroke-linecap: square"/>
     </g>
     <g id="text_22">
      <!-- 80 -->
      <g transform="translate(25.968125 101.888875) scale(0.08 -0.08)">
       <use xlink:href="#DejaVuSans-38"/>
       <use xlink:href="#DejaVuSans-30" x="63.623047"/>
      </g>
     </g>
    </g>
    <g id="ytick_6">
     <g id="line2d_6">
      <path d="M 43.148125 35.2559 
L 993.078125 35.2559 
" clip-path="url(#pad4ce0c854)" style="fill: none; stroke: #dedede; stroke-linecap: square"/>
     </g>
     <g id="text_23">
      <!-- 100 -->
      <g transform="translate(20.878125 38.295275) scale(0.08 -0.08)">
       <use xlink:href="#DejaVuSans-31"/>
       <use xlink:href="#DejaVuSans-30" x="63.623047"/>
       <use xlink:href="#DejaVuSans-30" x="127.246094"/>
      </g>
     </g>
    </g>
    <g id="text_24">
     <!-- % of Library -->
     <g transform="translate(14.798437 224.471931) rotate(-90) scale(0.1 -0.1)">
      <defs>
       <path id="DejaVuSans-25" d="M 4653 2053 
Q 4381 2053 4226 1822 
Q 4072 1591 4072 1178 
Q 4072 772 4226 539 
Q 4381 306 4653 306 
Q 4919 306 5073 539 
Q 5228 772 5228 1178 
Q 5228 1588 5073 1820 
Q 4919 2053 4653 2053 
z
M 4653 2450 
Q 5147 2450 5437 2106 
Q 5728 1763 5728 1178 
Q 5728 594 5436 251 
Q 5144 -91 4653 -91 
Q 4153 -91 3862 251 
Q 3572 594 3572 1178 
Q 3572 1766 3864 2108 
Q 4156 2450 4653 2450 
z
M 1428 4353 
Q 1159 4353 1004 4120 
Q 850 3888 850 3481 
Q 850 3069 1003 2837 
Q 1156 2606 1428 2606 
Q 1700 2606 1854 2837 
Q 2009 3069 2009 3481 
Q 2009 3884 1853 4118 
Q 1697 4353 1428 4353 
z
M 4250 4750 
L 4750 4750 
L 1831 -91 
L 1331 -91 
L 4250 4750 
z
M 1428 4750 
Q 1922 4750 2215 4408 
Q 2509 4066 2509 3481 
Q 2509 2891 2217 2550 
Q 1925 2209 1428 2209 
Q 931 2209 642 2551 
Q 353 2894 353 3481 
Q 353 4063 643 4406 
Q 934 4750 1428 4750 
z
" transform="scale(0.015625)"/>
       <path id="DejaVuSans-66" d="M 2375 4863 
L 2375 4384 
L 1825 4384 
Q 1516 4384 1395 4259 
Q 1275 4134 1275 3809 
L 1275 3500 
L 2222 3500 
L 2222 3053 
L 1275 3053 
L 1275 0 
L 697 0 
L 697 3053 
L 147 3053 
L 147 3500 
L 697 3500 
L 697 3744 
Q 697 4328 969 4595 
Q 1241 4863 1831 4863 
L 2375 4863 
z
" transform="scale(0.015625)"/>
       <path id="DejaVuSans-62" d="M 3116 1747 
Q 3116 2381 2855 2742 
Q 2594 3103 2138 3103 
Q 1681 3103 1420 2742 
Q 1159 2381 1159 1747 
Q 1159 1113 1420 752 
Q 1681 391 2138 391 
Q 2594 391 2855 752 
Q 3116 1113 3116 1747 
z
M 1159 2969 
Q 1341 3281 1617 3432 
Q 1894 3584 2278 3584 
Q 2916 3584 3314 3078 
Q 3713 2572 3713 1747 
Q 3713 922 3314 415 
Q 2916 -91 2278 -91 
Q 1894 -91 1617 61 
Q 1341 213 1159 525 
L 1159 0 
L 581 0 
L 581 4863 
L 1159 4863 
L 1159 2969 
z
" transform="scale(0.015625)"/>
       <path id="DejaVuSans-72" d="M 2631 2963 
Q 2534 3019 2420 3045 
Q 2306 3072 2169 3072 
Q 1681 3072 1420 2755 
Q 1159 2438 1159 1844 
L 1159 0 
L 581 0 
L 581 3500 
L 1159 3500 
L 1159 2956 
Q 1341 3275 1631 3429 
Q 1922 3584 2338 3584 
Q 2397 3584 2469 3576 
Q 2541 3569 2628 3553 
L 2631 2963 
z
" transform="scale(0.015625)"/>
       <path id="DejaVuSans-79" d="M 2059 -325 
Q 1816 -950 1584 -1140 
Q 1353 -1331 966 -1331 
L 506 -1331 
L 506 -850 
L 844 -850 
Q 1081 -850 1212 -737 
Q 1344 -625 1503 -206 
L 1606 56 
L 191 3500 
L 800 3500 
L 1894 763 
L 2988 3500 
L 3597 3500 
L 2059 -325 
z
" transform="scale(0.015625)"/>
      </defs>
      <use xlink:href="#DejaVuSans-25"/>
      <use xlink:href="#DejaVuSans-20" x="95.019531"/>
      <use xlink:href="#DejaVuSans-6f" x="126.806641"/>
      <use xlink:href="#DejaVuSans-66" x="187.988281"/>
      <use xlink:href="#DejaVuSans-20" x="223.193359"/>
      <use xlink:href="#DejaVuSans-4c" x="254.980469"/>
      <use xlink:href="#DejaVuSans-69" x="310.693359"/>
      <use xlink:href="#DejaVuSans-62" x="338.476562"/>
      <use xlink:href="#DejaVuSans-72" x="401.953125"/>
      <use xlink:href="#DejaVuSans-61" x="443.066406"/>
      <use xlink:href="#DejaVuSans-72" x="504.345703"/>
      <use xlink:href="#DejaVuSans-79" x="545.458984"/>
     </g>
    </g>
   </g>
   <g id="line2d_7">
    <path d="M 86.326761 321.813205 
L 143.898277 349.541439 
L 201.469792 350.939633 
L 259.041307 351.252359 
L 316.612822 351.385055 
L 374.184337 351.358707 
L 431.755852 351.418562 
L 489.327367 351.370786 
L 546.898883 351.431234 
L 604.470398 306.04444 
L 662.041913 328.683941 
L 719.613428 191.945742 
L 777.184943 320.046667 
L 834.756458 350.385034 
L 892.327973 352.773697 
L 949.899489 353.2239 
" clip-path="url(#pad4ce0c854)" style="fill: none; stroke: #d9534f; stroke-linecap: square"/>
   </g>
   <g id="line2d_8">
    <path d="M 86.326761 319.618461 
L 143.898277 349.780568 
L 201.469792 351.178302 
L 259.041307 351.564729 
L 316.612822 351.613342 
L 374.184337 351.780597 
L 431.755852 351.722599 
L 489.327367 351.647838 
L 546.898883 351.746337 
L 604.470398 309.532826 
L 662.041913 330.810526 
L 719.613428 204.051586 
L 777.184943 306.312588 
L 834.756458 346.268832 
L 892.327973 353.2239 
L 949.899489 352.76137 
" clip-path="url(#pad4ce0c854)" style="fill: none; stroke: #d9534f; stroke-linecap: square"/>
   </g>
   <g id="line2d_9">
    <path d="M 86.326761 319.9606 
L 143.898277 349.792684 
L 201.469792 351.286295 
L 259.041307 351.799151 
L 316.612822 351.902809 
L 374.184337 351.999708 
L 431.755852 351.962912 
L 489.327367 351.95894 
L 546.898883 351.99741 
L 604.470398 313.935469 
L 662.041913 331.725693 
L 719.613428 221.441764 
L 777.184943 290.543859 
L 834.756458 337.317408 
L 892.327973 353.2239 
L 949.899489 352.765797 
" clip-path="url(#pad4ce0c854)" style="fill: none; stroke: #d9534f; stroke-linecap: square"/>
   </g>
   <g id="line2d_10">
    <path d="M 86.326761 320.386165 
L 143.898277 349.747473 
L 201.469792 351.235834 
L 259.041307 351.743474 
L 316.612822 351.861736 
L 374.184337 351.909927 
L 431.755852 352.001826 
L 489.327367 351.906976 
L 546.898883 351.95844 
L 604.470398 311.833072 
L 662.041913 328.18921 
L 719.613428 230.525856 
L 777.184943 289.359166 
L 834.756458 335.038247 
L 892.327973 353.2239 
L 949.899489 352.693098 
" clip-path="url(#pad4ce0c854)" style="fill: none; stroke: #d9534f; stroke-linecap: square"/>
   </g>
   <g id="line2d_11">
    <path d="M 86.326761 320.321859 
L 143.898277 349.657083 
L 201.469792 351.169228 
L 259.041307 351.623287 
L 316.612822 351.800938 
L 374.184337 352.01398 
L 431.755852 351.917294 
L 489.327367 351.949996 
L 546.898883 351.86301 
L 604.470398 310.939604 
L 662.041913 328.520453 
L 719.613428 229.55537 
L 777.184943 289.85956 
L 834.756458 336.509316 
L 892.327973 353.2239 
L 949.899489 352.689521 
" clip-path="url(#pad4ce0c854)" style="fill: none; stroke: #d9534f; stroke-linecap: square"/>
   </g>
   <g id="line2d_12">
    <path d="M 86.326761 322.568481 
L 143.898277 349.732941 
L 201.469792 351.274261 
L 259.041307 351.829402 
L 316.612822 352.06229 
L 374.184337 352.164335 
L 431.755852 352.224394 
L 489.327367 352.22208 
L 546.898883 352.251216 
L 604.470398 317.815663 
L 662.041913 328.948219 
L 719.613428 251.997634 
L 777.184943 277.0509 
L 834.756458 315.83935 
L 892.327973 352.967652 
L 949.899489 352.665583 
" clip-path="url(#pad4ce0c854)" style="fill: none; stroke: #d9534f; stroke-linecap: square"/>
   </g>
   <g id="line2d_13">
    <path d="M 86.326761 321.606619 
L 143.898277 349.766807 
L 201.469792 351.295525 
L 259.041307 351.891483 
L 316.612822 352.131641 
L 374.184337 352.16836 
L 431.755852 352.271914 
L 489.327367 352.251773 
L 546.898883 352.234761 
L 604.470398 318.23532 
L 662.041913 329.434989 
L 719.613428 247.254098 
L 777.184943 277.258533 
L 834.756458 319.866014 
L 892.327973 353.2239 
L 949.899489 352.722664 
" clip-path="url(#pad4ce0c854)" style="fill: none; stroke: #d9534f; stroke-linecap: square"/>
   </g>
   <g id="line2d_14">
    <path d="M 86.326761 322.72504 
L 143.898277 349.713985 
L 201.469792 351.330716 
L 259.041307 351.754324 
L 316.612822 351.8708 
L 374.184337 351.93979 
L 431.755852 351.941137 
L 489.327367 351.918045 
L 546.898883 351.956696 
L 604.470398 311.512039 
L 662.041913 328.846917 
L 719.613428 225.503402 
L 777.184943 289.712362 
L 834.756458 336.961128 
L 892.327973 353.2239 
L 949.899489 352.704119 
" clip-path="url(#pad4ce0c854)" style="fill: none; stroke: #d9534f; stroke-linecap: square"/>
   </g>
   <g id="line2d_15">
    <path d="M 86.326761 318.425971 
L 143.898277 349.717016 
L 201.469792 351.198919 
L 259.041307 351.667434 
L 316.612822 351.825468 
L 374.184337 351.853593 
L 431.755852 351.973441 
L 489.327367 351.891157 
L 546.898883 351.916896 
L 604.470398 311.040612 
L 662.041913 329.247045 
L 719.613428 220.645729 
L 777.184943 295.727744 
L 834.756458 340.519041 
L 892.327973 353.2239 
L 949.899489 352.740433 
" clip-path="url(#pad4ce0c854)" style="fill: none; stroke: #d9534f; stroke-linecap: square"/>
   </g>
   <g id="line2d_16">
    <path d="M 86.326761 321.769528 
L 143.898277 349.671452 
L 201.469792 351.133784 
L 259.041307 351.517542 
L 316.612822 351.605104 
L 374.184337 351.766758 
L 431.755852 351.728189 
L 489.327367 351.626647 
L 546.898883 351.662901 
L 604.470398 307.475584 
L 662.041913 328.332514 
L 719.613428 214.571499 
L 777.184943 302.102669 
L 834.756458 342.7379 
L 892.327973 353.2239 
L 949.899489 352.688429 
" clip-path="url(#pad4ce0c854)" style="fill: none; stroke: #d9534f; stroke-linecap: square"/>
   </g>
   <g id="line2d_17">
    <path d="M 86.326761 321.025123 
L 143.898277 349.719614 
L 201.469792 351.212818 
L 259.041307 351.755745 
L 316.612822 351.980841 
L 374.184337 352.091319 
L 431.755852 352.07537 
L 489.327367 352.07531 
L 546.898883 352.080197 
L 604.470398 313.469516 
L 662.041913 328.689124 
L 719.613428 234.783215 
L 777.184943 285.835651 
L 834.756458 330.886522 
L 892.327973 353.2239 
L 949.899489 352.710134 
" clip-path="url(#pad4ce0c854)" style="fill: none; stroke: #d9534f; stroke-linecap: square"/>
   </g>
   <g id="line2d_18">
    <path d="M 86.326761 322.512504 
L 143.898277 349.718463 
L 201.469792 351.17224 
L 259.041307 351.665099 
L 316.612822 351.775924 
L 374.184337 351.92268 
L 431.755852 351.930291 
L 489.327367 351.868596 
L 546.898883 351.984408 
L 604.470398 310.580014 
L 662.041913 328.725042 
L 719.613428 225.422679 
L 777.184943 291.035826 
L 834.756458 337.364816 
L 892.327973 353.2239 
L 949.899489 352.711919 
" clip-path="url(#pad4ce0c854)" style="fill: none; stroke: #d9534f; stroke-linecap: square"/>
   </g>
   <g id="line2d_19">
    <path d="M 86.326761 324.555442 
L 143.898277 349.875438 
L 201.469792 350.766551 
L 259.041307 350.796314 
L 316.612822 350.919318 
L 374.184337 350.833355 
L 431.755852 350.787373 
L 489.327367 350.883363 
L 546.898883 350.984424 
L 604.470398 304.710141 
L 662.041913 310.066471 
L 719.613428 183.304347 
L 777.184943 346.112412 
L 834.756458 353.03637 
L 892.327973 352.75918 
L 949.899489 353.2239 
" clip-path="url(#pad4ce0c854)" style="fill: none; stroke: #d9534f; stroke-linecap: square"/>
   </g>
   <g id="line2d_20">
    <path d="M 86.326761 328.563129 
L 143.898277 349.578821 
L 201.469792 350.410143 
L 259.041307 350.452715 
L 316.612822 350.377008 
L 374.184337 350.394023 
L 431.755852 350.501352 
L 489.327367 350.592602 
L 546.898883 350.678459 
L 604.470398 300.984638 
L 662.041913 300.191458 
L 719.613428 192.142545 
L 777.184943 349.653451 
L 834.756458 353.118381 
L 892.327973 352.751775 
L 949.899489 353.2239 
" clip-path="url(#pad4ce0c854)" style="fill: none; stroke: #d9534f; stroke-linecap: square"/>
   </g>
   <g id="line2d_21">
    <path d="M 86.326761 325.467121 
L 143.898277 349.631447 
L 201.469792 350.515857 
L 259.041307 350.546333 
L 316.612822 350.633362 
L 374.184337 350.519057 
L 431.755852 350.591548 
L 489.327367 350.739649 
L 546.898883 350.768513 
L 604.470398 303.164224 
L 662.041913 303.669933 
L 719.613428 189.680024 
L 777.184943 348.588275 
L 834.756458 353.115207 
L 892.327973 352.75995 
L 949.899489 353.2239 
" clip-path="url(#pad4ce0c854)" style="fill: none; stroke: #d9534f; stroke-linecap: square"/>
   </g>
   <g id="line2d_22">
    <path d="M 86.326761 327.969942 
L 143.898277 350.086831 
L 201.469792 350.988095 
L 259.041307 351.140797 
L 316.612822 351.12488 
L 374.184337 351.123854 
L 431.755852 351.067835 
L 489.327367 351.104528 
L 546.898883 351.133376 
L 604.470398 303.127616 
L 662.041913 317.199609 
L 719.613428 202.553509 
L 777.184943 330.224136 
L 834.756458 340.098996 
L 892.327973 351.446497 
L 949.899489 353.2239 
" clip-path="url(#pad4ce0c854)" style="fill: none; stroke: #d9534f; stroke-linecap: square"/>
   </g>
   <g id="line2d_23">
    <path d="M 86.326761 329.64642 
L 143.898277 350.18073 
L 201.469792 350.992394 
L 259.041307 351.00214 
L 316.612822 350.976461 
L 374.184337 351.036064 
L 431.755852 350.968087 
L 489.327367 350.881267 
L 546.898883 350.929249 
L 604.470398 299.510627 
L 662.041913 311.432648 
L 719.613428 207.199586 
L 777.184943 335.032152 
L 834.756458 341.040613 
L 892.327973 349.562062 
L 949.899489 353.2239 
" clip-path="url(#pad4ce0c854)" style="fill: none; stroke: #d9534f; stroke-linecap: square"/>
   </g>
   <g id="line2d_24">
    <path d="M 86.326761 327.825002 
L 143.898277 349.9592 
L 201.469792 350.857451 
L 259.041307 351.000512 
L 316.612822 351.048448 
L 374.184337 351.00417 
L 431.755852 351.049705 
L 489.327367 351.093529 
L 546.898883 350.985178 
L 604.470398 302.19917 
L 662.041913 315.973308 
L 719.613428 204.671339 
L 777.184943 331.107468 
L 834.756458 340.264205 
L 892.327973 351.351815 
L 949.899489 353.2239 
" clip-path="url(#pad4ce0c854)" style="fill: none; stroke: #d9534f; stroke-linecap: square"/>
   </g>
   <g id="line2d_25">
    <path d="M 86.326761 325.555013 
L 143.898277 349.161765 
L 201.469792 349.84996 
L 259.041307 349.862843 
L 316.612822 349.836125 
L 374.184337 350.060012 
L 431.755852 350.082338 
L 489.327367 350.07946 
L 546.898883 350.35311 
L 604.470398 293.280013 
L 662.041913 288.263641 
L 719.613428 217.302109 
L 777.184943 350.881496 
L 834.756458 352.598715 
L 892.327973 353.2239 
L 949.899489 353.2239 
" clip-path="url(#pad4ce0c854)" style="fill: none; stroke: #d9534f; stroke-linecap: square"/>
   </g>
   <g id="line2d_26">
    <path d="M 86.326761 327.18934 
L 143.898277 349.339967 
L 201.469792 350.076011 
L 259.041307 350.11589 
L 316.612822 350.145036 
L 374.184337 350.166417 
L 431.755852 350.162291 
L 489.327367 350.497766 
L 546.898883 350.454155 
L 604.470398 296.174777 
L 662.041913 295.426616 
L 719.613428 204.807614 
L 777.184943 350.125765 
L 834.756458 352.484955 
L 892.327973 353.2239 
L 949.899489 353.2239 
" clip-path="url(#pad4ce0c854)" style="fill: none; stroke: #d9534f; stroke-linecap: square"/>
   </g>
   <g id="line2d_27">
    <path d="M 86.326761 327.628339 
L 143.898277 349.809993 
L 201.469792 350.777427 
L 259.041307 350.802702 
L 316.612822 350.769413 
L 374.184337 350.90231 
L 431.755852 350.880867 
L 489.327367 350.812015 
L 546.898883 350.914531 
L 604.470398 301.736052 
L 662.041913 311.584986 
L 719.613428 186.608417 
L 777.184943 341.742606 
L 834.756458 352.696888 
L 892.327973 352.723956 
L 949.899489 353.2239 
" clip-path="url(#pad4ce0c854)" style="fill: none; stroke: #d9534f; stroke-linecap: square"/>
   </g>
   <g id="line2d_28">
    <path d="M 86.326761 326.135709 
L 143.898277 349.644793 
L 201.469792 350.542512 
L 259.041307 350.623793 
L 316.612822 350.658348 
L 374.184337 350.708702 
L 431.755852 350.688169 
L 489.327367 350.5521 
L 546.898883 350.921974 
L 604.470398 297.594698 
L 662.041913 308.347183 
L 719.613428 201.963064 
L 777.184943 339.981449 
L 834.756458 349.32449 
L 892.327973 352.703516 
L 949.899489 353.2239 
" clip-path="url(#pad4ce0c854)" style="fill: none; stroke: #d9534f; stroke-linecap: square"/>
   </g>
   <g id="line2d_29">
    <path d="M 86.326761 325.979368 
L 143.898277 349.302167 
L 201.469792 350.102661 
L 259.041307 350.141099 
L 316.612822 349.970123 
L 374.184337 350.120782 
L 431.755852 350.08267 
L 489.327367 350.336865 
L 546.898883 350.365664 
L 604.470398 292.261745 
L 662.041913 296.315855 
L 719.613428 215.351185 
L 777.184943 346.239319 
L 834.756458 350.597097 
L 892.327973 353.2239 
L 949.899489 353.2239 
" clip-path="url(#pad4ce0c854)" style="fill: none; stroke: #d9534f; stroke-linecap: square"/>
   </g>
   <g id="line2d_30">
    <path d="M 86.326761 326.733941 
L 143.898277 349.496886 
L 201.469792 350.214287 
L 259.041307 350.376031 
L 316.612822 350.306051 
L 374.184337 350.306576 
L 431.755852 350.373358 
L 489.327367 350.365492 
L 546.898883 350.541782 
L 604.470398 294.817984 
L 662.041913 301.751436 
L 719.613428 208.780938 
L 777.184943 343.553024 
L 834.756458 350.075897 
L 892.327973 352.696816 
L 949.899489 353.2239 
" clip-path="url(#pad4ce0c854)" style="fill: none; stroke: #d9534f; stroke-linecap: square"/>
   </g>
   <g id="line2d_31">
    <path d="M 86.326761 327.394316 
L 143.898277 348.749917 
L 201.469792 349.185414 
L 259.041307 349.285727 
L 316.612822 349.359428 
L 374.184337 349.524495 
L 431.755852 349.755937 
L 489.327367 350.057644 
L 546.898883 350.144189 
L 604.470398 290.14244 
L 662.041913 273.027481 
L 719.613428 234.964851 
L 777.184943 352.823314 
L 834.756458 352.751448 
L 892.327973 353.2239 
L 949.899489 353.2239 
" clip-path="url(#pad4ce0c854)" style="fill: none; stroke: #d9534f; stroke-linecap: square"/>
   </g>
   <g id="line2d_32">
    <path d="M 86.326761 324.747514 
L 143.898277 349.098871 
L 201.469792 349.806904 
L 259.041307 349.853823 
L 316.612822 349.969561 
L 374.184337 350.039968 
L 431.755852 350.005829 
L 489.327367 350.220459 
L 546.898883 350.345118 
L 604.470398 296.986992 
L 662.041913 284.564556 
L 719.613428 216.561384 
L 777.184943 352.247994 
L 834.756458 352.717624 
L 892.327973 353.2239 
L 949.899489 353.2239 
" clip-path="url(#pad4ce0c854)" style="fill: none; stroke: #d9534f; stroke-linecap: square"/>
   </g>
   <g id="line2d_33">
    <path d="M 86.326761 328.841718 
L 143.898277 349.884728 
L 201.469792 350.623267 
L 259.041307 350.706707 
L 316.612822 350.717893 
L 374.184337 350.717767 
L 431.755852 350.61853 
L 489.327367 350.806804 
L 546.898883 350.793477 
L 604.470398 303.475033 
L 662.041913 305.93752 
L 719.613428 183.179091 
L 777.184943 348.238398 
L 834.756458 353.105498 
L 892.327973 352.744069 
L 949.899489 353.2239 
" clip-path="url(#pad4ce0c854)" style="fill: none; stroke: #d9534f; stroke-linecap: square"/>
   </g>
   <g id="line2d_34">
    <path d="M 86.326761 324.7958 
L 143.898277 348.875017 
L 201.469792 349.608778 
L 259.041307 349.759011 
L 316.612822 349.771618 
L 374.184337 349.891477 
L 431.755852 350.046534 
L 489.327367 350.148333 
L 546.898883 350.373444 
L 604.470398 294.457389 
L 662.041913 280.961943 
L 719.613428 223.254804 
L 777.184943 352.455135 
L 834.756458 352.767319 
L 892.327973 353.2239 
L 949.899489 353.2239 
" clip-path="url(#pad4ce0c854)" style="fill: none; stroke: #d9534f; stroke-linecap: square"/>
   </g>
   <g id="line2d_35">
    <path d="M 86.326761 326.061349 
L 143.898277 349.707706 
L 201.469792 350.632159 
L 259.041307 350.758617 
L 316.612822 350.751429 
L 374.184337 350.677015 
L 431.755852 350.708646 
L 489.327367 350.892041 
L 546.898883 350.816331 
L 604.470398 300.219119 
L 662.041913 313.172654 
L 719.613428 187.856779 
L 777.184943 343.87614 
L 834.756458 351.635835 
L 892.327973 352.624679 
L 949.899489 353.2239 
" clip-path="url(#pad4ce0c854)" style="fill: none; stroke: #d9534f; stroke-linecap: square"/>
   </g>
   <g id="line2d_36">
    <path d="M 86.326761 325.470426 
L 143.898277 349.57592 
L 201.469792 350.40445 
L 259.041307 350.517812 
L 316.612822 350.59402 
L 374.184337 350.567894 
L 431.755852 350.627501 
L 489.327367 350.67258 
L 546.898883 350.640697 
L 604.470398 299.12115 
L 662.041913 309.595234 
L 719.613428 191.414367 
L 777.184943 346.336426 
L 834.756458 352.203896 
L 892.327973 352.648127 
L 949.899489 353.2239 
" clip-path="url(#pad4ce0c854)" style="fill: none; stroke: #d9534f; stroke-linecap: square"/>
   </g>
   <g id="line2d_37">
    <path d="M 86.326761 327.695689 
L 143.898277 349.702457 
L 201.469792 350.512556 
L 259.041307 350.684835 
L 316.612822 350.629404 
L 374.184337 350.531694 
L 431.755852 350.728513 
L 489.327367 350.640369 
L 546.898883 350.750906 
L 604.470398 298.986995 
L 662.041913 311.828041 
L 719.613428 188.089111 
L 777.184943 344.744116 
L 834.756458 352.249154 
L 892.327973 352.616662 
L 949.899489 353.2239 
" clip-path="url(#pad4ce0c854)" style="fill: none; stroke: #d9534f; stroke-linecap: square"/>
   </g>
   <g id="line2d_38">
    <path d="M 86.326761 327.652719 
L 143.898277 349.587632 
L 201.469792 350.381481 
L 259.041307 350.459345 
L 316.612822 350.44506 
L 374.184337 350.457065 
L 431.755852 350.416491 
L 489.327367 350.457186 
L 546.898883 350.531328 
L 604.470398 297.995129 
L 662.041913 308.10315 
L 719.613428 192.100571 
L 777.184943 347.229143 
L 834.756458 351.924699 
L 892.327973 352.649501 
L 949.899489 353.2239 
" clip-path="url(#pad4ce0c854)" style="fill: none; stroke: #d9534f; stroke-linecap: square"/>
   </g>
   <g id="line2d_39">
    <path d="M 86.326761 325.965515 
L 143.898277 349.506594 
L 201.469792 350.273882 
L 259.041307 350.500112 
L 316.612822 350.473172 
L 374.184337 350.553106 
L 431.755852 350.477545 
L 489.327367 350.456672 
L 546.898883 350.668017 
L 604.470398 299.002832 
L 662.041913 303.812013 
L 719.613428 194.056158 
L 777.184943 348.860257 
L 834.756458 353.097612 
L 892.327973 352.687014 
L 949.899489 353.2239 
" clip-path="url(#pad4ce0c854)" style="fill: none; stroke: #d9534f; stroke-linecap: square"/>
   </g>
   <g id="line2d_40">
    <path d="M 86.326761 328.540425 
L 143.898277 350.212643 
L 201.469792 351.03669 
L 259.041307 351.278277 
L 316.612822 351.174921 
L 374.184337 351.206305 
L 431.755852 351.146223 
L 489.327367 351.221066 
L 546.898883 351.183194 
L 604.470398 305.05974 
L 662.041913 320.291513 
L 719.613428 176.242405 
L 777.184943 336.288837 
L 834.756458 352.814644 
L 892.327973 352.693617 
L 949.899489 353.2239 
" clip-path="url(#pad4ce0c854)" style="fill: none; stroke: #d9534f; stroke-linecap: square"/>
   </g>
   <g id="line2d_41">
    <path d="M 86.326761 326.227465 
L 143.898277 349.986592 
L 201.469792 350.861337 
L 259.041307 350.883655 
L 316.612822 350.919352 
L 374.184337 350.956663 
L 431.755852 350.879816 
L 489.327367 350.938663 
L 546.898883 350.992093 
L 604.470398 303.616809 
L 662.041913 313.802649 
L 719.613428 180.914286 
L 777.184943 343.607422 
L 834.756458 353.106135 
L 892.327973 352.697563 
L 949.899489 353.2239 
" clip-path="url(#pad4ce0c854)" style="fill: none; stroke: #d9534f; stroke-linecap: square"/>
   </g>
   <g id="line2d_42">
    <path d="M 86.326761 325.402057 
L 143.898277 349.528146 
L 201.469792 350.435049 
L 259.041307 350.583927 
L 316.612822 350.578861 
L 374.184337 350.579579 
L 431.755852 350.478619 
L 489.327367 350.532451 
L 546.898883 350.64995 
L 604.470398 300.422734 
L 662.041913 306.014475 
L 719.613428 191.159413 
L 777.184943 348.212107 
L 834.756458 353.102504 
L 892.327973 352.710626 
L 949.899489 353.2239 
" clip-path="url(#pad4ce0c854)" style="fill: none; stroke: #d9534f; stroke-linecap: square"/>
   </g>
   <g id="line2d_43">
    <path d="M 86.326761 329.950971 
L 143.898277 349.999584 
L 201.469792 350.746733 
L 259.041307 350.854892 
L 316.612822 350.816133 
L 374.184337 350.803002 
L 431.755852 350.740085 
L 489.327367 350.772959 
L 546.898883 350.842001 
L 604.470398 300.458924 
L 662.041913 314.448923 
L 719.613428 182.065645 
L 777.184943 342.719605 
L 834.756458 352.514275 
L 892.327973 352.656766 
L 949.899489 353.2239 
" clip-path="url(#pad4ce0c854)" style="fill: none; stroke: #d9534f; stroke-linecap: square"/>
   </g>
   <g id="line2d_44">
    <path d="M 86.326761 327.355359 
L 143.898277 349.793874 
L 201.469792 350.567107 
L 259.041307 350.825623 
L 316.612822 350.715354 
L 374.184337 350.779418 
L 431.755852 350.696219 
L 489.327367 350.825876 
L 546.898883 350.896241 
L 604.470398 300.432921 
L 662.041913 313.836425 
L 719.613428 184.723758 
L 777.184943 343.417092 
L 834.756458 352.865162 
L 892.327973 352.660072 
L 949.899489 353.2239 
" clip-path="url(#pad4ce0c854)" style="fill: none; stroke: #d9534f; stroke-linecap: square"/>
   </g>
   <g id="line2d_45">
    <path d="M 86.326761 326.800199 
L 143.898277 349.880509 
L 201.469792 350.719963 
L 259.041307 350.909201 
L 316.612822 350.850744 
L 374.184337 350.831257 
L 431.755852 350.912231 
L 489.327367 350.918481 
L 546.898883 350.888854 
L 604.470398 301.779341 
L 662.041913 315.640169 
L 719.613428 183.740961 
L 777.184943 341.165534 
L 834.756458 352.681526 
L 892.327973 352.67153 
L 949.899489 353.2239 
" clip-path="url(#pad4ce0c854)" style="fill: none; stroke: #d9534f; stroke-linecap: square"/>
   </g>
   <g id="line2d_46">
    <path d="M 86.326761 328.116585 
L 143.898277 349.638384 
L 201.469792 350.412558 
L 259.041307 350.461801 
L 316.612822 350.482224 
L 374.184337 350.521752 
L 431.755852 350.443475 
L 489.327367 350.549124 
L 546.898883 350.593146 
L 604.470398 298.578146 
L 662.041913 307.959609 
L 719.613428 190.485241 
L 777.184943 346.813297 
L 834.756458 352.703625 
L 892.327973 352.631534 
L 949.899489 353.2239 
" clip-path="url(#pad4ce0c854)" style="fill: none; stroke: #d9534f; stroke-linecap: square"/>
   </g>
   <g id="line2d_47">
    <path d="M 86.326761 323.57517 
L 143.898277 349.830341 
L 201.469792 351.212941 
L 259.041307 351.705009 
L 316.612822 351.838355 
L 374.184337 351.905656 
L 431.755852 351.829 
L 489.327367 351.931721 
L 546.898883 351.806423 
L 604.470398 311.695237 
L 662.041913 330.902123 
L 719.613428 211.785678 
L 777.184943 296.664085 
L 834.756458 341.213225 
L 892.327973 352.969201 
L 949.899489 352.750234 
" clip-path="url(#pad4ce0c854)" style="fill: none; stroke: #d9534f; stroke-linecap: square"/>
   </g>
   <g id="line2d_48">
    <path d="M 86.326761 318.378221 
L 143.898277 349.643009 
L 201.469792 351.213642 
L 259.041307 351.694429 
L 316.612822 351.832415 
L 374.184337 351.903976 
L 431.755852 351.91874 
L 489.327367 351.876401 
L 546.898883 351.900443 
L 604.470398 312.371947 
L 662.041913 331.679109 
L 719.613428 213.647609 
L 777.184943 297.943462 
L 834.756458 341.823228 
L 892.327973 352.999976 
L 949.899489 352.787793 
" clip-path="url(#pad4ce0c854)" style="fill: none; stroke: #d9534f; stroke-linecap: square"/>
   </g>
   <g id="line2d_49">
    <path d="M 86.326761 321.536768 
L 143.898277 349.74638 
L 201.469792 351.076048 
L 259.041307 351.519884 
L 316.612822 351.574003 
L 374.184337 351.637758 
L 431.755852 351.605032 
L 489.327367 351.630771 
L 546.898883 351.659462 
L 604.470398 308.660525 
L 662.041913 330.865817 
L 719.613428 199.232573 
L 777.184943 308.726233 
L 834.756458 348.152685 
L 892.327973 353.2239 
L 949.899489 352.76656 
" clip-path="url(#pad4ce0c854)" style="fill: none; stroke: #d9534f; stroke-linecap: square"/>
   </g>
   <g id="line2d_50">
    <path d="M 86.326761 318.115379 
L 143.898277 349.589979 
L 201.469792 351.214958 
L 259.041307 351.749767 
L 316.612822 352.043226 
L 374.184337 352.107892 
L 431.755852 352.157333 
L 489.327367 352.140812 
L 546.898883 352.16187 
L 604.470398 315.547967 
L 662.041913 329.371926 
L 719.613428 239.562589 
L 777.184943 285.064214 
L 834.756458 327.16282 
L 892.327973 353.2239 
L 949.899489 352.399767 
" clip-path="url(#pad4ce0c854)" style="fill: none; stroke: #d9534f; stroke-linecap: square"/>
   </g>
   <g id="line2d_51">
    <path d="M 86.326761 321.843055 
L 143.898277 349.667544 
L 201.469792 351.305327 
L 259.041307 351.736327 
L 316.612822 351.89405 
L 374.184337 351.971136 
L 431.755852 351.997938 
L 489.327367 351.951762 
L 546.898883 351.962813 
L 604.470398 312.340909 
L 662.041913 328.812347 
L 719.613428 228.571907 
L 777.184943 290.82158 
L 834.756458 333.062175 
L 892.327973 352.986165 
L 949.899489 352.689365 
" clip-path="url(#pad4ce0c854)" style="fill: none; stroke: #d9534f; stroke-linecap: square"/>
   </g>
   <g id="line2d_52">
    <path d="M 86.326761 321.097681 
L 143.898277 349.745419 
L 201.469792 351.183401 
L 259.041307 351.812318 
L 316.612822 351.951008 
L 374.184337 351.950859 
L 431.755852 351.974508 
L 489.327367 351.965381 
L 546.898883 352.0643 
L 604.470398 312.823847 
L 662.041913 329.245388 
L 719.613428 227.232253 
L 777.184943 291.959432 
L 834.756458 332.899753 
L 892.327973 352.985318 
L 949.899489 352.723535 
" clip-path="url(#pad4ce0c854)" style="fill: none; stroke: #d9534f; stroke-linecap: square"/>
   </g>
   <g id="line2d_53">
    <path d="M 86.326761 320.763066 
L 143.898277 349.624699 
L 201.469792 351.168068 
L 259.041307 351.465885 
L 316.612822 351.571227 
L 374.184337 351.704956 
L 431.755852 351.581638 
L 489.327367 351.644202 
L 546.898883 351.680212 
L 604.470398 308.913727 
L 662.041913 329.586768 
L 719.613428 208.063975 
L 777.184943 305.832068 
L 834.756458 344.265209 
L 892.327973 353.00721 
L 949.899489 352.741487 
" clip-path="url(#pad4ce0c854)" style="fill: none; stroke: #d9534f; stroke-linecap: square"/>
   </g>
   <g id="line2d_54">
    <path d="M 86.326761 320.704685 
L 143.898277 349.08963 
L 201.469792 350.380609 
L 259.041307 350.712894 
L 316.612822 350.86778 
L 374.184337 350.892244 
L 431.755852 350.886886 
L 489.327367 350.82048 
L 546.898883 350.902085 
L 604.470398 300.502959 
L 662.041913 323.438045 
L 719.613428 193.295365 
L 777.184943 333.672558 
L 834.756458 351.472633 
L 892.327973 352.751647 
L 949.899489 353.2239 
" clip-path="url(#pad4ce0c854)" style="fill: none; stroke: #d9534f; stroke-linecap: square"/>
   </g>
   <g id="line2d_55">
    <path d="M 86.326761 318.661472 
L 143.898277 349.275434 
L 201.469792 350.78619 
L 259.041307 351.021261 
L 316.612822 350.998229 
L 374.184337 351.116822 
L 431.755852 351.005189 
L 489.327367 351.050121 
L 546.898883 351.152343 
L 604.470398 303.776911 
L 662.041913 326.306585 
L 719.613428 195.3161 
L 777.184943 326.951475 
L 834.756458 350.224504 
L 892.327973 352.747864 
L 949.899489 353.2239 
" clip-path="url(#pad4ce0c854)" style="fill: none; stroke: #d9534f; stroke-linecap: square"/>
   </g>
   <g id="line2d_56">
    <path d="M 86.326761 319.378319 
L 143.898277 349.507831 
L 201.469792 350.799122 
L 259.041307 351.238452 
L 316.612822 351.358215 
L 374.184337 351.29127 
L 431.755852 351.323134 
L 489.327367 351.301102 
L 546.898883 351.321629 
L 604.470398 303.089235 
L 662.041913 326.665223 
L 719.613428 199.712059 
L 777.184943 321.668412 
L 834.756458 349.019729 
L 892.327973 353.2239 
L 949.899489 352.716769 
" clip-path="url(#pad4ce0c854)" style="fill: none; stroke: #d9534f; stroke-linecap: square"/>
   </g>
   <g id="line2d_57">
    <path d="M 86.326761 321.605483 
L 143.898277 349.481754 
L 201.469792 350.764933 
L 259.041307 351.123999 
L 316.612822 351.263599 
L 374.184337 351.198358 
L 431.755852 351.211795 
L 489.327367 351.207271 
L 546.898883 351.269997 
L 604.470398 302.389768 
L 662.041913 327.047114 
L 719.613428 197.97589 
L 777.184943 321.901001 
L 834.756458 349.225977 
L 892.327973 353.2239 
L 949.899489 352.723561 
" clip-path="url(#pad4ce0c854)" style="fill: none; stroke: #d9534f; stroke-linecap: square"/>
   </g>
   <g id="line2d_58">
    <path d="M 86.326761 323.353183 
L 143.898277 349.961292 
L 201.469792 351.199381 
L 259.041307 351.538504 
L 316.612822 351.794896 
L 374.184337 351.883866 
L 431.755852 351.874804 
L 489.327367 351.903952 
L 546.898883 351.880228 
L 604.470398 309.21164 
L 662.041913 328.618125 
L 719.613428 214.082264 
L 777.184943 300.462188 
L 834.756458 340.188302 
L 892.327973 352.976672 
L 949.899489 352.685104 
" clip-path="url(#pad4ce0c854)" style="fill: none; stroke: #d9534f; stroke-linecap: square"/>
   </g>
   <g id="line2d_59">
    <path d="M 43.148125 353.2239 
L 993.078125 353.2239 
" clip-path="url(#pad4ce0c854)" style="fill: none; stroke: #dedede; stroke-width: 2; stroke-linecap: square"/>
   </g>
   <g id="text_25">
    <!-- FastQC: Sequence Duplication Levels -->
    <g transform="translate(369.699375 19.3575) scale(0.16 -0.16)">
     <defs>
      <path id="DejaVuSans-46" d="M 628 4666 
L 3309 4666 
L 3309 4134 
L 1259 4134 
L 1259 2759 
L 3109 2759 
L 3109 2228 
L 1259 2228 
L 1259 0 
L 628 0 
L 628 4666 
z
" transform="scale(0.015625)"/>
      <path id="DejaVuSans-73" d="M 2834 3397 
L 2834 2853 
Q 2591 2978 2328 3040 
Q 2066 3103 1784 3103 
Q 1356 3103 1142 2972 
Q 928 2841 928 2578 
Q 928 2378 1081 2264 
Q 1234 2150 1697 2047 
L 1894 2003 
Q 2506 1872 2764 1633 
Q 3022 1394 3022 966 
Q 3022 478 2636 193 
Q 2250 -91 1575 -91 
Q 1294 -91 989 -36 
Q 684 19 347 128 
L 347 722 
Q 666 556 975 473 
Q 1284 391 1588 391 
Q 1994 391 2212 530 
Q 2431 669 2431 922 
Q 2431 1156 2273 1281 
Q 2116 1406 1581 1522 
L 1381 1569 
Q 847 1681 609 1914 
Q 372 2147 372 2553 
Q 372 3047 722 3315 
Q 1072 3584 1716 3584 
Q 2034 3584 2315 3537 
Q 2597 3491 2834 3397 
z
" transform="scale(0.015625)"/>
      <path id="DejaVuSans-51" d="M 2522 4238 
Q 1834 4238 1429 3725 
Q 1025 3213 1025 2328 
Q 1025 1447 1429 934 
Q 1834 422 2522 422 
Q 3209 422 3611 934 
Q 4013 1447 4013 2328 
Q 4013 3213 3611 3725 
Q 3209 4238 2522 4238 
z
M 3406 84 
L 4238 -825 
L 3475 -825 
L 2784 -78 
Q 2681 -84 2626 -87 
Q 2572 -91 2522 -91 
Q 1538 -91 948 567 
Q 359 1225 359 2328 
Q 359 3434 948 4092 
Q 1538 4750 2522 4750 
Q 3503 4750 4090 4092 
Q 4678 3434 4678 2328 
Q 4678 1516 4351 937 
Q 4025 359 3406 84 
z
" transform="scale(0.015625)"/>
      <path id="DejaVuSans-43" d="M 4122 4306 
L 4122 3641 
Q 3803 3938 3442 4084 
Q 3081 4231 2675 4231 
Q 1875 4231 1450 3742 
Q 1025 3253 1025 2328 
Q 1025 1406 1450 917 
Q 1875 428 2675 428 
Q 3081 428 3442 575 
Q 3803 722 4122 1019 
L 4122 359 
Q 3791 134 3420 21 
Q 3050 -91 2638 -91 
Q 1578 -91 968 557 
Q 359 1206 359 2328 
Q 359 3453 968 4101 
Q 1578 4750 2638 4750 
Q 3056 4750 3426 4639 
Q 3797 4528 4122 4306 
z
" transform="scale(0.015625)"/>
      <path id="DejaVuSans-3a" d="M 750 794 
L 1409 794 
L 1409 0 
L 750 0 
L 750 794 
z
M 750 3309 
L 1409 3309 
L 1409 2516 
L 750 2516 
L 750 3309 
z
" transform="scale(0.015625)"/>
     </defs>
     <use xlink:href="#DejaVuSans-46"/>
     <use xlink:href="#DejaVuSans-61" x="48.394531"/>
     <use xlink:href="#DejaVuSans-73" x="109.673828"/>
     <use xlink:href="#DejaVuSans-74" x="161.773438"/>
     <use xlink:href="#DejaVuSans-51" x="200.982422"/>
     <use xlink:href="#DejaVuSans-43" x="279.693359"/>
     <use xlink:href="#DejaVuSans-3a" x="349.517578"/>
     <use xlink:href="#DejaVuSans-20" x="383.208984"/>
     <use xlink:href="#DejaVuSans-53" x="414.996094"/>
     <use xlink:href="#DejaVuSans-65" x="478.472656"/>
     <use xlink:href="#DejaVuSans-71" x="539.996094"/>
     <use xlink:href="#DejaVuSans-75" x="603.472656"/>
     <use xlink:href="#DejaVuSans-65" x="666.851562"/>
     <use xlink:href="#DejaVuSans-6e" x="728.375"/>
     <use xlink:href="#DejaVuSans-63" x="791.753906"/>
     <use xlink:href="#DejaVuSans-65" x="846.734375"/>
     <use xlink:href="#DejaVuSans-20" x="908.257812"/>
     <use xlink:href="#DejaVuSans-44" x="940.044922"/>
     <use xlink:href="#DejaVuSans-75" x="1017.046875"/>
     <use xlink:href="#DejaVuSans-70" x="1080.425781"/>
     <use xlink:href="#DejaVuSans-6c" x="1143.902344"/>
     <use xlink:href="#DejaVuSans-69" x="1171.685547"/>
     <use xlink:href="#DejaVuSans-63" x="1199.46875"/>
     <use xlink:href="#DejaVuSans-61" x="1254.449219"/>
     <use xlink:href="#DejaVuSans-74" x="1315.728516"/>
     <use xlink:href="#DejaVuSans-69" x="1354.9375"/>
     <use xlink:href="#DejaVuSans-6f" x="1382.720703"/>
     <use xlink:href="#DejaVuSans-6e" x="1443.902344"/>
     <use xlink:href="#DejaVuSans-20" x="1507.28125"/>
     <use xlink:href="#DejaVuSans-4c" x="1539.068359"/>
     <use xlink:href="#DejaVuSans-65" x="1593.03125"/>
     <use xlink:href="#DejaVuSans-76" x="1654.554688"/>
     <use xlink:href="#DejaVuSans-65" x="1713.734375"/>
     <use xlink:href="#DejaVuSans-6c" x="1775.257812"/>
     <use xlink:href="#DejaVuSans-73" x="1803.041016"/>
    </g>
   </g>
  </g>
 </g>
 <defs>
  <clipPath id="pad4ce0c854">
   <rect x="43.148125" y="35.2559" width="949.93" height="317.968"/>
  </clipPath>
 </defs>
</svg>
